/* XPM */
static char *red_21704817986[] = {
/* columns rows colors chars-per-pixel */
"64 64 157 2 ",
"   c #070B02",
".  c #050107",
"X  c #141D04",
"o  c #0E0416",
"O  c #141019",
"+  c #28050D",
"@  c #2A090E",
"#  c #350A0B",
"$  c #381310",
"%  c #142001",
"&  c #192604",
"*  c #1B2A01",
"=  c #142409",
"-  c #182510",
";  c #112818",
":  c #172D10",
">  c #2E230B",
",  c #3E260A",
"<  c #3F2908",
"1  c #24092F",
"2  c #330923",
"3  c #5C1113",
"4  c #55131E",
"5  c #771026",
"6  c #7D1A2B",
"7  c #7C122E",
"8  c #6C0D30",
"9  c #750F3E",
"0  c #2C4306",
"q  c #2F4A01",
"w  c #27400C",
"e  c #2A4209",
"r  c #2F4808",
"t  c #304F00",
"y  c #315000",
"u  c #3E5E0C",
"i  c #2C4919",
"p  c #2B5019",
"a  c #3E6207",
"s  c #3C6B1B",
"d  c #254B21",
"f  c #495E04",
"g  c #47570D",
"h  c #446305",
"j  c #4B6504",
"k  c #4B6F0F",
"l  c #476904",
"z  c #4E7A06",
"x  c #4C720C",
"c  c #4E750A",
"v  c #537E03",
"b  c #527B0D",
"n  c #43751C",
"m  c #517810",
"M  c #496F31",
"N  c #507B34",
"B  c #290C42",
"V  c #3D304B",
"C  c #4C104F",
"Z  c #5B154D",
"A  c #471153",
"S  c #69114A",
"D  c #701D4D",
"F  c #6D185A",
"G  c #7A1A56",
"H  c #7C1D58",
"J  c #5B345C",
"K  c #6E1B62",
"L  c #337747",
"P  c #515454",
"I  c #545D5B",
"U  c #60744A",
"Y  c #514064",
"T  c #842218",
"R  c #971A22",
"E  c #8A0F36",
"W  c #8F1135",
"Q  c #9C1534",
"!  c #93173F",
"~  c #A51D24",
"^  c #A1182E",
"/  c #B91E2F",
"(  c #A11934",
")  c #AB1A31",
"_  c #A41F38",
"`  c #A62020",
"'  c #BE202E",
"]  c #A9382F",
"[  c #A52037",
"{  c #B52535",
"}  c #BB253B",
"|  c #CC242D",
" . c #D0282E",
".. c #DD292A",
"X. c #DF322F",
"o. c #C52431",
"O. c #CF2D31",
"+. c #C32E3D",
"@. c #E02D2B",
"#. c #E4342E",
"$. c #DC413A",
"%. c #D7413E",
"&. c #E1433A",
"*. c #F14837",
"=. c #941F44",
"-. c #992143",
";. c #C83C41",
":. c #548302",
">. c #578901",
",. c #588D01",
"<. c #56820B",
"1. c #5D8D0D",
"2. c #589100",
"3. c #5D910D",
"4. c #5E8B12",
"5. c #608F07",
"6. c #608F0A",
"7. c #609202",
"8. c #679C03",
"9. c #689F02",
"0. c #65960D",
"q. c #669B0C",
"w. c #689F0B",
"e. c #649513",
"r. c #669912",
"t. c #689D12",
"y. c #65A203",
"u. c #69A402",
"i. c #6BAB02",
"p. c #69A30A",
"a. c #6DAA0A",
"s. c #67A507",
"d. c #70AE0D",
"f. c #6EB301",
"g. c #6FB800",
"h. c #72B405",
"j. c #71BA01",
"k. c #72B30D",
"l. c #76BB0F",
"z. c #78BE0E",
"x. c #6BA412",
"c. c #6EAA11",
"v. c #70AE11",
"b. c #73B310",
"n. c #75B810",
"m. c #53982B",
"M. c #468730",
"N. c #4D9233",
"B. c #5AAA39",
"V. c #7AC30D",
"C. c #7DCA0C",
"Z. c #79C306",
"A. c #39834A",
"S. c #5A9749",
"D. c #499B54",
"F. c #629441",
"G. c #80CF0D",
/* pixels */
"i.i.g.s.8.i.i.f.f.f.f.f.f.i.y.e.8.9.9.0.e.e.q.f.f.w.8.u.u.i.q.e.e.e.e.0.s.g.p.i.f.p.q.f.a.t.t.r.p.f.i.e.e.e.t.g.p.f.f.y.9.u.f.f.",
"i.i.f.p.u.u.f.f.f.f.i.i.i.i.8.e.8.8.9.0.e.q.i.j.i.q.0.9.9.9.e.e.e.q.p.p.g.f.p.f.i.p.i.g.r.t.a.u.i.j.t.e.r.p.f.f.u.i.i.w.u.f.f.i.",
"i.f.i.0.9.i.i.f.g.s.i.f.i.u.q.e.0.8.q.p.s.u.i.f.p.e.0.8.9.q.e.r.i.a.e.a.j.p.u.i.i.i.f.p.e.a.i.s.f.i.e.p.i.i.j.p.u.i.u.u.f.f.u.u.",
"f.f.p.w.f.f.i.g.f.u.i.i.u.9.0.e.e.e.u.j.p.p.i.i.w.e.e.e.e.e.q.f.f.e.p.f.g.y.u.i.i.f.f.r.a.f.p.i.f.p.i.f.u.j.f.8.u.u.i.i.f.i.u.y.",
"f.i.u.j.f.8.f.g.i.9.u.u.9.8.0.e.r.p.j.u.e.u.i.u.0.e.e.e.e.q.f.f.q.e.i.j.f.w.u.u.f.f.y.p.j.u.u.i.f.f.g.i.f.f.s.q.8.u.i.i.i.u.8.u.",
"i.i.f.j.q.q.f.f.w.8.y.9.8.0.e.0.s.f.f.q.0.9.u.u.e.e.e.e.q.i.i.y.e.q.i.f.u.8.u.f.f.i.u.j.f.w.i.i.f.f.j.i.i.f.w.0.8.9.y.i.i.e.w.f.",
"u.i.f.u.e.u.f.f.q.8.8.9.0.e.w.p.g.f.8.e.0.9.9.9.e.e.e.r.8.u.i.0.r.u.i.i.p.u.f.f.i.i.i.f.p.8.y.i.f.f.g.i.i.i.q.e.0.8.u.f.q.e.i.g.",
"y.u.u.q.r.i.f.a.0.0.0.8.e.p.p.f.f.u.q.e.q.9.9.8.e.e.w.8.9.9.9.w.q.u.u.i.y.f.f.i.u.i.f.f.r.8.i.f.i.g.i.i.i.i.e.e.e.e.f.f.e.p.g.g.",
"8.9.y.e.w.f.f.w.e.e.e.q.p.i.p.j.i.8.0.p.p.q.0.0.r.s.p.e.q.8.u.s.q.9.u.u.i.f.i.u.u.i.f.u.q.f.f.i.f.f.u.u.u.p.e.e.e.s.j.p.e.i.f.i.",
"0.0.8.e.u.f.i.q.e.e.q.i.g.p.f.f.p.q.p.s.e.e.e.q.i.i.e.e.e.q.f.q.0.9.9.i.i.i.u.8.u.j.i.i.f.g.8.s.j.f.8.9.u.w.e.e.w.j.f.r.q.f.f.p.",
"e.e.e.r.f.f.u.0.e.p.j.j.a.u.f.i.r.a.f.e.e.r.q.f.j.t.e.e.r.f.a.r.0.0.9.u.i.i.r.q.f.f.u.f.f.p.0.f.g.u.8.8.9.q.e.e.i.j.u.e.u.i.i.r.",
"e.e.e.f.g.u.9.q.u.j.j.j.s.i.i.u.s.g.p.e.q.u.s.j.i.e.r.p.i.j.q.e.e.0.0.9.j.p.e.s.g.i.i.f.i.r.q.f.g.p.8.8.8.0.e.w.i.f.q.r.i.i.u.e.",
"e.e.p.j.i.9.9.u.f.j.j.f.u.i.i.i.f.i.r.p.f.y.f.f.t.p.i.a.f.f.e.e.e.e.t.f.f.0.q.j.f.u.u.u.p.0.u.f.i.r.q.0.8.e.e.u.i.i.e.0.u.u.p.e.",
"e.e.f.g.9.8.u.i.i.f.j.i.p.u.i.f.f.p.p.j.p.i.i.i.i.g.i.f.j.p.e.e.t.c.d.j.s.e.s.g.i.8.9.9.0.q.f.f.p.e.e.e.e.q.w.u.i.i.e.8.u.u.8.e.",
"r.u.f.f.q.8.u.u.i.f.f.p.y.i.f.f.i.u.f.f.p.i.i.f.g.f.f.f.f.q.e.v.n.p.g.f.t.r.f.f.p.e.e.q.e.w.f.i.w.e.e.q.s.p.w.u.i.y.0.8.9.9.0.e.",
"u.i.f.s.e.0.8.8.h.f.f.u.f.f.f.i.i.i.j.p.8.u.f.f.f.g.i.i.s.t.n.C.x.u.h.i.e.y.i.i.q.e.e.e.e.f.f.i.w.e.p.f.p.e.8.u.u.w.e.0.8.8.0.r.",
"p.i.i.p.e.e.0.a.j.i.f.j.f.g.i.u.f.f.f.q.9.u.f.i.f.f.i.i.i.k.V.c.q.i.f.p.e.u.i.u.e.e.e.e.s.j.i.y.q.u.j.s.e.e.8.9.9.q.e.e.e.q.s.f.",
"p.i.i.q.e.e.c.l.i.f.j.f.f.i.u.u.i.f.p.q.i.f.i.f.j.u.u.i.i.c.3.x z ,.u.q.0.u.i.p.e.e.e.q.j.f.9.9.y.i.f.q.e.e.8.8.8.0.e.e.q.i.f.t.",
"u.u.u.0.e.w.V.h.i.f.f.i.f.u.9.u.f.i.y.i.g.u.i.j.i.y.u.i.a.1.r & * q >.0.q.u.u.8.e.e.e.i.g.i.8.9.u.i.p.e.e.e.q.8.8.0.e.q.i.f.p.e.",
"9.u.9.0.r.z.z.p.i.i.i.i.i.q.9.f.f.i.f.g.p.8.f.g.p.9.9.8.<.u X   = w h b 5.8.9.8.e.e.p.f.f.p.0.9.u.u.q.e.e.q.w.q.0.0.e.8.i.i.e.e.",
"8.8.8.e.v.C.v.9.u.u.u.f.p.e.p.j.i.i.f.i.r.p.f.f.q.8.9.v 0 X   = s n w 0 b q.8.0.t.s.i.f.i.r.e.8.8.8.e.e.p.i.t.e.e.e.8.9.y.8.e.e.",
"8.8.8.t.z.z.t.8.9.u.i.f.e.q.g.f.u.i.i.p.e.i.f.i.0.5.v h w =   : M.N.p e a b 6.u.i.q.i.i.u.e.e.e.0.0.e.u.h.p.e.e.e.e.0.8.9.0.e.e.",
"e.0.0.v.z.b.e.e.0.s.j.p.e.s.j.i.u.u.p.0.q.f.f.u.e.b 0 w n s = ; L D.N.s w 0 ,.f.q.q.i.i.p.e.e.e.e.0.u.j.s.e.e.e.e.e.e.0.q.e.e.e.",
"e.e.r.b.l.c.e.e.q.g.g.r.q.f.f.p.8.8.8.e.y.f.f.3.b k : i N N i d A.D.S.M - % a >.4.8.u.u.q.e.e.e.e.p.i.i.r.e.e.e.e.e.e.e.e.t.r.e.",
"e.e.t.b.b.t.e.e.i.j.p.e.u.f.i.q.e.e.e.e.i.f.i.b e e n N P P N m.B.S.I V O   % 0 b 8.u.9.q.e.e.e.8.u.i.y.e.e.e.e.e.q.e.e.c.x.e.e.",
"e.e.c.v.v.r.e.r.i.j.p.r.i.i.u.e.e.e.e.p.j.u.u.x & - M U J J U F.F.U J A 1 o . & k 9.u.9.0.e.e.p.9.9.y.q.e.e.e.r.p.e.e.b.b.e.e.e.",
"e.e.c.c.c.e.e.p.f.i.e.q.u.i.p.e.e.e.q.f.f.u.9.z * O V J D D J Y Y J D S A B o & c i.8.q.e.e.p.q.0.8.9.e.e.e.r.i.q.e.b.V.t.e.e.e.",
"e.r.x.x.t.e.0.i.i.i.e.8.u.u.q.e.e.e.i.j.i.2.:.f > 2 Z G ! ! H F K H -.-.F A 2 > l b 1.r.e.u.a.e.e.0.0.e.e.e.a.i.e.b.C.c.e.e.e.e.",
"e.t.x.t.t.e.8.i.i.p.e.8.9.9.0.e.e.q.f.f.p.v q > 4 7 [ } o.o.} } } +.%.+.-.9 8 4 > w m e.p.f.e.e.e.e.e.e.p.p.g.t.x.V.l.r.e.e.e.e.",
"p.r.r.r.r.p.u.u.u.8.0.8.9.8.e.e.p.i.f.i.0.c & @ 6 {  .....@.#.#.#.#.*.$.{ Q [ 6 @ & c u.g.a.e.e.e.e.r.s.p.f.i.t.l.l.k.e.e.e.e.e.",
"r.e.e.r.a.p.8.u.u.q.e.0.8.q.w.i.p.i.f.u.e.k & $ ] &.#.....#.*.*.#.#.#.X. .O.$.] $ * z f.g.q.e.e.e.e.i.s.i.g.p.c.l.j.x.e.e.e.e.a.",
"e.e.e.p.i.r.9.9.9.0.e.e.r.u.f.p.w.i.i.w.e.k & $ ] &.X...@.#.$.&.X.X.#.#.#.X.$.] $ * :.j.i.r.e.e.e.a.j.p.f.i.t.a.Z.k.e.e.e.t.g.a.",
"e.e.p.f.w.e.8.8.8.e.r.c.i.f.u.e.u.f.u.0.e.k & @ E {  .@.@.| { }  .#.*.*.#. .{ 6 @ * :.f.y.e.e.e.p.g.s.s.f.u.p.j.z.a.e.q.p.f.f.e.",
"p.u.j.h.e.e.e.0.8.x.n.i.i.i.r.t.h.i.u.r.e.m * + 5 ) ' | ..| ) ) | X.$.$. .' ) 5 + * :.f.r.e.e.r.g.g.p.i.i.u.h.j.a.x.a.p.i.j.p.e.",
"s.f.j.p.e.e.e.e.x.z.a.u.i.y.r.l.i.9.8.e.x.1.* # R ' ) ) | ..| | ..| { [ Q ) ' R # * :.i.r.e.e.s.g.f.p.i.u.f.j.h.x.i.i.u.f.f.q.a.",
"i.f.h.q.e.e.e.x.V.l.8.9.u.q.n.l.8.9.8.c.V.1.0 , 6 ` ^ ) / | | | | / Q W Q ^ ` T , q >.u.e.e.r.f.j.u.9.u.i.f.f.p.d.j.p.i.i.i.f.g.",
"f.f.i.e.e.e.t.z.V.c.0.9.8.c.C.c.0.0.p.V.V.4.b f < 3 ` ' ) Q ^ ^ Q Q W Q { ~ 3 < f :.9.8.e.e.u.f.f.w.y.u.f.f.i.s.f.i.p.u.i.f.f.f.",
"i.i.u.e.e.e.v.z.n.e.x.t.x.C.V.t.e.r.l.V.c.e.0.:.q < T ~ Q Q E E E W Q ( ~ T < t v 9.y.q.e.e.i.i.i.q.u.f.f.i.u.f.f.w.u.i.f.f.f.g.",
"i.i.p.e.e.t.n.n.c.v.v.e.n.C.b.e.e.c.l.l.t.e.0.3.:.f < 3 ~ / Q E E Q / ~ 3 < j >.5.9.9.0.e.e.i.i.u.u.f.f.u.u.f.f.i.q.u.i.f.f.g.i.",
"u.u.r.e.e.c.b.b.v.n.e.x.V.C.x.e.e.v.l.v.e.e.e.0.8.>.t , T ~ ^ ( Q Q ~ T , y 2.q.8.8.8.e.e.w.u.u.i.i.f.i.u.u.f.f.w.q.i.i.i.g.f.u.",
"u.u.e.e.e.v.v.b.V.c.e.b.V.n.r.e.t.v.v.x.e.e.r.p.q.i.,.g , 3 ~ | | ~ 3 , j 2.y.0.0.0.0.0.e.8.9.u.i.i.i.y.9.i.f.i.p.f.f.9.i.j.i.8.",
"9.u.e.e.r.x.v.V.V.e.t.n.n.b.e.e.x.c.c.r.e.r.i.p.i.j.p.m q < T ` ` T , 0 2.f.p.e.e.e.0.w.0.8.8.u.u.f.s.q.8.j.i.i.g.f.w.p.j.f.p.9.",
"9.8.e.e.r.t.b.C.b.e.x.b.n.x.e.x.c.x.x.q.t.i.a.p.j.f.e.0.2.l , # # , g >.i.i.q.e.e.p.s.q.e.e.0.9.u.j.r.e.i.g.u.i.f.s.e.s.j.i.q.8.",
"8.8.e.e.r.x.z.C.x.e.c.b.b.c.b.b.r.r.x.p.p.g.p.s.f.s.0.u.f.,.e & & e b f.f.i.q.r.s.h.p.e.e.e.e.q.f.i.e.p.j.f.u.i.i.q.q.i.f.u.0.8.",
"0.q.r.e.e.v.z.n.r.e.v.c.b.C.b.e.e.t.s.p.f.f.q.f.f.s.q.u.i.8.<.v x b s.j.f.u.q.i.j.a.e.e.e.e.e.i.j.q.r.f.f.u.u.u.u.e.w.f.f.q.e.e.",
"r.p.t.e.t.b.l.v.e.c.v.v.V.n.t.e.r.f.p.i.g.p.p.f.f.q.q.u.u.i.i.q.e.p.j.j.i.9.u.h.h.t.e.e.e.e.p.j.i.e.w.f.f.q.0.8.8.e.u.j.i.q.e.e.",
"f.t.e.e.x.b.n.x.c.n.x.b.n.c.e.e.s.f.p.f.f.w.i.f.i.e.8.u.i.g.s.e.e.i.j.f.9.y.i.j.d.e.e.e.e.r.f.f.p.e.i.i.i.e.e.e.e.q.f.i.u.r.e.p.",
"q.e.e.e.x.b.v.v.V.x.c.b.b.r.e.p.j.i.u.f.u.p.f.f.y.r.s.u.g.f.e.r.p.j.j.p.0.9.h.j.t.e.e.r.q.p.f.f.q.q.i.i.p.e.e.e.e.i.j.u.u.r.s.f.",
"e.e.e.e.x.c.b.C.n.t.x.c.x.e.r.h.g.p.i.i.i.f.j.u.u.s.i.f.f.p.p.f.h.j.j.0.0.a.G.d.e.r.u.a.q.i.i.i.e.w.i.u.q.e.e.e.p.j.i.u.8.u.f.f.",
"e.e.e.r.c.c.l.C.c.r.r.x.t.t.k.g.i.p.u.i.i.f.i.y.f.i.p.f.f.f.g.f.f.j.i.e.e.z.z.q.r.i.h.q.q.i.i.p.e.9.u.u.q.e.e.r.f.j.u.8.u.i.i.w.",
"e.e.e.x.p.c.C.V.t.e.e.x.b.a.f.g.u.p.u.i.f.f.u.f.f.p.i.i.f.j.j.f.f.j.p.e.k.G.b.e.i.f.p.e.w.i.i.8.e.9.u.u.0.e.e.u.f.f.q.8.u.u.u.e.",
"e.p.s.q.x.n.V.b.e.e.c.V.c.p.f.g.y.9.u.f.f.i.i.f.s.p.i.f.j.j.f.f.f.f.q.t.z.G.w.u.i.i.e.e.u.i.i.0.0.8.i.9.e.q.p.h.f.u.e.0.9.u.8.e.",
"a.f.t.q.x.n.n.c.e.c.V.l.e.i.i.i.w.i.f.f.u.i.f.g.p.u.i.f.f.g.f.i.f.i.q.v.V.l.w.i.i.8.t.b.i.9.u.0.e.d.d.q.p.i.p.i.f.p.e.t.p.8.0.e.",
"g.p.p.r.c.n.n.t.c.l.b.r.q.u.i.u.u.f.f.u.u.i.f.i.0.u.f.f.f.g.i.i.i.u.q.l.l.d.8.9.u.d.z.a.8.8.8.0.c.l.q.i.h.q.8.i.i.q.c.c.e.e.r.u.",
"p.s.p.e.v.b.b.t.v.b.c.e.0.u.u.i.i.f.i.9.u.f.f.8.w.f.f.f.g.g.y.i.i.8.x.b.n.x.q.8.h.V.v.e.8.8.8.x.V.k.i.f.p.e.u.i.i.V.b.r.e.e.u.h.",
"s.f.r.t.c.b.c.x.x.c.r.e.8.9.y.i.i.i.y.9.i.f.i.u.f.f.9.i.j.i.8.u.u.q.c.b.v.t.e.d.V.l.e.e.0.0.q.V.V.i.i.i.e.0.u.i.C.z.r.e.e.8.i.i.",
"j.p.e.t.c.v.x.t.x.x.e.r.q.8.9.u.f.s.e.w.j.i.i.j.f.q.w.f.f.8.8.9.9.0.c.v.c.r.x.b.b.x.e.e.e.e.k.G.h.u.i.q.e.q.i.Z.V.c.e.e.e.9.i.i.",
"g.e.e.t.a.c.t.e.r.r.p.q.e.e.8.u.f.q.e.f.j.u.i.i.s.e.u.f.f.0.8.8.8.r.x.c.t.e.x.v.v.r.e.e.r.t.V.V.i.8.9.0.e.p.h.h.h.e.e.e.0.i.i.f.",
"p.e.e.a.p.t.r.e.e.s.p.e.e.e.w.g.i.e.p.j.f.u.u.i.q.r.i.j.s.e.0.8.8.r.t.t.t.r.r.x.t.e.e.p.q.v.V.n.0.q.q.e.e.x.k.k.p.e.e.e.u.i.i.h.",
"r.e.a.a.r.r.e.q.f.a.r.e.e.q.f.g.q.e.f.f.u.8.9.9.e.p.i.j.p.e.e.e.e.q.q.r.t.e.e.e.e.e.p.s.t.n.z.v.e.e.e.e.e.r.x.x.e.e.e.t.f.p.i.f.",
"r.i.f.e.e.t.p.f.f.t.e.e.t.f.g.i.e.p.f.f.q.0.0.q.e.u.g.i.q.e.e.t.p.r.e.e.e.e.e.e.q.q.j.q.x.b.n.x.e.e.e.e.e.e.r.r.e.e.t.f.f.u.h.f.",
"i.j.t.e.p.u.s.g.s.e.r.p.f.g.g.p.e.u.i.i.e.e.e.e.q.j.f.u.r.e.p.g.t.e.e.e.e.e.e.t.w.f.a.e.c.b.k.t.e.e.e.e.q.e.e.e.e.r.f.j.p.s.i.i.",
"g.i.e.p.f.p.f.f.p.p.f.s.f.g.f.r.q.i.i.y.e.e.e.r.i.g.u.u.q.i.g.p.e.e.e.e.e.e.p.p.s.j.q.e.c.d.d.e.e.e.e.q.p.e.e.e.r.s.j.f.p.i.i.i.",
"f.p.p.g.p.u.f.i.i.g.i.f.g.f.i.r.8.u.u.w.e.e.e.p.j.i.9.9.s.f.i.e.e.e.e.e.e.x.i.p.f.h.r.e.d.k.x.e.e.e.w.d.e.e.e.r.i.f.j.i.9.u.u.f."
};
