/* XPM */
static char *m1_coiso1704829756[] = {
/* columns rows colors chars-per-pixel */
"64 64 155 2 ",
"   c #070C03",
".  c #110D1D",
"X  c #0F1D1C",
"o  c #141019",
"O  c #28050D",
"+  c #360A0A",
"@  c #192604",
"#  c #1B2A01",
"$  c #142409",
"%  c #182510",
"&  c #172D10",
"*  c #112818",
"=  c #2E230B",
"-  c #3E260A",
";  c #3F2908",
":  c #222516",
">  c #212118",
",  c #24092F",
"<  c #350A23",
"1  c #5C1113",
"2  c #55131E",
"3  c #771026",
"4  c #7C122E",
"5  c #2D4305",
"6  c #2F4A01",
"7  c #27400C",
"8  c #2B410A",
"9  c #2F4808",
"0  c #304F00",
"q  c #315000",
"w  c #3F5B0A",
"e  c #2E5315",
"r  c #2B5019",
"t  c #3C6B1B",
"y  c #495E04",
"u  c #47570D",
"i  c #436305",
"p  c #4B6504",
"a  c #436608",
"s  c #4B6F0F",
"d  c #486908",
"f  c #4F7B06",
"g  c #4C720C",
"h  c #4F780D",
"j  c #4C7207",
"k  c #537E03",
"l  c #537C0C",
"z  c #42741C",
"x  c #517810",
"c  c #496F31",
"v  c #2F1643",
"b  c #3D304B",
"n  c #332856",
"m  c #5B154D",
"M  c #471153",
"N  c #69114A",
"B  c #6C1A51",
"V  c #7A1A56",
"C  c #5A3C5C",
"Z  c #6C344C",
"A  c #522C68",
"S  c #6B3361",
"D  c #2D5754",
"F  c #337747",
"G  c #517B58",
"H  c #64625E",
"J  c #706152",
"K  c #4E5862",
"L  c #44566E",
"P  c #842218",
"I  c #971A22",
"U  c #8A0F36",
"Y  c #8F1135",
"T  c #9E1633",
"R  c #93173F",
"E  c #A51D24",
"W  c #A1182E",
"Q  c #B91E2F",
"!  c #AC1A31",
"~  c #A41F38",
"^  c #B11E32",
"/  c #8F2F3D",
"(  c #A62020",
")  c #BE202E",
"_  c #B52535",
"`  c #BD2539",
"'  c #B82D3C",
"]  c #B73D39",
"[  c #CB242D",
"{  c #D0282E",
"}  c #DD2A2A",
"|  c #DF322F",
" . c #C52431",
".. c #C42C30",
"X. c #D42F31",
"o. c #E02D2B",
"O. c #E4342E",
"+. c #E1433A",
"@. c #EB4638",
"#. c #F14837",
"$. c #538302",
"%. c #578900",
"&. c #588E01",
"*. c #55820A",
"=. c #5D8E0D",
"-. c #589100",
";. c #5D910D",
":. c #5E8C10",
">. c #608F07",
",. c #609201",
"<. c #679C03",
"1. c #689F02",
"2. c #65960D",
"3. c #669B0C",
"4. c #689F0B",
"5. c #649513",
"6. c #669912",
"7. c #689D12",
"8. c #65A204",
"9. c #69A402",
"0. c #6BAB02",
"q. c #67A00C",
"w. c #69A30A",
"e. c #6DAA0A",
"r. c #67AA02",
"t. c #70AE0D",
"y. c #6EB301",
"u. c #6FB800",
"i. c #72B405",
"p. c #71BA01",
"a. c #72B30D",
"s. c #76BB0F",
"d. c #78BE0E",
"f. c #6BA412",
"g. c #6EAA11",
"h. c #70AE11",
"j. c #73B310",
"k. c #75B810",
"l. c #569A27",
"z. c #468730",
"x. c #4D9233",
"c. c #63B22D",
"v. c #60B63C",
"b. c #67BB34",
"n. c #7AC30D",
"m. c #7DCA0C",
"M. c #79C306",
"N. c #5C8C49",
"B. c #479A50",
"V. c #619C41",
"C. c #5EAC40",
"Z. c #55A44C",
"A. c #4DA653",
"S. c #468662",
"D. c #80CF0D",
/* pixels */
"r.0.i.9.<.r.0.y.i.y.y.y.y.0.9.6.<.1.9.2.5.5.4.y.y.9.3.9.0.9.2.5.5.5.5.2.e.y.e.0.y.w.2.i.e.7.7.6.w.i.0.6.5.5.q.y.e.0.y.9.<.0.y.y.",
"0.y.y.4.1.0.y.y.y.y.0.0.0.r.3.5.<.<.<.2.5.2.0.y.0.2.3.<.9.1.5.5.6.3.q.q.u.y.r.0.0.w.y.y.7.7.q.9.0.p.6.5.6.9.y.y.0.0.0.3.9.y.0.0.",
"0.y.0.2.9.0.y.y.p.0.0.r.0.9.2.2.2.<.<.q.0.r.r.y.w.5.2.<.<.2.6.3.0.e.6.0.p.e.9.r.r.0.y.4.6.e.e.r.y.0.6.w.e.0.i.9.0.0.0.9.y.y.0.9.",
"y.y.w.q.i.0.r.u.y.9.0.0.0.<.2.5.5.5.e.u.w.4.0.0.3.5.5.5.5.5.4.i.0.5.q.u.y.<.9.0.y.y.0.6.9.y.q.y.y.w.0.y.r.i.y.4.1.9.9.r.y.r.9.1.",
"y.r.r.i.y.<.0.p.0.<.<.0.<.<.2.5.5.e.u.0.5.9.0.0.2.6.5.5.5.3.y.0.2.6.0.y.y.4.9.0.y.y.9.e.i.9.9.0.0.y.u.y.y.y.9.3.<.9.0.0.0.9.<.9.",
"0.r.y.y.2.4.y.y.9.<.<.1.<.2.5.2.9.y.0.2.2.1.1.9.6.5.5.5.3.r.0.9.5.4.0.i.9.<.9.y.i.r.9.y.y.3.0.0.y.y.i.y.0.y.4.2.<.<.9.r.0.6.3.y.",
"9.0.i.9.6.9.y.y.2.<.<.<.2.6.4.9.u.y.<.5.2.1.1.1.5.5.5.6.9.0.0.2.6.9.r.0.4.9.y.y.0.0.y.y.9.3.0.0.y.y.u.0.0.r.2.5.2.<.0.y.q.5.0.u.",
"9.9.0.3.6.0.y.0.2.2.<.2.5.e.q.0.u.9.2.5.3.1.<.<.5.5.2.<.<.<.<.3.3.9.0.0.9.y.y.r.9.r.y.y.2.1.r.0.0.u.0.r.r.0.5.6.5.2.y.0.6.q.u.y.",
"<.1.1.2.4.y.y.w.5.6.5.2.9.0.q.y.0.1.2.3.4.2.3.2.5.e.w.5.3.<.9.e.2.1.9.0.0.y.0.1.9.y.y.9.4.y.y.0.y.i.0.9.0.<.5.5.5.w.u.q.6.0.u.0.",
"2.2.3.5.0.i.r.2.5.5.7.y.u.e.y.y.q.2.e.r.5.5.6.6.0.0.6.5.;.3.y.3.2.1.<.0.r.0.0.<.9.y.r.r.y.y.<.0.p.y.<.<.9.3.5.5.4.i.y.6.2.y.y.q.",
"5.5.5.7.y.0.0.2.5.e.y.u.e.9.y.0.6.0.y.6.5.6.3.0.u.7.5.5.6.y.e.5.2.2.<.9.0.y.6.2.y.y.0.y.y.w.2.0.y.0.<.<.<.2.5.6.0.y.0.5.9.0.0.2.",
"5.5.6.0.y.0.<.2.e.y.u.p.e.r.y.9.e.u.4.5.3.0.0.y.0.5.6.w.0.u.3.5.5.2.2.1.y.w.5.e.p.0.0.0.e.6.w.y.y.3.<.<.<.2.5.2.y.y.3.6.r.0.9.6.",
"5.5.w.u.r.1.1.9.y.y.p.y.<.r.0.0.y.0.6.q.y.9.y.y.3.q.e.0.u.y.5.5.5.5.3.y.y.6.3.y.i.9.0.0.<.5.0.y.y.6.2.2.2.2.5.9.0.0.2.2.0.9.<.5.",
"5.5.y.u.9.<.9.0.0.y.p.e.<.r.0.y.y.w.w.p.e.r.0.0.0.u.0.y.u.w.5.5.7.f.t.p.e.5.0.u.r.<.<.<.2.2.0.y.9.5.5.5.6.4.4.0.0.0.5.<.<.0.3.5.",
"5.e.y.y.3.<.9.9.0.i.y.9.9.0.y.y.0.9.y.y.4.9.0.y.u.y.y.y.y.6.5.j.s.e.y.i.2.3.y.y.w.5.2.2.6.q.y.y.q.5.5.3.9.q.4.9.0.9.5.<.<.<.2.5.",
"9.r.y.0.5.2.<.1.i.y.y.9.y.y.y.0.r.y.y.q.9.9.y.y.y.y.0.y.0.7.k.n.f.9.y.0.5.q.0.0.4.5.5.5.6.0.y.r.4.5.w.y.w.6.<.9.9.3.6.2.<.<.2.3.",
"4.0.0.9.5.5.5.t.i.0.y.u.u.u.0.r.0.y.0.2.9.0.0.y.u.0.r.0.0.a.n.g.;.y.y.w.5.9.0.9.6.5.5.5.9.p.0.<.3.9.u.0.5.5.<.1.1.3.5.5.5.2.0.y.",
"9.r.0.2.5.5.f.s.0.y.p.y.y.0.9.9.0.y.9.3.0.y.0.y.u.9.0.0.i.f.;.s f $.$.*.>.9.9.9.5.5.5.6.p.y.9.1.9.0.y.6.5.5.<.<.<.2.5.5.2.y.y.7.",
"9.0.9.2.5.7.n.i.0.i.y.r.y.0.<.9.u.0.9.e.y.9.0.p.0.9.9.r.e.:.9 @ # # # 6 l 9.9.1.5.5.5.0.u.0.<.<.0.r.q.5.5.5.2.<.<.2.5.2.r.y.q.5.",
"<.9.<.2.6.d.n.9.0.0.r.r.0.3.<.y.y.r.y.p.e.<.y.p.8.<.9.<.*.d 7 $     = & i k ,.3.5.5.w.y.y.w.2.<.<.0.2.5.5.6.8.4.2.2.5.<.0.r.5.5.",
"<.<.<.6.h.m.t.<.9.9.9.y.q.5.9.p.r.0.y.0.5.9.y.y.3.<.<.k 5 7 z t $ $ t t & 0 k 3.6.e.r.y.r.6.6.<.<.<.5.5.4.0.7.5.5.5.<.<.0.<.5.6.",
"<.<.<.7.d.d.7.<.<.9.y.y.6.6.p.y.0.0.0.4.5.r.y.e.6.>.k y 7 e l.l.e r x.x.& @ j 0.0.q.r.0.0.5.5.5.2.2.6.0.y.q.5.5.5.5.2.<.<.2.5.5.",
"5.2.6.h.d.j.6.5.3.9.y.e.6.0.p.0.<.9.9.6.2.y.y.9.5.l 5 7 z l.c.c.l.x.B.F * @ $.i.4.3.9.0.4.5.5.5.5.5.9.i.e.5.5.5.5.5.5.2.2.6.5.5.",
"5.5.6.j.s.f.5.5.7.y.y.6.3.0.y.4.<.<.<.5.9.y.y.3.5.s @ % c V.C.v.b.C.S.D X # $.9.6.<.9.9.2.5.5.5.5.9.0.0.2.5.5.5.5.5.5.5.5.6.6.5.",
"5.5.7.j.j.7.5.5.e.i.r.6.9.y.0.6.5.5.5.5.0.y.r.6.5.g # o b K S.A.v.v.K n . = $.3.6.<.9.9.2.5.5.5.<.9.9.8.5.5.5.5.5.2.5.5.f.f.5.5.",
"5.5.g.h.h.6.5.6.y.y.4.6.9.r.9.6.5.5.5.w.y.0.9.>.l a : , M A L S.Z.N.C M , X w g :.<.9.<.2.5.6.w.<.9.9.3.5.5.5.6.w.6.5.j.j.5.5.5.",
"5.6.f.h.f.6.5.9.0.r.6.3.0.0.4.5.5.5.2.i.i.9.1.$.q : v M N B A L G G Z N M v % 8 l r.<.<.6.5.w.2.2.<.<.2.5.5.6.e.4.5.j.n.7.5.5.5.",
"5.6.f.f.7.5.6.0.0.0.6.<.9.9.3.5.5.6.0.p.r.>.$.i = < m V R R V S H H / R V m < = a *.:.5.5.9.e.6.5.2.3.5.5.5.0.e.6.h.m.h.5.5.5.5.",
"5.6.7.7.7.6.9.9.0.9.5.<.<.9.2.5.5.3.y.y.9.k 6 = 2 4 ~ `  . .` ' ] ] .. . .~ 4 2 = 8 h 5.q.y.6.5.5.5.5.5.w.e.y.3.f.n.k.7.5.5.5.5.",
"w.6.6.6.6.q.<.0.9.4.2.<.<.<.2.6.q.0.y.0.2.s @ O 3 _ X.O.o.} } } O.O.o.} } [ ! 4 O $ g 0.u.e.5.5.5.5.5.0.q.i.y.6.j.n.a.5.5.5.5.5.",
"6.5.5.6.w.w.<.9.9.3.5.2.<.3.4.0.e.0.0.r.5.s @ + I X.@.#.O.} } O.#.#.O.} } } [ I + # f y.u.7.5.5.5.5.0.e.0.y.w.f.s.s.f.5.5.5.5.e.",
"6.5.5.w.i.6.<.<.<.2.5.5.6.9.i.w.4.0.0.q.5.s @ + ( | +.+.| } } O.+.+.| o.O.O.o.( + # $.y.y.5.5.5.5.0.y.q.y.y.7.a.p.i.5.5.5.q.y.e.",
"5.6.w.i.4.5.<.<.<.5.6.g.0.y.9.6.9.0.r.2.5.s @ + ( { _ _ { o.} [ _ _ { O.#.#.O.E + # $.y.9.5.5.5.q.u.e.r.0.0.q.p.d.e.6.3.w.y.y.6.",
"4.0.i.i.5.5.5.5.<.q.k.0.0.0.6.7.i.0.9.2.5.x # + ( [ W T [ } } [ ^ ! { | +.+.O.( + # $.y.7.5.5.6.y.u.w.r.0.0.i.p.t.7.e.w.0.i.w.5.",
"0.0.p.9.5.5.5.5.f.n.t.9.r.w.6.s.i.<.1.5.f.=.# + ( [ T T [ } } } [ [ } { _ _ [ ( + # $.r.5.5.5.e.p.0.9.0.0.0.p.0.q.y.e.9.y.y.3.e.",
"0.y.i.4.5.5.5.7.D.s.<.<.9.3.j.d.<.<.3.f.m.:.5 - P E T ! ) [ [  .[ [ [ Q ! W E P - 6 %.9.5.5.2.y.p.9.1.9.0.y.i.9.i.i.w.r.0.0.y.u.",
"y.y.0.6.5.5.7.d.d.7.2.1.<.g.m.g.2.<.w.n.n.:.l y ; 1 E ) ! T T T T T T ! ) E 1 ; y %.<.<.5.5.9.i.y.q.<.0.y.0.9.e.i.e.<.0.0.y.y.y.",
"r.0.9.5.5.6.h.d.j.6.g.7.f.m.n.5.6.5.k.n.h.5.2.k 5 ; P E T T Y Y U Y T W E P ; 0 k <.9.3.5.5.0.0.r.4.0.y.y.r.0.y.y.4.9.0.y.y.u.y.",
"0.0.3.5.5.7.k.k.g.g.h.5.k.D.j.5.5.h.s.s.7.5.2.;.$.y ; 1 E Q T U U T Q E 1 ; p %.>.<.<.2.5.6.0.r.9.9.y.y.9.9.y.y.0.3.<.0.y.y.u.0.",
"9.r.6.5.5.g.j.j.h.s.6.7.m.m.f.5.6.h.j.h.5.5.5.2.<.%.6 - P E W T T T E P ; 6 -.7.<.<.<.2.5.3.9.9.0.0.y.0.9.9.y.y.9.3.y.0.r.u.y.8.",
"0.<.5.5.6.h.h.j.m.g.5.j.n.d.5.5.7.h.h.f.5.5.6.w.3.r.-.u ; 1 E [ [ E 1 - p -.9.6.2.2.2.5.5.<.1.9.r.0.0.1.<.r.y.0.9.y.y.9.0.p.0.<.",
"9.<.5.5.6.g.h.n.n.5.6.k.k.j.5.5.f.h.h.6.5.6.0.4.0.p.q.x 0 ; P ( ( P - 5 -.y.8.5.5.5.2.4.6.<.<.9.0.0.0.2.<.i.0.0.y.y.3.3.y.u.4.9.",
"<.<.5.5.6.f.j.n.j.5.f.j.k.g.5.f.f.f.f.7.3.e.0.q.i.y.5.>.-.p ; + + - u $.0.0.3.5.5.q.0.3.5.5.2.1.9.y.6.6.y.p.0.0.y.e.5.0.y.0.3.<.",
"<.<.5.5.6.f.n.n.f.5.f.j.j.f.j.h.6.6.f.q.e.p.4.0.y.9.6.9.0.&.8 @ @ 8 l y.y.9.3.6.e.y.3.5.5.5.6.2.y.0.6.w.p.0.9.r.0.3.2.0.y.9.2.<.",
"2.6.6.6.5.h.d.s.5.5.j.g.j.n.j.5.5.6.e.w.y.0.4.0.y.9.2.0.r.<.l f g x r.u.y.9.4.0.p.e.5.5.5.5.6.0.p.3.6.0.y.9.1.9.9.5.4.y.y.q.6.6.",
"2.e.6.5.6.j.s.h.5.g.h.h.n.d.6.5.6.y.9.r.y.e.8.y.y.3.2.0.0.r.y.6.5.w.u.u.r.1.9.i.p.7.5.5.5.5.w.p.0.6.w.y.y.4.3.<.<.5.9.y.0.3.5.5.",
"y.7.5.5.f.j.j.f.g.s.f.s.s.f.5.5.e.y.w.y.0.4.0.u.e.5.<.0.r.i.0.5.5.y.u.y.<.9.r.p.e.5.5.5.5.2.0.y.e.6.0.0.r.6.5.5.5.2.y.y.9.5.5.3.",
"3.5.5.5.f.h.j.h.n.f.f.j.j.6.5.w.p.e.0.0.r.w.u.y.9.5.9.r.y.y.5.6.e.y.u.e.2.<.i.d.6.5.5.6.7.e.y.y.2.2.0.0.q.5.5.5.6.0.y.0.9.2.e.y.",
"5.5.5.5.g.g.j.m.k.f.f.g.f.5.5.u.y.w.r.0.0.y.i.r.9.e.0.0.y.e.q.y.i.i.p.5.2.e.D.t.5.5.w.0.3.e.y.0.6.4.0.9.3.5.5.5.w.u.0.<.<.9.i.y.",
"5.5.5.5.f.g.s.m.g.5.7.f.7.7.t.u.y.w.9.0.0.y.0.9.y.0.9.y.y.y.u.y.y.p.0.5.6.d.d.4.7.0.i.2.2.0.0.9.5.1.9.9.2.5.5.6.y.p.9.<.0.r.0.4.",
"5.5.5.w.f.g.m.n.7.5.5.f.j.e.u.u.0.<.0.0.i.y.9.y.y.w.r.y.u.p.y.y.p.u.w.5.t.D.j.5.0.y.w.5.<.0.0.<.6.1.1.9.2.5.5.e.y.y.2.<.9.0.9.2.",
"5.3.e.f.7.k.n.j.5.5.g.n.h.q.y.y.<.<.9.y.y.r.0.y.0.<.0.y.p.u.y.y.y.y.3.7.d.D.q.9.0.r.2.6.e.0.9.2.5.<.0.1.5.6.9.0.y.0.5.3.1.<.3.5.",
"e.y.q.3.f.s.n.f.5.h.n.j.6.0.r.r.3.0.y.0.0.r.y.y.q.9.0.y.u.u.0.0.y.0.3.h.n.s.4.9.r.<.7.a.0.<.9.2.5.e.t.2.9.e.9.0.0.4.5.6.4.<.2.5.",
"y.q.q.6.g.s.j.7.f.s.s.6.2.0.0.9.9.y.y.0.0.0.i.0.2.9.y.y.y.u.0.0.0.r.3.s.s.t.<.1.0.t.d.e.<.<.<.2.g.s.4.0.y.2.<.0.0.4.h.g.6.5.6.9.",
"9.e.w.6.g.j.j.f.h.j.h.5.<.9.9.0.0.y.r.9.9.0.y.<.4.y.y.0.u.y.9.0.0.<.f.j.k.f.2.<.i.D.h.5.<.<.<.f.n.t.0.y.q.6.0.0.i.d.j.5.5.6.9.y.",
"0.e.6.6.g.j.g.q.f.h.6.5.3.<.9.9.0.y.<.<.0.i.r.0.y.y.<.y.p.0.<.0.9.3.f.j.h.7.5.t.d.j.6.5.2.2.3.n.m.0.0.0.5.2.<.i.m.d.6.5.5.4.0.0.",
"i.q.5.7.g.g.f.7.7.f.5.6.4.<.1.9.0.0.6.4.u.0.r.i.y.2.4.u.y.<.<.1.1.3.g.g.g.5.7.j.j.f.5.5.5.6.a.D.p.9.9.3.5.3.0.M.M.e.5.5.5.<.0.0.",
"y.6.5.6.e.g.7.5.6.6.q.2.6.5.<.0.y.2.5.0.p.r.0.i.0.5.0.y.y.2.<.<.<.6.f.g.f.6.f.h.g.5.5.5.2.7.n.n.e.<.<.5.5.4.i.p.a.5.5.5.2.0.0.i.",
"e.5.6.e.e.7.7.5.6.e.9.5.5.5.3.y.0.6.w.p.y.9.0.9.6.6.0.y.0.6.2.<.3.5.4.7.7.7.7.f.f.5.5.q.4.j.n.k.2.<.<.5.5.f.t.a.q.5.5.5.e.0.0.y.",
"2.5.e.e.6.6.5.2.0.t.5.5.5.3.y.u.4.6.0.p.9.<.<.<.5.4.0.y.4.5.5.6.2.3.4.6.5.5.5.5.5.5.q.e.7.j.k.j.5.5.5.5.6.7.f.g.6.6.5.6.y.9.0.y.",
"2.y.e.6.6.2.q.y.y.7.5.5.6.y.u.y.5.w.y.0.2.2.2.3.5.0.u.r.3.5.5.7.e.5.5.5.5.5.5.5.2.q.i.3.f.k.k.f.5.5.5.5.5.5.6.5.5.5.7.y.y.w.0.y.",
"0.u.q.5.3.e.0.u.e.5.6.q.y.u.u.q.6.9.0.0.6.5.5.5.3.y.0.0.2.6.w.y.3.5.5.5.5.5.5.7.4.y.0.5.g.j.h.7.5.5.5.5.6.2.5.5.5.6.y.p.e.9.0.r.",
"u.0.5.w.y.w.y.y.4.w.0.0.y.p.y.6.3.0.r.8.5.5.5.5.y.u.0.1.6.e.u.w.5.5.5.5.5.5.e.q.0.u.4.5.g.h.h.6.5.5.5.6.q.5.5.5.6.0.p.y.9.0.0.0.",
"y.w.w.u.9.r.0.0.0.u.0.y.p.y.r.6.<.9.9.4.5.5.5.w.u.0.1.<.9.y.0.5.5.5.5.5.5.4.i.q.i.i.5.5.t.t.f.5.5.6.q.0.5.5.5.5.e.y.i.y.<.9.9.y."
};
