/* XPM */
static char *m2_coiso1704829757[] = {
/* columns rows colors chars-per-pixel */
"64 64 160 2 ",
"   c #070C03",
".  c #141019",
"X  c #29070E",
"o  c #360A0A",
"O  c #3A0E0C",
"+  c #3E140F",
"@  c #381310",
"#  c #192604",
"$  c #1B2A02",
"%  c #142409",
"&  c #1A300C",
"*  c #182510",
"=  c #112818",
"-  c #172D10",
";  c #2F240A",
":  c #3E260A",
">  c #3E2908",
",  c #232617",
"<  c #24092F",
"1  c #350A23",
"2  c #283422",
"3  c #510D15",
"4  c #5C1113",
"5  c #55131E",
"6  c #450F20",
"7  c #771026",
"8  c #7D162D",
"9  c #2D4404",
"0  c #2F4A01",
"q  c #27410B",
"w  c #2A4209",
"e  c #304E01",
"r  c #315000",
"t  c #2D5217",
"y  c #2C4919",
"u  c #3C6B1B",
"i  c #254B21",
"p  c #495E03",
"a  c #47570D",
"s  c #435B06",
"d  c #426206",
"f  c #4B6504",
"g  c #42640A",
"h  c #4B6F0F",
"j  c #476904",
"k  c #4F7B06",
"l  c #4C720C",
"z  c #4A7308",
"x  c #537E02",
"c  c #537C0C",
"v  c #42751C",
"b  c #517710",
"n  c #517810",
"m  c #496F31",
"M  c #507B34",
"N  c #2F1643",
"B  c #3D304B",
"V  c #5B154D",
"C  c #471153",
"Z  c #65144B",
"A  c #701D4D",
"S  c #7A1A56",
"D  c #443C4E",
"F  c #5B385C",
"G  c #6C344C",
"H  c #6E1B62",
"J  c #337747",
"K  c #515454",
"L  c #517B58",
"P  c #60744A",
"I  c #514064",
"U  c #842218",
"Y  c #851329",
"T  c #971A22",
"R  c #8A0F36",
"E  c #8F1135",
"W  c #9D1533",
"Q  c #93173F",
"!  c #A51D24",
"~  c #A1182E",
"^  c #B91E2F",
"/  c #AC1A31",
"(  c #A41F38",
")  c #B11E32",
"_  c #A62020",
"`  c #AD2125",
"'  c #AD2924",
"]  c #BE202E",
"[  c #A9382F",
"{  c #B93D2D",
"}  c #B52535",
"|  c #BC253A",
" . c #CC242C",
".. c #C0222A",
"X. c #D0282E",
"o. c #DD2A2A",
"O. c #DF322F",
"+. c #C52431",
"@. c #D42F31",
"#. c #E02D2B",
"$. c #E4342E",
"%. c #E1433A",
"&. c #EB4638",
"*. c #F14837",
"=. c #538302",
"-. c #578900",
";. c #598D02",
":. c #54820B",
">. c #5E8E0D",
",. c #56880C",
"<. c #589100",
"1. c #5E8B12",
"2. c #609301",
"3. c #679C03",
"4. c #689F02",
"5. c #65960D",
"6. c #669B0C",
"7. c #689F0B",
"8. c #649513",
"9. c #669912",
"0. c #689D12",
"q. c #65A204",
"w. c #69A402",
"e. c #6BAB02",
"r. c #69A30A",
"t. c #6DAA0A",
"y. c #67A507",
"u. c #70AE0D",
"i. c #6EB301",
"p. c #6FB800",
"a. c #72B405",
"s. c #71BA01",
"d. c #72B30D",
"f. c #76BB0F",
"g. c #78BE0E",
"h. c #6BA412",
"j. c #6EAA11",
"k. c #70AE11",
"l. c #73B310",
"z. c #75B810",
"x. c #508E24",
"c. c #569A27",
"v. c #54942B",
"b. c #468730",
"n. c #4D9233",
"m. c #5D933A",
"M. c #5AAA39",
"N. c #63B22D",
"B. c #60B63C",
"V. c #67BB34",
"C. c #7AC30D",
"Z. c #7DCA0C",
"A. c #79C306",
"S. c #39834A",
"D. c #5C8C49",
"F. c #479A50",
"G. c #629441",
"H. c #57AE47",
"J. c #4BA556",
"K. c #80CF0D",
/* pixels */
"e.e.p.y.3.e.e.i.i.s.e.i.i.e.q.8.3.4.4.5.8.8.7.i.i.w.6.w.w.e.5.8.8.8.5.5.e.i.r.i.i.7.5.i.t.h.0.9.r.i.e.8.8.8.h.i.y.i.i.q.4.w.i.i.",
"e.e.i.r.w.w.i.i.i.i.e.i.i.e.3.8.3.3.4.5.8.5.e.s.e.5.5.4.q.4.8.8.8.r.7.h.i.i.r.e.e.r.i.i.9.0.t.w.e.s.0.8.8.r.i.e.e.e.e.6.w.i.i.e.",
"e.i.e.5.w.e.i.e.s.e.w.e.e.w.5.8.5.3.6.w.y.y.i.e.r.8.5.3.3.5.8.9.e.t.9.e.p.w.y.e.e.e.i.r.8.t.e.y.i.y.8.t.t.e.s.q.w.e.w.w.i.i.e.w.",
"i.i.r.7.i.e.e.s.i.3.e.e.w.w.5.8.8.9.w.p.t.3.e.e.7.8.8.8.8.8.7.i.e.8.h.i.p.q.w.e.i.i.e.9.y.a.y.e.i.t.e.e.e.i.i.7.w.w.e.e.i.e.q.4.",
"i.e.w.s.i.3.e.s.y.4.w.w.4.3.5.8.0.t.i.y.8.w.e.w.5.8.8.8.8.6.i.i.6.8.e.i.i.6.q.e.i.i.q.t.p.q.w.e.i.i.p.i.i.i.w.6.4.q.e.e.e.w.3.w.",
"e.e.i.s.6.6.i.s.w.3.4.4.3.5.8.5.w.i.e.9.5.4.w.w.8.8.8.8.5.e.e.w.8.5.i.i.t.3.w.i.i.e.w.i.i.7.e.e.i.i.p.e.e.i.r.5.3.4.q.e.e.8.7.i.",
"w.e.i.w.8.y.s.i.6.3.3.3.5.8.7.q.p.i.3.8.5.4.q.4.8.8.8.9.q.w.w.5.9.w.e.e.7.w.i.i.e.e.e.i.t.3.q.e.i.i.p.e.e.e.5.8.5.3.w.i.7.8.e.p.",
"q.w.w.6.9.e.i.y.5.5.3.6.8.t.r.e.p.w.5.8.6.4.3.3.8.8.7.3.4.4.w.7.6.w.e.w.w.i.i.e.w.e.i.i.5.3.e.i.e.p.e.e.e.w.9.8.8.8.i.e.5.h.p.p.",
"3.4.w.8.7.i.s.r.8.8.9.9.t.y.y.s.e.4.5.7.7.6.3.5.8.t.r.8.5.3.w.t.5.q.w.w.e.i.e.w.w.i.i.w.6.i.i.e.i.i.w.w.e.3.8.8.8.y.s.r.8.e.s.y.",
"5.5.3.8.w.i.e.5.8.8.6.e.i.r.i.i.7.6.y.t.8.8.9.5.e.e.8.8.8.7.i.6.5.4.4.e.w.i.w.3.w.i.e.e.i.i.3.w.p.i.3.4.q.7.8.8.7.s.i.8.6.i.i.r.",
"8.8.8.9.i.i.w.5.8.r.i.s.e.w.i.e.6.t.i.8.8.5.r.e.p.9.8.8.5.i.t.8.5.5.4.w.e.e.5.5.i.i.w.i.p.t.5.e.p.y.3.3.4.6.8.8.e.s.w.8.w.e.e.6.",
"8.8.9.e.p.w.4.5.t.s.s.s.t.e.e.w.t.i.r.8.6.y.y.p.e.9.9.y.e.p.6.8.8.5.5.w.i.r.8.t.p.e.e.i.y.9.r.i.i.r.3.3.3.5.8.7.i.e.r.8.e.e.w.8.",
"8.8.r.s.e.4.3.w.i.i.s.i.r.e.e.e.i.e.8.r.i.y.i.i.6.r.i.t.p.i.8.8.8.8.7.i.i.8.7.s.i.w.w.e.3.8.e.i.i.9.8.6.5.5.8.w.e.e.5.6.w.w.w.8.",
"8.8.i.i.w.3.w.e.e.i.s.e.3.w.e.i.i.r.t.i.y.w.e.i.t.p.e.i.i.t.8.8.0.j.t.s.t.8.y.s.e.3.4.4.5.5.e.i.w.8.8.8.5.6.7.w.e.e.8.3.w.w.6.8.",
"8.e.i.i.6.3.4.w.e.i.s.w.q.e.i.i.e.w.i.i.7.e.e.i.p.i.i.i.i.9.8.k.d.r.a.s.5.9.i.i.r.8.5.5.9.6.p.i.w.8.8.5.w.h.7.w.e.3.8.3.4.4.5.8.",
"t.e.i.y.8.5.3.3.i.s.e.e.i.i.i.e.e.e.s.r.q.w.e.i.p.i.e.e.e.0.l.C.h.t.i.e.8.q.e.e.6.8.8.8.9.i.i.w.5.8.r.i.t.8.3.w.w.7.8.5.3.3.5.5.",
"3.e.e.w.8.8.8.t.a.e.i.p.p.i.e.e.e.i.i.5.4.w.i.i.a.e.e.e.e.d.g.k.5.e.i.r.8.w.e.e.8.8.8.8.y.p.e.4.5.t.i.e.8.8.3.4.q.5.8.8.8.7.e.e.",
"w.e.e.5.8.8.j.g.e.i.p.i.i.i.w.w.i.i.y.5.e.i.e.i.s.w.e.3.;.,.,.l k =.=.c >.4.e.w.8.8.8.6.s.i.4.4.w.i.i.9.8.8.3.3.4.5.8.8.6.e.i.0.",
"w.w.w.5.8.h.C.a.e.i.i.e.e.w.4.w.i.i.q.e.i.w.e.p.e.w.w.-.0 & $ # $ $ $ 9 c 4.w.3.8.8.8.e.p.e.3.4.w.e.q.8.8.8.5.3.3.5.8.5.e.s.r.8.",
"4.w.4.5.8.g.g.w.e.i.w.e.e.7.3.i.i.w.i.p.t.3.i.s.w.2.=.j q %     % & & w d x <.3.8.8.r.i.i.r.5.w.w.w.5.8.8.9.q.7.5.5.8.3.e.y.8.8.",
"3.4.4.8.k.Z.k.4.w.w.w.i.t.8.t.p.e.e.i.e.8.q.i.i.7.x 9 w v u % % u x.x.v q 0 x 6.9.t.y.i.e.9.8.3.3.4.5.8.h.e.9.8.8.8.3.4.w.3.8.8.",
"3.3.5.0.g.g.7.5.4.w.i.i.8.5.i.i.e.e.e.7.8.e.i.q.c g w t c.x.& * b.B.V.x.& # l y.i.6.e.e.w.8.8.8.5.5.8.t.i.r.8.8.8.8.5.3.4.5.8.8.",
"5.5.5.k.g.d.8.8.5.y.p.y.8.y.p.e.4.w.w.8.6.e.i.=.9 w v c.N.x.& = J J.B.x.& # =.s.6.6.e.e.q.8.8.8.8.8.w.i.y.8.8.8.8.8.8.5.6.8.8.8.",
"8.8.0.l.z.j.8.8.6.p.i.9.6.i.i.r.3.3.3.8.w.s.e.:.9 & v v.m.M y i S.J.H.n.t q j =.1.3.w.w.6.8.8.8.8.w.e.e.9.8.8.8.8.8.8.8.8.0.9.8.",
"8.8.0.l.l.h.8.8.w.p.t.8.w.i.e.5.8.8.8.8.e.i.e.>.b g w 2 D K M v.M.H.J.F.n.v w 9 n 4.w.4.6.8.8.8.3.w.e.q.8.8.8.8.8.5.8.8.j.j.8.8.",
"8.8.j.k.k.8.8.9.i.i.r.8.e.e.e.8.8.8.8.r.p.e.w.>.:.g , < C F P G.G.D.L L D.m * # h 3.w.4.5.8.8.7.4.4.q.6.8.8.8.9.t.8.8.l.l.8.8.8.",
"8.9.j.j.j.8.8.w.i.e.9.6.e.w.r.8.8.8.5.p.a.4.4.=.0 , N C Z A F I I F G G I B . # k e.3.3.8.8.t.5.5.3.3.5.8.8.9.t.5.8.l.C.9.8.8.8.",
"8.8.h.h.h.8.8.e.e.e.8.3.w.w.7.8.8.8.e.s.e.<.=.s ; 1 V S Q Q S H H S Q Q S V 6 : f :.1.8.8.w.t.8.8.5.5.8.8.9.e.t.8.d.Z.j.8.8.8.8.",
"8.0.0.0.0.8.w.w.e.q.8.3.4.4.5.8.8.6.i.i.w.x 0 ; 5 8 ( | +.+.| | | | +.+.+.} ` U : w l 9.r.i.9.8.8.8.8.8.r.y.p.9.h.C.f.9.8.8.8.8.",
"r.0.0.0.9.r.q.w.w.7.5.3.3.4.5.8.h.e.i.e.8.l # X 7 /  .#.$.$.#.o.o.#.$.$.#.o.o._ o # l y.p.t.8.8.8.8.9.y.r.i.e.0.l.C.u.8.8.8.8.8.",
"9.8.8.8.t.r.3.4.w.5.8.5.3.6.7.y.y.e.i.y.8.h # o T  .o.$.*.*.$.o.o.$.*.*.$.o.o._ o $ k i.p.9.8.8.8.9.e.t.e.p.t.h.f.s.h.8.8.8.8.t.",
"8.8.8.r.e.9.4.4.4.5.8.8.9.w.i.r.7.e.e.7.8.h # O ' $.#.O.%.%.$.o.o.O.%.%.O.$.$.' + $ =.p.e.9.8.8.8.y.i.r.i.e.9.u.A.d.8.8.8.h.i.t.",
"8.8.7.s.7.8.3.3.3.8.0.t.e.i.e.8.t.i.e.5.8.h # + { *.$.X.} }  .#.o.X.} } X.$.*.{ + $ =.i.q.8.8.8.h.p.e.e.i.e.r.s.g.t.8.5.q.i.i.8.",
"r.w.s.a.8.8.8.5.5.h.l.e.e.e.8.9.s.w.q.9.8.c $ + { &.@.] / /  .o.#. ./ /  .$.%.[ @ $ =.i.6.8.8.9.i.i.r.e.e.w.a.s.u.0.t.r.e.s.r.8.",
"y.e.s.r.8.8.8.8.t.g.u.w.e.q.0.f.e.3.3.8.h.>.# O ' @./ / ]  .X.#.o.o. . .o.X.} 8 X $ x e.8.8.8.t.p.i.6.e.e.e.s.a.h.a.t.w.i.i.9.t.",
"e.s.a.6.8.8.8.h.C.f.3.4.q.5.d.g.3.3.3.h.C.>.9 > U ! ~ / ]  . . . . . . .o...Y 5 ; 0 -.w.8.8.9.i.p.y.q.w.e.i.e.r.e.s.r.e.e.e.i.p.",
"e.i.e.8.8.8.9.g.C.h.5.r.3.l.C.j.5.5.r.K.g.8.b p : 4 ! ..~ ~ W ~ W W ~ /  .` 3 ; s =.3.4.8.8.w.i.i.7.q.w.i.i.w.e.s.y.3.e.i.i.p.i.",
"e.i.w.8.8.8.k.C.z.5.h.0.h.Z.C.0.8.5.d.g.j.8.5.x 9 > U ! W W E R R E W ~ ! U > 0 x w.w.6.8.0.w.e.e.3.w.i.i.e.e.i.s.7.w.w.i.e.p.i.",
"e.e.7.8.8.0.z.f.j.k.k.8.z.K.l.8.8.k.f.f.0.8.5.>.=.p > 4 ! ^ W E R W ^ ! 4 > j -.;.4.4.5.8.8.e.e.w.w.i.i.w.e.e.i.e.5.w.e.i.e.p.e.",
"w.w.9.8.8.j.l.k.k.f.8.h.C.C.h.8.8.k.l.u.8.8.8.0.3.-.e : U ! W W W ~ ! U > e ;.7.3.3.3.8.8.6.w.w.e.e.i.e.q.w.i.i.7.6.e.i.e.s.i.q.",
"w.w.8.8.8.j.k.l.C.j.8.l.C.z.8.8.0.k.k.h.8.8.5.r.6.e.;.a : 4 !  .+.! 4 : f <.q.8.5.5.5.5.8.3.4.w.e.e.e.w.3.e.s.e.w.i.i.4.e.s.e.3.",
"4.w.8.8.0.j.j.C.C.9.0.l.C.l.8.8.h.k.j.0.8.0.e.7.e.s.h.n 0 > U _ ! U : 9 ;.i.w.8.8.8.5.7.5.3.3.w.w.i.y.5.3.s.e.e.i.s.6.7.s.i.7.4.",
"4.3.8.8.0.h.l.Z.l.8.h.l.l.h.8.h.k.h.0.0.9.e.t.r.p.i.8.5.<.j : o 3 > a :.e.e.7.8.8.r.y.7.8.8.5.4.w.i.9.8.e.p.w.e.i.y.9.e.i.e.6.4.",
"3.3.8.8.8.h.C.C.h.8.j.l.l.h.z.l.8.9.h.r.t.s.7.e.i.w.5.w.i.-.w # $ & c s.i.e.6.8.t.i.7.8.8.8.8.7.i.e.8.r.s.i.w.e.e.5.6.e.i.t.5.3.",
"5.5.8.8.8.k.C.z.9.8.j.j.z.C.l.8.8.6.y.r.i.e.7.e.i.y.7.e.e.3.:.k z n y.p.i.w.6.e.p.t.8.8.8.8.8.t.s.6.9.i.i.w.q.4.4.8.7.i.i.r.8.5.",
"9.t.6.8.8.l.f.k.8.j.l.j.C.z.0.8.9.e.t.e.i.t.w.i.i.6.5.w.w.e.e.6.8.r.p.p.e.q.w.i.s.0.8.8.8.8.r.s.i.8.6.i.i.7.3.3.3.8.e.i.e.5.8.8.",
"i.6.8.8.h.l.l.j.j.z.h.f.z.j.8.8.e.i.r.i.e.7.e.i.e.8.3.w.e.p.y.8.8.i.p.i.4.q.e.s.j.8.8.8.8.5.e.i.t.8.e.i.y.8.8.8.8.5.i.i.w.8.8.6.",
"6.8.8.8.j.l.k.j.C.j.h.l.j.0.8.r.p.t.e.e.e.r.p.i.q.8.y.e.i.i.8.8.e.i.p.y.5.4.a.g.9.8.8.9.7.t.i.i.5.5.e.e.r.8.8.8.0.e.s.w.q.8.t.p.",
"8.8.8.8.j.j.l.C.C.0.h.h.h.8.9.a.i.r.e.e.w.i.s.w.w.y.e.i.p.t.r.i.a.s.s.0.8.t.A.u.8.8.t.e.7.e.e.e.8.3.e.w.7.8.8.8.t.i.e.4.4.w.a.e.",
"8.8.8.9.j.j.z.Z.h.9.0.h.h.0.u.p.i.r.w.e.i.i.e.q.i.e.w.i.i.i.p.i.i.s.e.8.0.C.C.5.5.t.i.6.8.e.e.w.8.4.w.w.5.8.8.8.i.s.w.3.w.e.e.r.",
"8.8.8.h.r.j.C.C.0.8.9.h.l.t.p.p.w.3.q.e.i.i.w.i.i.7.e.e.p.s.i.i.i.i.r.8.u.K.k.0.e.i.r.8.7.e.e.3.8.3.q.w.5.8.8.t.i.i.6.3.w.w.w.8.",
"8.h.t.9.h.z.C.l.8.8.h.C.j.r.i.i.w.4.w.i.i.e.e.i.e.w.e.i.s.p.i.i.i.i.6.0.C.C.7.w.e.e.8.8.e.e.w.6.5.3.e.w.8.9.w.e.i.y.8.3.4.w.3.8.",
"e.i.6.6.h.z.C.h.8.j.C.l.9.w.e.e.7.w.p.i.e.e.i.i.6.w.e.i.p.p.i.e.i.e.5.l.C.z.7.e.e.3.0.d.e.w.4.5.8.u.u.5.w.e.t.e.e.7.8.0.r.3.5.8.",
"i.r.h.9.j.f.l.h.j.z.l.0.9.e.e.e.w.i.i.e.w.e.i.e.5.w.i.i.i.p.e.e.e.e.7.d.f.k.3.4.w.u.g.t.3.3.3.5.k.f.7.e.i.9.3.e.e.7.j.k.8.8.6.y.",
"y.r.r.8.k.l.l.9.j.l.j.8.3.q.q.e.e.i.e.4.w.i.i.3.r.i.i.i.p.i.w.e.e.w.h.l.l.j.5.3.a.Z.k.8.3.3.3.h.C.u.e.a.r.8.w.w.e.C.l.8.8.9.t.e.",
"e.e.9.0.j.l.j.h.j.j.0.8.3.4.q.w.e.e.q.3.e.i.e.w.i.i.3.e.p.e.3.w.w.5.j.l.k.0.5.u.C.z.8.8.5.5.6.C.C.e.e.e.8.5.w.i.Z.g.0.8.8.3.e.e.",
"p.r.8.0.j.j.h.0.h.h.8.9.6.3.4.q.i.y.8.r.s.e.e.i.p.6.7.i.i.3.4.4.3.5.j.k.j.8.h.l.l.h.8.8.8.8.d.Z.a.w.e.6.8.6.e.A.A.j.8.8.8.4.e.e.",
"i.8.8.9.t.h.0.8.8.0.r.5.8.5.3.e.i.6.9.e.s.w.e.i.t.8.w.i.i.5.3.3.3.0.0.j.h.8.j.j.j.8.8.8.9.h.C.Z.e.3.4.8.8.7.a.g.d.8.8.8.5.e.e.e.",
"y.8.8.t.r.h.0.8.8.y.t.8.8.8.7.i.e.8.r.p.i.w.w.e.5.5.e.i.y.9.6.5.3.9.0.0.0.0.0.0.h.8.8.r.6.l.C.z.5.5.3.8.8.r.t.d.r.8.8.8.t.e.w.s.",
"9.8.t.t.0.0.9.5.i.t.8.8.8.6.i.p.6.8.i.i.w.3.4.4.8.r.i.i.r.8.8.8.5.5.6.0.8.8.8.8.8.8.r.y.0.l.z.k.8.5.8.8.8.0.h.h.0.8.8.0.i.w.e.i.",
"9.e.i.8.8.6.r.i.p.5.8.8.9.i.p.i.8.r.i.i.6.5.5.5.8.y.p.e.5.8.8.6.t.9.8.8.8.8.8.8.5.r.a.6.h.l.l.h.8.8.8.8.8.8.9.0.8.8.9.i.i.r.e.i.",
"e.p.h.8.h.w.e.i.t.8.9.t.i.p.i.r.8.e.e.e.8.8.8.8.6.i.i.e.9.9.t.i.6.8.8.8.8.8.8.0.7.i.t.8.k.l.l.0.8.8.8.8.9.9.8.8.8.0.i.s.t.w.e.e.",
"s.y.8.y.i.r.i.i.7.t.i.y.p.p.i.9.5.e.e.q.8.8.8.8.e.p.q.w.5.y.p.r.8.8.8.8.8.8.r.r.y.s.r.8.j.u.u.8.8.8.8.0.6.8.8.8.8.y.s.p.w.e.e.e.",
"i.r.r.p.y.w.e.e.e.i.y.i.p.i.e.9.3.w.w.7.8.8.8.t.s.e.4.4.t.i.e.8.8.8.8.8.8.0.i.r.a.i.8.8.j.a.h.8.8.8.r.t.8.8.8.0.e.i.s.e.3.w.e.e."
};
