/* XPM */
static char *m3_coiso1704829757[] = {
/* columns rows colors chars-per-pixel */
"64 64 151 2 ",
"   c #050107",
".  c #070C03",
"X  c #0E0416",
"o  c #28050D",
"O  c #360A0A",
"+  c #192605",
"@  c #1B2A01",
"#  c #142409",
"$  c #1A300C",
"%  c #172D10",
"&  c #112818",
"*  c #2E230B",
"=  c #3E260A",
"-  c #3F2908",
";  c #24092F",
":  c #360C24",
">  c #273324",
",  c #5C1113",
"<  c #55131E",
"1  c #771026",
"2  c #7C122E",
"3  c #2D4404",
"4  c #2F4A01",
"5  c #27400B",
"6  c #2A4209",
"7  c #304F00",
"8  c #315000",
"9  c #2B5019",
"0  c #2C4919",
"q  c #3C6B1B",
"w  c #254B21",
"e  c #495E04",
"r  c #47570D",
"t  c #436306",
"y  c #4B6504",
"u  c #40620A",
"i  c #4B6F0F",
"p  c #4C6903",
"a  c #4F7B05",
"s  c #4C730C",
"d  c #4F780D",
"f  c #4C7207",
"g  c #537E02",
"h  c #527C0C",
"j  c #42751C",
"k  c #517810",
"l  c #507B34",
"z  c #290C42",
"x  c #3A3459",
"c  c #5B154D",
"v  c #471153",
"b  c #69114A",
"n  c #701D4D",
"m  c #611F52",
"M  c #7A1A56",
"N  c #443C4E",
"B  c #5B345C",
"V  c #6E1B62",
"C  c #337747",
"Z  c #3E7F6B",
"A  c #515454",
"S  c #407B5D",
"D  c #60744A",
"F  c #514064",
"G  c #4B5566",
"H  c #842218",
"J  c #971A22",
"K  c #8A0F36",
"L  c #8F1135",
"P  c #821C32",
"I  c #9E1633",
"U  c #93173F",
"Y  c #A51D24",
"T  c #A1182E",
"R  c #B91E2F",
"E  c #AB1A31",
"W  c #A41F38",
"Q  c #B11E32",
"!  c #A62020",
"~  c #BE202E",
"^  c #B52535",
"/  c #BB253B",
"(  c #CA242D",
")  c #D0282E",
"_  c #DD2A2A",
"`  c #DF322F",
"'  c #C52431",
"]  c #CB2E35",
"[  c #D42F31",
"{  c #E02D2B",
"}  c #E4342E",
"|  c #E1433A",
" . c #EB4638",
".. c #F14837",
"X. c #951A40",
"o. c #81245B",
"O. c #B73C45",
"+. c #CF4246",
"@. c #538302",
"#. c #578902",
"$. c #588E01",
"%. c #54800B",
"&. c #5D8E0C",
"*. c #589100",
"=. c #609301",
"-. c #679C03",
";. c #689F02",
":. c #65960D",
">. c #669B0C",
",. c #689F0B",
"<. c #608E12",
"1. c #649513",
"2. c #669912",
"3. c #689D12",
"4. c #65A304",
"5. c #69A402",
"6. c #6BAB02",
"7. c #69A30A",
"8. c #6DAA0A",
"9. c #67A507",
"0. c #70AE0D",
"q. c #6EB301",
"w. c #6FB800",
"e. c #72B405",
"r. c #71BA01",
"t. c #72B30D",
"y. c #76BB0F",
"u. c #78BE0E",
"i. c #6BA412",
"p. c #6EAA11",
"a. c #70AE11",
"s. c #73B310",
"d. c #75B810",
"f. c #508E24",
"g. c #54942B",
"h. c #468730",
"j. c #4A8837",
"k. c #4D9233",
"l. c #5D933A",
"z. c #5AAA39",
"x. c #7AC30D",
"c. c #7DCA0C",
"v. c #79C306",
"b. c #39834A",
"n. c #57944C",
"m. c #479A50",
"M. c #449E5E",
"N. c #629441",
"B. c #5DB340",
"V. c #429463",
"C. c #80CF0D",
/* pixels */
"6.6.w.9.-.6.6.q.q.q.6.q.q.6.4.1.-.;.;.:.1.1.7.q.q.5.>.5.5.5.:.1.1.1.1.2.9.w.9.6.q.,.:.q.8.3.3.2.7.q.8.2.1.1.,.w.9.q.q.5.;.5.q.q.",
"6.6.q.7.5.5.q.q.q.q.6.q.q.6.-.1.-.-.;.:.1.:.6.e.6.:.:.;.5.;.1.1.1.7.7.7.q.q.9.6.6.7.q.w.3.3.7.9.6.w.>.1.2.9.q.q.8.6.6.,.5.q.q.6.",
"6.q.6.:.5.6.q.q.w.9.6.6.6.5.:.1.>.-.>.5.9.8.6.6.7.1.:.-.-.:.1.2.6.8.2.6.r.9.5.6.6.6.q.7.1.8.6.5.q.8.1.9.6.8.r.4.5.6.5.5.q.q.5.5.",
"q.q.7.,.q.6.6.w.q.5.6.6.5.;.:.1.1.1.5.w.9.7.6.6.,.1.1.1.:.1.,.q.8.2.7.q.r.5.5.6.6.q.q.2.9.e.7.q.q.5.8.q.9.q.q.,.;.5.5.6.q.6.5.5.",
"q.6.6.w.q.-.6.r.9.;.5.5.;.-.:.1.1.8.q.9.1.5.6.5.:.1.1.1.1.>.q.q.>.1.6.w.8.-.5.6.q.q.5.8.w.5.5.6.q.q.w.q.q.q.5.>.;.;.6.6.6.5.-.5.",
"6.6.q.q.>.>.q.r.5.-.;.;.-.>.1.:.5.w.q.2.:.;.5.5.1.1.1.1.:.6.6.4.1.>.6.q.6.-.5.q.q.6.5.q.q.,.5.6.q.q.w.6.6.q.7.:.=.;.5.6.6.1.,.q.",
"5.6.6.5.1.9.q.e.>.-.-.-.:.2.,.7.q.q.4.1.:.;.;.;.1.1.1.2.4.5.6.:.2.5.6.6.,.5.q.q.5.6.q.q.9.,.5.6.q.q.w.6.6.6.:.1.1.-.5.q.7.1.9.w.",
"5.5.6.>.2.6.q.9.:.:.-.>.1.9.7.6.w.5.:.1.:.;.-.-.1.1.,.-.;.;.;.,.7.5.6.5.5.q.q.6.5.6.q.q.:.-.6.q.6.w.6.6.6.5.2.1.1.:.q.q.1.7.w.w.",
";.;.5.1.,.q.q.7.1.1.1.:.5.8.5.w.6.;.1.7.7.:.-.:.2.9.7.1.-.-.5.8.1.;.5.5.6.6.6.5.;.q.q.5.7.q.q.6.q.q.5.5.5.5.1.1.1.8.w.7.1.8.w.6.",
":.:.:.1.6.e.6.:.1.1.3.q.w.9.q.q.7.:.9.9.1.1.:.,.8.6.1.1.1.:.q.3.:.;.;.6.6.6.6.-.5.w.6.6.q.q.>.5.r.q.-.5.5.>.1.1.>.w.q.1.>.q.q.7.",
"1.1.1.>.q.q.5.:.1.9.e.r.8.5.q.9.3.6.q.2.1.2.7.8.w.>.1.1.2.6.6.1.:.:.;.5.6.q.2.>.6.q.5.q.w.9.:.6.w.5.-.;.;.>.1.1.6.q.9.1.5.q.6.:.",
"1.1.1.q.q.5.;.:.8.q.r.r.5.6.6.6.9.q.i.1.>.5.9.w.8.1.2.7.q.w.3.1.1.:.:.;.q.9.1.9.r.6.6.q.9.2.7.q.w.7.=.-.-.:.1.,.q.q.7.2.6.6.5.1.",
"1.1.7.w.6.5.;.6.q.w.r.w.9.6.6.6.q.6.1.7.q.9.q.q.7.7.6.8.r.q.1.1.1.1.i.q.q.1.7.e.q.5.5.5.4.1.6.q.8.:.:.>.>.:.1.9.q.6.:.>.5.5.-.1.",
"1.1.q.w.5.=.5.5.6.q.w.8.5.5.6.q.q.7.7.w.9.5.6.6.6.w.6.q.q.9.1.1.2.p.8.r.9.1.9.w.8.-.;.5.:.:.6.q.9.1.1.1.:.:.,.5.6.5.1.-.5.5.,.1.",
"2.9.q.q.>.-.5.5.6.q.q.5.5.6.q.q.6.5.q.q.7.6.6.q.w.q.q.q.q.:.2.a.d.7.w.w.>.:.q.q.5.1.:.:.1.7.q.q.7.1.1.:.8.7.,.5.6.-.1.-.;.;.:.1.",
"5.6.q.9.1.:.-.;.e.q.6.6.6.q.q.6.6.q.q.7.;.5.q.q.w.q.6.6.6.3.d.x.i.5.e.6.1.7.6.6.>.1.1.1.2.q.q.5.,.1.9.q.9.1.-.5.5.,.1.:.-.-.:.:.",
"7.6.6.5.1.1.1.8.e.6.q.w.w.w.6.5.q.q.q.:.5.5.q.6.e.6.6.6.6.t.x.p.>.6.e.8.1.5.6.6.1.1.1.1.9.w.5.5.>.5.w.8.1.1.;.;.5.:.1.1.:.:.6.q.",
"5.6.6.:.1.1.p.u.6.q.w.q.q.6.5.5.6.q.9.:.6.q.6.q.r.5.6.6.e.s.s.<.@.g @.h &.5.5.5.1.1.1.,.r.q.5.-.5.6.q.:.1.1.-.-.;.:.1.1.:.6.w.3.",
"5.5.5.:.1.3.x.e.6.q.q.6.q.6.;.5.q.q.4.6.q.5.6.r.8.5.5.6.8.a.i.k 7 @ @ 7 g ;.5.-.1.1.1.9.w.6.-.;.6.6.7.1.1.1.>.-.-.:.1.2.9.q.7.1.",
";.5.;.:.2.u.u.5.6.6.6.6.6.:.-.q.q.5.q.w.9.-.q.r.5.*.@.g h d i u $ $ $ $ t g =.-.1.1.7.q.q.7.:.;.5.5.:.1.1.1.7.:.:.:.1.-.6.5.1.1.",
"-.-.-.1.a.c.a.;.5.5.5.q.7.1.5.r.6.6.q.6.2.7.q.q.,.@.3 + + + + 5 j f.f.j 5 3 g =.3.5.6.q.q.2.1.-.-.-.1.1.7.8.>.1.1.1.-.;.6.-.1.1.",
"-.-.-.3.u.u.,.>.-.5.q.q.1.2.w.q.5.6.6.,.1.6.q.9.h p 6 $ $ # . % j.B.B.g.9 5 q #.5.,.6.6.5.1.1.1.:.:.2.5.q.7.1.1.1.1.:.-.;.:.1.1.",
"1.:.:.a.u.s.1.1.:.5.r.9.1.9.r.6.5.5.5.:.>.6.q.@.6 $ j f.f.q # & C M.M.m.k.j 5 7 %.,.6.5.7.1.1.1.1.1.9.q.9.1.1.1.1.1.1.:.>.1.1.1.",
"1.1.2.s.y.p.1.1.3.r.q.2.>.q.q.7.-.-.-.1.9.q.q.d + # q g.l.l 9 w C V.Z V.j.q # @ i -.5.5.:.1.1.1.1.-.q.6.3.1.1.1.1.1.1.1.1.3.2.1.",
"1.1.3.s.s.3.1.1.6.r.9.2.5.q.6.:.1.1.1.1.q.q.5.f + . # > N A l g.z.n.G x > # . + i ;.5.5.:.1.1.1.-.5.6.4.1.1.1.1.1.:.1.1.i.i.1.1.",
"1.1.p.a.a.2.1.2.8.q.7.:.6.6.6.1.1.1.1.7.q.6.5.f +   X ; v B D N.N.D B v ; X   + i ;.5.-.:.1.1.,.;.;.5.:.1.1.1.2.9.1.1.s.s.2.1.1.",
"1.2.i.a.p.1.1.5.q.6.2.:.6.5.7.1.1.1.:.w.q.5.-.a @ X z v b n B F F B n b v z X + d 6.,.-.1.1.9.,.:.-.;.:.1.1.2.9.>.1.s.x.3.1.1.1.",
"1.2.i.i.3.1.1.6.6.5.1.5.5.5.>.1.1.2.8.w.6.*.@.e * : m o.X.U M V V M U U M c : * t h &.:.1.5.8.1.1.:.:.1.1.2.8.6.2.s.c.p.1.1.1.1.",
"1.3.3.i.2.1.-.6.6.5.1.-.;.;.:.1.1.>.q.q.5.g 4 * < P O.+.] ' / / / / ' ' ' W 2 < * 6 k 2.7.q.2.1.1.1.1.1.7.9.w.3.i.x.y.3.1.1.1.1.",
"7.2.2.2.2.7.5.5.5.,.:.-.-.-.:.2.7.6.q.6.1.f + o 1 ^ | ..} _ } } { { _ { ` [ Q 1 o # s 9.w.8.1.1.1.1.2.9.7.q.6.3.s.x.t.1.1.1.1.1.",
"2.1.1.2.8.7.-.5.5.>.1.:.-.>.,.9.9.6.q.9.1.i + O J ) ` } { } ....} _ _ } .. .[ J O @ a q.w.3.1.1.1.2.6.8.9.w.9.i.t.v.i.1.1.<.1.8.",
"1.1.1.9.0.:.;.;.;.:.1.1.2.5.q.7.,.6.6.,.1.i + O ! } } } { ` | | ` _ { ` | | ` Y O @ @.w.6.1.1.1.1.9.q.7.q.q.3.t.v.8.1.1.1.i.e.8.",
"1.:.9.q.,.1.-.-.-.1.2.0.8.q.9.1.9.q.5.>.1.i + O ! } ....} ) ^ ^ ) _ _ ) ^ ^ ) Y O @ @.q.9.1.1.1.7.w.8.9.6.6.7.r.u.8.1.,.7.q.q.2.",
"9.9.e.e.2.1.:.1.:.7.y.8.q.6.2.2.r.6.4.2.1.a * O ! ` | | } ) E Q ( { _ ( T I ( Y O @ @.q.>.1.1.:.q.w.9.6.6.5.e.r.8.i.7.5.8.w.7.1.",
"8.8.e.5.1.1.1.1.8.u.8.5.5.5.2.y.6.;.5.2.i.&.+ O ! ) ^ ^ ( _ ( ( _ _ _ ( I T ( ! O @ @.6.1.1.1.8.r.q.4.5.6.q.r.8.i.q.8.5.q.q.>.8.",
"q.q.e.2.1.1.1.i.x.y.-.;.5.:.d.u.;.-.&.i.c.&.3 - H Y T E R ( ( ( ( ( ( R E T Y H - 3 #.5.1.1.2.q.r.5.5.5.6.q.q.9.8.r.7.6.6.6.q.w.",
"q.q.6.1.1.1.3.y.x.i.:.,.-.p.c.p.:.:.5.x.u.<.h e = , Y ~ E T W I I W T E R Y , - e @.-.-.1.1.5.q.q.,.5.5.q.q.6.5.r.6.5.6.6.q.q.q.",
"6.6.5.1.1.2.a.u.d.2.i.,.i.c.x.2.1.1.y.x.a.1.:.g 3 - H Y J I L K K K I T Y H - 7 g ;.5.>.1.1.8.6.6.>.5.q.q.6.6.q.q.:.5.5.q.q.w.q.",
"6.6.7.1.1.3.d.y.p.p.a.1.d.c.s.1.1.p.y.d.3.1.:.&.@.e - , ! ~ I L K I R Y , - p @.=.-.;.:.1.:.6.6.5.5.q.q.5.5.6.q.9.:.5.6.q.q.w.6.",
"5.5.2.1.1.p.s.a.a.u.2.3.x.c.i.1.2.a.d.a.1.1.1.:.-.#.8 = 1 Y I I I I Y H = 7 $.>.-.-.-.:.1.>.5.5.6.6.q.6.5.5.q.q.7.7.6.6.6.w.q.4.",
"5.5.1.1.2.a.a.s.x.p.1.s.x.u.3.1.3.a.s.i.1.1.2.9.>.6.*.r = , Y ( ( Y , = y *.5.1.:.:.-.1.1.-.5.5.6.6.q.5.;.6.q.6.5.q.q.5.6.w.6.5.",
"5.;.1.1.2.i.a.x.x.1.3.s.d.s.1.1.i.a.p.2.1.1.8.,.6.r.i.d 4 - H ! Y H - $ *.q.9.1.1.1.:.,.:.-.-.5.5.6.9.:.-.q.q.6.q.e.>.,.q.e.,.;.",
"-.-.1.1.2.i.d.c.s.1.i.s.d.i.1.i.p.i.3.3.:.8.6.7.q.q.1.:.*.p = O O = r #.6.6.,.1.1.3.9.>.1.1.:.-.6.q.2.1.6.w.5.6.q.9.2.5.q.8.>.-.",
"-.-.1.<.1.i.x.x.i.1.p.s.s.p.s.a.2.2.i.7.8.w.7.6.q.5.:.5.q.#.6 + * 3 h e.q.6.:.2.8.w.7.1.1.1.1.>.q.6.1.7.w.q.5.6.6.>.:.q.q.5.:.-.",
":.1.2.1.1.a.x.d.1.1.a.p.d.x.d.1.1.3.9.7.q.q.>.q.q.5.2.6.6.;.h g s d 9.w.q.5.>.9.w.8.1.1.1.1.1.6.w.>.1.q.w.9.;.5.4.1.,.q.q.7.1.1.",
">.9.3.1.2.s.d.a.1.p.a.a.x.d.2.1.1.q.9.6.q.9.5.q.q.,.>.5.5.9.q.3.1.9.w.r.6.;.5.q.r.3.1.1.1.1.7.r.q.1.7.q.q.>.:.;.-.2.5.q.6.>.1.1.",
"q.>.1.1.i.s.s.i.p.d.i.t.y.p.1.1.8.q.7.q.6.,.9.e.9.2.-.5.6.w.9.1.2.q.w.q.;.5.5.r.8.1.1.1.1.2.6.w.7.1.9.q.5.2.1.2.1.:.q.q.5.2.1.7.",
"7.1.1.1.i.s.s.a.x.p.p.s.s.1.1.7.r.6.6.6.6.9.w.q.4.1.5.6.q.q.1.1.9.w.w.9.:.;.e.v.2.1.1.2.3.5.q.q.:.>.6.6.7.1.1.1.1.6.q.5.5.:.8.q.",
"1.1.1.1.i.p.s.x.x.3.i.p.i.1.2.w.w.5.6.6.5.q.q.6.5.9.6.q.w.9.9.q.e.r.e.2.:.6.C.0.1.1.8.6.,.5.6.8.1.-.5.6.,.1.1.1.7.r.6.;.;.5.q.q.",
"1.1.1.2.p.p.y.c.p.1.3.3.3.i.t.w.8.4.5.6.q.q.6.5.q.9.5.q.q.q.r.q.q.r.6.1.2.u.u.2.:.8.q.>.:.6.6.5.1.5.5.5.2.1.1.2.q.e.5.-.5.6.6.,.",
"1.1.1.i.7.a.c.x.3.1.1.i.s.8.q.q.9.5.5.6.q.q.5.q.q.7.6.q.w.w.q.q.q.r.7.1.a.C.a.2.6.q.7.1.,.6.6.-.1.;.;.5.:.1.1.7.e.q.>.:.5.5.5.1.",
"1.3.9.3.3.d.x.s.1.1.p.x.p.7.q.q.-.;.5.q.q.6.6.q.6.-.6.q.r.w.e.q.q.q.>.3.u.C.,.5.6.9.1.1.6.6.6.>.:.-.6.5.1.>.7.q.q.6.1.-.;.5.-.1.",
"6.q.3.2.i.y.x.i.1.p.x.y.1.5.6.6.-.5.w.q.5.6.q.q.>.9.6.w.w.q.q.6.q.6.:.s.x.d.,.6.6.-.i.0.6.5.;.:.1.0.8.>.8.9.5.6.6.,.1.2.,.-.:.1.",
"w.7.7.2.p.y.d.3.i.d.d.2.2.6.6.6.9.q.q.6.5.6.q.6.:.5.q.q.q.w.6.6.6.6.,.t.y.0.-.;.5.t.u.8.;.;.-.:.p.y.,.6.q.,.-.6.6.3.a.a.1.1.:.9.",
"9.9.7.2.p.s.s.3.p.s.p.1.:.5.5.5.6.q.6.;.5.q.q.4.7.q.q.6.w.w.4.6.6.5.i.d.d.i.:.-.e.x.a.1.-.=.-.p.x.0.6.e.7.1.5.5.q.u.d.1.1.1.6.q.",
"8.6.2.2.a.s.p.3.p.a.2.1.-.;.5.6.6.6.5.;.6.e.5.6.q.q.;.6.r.6.-.5.5.:.p.a.s.2.2.0.x.d.2.1.:.:.>.x.x.6.6.6.1.:.5.q.c.u.2.1.1.-.6.6.",
"r.7.1.3.p.a.i.3.i.i.2.2.>.-.;.5.q.9.1.,.q.6.6.q.q.>.7.q.q.-.-.;.-.:.p.a.p.2.i.s.s.i.1.1.1.1.t.c.e.5.6.>.1.>.6.v.v.p.1.1.1.;.6.6.",
"q.2.1.3.8.p.3.1.1.2.7.:.1.1.-.5.q.>.1.q.w.6.6.q.8.1.5.q.q.:.-.-.-.2.i.i.i.1.i.p.p.2.1.1.2.3.x.x.6.-.;.:.1.,.e.u.t.1.1.1.:.6.6.6.",
"7.1.1.8.8.3.2.1.2.9.9.1.1.1.,.w.6.1.7.w.q.5.5.5.>.2.6.q.9.:.:.-.-.2.3.3.3.2.3.i.3.1.1.7.,.a.x.d.:.:.>.1.1.7.8.t.7.1.1.1.9.8.6.e.",
"2.1.7.8.2.2.2.>.8.q.1.1.1.>.q.w.>.1.q.q.5.-.;.5.1.,.q.q.7.1.1.1.:.:.,.2.2.1.1.1.1.1.7.8.3.d.d.s.1.2.1.1.1.3.i.i.2.1.1.3.r.5.6.q.",
"2.q.8.2.1.3.7.6.r.>.1.2.3.q.w.8.1.7.q.q.:.1.>.:.1.9.w.6.:.1.1.3.9.2.1.1.1.1.1.1.:.,.q.>.i.d.d.i.1.1.1.1.1.1.2.2.1.1.2.w.q.9.e.6.",
"8.w.7.1.7.5.9.w.8.1.2.7.q.w.w.9.1.6.6.6.2.1.1.1.>.w.q.5.2.2.8.q.3.1.1.1.1.1.1.3.7.q.8.1.p.s.s.2.1.1.1.1.2.:.1.1.1.2.6.r.5.9.6.6.",
"q.6.1.9.q.7.q.e.>.9.q.9.w.w.q.:.:.6.6.5.1.1.1.2.6.w.5.5.:.6.w.7.1.1.1.1.1.1.i.9.8.q.,.2.p.a.0.2.1.1.1.>.7.1.1.1.2.6.r.e.5.5.6.6.",
"q.7.7.w.5.6.6.9.6.r.9.q.w.q.6.2.-.5.5.,.1.1.1.9.w.6.;.;.5.q.8.1.1.1.1.1.1.3.q.7.q.q.1.1.0.0.i.2.1.1.7.7.1.1.1.2.8.q.r.q.-.5.6.q."
};
