/* XPM */
static char *m5_coiso1704829757[] = {
/* columns rows colors chars-per-pixel */
"64 64 162 2 ",
"   c #28050D",
".  c #360A0A",
"X  c #1A2603",
"o  c #1B2A01",
"O  c #1A300C",
"+  c #172D10",
"@  c #112818",
"#  c #1D3818",
"$  c #1F3D15",
"%  c #2E230B",
"&  c #3E260A",
"*  c #3F2908",
"=  c #24092F",
"-  c #340B24",
";  c #18202B",
":  c #273324",
">  c #5C1113",
",  c #55131E",
"<  c #4C0C15",
"1  c #750E2B",
"2  c #771026",
"3  c #6C0D30",
"4  c #750F3E",
"5  c #2D4404",
"6  c #2F4A01",
"7  c #27410C",
"8  c #2A420A",
"9  c #2F4808",
"0  c #304F00",
"q  c #315000",
"w  c #284712",
"e  c #2C4919",
"r  c #2B5019",
"t  c #3D620D",
"y  c #254B21",
"u  c #255D3F",
"i  c #495E03",
"p  c #47570D",
"a  c #435B06",
"s  c #446305",
"d  c #4B6F0F",
"f  c #486906",
"g  c #4D7502",
"h  c #4F7A02",
"j  c #4C720D",
"k  c #4F780D",
"l  c #537E04",
"z  c #527C0C",
"x  c #42751D",
"c  c #517810",
"v  c #507B34",
"b  c #2C1649",
"n  c #3A3459",
"m  c #4C104F",
"M  c #471153",
"N  c #69114A",
"B  c #701D4D",
"V  c #661A56",
"C  c #7A1A56",
"Z  c #443C4E",
"A  c #5B345C",
"S  c #6E1B62",
"D  c #235545",
"F  c #337747",
"G  c #3E7F6B",
"H  c #407B5D",
"J  c #60744A",
"K  c #514064",
"L  c #4B5566",
"P  c #515454",
"I  c #842218",
"U  c #971A22",
"Y  c #9F1B25",
"T  c #8A0F36",
"R  c #8F1135",
"E  c #821C32",
"W  c #9C1534",
"Q  c #93173F",
"!  c #911330",
"~  c #A51D24",
"^  c #A1182E",
"/  c #B91E2F",
"(  c #A91931",
")  c #B31F33",
"_  c #A62020",
"`  c #BE202E",
"'  c #B52535",
"]  c #BB253B",
"[  c #B72837",
"{  c #C9232D",
"}  c #D0282E",
"|  c #DE2A2A",
" . c #DF322F",
".. c #C72732",
"X. c #D42F31",
"o. c #D63232",
"O. c #E02D2B",
"+. c #E4342E",
"@. c #E63730",
"#. c #E1433A",
"$. c #E94A3B",
"%. c #F14837",
"&. c #F5513C",
"*. c #8E1540",
"=. c #951A40",
"-. c #81245B",
";. c #B73C45",
":. c #CF4246",
">. c #538402",
",. c #568900",
"<. c #588E01",
"1. c #54800A",
"2. c #5D8E0D",
"3. c #599100",
"4. c #5D910D",
"5. c #5E8A13",
"6. c #609302",
"7. c #679C03",
"8. c #689F02",
"9. c #65960D",
"0. c #669B0C",
"q. c #689F0B",
"w. c #649513",
"e. c #669912",
"r. c #689D12",
"t. c #65A104",
"y. c #69A402",
"u. c #6BAB02",
"i. c #69A30A",
"p. c #6DAA0A",
"a. c #67A507",
"s. c #70AE0D",
"d. c #6EB301",
"f. c #6FB800",
"g. c #72B405",
"h. c #71BA01",
"j. c #72B30D",
"k. c #76BB0F",
"l. c #78BE0E",
"z. c #6BA412",
"x. c #6EAA11",
"c. c #70AE11",
"v. c #73B310",
"b. c #75B810",
"n. c #508E24",
"m. c #53982B",
"M. c #54902B",
"N. c #468730",
"B. c #4A8837",
"V. c #4D9233",
"C. c #5D933A",
"Z. c #5AAA39",
"A. c #7AC30D",
"S. c #7DCA0C",
"D. c #79C306",
"F. c #39834A",
"G. c #459D59",
"H. c #57944C",
"J. c #629441",
"K. c #5DB340",
"L. c #429463",
"P. c #80CF0D",
/* pixels */
"u.u.f.a.7.u.u.d.d.d.d.d.d.u.t.w.7.8.8.9.w.w.0.d.d.q.7.y.y.y.0.w.w.w.w.e.i.f.i.u.d.i.0.d.p.r.e.0.q.g.a.w.w.w.z.f.i.d.d.t.8.y.d.d.",
"u.u.d.i.8.u.d.d.d.d.u.u.u.u.7.w.7.7.8.9.w.0.u.h.u.0.9.8.y.8.w.w.w.i.i.q.f.d.i.u.u.q.d.d.r.w.i.p.d.h.q.w.w.i.d.d.y.u.u.7.y.d.d.u.",
"u.d.u.9.8.u.d.d.f.a.u.d.u.y.0.w.9.7.7.i.a.y.u.d.i.w.9.7.7.9.w.0.u.a.e.u.h.y.u.u.u.u.f.i.w.p.a.a.d.u.w.i.u.u.h.i.y.u.y.a.d.d.y.y.",
"d.d.i.q.d.u.u.d.d.y.u.u.y.8.9.w.w.e.i.d.i.i.u.u.q.w.w.w.w.w.i.d.p.e.i.f.f.t.y.u.d.d.u.e.u.f.i.d.d.i.u.g.u.d.d.7.y.y.u.u.d.u.y.y.",
"d.u.u.d.d.7.d.h.a.8.y.y.8.7.9.w.w.u.h.u.w.y.y.y.9.w.w.w.w.q.u.d.0.w.u.f.d.q.y.y.d.d.a.a.f.a.y.d.d.d.f.d.d.d.a.0.8.8.u.u.u.y.7.y.",
"u.y.d.d.q.q.d.d.i.7.8.8.7.9.w.9.a.d.u.e.9.y.y.y.w.w.w.w.0.y.u.i.w.0.d.d.i.7.y.d.d.u.u.d.d.q.y.y.d.d.d.d.d.u.q.9.6.8.y.u.u.w.q.d.",
"y.u.d.y.w.a.d.d.7.7.7.7.9.w.q.i.f.d.7.w.9.8.y.8.w.w.w.e.t.y.y.0.w.i.u.u.i.y.d.d.y.u.u.d.a.q.y.d.d.d.d.u.u.u.0.w.w.7.y.d.i.w.a.f.",
"y.y.u.0.w.u.d.u.9.9.7.0.w.a.i.d.d.y.0.w.0.8.7.7.w.w.q.7.8.8.y.q.q.y.y.u.i.d.d.u.y.u.d.d.9.8.u.d.u.f.d.y.u.y.w.w.w.0.d.d.w.i.f.f.",
"7.7.8.e.q.d.d.q.w.w.w.0.i.u.i.f.u.8.w.i.i.9.7.9.e.a.i.w.9.7.a.i.0.8.y.y.u.u.u.y.8.d.d.y.i.u.d.y.d.d.y.y.u.7.w.w.w.a.h.i.w.u.d.u.",
"9.7.0.w.u.d.u.0.w.w.q.u.f.i.d.d.i.0.y.a.w.w.w.0.d.u.w.w.w.q.d.i.9.7.8.u.u.u.u.7.y.d.u.u.d.d.q.y.f.d.7.8.y.q.w.w.q.h.d.e.0.d.d.i.",
"w.w.w.e.d.u.y.9.w.i.d.h.p.y.d.u.q.a.d.w.w.e.q.u.f.e.w.w.0.u.p.w.9.9.8.y.u.d.e.q.d.d.y.d.f.i.9.d.f.a.7.7.8.9.w.w.u.d.i.w.y.u.u.0.",
"w.w.w.d.f.y.y.0.p.h.h.h.a.u.u.y.p.d.i.w.q.i.a.h.p.w.w.i.d.f.e.w.w.9.9.8.d.i.w.i.f.u.u.d.u.w.i.d.d.i.7.7.8.9.w.q.d.d.i.w.u.u.y.w.",
"w.w.i.f.u.8.8.y.d.f.f.d.i.u.u.u.d.u.w.i.d.i.d.d.q.i.u.a.f.d.w.w.w.w.z.d.d.w.q.f.d.y.y.y.t.w.y.d.d.e.w.0.7.w.w.y.u.u.w.9.y.y.i.w.",
"w.w.d.f.i.7.y.y.u.d.h.u.i.y.u.d.d.i.i.h.i.u.u.u.u.f.u.f.f.a.w.w.e.x.p.h.i.w.a.f.u.7.8.8.9.9.u.d.y.w.w.w.w.q.q.y.u.u.w.7.y.y.7.w.",
"e.y.d.d.0.7.8.y.u.d.d.i.y.u.d.d.u.i.d.d.7.u.u.d.h.f.d.d.d.q.w.x.b.i.f.f.q.9.d.d.i.w.9.9.e.i.d.d.q.w.w.0.a.i.q.y.u.i.w.7.7.8.9.w.",
"i.u.d.a.w.9.7.7.h.d.d.y.d.d.d.u.u.d.d.i.i.y.d.d.d.d.u.u.u.e.b.A.z.y.g.u.w.i.u.u.0.w.w.w.e.d.d.y.0.w.i.d.i.w.7.y.y.7.9.9.7.7.9.e.",
"i.u.u.i.w.w.9.p.h.u.d.f.f.f.u.u.u.d.u.q.8.u.d.u.h.u.u.u.u.j.A.x.0.u.g.y.w.y.u.u.w.w.w.w.a.f.y.y.0.y.f.u.w.w.7.8.y.9.w.w.w.0.a.d.",
"y.u.u.0.w.w.x.k.u.d.f.d.d.u.y.y.d.d.i.0.y.d.u.d.h.y.y.u.s.p.4.j h >.>.z 2.y.y.t.w.w.w.q.f.d.y.8.y.u.d.e.w.w.7.7.8.9.w.w.0.u.d.e.",
"y.y.y.9.w.i.A.g.u.d.d.u.d.y.8.y.d.d.t.u.d.y.u.f.u.i.y.u.p.5.9 X X o o 5 l y.y.7.w.w.w.u.f.u.7.8.u.u.i.w.w.w.9.7.7.9.w.0.u.d.i.w.",
"8.y.8.9.w.l.l.i.u.u.u.u.u.0.7.d.d.y.d.f.a.7.d.d.>.g h l z f 7 O O O O $ s g h h 5.w.i.d.d.i.9.8.8.y.9.w.w.w.i.q.9.9.w.7.u.a.e.w.",
"7.7.7.w.c.S.s.7.y.y.y.d.i.w.y.f.u.u.d.u.w.i.d.3.5 o X X X 7 x n.n.n.n.x 7 o X 5 z a.d.d.u.e.w.7.7.7.9.w.i.u.e.w.w.w.7.8.y.7.w.w.",
"7.7.7.r.l.l.r.7.8.y.u.d.e.e.f.d.y.u.u.i.w.t.3.f $ O O O O w x m.Z.K.K.V.r O O 7 f 1.7.u.y.w.w.w.9.9.e.i.f.i.w.w.w.w.9.7.8.0.w.w.",
"w.9.9.c.l.v.w.w.0.y.f.i.w.a.f.u.y.y.t.9.0.3.0 8 x n.n.M.n.x w y F G.G.G.V.m.m.t 8 5 ,.y.i.w.w.w.w.w.y.h.i.w.w.w.w.w.w.9.0.w.w.w.",
"w.w.r.v.b.x.w.w.e.f.d.e.q.d.d.q.7.7.7.w.a.,.o + N.Z.m.M.C.v e e F.G.G G B.m.Z.N.+ o h y.0.w.w.w.w.t.u.u.e.w.w.w.w.w.w.w.w.r.e.w.",
"w.w.z.v.v.r.w.w.u.h.y.w.y.d.u.0.w.w.w.w.d.>.o @ F F.y : Z P B.m.Z.H.L n : y F.F @ X h y.0.w.w.w.7.y.u.t.w.w.w.w.w.9.w.w.x.z.w.w.",
"w.w.z.c.c.w.w.e.u.h.i.w.u.u.u.w.w.w.w.i.h.,.6 # u D ; = M A J J.J.J A M = ; D D # 5 >.8.9.w.w.q.8.8.y.9.w.w.w.e.i.w.w.v.v.w.w.w.",
"w.w.x.c.x.w.w.i.d.d.e.0.u.y.q.w.w.w.9.f.g.6.>.t $ ; b M N B A K K A B N M b ; # t ,.6.7.w.w.i.q.9.7.8.w.w.w.e.u.q.w.v.A.r.w.w.w.",
"w.w.z.z.z.w.9.u.u.a.w.7.y.y.0.w.w.w.u.f.u.<.>.i % - V -.Q Q C S S C Q Q V m - % f 1.5.w.w.y.p.w.w.9.9.w.e.w.p.u.w.v.S.x.w.w.w.w.",
"w.r.r.z.e.w.7.u.u.i.w.7.8.8.0.w.w.i.d.d.t.l 6 % , E ;.:.....[ ] ] ] { ' *.4 3 , % 7 c e.i.f.e.w.w.w.w.w.i.i.f.e.z.A.l.e.w.w.w.w.",
"i.r.e.e.e.i.y.y.y.7.w.7.7.7.e.w.r.u.d.u.9.j X   2 [ $.&.@. .| | O.O.+.} ) W W 2   X j i.h.a.w.w.w.w.e.a.i.d.d.e.v.l.j.w.w.w.w.w.",
"e.w.w.e.p.i.7.y.y.7.w.9.7.7.q.a.a.u.d.a.w.d X . U o.&.&.@.| | | | +.%.$.} { { U . o h d.d.r.w.w.w.w.u.a.a.f.i.x.k.h.z.w.w.w.w.p.",
"w.w.w.i.u.e.8.8.8.9.w.w.e.y.g.i.t.u.u.q.w.d X . _  .#.#. .| +.+.| +.#.#.+.| | ~ . o >.h.u.w.w.w.w.p.d.p.d.d.e.s.D.j.w.w.w.e.f.p.",
"w.w.q.h.q.w.7.7.7.w.e.x.u.d.a.w.u.u.u.0.w.d X . ~ } ' ] } @.%.$.+.{ ' ' X.| | ~ . o >.d.i.w.w.w.i.f.i.a.d.y.i.h.l.p.w.i.i.d.f.w.",
"i.y.g.g.e.w.9.w.9.i.b.u.u.u.0.r.g.y.y.w.w.z o . ~ { W ^ { O.#.#.@.{ W W / { { U . o >.d.0.w.w.e.f.f.i.u.u.y.g.h.p.z.i.i.u.d.i.w.",
"u.u.h.i.w.w.w.w.x.l.p.y.u.i.w.k.u.y.7.w.z.2.X . _ { ^ ^ { } ' ' { { W R W W W 2   X >.y.w.w.w.a.h.d.i.u.u.d.h.u.z.d.p.y.d.d.q.a.",
"u.d.g.e.w.w.w.z.P.k.7.8.y.0.v.A.7.7.7.x.A.5.5 * I ~ ^ ( / / W W ` / W R W ! 1 , % 0 ,.y.w.w.0.d.h.y.8.y.u.d.d.i.p.h.i.u.u.u.d.h.",
"d.d.u.w.w.w.r.l.l.q.e.8.7.x.S.x.9.9.i.A.l.w.k i & > ~ ` ( W T R W W R W / Y < % a >.7.q.w.w.i.d.d.q.y.y.d.d.u.y.h.y.i.u.u.d.d.d.",
"u.d.y.w.w.w.c.l.b.e.z.r.z.S.A.w.w.e.k.A.c.w.9.l 5 * I ~ ^ W R T T R W ^ ~ I * 6 l y.y.7.w.w.y.d.u.0.y.d.d.u.u.d.d.q.y.y.d.d.h.d.",
"u.u.q.w.w.r.v.l.x.x.c.w.b.P.c.w.w.x.k.k.r.w.9.2.>.i * > ~ / W T T W / ~ > * f ,.<.7.8.0.w.0.y.u.y.y.d.d.y.y.u.d.u.0.8.u.d.d.f.u.",
"y.y.e.w.w.x.v.c.c.l.e.r.A.S.z.w.e.c.j.s.w.w.w.e.7.,.q & I ~ ^ ^ W W ~ I & 0 3.0.7.7.7.w.w.0.y.y.u.u.d.u.y.y.d.d.q.0.d.u.u.d.d.i.",
"y.y.w.w.w.x.v.v.S.x.w.v.A.l.r.w.r.c.c.z.w.w.e.p.q.u.<.p & > ~ { { ~ > & s 3.y.9.9.9.9.9.w.7.8.y.u.u.u.y.8.u.d.u.y.d.d.8.u.f.a.y.",
"y.8.w.w.w.z.x.A.A.w.w.b.l.v.w.w.z.c.c.e.w.e.u.0.a.h.i.c 6 * I ~ _ I & 5 3.d.i.w.w.w.9.q.9.7.7.y.y.d.a.0.7.f.u.u.f.d.q.q.d.f.q.y.",
"8.7.w.w.w.z.v.S.v.w.z.v.b.z.w.z.x.z.r.0.e.u.p.i.h.d.0.4.3.f & . . & p >.u.u.7.w.w.i.a.q.w.w.9.8.y.d.e.w.u.f.y.u.d.y.w.y.d.u.7.7.",
"7.7.w.w.w.z.A.S.r.w.x.v.c.x.b.c.w.r.z.i.a.d.q.u.h.a.w.y.u.<.5 X X 8 c f.d.u.0.w.p.d.q.w.w.w.w.q.d.u.w.i.f.d.y.u.u.0.e.d.d.y.w.7.",
"9.0.e.w.w.v.A.b.w.w.v.x.v.A.v.w.w.r.a.i.h.u.q.d.d.i.0.y.u.7.1.h j c t.h.d.y.0.u.h.p.w.w.w.w.w.p.h.q.w.d.d.y.8.y.y.w.q.d.d.q.w.w.",
"q.i.e.w.w.b.l.x.w.x.c.c.A.l.r.w.e.d.i.u.h.i.i.d.d.q.0.y.y.a.d.q.w.i.h.h.u.8.y.g.g.r.w.w.w.w.i.h.d.w.q.d.d.q.0.7.7.w.y.d.u.q.w.w.",
"d.e.w.w.z.v.v.z.x.v.x.v.l.z.w.w.u.d.i.d.d.q.u.d.u.w.7.y.u.f.i.w.w.d.h.d.7.y.y.h.p.w.w.w.w.e.d.d.i.w.u.u.u.w.w.w.w.0.d.d.y.e.w.i.",
"i.w.w.w.z.v.v.x.A.x.x.v.v.w.w.i.h.a.u.u.y.i.d.d.y.w.a.u.d.d.e.e.y.h.h.i.9.8.h.l.e.w.w.e.r.y.d.d.q.0.u.u.i.w.w.w.w.u.f.y.y.e.a.d.",
"w.w.w.w.x.x.v.A.l.r.z.x.z.w.w.f.f.i.a.u.y.d.d.u.y.a.u.u.d.i.i.d.g.h.h.e.w.u.S.s.w.w.p.u.q.u.u.u.w.q.y.u.q.w.w.w.i.h.u.8.8.y.d.u.",
"w.w.w.w.z.x.l.S.x.w.r.z.r.r.s.f.d.7.u.u.d.d.u.y.d.u.y.d.d.d.f.d.d.h.u.w.e.l.A.e.0.p.d.0.0.u.u.i.w.8.y.y.e.w.w.w.d.h.y.7.y.u.u.i.",
"w.w.w.z.i.v.S.A.r.w.w.z.v.p.f.f.a.y.y.u.d.d.y.d.f.i.u.d.f.h.d.d.d.h.i.w.s.P.v.e.u.d.i.w.q.y.u.7.w.7.8.y.9.w.w.y.d.d.0.7.y.y.y.w.",
"w.i.a.e.e.b.A.v.w.w.x.A.x.i.d.d.t.8.y.d.d.y.u.f.a.7.u.d.h.d.h.d.d.d.0.r.l.P.i.y.u.u.w.e.y.u.y.0.9.7.u.y.w.0.p.u.d.y.w.0.8.y.7.w.",
"p.d.z.9.z.k.l.z.w.x.A.v.w.y.u.u.7.u.d.d.y.u.d.d.i.i.u.d.f.f.d.u.d.u.0.c.A.b.q.y.u.q.r.j.y.y.y.9.w.p.s.9.y.p.i.u.u.q.w.q.i.7.9.w.",
"d.i.i.e.x.k.b.z.z.k.b.e.e.u.u.u.a.d.d.y.y.u.d.u.9.y.d.d.d.f.u.u.u.y.0.k.k.s.7.8.y.s.l.p.7.7.7.9.x.l.q.u.d.0.t.u.u.r.c.c.e.w.e.y.",
"a.a.i.w.x.v.v.e.x.v.x.w.0.y.y.u.u.d.u.8.y.d.d.i.7.d.d.u.h.f.y.u.u.7.z.v.v.x.9.7.g.S.c.9.7.7.7.z.A.j.u.h.i.w.y.y.g.l.v.w.w.w.y.d.",
"p.d.w.r.x.v.x.z.x.x.e.w.7.8.y.y.u.u.y.8.u.d.y.u.h.u.8.d.h.a.7.y.y.0.x.v.c.r.w.s.A.v.w.w.9.9.0.A.A.u.u.y.w.w.y.g.S.l.w.w.w.q.u.u.",
"h.i.w.r.x.x.x.e.z.z.w.e.0.7.8.y.u.a.e.i.d.u.u.d.d.q.q.d.h.7.7.8.8.9.c.c.z.e.z.v.v.x.w.w.w.w.v.P.g.y.i.7.w.9.u.D.D.p.w.w.w.8.u.u.",
"d.w.w.r.p.x.r.w.w.e.i.e.w.9.7.u.d.q.e.u.f.u.u.d.i.w.y.d.u.0.7.7.7.e.z.z.z.w.z.c.x.w.w.w.0.r.A.A.u.8.8.e.w.q.g.h.j.w.w.w.9.u.u.u.",
"i.w.w.p.i.r.e.w.e.u.i.w.w.w.q.d.u.w.i.f.d.y.y.y.q.e.u.d.a.e.0.9.7.w.r.r.r.e.e.z.r.w.w.i.q.v.A.b.e.7.7.w.w.z.j.j.i.w.w.w.i.u.y.h.",
"e.e.p.p.e.e.e.e.d.p.w.w.w.q.d.f.q.w.d.d.y.7.y.8.w.q.d.g.i.w.w.w.9.0.q.e.e.w.w.w.w.w.z.a.e.v.l.c.w.w.w.w.w.r.z.x.e.w.w.r.h.y.u.g.",
"e.u.d.w.w.e.i.d.f.e.w.w.e.d.f.u.w.i.d.d.q.9.9.9.w.a.f.u.0.w.w.e.i.e.w.w.w.w.w.w.e.q.g.q.z.b.b.z.w.w.w.w.w.w.e.w.w.w.e.d.d.i.d.u.",
"u.h.e.w.i.a.u.f.a.w.q.i.d.f.f.i.w.y.u.u.w.w.w.w.q.d.d.y.e.w.i.f.i.w.w.w.w.w.w.r.q.u.u.w.x.c.v.r.w.w.w.w.e.w.w.w.w.e.d.h.i.u.u.u.",
"f.u.e.i.d.i.d.d.i.i.d.a.f.f.d.r.0.u.u.t.w.w.w.w.d.f.y.y.e.u.f.i.w.w.w.w.w.w.z.i.u.h.q.e.x.c.c.w.w.w.w.e.i.w.w.w.e.a.h.f.i.y.u.u.",
"d.i.i.f.i.y.u.u.u.f.a.d.f.d.u.w.7.y.y.q.w.w.w.i.f.u.8.8.y.h.a.w.w.w.w.w.w.r.d.i.h.u.w.w.s.j.z.w.w.w.p.y.w.w.w.e.u.d.d.d.8.y.u.d."
};
