/* XPM */
static char *red_11704817985[] = {
/* columns rows colors chars-per-pixel */
"64 64 163 2 ",
"   c #070C03",
".  c #28050D",
"X  c #2A090E",
"o  c #350A0B",
"O  c #381310",
"+  c #192604",
"@  c #1B2A01",
"#  c #142409",
"$  c #1A300C",
"%  c #142B14",
"&  c #1F3C16",
"*  c #1D3B1B",
"=  c #2E230B",
"-  c #3E260A",
";  c #3F2908",
":  c #24092F",
">  c #360C24",
",  c #18202B",
"<  c #273324",
"1  c #5C1113",
"2  c #55131E",
"3  c #771026",
"4  c #7D1A2B",
"5  c #7C122E",
"6  c #2D4403",
"7  c #2F4A01",
"8  c #27400B",
"9  c #2A4209",
"0  c #304F00",
"q  c #315000",
"w  c #2B5019",
"e  c #3B5C12",
"r  c #2C4919",
"t  c #3D620D",
"y  c #3C6B1B",
"u  c #254B21",
"i  c #255D3F",
"p  c #3F7422",
"a  c #495E04",
"s  c #47570D",
"d  c #436306",
"f  c #40620A",
"g  c #4B6F0F",
"h  c #4B6603",
"j  c #4F7C04",
"k  c #4C720D",
"l  c #4E750A",
"z  c #537E03",
"x  c #527C0C",
"c  c #42751C",
"v  c #517810",
"b  c #507B34",
"n  c #2C1649",
"m  c #3A3459",
"M  c #5B154D",
"N  c #471153",
"B  c #69114A",
"V  c #701D4D",
"C  c #611F52",
"Z  c #7A1A56",
"A  c #7C1D58",
"S  c #443C4E",
"D  c #5B345C",
"F  c #6E1B62",
"G  c #265F41",
"H  c #235545",
"J  c #337747",
"K  c #3E7F6B",
"L  c #407B5D",
"P  c #60744A",
"I  c #514064",
"U  c #4B5566",
"Y  c #515454",
"T  c #842218",
"R  c #971A22",
"E  c #8A0F36",
"W  c #8F1135",
"Q  c #821C32",
"!  c #9C1534",
"~  c #93173F",
"^  c #A51D24",
"/  c #A1182E",
"(  c #B91E2F",
")  c #AA1931",
"_  c #A31C36",
"`  c #A62020",
"'  c #BE202E",
"]  c #A9382F",
"[  c #A52037",
"{  c #B52535",
"}  c #BB253B",
"|  c #BB2F3A",
" . c #CA242D",
".. c #D0282E",
"X. c #DD2A2A",
"o. c #DF322F",
"O. c #C52431",
"+. c #C92E37",
"@. c #E02D2B",
"#. c #E4342E",
"$. c #E63730",
"%. c #E53C34",
"&. c #DA413C",
"*. c #E2443A",
"=. c #F14837",
"-. c #F7523C",
";. c #9A2344",
":. c #83275C",
">. c #B73C45",
",. c #DA4C47",
"<. c #538302",
"1. c #578A02",
"2. c #588E01",
"3. c #54800B",
"4. c #5D8E0C",
"5. c #599100",
"6. c #609302",
"7. c #679C03",
"8. c #689F02",
"9. c #65960D",
"0. c #669B0C",
"q. c #689F0B",
"w. c #608E12",
"e. c #649513",
"r. c #669912",
"t. c #689D12",
"y. c #65A304",
"u. c #69A402",
"i. c #67AA01",
"p. c #6BAB02",
"a. c #69A30A",
"s. c #6DAA0A",
"d. c #67A00C",
"f. c #70AE0D",
"g. c #6EB301",
"h. c #6FB800",
"j. c #72B405",
"k. c #71BA01",
"l. c #72B30D",
"z. c #76BB0F",
"x. c #78BE0E",
"c. c #6BA412",
"v. c #6EAA11",
"b. c #70AE11",
"n. c #73B310",
"m. c #75B810",
"M. c #508E24",
"N. c #54942B",
"B. c #488834",
"V. c #4D9233",
"C. c #5D933A",
"Z. c #5AAA39",
"A. c #7AC30D",
"S. c #7DCA0C",
"D. c #79C306",
"F. c #39834A",
"G. c #449E5E",
"H. c #479A50",
"J. c #57944C",
"K. c #629441",
"L. c #5DB340",
"P. c #429463",
"I. c #80CF0D",
/* pixels */
"p.p.h.s.7.p.p.g.h.g.g.g.g.p.y.e.7.8.8.9.e.e.q.g.h.7.7.u.u.u.9.e.e.e.r.r.u.h.d.p.h.0.9.h.s.t.t.9.d.h.p.e.e.e.d.h.a.g.h.y.8.u.g.g.",
"p.p.g.0.u.u.g.g.h.g.p.g.p.p.7.e.7.7.8.9.e.9.p.h.p.e.0.8.u.8.r.e.e.d.d.d.k.g.a.p.p.0.h.g.r.t.a.a.g.j.q.e.r.a.h.p.u.p.p.0.u.h.g.u.",
"p.g.p.9.y.p.g.g.h.s.p.p.p.u.9.e.0.7.7.y.s.u.p.g.a.e.9.9.7.9.e.9.p.s.e.p.k.s.p.p.p.g.k.d.e.s.s.p.h.s.e.d.s.p.h.u.u.p.p.u.g.g.p.u.",
"g.g.y.d.h.p.u.h.g.7.u.p.u.y.9.e.e.e.a.h.u.q.p.p.7.e.e.e.e.e.d.g.g.e.d.h.h.a.u.u.p.j.p.r.s.g.y.p.g.u.s.h.u.h.g.0.u.u.u.p.g.p.8.y.",
"h.u.u.k.p.7.p.h.s.8.u.u.8.7.9.e.e.u.k.s.e.u.p.u.9.e.e.e.e.q.g.g.q.r.p.h.p.8.y.u.g.g.y.a.k.u.u.p.p.g.h.p.g.h.s.7.8.y.u.p.p.u.7.u.",
"p.p.h.h.q.q.h.h.7.8.8.8.7.9.e.9.a.h.p.r.9.y.u.y.r.e.e.e.9.s.p.a.e.9.p.h.s.7.u.h.h.p.u.h.g.0.p.p.g.h.h.g.g.p.d.9.7.8.u.p.p.e.0.h.",
"u.p.g.u.e.s.g.p.0.7.7.7.9.9.q.a.h.g.7.e.9.8.8.8.e.e.e.r.y.u.u.0.e.a.p.p.0.u.g.h.u.p.p.h.d.7.u.p.g.g.h.p.p.p.9.e.9.7.u.g.0.e.s.h.",
"u.u.u.0.r.p.g.s.9.9.7.0.e.a.d.g.k.u.9.e.0.8.8.7.e.e.d.7.8.8.y.0.0.u.u.p.u.g.h.u.u.p.g.g.q.7.p.g.p.h.p.u.p.u.e.e.e.e.h.g.9.d.h.h.",
"7.8.u.e.0.g.h.d.e.e.e.9.s.p.a.h.p.8.9.d.0.0.7.9.r.a.d.e.7.7.u.a.9.8.u.u.p.g.p.u.u.p.h.u.q.p.g.u.g.h.u.u.u.a.e.e.e.s.h.d.e.p.h.s.",
"9.9.7.e.p.h.p.9.e.e.q.p.h.d.g.h.d.9.s.u.e.e.e.9.p.g.e.e.e.0.g.c.0.8.8.p.u.g.u.7.u.h.p.p.h.h.7.p.k.g.7.8.u.0.e.e.0.g.g.r.q.g.g.y.",
"e.e.e.r.h.p.u.9.e.a.h.k.p.y.p.p.9.p.g.r.e.r.d.p.h.r.e.e.r.p.p.e.9.9.8.u.p.p.r.9.p.g.u.g.h.d.9.p.h.u.7.7.8.0.e.e.p.h.u.e.u.p.p.9.",
"e.e.r.p.h.u.u.9.s.h.h.k.a.p.p.p.s.k.d.e.q.u.s.h.p.e.r.d.g.h.r.e.e.9.9.8.h.a.e.u.h.p.p.g.p.e.d.g.h.q.7.7.7.9.e.0.g.g.q.e.p.p.u.e.",
"e.e.d.k.p.8.8.u.g.g.k.g.a.p.p.p.h.p.e.d.g.y.g.g.d.a.p.p.h.g.e.e.e.e.q.g.g.e.0.h.h.u.u.p.7.e.i.h.p.r.e.0.0.9.e.u.p.p.e.9.u.u.a.e.",
"e.e.g.k.u.7.u.u.p.h.k.s.a.u.p.g.h.d.d.k.a.p.p.p.s.h.s.g.h.a.e.e.t.c.s.k.a.e.s.h.p.7.8.8.9.9.p.h.u.e.e.e.e.q.0.p.p.p.e.7.u.u.7.e.",
"e.u.h.p.0.7.8.u.p.g.h.y.8.p.g.g.p.u.j.g.0.p.p.g.h.h.g.g.h.9.r.b.z.s.g.h.q.9.g.h.d.e.9.9.r.q.h.p.a.e.e.9.p.d.0.u.p.a.9.7.8.8.9.e.",
"u.p.g.s.e.9.7.7.j.g.g.u.g.g.h.p.p.p.h.d.8.p.p.g.h.h.p.p.p.t.n.A.c.u.h.s.e.d.p.p.q.e.e.e.r.g.g.u.0.e.d.h.a.e.7.u.u.7.e.9.7.7.9.r.",
"d.p.p.a.e.e.9.s.j.p.h.h.h.h.p.u.p.h.g.r.u.p.g.p.h.p.p.p.p.l.A.v.9.p.j.d.e.u.p.p.e.e.e.e.u.h.p.8.0.u.h.p.e.e.7.8.y.9.e.e.e.9.p.g.",
"u.p.p.9.e.e.c.x.p.g.h.g.g.p.u.u.p.g.u.9.u.g.p.h.h.u.u.p.j.n.n.w.<.<.<.3.4.u.u.u.e.e.e.0.h.h.8.8.u.p.g.r.e.e.7.7.8.9.e.e.9.g.h.r.",
"u.u.u.9.e.t.A.j.p.g.g.p.p.p.8.u.h.p.y.p.h.u.p.k.g.8.u.i.s.v.c.v 7 @ @ 6 z u.u.7.e.e.e.s.h.p.7.8.p.p.d.e.e.e.0.7.7.9.e.9.p.g.d.e.",
"u.u.8.9.r.x.A.a.p.p.p.p.p.0.7.g.h.u.g.h.d.7.g.h.s.5.<.<.x x k t 9 $ @ & d z 6.0.e.e.d.g.h.d.9.y.u.u.9.e.e.r.y.0.9.9.e.7.p.s.e.e.",
"7.8.7.e.b.S.f.8.u.u.u.g.d.e.u.h.p.p.h.p.e.a.h.g.q.z 6 = + + + 8 c N.M.p 8 6 <.9.q.a.p.g.p.9.e.7.7.7.9.e.d.p.r.e.e.e.9.8.u.7.e.e.",
"7.7.0.t.x.x.q.7.7.y.g.g.r.r.h.h.u.p.p.q.e.p.g.y.x d & @ $ #   % B.Z.Z.V.w 8 t 1.y.q.p.p.s.e.e.e.9.9.e.a.j.a.e.e.e.e.9.7.8.9.e.e.",
"9.9.9.b.x.n.e.e.9.p.h.a.e.s.h.p.8.u.u.9.0.p.h.<.& 9 c M.M.y # % J G.G.H.V.c 9 0 x 0.p.u.y.e.e.e.e.9.u.h.s.e.e.e.e.e.e.9.0.e.e.e.",
"w.e.t.n.m.c.e.e.9.h.h.r.9.g.h.d.7.7.7.e.y.p.5.e * * c N.C.b r w J G.K P.B.p * & e <.7.u.9.e.e.e.e.a.p.p.9.e.e.e.e.e.e.e.9.t.r.e.",
"e.e.c.n.n.t.e.e.s.h.s.e.a.g.p.9.e.e.e.e.g.5.7 * i i * < m Y B.N.Z.J.U m < * G G * 6 <.u.9.e.e.e.7.u.p.y.e.e.e.e.9.9.e.e.v.c.e.e.",
"e.e.v.b.n.r.e.r.g.g.0.9.p.p.u.e.e.e.e.d.k.1.6 & i H , : N D P K.K.P D N : , H G * 6 <.8.9.e.r.0.7.u.y.9.e.e.e.r.a.e.e.n.n.e.e.e.",
"e.e.v.v.c.e.e.a.g.p.9.0.p.p.d.e.e.e.q.h.g.6.z t & , n N B V D I I D V B N n , * t 1.6.7.e.e.a.q.9.7.8.e.e.e.r.p.d.e.n.A.t.e.e.e.",
"e.r.c.c.t.e.9.p.p.s.r.7.u.u.0.e.e.e.s.k.p.6.<.d = > C :.;.;.A F F Z ~ ~ Z M > = h x w.e.e.u.s.e.e.9.9.e.e.e.s.p.e.l.S.v.e.e.e.e.",
"e.t.t.t.t.e.7.p.p.y.e.7.8.8.9.e.e.0.h.g.7.z 7 = 2 Q >.,.,.&.+.} } } O.O.} _ E 2 = 8 v r.d.g.r.e.e.e.e.e.0.s.h.d.c.A.z.r.e.e.e.e.",
"d.t.t.t.r.d.u.u.u.0.9.7.7.8.9.9.d.p.h.p.9.k + X Q | *.-.-.=.#.X.#.#.X.X.X. .{ 4 X # l u.h.s.e.e.e.e.9.s.d.h.p.r.n.A.l.e.e.e.e.e.",
"r.e.e.r.s.d.8.u.u.0.e.9.7.0.q.s.u.p.g.u.e.g + O ] *.%.$.$.#.X.#.=.=.#.X.X.o.&.] O @ j g.h.q.e.e.e.9.p.s.s.h.d.v.z.k.c.e.e.e.t.s.",
"e.e.e.a.p.r.8.8.8.9.e.e.r.u.g.d.d.p.p.0.e.g + O ] *.o.@.$.#.#.o.*.*.o.X.X.#.*.] O @ <.h.p.e.e.e.e.s.g.d.g.g.r.s.D.l.e.e.e.r.g.s.",
"e.e.d.h.d.e.7.7.7.e.t.f.s.h.s.e.p.p.p.9.e.g + X 4 { ..#.=.=.#...{ { ..@.@...{ Q X @ <.g.y.e.e.e.d.h.a.p.g.p.d.k.x.s.r.q.d.h.g.e.",
"d.u.h.g.9.e.e.e.7.c.n.p.p.p.9.r.j.p.y.r.e.v @ . 3 ) ' ..%.&.$. .) ) (  . .( ) 3 . @ <.g.q.e.e.r.h.h.a.p.p.u.j.k.s.c.a.a.p.k.d.e.",
"p.g.j.s.e.e.e.e.c.A.s.u.p.7.t.z.p.8.7.e.c.4.@ o R ' ) _ [ { ..X...( ) / / ) ( R o @ <.p.e.e.e.a.h.g.y.p.p.p.j.j.c.j.s.u.g.p.q.s.",
"p.g.j.r.e.e.e.c.A.z.7.8.u.9.n.x.7.7.7.c.A.4.9 ; T ` ! ! E ! (  . .( ! W ! / ` T ; 6 1.u.e.e.r.g.k.y.8.u.p.g.g.d.p.k.d.p.p.p.g.h.",
"g.g.p.e.e.e.r.z.A.c.9.7.0.s.S.c.9.0.a.A.A.w.x a ; 1 ` ( ! E ! ! / ! E ! ( ^ 1 ; a <.7.7.e.e.a.h.h.0.8.u.g.g.p.u.j.p.a.p.g.g.h.g.",
"p.p.u.e.e.e.b.A.n.t.c.t.c.S.A.t.e.r.m.A.b.e.9.z 6 - T ^ / ! W E E W ! / ^ T ; 6 z 8.u.0.e.e.u.p.p.0.y.h.g.p.p.g.h.0.u.u.g.g.h.g.",
"p.p.d.e.e.t.n.z.b.c.b.e.m.I.b.e.e.v.z.z.t.e.9.4.<.d ; 1 ^ ( ! E E ! ( ^ 1 ; h 1.6.7.8.9.e.9.p.p.u.u.h.g.u.u.p.g.p.9.8.p.g.p.h.p.",
"p.u.r.e.e.b.n.n.b.x.e.c.A.S.c.e.t.b.n.f.e.e.e.r.7.<.0 - T ^ / / ! / ^ T ; 0 2.0.7.7.8.9.e.0.u.u.p.p.g.p.y.u.h.g.y.0.g.p.p.h.h.7.",
"u.u.e.e.e.b.b.n.A.v.e.n.A.x.t.e.t.b.b.c.e.e.r.a.0.i.2.s ; 1 ^  . .^ 1 - h 5.y.9.9.9.9.9.e.7.8.u.p.p.g.u.8.p.j.p.a.g.g.u.p.j.p.8.",
"8.8.e.e.t.v.b.A.A.r.r.m.z.n.e.e.c.v.v.t.e.e.j.d.s.h.d.x 7 - T ` ^ T - 9 2.g.a.e.e.e.9.0.9.7.7.u.y.p.s.9.7.h.p.p.h.h.q.q.h.h.0.8.",
"8.7.w.e.t.t.n.S.n.e.c.n.m.c.e.c.v.c.t.q.0.s.s.q.h.g.9.9.5.h ; o o ; s <.p.p.7.e.e.q.s.0.e.e.0.8.u.h.r.e.p.h.u.p.g.u.e.a.h.p.7.8.",
"7.7.e.e.e.c.A.A.c.e.c.n.n.v.n.b.e.t.c.a.u.h.q.p.h.s.e.u.p.2.8 + = & x h.h.p.9.e.s.h.d.e.e.e.e.0.h.p.e.d.h.h.u.p.p.9.9.g.h.u.e.7.",
"9.9.e.e.e.b.x.m.e.e.n.v.n.A.n.e.e.r.p.d.h.p.d.g.g.a.9.p.p.7.3.j l l y.h.h.y.0.p.h.s.e.e.e.e.e.p.h.q.e.g.h.u.8.u.y.e.0.g.g.0.e.r.",
"q.a.r.e.t.n.m.b.e.b.b.b.A.x.t.e.r.g.a.p.h.d.a.g.g.q.9.u.u.p.g.r.e.a.h.h.p.8.u.j.k.r.e.e.e.e.d.j.p.e.q.g.g.q.9.7.7.e.p.h.p.9.e.e.",
"g.r.e.e.c.n.n.v.v.n.c.l.z.c.e.e.p.h.d.g.g.0.p.j.p.e.7.y.p.h.u.e.9.p.h.h.7.y.p.k.s.e.e.e.e.r.g.h.a.e.p.p.s.e.e.e.e.9.h.p.u.r.e.d.",
"d.e.e.e.v.n.b.b.A.v.v.n.n.r.e.d.h.s.u.g.u.d.h.g.y.e.u.p.g.g.e.e.s.h.h.s.9.8.j.x.r.e.e.r.t.u.g.g.9.0.p.p.u.e.e.e.e.p.k.u.y.9.a.h.",
"e.e.e.e.v.v.b.A.A.t.c.v.c.e.r.h.h.a.p.p.p.g.j.p.y.p.u.g.h.d.d.g.j.k.j.9.9.s.I.s.e.r.a.p.9.s.g.p.r.0.p.p.q.e.e.e.d.k.p.u.7.u.h.p.",
"e.e.e.r.v.v.z.S.v.r.t.t.t.c.s.h.p.a.u.p.p.g.p.y.g.s.a.g.g.h.k.h.h.k.p.e.r.x.x.t.r.p.j.0.9.p.p.u.e.8.u.u.9.e.e.r.g.k.u.7.u.p.p.q.",
"e.e.e.c.d.v.A.A.t.e.e.c.n.s.h.h.s.8.y.p.h.g.u.g.h.d.p.g.h.k.j.p.h.h.q.e.l.I.b.r.p.h.d.e.a.p.p.7.e.7.8.u.9.e.e.u.j.g.0.7.u.u.u.e.",
"e.d.s.r.c.z.A.n.e.e.v.A.v.d.g.g.7.7.u.h.p.p.p.h.s.7.p.g.h.h.h.h.g.g.0.t.x.I.q.u.p.u.e.e.p.p.u.9.9.7.p.u.e.t.a.p.h.u.e.9.8.u.7.e.",
"p.g.q.9.c.z.z.v.e.b.A.l.r.p.p.p.0.p.h.g.u.p.g.h.0.y.p.h.h.h.g.p.g.p.9.l.A.z.q.p.p.0.t.l.p.8.8.9.e.f.f.0.u.s.a.p.p.d.e.t.d.7.9.e.",
"h.d.d.r.v.z.m.t.c.m.m.r.r.u.p.u.y.h.g.u.u.p.g.p.0.u.p.h.g.h.p.p.p.u.q.n.z.f.7.8.u.j.x.s.7.7.7.9.v.z.q.p.h.9.y.p.p.q.v.b.r.e.9.s.",
"a.a.a.r.v.m.b.c.b.n.v.e.7.u.u.p.p.g.p.8.u.g.g.7.7.h.g.p.h.h.y.u.p.a.c.n.m.c.9.8.k.A.b.e.7.7.7.c.A.f.p.j.d.e.u.u.j.x.n.e.e.e.u.g.",
"s.g.r.r.b.b.v.c.v.b.r.e.9.7.u.p.p.p.8.7.p.h.p.u.h.p.7.g.k.s.8.u.u.9.v.n.b.t.e.b.x.z.e.e.9.9.q.A.A.p.p.p.e.9.u.j.D.A.r.e.e.7.p.p.",
"k.d.e.t.v.v.c.t.c.c.r.r.0.7.8.y.p.s.9.0.h.p.p.h.h.q.0.g.h.7.7.8.8.9.v.v.v.r.c.n.l.c.e.e.e.e.l.I.j.u.p.q.e.9.p.A.A.s.e.e.e.8.p.p.",
"g.r.e.t.s.v.t.r.e.r.a.r.e.9.7.u.h.9.e.g.k.u.p.g.a.e.u.g.p.0.7.7.7.r.c.v.t.e.v.v.v.r.e.e.9.t.A.A.p.7.8.e.e.q.j.k.l.e.e.e.9.p.p.p.",
"a.e.e.s.a.c.r.e.r.s.a.e.e.e.q.h.p.e.d.h.g.u.u.u.9.r.p.h.s.9.0.0.7.r.t.t.r.t.t.t.t.e.e.0.d.n.A.m.9.0.7.e.e.c.l.l.a.e.e.e.a.p.p.j.",
"9.e.s.a.t.r.r.9.p.p.e.e.e.9.h.h.q.e.g.h.u.7.u.8.9.d.g.h.0.e.e.e.9.9.q.t.t.e.e.e.r.e.d.s.t.n.x.b.e.e.e.e.e.r.c.c.t.e.e.t.h.u.p.g.",
"r.p.g.e.r.q.d.p.h.r.e.e.r.h.h.p.e.d.h.g.9.9.0.0.e.u.h.p.q.e.e.r.a.r.e.e.e.e.e.e.9.d.h.q.c.n.n.c.e.e.w.e.r.e.r.t.e.e.r.h.g.a.g.p.",
"g.h.r.e.d.a.s.h.s.e.9.a.g.h.h.a.e.u.p.p.e.e.e.e.q.h.g.u.e.r.a.g.q.e.e.e.e.e.e.t.0.g.s.e.b.n.n.t.e.e.e.e.9.9.e.e.e.r.p.h.a.s.p.p.",
"h.p.r.a.g.y.g.g.d.a.p.p.h.h.g.r.9.p.p.y.e.e.e.e.p.h.u.8.9.p.h.d.e.e.e.e.e.e.d.a.s.h.q.r.c.b.f.e.e.e.e.q.0.e.e.e.r.p.k.h.a.u.p.p.",
"h.a.a.h.a.u.g.p.p.h.s.p.h.h.p.r.7.p.u.0.e.e.e.a.h.g.8.8.a.h.p.e.e.e.e.e.e.c.g.d.j.g.e.e.f.l.v.e.e.e.a.s.e.e.e.r.s.g.k.p.u.u.p.g."
};
