/* XPM */
static char *grass1704818484[] = {
/* columns rows colors chars-per-pixel */
"64 64 30 1 ",
"  c #679C03",
". c #689F02",
"X c #65970D",
"o c #669B0C",
"O c #689F0B",
"+ c #649513",
"@ c #669912",
"# c #689D12",
"$ c #69A402",
"% c #6BAB02",
"& c #67A00C",
"* c #69A30A",
"= c #6CAA0A",
"- c #70AE0D",
"; c #6EB301",
": c #6FB800",
"> c #72B405",
", c #71BA01",
"< c #72B30D",
"1 c #76BB0F",
"2 c #78BE0E",
"3 c #6BA412",
"4 c #6EAA11",
"5 c #70AE11",
"6 c #73B310",
"7 c #75B810",
"8 c #79C306",
"9 c #7AC30D",
"0 c #7DCA0C",
"q c #80CF0D",
/* pixels */
"%%:=O%%;;;%;;%$+ .$X++&;;* $$%X+++@X*:*;;&X;=3#X&:%+++&;=;;& $;;",
"%%;O$$;;;;%;;% + . X+X%;;+X $ +++&&@:;*%%&;;##*&;:#+@*:%$%% $:;%",
"%;%X$%;;:%%%%$X+Xo &=$%;*+X  X+@%*@;:$$%%%:*+=*%:%+&=%:*$%$$;;%$",
";;OO;%%:;$$%$$X++X*:$O%% +++++&;;+&::$$%%;;@%;*;;*%;$:;o$$%%%% $",
":%%:%O%:% $$  X++*:%+ %$X++++@;;o+%;; $%;%$*:*$%%::%;;=  $%%;$ $",
"%$;;OO;;*  $ X+X$;;@X$$$++++X%%$+X;;* $;;%%;; $%;;:;%;&X  $%%+ ;",
"$%;$+$;;o   X@ &:;&+X.$ +++@*$%@@*%% $;;%%;;*&$%;::%%%X+X $;&+=:",
"$$%oX%;%XX o+*&;;%X+    ++&  $  &$%%$;;%$%;;X.%;%:%$%$@++X:%@&::",
"  $+ ;;&+++X$%*:% @&&ooX@**+o $*X $%%;%$$;;$&;;%;:$$$&+++*:&@%:%",
"X X+*:%o++o%:*;:& *%++@X;%@++O;&o $$$;$ $;%%;; $:;  $ ++&:;+o;;&",
"+++@:;$X+*:8;*%%o=;@+X&%;@++X;=+XX $%%@X;;$;:*X%:$  $o++%:%+$;%@",
"+++;:$ X$:::*%%%*:&+o*%:=@@&%:o+++  :*+$:%%;%+&;;&   X+o;%o@%%$+",
"++*:% $$%:::$%%%;%+*;*;;&&%=:;++++#;:+o:;$$%OX%;;@+ooX+*;%Xo$$ +",
"++;:$ $%%::% $%;;**:*%%%%:%;:*++#3-:*+=:%  $XX;;$++++o %%$+o$$ +",
"+*;;oX$$%::*$%;;%*;; %%;:;;;;X#47&;:oo;:&+XX+&;%&++X%&o%$$+   @+",
"%%;%+o  ;;%%%;;%%;;**$;;::%%%#793%:%+&%%o++++;;% +*;&+ $$ +   X@",
"O%%$+++=:%;:::%%%;;X$%;%:%%%%-24o;;&+$%%++++%:%$X*:%++  $o+++X%;",
"$%%X++32%;:;;%$$%;*X$;%;:$$%-77+&%%oX$$$+++&::  $;;@++   X++X%;@",
"$$$X+39;%;;%;% $:%$;:$%:%$$%=63+$%%XX$$ +++%:%  %%&+++o  X+X%;&+",
".$ X+29*%%%%%o ;;%%:* ;:* $$*3#X$%$+    ++&;;&o $$X++XOoXX+$%%@+",
"  O+49-.$$$;&+=:%%;%@&;;  ..@#+o$$$XX  X@=%%%o+   ++&%@+++  $ ++",
"   #99#  $%;@o:;%%%&+%;;XX X+++  $$+++X%;o%%$+++XX+%:&++++X  X+X",
"XXX427++X%:&+%:% $$XX;;$+XXo+X+o %o++X%:oo%%&++++X$;=++++++Xo+++",
"++@713++o:;@o;;&   +&;;o+++&&++ ;$X++%;*+ $$o++++*%%@++++++++#@+",
"++#67#++=:%+$;%@++++%;%X+@%*@@o;%o++ %%X+ $$X+++ $%$+++++X++33++",
"++354@+X;;&+%%$++++*:%$Xo;;@@&*:&++o$% ++ $ X++&  $X+++@*@@56+++",
"++443++*;%@ %%&+++X:;..*;;@@;&;;+++&  X+o%& ++=oX $++++%o@69#+++",
"+#333+X%%%+O$$ +++;:% .%%*+;*%;%+&%@XXX&;oXX+$=++XX+++==@504++++",
"+#3##+*$%*+  .X++@;;* $$%X=:&;;o&;&++o&:=+++*;++++++&*:&399@++++",
"*#+#@&$$$ X   X+&%;;XX $$*:;%;%&:%++$=;;++X*:=+++++%&:;@69-+++++",
"@++@=**.$o+X oO%$%;*++XXo;::;%%%;@+=$%;=+==;:&++++;*%:&3683++++-",
"+++*%X...X++@$;&&%% ++++$::;$%%;%@;;*;%$;;%;;++++=;*%;&-8-+++&;=",
"++*:OXX  +@4=:=+$;%X++@3;:;$$%;;&;:*$%%::;;:*+++&:=%%%*,24+o*:;+",
"*$:;++X+X37%%%X@>$$X+35&;;$ $;;%%:%o%%;::%%%X++@::&%%$;,=3=*%:*+",
"=%>=++++=2%$%O@1%$.+37&%;;&%;;$%%:& $;;;;%%%@++*:;*$%;:%3-%$;;o=",
"%:>o+++391  $o<2  o306X%;%$;;$$%;%X$%;%:%$%$++X::$$$%;;&%,*%%%;:",
";;%+++@293X.O=04Xo*99@@$$%%%%.$;;*&:%%;:*$$ ++*:;O$$;;%%:%*%%;::",
"%%$++@521+4#309#++194+X $$%;*o$:%%:%&%:%..$o++%%%o$;;%$;;O.$;;:;",
"%%O++#71345+706++411@++X$$%%+o;%%;;oo%:* ..X+X$%$$;;$$;;=o.%;%:$",
"%$@++56651@#903+@5<-+++@ $: +;:%%%%+=;;oX  X+o$$%%;%$$;;O ;%%::*",
"$$X++44794+499#+#553++@*&:;+&:; $% +%;%+XXo+X .$%%%$ %:%*:;O%:=$",
"..++@4499##775++355@++%*=:&+%;%   Xo;;$+++@ oX $$%%XO:%%;: O;:O ",
". ++#3706+#774+343##o%=*;;@o;;&+XX+*:%o++&%@+XoO%;o+%:$%;$+=;%  ",
" X+++3993+376374@@3*=:&=;%X$%%X@o+X:;%X@*;&++++o;%+&:;$%%XX;;$X ",
"XX@++497++54797++#%&:%O;;*o$%$&*@+%:;$X%:-+++++%:o+;;%.$$+&%:&+@",
"o*X++724+45527#++;*%:&$%%oo%$%;&+&::% %;;3++++&:;+&;;OX  +%:%X++",
";3++3773473<13++%:&;%O%:%+ $%:*++;:;& %:=++++@;;*+%%%++++X;;$@+&",
"o+++365494466@+*:=%%%&:;$X*%;;@+%::=X$;8#++@#$;;oo%%&++++%:$$X*:",
"++++456973343++>;&%%%%:%$%*%:**;:,>oX=q-++=%o%%%+O$%O+++*,%..$:%",
"+++@33903@#3##-:;$$%%;%$%;$;;;:;;,%+@22@@%;XX%%$+$$$o+++;,$ $%%O",
"+@+33409&++36=::% $%:%%%:&%;:::%>:*+<q5@%:*+&%%O+ .$X++%>;X $$$+",
"+&*@#796++494*;;  %;;%%:$$%;::::;:o#99*$%$++%%$XX %$+@*%;=XX.$O+",
"%;&@3193@49<@$%%o$:;$%;;&*%:;:%%;%X<91O$%O#<%.$X+=-o*%*%%*+o* X+",
":&&@477#377#@%%%%;%%$%;%X$;:;:%%%$X71- .$<2= . X47O%:@.%%O44++@$",
"***+566&573+ $$%%;% $;;O&;;%:;*%%O3773X.>95X   30-%;O+$$;27+++$;",
"=;+&554334@+o $$%%$ %:%%:%$%:%$$$X466@+-97++XXO99%%%+X$;02@++O%%",
":&+#443#33@@o  $;%+&:%%;;o ;;O ..X354+3673++++<0>$$o+o%89=+++.%%",
";@+#=3#+@#&@+X %;o+%:$%%*@*;%o  .@333#344+++X#99%..X+O>2<+++X%%%",
"*+@==&@+@%&+++ ;%+*:;$$%&@%;=XX X+O3@##3#++&o597oXo++*=<*+++*%%>",
"@@=3@#@o%=@++@;:o+;;% ..+&;;*+++XOo@++++#+&=#776+++++#33@++#,$%;",
"@%;@@@*%:@++@;:;+&;;XXXo+%;%X++#&#++++++X*;o3773++++++@#++#;;$;%",
"%:@+&%%:%+@*;::&+%%%++++o:;$@+=;o++++++3o;=+366#++++@X+++#%,*=%%",
":;@&%*;;&&;*::;@X%%*+++@%:$$@%:&++++++&*=:o+4--++++X&+++#=,:$$%%",
";*&:*%%%%:%;:;%@ $% +++*:;  $:%++++++3;&:;+#=<4+++*=+++@%%,%.$%;"
};
