/* XPM */
static char *theo_stop_left1704828128[] = {
/* columns rows colors chars-per-pixel */
"64 64 201 2 ",
"   c #0A0504",
".  c #050603",
"X  c #130907",
"o  c #190A07",
"O  c #130B0D",
"+  c #1C0E0D",
"@  c #1F1508",
"#  c #141F02",
"$  c #0C0F12",
"%  c #110B12",
"&  c #120E19",
"*  c #0D1C1D",
"=  c #11121C",
"-  c #171B1F",
";  c #171518",
":  c #210F0A",
">  c #24120D",
",  c #2A170D",
"<  c #30160F",
"1  c #341B0B",
"2  c #381C09",
"3  c #261610",
"4  c #2C1610",
"5  c #2D1812",
"6  c #221C1F",
"7  c #321C15",
"8  c #3C1C13",
"9  c #321A18",
"0  c #3B1F19",
"q  c #1B2504",
"w  c #1B2B01",
"e  c #142101",
"r  c #0D221D",
"t  c #1F2918",
"y  c #26270B",
"u  c #3E3509",
"i  c #222A18",
"p  c #26331C",
"a  c #382017",
"s  c #1D1728",
"d  c #1C1A2F",
"f  c #1C1C33",
"g  c #351E29",
"h  c #19322E",
"j  c #2E2122",
"k  c #3C2128",
"l  c #332237",
"z  c #3A2539",
"x  c #34363A",
"c  c #283037",
"v  c #451E13",
"b  c #4D2613",
"n  c #422218",
"m  c #4C261A",
"M  c #562B14",
"N  c #562817",
"B  c #64291B",
"V  c #6D2D1D",
"C  c #702E1E",
"Z  c #70381A",
"A  c #76341D",
"S  c #49252D",
"D  c #582C2A",
"F  c #542A26",
"G  c #5C312D",
"H  c #552C36",
"J  c #662D28",
"K  c #743120",
"L  c #7B3427",
"P  c #6B3A36",
"I  c #622F31",
"U  c #2D4505",
"Y  c #2F4A01",
"T  c #2C4109",
"R  c #314E02",
"E  c #315000",
"W  c #3D5908",
"Q  c #3E5B12",
"!  c #3E6500",
"~  c #435C0A",
"^  c #426502",
"/  c #4B6F0F",
"(  c #446709",
")  c #4F7B03",
"_  c #4C720C",
"`  c #4D7505",
"'  c #517E03",
"]  c #527B0D",
"[  c #517810",
"{  c #517711",
"}  c #7E4333",
"|  c #66483C",
" . c #2A2E42",
".. c #302B4C",
"X. c #3D2E49",
"o. c #2F2F57",
"O. c #342F54",
"+. c #34325C",
"@. c #23394B",
"#. c #3C3966",
"$. c #3F3F73",
"%. c #442C46",
"&. c #40394C",
"*. c #4D3C48",
"=. c #413658",
"-. c #403B69",
";. c #403966",
":. c #38434F",
">. c #3E4855",
",. c #25525E",
"<. c #3E5453",
"1. c #2A5945",
"2. c #3B6559",
"3. c #2C6D58",
"4. c #3B4E6B",
"5. c #385C6C",
"6. c #3B4974",
"7. c #3A5773",
"8. c #295B65",
"9. c #3A6E65",
"0. c #387668",
"q. c #3A7A63",
"w. c #356178",
"e. c #33737A",
"r. c #367474",
"t. c #414149",
"y. c #404C4D",
"u. c #5F4A41",
"i. c #414151",
"p. c #46525E",
"a. c #634B40",
"s. c #536C52",
"d. c #476957",
"f. c #4D5967",
"g. c #4C5A68",
"h. c #505F6E",
"j. c #404069",
"k. c #467261",
"l. c #596879",
"z. c #843B1E",
"x. c #863724",
"c. c #8E3D23",
"v. c #874918",
"b. c #93491C",
"n. c #9F4D1E",
"m. c #A7551C",
"M. c #B0581F",
"N. c #8B4721",
"B. c #994724",
"V. c #845234",
"C. c #9B5833",
"Z. c #A15226",
"A. c #A5562E",
"S. c #A75B2E",
"D. c #B25A20",
"F. c #B85F2B",
"G. c #B85825",
"H. c #C15F23",
"J. c #C96225",
"K. c #528402",
"L. c #548901",
"P. c #588D01",
"I. c #55830C",
"U. c #5A8E0B",
"Y. c #599201",
"T. c #5E8B13",
"R. c #669C03",
"E. c #689F02",
"W. c #65960D",
"Q. c #669B0C",
"!. c #689F0B",
"~. c #609104",
"^. c #649513",
"/. c #669912",
"(. c #689D12",
"). c #65A302",
"_. c #69A402",
"`. c #6BAB02",
"'. c #69A30A",
"]. c #6DAA0B",
"[. c #67A604",
"{. c #70AF0D",
"}. c #6EB301",
"|. c #6FB800",
" X c #71B304",
".X c #71BA01",
"XX c #72B30D",
"oX c #76BB0F",
"OX c #78BE0E",
"+X c #6BA412",
"@X c #6EAA11",
"#X c #70AE11",
"$X c #73B310",
"%X c #75B810",
"&X c #7AC40D",
"*X c #7DCA0C",
"=X c #79C306",
"-X c #35826D",
";X c #37946E",
":X c #348075",
">X c #80CF0D",
/* pixels */
"`.`.|.[.R.`.`.}.}.}.}.}.}.`._.^.R.R._.Q.^.^.!.}.}._.Q._._._.W.^.^.^./.W.].|.'.`.}.'.W. X].+X(./.'.}.]./.^.^.'.}.[.}.}._.R._.}.}.",
"`.`.}.!._._.}.}..X}.`.`.`.`.R.^.R.R.R.W.^.W.`.}.`.W.Q.E._.E./.^.^.'.Q.'.|.}.[.`.`.!.}.}.(./.'._.`.|.Q.^./.'.}.].[.}.`.Q._.}.}.`.",
"`.}.`.W.E.`.}.`.|.[.`.}.`._.W.^.W.W.R.!.[.[.`. X_.^.W.W.R.W.^./.`.].^.`.|.].[.`.`.`..X!.^.].`.[.}.`.^.'.`.`..X_._.`._._.}.}.`._.",
"}.}.!.'.}.}._..X}._._.`._.).W.^.^.^.]..X].R.`.`.Q.^.^.W.^.^.!.}.]./.'.|.|._._._.`.}.`.(.[. X'.}.}.[.].}.[. X}.Q._._.`.`.}.`.R._.",
"}.`._..X}.R.`..X[.E._._.E.R.W.^.^.].}.`.^._.`._.W.^.^.^.^.Q.}.}.Q.^.`..X}.Q._._.}.}.[._..X[._.`.}.}.|.}.}.}.[.Q.R._.`.`.`.).R._.",
"`.`..X}.Q.Q.}..X_.R._.E.R.W.^.W.[.}.}.W.W._._._./.^.^.^.W.`.`._.^.Q.`.}.[.R._.}.}.`.[..X}.Q.`.`.}.}.|.`.}.`.'.W.R.R._.`.`./.Q.}.",
"_.`.}.[.^.[..X}.Q.R.E.R.^./.!._.|.}.R.^.W.E.E.E.^.^.^.W._._._.W./._.`.`.'._.}.}._.`.}.}.'.R.).`.}.}.|.`.`.`.W.^.W.W._.}.Q.^.`..X",
"_._._.Q./.`.}.[.^.W.W.R.^.'.!.}..X_.W.^.Q.R.R.R.^.^.!.Q.R.)._.!.Q._.`._.[.}.}.`._.`.}.}.W.R.`.}.`.|.`.`.`._./.^.^.Q.}.}.^.'.|.|.",
"R.E._./.Q.}..X'.^.^.^.W.].[.[..X`.R.^.'.Q.Q.Q.W./.].[./.U.R.).[.W._._._.`.`.`._.E.`.}.`.Q.}.}.`.}..X_._.`.R.^.^.^.[..X!.^.`..X[.",
"W.W.W.^.`.}.`.W.^.^.!.`.}.].`.}.'.Q.[.].^.^./.Q.`.].^.^././.}.+XW.E.R.`.`.`.`.R._..X`._.}.}.R._..X}.R.E._.!.^.^.!..X.X^.Q.}.}.'.",
"^.^.^.W.}.`._.W.^.'..X.X`._.}.`.W.`.}./.^./.'.`.|.U.[ / _ Y.).^.W.W.R._.`.}./.W.}.}.`.}.}.].W.`.}.[.W.E.E.W.^.^.`..X[.^.[.}.`.W.",
"^.^.^.}..X_.E.W._..X.X.X'.`.`.[.].|.Q.^.Q.[.[.}.].[ T w w E I.^.^.W.W._.}.'.^.'..X`.`.`.`.^.'.}. X'.R.R.E.W.^.!.`.}.!.^._.`._.^.",
"^.^.].|.`.E.E.`.}.}..X}.].`.`.`.}.`.^.'.}.[.}.).I.W q     q W [ T.^.(.}..XW.Q..X}._.`._._.^.`.}.}.^.W.Q.Q.W.^._.`.`.^.Q._._._.^.",
"^.^.}.}._.R._._.`.}..X`.R._.`.}.}.'.].}.]._.}.P.Y w @ > : @ # u I.+X]..X'.^.[..X`.R.R.R.W.W.}.}.[.^.^.^.^.!.Q._.`._.^.R._._.Q.^.",
"/.[.}.}.W.R.)._.`.}. X_._.`.}.}.`.[.}.`.Q.R.P.^ w X > 4 4 > X w ( I.`..XW.W.}.}.].^.W.W.^.'.}.`._.^.^.W.`.!.!._.`._.^.R.R.E.W.^.",
"_.`.}.[.^.W.R.R. X.X}.[.}.}.}.`.`.}.}.].R.L.Y w > > 5 5 7 5 > : q Y Y.`.^.'.`.}.W.^.^.^./.}.|.).W.^.'.}.'.^.R._._.Q.^.Q.R.R.W.Q.",
"'.`.`._.^.^.^.{..X`.}.|.|.}.`.`.`.}.}./.R.) w   : 4 7 7 7 4 4 > O w ^ ) / L.R.`.^.^.^.^.[..X`.E.W.].}.`.^.^.R.)._.Q.^.^.^.W.`.}.",
"_.`.`.W.^.^.+XoX`.}.|.}.}.}._._.}.}.[.W.`.K.w   : 4 7 7 4 4 4 , 4 3 w q q U L.).^.^.^.Q..X.XE.E._.}.}./.^.^.R.R.R.W.^.^.W.}.}.(.",
"_._._.W.^.(.&X X`.}.}.`.`.`.R._.}.}._.`.|.) w   + 4 9 9 4 4 4 4 5 5 X     q W ) / / _ K.L.P.P._.`.`._.^.^.^.U.R.R.W.^.W.`.}.'.^.",
"E.E._.W./.OX&X_.`.`.`.`.`.Q.R.}.}._.}.}.[.` w   @ 4 7 7 7 7 7 7 a a 4 > > @ q w q q q w w U ] _.E._.^.^.^./.[.Q.W.W.^.R.`.[.^.^.",
"R.R.R.^.#X*X{.R._.`._.}.'.^.[..X`.`.}.`./.I.Y w @ 3 5 5 7 7 9 9 5 a 5 a , > X   . . $ = - p ~ ] Y.R.^.^.'.`./.^.^.^.W.E._.R.^.^.",
"R.R.Q.(.OXOX!.Q.R._.`.}.^./..X}._.`.`.'.^.).Y.^ e O 3 3 4 4 4 4 3 4 y 5 a 5 > X . $ c +.p.y.p T ] W.^.].}.'.^.^.^.W.W.R.E.W.^.^.",
"W.W.W.#XOX$X/.^.W.[.}.].^.`..X`._._.).^.W.}.}.K.u e > : 4 9 9 9 4 4 9 9 7 7 5 >   ; :.h.l.g.c p ~ ] ).}.].^.^.^.^.^.^.W.Q.^.^.^.",
"^.^.(.$XoX+X^.^.Q.}.}./.Q.}.}.'.W.R.R.^._.}.`.W._ Q q % g k k g 9 5 5 a 7 7 7 3   - p.l.h.g.g.y.j Y P.`./.^.^.^.^.^.^.^.^.(.(.^.",
"^.^.(.$X$X+X^.^.].|.[./.[. X`.W.^.W.W.^.`.}.`.W.^._ w O g H H H g 9 7 8 0 n a >   s p.l.h.g.g.y.p Y L.[.^.^.^.^.^.W.^.^.+X@X^.^.",
"^.^.@X#X#X/.^./.`.}.'.^.`.`._.^.^.^.^.'.|.`._.W.Q.L.w + F L L J S k 9 8 B B 8 @   = :.h.l.f.c p ! K.~.W.^.^.^./.[./.^.$X$X^.^.^.",
"^.^.@X@X+X^.^._.}.`./.Q.`._.'.^.^.^.W..X}.E.E.R.}.K.q > B x.x.L I S 7 8 C V v +   $ c :.p.y.p U ] R.R.W.^.^./.[.Q.^.$X&X^.^.^.^.",
"^./.+X+X+X^.^.`.`.`.^.R._._.Q.^.^.^.`..X`.E.E.`.`.) q : B x.x.x.L J v v C V v >   . O ; - p ( ] T.W.W.^.^./.].`.^.$X*X#X^.^.^.^.",
"^.(.(.(.(.^._._.`._.^.R.E.E.W.^.^.(.}.}.R.R._.R.L.W q < B x.x.x.K N 8 8 N B 8 :     o : 1 u ~ [ T.^.^.^.'.].}.(.+X&XoX/.^.^.^.^.",
"'.(./.(.(.'._._._.Q.W.R.R.R./.^.'.`..X`.^.Q.E.K.U q y 0 C x.x.K N 8 < 5 8 8 < +   o v A b.v.u T { ^./.`.'.}.`.(.$X&X{.^.^.^.^.^.",
"(.^.^.^.'.'.E.E._.Q.^.W.R.R.Q.[.[.`.}.[.^.^.W.` q   4 n B K K B v 4 4 1 b b 0 7 2 b A B.J.m.2 q / ^.`.].`.|.[.+XoX.X+X^.^.^./.].",
"^.^.^.'.`.(.R.E.E.W.^.^.(.[. X'.Q.`.`.Q.^.^.^./ w   3 a n m n n 8 5 , b b.B.D D N.n.c.B.J.m.1 q _ ].}.'.}.`.(.{.=XXX^.^.^.+X X].",
"^.^.!..X!.^.R.R.R./.(.+X`..X[.^._. X`.W.^.T.] ( b 7 7 9 a 7 7 7 5 0 b Z Z.A.} } A.Z.A z.H.m.2 q ` |.].[.}.`.'..XOX].^.Q.'.}.}./.",
"!._..X X^.^.^./.Q.'.%X`.`.`./.(. X_._.^.^.I.R u v.v.M a 7 7 a 5 5 b b.Z.} } A.A.} D 8 b M.m.2 w L.|.[.`.`._. X.X].(.'.[.`.|.'.^.",
"`.]..X_.^.^.^.^.'.OX{._._._./.oX`._._.^.@XT.q 5 v.Z.m 9 a y a 7 b Z Z.A.} } A.C.| x $ 2 m.m.2 w L.}.'.).`.`..X`.+X{.`._.}.}.(.].",
"`.}. XQ.^.^.^.+X>XoXR.E._.W.XXOXR.R.R.+X&XI.e + F G 0 4 4 5 4 M b.Z.} } A.A.} u.d.1.* 2 m.m.2 w L.[._._.`.}. X'.}. X].`.`.`.}.}.",
"}.}.`.^.^.^.(.oXOX(./.E.Q.@X*X@XW.Q.!.&X&X[ U y i k b M M M M Z Z.C.u.a.S.S.a.<.0.3.r 2 m.m.2 w K.'.)._.}.}._.`..X[.R.`.`.}.}.|.",
"`.}.[.^.^.^.#XOX%X/.+X(.+X*X&X/.^.Q.%X&X@XT.] W t a v.M.D.D.D.Z.} u.d.s.V.V.s.0.e.,.* 1 m.m.2 w K.Q._.}.}.`.`.}..XQ.).`.|.}.}.}.",
"`.`.!.^.^.(.%XOX@X@X#X^.%X*X#X^.^.#XoXoX(.^.^.` w 4 N.F.F.F.F.C.u.<.0.k.| | k.:Xe.,.* 2 m.m.2 w ) [.}.}._.`.`.}.[.W.R.`.}.}.|.`.",
"_._.W.^.^.@X$X#X#XOX/.(.*X*X+X^./.#X$X{.^.^.^._ w @ F P P P P a.d.0.r.5.*.*.5.e.r.3.r 2 m.m.1 w ) `.}.`._._.}.}.'.!.}.`.`.}.}._.",
"_._.W.^.^.#X#X$X&X#X^.$X&XoX/.^.(.#X#X+X^.T.] ~ y - x t.&.&.:.y.0.r.w.4.y.y.w.e.:X3.* 2 m.m.2 w ' `.`._.R.`.}.`.[. X}.R.`..X[.E.",
"E._.^.^.(.+X#X&X&X/./.%XOX$X^.^.+X#X@X(.^.] Y y j x <.9.5.5.9.0.e.5.>.:.2.q.-X:Xe.,.* 2 m.m.2 w ) }.[.W.R.}.}.`.}..X!.!..X.X!.E.",
"E.R.^.^./.+X$X*X$X^.+X$X$X+X^.+X@X(.+X(.Q.K.w % k :.0.:Xe.e.:X:Xe.9.X.y.q.;X;X-X8.@.6 b M.m.2 q ) }./.^.}.|._.`.}.[.^.`.}. XQ.R.",
"R.W.^.^.^.+X&X&X+X^.+X$X$X@X$X$X/./.+X'.].L.e % l X.5.e.:X:Xe.e.r.9.t.t.q.;X;X3.h 6 m z.H.m.2 w L.`.^.'.|.}._.`.`.W.Q.`.}._.W.W.",
"W.W./.^.^.#X&XoX/.^.#X@X$X&X$X^.^.W.].'.}.K.q $ l =.7.7.r.r.w.w.r.9.i.i.2.q.3.1.i 8 B c.G.n.2 w L.Q./.}.|._.R._._.^.Q.}.}.'.^.W.",
"W.].(.^./.$XoX#X^.#X#X#X&XoX(.^./.}.].`.}.) q & ..#.6.6.6.7.6.6.6.4.j.=.i.x h i m C x.c.B.A : y K.^.'.}.}.Q.Q.R.R.^.`.}.`.W.^.^.",
"}.Q.^.^.+X$X$X+X@X$X+X$XoX@X^.^.`.}.'.`.}.` w = o.#.#.#.+.+.o.+.#.-.$.-.=.l % : B x.x.x.C N y R K.^.`.`._.^.^.^.^.W.}.}._.^.^.!.",
"Q.^.^.^.+X$X#X#X&X@X@X#X$X/.^.'.|.].`.`.[.) w $ l %.%.z s = = s z =.-.$.#...= : B x.x.C 8 y ^ ~.W.Q.`.`.].^.^.^.^.`..X_.).^.].|.",
"^.^.^.^.@X@X#X&XoX+X+X@X+X^.^.}.}.'.[.`._.L.w $ l %.%.k % . e y 9 ..#.$.$.o.& o b V B M y U Y.`.^.Q.`.).!.^.^.^.].|.`.E.E.[. X}.",
"^.^.^./.+X@X&X*X@X^.(.+X/.+XXX|.}._.`.`.}.K.w = ..=.%.g O e ! ( y d o.$.$.o.= . o : : y ~ P._.[.^.R._._.W.^.^./.}.}._.R._.`.`.!.",
"^.^.^.+X'.@X&X&X(.^.^.+X#X].|.|.[.R._.`.}.L.Y i  .O.X.l % w L.L.Y i  .o.$.o.= . # q q T ' `.`.R.^.E._._.W.^.^.'.}.}.Q.R._._._.W.",
"^.Q.[.+X+XoX&X$X^.^.@X&X@X'.}.}._.R._.}.}.R.L.( t f O...= w L.`.Y.( t d #.o.& # ~ ' / ] R.`._.W.W.R.`._.^.W.].`.}.[.^.Q.E.E.Q.^.",
"].}.(.W.+XoXoX@X^.@X&XXX/.).`.`.Q._.}.}.`.`.}.K.w & X.X.& w L.`.|.K.e & X.X.& w ) Q.+XXX`._.E.W.^.{.{.W.[.`._.`.`.!.^.(.'.R.W.^.",
"}.'.'.(.@X%X%X(.+XoXoX(./.`.`.`.[.}.}.`._.`.}.' q + D D + w K.`.}.) q + D D : q )  XOX].R.R.R.W.@XoX!.`.}.(._.`.`.!.@X#X^.^.^.`.",
"].[.'.^.@X%X#X+X#X$X@X^.R._._.`.`.}.`._._.}.}.` w : B B : w ' _.`.) q > B B : q P.*X#X^.R.R.R.+X&X{.`. X'.^._._.}.OX$X^.^./._. X",
"[.}.^.(.#X#X@X+X@X@X/.^.Q.R._._.`.}.R.R.`.}.`._.}.}.R.}..X`.R._.).Q.@X{.#X(.^.{.OXXX^.^.W.W.!.&X&X`.`.`.^.W.E. X*X&X/.^.^.R.`.`.",
".X'.^.(.+X#X+X/.(.+X^./.Q.R.R._.}.[.^.Q.|.`.`..X}.!.'.}.}.R.R.R.E.W.+X@X@X/.+X$X$X+X^.^.^.^.XX*X X_._.Q.^.Q.`.=X=X+X^.^.^.E.`.`.",
"}.^.^.(.].#X(.^.^.(.'./.^.W.R.`.}.Q.^.}..X_.`.}.].^.[.}.}.Q.R.R.R./.+X+X+X/.+X@X@X^.^.^.W.+X&X&X`.R._.W.^.'. X.XXX^.^.^.W.`._.}.",
"].^./.].].(./.^./.`.'.^.^.^.Q.|.`.^.'.|.}._._._.W.W.`.}.[.^.W.R.R./.(.+X(./.(.+X+X^.^.Q.Q.$X&XoXW.Q.Q.^.^.+X].XX'.^.^.^.].`.`..X",
"W.^.].'././.(.W.`.]./.^.^.Q.}.|.Q.^.}.}.[.R._.E.^.'.}.}.'.^.^.^.W.Q.(././.^.^.^.^.^.'.].(.$XoX#X^.^.^.^.^.(.+X+X/.^.^.(.}._.`.}.",
"^.`.}./.^.Q.'.}.|./.^.^.(.}.|.`.^.'.}.}.Q.W.W.W.^.[..X`.W.^.^.(.]./.^.^.^.^.^.^.W.'.}.(.+X%X%X+X^.^.^.^.^.^./.(.^.^.(.}.`.].`.}.",
"`..X(.^.Q.[.[..X[.^./.].}.|.|.'.^.`.`.`.^.^.^.^.Q.}.}._./.^.].}.Q.^.^.^.^.^.^.(.!. X`.^.@X$X#X(.^.^.^.^.^./.^.^.^./.`.|.]._.`.`.",
".X[.^.].`.].}.}.'.'.`.[.|.|.}.(.Q.`.`._.^.^.^.^.`.}._._.(.`.|.'.^.^.^.^.^.^.'.'.[..XQ./.@X#X{./.^.^.^.Q.'.^.^.^./.`..X|._.`.`.`.",
"}.'.[.}.].[.`.`.`.|.[.}.|.|.`.^.Q._._.R.^.^.^.]..X}.E.R.[.}.[.^.^.^.^.^.^.(.}.'.}. X^./.{.{.+X^.^.^.'.].^.^.^./.].}..X`.R._.`.`."
};
