/* XPM */
static char *wall1704817986[] = {
/* columns rows colors chars-per-pixel */
"64 64 7 1 ",
"  c #A95833",
". c #3A2316",
"X c #8E4A29",
"o c #472919",
"O c #BF673D",
"+ c #7F4428",
"@ c #613620",
/* pixels */
"                             X+ooX                              ",
"                             X+.oX                              ",
"                             X+.oX                              ",
"                             X+.oX                              ",
"                             X+.oX                              ",
"                             X+.oX                              ",
"                             X+.oX                              ",
"                             X+.oX                              ",
"                             X+.oX                              ",
"                             X+.oX                              ",
"                             X+.oX                              ",
"                             X+.oX                              ",
"                             X+.oX                              ",
"                             X+.oX                              ",
"                             X+.oX                              ",
"                             X+.oX                              ",
"                             X+.oX                              ",
"XXXXXXXXXXXXXXXXXXXXXXXXXXXXX+@.o++X+XXXXXXXXXXXXXXXXXXXXXXXXXXX",
".............................o..................................",
"................................................................",
"................................................................",
"+++++++++++X@....@++++++++++++++++++++++++++++@....+++++++++++++",
"OOOOOOOOOOOO @..@ OOOOOOOOOOOOOOOOOOOOOOOOOOOOXo..+OOOOOOOOOOOOO",
"             Xo.+                             X@.oX             ",
"            XXo.+                             X@.oX             ",
"             Xo.+                             X@.oX             ",
"             +o.+                             X@.oX             ",
"            XXo.+                             X@.oX             ",
"             +o.+                             X@.oX             ",
"             Xo.+                             X@.oX             ",
"            XXo.+                             X@.oX             ",
"            XXo.+                             X@.oX             ",
"             Xo.+                             X@.oX             ",
"            XXo.+                             X@.oX             ",
"             Xo.+                             X@.oX             ",
"            XXo.+                             X@.oX             ",
"             +o.+                             X@.oX             ",
"             Xo.+                             X@.oX             ",
"            XXo.+                             X@.oX             ",
"             Xo.+                             X@.oX             ",
"           XX+o.+X    X    X    X    X    X   X@.oXX            ",
"oo.o.o.o.ooooo..oooo.oooo.oooo.oooo.oooo.ooooooo..oooo.o.o.o.o.o",
"................................................................",
"................................................................",
"@@@@@@@@@@@@@@@@@@@@@@@@@@@@@o....o@@@@@@@@@@@@@@@@@@@@@@@@@@@@@",
"OOOOOOOOOOOOOOOOOOOOOOOOOOOOO o..@ OOOOOOOOOOOOOOOOOOOOOOOOOOOOO",
"                              +.oX                              ",
"                             X+.oX                              ",
"                              +.oX                              ",
"                             X+.oX                              ",
"                             X+.oX                              ",
"                             X+.oX                              ",
"                              +.oX                              ",
"                             X+.oX                              ",
"                             X+.oX                              ",
"                             X+.oX                              ",
"                              +.oX                              ",
"                             X+.oX                              ",
"                             X+.oX                              ",
"                             X+.oX                              ",
"                             X+.oX                              ",
"                             X+.oX                              ",
"                             X+.oX                              ",
"                             X+.oX                              "
};
