/* XPM */
static char *theoRR11704828127[] = {
/* columns rows colors chars-per-pixel */
"64 64 208 2 ",
"   c #020202",
".  c #0B0604",
"X  c #070A00",
"o  c #190A07",
"O  c #130B0D",
"+  c #1D0E0C",
"@  c #130907",
"#  c #1E1509",
"$  c #141F01",
"%  c #0C0F12",
"&  c #110E19",
"*  c #110B12",
"=  c #0D1C1D",
"-  c #111419",
";  c #1A141B",
":  c #210E09",
">  c #24120D",
",  c #2A140E",
"<  c #291A0C",
"1  c #30160F",
"2  c #381C09",
"3  c #321909",
"4  c #261411",
"5  c #2C1611",
"6  c #2D1813",
"7  c #221C1F",
"8  c #321D15",
"9  c #3C1B13",
"0  c #311A18",
"q  c #142001",
"w  c #1B2503",
"e  c #1B2B01",
"r  c #0D221D",
"t  c #20240E",
"y  c #222A0C",
"u  c #2D2A08",
"i  c #202D16",
"p  c #26331B",
"a  c #283819",
"s  c #392E0C",
"d  c #1C1928",
"f  c #1C1C33",
"g  c #2E1B24",
"h  c #341E2D",
"j  c #371E26",
"k  c #1A2529",
"l  c #2E2123",
"z  c #3F2121",
"x  c #3B202A",
"c  c #3C2230",
"v  c #37253C",
"b  c #352538",
"n  c #33353A",
"m  c #283037",
"M  c #451E13",
"N  c #422218",
"B  c #492419",
"V  c #512218",
"C  c #5E281A",
"Z  c #522913",
"A  c #64291B",
"S  c #6D2D1D",
"D  c #702E1E",
"F  c #76341B",
"G  c #47242C",
"H  c #572925",
"J  c #5D322E",
"K  c #452839",
"L  c #572D34",
"P  c #50323B",
"I  c #662D28",
"U  c #743121",
"Y  c #7A3528",
"T  c #6B3A36",
"R  c #753B32",
"E  c #622F31",
"W  c #2D4405",
"Q  c #2F4A01",
"!  c #2C4109",
"~  c #304E02",
"^  c #315000",
"/  c #3D5D02",
"(  c #3C560C",
")  c #3D590C",
"_  c #3E5A13",
"`  c #3F6301",
"'  c #426602",
"]  c #446907",
"[  c #4D7402",
"{  c #4F7A01",
"}  c #4C730C",
"|  c #527E02",
" . c #527B0E",
".. c #517810",
"X. c #53403F",
"o. c #7F4334",
"O. c #734C35",
"+. c #67473A",
"@. c #2A2E41",
"#. c #342C4B",
"$. c #313C47",
"%. c #3D3045",
"&. c #2F2F57",
"*. c #33335D",
"=. c #3B3258",
"-. c #23394B",
";. c #3C3B69",
":. c #3F3E70",
">. c #442B44",
",. c #432E4A",
"<. c #433949",
"1. c #423253",
"2. c #43375C",
"3. c #403966",
"4. c #403B69",
"5. c #38434F",
"6. c #25525E",
"7. c #3F5652",
"8. c #2C4E51",
"9. c #2A6456",
"0. c #3C695A",
"q. c #3B4B6A",
"w. c #385C6C",
"e. c #3B4972",
"r. c #2A5461",
"t. c #396D64",
"y. c #397865",
"u. c #337379",
"i. c #414249",
"p. c #404D4D",
"a. c #5F4A41",
"s. c #40504F",
"d. c #46525E",
"f. c #414253",
"g. c #634B40",
"h. c #496955",
"j. c #4E7758",
"k. c #495767",
"l. c #4D5967",
"z. c #485665",
"x. c #505F6E",
"c. c #404069",
"v. c #566975",
"b. c #843B1E",
"n. c #863724",
"m. c #863A27",
"M. c #904A1A",
"N. c #A7551C",
"B. c #B0581F",
"V. c #8A4721",
"C. c #9D4524",
"Z. c #954226",
"A. c #9A502D",
"S. c #935633",
"D. c #A5562E",
"F. c #AB5627",
"G. c #B85F2B",
"H. c #BA5B26",
"J. c #A84D25",
"K. c #BD602A",
"L. c #C15F23",
"P. c #CA6325",
"I. c #C56227",
"U. c #D96D26",
"Y. c #528302",
"T. c #558A01",
"R. c #588D01",
"E. c #56850C",
"W. c #599300",
"Q. c #5C9506",
"!. c #5E8C12",
"~. c #679C03",
"^. c #689F02",
"/. c #65970D",
"(. c #669B0C",
"). c #689F0B",
"_. c #649513",
"`. c #669912",
"'. c #689D12",
"]. c #65A302",
"[. c #69A402",
"{. c #67AA00",
"}. c #6BAB02",
"|. c #69A30A",
" X c #6DAA0A",
".X c #67A00C",
"XX c #70AF0D",
"oX c #6EB301",
"OX c #6FB800",
"+X c #72B404",
"@X c #71BA01",
"#X c #72B40D",
"$X c #76BB0F",
"%X c #78BE0E",
"&X c #6BA412",
"*X c #6EAA11",
"=X c #70AE11",
"-X c #73B410",
";X c #75B810",
":X c #7AC40D",
">X c #7ECA0C",
",X c #79C306",
"<X c #3A8065",
"1X c #388D6B",
"2X c #37936E",
"3X c #348075",
"4X c #368A72",
"5X c #80CF0D",
/* pixels */
"}.}.OX X^.}.}.oXoXoX}.oXoX}.]._.~.^.[./._._.(.OXoX^.~.[.[.[./._._._.`./. XOX|.}.oX.X(.OX X'.'./.|.OX}._._._..XOX|.oXoX].~.[.oXoX",
"}.}.oX(.[.[.oXoXoXoX}.oXoX}.(._.~.~.~./._./.}.oXoX_./.^.[.^._._._..X.X.XoXoX[.}.}.(.oXoX'.`.|.[.oXoX'._./.|.oXoX}.}.oX(.[.oXoX}.",
"}.oX}./.].}.oXoX@X}.[.}.}.[.(././.~.~.]. X[.}.oX|._./.(.~.(._./.oX X_.}.@X|. X}.}.}.OX.X_. X X XOX}._.|. X}.OX[.].}.[.[.oXoX[.[.",
"oXoX|..XoX}.}.OXoX|.}.}.[.~./._._.`.|.oX[.).}.}.~._._._._._..XoX}._..X@XOX].[.}.oXoX}./. XoX].}.oX|.}.oX XoXoX(.[.[.[.}.oX}.[.[.",
"oX}.}.oXoX~.}.OX X^.[.[.~.~./._._. XoX X_.[.}.[./._._._._.(.oXoX/.`.}.OX}.~.[.}.oXoX[. X@X[.}.}.}.oXOX}.oXoX X~.~.[.}.}.}.].~.[.",
"}.}.OXoX(.(.oXoX~.~.[.~.~.(._./.[.oXoX`./.].[.[.`._._._./.}.}.|._./.oXoX X~.[.oXoX}. XoXoX(.[.}.oXoXoXoXoXoX(./.~.^.[.}.}._.(.oX",
"].}.oX[._. XoXoX(.~.~.~././.(.|.@XoX^._./.^.~.]._._._./.[.[.[./.`.[.}.}.(.[.oXoX[.}.oXoX|.~.].}.oXoXOX}.}.}./._./.~.[.oX.X_.}.@X",
"[.[.[.(.`.}.oX X/./.~.(._.|.|.oXoX[./._.(.^.~.~._._.(..X~.[.].)..X[.[.}.[.oXoX}.[.}.oXoX(.~.}.oX}.OXoX[.}.[.`._._./.oXoX_..XOXOX",
"~.~.[._.(.oXoX|._._._./. X}.|.OX}.~./..X~.(.(./._. X|._.(.~.]. X`.[.[.[.}.oX}.~.Y.R.{.[.(.oXoX[.oX@X[.[.[.|._._._.|.OX.X_.}.OX}.",
"/./.~._.[.@X}./._._.'.oXoX|.oXoX.X/. X X_._././.}.}.`._._.(.oX(./.~.[.[.[.oX[.| Q ~ R.}.oXOX(.}.@X}.~.^.[.(._._.(.@XoX`.(.oXoX.X",
"_._._.`.oXoX[./._. XoXOX}.|.oX}./.}.oX`._./..X}.OX(._._./.oX X_././.~.[.[.[. .( w w / W.{.|./.oXoX X~.~.[.~._._. XoX X_.[.}.}./.",
"_._._.oXOX[.[./. XoXOX@X[.{.oX|. XOX.X_.(. X XOX}._.`..X}.OX(._._._.~.~.@XT.a w > # w Q T.`.(.oXoX(.~.~.~./._.(.oXoX(./.}.}.}._.",
"_._.|.@X}.~.~.[.oXOX@XOX.X}.}.}.oX}.`..XoX|.oXoX.X.XoX XOXoX_._._._.'.|.W.( w @ > > @ w / ..~.oXoX_./.(.(./._.[.oX}./.(.[.[.]._.",
"_._.oXOX[.~.[.}.}.oXOX}.|.[.}.oXoX|..X@X|.{.}.}. XOX XoXOX|._._.'.*XoXQ.Q w # > 6 < > # $ W R.oX}._._._././.(.}.}.[._.~.[.[.(._.",
"/. XoXoX(.~.[.[.}.oXoX[.].}.oXoX}.[.oXoX.X}.}.oXOXOXoXoXoX(.`.=X;X(.W.' $ @ > 6 8 8 , # . w T.oX]._._./. X|.(.[.[.|._.~.^.^./._.",
"[.}.}. X_./.~.~.+XoX}. XoXoXoX}.}.oXoX|.^.[.}.oXOXOX}.{. X'.;X:X&XY.^ w > > 6 8 8 8 5 > . e Y.[.(._..XoX|._.^.[.[.^._./.~.~././.",
".X}.}.]._._._.XX@X}.oXOXOXOX}.}.}.oXoX/.[.}.oX}.OXoX}.].R.E.!.E.} ` e @ > , 8 0 8 8 , + X e { [.(.|.oX}._._.~.].[./._._._./. XoX",
"[.}.}./._._.*X$X}.oXOXoXoX}.[.].}.oX].(.[.oX}.oXOX].].T.~ e e w w w < , , , , 5 8 8 5 > . e { ~.[.oX}.'._._.~.~.^./._._./.oXoX(.",
"[.[.[./._..X:X+X}.oXoX}.oX[.~.}.oX}.|.|.W.{ Y.T.Y.[ { / $   . . . + , 8 , , , 4 , > : > e ~ | ^.}.}.[._._._.(.~.~./._./.}.oX|._.",
"~.[.[./.`.%X%X|.}.}.[.}.}.(.~.oXoX}.oXW.Q e e e e w e $ X . # 4 4 4 6 , , , , : O X . w ' Y.!.].[.[./._._./..X/././._.~.}.}._._.",
"~.~.~.`.=X>XXX^.[.[.[.oX.X_.[.@X}.~.W.] p ; - - - %     X O 4 8 8 0 6 5 0 0 0 4 . X q ~ R./._.~.~.~._._..X}.'._._._.(.~.[.~._._.",
"~.~.~.'.%X%X(./.~.].oXoX`.`.OXoX[.R.~ p 7.d.5.$.$.m % . # 6 8 8 8 u 5 0 j c c h O $ / R.~._._._./././. X@X.X_._._._./.~.~.(._._.",
"_././.=X%X-X`._./. XOX|._. X@X].Y.' p m x.v.x.k.z.$.- . 4 8 N N 9 0 0 j G L L x O w { }.|._._._._./.[.oX[._._._._._._./.~._._._.",
"_._.`.-X;X*X_._.(.OXoX`.(.oXoXY.! p p.l.l.x.v.v.k.$.- . > 9 A A 9 0 x G E Y Y C + e { [.(._._._._.|.}.}.`._._._._._._._._.'.`._.",
"_._.'.-X#X'._._. XoX X_.|.oX}. .a p p.l.l.x.v.v.l.$.- . # M S D N 8 G E Y n.n.A : w { ].(._._._.~.[.{.~._._._._._.(._._.*X&X_._.",
"_._.*X=X=X_._.`.oXoX|./.}.}.[.!.| _ p m l.v.x.l.z.$.- . + M S D M 9 I Y n.n.n.A : e { ~./._./..X^.].[.(._._._.`.|._._.-X-X_._._.",
"_._.*X*X*X_._.|.oX}./.(.}.}.~._._...! a p.d.5.$.$.m %   : 9 C C 9 9 C U n.n.n.S < w ) Y.!._.|.(./.~.~./._._.`. X(._.#X:X'._._._.",
"_.`.&X&X&X_./.}.}. X_.~.[.[.(._._.!.W.] a ; - - - %   . > , 9 9 , 1 9 V D n.n.D 9 4 w !  .|. X_._./.(._._._.}. X_.#X>X*X_._._._.",
"_.'.'.&X'._.|.[.}.[._.~.~.[.(._._./.W.[ s 2 2 3 : o   . 4 0 5 , , , 5 N A U D A B 4 . w { oX_._._._._._.|.|.@X(.&X:X%X`._._._._.",
"|.`.`.`.`..X[.[.}.(./.~.~.~./._.(.R.^ s M.N.B.M.F V o @ g x 6 5 8 8 0 8 N B B N 8 4 @ e T. X_._._._._. X|.oXoX`.-X:XXX_._._._._.",
"`._._.`.|.|.^.^.[.(._./.~.(.(. X|.Y.e 2 N.U.P.H.J.b.Z M J J z 6 8 8 0 8 8 8 8 8 8 6 X e T.'._._._./.}. X XoX|.&X$X@X&X_._._._. X",
"`._._.|.+X/.^.^.~./._._.`.[.oX|..XY.e 2 N.P.F.J.H.L.B.B.H.A.J x 0 , u z 8 8 8 8 8 4 X e Y._._._._. XoX|.oXoX'.#X@X#X_._._.'.OX X",
"_._.|.oX)._.~.~.~./.`.XX XoX X_.}.Y.e 2 B.P.C.m.F.G.G.G.G.D.V.J G 6 8 8 8 8 8 6 0 , . e { _._._..XOX X].oX}..X@X$X&X_.(.|.oXoX`.",
"|.[.@X+X`._._./.(.&X#X X}.}./.'.+X{ w 2 N.P.C.m.T T T T T o.D.A.J x 0 5 , 5 5 , 5 # . e } _._._.OXOX].}.}.[.@X@XXX|. X X}.oX|._.",
" X}.@X|._._._._.|.:X X[.}.].`.$X}.{ e 2 N.P.C.U G c $.<.=.a.S.D.o.J z 0 0 0 0 6 : > w Q .._._. XOXoX.X}.}.}.@X}.&X}.}.|.oXoX(. X",
"}.oX+X`._._._.&X>X$X^.^.]./.-X%X~.[ w 2 N.P.C.I 6 d *.w.y.h.a.o.D.A.J x c c G g + w / T.!._.'.OXOX X~.[.}.oXoX|.+X+X.X}.}.}.oXOX",
"oXoX}.`._._.'.%X:X&X`.^.(. X>X*X/.[ w 2 N.P.C.A : = 6.u.3Xy.7.a.S.D.o.T T T T L + e | ~._._.[.oXoX~.].[.oXoX}. X@X}.|.[.}.oXoXoX",
"}.}.[._._._.=X%X-X_.*X`.&X>X:X'._.} e 2 N.P.C.A : r 9.u.u.u.y.h.+.o.D.G.G.G.G.V., e { (._._. X}.}.(.[.oXoX}.}.oXoX(.[.}.oXoXoXOX",
"}.}.(._._.'.;X;X*X*X=X_.;X>X-X_._.E.e 2 N.P.C.A + r 9.4Xu.u.2X<X7.g.A.K.K.G.G.V., e [ /._./.}.}. X].oXoX[.[.}.oX}./.[.}.oXoXOX}.",
"[.}.`._._.*X-X-X=X%X_.'.:X>X&X_.`.E.y 2 N.P.C.A : = 6.u.3X4X2X1X<Xj.S.Z.o.T T G + e [ /._.(.[.[.}.}.oX}.[.[.oXoX^.(.}.}.}.OXoX[.",
"[.[._._._.*X=X-X:X*X_.-X:X:X'._.&XE.e 2 F.I.C.S 9 7 -.r.t.y.1X2X2Xj.O.O.<.<.P h O q } _._.~.^.[.}.}.}.[.~.}.@X}.|.oXoX].oX@X X].",
"[.~._._.`.*X=X:X:X`._.;X;X-X_._.&X .e 2 N.I.C.Y D Z 7 k n s.<X2X2Xj.O.O.h.t.<.j O w } .X/.~.~.[.[.}.}./.~.@X}.}.oXOX(.~.oXoX^.^.",
"~.~._._.`.&X-X>X-X_.&X-X;X&X_.&X*X..w 2 N.P.C.b.n.A : O n p.0.y.j.h.+.+.j.t.i.h O e { (._._./.[.}.oX/._.}.OX[.}.oX X_. X@X}.(.~.",
"~.~._._._.&X:X:X&X_.&X-X=X*X;X*X_.} e 2 N.P.C.n.n.A : = 9.0.s.i.5.<.P <.w.w.<.h % e  ._._._._.(.oX}._..X@XoX[.}.}.(./.}.oX|./.~.",
"/./.`._._.=X:X;X`.`.*X*X-X:X-X_._.[ y 3 M.H.m.n.S V : d 9.t.<.>.>.<.,.2.e.q.,.h ; t ( ..!._._.}.@X/.`.oXoX[.^.[.]._.(.oXoX|._./.",
"(.|.'._.`.-X;X=X_.*X=X-X:X%X'._._.Y.w , F C.n.D 9 4 g #.c.c.e.;.3.3.3.4.:.q.,.K x g t ! .._..X@XoX_..XoXoX(.(.~.~._.}.oX}./._._.",
"oX(._._.&X-X-X&X*X-X&X-X%X&X_._.}.Q.W u Z A S V 4 7 v 2.4.c.;.;.*.&.&.*.;.=.1.>.>.h O w } /.oXoX|._.}.}.}._._._._./.oXoX[._._.(.",
".X_._._.&X-X-X=X:X*X*X-X=X`._.|.OX~.R.' u : : , g v =.4.c.4.1.%.d & - d b 1.3.2.>.h * w } |.oXoX/.(.}.}.|._._._._.oXOX[.[.`.|.@X",
"_._._._.*X*X=X:X:X'.&X*X&X_._.OXoX|.}.R.Q q X % b =.3.;.*.#.b l y e e t g b =.2.>.h ; y ) T.]. X`.(.}.}.(._._._.|.@X}.~.~. XoXoX",
"_._._._.*X*X%X>X*X_.'.'.'.&XXXOXoX^.[.~.W.` $ % #.;.:.*.f - % w ] T.Y.( t 7 v >.>.K c g t Q R.[._.^.[.[./._._.`.oX@X[.~.[.}.}.(.",
"_._._.&X&X*X:X:X'._._.&X-X XOXoX[.[.].].W.` i f *.;.;.m i e e Q W.OX|...~ y l h h c L j O e Y.~._.^.~.[./._._.[.oXoX(.~.[.[.[./.",
"_.(. X.X.X$X:X-X_._.*X:X*X.XoXOX|.~.[.W.Q i @.;.;.*.f i ] T.T.W.{.oX(._.(.} t O * 5 H C + e { /./.~.}.[._.'.|.}.oX X/./.~.[.(._.",
" XoX(.(.&X%X:X&X_.*X>X#X`.[.}.}.~.].OXT.e ; ,.2.*.@.i ^ W.OXoX}.OX}./.-X:X/.W w w u Z M o e | /._.XXXX(.|. X[.}.}.|._.'.|.~./._.",
"OX.X.X'.*X;X-X'.&X;X;X`./.}.}.}.|.oXoX{ w + H J g i ] W.{.OX}.}.}.{.(.-X$X|.| { [ ] s o   w [ /.=X$X(.}.@X(.|.}.}.'.*X=X`._.`.[.",
"|.|..X_.*X;X=X&X=X-X*X_.~.[.].}.}.oX}.{ e : A A + e Y.}.OXOX].}.}.|.&X-X;X&X`.^.@XQ.e     w [ &X:XXX}.@X)._.[.[.oX%X-X_._._.[.oX",
"}.oX`.'.=X=X*X&X&X=X`._.(.~.[.[.}.oX~.~.}.oX[.}.oX X~.oXOX}.~.|.[./.*X-X=X`.`.=X%X-X_._././.(.%X:X}.}.[._./.^.+X>X:X`._._.^.}.}.",
"@X.X_.'.*X*X*X'.&X&X`.`.(.~.~.[.}.}._.|.oX}.}.oXOX(.(.OXoX~.~.~.^./.&X=X*X`.&X-X#X&X_._._._.XX5X+X[.[./._.(.}.,X,X&X_._._.^.}.}.",
"oX`._.'.|.*X'._.`.`..X'._./.~.[.oX(.`.}.OX}.}.oX|._. XoXoX(.~.~.~.`.&X&X&X_.&X*X*X_._._.`..X:X>X}.^.[.`._.).#X@X#X_._._./.}.}.}.",
"|._._. X|.&X`._.`.}.|._._._.(.OX}._.|.@XoX[.[.[.(./.}.oX X/.(.~.~.`.'.&X&X_.'.&X&X_._.|.(.=X>X;X`.~.~._._.).#X#X|._._._.[.}.[.@X",
"`.`. X X`.`.`.(.}. X_._._.(.oXOX(._.oXoX[.~.[.^./..XoXoX(._._._./.(.(.`._._._._._._..X X'.;X$X=X_._._._._.'.&X&X`._._.'.@X|.}.@X",
"`.}.oX_._.(.].}.oX'._._.'.oXOXoX_..XoXoX/././.(._. XOX{.(._._.'. X`._._._._._._./..X@X/.&X;X;X&X_._._._._._.`.`._._.`.oX}.|.oXoX",
"}.OX.X_..X X XOX X_.'..XoXOXOX.X_.}.}.}._._._._.(.OXoX].`._.|.oX(._._._._._._.&X).oX X_.*X=X-X`._._._._.`.`._._._.`. XOX X[.}.}.",
"OX}._.|.oX|.oXoX(.|.}.}.oXOXoX`./.}.}.[._._._._.oXOX[.^./.}.OX.X_._._._._._..X|. XoX/._.*XXXXX`._._._.`..X_._._.`.}.@XOX^.}.}.}.",
"oX|.|.@X|.[.}.{.oXOX}.oXOXoX}.`.~.[.}.(._._._.|.OX}.[.~. XoX}._._._._._._.'.oX|.oX+X`.`.XX#X&X_._._.|. X_._._.`.}.oXOXoX^.[.}.}."
};
