/* XPM */
static char *theoRR41704828127[] = {
/* columns rows colors chars-per-pixel */
"64 64 213 2 ",
"   c #0B0604",
".  c #080606",
"X  c #130907",
"o  c #190A07",
"O  c #120A0E",
"+  c #1C0D0B",
"@  c #1E1509",
"#  c #131D03",
"$  c #0C0F12",
"%  c #170E15",
"&  c #0C191B",
"*  c #111419",
"=  c #1E121B",
"-  c #17191A",
";  c #210E09",
":  c #24120D",
">  c #2B150E",
",  c #28180A",
"<  c #30160F",
"1  c #381C09",
"2  c #331A0A",
"3  c #261610",
"4  c #2C1610",
"5  c #2E1912",
"6  c #2C1A1A",
"7  c #321C15",
"8  c #3C1C13",
"9  c #321A18",
"0  c #1B2504",
"q  c #1B2B01",
"w  c #152200",
"e  c #0D211D",
"r  c #1F3203",
"t  c #21250D",
"y  c #22290B",
"u  c #2D280A",
"i  c #3A3508",
"p  c #222918",
"a  c #27341A",
"s  c #203012",
"d  c #34311C",
"f  c #2C300A",
"g  c #1A1825",
"h  c #1C1C33",
"j  c #2C1C23",
"k  c #281825",
"l  c #341E2D",
"z  c #351D25",
"x  c #183D31",
"c  c #1A2928",
"v  c #2E2022",
"b  c gray15",
"n  c #39202B",
"m  c #392131",
"M  c #37253C",
"N  c #30283A",
"B  c #2B3438",
"V  c #252D35",
"C  c #461E13",
"Z  c #4C2512",
"A  c #422218",
"S  c #492519",
"D  c #562B14",
"F  c #582716",
"G  c #64291B",
"H  c #6C2D1E",
"J  c #702E1E",
"K  c #70381A",
"L  c #75321C",
"P  c #47242C",
"I  c #582924",
"U  c #412538",
"Y  c #45293D",
"T  c #4C2D3E",
"R  c #583230",
"E  c #662D28",
"W  c #743120",
"Q  c #793429",
"!  c #6B3A36",
"~  c #622F31",
"^  c #2D4404",
"/  c #2F4A01",
"(  c #2D4309",
")  c #304E00",
"_  c #315100",
"`  c #3F5C0B",
"'  c #3D5906",
"]  c #3E5B12",
"[  c #3E6301",
"{  c #1F533E",
"}  c #435B0B",
"|  c #7D4015",
" . c #416503",
".. c #426903",
"X. c #456A0B",
"o. c #4C7403",
"O. c #4F7C03",
"+. c #4C720C",
"@. c #517E02",
"#. c #537C0C",
"$. c #517810",
"%. c #594131",
"&. c #7B4431",
"*. c #1F384D",
"=. c #313C47",
"-. c #333241",
";. c #2F2F57",
":. c #2B3E55",
">. c #36335C",
",. c #332E4B",
"<. c #3B3A69",
"1. c #3F3F72",
"2. c #442B43",
"3. c #432E4A",
"4. c #413249",
"5. c #413A49",
"6. c #423458",
"7. c #403B69",
"8. c #403966",
"9. c #38434F",
"0. c #2A5940",
"q. c #3D4A57",
"w. c #27565B",
"e. c #385E45",
"r. c #2B6D5C",
"t. c #286556",
"y. c #3D6558",
"u. c #3B4967",
"i. c #355B6B",
"p. c #3C4A76",
"a. c #3A5673",
"s. c #2E5560",
"d. c #3A6E65",
"f. c #346576",
"g. c #387473",
"h. c #33737A",
"j. c #357A72",
"k. c #397C66",
"l. c #414E4C",
"z. c #41404A",
"x. c #5E4045",
"c. c #5F4A41",
"v. c #46525E",
"b. c #414253",
"n. c #645C46",
"m. c #4B6C56",
"M. c #424864",
"N. c #495767",
"B. c #4D5967",
"V. c #485665",
"C. c #505F6E",
"Z. c #546C73",
"A. c #843B1E",
"S. c #863724",
"D. c #8A3D25",
"F. c #854819",
"G. c #964A1C",
"H. c #A7551C",
"J. c #B0581F",
"K. c #9B4424",
"L. c #9A5634",
"P. c #8A4721",
"I. c #A05226",
"U. c #AC5720",
"Y. c #B25A20",
"T. c #B85F2B",
"R. c #B65A27",
"E. c #C15F23",
"W. c #C96225",
"Q. c #538402",
"!. c #558A00",
"~. c #588C01",
"^. c #55830B",
"/. c #5C8B09",
"(. c #599300",
"). c #5B920A",
"_. c #5E8B12",
"`. c #669C03",
"'. c #689F02",
"]. c #65960D",
"[. c #669B0C",
"{. c #689F0B",
"}. c #619402",
"|. c #649513",
" X c #669912",
".X c #689D12",
"XX c #608F0F",
"oX c #66A402",
"OX c #69A402",
"+X c #67A901",
"@X c #6BAB02",
"#X c #69A30A",
"$X c #6DAA0B",
"%X c #67A00C",
"&X c #70AE0D",
"*X c #6EB301",
"=X c #6FB800",
"-X c #72B404",
";X c #71BA01",
":X c #72B30D",
">X c #76BB0F",
",X c #78BE0E",
"<X c #6BA412",
"1X c #6EAA11",
"2X c #70AE11",
"3X c #73B410",
"4X c #75B810",
"5X c #7AC40D",
"6X c #7ECA0C",
"7X c #79C306",
"8X c #37836F",
"9X c #348075",
"0X c #80CF0D",
/* pixels */
"+X@X-XOX'.+X@X*X*X-X@X*X*X@XOX|.`.'.oX].|.|.{.*X*X'.[.oXOXOX].|.|.|. X].$X=X%X@X*X{.].-X$X<X.X X%X*X@X X|.|.[.*X$X*X*X#X'.OX-X*X",
"@X*X*X%XOXOX*X*X=X*X@X*X*XOX'.|.`.`.`.].|.].@X-X*X].].'.OX'.|.|. X%X%X%X*X*X#X*X@X{.*X*X.X X$X#X*X*X.X|. X%X*X*XOX@X@X'.OX*X*X+X",
"@X*X@X].OX@X*X*X=X+X+X@X+XOX].|.].`.'.%X@XOX@X*X%X|.].`.'.].|.].@X$X|.@X;X@XOX@X@X*X;X%X|.$X@XOX*X@X|.%X@X@X;X#XOX+X+X#X*X*XOXOX",
"*X*X#X%X-X@X+X=X*X#X@X@XOXOX].|.|. X#X=X%X#X@X@X{.|.|.|.|.|.%X*X@X X%X;X-X#XOX+X@X*X@X|.OX*X#X*X*X#X@X*X@X*X*X{.OXOX@X@X*X+XOXOX",
"*X+X+X;X*X`.@X;XOX'.OXOX'.'.].|. X$X*XOX|.OX+XOX].|.|.|.|.[.*X*X[.|.@X=X*X'.OXOX*X*X#X@X;XOXOX@X*X*X;X*X*X*XOX{.'.'.@X+X@XOX`.OX",
"@X@X*X-X[.[.*X*X%X'.'.'.`.].|.].OX*X*X X].OXOXOX].|.|.|.[.+X@X#X|.].*X-XOX`.OX*X*X@X+X-X*X{.@X@X*X*X-X*X@X*X%X].`.OXOX@X@X X[.*X",
"OX@X*XOX|.OX-X*X[.'.'.'.].].{.%X=X*X'.|.].'.oX`.|.|.|.].#XOX@X]. X#X@X@X%X`.(.Q.O.!.+X*X%X'.OX@X*X*X=X+X@X@X].|.|.`.OX*X%X|.@X;X",
"OXOX+X[. X@X*X@X].].`.[.|.#X%X*X-XOX].|.[.'.`.`.|.|.[.%X'.'.'.{.{.OX+X+X+X~.) q q / (.@X X'.@X*X@X=X@X+X+XOX X|.|.].*X*X|.[.=X=X",
"'.'.oX X{.*X-X{.|.|.|.].OX@X$X*X@X'.|.%X%X[.`.].|.$X#X|.].`.oX$X[.'.OX`.~. .0     0 [ !.).*X*X+X*X*XOXOXOX'.|.|.|.@X;X%X|.@X;X@X",
"].].].|.OX;X+X[.|.|..X*X=X#X*X*X%X].@X#X|.|.|. X@X@X X|.|.[.*X.X].`.'.!./ 0 @ ; + , 0 / (.*X'.OX;X*X`.'.OX{.|.|.[.-X*X|.[.*X*X%X",
"|.|.|.[.*X*XOX X|.$X*X=X@XOX*X@X].@X*X X|. X%X*X=X[.|.|.].+X~.+.+.o.o.' q X : 4 < : X 0 [ ^.).@X=XOX`.`.'.[.|.|.@X*XOX|.OX*X@X].",
"|.|.|.@X;XOX'.[.OX-X;X;X#X@X@XOX$X=X%X|.[.OXOX=X$X|. X#X@X(.( 0 0 w 0 0 @ : 5 7 5 3 : , 0 ( ^.*X*X%X`.`.'.].|.{.*X*X%X X+X@XOX|.",
"|.|.%X;X@X'.'.OX*X=X;X*X#X+X+X@X=X@X X%X*XOX*X*X%X#X*X[.(. .0       . + : 4 5 5 7 7 4 +   0 Q.*X*X X|.[.[.].|.OX*X@X].].OXOX#X|.",
"|.|.*X;XOX`.'.+X@X*X;X@X#X+X+X-X*X#X#X=X#X+X@X*X@X=X@X~._ 0 @ ; 3 3 3 4 3 3 < 5 5 7 4 ;   0 Q.*XOX|.|.|.|.[.{.OX@XOX|.`.OXOX`.|.",
" XOX*X*X[.`.oXOX+X-X-XOXOX+X*X-X@X#X*XOX^.O.Q.!.Q.(.+XQ.r o : 4 7 7 7 7 5 > < 5 7 7 3 ;   q Q.@X%X|.|.].@X%X{.OXOX#X|.`.'.'.].|.",
"#X@X*XOX|.].`.'.-X*X@X@X*X*X=X@XOX*X=XQ./ q q q q ) ~.~.f ; , 4 7 7 7 7 7 7 7 5 7 7 < @   q !.+X{.|.#X*X%X|.'.OXOX'.|.].`.'.]. X",
"%X@X@X#X|.|.].&X-X@X*X;X*X=X+X+X@X+X~.} a - * * $ s [  .i 4 4 5 7 7 9 9 9 7 9 9 9 4 : @ 0 _ !.'.[.#X*X@X|.|.`.'.oX].|.|.].[.OX*X",
"OX@X@X].|.|.$X>X@X*X;X*X*X@XOX+X@X(./ a l.V.9.=.=.B s q , 4 5 7 7 7 < 4 > > > 4 > : X 0 ..(.}.'.OX*X*X].|.|.`.`.'.].|.|. X@X*X.X",
"OXOXOX].|.<X5X&X@X*X*X@X*X+X'.`.(.X.a B B.Z.C.N.V.=.*   ; 5 7 7 7 7 < 4 9 9 9 < : @ 0 / (.@X`.'.+X@X%X|.|.|.].`.`.].|.|.+X*X#X|.",
"OX'.OX].|.,X,XOX@X*X+X@X@X[.`.~._ a l.B.C.C.Z.Z.V.=.*   3 9 7 7 7 7 < 9 z l n z % 0 } (.+X%X].OXOXOX].|.|.].#X{.].].|.'.@XOX X|.",
"`.'.'.|.2X5X&X'.OXOXOX*X#X|.OX(.) a l.N.B.C.Z.Z.V.=.*   3 7 A A 7 7 9 9 P R T n O 0 Q.@X@X X|.`.'.'.|.|.%X@X.X|.|.|.`.'.OX'.|.|.",
"`.`.`..X,X5X[.`.'.oX@X*X X.X;X+XQ. .a B B.Z.C.B.V.=.* . : C F G A 9 n P E Q Q E ; 0 Q.@XOX|.|.|.].]. XOX*X$X|.|.|.|.].`.OX].|.|.",
"XX|.|.2X,X3X X|.].+X=X#X|.OX;X@X'.Q./ a q.v.6.,.=.V $   + C J J C 9 R ~ Q S.S.G ; q O.+X{.|.|.|.|.|.$X*X#X|.|.|.|.|.|.].[.|.|.|.",
"|.|..X3X4X1X|.|. X=X=X X[.*X-X%X[.}.Q.` a g g * * $ . . + C J J C 8 E Q S.S.S.G ; 0 @.OX[.|.|.|.|.'.@X@X X|.|.|.|.|.|.|.|..X X|.",
"|.|.<X3X3X.X|.|.$X=XOX X#X*X@X].|._.$.} Z 1 , ; ; o     + 8 F G 2 8 F W S.S.S.H 4 0 } Q./.|.|.|.`.OX+XOX|.|.|.|.|.].|.|.<X<X|.|.",
"|.|.<X2X2X X|. X@X-X%X X@X@XOX|.|.$.^ Z F.G.K G G Z o   ; < 8 8 < < 8 F W S.S.W 8 t q / #.|. X%X'.oXoX].|.|.|. X#X|.|.3X3X X|.|.",
"|. X<X2X<X.X|.OX*X@X X{.+X@X%X|.|.+.q 1 H.E.K.D.D.A.Z 1 > : > > 4 > > 8 E W W F A 3   0 +.|.%X[.].`.`.].|.|. X$X[.|.3X5X.X|.|.|.",
"|..X<X<X.X|. X@X@XOX|.'.OXOX{.|.|.+.q 1 J.E.K.K.E.E.J.F.Z 4 > 4 4 9 9 8 8 S S A 7 3 X 0 +.$XOX|.|.].].|.|. X@X$X X3X6X1X|.|.|.|.",
"|..X.X.X.X|.'.OX@X#X|.`.'.'.].|.|.+.q 1 H.W.K.P.K.J.T.I.K Z 1 5 u 7 7 7 7 7 7 7 9 3   0 O.*X X|.|.|.|.|.%X$X=X[.<X5X>X X|.|.|.|.",
"#X X.X X X%XOXOXOX'.].`.'.`. X|.%XQ.q 1 H.W.K.W Z Z E &.I.F.Z < 5 5 7 7 7 7 8 v 9 3   q !.$X|.|.|.|.|.$X%X=X@X.X3X5X:X|.|.|.|.|.",
" X|.|. X$X%X'.OXOX[.|.].}.[.{.@XOXQ.q 2 H.E.A.D p c M x.L.I.K D F Z 8 7 7 7 7 7 7 ,   q !..X|.|.|. X@XOXOX=X%X1X4X>X.X|.|.|.|.$X",
"|.|.|.#X@X[.'.'.'.].|.|..XOX*X%X%XQ.q 2 H.J.Z p 0.t.i.M.x.&.I.J.Y.P.Z < 3 < 3 5 4 @ . q Q.|.|.|.|.$X*X#X*X*X[.$X7X-X.X|.|.%X*X$X",
"|.|.%X;X{.|.`.`.'.|..X$X@X*XOX|.OX!.q , K F.p { r.9Xh.i.b.5.L.T.T.I.K D D D D Z > o   q O.|.|.|.%X=X$X@X*XOX%X7X;X1X|.[.#X*X*X X",
"#X+X-X-X X|.|.|.].<X4X@X@X@X X.X-X@.w . 2 d 0.r.h.h.9Xj.C.v.x.! ! P.I.R.R.Y.Y.F.2 . . 0 +.|.|. X*X=X#X+X@XOX-X;X$X.X$XOX*X*X%X|.",
"@X@X-XOX|.|.|.|.#X5X$XOX+X%X X>X&Xo.q . & x r.9Xh.f.r.r.i.u.4.Y =.c.L.W.T.T.T.P.4 . O t ` $._.$X=X*XoX+X@X*X-X&X1X:XOXOX*X*X.X$X",
"*X*X-X].|.|.|.<X5X>X`.'.OX{.4X>X'.o.q # { r.h.h.9Xr.x c -.-.Y 5.V.m.c.%.! ! ! P + . k j t f ^.*X;X#X'.+X@X*X*X#X@X;X%X@X@X@X*X=X",
"@X*X@X|.|.|. X,X5X<X].{.{.$X6X1X].o.q - e.k.g.h.9Xt.e O l 2.4.q.k.8Xq.>.z.z.5.N $ O l m = t ` (.OX%X'.OX*X*X+X@X-X@X#X+X@X*X*X*X",
"@X*XOX|.|. X2X,X4X X<X[.<X6X5X.X|.+.q @ R n.m.9Xh.w.& O l 4.u.f.8X8Xf.i.d.d.i.9.& O l U m j y ) !.{.+X*X*X+XOX*X*X{.OXOX*X*X=X*X",
"@X@X[.|.|..X4X>X<X1X2X|.4X6X2X|.|.^.r ; G &.m.d.s.*.g - m 5.i.h.8Xj.h.h.9X9Xh.w.& O k l U l O q O.OX*X*X+XOX*X*X@X[.'.@X*X*X=X@X",
"OX+X X|.|.2X3X3X2X4X X<X5X6X<X|..X^.q ; E P.P.%.b g k m U z.d.j.h.g.9X9Xh.h.9Xt.& .   = m l O 0 O.@X*X@XOXOX*X-X'.[.*X@X+X=X*XOX",
"OXOX|.|.|.2X2X3X5X1X.X2X5X>X.X|..X^.r ; G S.S.G ; O l 2.2.6.d.g.f.f.g.g.a.f.h.w.e . # t j v t ) !.@X@XoX'.@X-X@X#X*X*XOX@X;X@X#X",
"'.OX|.|..X<X2X5X5X X.X3X>X3X|.|.<X$.0 ; G S.S.G ; O l 2.6.u.a.p.p.p.a.p.p.p.a.:.- # ' ` t t ' Q.`.*XOX].'.-X*XOX*X=X%X%X*X*X'.'.",
"'.`.|.|..X.X3X6X3X|.<X3X4X1X|.<X1X^.( u F H G C o O m 2.6.8.7.<.>.>.<.8.1.1.1.<.h p [ [ r ( #.'.OX*X.X|.@X=XOX*X*XOX XOX*X@X[.`.",
"`.`.|.|.|.<X5X5X<X|.<X3X2X1X3X2X.X_._.` u ; ; +   O l Y 3.6.7.<.h g M 6.<.1.1.<.;.-.p a ` #._.{.*X@X|.%X=X*XOX+X@X[. X@X*X#X].`.",
"].]. X|.|.2X,X>X X|.2X1X3X5X3X|.|. XOXQ.) q 0 w   O l Y Y 2.6.,.g % j M >.8.<.8.p.;.* 0 X.|.|.$X=X[. X*X*XOXOXOXOX|.{.*X*X%X|.].",
"[.#X.X|..X3X>X2X|.1X1X3X5X>X.X|. X*X$X#X(.O.O.[ # O l Y Y 2.3.-.m k % = M 3.3.6.<.;.= # +.|.%X=X*X|.%X*X*X{.].`.`.|.+X*X@X[.|.|.",
"*X.X|.|.<X3X4X<X1X4X<X>X>X1X|.|.OX*X%X*X*X).!...t % m U m l l l m v y y v l l M >.,.j u } $.OX*X#X|.OX*X@X|.|.|.|.].*X*XOX X|.%X",
"[.|.|.|.<X3X2X1X5X<X1X2X2X X|.$X=X$XOX*XOX^._ y z m U m = O O $ O t X.} t O O 3 M T E Z u ( (.*X[.[.+X@X%X|.|.|. X@X=XOXOX].#X;X",
"|.|.|.|.1X1X3X6X>X.X<X1X<X|. X*X*X%X@X@X+XQ.q O j m n v y q q q q _ (.$.f q r t j P F C o q !.+X X{.OX+X{.|.|.|.%X;X@X'.'.OX-X*X",
"|.|.|. X<X1X>X6X1X X X<X.X.X:X=X*X'.OX@X*X!.q . 6 6 % y ..Q.!.!.!.(.oX_.^.).).} t % ; O   q @.#X|.'.OXOX].|.|. X*X;XOX`.OX+X@X{.",
"|.|.|.%X<X1X5X5X.X|.|.<X3X$X*X=XOXoXOX@X*X!.0   @ , y ) (.=X*X*X=X=X$X|.3X0X2X#./ q 0 0 0 / !.{.|.'.OXOX].|.|.OX*X*X{.`.OXOXOX|.",
"|.[.$X<X<X4X5X3X|.|.1X5X2X%X*X*X#X'.OX*X@XQ.q . . 0  .(.@X=X-X*X*X*X[..X5X6X#X`.!.@.+.+.@.!.`.].|.'.@XOX|..X#X@X*XOX|.[.'.'.'.|.",
"$X*X[.[.<X>X>X1X|.2X5X4X XOX*X@X{.OX;X*X+X!.) q 0 / ~.=X*X;X*X*X*X+X].3X,X>X{.OX@X'..X3X@X'.OX].|.&X&X[.OX@XOX@X*X%X|. X%X`.].|.",
"*X%X%X X1X>X4X.X<X4X>X X].+X+XOXOX*X*XOXOXoX(.@.+.Q.+X*X*X=XOX@X*X+X X4X>X&X'.'.OX&X,X$X`.`.'.].1X>X#X@X-X X#X@X@X[.2X2X X|. XOX",
"@X$X#X X1X3X3X<X2X3X1X|.[.OXOX+X@X*X+XOXOX-X*X#X{.*X@X@X=X*XOX+X+X'.<X4X4X<X[.`.-X5X2X|.`.`.`.<X5X&X@X-X%X|.OXOX*X,X:X X|.|.OX*X",
"@X$X X X2X2X1X%X<X2X X|.`.'.OX@X@X@X#X`.@X*XOX@X*X*XOX@X;X@X'.OXOX[.1X2X2X.X|.&X5X4X X|.].].{.5X5X@X@XOX|.].OX-X6X,X|.|.|.#X@X@X",
";X%X|..X1X1X1X.X.X<X X X[.`.'.OX*X$X|.%X;X@X+X-X=X[.{.=X*X'.`.'.'.[.1X1X1X X.X3X3X<X|.|.|.|.3X6X-XOXOX[.|.[.@X7X5X#X|.|.|.OX@X@X",
"-X|.|..X$X1X.X|..X X%X[.|.|.`.OX*X[.|.@X;XOX@X*X#X|.OX*X*X].`.`.'. X<X1X.X X<X2X1X|.|.|. X<X5X5XOX'.OX|.|.{.-X,X:X X|.|.].OXOX*X",
"#X|.|.$X%X.X.X|.|.$X#X|.|.|.%X;X@X|.%X=X*XOXOX+X[. X@X*XOX|.].`.]. X.X.X.X X.X<X<X|.|.%X[.2X5X>X[.[.`.|.|.%X&X:X#X|.|.|.$X@XOX;X",
"]. X@X$X X.X X].@X@X|.|.|.[.*X=X[.].*X-XOX'.'.'. X%X*X*X%X|.|.|.].[.[. X|.|.|. X X|.%XOX.X4X>X2X|. X|.|.|..X<X<X X|.|..X-XOX@X-X",
" X*X@X X|. X%X@X=X[.|.|. X*X=X@X|.%X-X*X].].].[.|.OX=X@X[.|.|..X#X.X|.|.|.|.|.|.].%X-X.X<X3X4X<X|.|.|.|.|. X X X|.|.].*X*X#X*X*X",
"@X=X.X|.$XOX+X;X$X|. X#X*X;X*X$X|.OX*X+X|.|.|.|.[.*X*X+X]. X$X*X[.|.|.|.|.|.|..X%X*X@X X<X3X3X X|.|.|.|. X].|.|.|. X*X;XOXOX@X+X",
"=X@X|.#X*X#X*X*X[.#X*X$X=X=X*X X X@X+X#X|.|.|. X@X=XOXOX X$X*X$X|.|.|.|.|.|.$X%XOX;X%X|.2X2X&X|.|.|.|.[.[.|.|.|. X@X;X=X#XOX@X@X",
"*X#X#X=X#X+X@X@X@X=XOX*X=X*X+X X'.OX+X{.|.|.|.#X;X@X'.'.OX*X@X|.|.|.|.|.|.[.*X%X*X-X|.|.&X:X1X|.|.|.%X$X|.|.|. X$X*X-X*X'.OX@X*X"
};
