/* XPM */
static char *theoRR21704828126[] = {
/* columns rows colors chars-per-pixel */
"64 64 217 2 ",
"   c #040304",
".  c #0A0504",
"X  c #070A00",
"o  c #190A07",
"O  c #130B0E",
"+  c #1C0D0B",
"@  c #130907",
"#  c #1F1509",
"$  c #141F00",
"%  c #0C0F12",
"&  c #110C12",
"*  c #110E19",
"=  c #1A0F16",
"-  c #0C191E",
";  c #111419",
":  c #1E131C",
">  c #171B1F",
",  c #210F0A",
"<  c #24120D",
"1  c #2B150E",
"2  c #271A0C",
"3  c #30160F",
"4  c #381C09",
"5  c #33190A",
"6  c #261610",
"7  c #2C1611",
"8  c #2D1812",
"9  c #321C15",
"0  c #3C1C13",
"q  c #321A18",
"w  c #152201",
"e  c #1B2503",
"r  c #1B2B01",
"t  c #1D2208",
"y  c #0D221D",
"u  c #20230E",
"i  c #222A0C",
"p  c #2E2B08",
"a  c #3E3508",
"s  c #26331B",
"d  c #283819",
"f  c #382017",
"g  c #1B1625",
"h  c #1C1C33",
"j  c #2B1926",
"k  c #341E2D",
"l  c #371D25",
"z  c #2E2122",
"x  c #3B212C",
"c  c #252D35",
"v  c #342337",
"b  c #3A2131",
"n  c #37263D",
"m  c #332A3D",
"M  c #2B3239",
"N  c #411D13",
"B  c #4C1F14",
"V  c #4D2613",
"C  c #422218",
"Z  c #482419",
"A  c #562B14",
"S  c #5E281A",
"D  c #522514",
"F  c #40200C",
"G  c #64291B",
"H  c #6B2D1E",
"J  c #702E1E",
"K  c #70381A",
"L  c #76341B",
"P  c #402128",
"I  c #4B262D",
"U  c #592620",
"Y  c #572B27",
"T  c #45293D",
"R  c #482838",
"E  c #552C36",
"W  c #50323B",
"Q  c #662D28",
"!  c #733122",
"~  c #76332A",
"^  c #7B3428",
"/  c #6B3A36",
"(  c #66363A",
")  c #743936",
"_  c #622F31",
"`  c #2D4504",
"'  c #2F4A02",
"]  c #2C4209",
"[  c #304D02",
"{  c #325202",
"}  c #3D5D01",
"|  c #3D590C",
" . c #3E5A13",
".. c #3F6800",
"X. c #426502",
"o. c #4B6F0F",
"O. c #446807",
"+. c #4D7403",
"@. c #4F7B02",
"#. c #4C730C",
"$. c #517E01",
"%. c #527C0C",
"&. c #517810",
"*. c #517710",
"=. c #794534",
"-. c #674739",
";. c #332C4B",
":. c #313C47",
">. c #3D3045",
",. c #2F2F57",
"<. c #35325C",
"1. c #28324D",
"2. c #3D3A67",
"3. c #3F3E70",
"4. c #432E4A",
"5. c #40394C",
"6. c #443D45",
"7. c #503145",
"8. c #413556",
"9. c #423965",
"0. c #473C65",
"q. c #513D60",
"w. c #38434F",
"e. c #25525E",
"r. c #3F5653",
"t. c #344259",
"y. c #2F6557",
"u. c #375C6D",
"i. c #3B4972",
"p. c #355F71",
"a. c #354560",
"s. c #396F65",
"d. c #3C7961",
"f. c #387668",
"g. c #33747A",
"h. c #357574",
"j. c #414149",
"k. c #404D4D",
"l. c #4E4644",
"z. c #5F4A41",
"x. c #46525E",
"c. c #65414A",
"v. c #49785E",
"b. c #4C6954",
"n. c #495767",
"m. c #4D5967",
"M. c #475567",
"N. c #505F6E",
"B. c #47436C",
"V. c #596879",
"C. c #576676",
"Z. c #476067",
"A. c #843B1E",
"S. c #863724",
"D. c #853B27",
"F. c #93491C",
"G. c #864718",
"H. c #A7551C",
"J. c #AD571E",
"K. c #B0581F",
"L. c #9D4524",
"P. c #964225",
"I. c #9B5632",
"U. c #8A4721",
"Y. c #A05226",
"T. c #AD5328",
"R. c #B25A20",
"E. c #B85F2B",
"W. c #BC5A25",
"Q. c #A84D25",
"!. c #C15F23",
"~. c #CA6325",
"^. c #D96D26",
"/. c #528302",
"(. c #558A00",
"). c #588B03",
"_. c #54830C",
"`. c #5C8C0D",
"'. c #599400",
"]. c #5B910A",
"[. c #5E8C12",
"{. c #679C03",
"}. c #689F02",
"|. c #65960D",
" X c #669B0C",
".X c #689F0B",
"XX c #619507",
"oX c #649513",
"OX c #669912",
"+X c #689D12",
"@X c #64A102",
"#X c #69A402",
"$X c #6BAB02",
"%X c #69A30A",
"&X c #6DAA0B",
"*X c #67A604",
"=X c #70AF0D",
"-X c #6EB301",
";X c #6FB800",
":X c #71B304",
">X c #71BA01",
",X c #72B40D",
"<X c #76BB0F",
"1X c #78BE0E",
"2X c #6BA412",
"3X c #6EAA11",
"4X c #70AE11",
"5X c #73B410",
"6X c #75B810",
"7X c #7AC40D",
"8X c #7ECA0C",
"9X c #79C306",
"0X c #398467",
"qX c #37916F",
"wX c #348075",
"eX c #368A72",
"rX c #80CF0D",
/* pixels */
"$X$X;X*X{.$X$X-X-X-X$X-X-X$X#XoX}.}.}.|.oXoX X-X-X#X|.#X#X$X|.oXoXoXoX|.&X;X%X$X-X%X|.:X&X2X+XOX.X-X$XoXoXoX.X;X%X-X:X#X{.#X-X-X",
"$X$X-X.X#X#X-X-X-X-X$X-X-X#X{.oX{.{.}.|.oX X$X>X$X|.XX#X#X}.oXoXoX%X%X.X-X-X#X-X$X.X-X-X+XOX%X*X-X>XOXoXOX%X;X$X*X$X$X X#X-X-X$X",
"$X-X$X|.#X$X-X-X>X*X$X-X$X#X|.oXXX X{.%X$X&X$X$X%XoX|. X{.XXoXOX$X&XoX$X>X%X*X$X$X$X-X%XoX&X$X*X-X$XoX%X*X$X>X*X#X$X#X*X-X-X$X#X",
"-X-X.X%X-X$X$X>X-X#X#X$X#X@X|.oXoXoX%X>X%X.X$X$X.XoXoX|.oXoX.X-X&XOX%X;X;X#X#X#X-X-X$X|.*X:X%X-X-X%X$X:X$X:X-X.X#X#X$X$X-X$X#X}.",
"-X$X#X>X$X}.$X>X$X}.#X#X#X{.oXoXoX%X>X$XoX#X$X#X|.oXoXoXoX.X-X-X|.oX$X>X-X.X#X#X-X-X#X&X>X*X#X$X-X-X;X-X-X-X*X|.{.#X$X$X$X#X{.#X",
"$X$X-X>X.X.X-X-X.X{.}.#X{.XXoX|.#X>X$X|.|.}.#X#XoXoXoXoX|.$X$X#XoX.X$X-X*X{.#X-X-X$X*X-X-X X$X$X-X-X;X$X$X-X%X|.{.}.#X$X$XoX X-X",
"#X$X-X*XoX*X-X-X X{.{.{.oXoX.X#X>X$X}.oX|.}.#X{.oXoXoXoX#X#X#X|.OX*X$X$X X#X>X-X$X$X$X-X%X{.@X$X-X-X;X$X$X$X|.oX|.{.@X-X.XoX$X;X",
"#X#X#X XoX$X-X$X|.XX X{.oX%X%X-X>X#X XoX X}.{.}.oXoX.X}.{.}.#X.X.X#X#X$X#X-X-X$X#X$X-X-XOX}.$X-X$X;X$X$X$X#XOXoXoXoX-X-XoX%X;X;X",
"}.}.#XOX.X$X-X.XoXoXoX|.&X$X%X>X$X{.oX%X X|. XXXOX%X%XoXXX{.%X*X|.#X#X#X$X-X$X@X#X-X-X#X.X-X-X$X-X>X#X#X#X}.oXoXoX*X>X%XoX$X>X*X",
"|.|.XXoX$X>X$X.XoXoX X$X-X%X-X-X%X|.*X&XoXoXoX X$X-XoXoXoX X-X.X|.{.}.$X#X-X#X{.#X;X$X$X-X;X X#X>X:X}.}.#X.XoXoX.X>X:XoX X-X-X%X",
"oXoXoX|.-X-X#X|.oX%X>X>X$X*X$X$XOX$X-XoXoX|.%X$X;X+XoXoX+X-X&XoXoXXX{.{.)./.#.#./.'.{.-X-X%X|.-X-X*X{.{.}. XoXoX*X>X*XoX*X-X$X|.",
"oXoXoX-X-X#X}.|.&X>X>X>X%X$X$X$X&X;X%XoX X*X*X>X*XoXOX%X$X;X.XoXoXoXXX/.' r e r r ' ).$X$XoX%X-X-X.X{.{.}.XXoX.X-X-X.XoX#X$X#XoX",
"oXoX%X>X$X}.}.#X-X-X>X-X%X$X$X$X-X$XoX%X-X%X-X-X%X%X&X$X;X-XoXoX|.[.%.X.e . . . X e } ).XXoX*X-X$XOX|.XX|.|.oX#X$X$X|.|.#X#X#XoX",
"oXoX-X>X#X{.#X$X$X-X>X$X}.#X$X-X-X%X%X>X*X$X$X$X$X;X&X-X-X%XoXoX+X[.[ e , < + < , # $ ` %.|.$X-X$XoXoXoX|. X.X#X$X$XoX X#X#X XoX",
"oX&X-X-X|. X#X#X$X>X:X#X#X$X-X-X$X#X-X-X X$X$X-X;X-X-X-X-X+XoX4X6X%.r . , 1 7 1 7 < @ e | /.$X-X.XoXoXOX&X.X.X#X$X#X|.{.}.}.XXoX",
"*X$X-X*XoXXX{.{.:X-X-X*X-X-X-X$X$X-X-X%X#X#X-X-X-X;X$X$X$X+X6X7X2X$.r . # 1 8 9 9 7 < # # { '.#X|.oX%X>X%XoX}.#X#X X|.|.{.{.oXOX",
"}.$X$X#XoXoXoX=X>X$X>X>X-X;X$X$X$X-X-X|.@X#X-X$X;X$X$X@X)._.]._.#.X.i O < 8 8 9 9 9 1 # . r $.#X X*X>X&XoXoX{.{.#X|.oXoXoX X$X-X",
"#X$X#X XoXoX2X1X$X-X-X-X-X$X@X#X$X-X%X|.$X-X$X-X;X#X*X).{ r r e r r 2 6 1 1 1 8 9 9 1 , . r +.}.#X-X$X|.oXoX{.{.{.|.oXoX.X$X;XOX",
"#X#X#X|.oX2X7X:X$X-X-X$X-X$X{.$X;X$X#X#X'.@./.(./.+.@.} w   . . . O 6 9 8 1 7 7 9 8 < , r [ $.}.#X$X#XoXoXoXXX{.{.|.oX|.$X:X%XoX",
"}.}.#X|.oX1X1X#X$X$X$X$X$X|.{.-X-X$X-X'.' r r r r e r w X   o , < 1 8 9 9 9 9 9 9 6 o e X._.].{.#X#X XoXoXOX%X X|.|.oX@X$X*XoXoX",
"{.{.{.oX4X8X=X}.#X#X#X-X%XoX*X>X$X@X'.O.s > ; ; ; %       @ 6 8 9 9 9 9 9 8 9 9 9 < . r /.oXoX{.{.{.|.oX.X$X+XoXoXoX{.#X#X{.oXoX",
"{.{.{.+X1X1X.X X}.}.$X-XoXOX>X-X#X).[ s r.x.w.:.:.c %   o < 8 9 9 9 8 1 7 7 7 7 8 < X r @.oXoXoX|.|.oX*X:X%XoXoXoXoX|.{.}.|.oXoX",
"oX|.|.4X1X6XoXoX|.*X>X%XoX*X>X{./.X.s M m.V.N.n.M.:.; . < 8 9 9 9 9 6 8 8 q q 8 < # e [ _.oXoXoXoXoX&X:X&XoXoXoXoXoXoX|.|.oXoXoX",
"oXoXOX6X6X2XoXoX.X;X-XoX.X-X>X_.] s k.m.m.N.C.C.n.:.; . 6 9 9 9 9 9 7 9 l R b j + # } (.XXoXoXoXoX#X$X$X|.oXoXoXoXoXoXoX|.+XOXoX",
"oXoX+X5X6X+XoXoX$X>X%XoX*X-X$X%.d s k.m.m.N.V.C.n.:.; . < 0 C C 9 9 9 l I E E P o e @.#X|.oXoXoX}.#X$X%XoXoXoXoXoX|.oXoX2X2XoXoX",
"oXoX4X4X4XOXoXOX$X>X%XoX$X$X#X[.$. .s M m.V.N.m.M.:.; . , 0 G S N q x I Q ^ ~ U + r @.{.|.oXoX.X{.@X{..XoXoXoXoX%XoXoX5X5XOXoXoX",
"oXOX2X4X2XoXoX*X-X$XOX|.$X$X%XoXoX%.] d k.x.w.:.:.c % . , N J J N q I _ ^ S.S.H , r #.{.oXoX&X.XXX{.#XoXoXoXoX$X.XoX5X7X+XoXoXoX",
"oXoX2X2X2XoXoX$X$X$XoX}.#X#X|.oXoX[.).O.d > ; ; ; %   . , N J H N 0 Q ^ S.S.S.G , e o.|.oX*X*XoXoXoXXXoXoXoX&X$XoX5X8X3XoXoXoXoX",
"oX+X+X2XOXoX}.#X$X#XoX}.}.}.|.oXoX|.'.+.a 5 4 5 , o . . , 0 S S 0 0 G ! S.S.S.H 1 u | *.XX-XoXoXoXoXoXOX%X%X;X+X2X7X1XOXoXoXoXoX",
"&XOXOX+XOX%X#X#X#X.XoX{.{.}.|.oX.X).[ a G.H.H.F.L V o . , 1 0 0 1 3 0 D ! S.S.H f 2 e [ '.&XoXoXoXoXOX&X%X-X-XOX5X7X=XoXoXoXoXoX",
"oXoXoXoX&X%X}.#X#XXXoX|.{.{. X*X#X/.r 4 H.^.~.!.Q.A.D F D V 5 1 1 7 7 0 G ! J G f 6 . r (.%XoXoXoXoX$X&X$X;X%X3X<X>X2XoXoXoXoX&X",
"oXoXoX%X$X X{.}.}.|.oXoXOX&X:X%X X/.r 4 H.~.T.Q.!.!.K.H.J.F.V 1 3 9 9 f f Z Z Z f 6 @ r /.oXoXoXoX&X-X#X-X$X+X&X9X,XoXoXoX+X;X&X",
"oXoX%X>X.X|.|.{.{.oXOX2X$X>X*XoX$X/.r 4 Y.~.L.P.T.E.E.E.E.Y.K V 0 9 9 9 f 9 f 9 9 6 @ r @.oXoXoX%X;X&X%X$X$X%X>X1X&XoX%X%X-X;XoX",
"%X#X>X$XoX|.|.|.{.2X<X$X$X$XOXOX:X@.e 4 H.~.L.^ / / / / / =.Y.F.V 8 9 9 9 9 9 9 f 6 . r #.oXoXOX;X;X%X$X$X#X:X>X&X2X%X%X$X-X%XoX",
"$X$X>X&XoXoXoXoX2X7X=X#X#X#XOX<X$X+.r 4 H.~.L.! I n >.>.5.z.I.Y.K V f 9 9 9 9 9 9 < . r #.oXoX*X>X-X#X#X$X-X>X:X2X&X$X#X-X-X+X&X",
"&X-X:XOXoXoXoX2X7X<X}.}.#X|.6X1X}.+.e 4 H.~.L.H 9 > t.u.s.b.z.=.Y.F.V 7 7 8 6 8 1 < . e o.oX+X-X;X*X@X#X$X-X$X%X:X>X%X$X$X$X-X;X",
"-X-X$XOXoXoX+X1X7X2X|.#X X&X8X3X|.#.r 4 H.~.L.G , - e.g.wXf.r.z.I.Y.K A A A A V 1 , e ' &.oX#X-X-X.X#X#X-X-X$X*X>X$X#X$X$X-X-X-X",
"$X$X*XoXoXoX4X1X,XoX2X+X2X8X7XOXoX#.r 4 H.~.L.G , y y.wXg.g.f.b.-.=.Y.K.R.R.R.G.5 e } %.[.oX*X-X$X X#X-X-X$X$X-X-X X{.#X-X-X;X-X",
"$X$X.XoXoX2X6X6X3X4X4XoX6X8X5XoXoX_.i 4 H.~.L.G # y y.wXg.g.eXd.w.( I.E.E.E.E.U.1 r +.|.oXOX#X$X#X*X-X-X#X#X$X-X$X|.#X$X-X-X;X$X",
"#X#X|.oXoX2X5X5X4X6XoX2X8X8X2XoX+X_.r 4 H.~.L.G + - e.g.h.eXqXd.j.W ( / / / ( Y # e +.|.oX X#X#X$X$X-X$X#X#X-X-X%X.X$X$X$X;X-X#X",
"#X#XoXoXoX4X4X6X7X3XoX5X7X7XoXoX2X_.r 4 R.~.P.G , * ,.p.h.qXqX0Xr.W W W 6.>.4.k & e #.|.oX{.#X#X$X$X-X#X{.$X>X$X#X-X-X}.$X>X*X#X",
"}.#XoXoXOX2X4X7X7XOXoX6X6X5XoXoX2X%.r 4 H.~.L.G , & M t.p.g.eXeX0Xb.-.-.b.b.6.z O e #. X|.{.{.#X#X$X*X|.}.>X$X$X;X;X.X.X-X>X.X}.",
"}.{.oXoXOX+X5X8X5XoX2X5X6X2XoX2X3X&.e 4 H.~.L.Q 7 = j n a.s.s.d.v.b.=.-.v.s.5.k % e /..XoXoX|.{.#X>XOXoX$X>X#X$X-X%XoX*X>X$X|.}.",
"{.{.oXoXoX2X7X7X2XoX2X5X5X2X6X4XOX#.e 4 H.~.L.! I j = g >.>.5.l.-.=.=.=.Z.u.5.k O r #.oXoXoXoX.X-X$XoX%X>X$X#X$X$X|.|.-X-X*X|.{.",
"|.|.OXoXoX4X7X6XoXoX4X4X5X7X6XoXoX#.r 5 F.W.P.~ E k O & v 4.4.7.) ) ) c.M.i.<.v & r o.oXoXoXoX$X>X.XOX-X-X#X#X#X#XoX%X-X-X%XoXoX",
".X%X+XoXOX6X6X4XoX4X4X4X7X1XOXoXoX(.e < L P.S.~ E k O * ;.9.9.0.q.B.q.0.i.i.2.;.* e o.oXoXoX%X;X$XoX.X-X-X.XXX{.{.oX#X-X$X|.oXoX",
"-X+XoXoX2X5X6X2X4X6X2X6X6X2XoXoX$X'.` p A G H S l j g h <.3.9.2.<.,.,.<.2.9.9.;.* e o.oXoX|.-X-X%XoX$X$X*XoXoXoXoX|.-X-X#XOXoX.X",
".XoXoXoX2X5X4X4X7X2X2X5X5XOXoX%X>X{.(.X.p , , + O * 1.<.3.2.8.n 6 g * g ;.4.4.v % e o.OX.X%X-X-X.X|.$X$X%XoXoXoXoX-X-X#X#X|.%X>X",
"oXoXoXoX3X3X5X7X7X+X2X2X2XoXoX;X-X%X$X(.[ r r $ X * ;.q.8.8.n z i w X & k T 4.k & e $.$X.X#X:X$XoX{.#X$X.XoXoXoX%X>X$X#X}.#X:X$X",
"oXoXoXoX2X3X<X8X3XoX+X2X+X2X=X;X-X.X#X{.'.(./.} w # Y ( 7.n g i X.X.w O k R R k & r /. X|.$X$X%XoX#X#X#X|.oXoXOX-X>X#X{.#X$X$X%X",
"oXoXoX2X2X3X8X7X+XoXoX2X4X&X;X;X*X}.#X$X-X$X#X/.r o B U x z t ' '.'.` u j b R k : i } *.XX$X$X}.oX}.}.#X|.oXoX&X-X-X X X#X#X#XoX",
"oX2X*X.X+X<X7X5XoXoX3X7X4X%X-X-X#X{.#X-X-X$X$X(.r . + + O i O.'.$X$X_. .i = k T b q i d ).$X#X|.|.{.$X#XoX|.%X-X-X*XoXXX}.}.}.oX",
"*X-X X X2X<X1X2XoX3X7X,XoX$X$X$X|.$X-X-X#X$X-X'.] r r r r [ '.-X-X$X X].{ i j b R P O r $.#X#X|.oX=X=XXX&X$X#X$X$X.XoXOX%X}.|.oX",
";X%X%XOX3X<X<X+X2X<X6X+X X*X$X$X*X-X-X$X#X$X-X{.%.@./.(.(.'.{.$X$X*X.X3XoXO.u 8 Y S , r +.}.{.|.3X<X.X$X:XOX#X$X$X.X4X4XoXoX|.&X",
"%X&X%XoX3X<X4X+X4X5X3XoX{.#X@X$X$X-X$X@X#X-X-X}. X-X-X$X;X-X@X$X$X{.2X5X6X%.e , G G , e +.{.{.2X7X=X$X:X%XoX#X#X$X7X6XoXoXoX&X$X",
"&X$XoX+X4X4X3X2X3X3X+XoX|.{.#X#X$X$X#X{.$X;X$X#X-X-X{.-X9X*X@X#X#X.X3X4X5X+XoX=X1X6XoXoXoXXX X7X7X$X$X$XoX|.#X$X8X7XOXoXoX}.$X$X",
">X%XoX+X4X4X2X+X2X2XOXOX|.{.#X#X$X$XoX%X>X$X$X>X-X.X.X-X-X#X}.@X{.|.3X3X3XOX2X5X5X2XoXoXoXoX5XrX:X#X#X XoX X$X9X9X2XoXoXoX}.$X$X",
"-XoXoX+X2X&X+XoXOXOX%X|.oXoX{.#X-X.XOX$X>X#X$X-X*XoX*X-X-X|.{.{.{.+X2X2X2XOX2X3X3X+XoXoXOX+X7X7X$X}.#XoXoX.X:X>X,XoXoXoX|.$X#X-X",
"%XoXoX&X&X+XOXoXoX*X%XoXoXoX X;X*XoX%X>X-X#X#X#X.XOX$X-X*XoXXX|.XXOX+X+X+XOX+X2X+XoXoX%X.X4X7X6X|.|.{.oXoX2X=X,X%XoXoXoX%X$X#X>X",
"|.OX&X&XOXOXoXOX-X&XOXoXoX.X-X;X.XoX-X-X*X{.}.}.oX.X-X:X%XoXoXoX|..X.XOXoXoXoXoXoXoX%X*XOX6X1X4XoXoXoXoXoX+X2X2XOXoXoX+X>X#X$X>X",
"OX$X-XOXoX.X%X-X-X+XoXoX+X-X;X$XoX%X-X-X.XoX|.XXoX*X>X$X.XoXoX+X&XoXoXoXoXoXoXoXOX.X-X.X2X6X6X2X|.oXoXoXoXoXOX+XoXoXOX;X$X#X$X:X",
"$X;X+XoX%X*X*X;X&XoXOX%X-X;X;X%XoX#X$X$XoXoXoXoX.X-X-X#XoXoX%X-X.XoXoXoXoXoXoX2X.X-X&XoX2X5X,X+XoXoXoXoXoXoXoXoXoXOX$X>X&X*X$X$X",
";X$XoX%X-X%X-X-X%X%X-X*X;X;X-X+XOX$X$X#XoXoXoXoX-X-X#X}. X$X;X%XoXoXoXoXoXoX%X%X*X>X.XOX4X=X=XoXoXoXoXOX%XoXoXoXOX$X>X;X#X#X$X$X",
"-X%X%X;X%X#X$X$X$X;X*X-X;X-X$XoX}.#X#X.XoXoXoX%X>X-X}.{.%X-X$XoXoXoXoXoXoX+X-X%X:X-XoXoX&X,X2XoXoXoX%X=XoXoXoXOX&X-X>X$X}.#X$X-X"
};
