/* XPM */
static char *theoRR61704828127[] = {
/* columns rows colors chars-per-pixel */
"64 64 213 2 ",
"   c #010101",
".  c #0B0504",
"X  c #0B0907",
"o  c #190A07",
"O  c #120B0E",
"+  c #1A0C0A",
"@  c #130907",
"#  c #1F1509",
"$  c #0C0F12",
"%  c #110D16",
"&  c #0D181D",
"*  c #111419",
"=  c #1E121B",
"-  c #15181B",
";  c #210F0A",
":  c #24130D",
">  c #2B140E",
",  c #26190A",
"<  c #30160F",
"1  c #381C09",
"2  c #331A0A",
"3  c #261610",
"4  c #2C1610",
"5  c #2D1812",
"6  c #2A1619",
"7  c #321C15",
"8  c #3C1C13",
"9  c #331C19",
"0  c #1B2504",
"q  c #1B2B01",
"w  c #162202",
"e  c #0E241C",
"r  c #1F3203",
"t  c #20240E",
"y  c #222A0C",
"u  c #2E2B08",
"i  c #3E3508",
"p  c #24261B",
"a  c #37201B",
"s  c #26331B",
"d  c #283819",
"f  c #34311C",
"g  c #203303",
"h  c #191724",
"j  c #1C1C33",
"k  c #0D1620",
"l  c #2A1B26",
"z  c #341E2D",
"x  c #3A1E21",
"c  c #192424",
"v  c #183A33",
"b  c #2E2022",
"n  c #2A2029",
"m  c #3C222B",
"M  c #252D35",
"N  c #382031",
"B  c #362539",
"V  c #2B3239",
"C  c #33353A",
"Z  c #461E13",
"A  c #422016",
"S  c #4D2613",
"D  c #432319",
"F  c #4C261A",
"G  c #552A14",
"H  c #5E281A",
"J  c #552517",
"K  c #632A1C",
"L  c #6D2D1D",
"P  c #702E1E",
"I  c #70381A",
"U  c #76341D",
"Y  c #6F3F1D",
"T  c #4C272B",
"R  c #592C2B",
"E  c #412538",
"W  c #45283C",
"Q  c #4D2834",
"!  c #5B2F36",
"~  c #662D28",
"^  c #743121",
"/  c #7B3427",
"(  c #673A37",
")  c #622F31",
"_  c #2F4B01",
"`  c #2C4109",
"'  c #2D4404",
"]  c #314E02",
"[  c #315000",
"{  c #3C560B",
"}  c #3E5F04",
"|  c #3E5A13",
" . c #3F6203",
".. c #7D4015",
"X. c #426404",
"o. c #4B6F0E",
"O. c #456A07",
"+. c #4D7404",
"@. c #4F7B03",
"#. c #4C720C",
"$. c #527E02",
"%. c #527B0D",
"&. c #4B6F10",
"*. c #517810",
"=. c #517710",
"-. c #7D4231",
";. c #1F384D",
":. c #372D4A",
">. c #313C47",
",. c #3E3544",
"<. c #2F2F57",
"1. c #35335D",
"2. c #293351",
"3. c #3B3A69",
"4. c #3F3F73",
"5. c #442C46",
"6. c #42394A",
"7. c #443456",
"8. c #403B69",
"9. c #403966",
"0. c #38434F",
"q. c #265741",
"w. c #2D5B45",
"e. c #2A415C",
"r. c #25525E",
"t. c #3E5453",
"y. c #375552",
"u. c #296F52",
"i. c #2A6B5B",
"p. c #2C755B",
"a. c #295964",
"s. c #3C4A76",
"d. c #3D5174",
"f. c #3B5369",
"g. c #396C63",
"h. c #346576",
"j. c #357377",
"k. c #387768",
"l. c #404D4D",
"z. c #474147",
"x. c #5F4A41",
"c. c #46525E",
"v. c #5E5144",
"b. c #4D6C56",
"n. c #757F4D",
"m. c #495767",
"M. c #4D5967",
"N. c #485665",
"B. c #505F6E",
"V. c #596879",
"C. c #576676",
"Z. c #447E60",
"A. c #823A1F",
"S. c #863724",
"D. c #8B3D25",
"F. c #844819",
"G. c #92491C",
"H. c #9F4D1E",
"J. c #A7551C",
"K. c #B0581F",
"L. c #9B4424",
"P. c #9B5833",
"I. c #A15226",
"U. c #AB5228",
"Y. c #B65C25",
"T. c #A14F20",
"R. c #9E662F",
"E. c #99693B",
"W. c #C15F23",
"Q. c #CB6325",
"!. c #D96D26",
"~. c #528302",
"^. c #558B00",
"/. c #588D02",
"(. c #57860D",
"). c #599300",
"_. c #5E8C11",
"`. c #679C03",
"'. c #689F02",
"]. c #65960D",
"[. c #669B0C",
"{. c #689F0B",
"}. c #619504",
"|. c #649513",
" X c #669912",
".X c #689D12",
"XX c #65A202",
"oX c #69A402",
"OX c #6BAB02",
"+X c #69A30A",
"@X c #6DAA0A",
"#X c #67A506",
"$X c #70AF0D",
"%X c #6EB301",
"&X c #6FB800",
"*X c #72B305",
"=X c #71BA01",
"-X c #72B40D",
";X c #76BB0F",
":X c #78BE0E",
">X c #6BA412",
",X c #6EAA11",
"<X c #70AE11",
"1X c #73B310",
"2X c #75B810",
"3X c #7AC40D",
"4X c #7DCA0C",
"5X c #79C306",
"6X c #34826C",
"7X c #37946E",
"8X c #348075",
"9X c #57875D",
"0X c #80CF0D",
/* pixels */
"OXOX&X#X'.OXOX%X%X%X%X%X%XOXXX X`.'.'.]. X|.{.%X%X'.[.oXoXoX[.|.|.|. X X+X&X+XOX%X+X[.%X@X>X.X X[.%XOX|.|.|.[.%X#X%X*X+X`.oX%X%X",
"OXOX%X+XoXoX%X%X%X%XOX%XOXOX[.|.`.'.'.].|.[.OX%XOX[.[.`.oX`. X|.|.[.[.+X&X%XXX%XOX+XOX*X.X X@X+X%X=X X|. X+X%X%XoXOXOX'.oX%X%XOX",
"OX%XOX].'.OX%X%X&XOXOXOXOXoX[.].].}.`.[.oXOXOX*X+X|.].}.`.].|.[.OX#X XOX=X#X#XOXOXOX=X[. X+XOXOX%XOX X+X+X%X=X+X#XOXoX#X%X%XoXoX",
"%X%X+X{.%XOXOX&X%X#XoXOXoX`.].|. X X+X=X+X[.OXOX+X|.|.|.|. X[.%X$X X+X&X=X+XoXOXOX%XOX.X#X=X+XOX%X+XOX%XOX%X%X`.oXoXOXOX%XOXoXoX",
"%XOXOX%X%X`.OX=XOX'.oXoX`.`.].|. X+X=XOX X'.OXoX[.|.|.|.|.[.%X%X[.|.OX&XOX'.oXoX%X%XXX#X&X#XOXOXOX%X&XOX%X%X#X[.`.oXOXOXOXoX`.oX",
"OXOX%X=X[.{.*X=X[.`.'.oX`.]. X].#X&XOX[.].oXoXoX X|.|. X[.oXOX+X|.[.%X%X#X'.oX*X%XOX#X=X%X{.oXOX%X%X%X%X%X%X{.].`.'.XXOXOX|.{.%X",
"oXOX%XoX|.#X=XOX[.`.`.`. X].[.+X%X%X'.|.].'.'.'.|.|.|.].+XoXOX]. XXXOXOX{.oX%X%XOXOX%X%X+X'.oXOX%X%X&XOXOXOX[.|.].}.oX%X[.|.OX&X",
"XXoXoX[. XOX%X#X].].[.}.|.+X+X%X%XoX[.|.[.`.`.`.|.|.[.[.`.'.'.{.[.+XoXOXoX%X%XOXoXOX%XOX X'.OX%XOX=XOXOXOXoX X|.|..X%X%X|.+X&X&X",
"`.'.`. X[.OX=X[.|.|. X X+XOX#X=XOX'. X+X+X].].]. X#X+X X[.`.#X#X[.'.oXoXOXOXOXoX'.%X%XoX[.%X%XoX%X%XoXoXoX'.|.|.|.#X%X+X|.OX%XOX",
"].[.].|.OX=XOX[.|.|.[.OX%X+XOX%X[.[.#X#X|.|. X[.OX#X X|. X[.%X[.].'.'.OXOXOXOX`.oX%XOXOX&X%X'.#X=X%X'.'.oX[.|.|.[.=X%X X{.%X%X+X",
"|.|.|.[.=XOXoX].|.+X=X=XOX+X%XOX.XOX%X X|. X[.OX=X.X|.|.[.OX@X|.].].`.oXOX%X X{.%X%XoX%X%X+X].OX%X#X`.`.'.[.|.|.OX*X#X XoXOXOX X",
"|.|. XOX=XoX'.[.OX=X=X=X#XOXOXOX#X&X[.|.{.+XOX=X#X|. X+XOX=X.X|.|.].].oX%X+X|.#X&XOXOX%XOX|.+X%X=X+X`.`.`.].|.{.%X%X[.[.OXOX#X|.",
"|.|.+X&XOX'.'.oX%X=X=X%X+XOXOXOX%XOX X+X%X+X%X%X+X+XOX#X&X%X|.|.|.|..X%X%X[.[.=X%XoXoXOX'.|.OX%XOX X].[.].].|.oXOXOX X].oXoX+X|.",
"|. X%X%XoX`.oXOXOX%X=XOX'.oXOX*X%X+X+X&X#XOXOXOX@X=XOX%X&X#X|.|..X>X@X=X+X|.#X&XOX`.`.oX[. X%X%X#X|.|.|. X[.[.OXOXoX X`.oXoX`.|.",
" XOX%X%X[.}.oXoXOX%X%X+XoXOX%X%XOX+X=X%X[.OXOX%X%X%X%X%X%X[. X<X;X@X*X=X[.|.^.~.@.&.#.%._.+X%XOX[.|.|.[.#X+X{.oXOX+X].`.`.'.].|.",
"+XOX%X#X|.].`.`.*X%X%X#X%X%X%XOXOXOX*X+XoXoX%X%X%X=XOX%X#X.X2X3X>XoX%XOX|.~._ q 0 0 w ` %.OX%XOX[.|.+X%X+X|.'.oXoX`.|.].`.`.]. X",
"[.OXOX+X X|.|.@X=XOX%X%X%X&XOXOXOX%X%X[.'.OX%XOX&XOXOXOXOX-X3X,X[.oX).%.#.} 0 . . . . 0 X.).XXXX[.#X=XOX|.|.`.oX'.[.|.|.].].OXOX",
"oXOXoX[.|.|.@X:XOX%X=X%X%XOXoXoXOX%X+X[.oX%XOX%X&XoXoXOX%X1X1X X+X^._ q 0 0 : + ; + ; # 0 [ ~.`.oX%XOX X|. X}.`.`.].|.|. XOX*X{.",
"oXoXoX].|.>X3X$XOX%X%XOX%XOX`.oX&XOXXXXX).@.~.^.~.@.@.~.(.(.%.#.@. .0 . . @ : 4 4 4 > ; . q +.`.OXOX+X|.|.|.].`.`.].|..XOX%X+X|.",
"oX'.oX]. X:X:XoXOXOXOXOXOX[.`.%X%XOX%X)._ q q q q w q q 0 0 w w q 0 , : : : 5 7 7 7 > ; . q #.'.oXoX].|.|.[.[.[.].].|.'.OX#X X|.",
"`.`.`. X<X4X$X'.oXoXoX%X+X|.#X=XOXXX).O.s - * * % $     . . . . . + 3 7 4 > 7 7 7 < 4 + . w &.`.`.`.|.|.[.OX[.|.|.|.}.'.oX'.|. X",
"`.`.}..X;X:X.X`.`.oX%X%X X X=X%XoX/._ s t.c.0.>.>.M $ . o + ; : : 5 7 5 4 > > 5 7 7 4 ; . 0 &.|.].]. X#X=X+X|.|.|.|.].`.'.].|.|.",
"|.].].<X:X1X X|.[.#X=X+X|.#X=X`.~.X.s V M.V.B.m.N.>.* . : > > 5 7 7 7 5 5 4 4 4 7 7 7 ; . 0 &.|.|. X+X=X+X|.|.|.|.|.|.].]. X|.|.",
"|.|..X1X2X>X|.|.[.%X%X X[.%X=X~.' s l.M.M.B.V.C.m.>.* X : 7 7 7 7 7 5 5 5 7 7 7 7 7 7 3 X 0 &.|.|.'.OXOX.X|.|.|.|.|.|.|.|..X|.|.",
"|.|.>X1X1X.X|.|.+X%XOX|.+X%XOX%.g s l.B.M.B.V.C.m.>.% . 3 7 7 9 a 5 4 4 9 a 9 a 7 7 5 , 0 ` *. X'.oXOXXX|.|.|.|. X[.|.|.,X,X|.|.",
"|.|.,X<X<X X|..X*X%X{. XOXOXoX_.*.| s V B.V.B.M.N.>.* . : 5 7 7 a 7 4 9 m m a 7 7 5 O 0 { *._.[.`.'.XX[.|.|.|. X+X|.|.1X1X|.|.|.",
"|. X>X<X>X X|.#X%XOX X[.OXOX[.|.|.=.' d l.c.0.>.>.M $ . ; < Z D 7 7 9 x T Q T a 2 , 0 ' %. X+X{.].`.`.].|.|. X@X{.|.1X3X|.|.|.|.",
"|. X>X>X>X|.].OXOX#X X'.oXoX[.|.|._./.o.d - * % * $   . ; 1 R K 8 7 m T ~ ^ U H ; t { %._.#X@X|.|.].].|.|.|.OX@X|.<X4X<X|.|.|.|.",
"|..X.X.X.X|.+XoXOX+X|.`.'.'.].|.|.].).O.i 1 1 2 , o . . o Z P P Z 9 T ) / S.S.K ; 0 o. X+X%X X|.|.|.|. X+X+X=X[.>X3X;X X|.|.|.|.",
"{..X X.X.X+XoXoXoX`.].`.`.`. X|.[.^.[ i F.J.J.G.U Z o . o Z P P Z 8 ~ / S.D.S.K ; 0 #.#X&X+X|.|.|.|. X+X[.=XOX.X2X;X-X|.|.|.|.|.",
".X|.|.|.+X+X'.'.oX[.|.].}.[.[.OX+X~.q 1 J.!.Q.Y.L.P S 2 > 8 H H 8 8 H ^ S.S.S.L > y  ./.OX[.|.|.|. XOX#X#X=X+X>X;X=X>X|.|.|.|.@X",
"|.|.|.+XOX[.`.'.'.].|.|..XoX=X+X{.~.q 1 J.Q.U.H.D.D.H.G.S < 8 1 4 > 8 J ^ S.S.P a , 0 [ /. X|.|.|.@X=X+X%X%X{.$X5X-X|.|.|.>X%X@X",
"|. X+X=X{.|.`.`.`. X X$XOX%X+X XoX~.q 1 J.Q.L.S.P U I.I.I S 7 > 4 4 > 8 K U P H D , X q $.|.|.|.+X=X@X#X%XOX+X=X;X@X X{.+X%X%X X",
"+X#X*X*X X|.|.|.].>X1XOXOXOX[..X*X$.0 1 J.Q.L.P 8 7 R -.I.G.S > 5 5 7 a D F F D a 3 . q #.|.|..X%X&X+XOXOXoX*X=X@X>X+X#XOX%X+X|.",
"#XOX=XoX|.|.|.|.+X3X@XoXOX[. X2X*X+.q 1 J.Q.H.K ; % V x.P.I.Y S 8 7 7 9 5 a a a a : . q #.|.|.#X=X%X+XoXOXOX=X$X>X-XOX+X%X%X{.+X",
"OX=X*X].|.|.|.>X4X;X`.'.oX{.1X:X`.+.0 1 J.W.L.K ; - q.b.x.-.I.L.J 4 7 7 a a a 5 7 4 . q &.|. X%X=X#XoXoXOX%X*X+XOX=X+XOXOXOX%X=X",
"OX%XOX X|.|..X:X3X>X].`.[.@X4X,X].+.0 1 J.W.A.F p v p.k.t.v.P.I.I S a a 5 7 5 7 7 : . q o.|.+X=X%X{.'.oX%X%XOX#X%XOX+XoXOX%X%X%X",
"OX%X+X|.|.|.<X:X1X X>X.X>X4X3X X X#.q 1 J.K.S p q.p.h.j.k.b.x.-.I.G.S 5 , > 4 4 4 ; . 0 o. XoXOXOX`.oX%X%XOXOX%X%X{.oXOX%X%X&X%X",
"OXOX[. X|..X2X2X,X,X<X X2X0X1X|.|.%.r 1 J.J.2 e i.8Xj.h.p.w.,.( E.R...G G G S 2 > o . 0 o.].OXOX#X+X%X%XOXoXOX%XOX[.oXOX%X%X&XOX",
"oXoX].|.|.,X1X1X<X;X X.X3X4X>X|..X(.q 1 J.J.1 & r.j.8Xu.v c B z.n.9XR.K.K.L.S.J ; .   0 o.[.oXoXOXOX%XOXXXoX%X%X[.[.OXOXOX&X%X+X",
"oXoX X|. X<X<X1X4X,X|.1X3X;X X|.>X(.q > ..F.f v a.j.8Xi.& $ B t.p.9XE.Y.Y.U.F.R 6 O O , { $.}.oXOXOX%X`.`.OX=XOX#X=X%X'.OX=XOX'.",
"'.oX|.|..X>X<X3X3X X X2X;X1X|.|.>X%.q . , f w.p.6X8Xj.a.& & ;.h.k.9Xv.( ( ( ! Q m N N l t ' $.oXoXOX#X].`.=XOXOX=X%X{.[.=X%X[.'.",
"'.`.|.|..X>X1X4X1X|.>X1X2X,X|.>X,X%.0     e u.7X7X6Xa.;.k c a.j.j.k.t.0.6.5.B N E W W z O w #.`.oX%X X XOX&XoXOX%X#X|.OX=XOX[.'.",
"`.}.|.|.|.>X:X3X>X|.>X1X1X>X1X<X X&.0     e u.7X7Xp.v k l >.g.j.j.j.k.g.h.e.h = N W W z O 0 #.{.=XOX|.+X=X%XoXOXOX[.].OX%X+X].`.",
"].[.|.|.|.<X:X2X X|.<X,X1X4X1X|.|.#.q . o p q.u.u.q.c = N 6.g.j.h.h.j.j.h.e.k X l z z l t d #.OX&X[. XOX=XoX'.oXXX|.{.%X%X{.|.].",
" X+X X|. X1X;X<X|.,X<X<X3X;X X|. X~.q o Z J p e e c l N E 7.N.d.s.s.s.s.s.1.&   X O $ t { %.].=X%X|.+X%X%X[.].`.`.|.oX%XOX[.|.|.",
"%X[.|.|.>X1X2X>X,X2X>X-X;X>X|.|.OX).' u G Z o     O z W W 5.8.8.8.4.1.1.3.2.%   # q 0 ` %.[.OX=X+X X#X%X#X X|.|. X[.%X%XoX X|.[.",
"+X|.|.|.,X1X<X<X3X>X,X1X1X X|.+X&X{./.X.u o .     O z E 5.5.8.8.s.3.j h B B O # [ &.&.(.}.#X%X%X[.[.OXOX+X|.|.|.|.OX&XoXoX X+X&X",
"|.|.|.|.,X,X1X3X;X>X>X,X>X|. X%X%X+XOX^._ q q q q 0 b N E 5.7.8.4.1.j = z b y ] =.].+X@X[.OX%XOX X{.oXoX[. X|.|.+X=XOX'.'.oX=XOX",
"|.|.|. X,X,X;X4X,X X.X.X.X.X$X=X%XXXoX`.).^.@.@.~.X.t 6 z 5.5.7.3.3.1.2.h y o.%._.@X=X[.[.oXOX+X|.`.oXoX].|.|. XOX=XoX`.oXOXOX[.",
"|.|.|.>X+X,X4X3X.X|.|.>X1X@X%X&XOX`.oXOX%X%XXX%X&X~._ 0 b z z B 1.9.8.1.% r (.[.OX=X{.|.[.OXOX'.|.`.oXoX].|.|.OX=X%X[.].oXoXoX.X",
"|.+X+X.X.X2X3X1X|.|.,X3X,X+X%X%X+X`.oX%X%XOXOX&X@X_./.O.y O O h B 7.3.<.* r %.oXOXoX X XoXOXoX[.].`.OXoX|..X+XOX%X#X|.`.'.'.`.|.",
"#X%X.X].>X;X;X,X|.<X:X-X XoXOXOX{.oX&X%XoXOX%X%X+XXXOX).[ q q 0 l B 7.5.% g +.oXOX'..X<XOX'.oX].|.$X$X].oX@X+XOXOX[.|..X+X`.].|.",
"%X+X+X.X,X;X2X.X>X2X2X.X XOXOXOX#X%X%XoXoXOX%XOX].oX%XOX).^.~. .t 6 R R + q +.'.oX-X3X@X`.`.`.].<X;X{.OX=X[.'.OXOX[.<X<X X|. XoX",
"#X+X+X|.,X1X1X.X<X1X<X|.}.oXXXOXOX%XOX'.oX%X%X'.+X%X%XOX&X%X#X@.q ; L K ; y #.`.*X4X<X|.`.`.}.>X3X$XOX=X{. X+XoX*X:X1X|.|. XoX%X",
"@X%X X.X,X1X,X>X>X<X.X|.[.`.oXOXOXOXoX`.OX&XOXoX%X%X`.%X&XOX'.oXoX[.,X<X<X.X X$X:X-X X|.].[.[.3X3XOXOXoX|.].'.%X5X3X X|.|.[.OXOX",
"=X+X X.X>X<X>X.X>X>X|. X[.}.oXoXOX#X X{.%XOXOX%X%X[.[.%X=X'.'.'.'.].>X<X<X X.X1X1X>X|.|.|.|.1X4X*XoXoX[. X].OX4X4X+X|.|.|.oXOXOX",
"*X|.|..X$X>X.X|.|..X+X[.|. X`.oX%X[. X%X=XoXOX%X#X|.OX%XOX[.`.`.`..X>X>X>X X>X<X,X.X|.|..X.X3X4XOX'.'.].|.[.*X=X-X X|.|.].oXoX%X",
"+X|. X+X@X.X X|. X@X+X|.|.|.[.=X#X X+X&X%XoXoXOX{. XOX%X+X X].}.}. X.X.X.X X.X.X.X|.|.+X[.<X3X2X X`.]. X|.{.$X-X+X|.|.|.oXOXoX=X",
"[. X@X+X X.X.X[.OXOX|.|.|.[.%X=X[. X%X%X#X'.'.'. X[.%X=X[.|.|. X].{..X X|.|. X X|.|.+X#X.X1X:X<X|.|.|.|. X.X>X>X X|.|..X=X+XOX=X",
" XOX%X|. X{.+XOX%X.X|.|. X%X&XOX|.{.%X%X[.].].]. X#X=XOX[.|.|..X+X.X|.|.|.|.|.|.[.{.%X.X>X2X2X>X|.|.|.|.|. X|. X|.|. X%XOX+X*XOX",
"#X=X>X|.+X#X#X=XOX|..X#X%X=X=X+X XoXOXOX|.|.|.|.[.%XOXoX X|.+X%X.X|.|.|.|.|.|..X[.*XOX|.,X1X<X X|.|.|.|. X X|.|.|. X%X=X@X#XOXOX",
"&X#X X+XOX+X%X%X{.+X%X#X&X%X%X X XOXOXoX|.|.|. XOX=XoXoX.XOX%X+X|.|.|.|.|.|.+X@X+X=X[. X,X<X<X X|.|.|..X+X|.|.|. X#X=X&X'.OXOXOX",
"%X+X+X&X#XOXOXOX@X&X#X%X&X%XOX X'.oXoX[.|.|.|.+X=X%X'.'.#X%XOX|.|.|.|.|.|.+XOX{.=XOX X X$X$X,X|.|.|.+XoX|.|.|. XOX%X=X@X'.oXOX%X"
};
