/* XPM */
static char *theoRR31704828127[] = {
/* columns rows colors chars-per-pixel */
"64 64 211 2 ",
"   c #040304",
".  c #0B0604",
"X  c #0A0A06",
"o  c #130907",
"O  c #190A07",
"+  c #130B0E",
"@  c #1B0D0B",
"#  c #1E1409",
"$  c #0C0F12",
"%  c #100D15",
"&  c #0C191E",
"*  c #111418",
"=  c #1E121B",
"-  c #191A1E",
";  c #210E09",
":  c #24120D",
">  c #2B140E",
",  c #271A0C",
"<  c #30160F",
"1  c #381C09",
"2  c #33190A",
"3  c #261511",
"4  c #2C1610",
"5  c #2D1812",
"6  c #2A1619",
"7  c #321C15",
"8  c #3C1C13",
"9  c #321A18",
"0  c #162303",
"q  c #1B2404",
"w  c #1B2B01",
"e  c #0D221D",
"r  c #21250D",
"t  c #282A09",
"y  c #3D320A",
"u  c #26331C",
"i  c #283819",
"p  c #382017",
"a  c #2C1923",
"s  c #341E2D",
"d  c #3A1F25",
"f  c #1C2624",
"g  c #2E2122",
"h  c #3A2028",
"j  c #252D35",
"k  c #382031",
"l  c #352539",
"z  c #2B3239",
"x  c #35353A",
"c  c #411D13",
"v  c #4C1F14",
"b  c #4D2613",
"n  c #432219",
"m  c #482419",
"M  c #562B14",
"N  c #522218",
"B  c #5E281A",
"V  c #512710",
"C  c #40200C",
"Z  c #64291B",
"A  c #6C2D1E",
"S  c #702E1E",
"D  c #70381A",
"F  c #76341B",
"G  c #4B262D",
"H  c #402128",
"J  c #562A29",
"K  c #412538",
"L  c #4A2E3D",
"P  c #50323B",
"I  c #662D28",
"U  c #733122",
"Y  c #7B3428",
"T  c #683837",
"R  c #743A35",
"E  c #622F31",
"W  c #2D4404",
"Q  c #2F4B00",
"!  c #2C4209",
"~  c #304F00",
"^  c #3D5A0A",
"/  c #3A5507",
"(  c #3E5B11",
")  c #3F6104",
"_  c #4B6F0F",
"`  c #446605",
"'  c #4D7403",
"]  c #4F7B06",
"[  c #4C730C",
"{  c #517E02",
"}  c #527B0D",
"|  c #517810",
" . c #7A4532",
".. c #674538",
"X. c #302B4C",
"o. c #313C47",
"O. c #3E3A42",
"+. c #333856",
"@. c #3F3E70",
"#. c #3F3D6A",
"$. c #432E4A",
"%. c #40394C",
"&. c #433C45",
"*. c #523143",
"=. c #443555",
"-. c #523955",
";. c #673A47",
":. c #423965",
">. c #413C6B",
",. c #4C3D64",
"<. c #38434F",
"1. c #3E4D56",
"2. c #25525E",
"3. c #305D4D",
"4. c #3B6456",
"5. c #286556",
"6. c #375C6D",
"7. c #3B4973",
"8. c #3D5174",
"9. c #396F65",
"0. c #366274",
"q. c #33737A",
"w. c #387374",
"e. c #397C66",
"r. c #41404A",
"t. c #404D4D",
"y. c #5E4445",
"u. c #46525E",
"i. c #4A4F56",
"p. c #655B44",
"a. c #694E40",
"s. c #496C56",
"d. c #4C6D5D",
"f. c #5A6B4E",
"g. c #646C4C",
"h. c #495767",
"j. c #4D5967",
"k. c #485665",
"l. c #505F6E",
"z. c #434C62",
"x. c #586C68",
"c. c #447764",
"v. c #596879",
"b. c #576676",
"n. c #843B1E",
"m. c #863724",
"M. c #853B27",
"N. c #93491C",
"B. c #864718",
"V. c #A7551C",
"C. c #AD571E",
"Z. c #B0581F",
"A. c #9D4524",
"S. c #964225",
"D. c #9B5332",
"F. c #8A4721",
"G. c #A05226",
"H. c #AD5328",
"J. c #B25A20",
"K. c #B85F2B",
"L. c #BC5A25",
"P. c #A84D25",
"I. c #B57339",
"U. c #B8652F",
"Y. c #C15F23",
"T. c #CA6325",
"R. c #D96D26",
"E. c #976240",
"W. c #538402",
"Q. c #558A00",
"!. c #588D02",
"~. c #55830C",
"^. c #5B8B0D",
"/. c #599101",
"(. c #5E8C12",
"). c #609304",
"_. c #679C03",
"`. c #689F02",
"'. c #65970D",
"]. c #669B0C",
"[. c #689F0B",
"{. c #649513",
"}. c #669912",
"|. c #689D12",
" X c #65A201",
".X c #69A402",
"XX c #6BAB02",
"oX c #69A30A",
"OX c #6DAA0A",
"+X c #67A705",
"@X c #70AF0D",
"#X c #6EB301",
"$X c #6FB800",
"%X c #72B305",
"&X c #71BA01",
"*X c #72B40D",
"=X c #76BB0F",
"-X c #78BE0E",
";X c #6BA412",
":X c #6EAA11",
">X c #70AE11",
",X c #73B310",
"<X c #75B810",
"1X c #7AC40D",
"2X c #7DCA0C",
"3X c #79C306",
"4X c #39876D",
"5X c #348075",
"6X c #468360",
"7X c #608160",
"8X c #80CF0D",
/* pixels */
"XXXX$X+X`..XXX#X#X&X#X#X#XXX.X{._.`.`.'.{.{.].#X#X`.'..X.X.X'.{.{.{.{.}.oX$XoXXX#XoX'.#XOX;X}.|.[.&XXX{.{.{.;X%X+X#X#X.X_..X#X#X",
"XXXX#X[..X.X#X#X#X#XXXXXXXXX_.{._.`.`.'.{.'.XX#X#X'.'..X.X X{.{.{.oXoX[.$X#X+XXXXX].#X#X|.}.OX+XXX&X}.{.{.oX#XXX+XXXXX[..X&X#X.X",
"XX#XXX'..XXX#XXX&X+XXX#XXX.X'.{.'._._.oXXX+XXX%X.X{.'.'._.'.{.}.XX+X}.XX&XoX+XXXXXXX#XOX{.OXXX+X#XXX{.oXXXXX&XoX.XXXXX+X#X#X.X.X",
"#X#X[.oX#XXXXX&X#X.X.XXX.X X'.{.{.{.oX&XoXoXXXXX].{.{.'.'.{.].#X@X}.oX$X$X.X.XXX#X#XXX'.OX#XoXXX#XoXXX#X+X&X#X`..X.X.XXX#XXX.X.X",
"#XXXXX&XXX`.XX&X+X`..X.X`._.'.{.{.OX#X+X{._.XX.X'.{.{.{.{.[.#X#X'.{.XX&XXX[..X.X#X#X.XoX&X+XXXXXXX#X$XXX#X#X+X]._..XXXXXXX.X_..X",
"XXXX#X#X'.[.#X&X.X_.`..X_.'.{.'.+X#X#X'.'..X.X.X}.{.{.{.'.XXXX.X{.[.XX#X+X`..X&X#XXX+X#X#X]..XXX#X#X#X#X#X#X].'._.`. XXXXX{.].#X",
".XXX#X+X{.+X&X#X'.`._._.{.{.[..X$X#X.X{.'.`..X`.{.{.{.'..XXX.X[.}.+XXXXX]..X#X#XXXXX#X#XoX_..XXX#X#X#XXXXXXX'.{.'.'..X#X[.{.XX$X",
".X.X.X].}.XX#X+X{.'.'._.{.OXoXXX$X.X'.{.]._.`._.{.{.[.]._._._.].]..X.XXX.X#X#XXX.XXX#X#X'._.XX#X#X$X#X.XXX.X}.{.{.'.#X#X{.oX$X$X",
"_..X_.{.'.#X#XoX{.{.{.'.+X+XXX&XXX_.{.oX].'.'.'.{.oXoX{.'._..XoX'..X.X.XXXXXXX X.X#X#X.X[.#X#X.X#X#X.X.X.X.X{.{.{.XX&XoX{.XX#XXX",
"'.'.'.{.XX&XXX'.{.{.|.XX&XoXXX#X[.[.+XOX{.{.}.'.XX#X{.{.{.[.#X[.'.`.`.XXXXXXXX_..X#XXXXX#X$X_.+X&X#X`.`..X].{.{.[.#X#X}.[.#X#XoX",
"{.{.{.[.#X#X.X'.{.oX&X$XOX+X#XXX'.XX#X{.{.[.].XX$X;X{.{.'.#XOX{.'.'._..XXX#X}.[.#X#X.X#X#XoX'.#X$XoX'.`.`.'.{.{.XX#X+X{.+X#XXX{.",
"{.{.{.#X#X.X.X'.XX&X&X&X+XXXXX+XOX#XoX{.].+X+X&X+X{.}.oXXX$X[.{.{.'.'.`.#XoX{.oX$XXXXX#XXX{.[.#X#XoX_._.`.'.{.[.#X#X[.{..XXX.X{.",
"{.{.oX&XXX`._..X#X#X&X#XoXXXXXXX#XXX{.oXXX+X#X#X[.oXOXXX&X#X{.{.{.{.oX#X#X{.[.$X#X.X.XXX.X{..X#X#X{.'.'.].'.{..XXXXX{.'..X.X.X{.",
"{.{.#X$X.X_..XXXXX#X&XXX`..XXX%X%XoXoX&XoXXXXXXXXX$XXX#X#XoX{.{.|.;XOX$XoX{.+X#X+X_._.`.'.'.#X#X+X{.{.'.{.].[..XXXXX{._..X.X'.{.",
"}.+X#X#X'._. X.XXX#X%X.X.XXX#X#XXX+X#X#XoXXXXX#X$X#X#X#X#X[.}.>X=XOX%X.X~.[ W.W.{ | (.'.{.[.#XXX].{.{.'.+XoX]..XXX.X'._._.`.'.{.",
"+XXX#X+X{.'._._.%X&X#XXXXX#X#XXXXXXX&XoX X.X#X#X#X$XXXXXXX|.,X1X;X+X&X!.! w w w q ! } {.}.#X#XXX].{.OX#XoX{.`..X.X[.{.'._._.'.[.",
"[.XXXX.X{.{.{.@X&XXX#X&X#X$XXX.XXX#X#X'..X.X#XXX&XXX.XXXXX*X1X|.} W.Q.^ # . . . . q / } _.&XXX.X].+X#XXX{.{._.`..X'.{.{.{.'.XX#X",
".XXXXX].{.{.;X=XXX#X&X#X#XXX.X X#X#XoX'.XX#XXX#X&X+X.XXX%X,X,X| Q w w q # ; @ : # # # W /.&X`.`..X#X#X}.{.'._._._.'.{.{.'.XX#X|.",
".X.X.X'.{.;X1XOXXX#X#XXX#XXX_.XX#XXX.XXX$X.XXX&XXX.X.XXX@X;X~.^ q . X o : , > > 4 3 o 0 ` Q./.`..XXXoX{.{.{.'._._.'.{.'..X&XoX{.",
"`..X`.'.}.-X1X.XXXXXXXXXXX'._.#X#XXX#X$XoX_.#X&X.X_..XXXoX~.! r , 4 3 , > > 7 7 5 4 : , q W { _..X.X'.{.{.{.oX].'.'.{..XXX+X{.{.",
"_._._.{.>X8X@X_..X.X.X#XoX{.+X&XXXXX#X X} ] Q.W.' ' ' ' [ ^ q + 3 p 7 5 > 5 7 7 9 7 4 @ . q [ '._._.{.{.[.XX'.{.{.{.'..X.X`.{.{.",
"_._._.|.-X-X]._._..XXX#X{.}.&X#X.XXXXX~.! w w w 0 q w 0 q q # : 5 7 p p 7 5 5 > 7 7 > : . 0 _ {.'.'.}.+X&XoX{.{.{.'.'._.`.'.{.{.",
"{.'.'.>X-X,X{.{.'.+X&XoX{.+X&XXX X_.W.^ u - * * * $       o 3 5 7 7 5 5 7 7 5 5 7 7 4 ; . q _ {.{.{.+X&XOX{.{.{.{.{.{.'.'.{.{.{.",
"{.{.|.,X<X:X{.{.[.$X#X'.].%X#XoX'.{ W i 1.u.<.o.o.j $ . O : 5 5 7 7 5 5 4 > 7 5 7 9 4 # . q _ {.{..XXXXX{.{.{.{.{.{.{.{.{.|.}.{.",
"{.{.|.,X,X;X{.{.OX&X+X{..XXXXX(.} ^ u z j.v.b.k.z.o.* . : 4 5 7 7 7 5 4 5 9 9 7 7 5 : ; q W | {._..X+X.X{.{.{.{.{.'.{.{.;X;X{.{.",
"{.{.:X>X>X}.{.}.XX#XoX}.XXXXXX} i i t.j.j.l.b.b.h.o.* X > 7 7 p p 5 5 5 s h 9 > , : o q / } (.[._..X X].{.{.{.}..X}.{.,X,X}.{.{.",
"{.}.:X:X;X{.{..X#XXX}.'.XXXXoX| ! u t.j.j.l.v.b.h.o.* . 3 7 n n p 5 9 h G G m 8 > ; # W } {.OX[.'._._.{.{.{.}.+X[.{.,X1X|.{.{.{.",
"{.{.;X;X;X{.{.XXXXXX{.`..X.X].(.| ^ i z j.v.l.j.z.o.* . : 8 B Z p 9 h G I U U N ; q ^ } (.oX+X{.{.'.'.{.{.}.OXXX{.,X2X:X{.{.{.{.",
"{.|.|.;X|.{..X.XXX.X{.`.`.`.'.{.{.} ~ i t.u.<.o.o.j $ . @ c S S c 9 G E M.m.m.I ; 0 [ {.oX#X}.{.{.{.{.{.oXoX$X|.;X1X=X}.{.{.{.{.",
"oX|.{.}.|.[..X.X.X].'._.`._.'.{.oX X!.` u - * * * $   . ; c S A c 8 I Y m.m.m.Z : 0 [ +X$XOX{.{.{.{.}.+XoX$XXX|.,X1X@X{.{.{.{.{.",
"|.{.{.}.OXoX`.`..X'.{.'.'._.[.+X+X X!.` y 1 1 2 : O . . ; 1 Z B 8 8 Z S m.m.m.Z 4 r ) /.+XoX{.{.{.{.XXOX+X#XoX;X=X&X;X{.{.{.{.OX",
"{.{.{.oXXX'._.`.`.'.{.{.].+X%XoX[.!.~ y B.V.V.N.F b O . @ < 8 8 < < 8 N U m.m.S p , q ~ !.{.{.{.{.XX#XoX#X#X[.@X3X*X{.{.{.;X%XOX",
"{.{.[.&X[.{._._._.{.}.OXXX&X+X{..XW.w 1 V.R.T.L.V.n.V C b b 8 > > < 4 8 Z U S Z n 3 X w { {.{.{.oX&XOXXXXXXXoX&X-XOX{.[.oX#X#X}.",
"oX.X&X%X{.{.{.}.'.;X<XXXXXXX}.}.%X{ w 1 V.R.H.P.Y.Y.J.Z.C.N.b > 7 < 7 p n m m n p 3 X w } {.{.}.#X#XoXXXXXXX%X&XOX;XoXoXXX$XoX{.",
"+XXX&XoX{.{.{.{.OX-X@X.X.X.X{.=X%X' w 2 V.T.A.S.H.K.K.K.K.A.D b 8 7 7 7 g 7 p 7 7 3 . w _ {.{.OX&XXX_.XXXXXX&XOX;X%XXX.X#X#X|.OX",
"XX&X%X].{.{.{.;X1X=X_.`..X'.=X-X_.' q 2 V.T.A.Y R T T T T  .G.N.b 4 7 7 7 7 7 p 7 > X w _ {.'.#X&X+X X XXX#X%XoXOX&XoXXXXXXX#X#X",
"XX#XXX{.{.{.|.-X1X;X'.[.'.>X2X:X'.' q 1 V.T.A.U G k O.r.%.;.D.G.D b p 7 7 7 7 7 7 , X 0 _ {..X#X&X[.`..X#X#XXX+X&X+X_.XXXX#X$X#X",
"XX#X+X{.{.{.>X-X<X}.;X[.;X2X1X}.{.[ w 1 V.T.A.A 4 f 3.9.6.u.y. .G.N.b 5 > > 4 > > : . w _ {.+X#XXX'..X#X#X.XXX#X&X[. XXX#X#X$X#X",
"XXXX[.{.{.|.<X=X:X:X>X{.<X2X,X{.{.} w 1 V.T.A.Z ; e 5.5Xq.0.O.T D.G.D M M M M b > ; # W | ]..XXX.X+X&X&XXX.XXX#X+X'._.XX#X#X$XXX",
".X.X'.{.{.:X,X>X>X-X}.|.2X2X;X{.|.^.w 1 V.T.A.Z ; & 2.q.5X9.+.P T  .G.J.J.J.J.B.1 0 ^ } (.]..X.XXXXXXXXX.X.X#X#X[.[.#XXXXX#X#X.X",
".X.X{.{.{.>X>X,X2X:X{.,X1X=X}.{.;X~.w 8 V.T.A.Z ; & 2.q.5X9.r.L &.y.E.I.I.I.I.F.t q [ {.{._..X.XXXXXXX X_.XX&XXX+X%X#X`.XX&X+X`.",
"`..X{.{.}.:X>X1X1X}.}.<X=X,X{.{.;X| w 1 V.T.A.Z ; e 5.5Xq.6.%.r.4.c.x.x.7Xg...J @ q [ oX'._._..X.XXXXX'._.&XXXXX#X&X].[.&X&X[.`.",
"`._.{.{.}.;X,X2X,X{.;X,X<X;X}.;X:X[ w 1 V.T.A.Z ; e 5.q.q.0.t.t.s.6Xw.q.w.9.%.s + w W.'.{.{.'._..X&X[.{.XX&X.XXX#X+X{.XX#X%X'._.",
"_._.{.{.}.;X=X1X;X{.;X,X,X;X,X>X}.| w 1 V.T.A.Z ; e 2.q.5X5Xe.s.p.p.c.q.q.6.=.s + w [ {.{.{.{.[.#XXX{.].&X#X.XXXXX'.].XX#X+X'._.",
"'.'.}.{.{.>X1X<X}.{.>X:X,X1X,X{.{.[ w 1 V.T.A.Z ; * +.0.4X4X6Xf. ...x.w.0.7.+.k $ w _ {.{.{.{.XX&X[.}.#X&X.X_..X X{.].#X#X[.{.'.",
"[.oX|.{.}.,X=X>X{.:X>X>X1X=X}.{.{.W.w 1 V.T.A.Z ; + j 1.4X6Xp. .M. .h.7.7.7.@.X.* q _ {.{.{.oX$XXX{.].#X#X[.'._._.{.XX#XXX'.{.{.",
"#X|.{.{.;X,X<X;X:X<X;X,X-X;X{.{.XXQ.w 2 N.L.m.F 8 : a x 4.s...Y R ;.,.@.#.#.#.X.% q _ {.{.}.XX$XoX{.XX#X+X}.{.{.{.'.#X#X.X'.{.[.",
"[.{.{.{.;X,X>X>X1X:X;X,X,X|.{.oX&X{ q : F A.m.m.A N 3 = x &.P *.-.,.z.>.=.$.$.s % q _ }.|.+X#X#X'.'.XXXXoX{.{.{.}.XX&X.X.X{.oX&X",
"{.{.{.{.:X:X>X2X=X;X;X:X;X{.}.#X#XW.Q t M Z Z Z Z N 3 = k K k l =.,.,.+.l s k g r ! ~.XX[..X#XXX}..X.XXX[.{.{.{.oX&XXX.X`.+X%XXX",
"{.{.{.{.:X;X=X2X:X{.|.|.|.;X@X$X#X'.Q.` t ; ; @ ; : a k K k 6 6 E T *.l = + $ q ^ !.XX[.'.XXXXoX{._..X.X}.{.{.{.#X&X.X_..XXXXXoX",
"{.{.{.;XOX:X2X1X|.{.{.;X,XOX#X$X+X`..XQ.~ t w w w r a k l s + O v N h a X X # W !.#XoX{.[.XXXX`.{.`._..X'.{.{.OX#X#X].'..X.X.X'.",
"{.oX+X|.|.<X1X,X{.{.:X1X:XoX#X#X.X_..X+X!.{ W.Q.W.^ q 6 k s + . O ; + +   0 ^ Q. X+X{.{..XXX.X'.'._.XX.X{.}..XXX#X+X{._.`..X].{.",
"OX#X|.'.;X=X1X;X{.:X1X=X}..XXXXX'.XX#X#X.XXX#X#X[.W.Q r g a + X . .   X q / ~..XXX[.|.*XXX.X`.'.{.@X@X'.+XXX.XXXXX[.{.|.[._.'.{.",
"#XoXoX}.:X=X<X|.;X*X=X|.}.XXXXXX+X#X#XXX.XXX#XXX'._.Q.` t + : 3 6 @ . 0 ` ^./.`..X@X-XOX_.`.`.'.:X=X[.XX%X|..XXXXX].>X>X}.{.}.+X",
"oXOXoX}.:X,X>X|.>X,X:X{._..X XXXXX#XXX`..X#X#X`.].#XXXW.w X > 7 7 3 . w ~.OX'.`.%X2X>X{.'._.'.;X1X*XXX&X[.{..X.X%X-X,X{.{.}.+X%X",
"+X#X{.}.>X,X:X;X:X:X|.{.'._..X.XXX#X_._.XX&XXX.X$X#X X#X3X+X X X.X].;X,X>X|.{.@X-X=X{.{.'.'.`.1X1XXXXX.X{.'..XXX2X-X{.{.{._.XXXX",
"&XoX{.|.;X>X;X|.;X;X{.}.'._._. XXX+X{.].#X#XXX&X#X[.oX#X#X.X_._.`.].>X>X;X{.;X,X,X;X{.{.{.{.,X8X%X.X.X].{.].XX3X3XOX{.{.}..XXXXX",
"#X{.{.|.OX:X}.{.{.}.oX}.{.'._.XX#X[.}.#X$X.XXXXX+X{.+X#X#X'._._._.|.;X;X;X}.;X>X:X}.{.{.|.|.1X1XXX_..X'.{.[.%X&X*X{.{.{.'..X.X%X",
"oX{.{.OXOX|.|.{.}.XXOX{.{.{.[.$XXX{.oX&X#X.X.XXX].{.XX#X+X{.'.'.'.{.[.|.|.}.|.;X|.{.{.oX[.,X1X=X'.].].{.{.;X@X*XoX{.{.{.oXXX.X&X",
"'.}.OXOX}.}.}.|.XXOX{.{.{.[.#X$X[.{.#X#X+X_.`.`.{.oX#X#XoX{.{.{.'.[.].}.{.{.{.{.{.{.oX+X}.,X=X>X{.{.{.{.{.|.;X;X{.{.{.|.&X+XXX%X",
"}.XX#X{.{.].oXXX#X|.{.{.}.#X$XXX{.oX#X#X'.'.'.'.{.+X&X.X'.{.{.[.OX}.{.{.{.{.{.{.{.[.%X|.;X<X<X;X{.{.{.{.{.{.}.|.{.{.|.#X#X.XXX#X",
"XX&X;X{.oX+XXX#X+X{.|.oX#X$X#XOX{..XXXXX}.{.{.{.[.&XXX.X}.{.OX#X|.{.{.{.{.{.{.;X[.#XXX{.:X,X,X|.{.{.{.{.{.}.{.{.{.{.#X&XoXXXXXXX",
"#XXX{.oX#XoX#X#XoXOX#X+X#X$X#X}.'.XXXX.X{.{.{.{.XX&X.X.X}.XX#XoX{.{.{.{.{.{.;XoXXX&X[.{.:X>X>X{.{.{.{.].oX{.{.{.}.XX&X%X.XXXXXXX",
"#XoXoX$XoX+XXXXXXX#X+X#X$X#XXX}._.XX.X].{.{.{.oX&X#X`.`.+X#XXX{.{.{.{.{.{.oXXXoX&XXX{.}.@X@X;X{.{.{.oXXX{.{.{.{.XX#X&XXX`..X.X#X"
};
