/* XPM */
static char *theoRR01704828127[] = {
/* columns rows colors chars-per-pixel */
"64 64 212 2 ",
"   c #0B0604",
".  c #070A01",
"X  c #040404",
"o  c #190A07",
"O  c #120A0D",
"+  c #1D0E0C",
"@  c #130907",
"#  c #1E1409",
"$  c #131D03",
"%  c #0C0F12",
"&  c #110E19",
"*  c #110B12",
"=  c #0D1C1D",
"-  c #10131A",
";  c #18161C",
":  c #210E09",
">  c #24120D",
",  c #2A140E",
"<  c #291A0C",
"1  c #30160F",
"2  c #381C09",
"3  c #321909",
"4  c #261411",
"5  c #2C1611",
"6  c #2D1813",
"7  c #221C1F",
"8  c #321D15",
"9  c #3C1B13",
"0  c #311A18",
"q  c #142100",
"w  c #1B2504",
"e  c #1B2B01",
"r  c #0D221D",
"t  c #1F2E0D",
"y  c #2E2C07",
"u  c #20240E",
"i  c #29280A",
"p  c #3F3807",
"a  c #202D16",
"s  c #27341A",
"d  c #283919",
"f  c #382017",
"g  c #1C1928",
"h  c #1C1C33",
"j  c #2E1B24",
"k  c #341E2D",
"l  c #371E26",
"z  c #1A2529",
"x  c #3F2121",
"c  c #3B202A",
"v  c #3E2330",
"b  c #37253C",
"n  c #352538",
"m  c #2B3239",
"M  c #33353A",
"N  c #28292F",
"B  c #461E13",
"V  c #422218",
"C  c #492419",
"Z  c #512218",
"A  c #5E281A",
"S  c #532913",
"D  c #64291B",
"F  c #6D2D1D",
"G  c #702E1E",
"H  c #76341B",
"J  c #4B262D",
"K  c #402128",
"L  c #572925",
"P  c #5D322E",
"I  c #45293D",
"U  c #4D2834",
"Y  c #572D34",
"T  c #50323B",
"R  c #662D28",
"E  c #743121",
"W  c #7B3427",
"Q  c #6B3A36",
"!  c #69363C",
"~  c #743936",
"^  c #622F31",
"/  c #2D4503",
"(  c #2F4A01",
")  c #2C4109",
"_  c #304E01",
"`  c #3C5B04",
"'  c #385706",
"]  c #3E6004",
"[  c #426503",
"{  c #416803",
"}  c #456809",
"|  c #4D7402",
" . c #4F7C02",
".. c #4C720C",
"X. c #4E7908",
"o. c #517E02",
"O. c #527B0D",
"+. c #517810",
"@. c #7F4334",
"#. c #754836",
"$. c #67493A",
"%. c #2A2E42",
"&. c #342C4B",
"*. c #313C47",
"=. c #3D3045",
"-. c #2F2F57",
";. c #33335D",
":. c #3B3258",
">. c #23394B",
",. c #3C3A68",
"<. c #3F3E70",
"1. c #442B44",
"2. c #423B48",
"3. c #433557",
"4. c #503145",
"5. c #403B69",
"6. c #493B63",
"7. c #513D60",
"8. c #38434F",
"9. c #25525E",
"0. c #3F5652",
"q. c #2C4E51",
"w. c #2A6456",
"e. c #3C695A",
"r. c #3D4A68",
"t. c #375C6D",
"y. c #3B4972",
"u. c #2A5461",
"i. c #396D64",
"p. c #3C7864",
"a. c #337379",
"s. c #414E4C",
"d. c #484347",
"f. c #5F4A41",
"g. c #40504F",
"h. c #46525E",
"j. c #414253",
"k. c #65414A",
"l. c #48795E",
"z. c #4B6955",
"x. c #464068",
"c. c #495767",
"v. c #4D5967",
"b. c #475567",
"n. c #505F6E",
"m. c #414572",
"M. c #566676",
"N. c #843B1E",
"B. c #863724",
"V. c #853B27",
"C. c #914A1A",
"Z. c #A7551C",
"A. c #B0581F",
"S. c #8A4721",
"D. c #9D4524",
"F. c #964225",
"G. c #9A502D",
"H. c #9B5833",
"J. c #A5562E",
"K. c #AC5425",
"L. c #B85F2B",
"P. c #BA5B26",
"I. c #A84D25",
"U. c #C15F23",
"Y. c #CA6325",
"T. c #D96D26",
"R. c #528301",
"E. c #558A00",
"W. c #588C01",
"Q. c #55830B",
"!. c #5C8C0C",
"~. c #599200",
"^. c #5F8C12",
"/. c #679C03",
"(. c #689F02",
"). c #65960D",
"_. c #669B0C",
"`. c #689F0B",
"'. c #619600",
"]. c #649513",
"[. c #669912",
"{. c #699D12",
"}. c #608F0B",
"|. c #65A401",
" X c #69A402",
".X c #67AA00",
"XX c #6BAB02",
"oX c #69A30A",
"OX c #6DAA0B",
"+X c #67A00C",
"@X c #70AE0D",
"#X c #6EB301",
"$X c #6FB800",
"%X c #72B404",
"&X c #71BA01",
"*X c #72B30D",
"=X c #76BB0F",
"-X c #78BE0E",
";X c #6BA412",
":X c #6EAA11",
">X c #70AE11",
",X c #73B410",
"<X c #75B810",
"1X c #7AC40D",
"2X c #7ECA0C",
"3X c #79C306",
"4X c #3A8065",
"5X c #388D6B",
"6X c #37936E",
"7X c #348075",
"8X c #368A72",
"9X c #80CF0D",
/* pixels */
"XXXX$XOX/.XXXX#X#X#X#X#X#XXXoX)./.(.(.).].].+X#X#XoX/. X X X_.].].].[.].OX$XoXXX#XoX_.#XOX;X{.[.oX#XXX].].]._.#XOX#X#XoX/. X#X#X",
"XXXX#X`. X X#X#X#X#XXXXXXX.X/.]././.(.).]._.XX#X#X].).(.|.(.].].].`.+X+X#X#XoX#XXXoXXX#X{.[.oX|.XX&X{.]._.+X#X#X|.XXXX`..X#X#X X",
"XX#XXX).|.XX#X#X$XOXXX#XXX|._.]._././.oXOX XXX#XoX].)././._.]._.XXOX].XX$X X XXXXXXX#X+X].OXOX X$XXX].oXXXXX$XoX XXX X X#X#XXX X",
"#X#XoX`.#XXXXX$X#X X XXX X(.).].].].oX$XoX/.XXXX`.].].].].].+X#X#X].+X$X$XoX XXXXX#X#X_.OX#XoX#X#X XOX#XOX#X#X_. X XXXXX#XXX(.|.",
"#XXXXX$X#X/.XX$XXX(. X X(./.).].].OX$XXX].(.XX X).].].].]._.#XXX_.].XX$X#X`. X X#X#XoXOX&X X XXXXX#X$X#X#X#XOX/.(.(.XXXXXX X/. X",
"XX.X#X%X_._.#X#X`./.(. X/.).].). X#XXX[.).|. X|.].].].]._.XXXXoX]._.#X#X X/. X#X#XXX X#X#X`. XXX#X#X#X#XXX#X+X)./.(.|.XXXX].`.#X",
" XXXXX X].OX#X#X_./././.]._.`.oX#X#X/.].).(.(.(.].].].[./. X X_.]. XXXXX`. X#X.XE.E..X#XoX/..XXX#X#X$XXXXXXX_.].]./. X#X`.].OX$X",
"|. XXX_.[.XX#XOX).).)./.].oX+X#X&X X_.]._.(.(./.].].`./.(.|.(.`.`.oX XXX X#X#XW.( ( W.#X_./.XX#XXX$X#X XXX X].].].).#X#X].+X$X$X",
"/.(. X].`.#X#X`.].].[.[.oXXXoX$XXX/.).+X`._./.).].OXoX].)./..XoX_.(.|. XXX|.E.` u w ] E.).#X#X X#X#X X X XoX].].].OX$X+X].XX$XOX",
").)./.].XX%XXX_.].]._.XX$XoX#X#X`._.|.OX].].]._.XXXX[.].]._.#X+X)./.(.XXXXW._ $ : < w ( ~.#X/. X&X#X/.(.|.`.].].`.#X#X[.`.#X#XoX",
"].].].[.#X#X X).].oX&X$XXXoX#XXX_.OX#X[.].[.+XXX$X{.].]._.#XOX].]./.(.'.E.[ w @ > > @ e { R.!.#X$XOX/./.(._.].].XX#X X]. XXXXX_.",
"].].].#X#X|.(._. X&X&X&XoXXX#X XOX$X+X]._. XOX#XXX].[.oXXX#X{.].].].).R._ w > > 6 5 > > w ) Q.#X#X`./././.).]._.#X#X+X].XXXX X].",
"].].oX&XXX(.(. X#X#X&X#XoXXXXXXX#X#X].oX#X+XXX#X_.+X#XOX$X#X].].].^.O.{ w @ > < 6 8 < :   w  .#X#X[.).)./.].]. XXXXX].)..X XoX].",
"].].#X#X|./.(.XXXX#X&XXX(. XXX#X#XoX+X$X X.X#X#XXX$XOX#X#XOX].].[.!.( e > > 6 8 8 8 , :   w R.#X X].].].).`.`. XXXXX]./.(. X/.].",
"]. X#X#X_./. X XXX#X#XoX|.XX#X#XXX X#X#X`.XXXX#X$X#X#X|.~.....Q.!.] u O > 5 6 8 8 8 5 +   e R.XXoX].]._.OX+X`. XXXoX)././.(.).].",
"OXXX#XOX].)./.(.#X%X#X X#X#X#XXX X#X#XoXoX XXX#X$X#X#XE.( e e t w w < < , , < 6 8 6 < >   e E..X_.].+X#XoX]./. X X/.].)././.).[.",
"oXXXXXoX].].).OX%XXX#X$X$X$XXXXXXX#X#X!.R.o.R.R.E.R.R.] q X     @ o 4 6 5 , 4 4 4 4 : # w _ E.(._. X&XOX].]./.(.(._.].].]._.XXXX",
"|.XXXX_.].].:X=XXX#X$X#X#XXX X XXX#XoXO._ e e e e e e q . X # < 4 4 5 5 , , 5 4 O     w { ~.'.(.|.XXXX_.].]././.(.).].]._.OX#X_.",
" X X X).].+X1X%XXX#X#XXX#X.X/. X#X.XR.} d ; - - - % X X   O 6 8 8 0 5 , 0 0 0 4   . $ ( ~.#X/.(.XXXX X].].].)./.'.).]._.XX#XoX].",
"(.(.(.).[.-X-XoXXXXXXXXXXX_./.#X#XE._ d g.h.8.*.*.N %   # 4 6 8 8 8 , 0 l v K j O $ ` W..XoX). X(. X_.].]._.+X_.).].]. XXXOX[.].",
"/.(./.].>X2X@X/. X X X#X+X].OXXXE.} d m v.M.n.v.h.*.-   4 8 V V 8 8 0 l J Y Y l O e o.#XXX[.]./././.].].`.XX[.].].]./.(.|./.].].",
"/./.).{.-X-X`._./.|.#X#X[._.#X~.( s s.v.v.n.M.M.c.*.- . > 9 A D B 6 c J R W ~ A + e o.XX X].].].).).).OX$X+X].].].].)./.(.).].].",
").).).>X-X*X].]._.|.$XoX].XX&XW./ s s.v.n.n.M.M.c.*.-   > B G G B 8 J ^ W B.B.D : w  .XX`.].].].].]. X$XOX].].].].].].)._.].].].",
"].].{.,X<X:X].].[.$X#X[._.#X%X~.O.` s m v.M.n.n.h.*.-   + 9 G G B 9 R W B.B.B.D : w  . X_.].].].].oXXXXX_.].].].].].].].].{.[.].",
"].].;X,X,X{.].].OX#XOX].oX#XXX_.].O.) s s.h.8.*.*.N % . + 9 A A 9 9 A E B.B.B.F , w ` R.}.].].]./. XXX+X].].].].].).].].;X;X].].",
"].].;X>X>X[.].[.#X#X`._.XXXX X].].^.+.} d = ; - - % X   : 1 9 9 , , 9 Z E B.B.F x # e / O.].].`.(.(.|._.].].].[.oX].].,X,X[.].].",
"].].:X>X:X].].oX#X#X_._.XXXX/.].].^.O.| p 3 2 2 , o     4 0 5 , , , , 9 A E E D V <   w ..].OX`.)./.'.[.].].[.XX_.].,X1X{.].].].",
"].].;X;X{.].).XXXX X]./. X X_.].].+./ p C.Z.Z.C.H B o * j l 0 , 8 8 8 9 V C C V f 6   w ..oX X].].)._.].].].OXXX[.,X2X:X].].].].",
"].{.{.{.{.]./.XXXXoX]./.(.(._.].]...e 2 Z.T.Y.P.I.N.S V P P f 0 8 8 8 8 8 f f f 8 <   w X.#X].].].].].].+XOX$X_.;X1X=X[.].].].].",
"oX{.[.{.{.oX X X.X/.)././.(.).]._.R.e 2 Z.Y.K.I.P.U.A.A.P.G.P c 0 6 8 8 f 8 f 6 8 6 . w E.OX].].].].[.OXoX#XXX{.,X1X*X].].].].].",
"{.].].].OXoX/. X(.).].)./._.`.OX XR.e 2 Z.Y.D.F.K.L.L.L.L.J.@.P x 6 8 8 6 0 6 6 0 > . e E.+X].].].[.XXoXOX#X+X:X<X=X{.].].].].OX",
"].].].oXXX).(.(.(.).].].[. X#XoX+XR.e 2 Z.Y.D.V.~ Q Q Q Q @.J.G.P c 0 4 6 < 6 < 4 4 . e R.].].].].OX#X X#X#X{.OX3X#X{.].].+X#XOX",
"].[.oX&X`.]./././.[.[.:XXX#XOX]. XR.w 2 Z.Y.D.E J n =.:.*.f.H.J.@.P x 0 0 0 0 6 > # w _ R.].].].+X$XOXXXXXXX+X3X&X:X]._.+X#X#X[.",
"+X X%X%X].].).[.).`.<XXXXXXX).{.%X .e 2 Z.Y.D.G 5 g q.t.i.z.f.#.J.G.P v v v v j + w [ W.).].].].#X$XoXXXXX X%X&XOX{.OXoXXX$XoX].",
"XXXX%XoX].].].].;X1X@X XXXoX[.=X%X| w 2 Z.Y.I.D : = u.a.a.p.0.f.H.J.@.Q Q Q Q J + e R.XX].].].OX&XXX(..XXX#X&XXX;X#XOX X#X#X_.OX",
"XX#X%X_.].].].;X2X=X/./.|._.,X-X/.| w 2 Z.Y.B.D : = w.7Xa.a.p.z.f.@.J.L.L.L.L.S.< e o. X].].[.#X&XoX(..XXX#X%XoX#X%XoXXXXXXX#X$X",
"#X#XXX].].].{.=X1X;X).(._.OX2X:X)...e 2 Z.Y.D.F : r w.a.a.a.6X4X0.f.H.P.L.L.L.S.< e o./.].]. X%X#XoX|. X#X#XXX X%XXXoXXXXX#X$X#X",
"XX#X X].].[.>X=X*X[.;X{.;X2X1X[.]...e 2 Z.Y.D.D : = 9.a.7X8X6X5X4Xz.f.Q Q Q Q L + w | _.].].XXXXXX_. X#X#XXXXX#X#X`. X X#X#X#X#X",
"XXXX_.].].{.<X<X:X:X>X].<X2X,X].].Q.e 2 Z.Y.B.F 9 ; >.u.i.4X6X6X6Xp.d.T 2.d.1.n O e | ).].[.XXXX X X#X#X X XXX#XXX_. XXX#X#X$XXX",
" XXX[.].].:X,X,X>X=X[.{.1X2X;X].[.Q.i 2 Z.Y.I.B.G L a z M 0.4X6X6Xl.$.$.z.e.=.c O w | ).]._. X XXXXX#XXX X X#X#X/._.XXXXXX$X#X|.",
" X X].].].:X,X,X1X>X].,X1X<X{.].+XQ.e 2 K.Y.D.V.B.D : * M s.e.l.l.z.@.#.l.i.8.k * $ ' +.^./.(. XXXXXXX|.(.XX#XXX X#X#X(.XX$XOX|.",
"(.(.].].[.;X:X1X1X].{.<X<X,X].].;XQ.w 2 Z.Y.D.B.B.D : - q.e.g.d.$.#.S.#.c.t.2.k * X $ / O._./. X XXXOX_./.&XXXXX#X$X_.`.#X$X/.(.",
"(./.].].[.;X,X2X,X].;X,X<X;X].;X:X+.w < C.P.F.N.F Z 4 g w.i.j.4.! ~ #.k.b.y.3.b ; O O u ' +.!.(. X#X{.].XX$X XXX#XOX].OX#XXX_.(.",
"/./.].].[.;X1X1X;X].;X,X,X:X<X:X[...e > H D.B.F 9 4 j b r.b.,.6.3.7.7.x.m.<.5.:.b k k j u ) O._.#XXX].+X$X#X XXXXX_._.XX#XoX)./.",
")._.[.].].>X1X<X[.].>X>X,X1X,X].].O._ y S D F B 4 ; b 3.5.<.,.:.:.;.-.-.-.;.,.3.1.I I l O # ..XX&X_.[.#X#X X(. X|.].`.#X#X+X].).",
"[.oX{.].[.,X=X:X].:X>X>X1X-X[.]._.oXQ.[ y : : 4 j b 3.5.<.5.3.&.g - - - g g %.1.1.I I k * w X.&X#X].`.#X#X`._././.].XX#XXX_.].].",
"#X_.].].;X,X<X;X:X=X:X*X=X:X].].XX#XoXW._ $   * n :.,.,.;.&.n j t e e e q u f k l v U K O w R.#XoX].OXXXOX).].].].).#X#X|._.].+X",
"_.].].].;X,X,X:X1X;X;X,X>X[.].oX&XOX X.XE.` q & &.,.<.;.h & % t ` R.W.X...` t * * 5 L L + e R.#X_._.XXXXoX].].].].XX&X X/.].OX$X",
"].].].[.:X:X>X1X=X;X;X:X;X].].#X#XoXXX|.R.[ y j ;.,.;.%.s e e _ ~.$X#X[.].W.' i u i S B o e R.XX].`. XXX_.].].].oX&XXX(.(. X#X#X",
"].].].[.;X:X1X2X:X].{.{.{.;X*X$X#XoX.XR._ y S P 3.,.h a ] E.E.~..X$XXX].{.=X~.....} y o X e R.oX].|. X X[.].].[.#X%X X/. XXXXX`.",
"].].].;X;X:X1X1X{.].].;X*XOX#X$XOX(.|.R.e o Z L =.%.a ( ~.$X#X#X$X$XoX].,X2X,X[.XXW./ w w _ E.`.]./.(. X_.].].OX%X#X_.). X X X].",
"].+XOX[.;X=X1X,X].].:X1X:X+X#X#X/./..XR.e   o + & a ] ~.XX$X#X#X$X#X_.;X1X1XoX XXX(.+...o.E./._.)./.XX X]._.oXXX#XXX]./.(.|./.].",
"OX#X_._.;X=X1X;X].:X1X,X[.|.XXXX`.XX#X~.( e e e w ( W.#X#X&X#XXX#XXX_.:X1X<X`. XXX/.;X@X X X X).].@X@X_. XXX XXXXXoX].{.`./.).].",
"#X+X+X[.:X=X<X{.:X,X=X{._.XXXXOX X#X#X/.R.R.E. ...R..X#X#X$XXXXXXXXX_.<X=X@X/.(. X@X-XOX/././.).>X=X+XXX#X[. XXXXX+X:X:X].].].XX",
"oXOX+X].:X<X>X+X>X,X:X]._. X|.XXXX#X X|. X#X#XoX+X#X#XXX$X#XoXXXXX/.;X,X*X:X[./.%X2X>X]./././.;X1X@XXX%X+X]. X X%X-X,X].].[.oX%X",
".X#X[.{.>X>X:X;X:X:X[.]./.(. X XXXXX X/.XX$X XXX#X#X/.#X&XXX(. X X_.:X,X>X{.].@X1X,X[.].).)._.1X1XXXXX X]._. XXX3X1X[.].]./.XXXX",
"$XoX].{.:X:X;X{.{.;X].[._./.(. X#XOX).`.#X#XXX#X#X_.`.#X#X/.(.(.(._.:X:X:X{.{.,X,X;X].].].].*X9X%X X X_.].).%X3X2X;X].].].(.XXXX",
"#X].].{.OX:X{.].].{.+X_.].)./. X#X_.].XX#X.XXX#XoX[.oX#X#X_./././.[.;X;X;X[.;X:X:X].].].[.+X1X1XXX/. X].]._.%X&X*X].].].).XXXXXX",
"oX].].OXoX;X[.].].OXoX].].].`.$XXX].oX$X#X X X X`._.XX#XOX]._.'._.].`.{.{.{.{.;X;X].].+X`.,X1X=X_.)./.].].;X@X*XoX].].].oXXX X&X",
"[.[.OXOX[.[.[._.#XXX].].]._.#X$X_.[.#X#X X/. X(.].+X#X#X`.].].].).`._.[.].].].].].].+XOX{.,X=X>X].].].].].{.;X;X{.].]._.&X XXX#X",
"_.XX%X].].`.oXXX$X[.].].{.#X$XXX].+X#X#X_.).)._.].oX$X#X_.].].{.OX[.].].].].].].[.`.#X{.;X,X,X;X].].].].].].[.[.].].[.#X#X X#XXX",
"XX$X+X].+XOXXX#XOX].[.|.#X$X$XoX]. XXXXX].].].]._.#XXX.X)._.oX#X{.].].].].].].{.`.#XXX].>X,X,X{.].].].].[._.].].].[.#X&XoXOXXXXX",
"#X#X].+X#X+X#X#X_.oXXXXX$X$X#X{._.XXXXoX].].].].#X$X.X(._.oX$X+X].].].].].].oXoXXX&X`.].:X@X@X].].].]._._.].].].[.OX$X#XoX XXXXX",
"#XoXoX$X|.OXXXXXXX$XOX#X$X#XXX]./. X X`.].].].oX$XXX(.(.OX#XXX].].].].].].{.#XoX%XXX].{.OX@X:X].].].oXOX].].].[.XX#X&X#X(. XXX#X"
};
