/* XPM */
static char *theoRR51704828127[] = {
/* columns rows colors chars-per-pixel */
"64 64 210 2 ",
"   c #020102",
".  c #0B0604",
"X  c #0D070B",
"o  c #080A04",
"O  c #130907",
"+  c #190A07",
"@  c #120A0F",
"#  c #1C0D0B",
"$  c #1E1509",
"%  c #141E01",
"&  c #0C0F12",
"*  c #100D15",
"=  c #0C191B",
"-  c #10131A",
";  c #1E111B",
":  c #17191A",
">  c #210E09",
",  c #24120D",
"<  c #2B150E",
"1  c #28180A",
"2  c #30160F",
"3  c #381C09",
"4  c #331A0A",
"5  c #261610",
"6  c #2C1610",
"7  c #2E1912",
"8  c #2C1A1A",
"9  c #321C15",
"0  c #3C1C13",
"q  c #321A18",
"w  c #1B2504",
"e  c #1B2B01",
"r  c #152100",
"t  c #0D211D",
"y  c #1F281A",
"u  c #20250D",
"i  c #282A09",
"p  c #3B3708",
"a  c #222A17",
"s  c #283919",
"d  c #27341A",
"f  c #34311C",
"g  c #372812",
"h  c #191623",
"j  c #1C1C33",
"k  c #291924",
"l  c #341E2D",
"z  c #351D25",
"x  c #183D31",
"c  c #1A2928",
"v  c #2E2122",
"b  c gray15",
"n  c #39202B",
"m  c #392131",
"M  c #34253A",
"N  c #2B3438",
"B  c #252D35",
"V  c #461E13",
"C  c #4C2512",
"Z  c #422218",
"A  c #492519",
"S  c #562B14",
"D  c #582716",
"F  c #64291B",
"G  c #6C2D1E",
"H  c #702E1E",
"J  c #70381A",
"K  c #75321C",
"L  c #47242C",
"P  c #582924",
"I  c #412538",
"U  c #45293C",
"Y  c #4C2D3E",
"T  c #583230",
"R  c #662D28",
"E  c #743120",
"W  c #793429",
"Q  c #6B3A36",
"!  c #622F31",
"~  c #2D4306",
"^  c #2F4B01",
"/  c #2C4109",
"(  c #304E00",
")  c #325202",
"_  c #3D5C05",
"`  c #3D580D",
"'  c #3C5712",
"]  c #3E6102",
"[  c #1F533E",
"{  c #425C06",
"}  c #7D4015",
"|  c #436503",
" . c #4B6F0F",
".. c #446808",
"X. c #4D7402",
"o. c #4F7A02",
"O. c #4C730C",
"+. c #4E7908",
"@. c #517D03",
"#. c #527C0D",
"$. c #517810",
"%. c #594131",
"&. c #7B4431",
"*. c #1F384D",
"=. c #352D4E",
"-. c #313C47",
";. c #333241",
":. c #2F2F57",
">. c #2B3E55",
",. c #33335E",
"<. c #3D3258",
"1. c #2D2A48",
"2. c #3B3B6D",
"3. c #3F3F73",
"4. c #442B43",
"5. c #432E4A",
"6. c #413249",
"7. c #413A49",
"8. c #423458",
"9. c #403B69",
"0. c #403966",
"q. c #38434F",
"w. c #2A5940",
"e. c #3D4A57",
"r. c #27565B",
"t. c #385E45",
"y. c #2B6D5C",
"u. c #286556",
"i. c #3D6558",
"p. c #3B4967",
"a. c #355B6B",
"s. c #3C4A76",
"d. c #3A5673",
"f. c #2E5560",
"g. c #3A6E65",
"h. c #346576",
"j. c #387473",
"k. c #33737A",
"l. c #357A72",
"z. c #397C66",
"x. c #41484B",
"c. c #5E4045",
"v. c #5F4A41",
"b. c #46525E",
"n. c #414253",
"m. c #645C46",
"M. c #4B6C56",
"N. c #424864",
"B. c #495767",
"V. c #4D5967",
"C. c #485665",
"Z. c #505F6E",
"A. c #546C73",
"S. c #843B1E",
"D. c #863724",
"F. c #8A3D25",
"G. c #854819",
"H. c #964A1C",
"J. c #A7551C",
"K. c #B0581F",
"L. c #9B4424",
"P. c #9A5634",
"I. c #8A4721",
"U. c #A05226",
"Y. c #AC5720",
"T. c #B25A20",
"R. c #B85F2B",
"E. c #B65A27",
"W. c #C15F23",
"Q. c #C96225",
"!. c #538402",
"~. c #558A00",
"^. c #588D01",
"/. c #57860A",
"(. c #599300",
"). c #5E8B12",
"_. c #669C03",
"`. c #689F02",
"'. c #65960D",
"]. c #669B0C",
"[. c #689F0C",
"{. c #649513",
"}. c #669912",
"|. c #689D12",
" X c #66A501",
".X c #69A402",
"XX c #67A900",
"oX c #6BAB02",
"OX c #69A30A",
"+X c #6DAA0B",
"@X c #67A00C",
"#X c #70AF0D",
"$X c #6EB301",
"%X c #6FB800",
"&X c #71B304",
"*X c #71BA01",
"=X c #72B40D",
"-X c #76BB0E",
";X c #78BE0E",
":X c #6BA412",
">X c #6EAA11",
",X c #70AE11",
"<X c #73B410",
"1X c #75B810",
"2X c #7AC40D",
"3X c #7ECA0C",
"4X c #79C306",
"5X c #37836F",
"6X c #348075",
"7X c #80CF0D",
/* pixels */
"oXoX%X+X_.oXoX$X$X$XoX$X$XoXOX'.`.`.`.'.{.{.].%X$X_._..X.X.X'.{.{.{.}.{.+X%XOXoX$X@X'.$X+X:X|.'.OX$XoX{.{.{.@X%XOX$X$XOX`..X$X$X",
"oXoX$X[..X.X$X$X%X$XoX$X$XoX_.{._._.`.'.{.'.oX$X$X{.].`..X`.{.{.}.@X@X@X$X$XOX$XoX[.$X$X|.}.OXOXoX%X|.{.'.@X$X$X.XoXoX_..X$X$XoX",
"oX$XoX'..XoX$X$X%X+XoXoXoX.X'.{.'._._.@X+X.XoX$XOX{.'.'._.'.{.'.oX+X{.oX*X.X.XoXoXoX%X@X{.+X+XoX$XoX}.OX+X$X%X X.XoX.XOX$X$XoX.X",
"$X$XOX[.$XoXoX%X$X X XoX X`.'.{.{.{.+X%X X@XoXoX_.{.{.{.{.{.OX$X$X{.@X%X$XOX XoX$X$XoX'.oX$X@X$X$X.X+X$X+X$X$X'..X XoXoX$XoX.X`.",
"$XoXoX$X$X_.oX%X+X`..X.X`._.'.{.'.OX%XoX{..XoX.X'.{.{.{.{.].$X$X].{.oX%X$X[..XoX$X$X X+X%X.X.XoXoX$X%XoX$X$X+X_.`.`.oXoXXX.X_..X",
"oXXX$X$X].].$X$X`._..X`._.'.{.'.+X$XoX'.'..X.X.X}.{.{.{.'.oXoXOX{.].oX$X.X_..X$X$XoX+X$X$X[..XoX$X%X$X$X$X$X[.'._.`..XoXoX{.[.$X",
".XoX$X.X{.+X$X$X]._._._.'.'.[.OX%X$X_.{.'._.`.`.{.{.{.}.OX XoX'.}..XoXoX[..X$X$XoX.X$X$XOX_..XoX$X$X%XoXoXoX'.{.{._..X$X].{.oX%X",
".X.X.X[.}.oX$X+X'.'._.].{.OX@X$X%X.X'.{.].`._.`.{.{.@X_.`.`.`.[.@X.XoX.X.X$X$XoX.XoX$X$X]._.oX$XoX%XoXoXoX.X}.{.{.'.$X$X}.@X%X%X",
"`.`..X}.[.$X$XOX{.{.{.'.+XoX+X$XoX`.}.@XOX'.].'.}.+XOX{.]._. X+X'.`..X.XoX X^.o.o.~.oXoX].$X$XoX$X%X.X.X.XOX{.{.{.+X%X@X{.oX%XoX",
"'.'.'.{.oX$XoX'.{.{.@XoX$XOX$X$X@X'.+X X{.{.'.'.oXoX{.{.{.].$X].'.`.`.oX.X^.^ w w ) ~.oX$X%X[. X*X$X_.`..X].{.{.[.$X$X}.].$X$XOX",
"{.{.{.'.$X$X.X'.{.OX*X*XoXOX$XoX'.oX$X{.{.}.@XoX%X|.{.{.'.$X+X}.'.'.`._.~.| w . . e _ (.XXOX'.$X$X+X_._.`.].{.{.oX$X X{.OX$XoX}.",
"{.{.{.$X$X.X.X'..X%X*X%XOXXX$X.X+X%X@X{.]..X+X%X+X{.}.OXoX%X@X{.{.'.'.!.( w $ # > $ w ^ ~.}.@X$X$X[._._._.'.{.[.$X$X].}.oXoX.X{.",
"{.{.@X%XoX`.`..X$X%X%X$XOXoXoXoX$XoX}.OX$XOX$X$X[.@XoXoX%X X$. . . .$.| e O , 6 < , O w _ #._.$X$X}.'.'.].'.{..XoXoX{.'. X.XOX{.",
"{.{.$X%X.X_.`.oXoX$X%XoX.X.XoX$X$XOXOX%XOXoXoXoXoX%XoX$X&X!./ w w w e e $ , 6 9 9 6 , , w ~ ~.$X.X{.{.{.{.].[..XoXoX{._.`..X_.{.",
"}..X$X$X]._..X.XoX$X$XOX.XoX$X$XoXOX$X$X_.oXoX$X%X$X$X X^.` % . . . X O , 6 7 9 9 9 < > . w !.$XOX{.{.'.oX[.].oXoXOX'._._.`.'.{.",
".XoX$X+X{.'._.`.&X$X$XoXoX$X$XoXoX$X$XOXOX.X$X$X%X$X$X~.( w , $ , 5 5 5 < < 6 7 9 9 6 # . e !.XX[.{.OX$XOX{._..X.X_.{.'._._.'.}.",
"@XoXoXOX{.{.'.+X&XoX$X%X%X%XoXoXoX$X$X).!.@.!.!.~.(. X!.i O , < 9 9 9 9 7 < < 7 9 9 6 # O e @..X'..X$XoX{.{._.`..X'.{.{.'.'.oX$X",
".XoXoX'.{.{.>X;XoX$X%X$X$XoX.X.XoX$XOX#.( e e e e ^ !.!.p $ < < 9 9 9 9 9 9 9 7 9 9 6 > o e X.`. X$X$X}.{.{._._.`.'.{.{.'.oX$X|.",
".X.X X'.{.:X2X&XoX$X$XoX$X.X`. X$X X!...s : : - - a | | i < 7 6 9 9 9 9 9 7 q q 9 6 > , e ^ !.`.oXoXOX{.{.{.'._._.'.{.'.oX$X@X{.",
"`..X`.'.{.;X;XOXoX$XoXoXoX].`.$X$X~.( s e.b.q.-.-.N a w 1 < 9 9 9 9 7 6 6 6 < < 6 , O e | !./.OX.X.X'.{.{.'.OX].'.'.{.OXoXXX{.{.",
"_.`.`.{.#X3X#X`..X X X$X@X{. X$X~...d N V.A.Z.B.C.-.& . , 9 9 9 9 9 6 6 q q q 8 , , e ( ~.].{._._._.{.{.].oX}.{.{.{._.`..X_.{.{.",
"_._.'.|.;X;X|._._..XoX$X}.}.%X(.^ d x.V.V.Z.A.A.C.-.- . 5 9 9 9 9 9 6 q z L m z @ w { ~._.{.{.{.'.'.'.+X%XOX{.{.{.{.'._.`.'.{.{.",
"'.'.'.,X;X<X{.{.'.+X%XOX{.+X%X~.^ d x.V.Z.Z.A.A.C.-.- X , 9 Z Z 0 9 q z L Y T L @ w o.oX@X{.{.{.{.{..X$X+X{.{.{.{.{.{.{._.{.{.{.",
"{.{.}.<X1X>X{.{.].$X%X}.'.$X$X'.#.{ f 1.V.A.Z.V.C.-.- . $ V D F V 9 n L ! W W D # e o..X].{.{.{.{._.$XoX}.{.{.{.{.{.{.{.{.|.|.{.",
"{.{.|.<X<X|.{.{.+X$X+X{..X$XoX'.{.$.p d e.b.q.q.N B & . > V G H 0 q L ! W D.D.F > w o..X'.{.{.{._..XoXOX{.{.{.{.{.'.{.{.>X:X{.{.",
"{.{.>X,X,X{.{.}.$X$X@X'.oXoXoX{.{.).$.] / : = - = & o . # V H H 0 V R W D.D.D.F > e o.`.'.{.{.@X`..X.X].{.{.{.}.OX{.{.<X<X{.{.{.",
"{.{.:X,X>X{.{.OX$XoX'.[.oX.X@X{.{.)./...C 3 < > > + . . > 0 D D 0 0 D E D.D.D.G < w _ @.).{.OX].'._._.{.{.{.}.+X].}.<X2X{.{.{.{.",
"{.}.:X:X:X{.'.oXoXoX{._..X X[.{.{.$.^ p G.H.K H F V + . > 9 0 0 7 2 0 D H D.D.H 0 5 w ~ #..X+X{.{.'.(.{.{.{.oX+X}.,X3X>X{.{.{.{.",
"{.:X|.:X}.{._.oXoXOX{.`.`.`.'.{.{.O.e 3 J.Q.L.F.F.S.C 3 2 < < < 7 7 8 0 F E E F Z 5 X w +.$X}.{.{.{.{.{.@XOX%X].:X2X;X}.{.{.{.{.",
"OX}.}.|.}.OX.X.X.X_.'._._._.'.'.@X!.e 3 J.Q.L.F.E.Q.K.G.C < < 6 7 9 9 0 V A Z Z g 5 X e ~.+X{.{.{.{.'.+X@X%X$X|.<X;X=X{.{.{.{.{.",
"}.{.{.{.+XOX_..X.X].{.'._.].[.+X X!.e 3 J.Q.L.I.J.J.E.U.J C 4 6 7 9 9 9 g 9 9 9 9 5 . e !.@X{.{.{.'.oX+XXX$XOX:X1X;X:X{.{.{.|.+X",
"{.{.{.OXoX}.`.`.`.'.{.{.}..X$X@X@X!.e 4 J.Q.L.K V C R &.L.H.C 6 6 7 9 q q q 9 9 9 5 . e !.}.{.{.{.+X$X@X$X$X|.#X4X&X{.{.{.@X$X+X",
"{.{.OX$X[.{._._._.{.}.+X+X$X+X{..X!.e 3 J.Q.S.A a b M c.P.U.J S S C 0 8 9 9 9 7 9 , . e @.{.{.{.@X%X+XoXoXoXOX*X;X+X{.[.OX$X$X}.",
"@X+X&X%X{.{.'.}.'.:X1XoXoXoX'.|.*Xo.w 3 J.K.C $ w.u.h.N.c.I.U.K.K.H.S 6 6 6 6 6 < , . e O.{.{.}.$X%X@XoXoXoX&X*X+X:XOX.XoX$XOX{.",
"oXoX&X.X{.{.{.{.+X2X+X.XoXOX}.-XoXX.e 1 } } f [ y.6Xk.h.e.7.P.R.R.U.J S S S S C < + . e O.{.{.+X*XoX.X XoXoX*XoX:X=XoXOX$X$X].+X",
"$X$X&X].{.{.{.:X2X-X_.`..X'.<X2X`.X.e O 1 f w.y.k.k.6Xl.d.C.c.Q Q &.U.K.K.K.K.G.4 .   e  .{.}.$X*X.X.X.XoX$X$XOXoX*XOXoXoXoX$X%X",
"$X$XoX{.{.{.}.-X2X:X'.OX_.>X3X>X'.O.e   = [ u.6Xk.k.y.u.a.p.6.Y 7.v.P.R.R.R.R.I.2   X u '  .@.(.XXOX`..X$X$X.XoX&XoXOXoX$X$X$X$X",
"oXoX.X{.{.{.,X2X=X}.>X}.:X3X2X{.{.O.e = [ y.h.k.l.y.x c N =.4.7.i.M.v.Q &.Q Q L @ X k k w w e ( ~.]..X%X$XoXoX$X$X[..X.X$X$X$X$X",
"oXoX[.{.{.|.1X-X>X,X,X{.1X3X<X{.{.#.e y t.z.k.k.6Xu.t @ l U 6.x.z.z.x.7.q.q.7.M * * l m ; @ @ u { !.XX$XoX.XoX$XoX]..XoX$X$X%XoX",
".XoX'.{.{.>X<X,X,X-X}.|.3X3X:X{.}./.e $ %.m.M.6Xk.r.= @ m 6.p.h.5X6Xh.a.g.g.a.q.- @ l I m l l v u ^ (.oX.X.X$X$X_.].oXoXoX%X$X X",
".X.X{.{.{.>X,X<X3X>X{.<X2X2X}.{.:X/.e , F &.M.M.f.>.h ; m <.a.j.6X6Xk.k.6X6Xk.r.= * k M m 4.U l @ e !.OX`.oX$XoX.X%X$X`.oX%X+X.X",
".X`.{.{.{.>X>X2X2X{.{.1X1X<X{.{.:X$.w # F F.&.%.b h k l I q.g.6Xk.k.6X6Xk.k.6Xu.t   X ; m U U l @ e o.'._.%XoXoX%X%X[._.$X%X_.`.",
"_._.{.{.{.:X1X3X<X{.:X<X1X:X{.:X>X$.e 5 F D.F.D > @ l 4.4.n.g.j.h.h.l.j.d.h.l.r.= o % : k m l b w ^ /.{.oX%X.XoX$X.X{.+X$XoX'.`.",
"_._.{.{.{.:X2X2X:X{.:X<X,X>X1X>X}. .e # F D.D.R > @ l 4.8.N.s.s.s.s.s.B.s.s.d.,.- % _ ` u @ @ u ..^.).OX%X$X.XoX+X].}.oX$X+X'._.",
"'.'.}.{.{.,X2X1X{.{.<X>X<X2X<X{.{.$.( i S G F V + X l 4.8.0.2.2.2.,.2.3.3.3.3.:.- e  .$./ w w ^ (.|.}.$X$X.X`..X.X{.[.$X$X@X{.'.",
"].OX'.{.}.1X;X>X{.>X,X,X2X;X}.{.}..X!.| i > > + . @ l 4.4.8.0.2.j j ,.3.3.3.3.:.- w  .).$. .+.(.XX{.[.$X$X[.]._._.{.oX$XoX].{.{.",
"%X|.{.{.:X<X<X:X>X1X:X=X;X:X{.{.+X*X@X(.^ e i r . @ l U U 4.8.=.h h 1.,.2.3.3.,.j y ' $.).|.XX%X@X{.oXoXoX{.{.{.{.'.$X$X X}.{.@X",
"].{.{.{.>X<X<X>X2X:X>X<X<X}.{.OX*X+X.X X~.+.~.] % @ l U U 4.4.;.m k h j ,.3.3.2.,.1.y ~ /. X$X$X].].oXoXOX{.{.{.{.oX$X X.X}.OX%X",
"{.{.{.{.>X>X,X3X;X}.:X>X:X{.}.&X%XOXoXoX.X X(.] w # m U U m m m l k X - =.0.0.2.9.:.- e O.oXoXoX}._.oX X[.{.{.{.OX%XoX`.`..X$X$X",
"{.{.{.{.>X>X;X3X>X{.|.:X|.:X#X%X$X_..XoX$X(.^ e 5 q m U U m ; @ X X   & M 5.5.8.9.:.- w O.oXoX.X{.`..X.X'.{.{.}.$X*X.X_..XoXoX[.",
"{.{.}.@X:X>X3X2X}.{.{.:X<X+X%X%X.X.X XoX$X!.e . $ 8 v m l v w e e e w u k n n M 8.=.k i { ~..X[.{.`..X.X'.{.{..X$X$X]._..X.X.X{.",
"{.].+X:X}.1X2X<X{.{.>X2X>X@X$X$XOX`..X$X$Xo.e     X @ @ & i ..!.!.~.+.` i @ @ ; M 4.P S i ^ ~.'.'._.oX`.{.|.OXoX$X+X'.'.`..X_.{.",
"+X$X|.].:X-X2X:X{.>X2X=X}.+XoXoX[..X%X$XoX~.) e w e e e e ) (.$X$XoX'.).) e w u z L P V + e X.'.{.#X#X]..XoX.XoXoXOX{.|.OX_.'.{.",
"$X@X@X}.>X-X<X:X>X1X1X}.'.XXoXoX X$X$X.X.X X(.o.O.o.!.~.~.(._.oXoXoX@X+X'./.o._ u # > +   e X.'.>X-X[.oX%X}.OXoXoX[.,X>X{.{.}..X",
"XXOXOX}.>X<X,X@X,X<X>X{.'..X.X XoX$XoX`..X$X$XOX[.$X$XoX%X$X XXXoX.X:X<X1X:X].X.e         w X.:X2X#XoX&X[.{..X.X$X;X=X{.{.{..X$X",
"+X$X}.}.>X<X>X:X>X>X}.{._.`..XoXoXoX.X_.oX$X.XoX$X$X`.oX4XXX_. X.X'.>X<X,X|.{.+X2X=X{.{.'.'.[.2X2XoXoXoX{.{..X&X3X;X}.{.{.[.oXoX",
"%XOX{.|.>X>X:X|.:X:X{.}.]._..X.X$X+X'.[.$X$XoX$X$X].[.$X&X_.`.`.`.'.>X>X>X{.:X<X1X:X{.{.{.{.=X3X&X.XoX].{.].oX4X4X>X{.{.{.`.oXoX",
"%X{.{.[.>X+X|.{.{.}.OX].{.{._..X$X].{.oX%X.XoX$X+X{. X$X$X]._._.`.}.:X:X:X{.:X>X>X{.{.{.}.[.2X2XoX_.`.'.{.[.&X;X=X{.{.{.'.oXoXoX",
"OX{.{.+XOX:X|.{.}.+XOX{.{.{.[.%XoX{.OX%X$X.X.X.X].}.oX$X+X'.(.].'.{.].@X:X{.:X:X:X{.{.@X].,X2X1X}._.].{.{.OX+X=XOX{.{.{.OXoXoX&X",
"}.{.+X+X|.{.}.'.oXoX{.{.{.].$X%X].{.$X$X.X_..X`.'.[.$X$X[.{.{.{.'.[.].|.{.{.{.{.{.{.@X+X|.1X;X,X{.{.{.{.{.|.:X>X}.{.{.|.*X.XoX$X",
"}.oX$X{.{.[.OXoX%X}.{.{.|.$X%XoX{.@X$X$X'.'.'.].{.+X%XXX].{.{.|.+X}.{.{.{.{.{.{.'.[.$X|.:X<X1X:X{.{.{.{.{.{.}.}.{.{.}.$X$XOX$XoX",
"oX%X@X{.@X+XoX$X+X{.}. X$X%X%XOX{..X$XoX{.{.{.{.].$X$X X'.{.+X$X].{.{.{.{.{.{.:XOX$XoX{.>X<X<X}.{.{.{.{.'.'.{.{.{.}.$X*XOX+XoXoX",
"%XoX{.OX$X@X$X$X].OXoXoX%X%X$X|.'.oXoXOX{.{.{.}.oX%X.X.X}.+X%X@X{.{.{.{.{.{.@XOX+X$X].}.>X#X#X}.{.{.{.}.@X{.{.{.}.+X%X%XOX.XoXoX",
"$XOXOX%XOX X$XoXoX%X+X$X%X$XoX{._.oX.X[.{.{.{.OX*XoX`.`.XX$XoX{.{.{.{.{.{.|.&XOX&X$X{.{.#X=X:X{.{.{.OX+X{.{.{.{.oX$X*XoX.X.XoX$X"
};
