/* XPM */
static char *theoRR71704828126[] = {
/* columns rows colors chars-per-pixel */
"64 64 205 2 ",
"   c #020203",
".  c #0B0604",
"X  c #0D070B",
"o  c #060A00",
"O  c #190A07",
"+  c #130B0D",
"@  c #1C0D0B",
"#  c #130907",
"$  c #1E1509",
"%  c #141E00",
"&  c #0C0E13",
"*  c #0D1A1D",
"=  c #111419",
"-  c #1A151B",
";  c #100D13",
":  c #210F0A",
">  c #24120D",
",  c #2A140E",
"<  c #291A0C",
"1  c #30160F",
"2  c #381C09",
"3  c #321909",
"4  c #261610",
"5  c #2C1610",
"6  c #2D1912",
"7  c #251A1D",
"8  c #321D15",
"9  c #3C1C13",
"0  c #321A18",
"q  c #1B2403",
"w  c #1B2B01",
"e  c #0E241C",
"r  c #21250D",
"t  c #22290C",
"y  c #292907",
"u  c #3D320A",
"i  c #272417",
"p  c #26331C",
"a  c #283819",
"s  c #383611",
"d  c #382017",
"f  c #1D1A2E",
"g  c #291923",
"h  c #351E2A",
"j  c #19272D",
"k  c #2E2123",
"l  c #3A2028",
"z  c #252D35",
"x  c #3A2131",
"c  c #36273A",
"v  c #2B3239",
"b  c #34353A",
"n  c #421D13",
"m  c #4C1F14",
"M  c #42200D",
"N  c #432116",
"B  c #4D2613",
"V  c #432218",
"C  c #4A241A",
"Z  c #4F281B",
"A  c #552A14",
"S  c #5E281A",
"D  c #552516",
"F  c #64291B",
"G  c #6C2D1E",
"H  c #702E1E",
"J  c #70381A",
"K  c #79351D",
"L  c #47242C",
"P  c #582926",
"I  c #412538",
"U  c #4A2E3D",
"Y  c #582E35",
"T  c #662D28",
"R  c #733020",
"E  c #793429",
"W  c #683837",
"Q  c #622F31",
"!  c #2D4503",
"~  c #2F4A01",
"^  c #2C4109",
"/  c #304F01",
"(  c #3D5B03",
")  c #3C560D",
"_  c #385604",
"`  c #3E5B11",
"'  c #3F6201",
"]  c #466708",
"[  c #4D7404",
"{  c #4F7B04",
"}  c #4C720C",
"|  c #517E02",
" . c #527B0D",
".. c #517810",
"X. c #4E7110",
"o. c #7D4231",
"O. c #313C47",
"+. c #3E3A42",
"@. c #2F2F57",
"#. c #37365A",
"$. c #25334B",
"%. c #3C3968",
"&. c #3F3F74",
"*. c #442D47",
"=. c #403A4C",
"-. c #423947",
";. c #473759",
":. c #403966",
">. c #38434F",
",. c #2A5945",
"<. c #3E4D56",
"1. c #25525E",
"2. c #305D4D",
"3. c #296F52",
"4. c #286556",
"5. c #3B6456",
"6. c #3B4968",
"7. c #375C6D",
"8. c #3C4A76",
"9. c #3D5174",
"0. c #295764",
"q. c #396E65",
"w. c #356D61",
"e. c #397B64",
"r. c #35746C",
"t. c #366272",
"y. c #35617B",
"u. c #387573",
"i. c #33737A",
"p. c #41414A",
"a. c #404D4D",
"s. c #5F4543",
"d. c #46525E",
"f. c #404454",
"g. c #476957",
"h. c #495767",
"j. c #4D5967",
"k. c #485665",
"l. c #505F6E",
"z. c #434C62",
"x. c #596879",
"c. c #576676",
"v. c #823A1F",
"b. c #863724",
"n. c #8B3E26",
"m. c #93491C",
"M. c #9F4D1E",
"N. c #854617",
"B. c #A7551C",
"V. c #AD571E",
"C. c #B0581F",
"Z. c #9D4524",
"A. c #9B5532",
"S. c #8A4721",
"D. c #A14F20",
"F. c #A05226",
"G. c #AB5228",
"H. c #B85F2B",
"J. c #B15821",
"K. c #C15F23",
"L. c #CA6325",
"P. c #D96D26",
"I. c #538302",
"U. c #548901",
"Y. c #588D01",
"T. c #54820A",
"R. c #5E8E0D",
"E. c #599100",
"W. c #5E8B13",
"Q. c #679C03",
"!. c #689F02",
"~. c #65970D",
"^. c #669B0C",
"/. c #689F0B",
"(. c #619607",
"). c #649513",
"_. c #669912",
"`. c #689D12",
"'. c #65A302",
"]. c #69A402",
"[. c #6BAB02",
"{. c #69A30A",
"}. c #6DAA0A",
"|. c #67A506",
" X c #70AF0D",
".X c #6EB301",
"XX c #6FB800",
"oX c #72B305",
"OX c #71BA01",
"+X c #72B40D",
"@X c #76BB0F",
"#X c #78BE0E",
"$X c #6BA412",
"%X c #6EAA11",
"&X c #70AE11",
"*X c #73B310",
"=X c #75B810",
"-X c #7AC40D",
";X c #7DCA0C",
":X c #79C306",
">X c #37836F",
",X c #37936E",
"<X c #348075",
"1X c #368A72",
"2X c #80CF0D",
/* pixels */
"[.[.XX|.Q.[.[..X.X.X[..X.X[.'.).Q.!.!.~.).)./..X.X|.(.].].].^.).).).).^.}..X{.[..X{.^.oX}.$X`._.^.XX[.).).).^..X}..X.X'.Q.].XX.X",
"[.[..X{.].]..X.X.X.X[..X.X[.^.).Q.Q.!.~.).^.[..X.X).~.!.].!.).).)./.{./..X.X{..X[.{.[..X`._.}.]..X.X_.)._.{..X.X].[.[.Q.]..X.X[.",
"[..X[.~.].[..X.XXX|.[.[.[.].^.~.~.Q.Q.{.].].[.oX{.).~.Q.Q.(.).~.}.}.).[.XX}.].[.[.[.OX{.).}.[.|..X|._.{.|.oX.X}.].[.].|..X.X].].",
".X.X{./..X[.[.OX.X].[.[.].!.~.).).~.{.OX{.{.[.[./.).).).).~./.oX.X).{.XX.X'.].[.[..X[._.|.oX}.[..X}.[..X[..X.X!.].].[.[..X[.'.].",
".X[.].OX.XQ.[.OX[.!.].].!.Q.).).).|.OX].).].[.].^.).).).).^..X.X^.).[.OX.X^.].[..X.X].].OX].].[.[..XXX[..X.X|.^.Q.'.[.[.[.].Q.].",
"[.[..XOX/.^..X.X/.Q.].!.Q.(.).~.|.OX[._.~.].].].).).).).~.[.[.|.).^..X.X].Q.]..X.X[.|.OX.X^.[.[..XXX.X.X.X.X^.~.Q.!.].[.[.).^..X",
"].[..X].).|.OXoX^.Q.Q.!.~.)./.{..X.X!.).~.Q.!.!.).).).).|.].].^.).].[.[.^.]..X.X].[..X.X{.Q.'.[..X.XXX[.[.[.^.).~.(.]..X^.).[.OX",
"'.].].^.).[..X|.~.~.(.Q.).{.{..XOX].^.).^.!.Q.Q.).)./.!.Q.!.].^.^.|.].[.]..X.X[.'.[..X.X^.Q.[..X[.XX[.[.[.].).).).~..X.X).{.XXXX",
"Q.!.!._.^..XoX/.).).).~.}.[.}..X[.Q.).{.{.^.^.(.).}.{.).(.Q.|.|.^.!.].].[..X[.'.]..X.X].^..X.X[..X.X{.].].!.).).).}.OX{.).[..X[.",
"~.(.^.).[..X[.^.).)./.[..X{..X.X^.^.|.|.).)._.^.[.[.).).).^..X{.~.Q.!.[.]..X].Q.]..X[.[..X.XQ.].OXoX!.!.]./.).)./.OX.X_.^..X.X{.",
").).)._..X.X].~.).{.OXOX[.].[.[._..X.X).).~.^.[.OX_.).)._..X}.).~.^.!.].[.[._.^..X.X]..X.X}.^.[.OX].Q.Q.].(.).).[.OX].).|..X[._.",
").)._.[.XX].].^.].OXOXOX}.[.[.[.|..X$X).^.}.|.OX[.)._.{.[.OX_.).).).(.!..X}.).|.XX[.[..X[._.^..X.X^.Q.Q.!.~.)./.[..X/.).].[.].).",
").).}.XX[.!.!.]..XOXOX.X^.[.[.[..X[.).{..X|..X.X{.{.[.[.XX.X).).).).`..X.XW.T.U.U.[ | U.(.).[..X.X_.~.^.^.~.).]..X[._.~.].].|.).",
").)..X.X].Q.].].[..XOX[.'.].[..X.X}.|.XX}.[.[.[.}.XX}..XXX|.).)._.%X[.XX}. .~ w w w w !  .~.[..X|.).).).~._.^.].[.]._.Q.].].^.).",
").[..X.X(.^.].].].OX.X|.].[..X.X[.]..X.X^.].[..XXX.X.X.X.X_._.%X@X$XOX[. .) q . . . . % ) I.[..X/.).).^.[././.].].{.~.Q.Q.!.(.).",
"].[..X|.).~.Q.Q.oX.X.X]..X.X.X[.]..X.X{.!.[..X.X.XXX[.[.[.`.=X-X$X].oXY.^ q : : $ @ : $ $ / E.[.^.).{..X{.).!.].].Q.).~.Q.Q.~._.",
"{.[.[.|.).).). XOX[..XXX.XXX[.].[..X[.^.!.[..X[..X[.[.[.[.+X-X%X^.|.E.( q # > 5 1 , , > . w | !.^.].OX[.).).Q.!.'.(.).).).^.|..X",
"|.[.].^.).).{.#X[..XOX.X.X[.].]..X.X}.^.]..X[..XOX].].[. X=X*X_./.Y./ q $ > 5 8 8 6 , @ . w [ !.].[..X_.).).Q.Q.!.~.).).^.[..X`.",
"].].].~.).$X-XoX[..X.X[..X[.!.]..X[.'.[.XX].[.XX[.|.].!.Y.T...X.[ ] q # : 6 6 8 8 8 5 > . w [ !.].[.{.).).).~.Q.Q.~.).~.[..X{.).",
"!.!.].~._.#X#X{.[.[.[.[.[.^.Q..X.X[..XXX}.Q..XOX|.!.'.U.! q w q w q > 4 5 5 5 5 6 8 , $ . w } !.].].~.).)._.{.^.~.).).].[.].).).",
"Q.Q.Q.).&X2X XQ.].].]..X{.).].OX[.[..X]...{ I.I.[ [ [ ( q . . . . # 6 6 5 , , 5 6 6 > $ q ^  .Q.Q.Q.).).{.[.^.).).).Q.!.].Q.).).",
"Q.Q.Q.`.#X#X^.Q.!.].[..X)._.OX.X].[.[.I.^ w w w q q w q $ > 4 5 4 6 6 8 5 5 , , 1 > # q (  .W.).~.~.).].oX{.).).).).~.Q.!.^.).).",
").~._.&X#X*X).).~.|.XX}.).|.OX[.'.Q.I.` a - * = = &   . @ 6 8 8 8 8 8 8 0 0 0 6 > O . w { ).).).).).].OX}.).).).).).).~.^.).).).",
").)._.*X=X%X).).^.XX.X_.^..X.X/.(.| ! p <.d.>.O.O.z & . : 5 8 8 8 8 6 0 h L x h +     w } ).).).).|.[.[._.).).).).).).).).`._.).",
").).`.*X=X`.).).}.OX].).]..X[.W...` p v j.x.l.h.k.O.= . @ 8 N d d 6 8 h L Y Y L + o % !  .).).).Q.].[.|.).).).).).^.).).%X$X).).",
").).%X&X&X_.)._..X.X/._.[.[.[. .^ p a.j.j.l.x.c.k.O.= . 4 N F F 9 0 L L T E E Z : % ( I.R.).)./.!.!.'.~.).).)._.{.).).*X*X).).).",
").).$X&X$X).).]..X[._.^.[.].!...^ p a.j.j.l.x.c.k.O.= . 4 V H H N 0 L Q E b.b.F : w [ Q.~.).}./.(.Q.Q.~.).)._.}.^.).*X-X`.).).).",
").`.$X$X$X).).[.[.[.).Q.].].^.W...` p v j.x.l.j.d.>.= . > n H H N 9 T E b.b.b.F : q } ).).{.|.).).).~.).)._.[.}.).*X;X%X).).).).",
").`.`.$X`.).!.].[.|.).Q.!.!.^.).). ./ a a.d.>.O.O.z & . @ 2 S S 9 9 F R b.b.b.G , y X.).{.OX).).).).).).^.].XX_.$X-X@X_.).).).).",
"{.`._._._./.].].].Q.).Q.Q.!.~._.{.].E.] p - = * = &   . > 1 9 9 1 5 9 D R b.b.H 9 s  .[.OX|.).).).)._.}.}..X.X_.*X-X X).).).).).",
"~.).)._. X{.!.].].^.).(.Q.^./.|.|.'.Y.] u 2 2 3 : O . . : , , , 5 5 5 9 F R R F N s ] E.[.^.).).).).[.}.|.OX{.%X@XOX$X).).).).}.",
").).).{.[.).Q.!.!.~.).)._.].oX{.^.Y.~ u N.B.B.m.J m O . : , , 5 8 1 8 8 V V C V 9 i t / Y.).).).).}..X|..X.X_.}.:X+X).).).$X.X}.",
").)./.OX/.).Q.Q.Q.)._.%X[.OX|.).].I.w 2 V.P.L.J.K S M M B B 8 6 1 0 8 8 8 8 8 8 8 4 . w I.).).).{.XX}.|..X[.{.OX#X}.).^.{..X.X_.",
"/.|.OXOX).).).).~.{.=X[.[.[._.`.OX| q 2 B.L.J.K M M N.B.V.m.B < 8 0 8 8 d 8 8 d 8 4 . w } ).)._..XXX|.[.[.].oXOX X`.{.}.[..X}.).",
"[.[.oX].).).).).%X#X X].].|._.@X X[ q 2 B.L.Z.F : 3 S.H.H.F.R Z d 8 8 8 8 8 d i 8 4 . w X.).).|.OX.X'.|.[.[.OX[.$X X[.]..X.X^.}.",
"[.OXoX^.).).).$X-X#XQ.!.!.^.+X#X!.[ q 2 B.L.Z.F : + P W W o.G.S.B 8 8 8 8 8 d 8 8 6 . w X.)._..XOX].!.[.[..XoX{.[.OX{.[.[.[..X.X",
"[..X[.).).).`.#X-X{.~./.^.%X;X%X(.} w 2 B.L.Z.F : + b p.=.s.A.G.J B d 8 8 8 6 8 8 , . q X.).|.OX.X/.].]..X.X[.[.OX[.|.[.[..X.X.X",
"[.oX|.).).).&X-X=X_.$X^.$X;X-X_.).} t 2 B.L.Z.F : * 2.q.7.z.-.S.F.m.B 1 6 5 5 5 , : . w X._.].[.[.^.]..X.X[.]..X.X^.!.]..X.X.XXX",
"[.[./.).).`.*X#X$X%X&X).=X;X*X).).T.w 2 B.L.Z.F : e 4.<Xi.t.+.W A.F.J A A D N 9 , @ q ^ X.~.[.[.].]..X.X].]..X.X|.^.].[..X.XXX[.",
"].].~.).).%X*X*X&X#X).$X;X;X$X)._.T.w 2 B.L.Z.F : * 1.i.u.q.>.U W o.F.J.J.D.v.D , % (  .W.^.].].[.[..X[.'.]..X.X/./.[.[.[.XX.X|.",
"].].).).).&X&X=X-X&X).*X-X@X_.).$XT.w 2 G.K.v.Z - j 0.i.<Xr.p.U +.s.A.H.H.G.S.P : q } ~.).Q.!.].[.[.[.'.!.[.OX[.]..X.X].[.OX].|.",
"].!.).)._.$X&X-X-X)._.=X@X*X).).$X..w 2 B.C.B 7 $.0.<X<Xi.7.-.p.5.g.s.W W W Y x + q } ^._.Q.Q.].].[.[.~.Q..X[.[..XOX/.{..XOX!.!.",
"Q.Q.).)._.`.*X;X*X).$X=X=X$X_.$X%X .q 2 B.B.2 e 1.u.>X>Xt.6.#.<.e.e.d.+.f.p.+.c ; w | ^.).).(.'.]..X_.).[.OX].[..X].).|.OXoX^.Q.",
"Q.Q.).)._.$X-X-X$X).$X*X*X$X*X&X`.X.w 2 B.B.2 e 4.,X,Xe.<.>.6.t.>X>Xt.t.q.q.t.$.= w } ).).).).^.OX[.).{.OX.X].[.[.^._.[..X{.~.(.",
"~.~._.).).&X-X=X_.).&X%X*X-X=X).).} w 2 B.B.2 e 3.,X,Xe.p.=.7.i.<X<Xi.i.<X<Xi.0.j r ` X.W.).).}.XX^.)..X.X].!.].'.).^..X.X/.).~.",
"^.}._.)._.*X@X&X).%X&X&X-X#X_.).).I.w 2 B.B.2 e 3.,X,Xe.p.=.q.u.i.i.<X<Xi.i.<Xw.b k r ^ ..).{.XX.X).{..X.X/.^.Q.Q.).[..X[.~.).).",
".X_.).).$X*X*X$X%X=X$X=X=X$X).).[.U.w 3 m.M.B i ,.3.3.2.-.p.q.u.y.y.u.u.y.y.q.5.b g r ^ ..^.[..X{.).]..X[.).).).).^..X.X].).)./.",
"^.).).).%X&X*X&X-X%X$X*X*X_.).{.OX| w > K n.H Z i e e j c -.6.8.8.8.9.9.8.6.f.b 7 r ` ..(.}..X.X^.^.[.[.{.).).).).[.XX].].~.}..X",
").).).).%X%X*X-X-X`.$X%X$X)._.oX.XT./ y D F F m O   X - x *.%.&.&.&.@.@.#.;.*.x + q  .[./.].oX[.).^.[.]./.).).).{.OX[.].Q.].OX[.",
").).)._.$X%X@X;X%X).`.`.`.$X XXX.X(.U.] y : : O . X g h *.*.:.&.&.%.f f c *.*.h + w U./.^.[.[.{.).!.].].~.).)._.[.OX].Q.].[.[./.",
").).).$X{.*X;X-X`.).).$X*X}..XXX].!.'.U./ w w w w r h h I *.:.:.&.@.= ; h I h g q / T.)./.].[.!.).Q.].].^.).).].OX.X^.Q.].].].).",
").{.|._._.=X-X*X).).%X-X%X{..X.X|.!.].[.Y.| I.U.{ ( r 7 x ;.:.z.&.@.= ; h x 7 t ' Y.W._.].[.].~.~.Q.[.].)._.{..XoX].).(.!.!.!.).",
"}..X^.^.$X@X@X%X).%X-X=X_.].[.[.^.[..X.X[.[..X.X^.U.~ w k c ;.;.@.$.; X g k r ! Y.^._.+X].].].~.). X X~.].}.{.[.[.{.)._.{.Q.~.).",
".X{.{._.%X=X=X`.$X=X=X_._.[.[.[.|..X.X[.].[..X|.~.Q.E.] t 7 P Y g ;     X r ( | (.*X-X}.Q.Q.Q.~.&X@X/.[.oX^.|.[.[.`.&X&X_.)._.].",
"}.}.{._.&X*X*X`.&X=X%X).^.'.'.[.[..X[.!.]..X.X!.^..X.XI.y : F F :         w [ !.@X-X%X).Q.Q.Q.$X-X X[.OX{.).].]..X#X*X).).).].oX",
"|..X)._.%X*X%X$X$X%X_.).Q.!.].].[.[.!.Q.[.OX[.]..X.X!.[.XX[.!.].].^.%X%X&X_.). X#X=X_.)._.(.^.-X-X[.[.].).~.].[.;X#X_.).).!.[.[.",
"OX{.).`.%X&X$X`.$X$X_._.^.Q.!.'.[.[.).{.OX[.[..X.X/.^..XXXQ.!.!.!.^.%X&X%X).$X*X*X$X).).).).*X2XoX].].^.).(.[.:X:X$X).).).!.[.[.",
".X_.).`.}.%X`.)._._.^.^.).).Q.]..X^._.[.OX].[..X]._.|..X.X~.Q.Q.Q._.$X$X$X).$X&X%X_.).)._.`.-X-X[.Q.].).)./.oX@X+X).).).~.[.[.[.",
"}.).).{.}.`._.)._.}.}.).).)./.XX|._.{.OX.X].].[.^._.[..X|.).~.Q.(.).`.`.`.`.`.$X`.).).{./.&X-X=X^.~.Q.).).$X+X+X}.).).).}.[.].OX",
").).}.}._._.).^.[.[.).).).^..XXX/.)..X.X].Q.!.!.).{..X.X{.).)._.~././._.).).).)._.).{.|.`.=X#X&X)._.).).).`.$X$X_.).).^..X].[.oX",
"^.[. X_.)._.{..X.X^.).)._..XOX.X).{..X.X^.).~.(.).|.OX[.^.).)._.{._.).).).).).).^./..X_.$X=X=X$X).).).).).)._._.).).^..X.X|.[..X",
"[.XX^.).{.].|.XX}.)._.}..XXX.X{.).].[.[.).).).).^..X.X].~._.{..X$X).).).).).).`./.oX[.).$X*X*X`.).).).)._._.).).)._..XOX}.].[.[.",
".X[._.|..X{..X.X^.}..X|.XXXX.X_._.[.[.|.).).).)..XXX].].^.}..X{.).).).).).).{.{.|.OX^._.&X&X X_.).).).^.{.).).)._.|.OXoX|.[.[.[.",
".X{.{.XX|.[.[.[.[..X|..XXX.X[._.!.].].^.).).).}.XX[.!.!.|..X[.).).).).).).`..X{..XoX).). X+X$X).).).{.{.).).)._.[..XOX[.!.].]..X"
};
