/* XPM */
static char *monster_left1704828125[] = {
/* columns rows colors chars-per-pixel */
"64 64 200 2 ",
"   c black",
".  c #070B00",
"X  c #040209",
"o  c #131E01",
"O  c #0A0417",
"+  c #0E051E",
"@  c #13091F",
"#  c #192604",
"$  c #1B2B01",
"%  c #142100",
"&  c #1E2517",
"*  c #1D211A",
"=  c #1F3203",
"-  c #26291E",
";  c #282B1F",
":  c #20271A",
">  c #110721",
",  c #170A26",
"<  c #1A0C29",
"1  c #180835",
"2  c #1B0A38",
"3  c #171533",
"4  c #161836",
"5  c #210E3D",
"6  c #262522",
"7  c #272920",
"8  c #292C27",
"9  c #222034",
"0  c #26342C",
"q  c #2D4503",
"w  c #2F4B01",
"e  c #2C4108",
"r  c #304E02",
"t  c #3A5807",
"y  c #3D5514",
"u  c #3F5A14",
"i  c #3E6304",
"p  c #405D0E",
"a  c #43650A",
"s  c #4B6F0F",
"d  c #436A09",
"f  c #4D7602",
"g  c #4F7B03",
"h  c #4C730C",
"j  c #517E03",
"k  c #527C0D",
"l  c #436314",
"z  c #517810",
"x  c #517711",
"c  c #526231",
"v  c #1F0B45",
"b  c #251344",
"n  c #2D1547",
"m  c #2C184B",
"M  c #290E5B",
"N  c #2F1D55",
"B  c #2D2C40",
"V  c #282358",
"C  c #342750",
"Z  c #3D3B53",
"A  c #2D0F63",
"S  c #311364",
"D  c #39176D",
"F  c #36176A",
"G  c #37137A",
"H  c #3B167C",
"J  c #341272",
"K  c #3A236D",
"L  c #40255D",
"P  c #451F73",
"I  c #402967",
"U  c #4E247A",
"Y  c #523873",
"T  c #38407B",
"R  c #424359",
"E  c #504572",
"W  c #61407E",
"Q  c #62687D",
"!  c #538301",
"~  c #558901",
"^  c #55820B",
"/  c #5C8B0D",
"(  c #5A8D05",
")  c #599301",
"_  c #5D950A",
"`  c #5E8B13",
"'  c #679C03",
"]  c #689F02",
"[  c #65960E",
"{  c #669B0C",
"}  c #689F0C",
"|  c #619502",
" . c #649513",
".. c #669912",
"X. c #699D12",
"o. c #608F0E",
"O. c #65A500",
"+. c #69A402",
"@. c #67A901",
"#. c #6BAB02",
"$. c #69A30A",
"%. c #6CAA0B",
"&. c #66A10A",
"*. c #70AF0C",
"=. c #6EB301",
"-. c #6FB800",
";. c #71BA01",
":. c #72B30D",
">. c #76BB0E",
",. c #78BE0F",
"<. c #71B304",
"1. c #6BA412",
"2. c #6EAA11",
"3. c #70AE11",
"4. c #73B310",
"5. c #75B810",
"6. c #7AC30D",
"7. c #7DC90B",
"8. c #421983",
"9. c #491E88",
"0. c #4C218C",
"q. c #4B2D85",
"w. c #532683",
"e. c #552B87",
"r. c #572C8B",
"t. c #51308F",
"y. c #5E358F",
"u. c #542392",
"i. c #582891",
"p. c #5E2A9A",
"a. c #443E99",
"s. c #583698",
"d. c #533694",
"f. c #492896",
"g. c #612D99",
"h. c #613894",
"j. c #5D34A5",
"k. c #652EA0",
"l. c #6733A6",
"z. c #6830A3",
"x. c #6539AD",
"c. c #6A38A6",
"v. c #643CB0",
"b. c #60438B",
"n. c #757294",
"m. c #6C728B",
"M. c #4147A3",
"N. c #4A46AA",
"B. c #5847B7",
"V. c #5B49BD",
"C. c #5545BA",
"Z. c #474DB0",
"A. c #6A43A9",
"S. c #7247A7",
"D. c #744EAA",
"F. c #7852AC",
"G. c #6242B7",
"H. c #6145BB",
"J. c #6846B6",
"K. c #6E50B1",
"L. c #7956B4",
"P. c #6C6FB1",
"I. c #5E4BC3",
"U. c #5B54CD",
"Y. c #5452C4",
"T. c #585CD6",
"R. c #575FD9",
"E. c #6252C3",
"W. c #6C5DC9",
"Q. c #6966C6",
"!. c #6972D2",
"~. c #716AD2",
"^. c #8576AE",
"/. c #816AB0",
"(. c #8479B2",
"). c #847BBA",
"_. c #937BCA",
"`. c #7B86C8",
"'. c #8E8EB2",
"]. c #8B96BB",
"[. c #9499B9",
"{. c #848FA4",
"}. c #9DAEBC",
"|. c #938DC0",
" X c #9A9EC0",
".X c #9C99DF",
"XX c #9BA8C7",
"oX c #AAB7D5",
"OX c #B3BFDD",
"+X c #A7B3CC",
"@X c #9B9CE3",
"#X c #B7BAEA",
"$X c #A090D5",
"%X c #B2C3D7",
"&X c #BFCEEB",
"*X c #B5C5E2",
"=X c #C0CFEF",
"-X c #C2D2EF",
";X c #CADAFB",
":X c #C5D0F6",
/* pixels */
"@.#.=.%.' #.#.=.=.=.#.=.=.#.$.[ ' ] ] {  . .} =.-.' { @.+.+.{  . . .....%.-.$.#.=.} { <.%.X.X.{ } =.#. . . .} =.%.=.=.$.] +.=.=.",
"#.=.=.} +.+.=.=.=.=.#.=.=.#.{ [ ' ' ' [  .{ #.=.#.[ [ ] ] ] .. . .} $.&.=.#.$.=.#.$.=.=.X.X.$.$.#.;.}  ...$.-.#.@.#.#.} @.=.=.+.",
"#.=.@.[ +.#.=.=.;.@.@.#.#.+.[  .[ ' ' $.%.%.@.=.$. .[ ' ' [  .} #.%...#.;.+.@.#.#.#.=.} ..%.@.#.-.@. .$.#.#.;.$.+.@.+.+.=.=.#.+.",
"=.=.$.} =.#.@.-.=.%.+.#.+.] [  . .[ %.=.$.' #.#.{  . . . ...} =.%...} -.;.' +.@.=.=.#.{ %.=.$.#.#.%.%.<.%.=.=.} +.+.+.#.=.#.] +.",
"=.#.#.=.=.' #.;.#.' +.@.] ' [  ...%.=.%. .+.+.@.{  . . . .{ #.=.{ ..#.=.=.' +.@.=.=.+.%.;.+.+.#.=.=.;.=.=.=.+.{ ] +.+.#.#.+.' @.",
"#.@.=.=.} } =.-.' ' ] ] ' [ ..[ +.=.#.{ [ ] @.+... . . .{ +.#.$. .} #.=.%.' +.=.=.#.%.=.=.} #.#.=.-.=.#.#.=.} [ ' ] +.@.#...{ =.",
"+.#.=.+. .%.=.#.{ ' ' ' ....} ' ;.=.'  .[ ] ] '  . . ...$.@.+.{ ..' #.#.} +.=.=.+.#.#.=.$.' +.#.#.-.-.#.#.#.{  .[ ' +.-.}  .%.;.",
"+.+.+.} ..#.=.%.[ [ ' [  .$.$.=.=.+.{  .{ ] ' '  . .{ ' ' ] ] } } $.@.@.+.=.-.' ~ ~ @.=.{ ' #.#.#.;.#.@.@.+... . . .-.#.[ } ;.=.",
"' ' ]  .} =.=.$. . ...[ %.%.%.-.#.' [ { &.{ ' [ [ %.&...[ ' O.%.{ ] +.+.@.#.=.! q r ( @.} =.=.@.=.;.+.+.+.'  . . .%.;.$...#.-.#.",
"[ ' [ ..+.=.#.{  . .} #.-.$.#.=.' { %.@. . .[ { @.%... . .{ =.{ [ | ! j j j j t : : p ~ #.=.' @.;.=.' ] +.{  . .} =.#...{ #.=.$.",
" . .....=.=.+.[  .%.=.;.#.$.=.@.{ %.=... ...} %.;.{  . .{ #.#...[ g q $ $ $ # * b b : r ) $.[ #.=.%.' ' ] {  ...#.=.%...+.#.@...",
" . ...#.;.+.] [ %.=.;.;.+.#.#.@.%.-.{  .{ %.@.-.%. ...&.=.#.k s s y * + + + + 1 A M + $ j ..$.=.=.} ' ' ' [  .{ =.#.$.[ #.+.@...",
" . .$.;.#.] ' #.#.-.;.=.$.#.+.#.-.%...$.=.@.=.=.} &.#.%.-.( e # # * b M M M M A J M + $ f  .@.=.=...[ [ [ [ ..@.#.#.[ { +.+.$...",
" ...#.-.+.' +.+.#.-.;.#.' #.#.=.=.&.$.@.^ g ! ~ ! ~ g ~ ~ p * + > 1 A G G J A M M b & q k [ =.=.@. . . .[ X.{ +.#.+...[ +.+.'  .",
"[ %.-.=.{ ' +.+.#.=.=.$.+.#.-.=.@.@.-.) q $ $ $ $ $ $ $ $ : b M M A J G G A 1 + + * y k / $.=.#.}  . .[ +.$.} +.#.$. .' ' ' [  .",
"%.#.#.%. .[ ' ] =.=.=.#.#.@.) j ! ! ~ u 7 < 3 4 4 4 4 3 < v D 8.H G G J A v O . o e z  ...#.=.#.{ ..$.=.$...' +.+.'  .' ' ' [ ..",
"' #.#.$... .[ *.=.#.=.;.=.) r $ $ $ $ 6 L q.a.M.M.M.M.a.q.w.i.u.8.G G S 1 O X o t x `  .+.;.#.] { $.-.%. . .' ' ] [  . . .{ %.#.",
"+.@.+.{  . .%.>.#.=.;.@.) a - < < < 3 V d.V.U.T.R.T.U.I.x.z.z.k.9.8.8.S > . o q x  . .[ ) ~ f f j ! ! k `  .' ' ] [  . .{ #.=.} ",
"+.+.@.[  .1.,.<.#.=.-.~ r - L U U q.a.N.Y.U.T.R.R.U.J.v.l.k.k.z.g.p.p.P , o t ! `  . .~ r $ $ $ $ $ $ = x  .{ ] ' [  .[ #.=.$...",
"] +.]  ...,.,.$.#.O.~ a ; m t.x.l.x.I.U.T.R.R.T.T.V.s.h.F./.F.c.c.z.z.U < o t h s s k d ; < < < < < < 8 p h g k o.[  .] #.+... .",
"' ' ' ..3.7.*.' +.~ q ; L t.B.I.x.z.x.H.U.R.R.U.H.s.K E |.oX X^.S.z.z.U < . o # # $ $ 7 L U U U U U U L 7 $ # e x  .[ ] +.' .. .",
"' ' [ X.,.,.} ' ' g $ < U x.H.E.K.F.F.K.E.U.R.U.x.y.R Q XX%X+X'.D.l.x.t.m < < , > > , n w.z.z.z.z.z.z.w.n < < 6 p k o.' ' [  . .",
"[ [ [ 3.,.4. . .{ g = < U c.x.K.(.'.'.(.K.H.U.U.v.S.n.{.}.+X}.'.D.x.H.B.t.U U P S S P w.g.z.z.z.z.z.z.g.w.U U L 6 = x [ '  . . .",
" . ...4.5.2. .` k a & 5 w.c.D./.[.+X+X X/.K.E.I.H.K.(.'.].].'.^.S.v.U.U.G.x.l.p.8.8.u.g.z.z.z.z.z.z.z.z.z.g.w.L 6 e x  . .X... .",
" . .1.4.4.1. .x q & b D i.S.^.[.%X-X&X%X X^.F.G.I.E.K.L.~.Q.L.S.c.v.U.T.T.H.x.p.8.H 8.9.g.z.z.z.z.z.z.z.z.i.m 6 p k `  .2.2. . .",
" . .2.3.2... .h $ > S 0.r.b.n.[.*X;X;X-XOX X/.K.E.I.G.V.I.U.G.v.v.G.I.U.T.U.H.j.0.8.H H 9.P U U U U U U U C 6 e ^ .. .4.4. . . .",
" . .1.3.1.....g $ , I e.C C Z m.oX;X;X;X-XOX X^.K.G.I.I.H.v.I.U.U.I.H.H.U.T.T.V.j.u.8.S 5 < < < < < < < < 6 u ~ [ ..4.,. . . . .",
" ...1.1.X. ...j $ < U r.C 9 9 R {.oX-X;X;X-X%X XF.v.U.U.v.I.U.R.R.U.H.G.I.U.U.V.x.i.D b * $ # # # # # # # e ( #...3.7.3. . . . .",
" .X.X.X.X...' j $ < U e.C 9 9 B R m.oX;X;X;X=X.XL.v.U.T.U.U.R.R.R.R.U.I.G.v.v.x.l.w.v : u ~ s s s s s h f ^ #.{ 1.6.,... . . . .",
"$.X.......} ] j $ < U e.C 9 9 0 R m.oX;X;X;X:XoX/.x.I.U.U.U.R.R.R.R.R.U.H.v.v.l.r.C 7 q ) %. . . . ...%.} -.=.X.4.,.*... . . . .",
".. . ...%.$.' j $ , U r.C 9 9 R {.oX&X;X;X-X%X[.F.l.x.v.v.I.U.R.R.R.R.T.U.U.U.M.V - u ) =.{  . . . .#.%.%.;.$.2.>.>.X. . . . .*.",
" . . .$.<.[ ' f $ , U i.I C L Q XX&X&X&X=XOX[.(.S.z.z.z.z.v.~.~.T.U.T.R.R.T.U.a.3 $ ! =.=. . . . .+.=.$.=.#.} #.6.<. . ...X.<.%.",
" .[ $.-.&. .| f $ < U z.i.b.m.{.}.%X+X+X+X X/.S.c.z.z.z.l.K.@X@XW.J.U.R.R.U.H.q.< $ ~ =.&. . . .$.;.%.%.#.#.$.;.,.2...{ $.=.=...",
"} %.=.=... ...s # , P p.z.A.'.].].].].].'.(.K.v.v.x.z.c.L._.#X#X).F.E.U.U.I.x.w.n 7 a ! h s s k @.-.&.@.#.@.<.;.*.} %.+.#.-.}  .",
"%.#.-.%. . . .s $ + S 0.p.A.W.!.!.!.!.Q.L.K.E.U.U.I.x.L.$X#X&X&X X).K.v.v.x.l.g.w.L 7 $ $ # # q ) #.+.@.#.=.=.#.1.<.%.$.=.#.{ %.",
"@.-.=... . . .^ t : b F i.v.I.U.U.Y.U.I.G.B.I.U.U.I.x.D.|.oX*X%XXX).S.z.z.k.g.p.p.U n < < < < - s ~ | +.#.=.=.%.<.=.$.@.=.#.=.-.",
"=.=.#... . ...4.{ u & b U l.x.v.A.j.G.G.I.I.G.v.x.x.z.g.E Q [.XX`.Q.v.z.z.p.9.9.8.8.U U U U U L ; q ! +.=.=.@.%.;.%.' #.#.=.-.=.",
"#.#.$. . . .2.6.4.s $ , U s.x.x.l.l.z.x.I.I.x.l.x.v.v.s.K E {.`.Q.I.x.z.z.p.8.H 8.0.j.v.v.v.v.t.m 7 a ~ ~ g g ) @.} +.+.=.=.-.=.",
"+.@.}  . .1.5.5.1.^ # > S f.C.V.x.z.z.l.x.x.l.x.I.U.U.V.s.s.K.Q.H.x.l.z.k.p.8.8.u.j.V.U.U.U.U.B.t.L 7 $ $ $ $ r ~ [ ] #.=.=.-.@.",
"+.@.{  . .2.4.4.4.[ e & m H N.I.x.z.z.l.x.x.l.c.I.U.T.U.v.x.U.I.x.z.z.k.p.u.8.8.p.x.I.U.T.T.T.U.H.t.V 3 < < < - p j @.#.#.=.=.$.",
"+.+. . ...3.3.4.6.1.x u - b q.x.l.z.z.x.H.I.x.c.x.V.U.U.v.l.x.x.l.k.k.k.0.8.H 8.p.z.c.H.U.R.R.T.U.V.N.a.q.U U L 7 r ) +.#.;.#.$.",
"] +. . ...1.3.6.6....._ r 0 K w.i.p.k.x.U.U.H.v.x.G.I.I.x.z.z.k.k.p.p.u.9.H S F Y b.Y t.B.U.U.U.U.U.U.I.x.g.w.L 7 r k ' =.=.' ] ",
"] '  . ...X.4.7.4. .1.%._ u 6 b D 0.p.G.U.T.U.U.U.I.G.x.l.z.z.p.0.8.8.9.i.P v 6 c c 8 N t.v.v.v.G.x.x.x.l.w.n - d ~ ` %.=.#.{ ] ",
"' '  . ...1.6.6.1. .1.4.4./ r : b F 0.j.V.U.U.U.U.I.x.z.z.k.g.u.8.G 8.0.g.U < # j ) e 6 L U U U U U U U U L - r ( { { #.=.%.[ ' ",
"[ [ .. . .3.,.5... .2.2.:.5._ y * 2 F 0.j.x.v.v.x.x.l.k.z.g.0.8.G 8.u.p.k.U < $ ~ $.x y 6 < < < < < < < < 7 p ! |  .} =.=.} ..[ ",
"{ %... ...5.5.3. .2.4.2.6.,...s # + M 8.u.i.w.w.i.p.p.p.p.0.F S H 0.g.z.x.q.3 $ ( .. .x = # $ $ $ # $ $ $ q k ' '  .@.=.#.{  . .",
"=... . .1.5.5.1.2.5.1.:.>.1. .s $ + M G 8.D 5 b D 8.8.8.8.F 2 5 P g.z.x.I.a.3 $ k  . .` z h ! ~ k s ! ~ j z ` ....[ =.=.+... .} ",
"{  . . .1.3.4.3.6.2.2.4.4... .k $ + M J A b & & b A G G G M + > F w.g.v.U.Z.V 0 l x ` ..%.%.=.=.{ [ #.@.$. . . . .#.=.@.'  .%.-.",
" . . . .2.2.4.6.,.X.1.2.1. ...~ $ + M A 1 : i t : 1 A G G M + X @ m w.v.U.U.Z.T 8 e ( %.[ #.<.#.[ ' @.@.}  . . .$.;.#.] ] +.=.=.",
" . . ...1.2.,.7.2...X.X.X.X.*.~ $ + M M + $ ! ~ r & b A J M +     < U A.U.R.R.M.4 $ ! ....#.#.$...' +.+.[  . ...=.=.+.' +.#.#.} ",
" . . .1.$.3.7.6.X. . .1.4.%.-.~ $ + M M + $ j O.) u & 1 A M +     < U J.U.R.R.M.4 $ f  .' #.#.'  .' ] +.[  ...+.=.=.{ ' +.+.+...",
" .} %.X.X.5.6.4. . .2.6.2.&.=.) q & b v O $ ! -.#.g $ + M M + . % ; C d.V.R.R.M.4 $ h  .#.#.+.{ [ ' #.+.....$.#.=.%.[ [ ] ] '  .",
"#.=.{ { 1.,.6.1. .3.6.5...%.@.O.^ p & O X $ ! =.{ g $ + M M + % i a 6 V Z.R.R.M.4 $ x 4.#.] ] .. .*.*.[ +.%.+.#.#.}  ...$.' [  .",
"=.&.&...1.>.5.X.1.5.5...{ @.+.+.+.) r $ $ r ) #.{ g $ + M M + $ ! g $ 3 M.R.U.a.3 $ / %.' ' ' [ 3.>.} #.=.{ $.#.#.{ 3.3... ...+.",
"%.%.&...3.4.3.X.3.4.3. .[ +.@.+.#.@.~ f g ~ @.$.} ! $ + M M + $ j g # 4 M.T.H.q.< = ^ ..' ' ' 1.6.*.#.<.$. .+.+.#.6.3... ...+.=.",
"%.#.....3.4.2.1.1.3... .' ] +.#.#.#.+.' @.;.+.#.-.~ # + M M + $ g ^ q 0 K N.j.e.m 7 y x o.[ { 6.6.#.#.#...[ ] <.7.6... . .} #.#.",
"=.$. .X.1.3.1...X.1...[ { ' ' +.#.%.[ } -.#.#.=.=.h $ + M M + $ f [ ` l 0 N q.g.w.I 6 = k X.4.7.<.+.#.{  .[ #.6.7.$. . . .] #.#.",
"<... ...%.3.X. .....} {  .[ ' @.=.{ ..#.=.@.#.=.+.s $ O v b * q j [ 1.k # < U z.z.U , # h 1.6.7.#.' ]  . .{ ;.>.:. . . .[ #.#.#.",
"%. ...%.%.X... ...%.$. . . .} =.%.[ $.;.=.+.#.+.} h $ X O * t k ( ..X.k # < U z.z.U < # h 4.6.5...' '  . .$.*.<.1. . . .$.<.+.;.",
"[ ..%.%.......{ <.%.[  . .{ -.;.{ ..=.=.+.' ] ] ..^ r $ = = z  .[ } { z e 6 L U U L 7 r k 5.,.3. . . . . .X.1.1... . .{ =.+.#.=.",
"..#.=.....{ } =.-... . ...=.-.=. .} =.=.{ [ [ [  .' ) ! h z ` { $... .` z y 6 < < 7 a ^ ..5.5.1. . . . . . ..... . .} =.<.$.#.=.",
"%.-.{  .} @.%.=.%. .[ %.#.;.-.$...+.#.#. . . . .{ =.#.@.[ [ %.=.X. . . . .x = $ $ r (  .2.4.3.X. . . . ..... . . ...#.;.%.@.#.#.",
"-.#. .%.#.$.=.=.} $.#.@.;.=.=...[ #.#.$. . . ...#.;.@.] [ %.-.$. . . . . .` / k j ) [  .2.*.3... . . .X.$. . . ...#.;.=.$.#.#.#.",
"=.&.&.-.%.@.#.#.#.-.%.=.-.=.@...' +.@.'  . . .%.;.#.] ' %.-.#. . . . . . .$.#.%.=.#. ...*.*.1. . . .} #. . . ...%.=.;.#.] +.#.#."
};
