/* XPM */
static char *monster_right1704828125[] = {
/* columns rows colors chars-per-pixel */
"64 64 200 2 ",
"   c black",
".  c #050604",
"X  c #141E00",
"o  c #0A0417",
"O  c #0E051E",
"+  c #13091F",
"@  c #1A2604",
"#  c #1B2B01",
"$  c #152200",
"%  c #1E3102",
"&  c #1F2517",
"*  c #1E221A",
"=  c #252A1D",
"-  c #282B1F",
";  c #26261F",
":  c #110721",
">  c #170A26",
",  c #1A0C29",
"<  c #180835",
"1  c #1B0A38",
"2  c #171533",
"3  c #161836",
"4  c #210E3D",
"5  c #262622",
"6  c #272920",
"7  c #292B22",
"8  c #2E2D2A",
"9  c #263228",
"0  c #222034",
"q  c #2D4304",
"w  c #2F4A02",
"e  c #2C4209",
"r  c #314D03",
"t  c #304908",
"y  c #325101",
"u  c #3C5908",
"i  c #3D5613",
"p  c #3F5913",
"a  c #3E6104",
"s  c #41630B",
"d  c #436A0B",
"f  c #4B6F0F",
"g  c #4D7504",
"h  c #4F7B03",
"j  c #4C720D",
"k  c #4F790A",
"l  c #527E02",
"z  c #527B0D",
"x  c #466811",
"c  c #517810",
"v  c #517710",
"b  c #4C7411",
"n  c #54682C",
"m  c #415D14",
"M  c #1F0B45",
"N  c #251444",
"B  c #2D1547",
"V  c #2C184B",
"C  c #290E5B",
"Z  c #2F1D55",
"A  c #282358",
"S  c #342750",
"D  c #35344A",
"F  c #2D0F63",
"G  c #311364",
"H  c #39176D",
"J  c #371769",
"K  c #37137A",
"L  c #3B167C",
"P  c #341272",
"I  c #392C71",
"U  c #41255D",
"Y  c #451F73",
"T  c #402967",
"R  c #4E247A",
"E  c #523873",
"W  c #38407A",
"Q  c #424359",
"!  c #504572",
"~  c #62457B",
"^  c #62687D",
"/  c #528302",
"(  c #558A01",
")  c #588E03",
"_  c #5A8C0C",
"`  c #55830B",
"'  c #599301",
"]  c #5D930C",
"[  c #5E8C12",
"{  c #669B04",
"}  c #689F02",
"|  c #64960D",
" . c #669B0C",
".. c #689F0B",
"X. c #609202",
"o. c #649513",
"O. c #669912",
"+. c #689D12",
"@. c #608E07",
"#. c #66A502",
"$. c #69A402",
"%. c #6BAB02",
"&. c #69A30A",
"*. c #6DAA0B",
"=. c #66A308",
"-. c #70AF0D",
";. c #6EB301",
":. c #6FB800",
">. c #72B304",
",. c #71BA01",
"<. c #72B30D",
"1. c #76BB0E",
"2. c #78BE0E",
"3. c #6BA312",
"4. c #6EAA11",
"5. c #70AE11",
"6. c #73B310",
"7. c #75B810",
"8. c #7AC30D",
"9. c #7DC90B",
"0. c #421983",
"q. c #491E88",
"w. c #4C218C",
"e. c #4B2D85",
"r. c #532683",
"t. c #552B87",
"y. c #572C8B",
"u. c #51308F",
"i. c #5E358F",
"p. c #542392",
"a. c #582891",
"s. c #5E2A9A",
"d. c #443E99",
"f. c #583698",
"g. c #533694",
"h. c #492896",
"j. c #612D99",
"k. c #613894",
"l. c #5D34A5",
"z. c #652EA0",
"x. c #6733A6",
"c. c #6830A3",
"v. c #6539AD",
"b. c #6A38A6",
"n. c #643CB0",
"m. c #60438B",
"M. c #757294",
"N. c #6C728B",
"B. c #4147A3",
"V. c #4A46AA",
"C. c #5847B7",
"Z. c #5B49BD",
"A. c #5545BA",
"S. c #474DB0",
"D. c #6A43A9",
"F. c #7247A7",
"G. c #744EAA",
"H. c #7852AC",
"J. c #6242B7",
"K. c #6145BB",
"L. c #6846B6",
"P. c #6E50B1",
"I. c #7956B4",
"U. c #6C6FB1",
"Y. c #5E4BC3",
"T. c #5B54CD",
"R. c #5452C4",
"E. c #585CD6",
"W. c #575FD9",
"Q. c #6252C3",
"!. c #6C5DC9",
"~. c #6966C6",
"^. c #6972D2",
"/. c #716AD2",
"(. c #8576AE",
"). c #816AB0",
"_. c #847AB4",
"`. c #937BCA",
"'. c #7B86C8",
"]. c #8E8EB2",
"[. c #8B96BB",
"{. c #9499B9",
"}. c #848FA4",
"|. c #9DAEBC",
" X c #9A9EC0",
".X c #9691CA",
"XX c #9BA8C7",
"oX c #AAB7D5",
"OX c #B3BFDD",
"+X c #A7B3CC",
"@X c #9B9CE3",
"#X c #B7BAEA",
"$X c #A090D5",
"%X c #B2C3D7",
"&X c #BFCEEB",
"*X c #B5C5E2",
"=X c #C0CFEF",
"-X c #C2D2EF",
";X c #CADAFB",
":X c #C5D0F6",
/* pixels */
"%.%.:.*...%.%.;.;.;.;.;.;.%.#.o.} } } | o.o. .;.;.=.{ $.$.%.| o.o.o.O.O.&.:.&.%.;.&.| :.*.+.+.O.=.,.%.o.o.o.&.;.*.;.;.=.{ $.;.;.",
"%.%.;. .$.$.;.;.;.;.%.%.%.%...o.{ { { | o. .%.>.;.| | } $.} o.o.o. .&. .:.;.$.%.%...;.;.O.+.&.=.%.,.O.o.O.&.:.*.#.%.%...$.,.;.$.",
"%.;.%.| #.%.;.;.:.*.%.;.%.$.| | | { { ..%.$.%.;.=.o.| | { | o.| ;.*.| %.,.$.*.%.%.%.;.&.o.*.*.%.,.%.o.&.*.%.:.$.$.%.$.=.;.;.%.$.",
";.;...&.;.%.%.:.;.$.#.%.$.{ | o.o.o.$.,.&.&.%.%...o.o.o.| o...,.*.o.&.:.,.=.#.%.;.;.%.O.*.;.#.%.%.&.%.>.%.;.;.| #.$.%.%.;.%.} $.",
";.%.*.;.;.{ %.:.%.} $.$.} { | o.o.&.,.%.o.$.$.$. .o.o.o.o. .%.>. .o.%.,.%...$.$.;.;.#.*.,.$.$.%.%.,.,.%.;.;.*.{ { } %.%.%.$.{ $.",
"%.%.:.;. . .;.:...{ } $.{ | o.| $.,.;.o.| $.$.$.| o.o.o.| %.%.=.o. .%.;.$...$.;.;.%.$.;.;...$.%.;.;.;.;.%.;...| { } $.%.%.o. .;.",
"#.%.;.$.O.*.;.%.| { } { | o.&.&.,.%.=.o.| } #.} o.o.o. .$.$.%. .O.$.%.%.&.$.;.;.%.%.;.;.&...#.%.;.;.,.%.%.%.| o.| { =.;. .o.%.:.",
"$.$.$. .O.%.;.*.| | | { o.&.&.;.,.$.| o. .X.l l [ o. ...{ } }  . .$.$.%.$.;.;.%.$.%.;.;.| { %.;.%.,.%.$.%.%.O.o.o.| ;.;.O.&.:.:.",
"{ } $.o. .;.,.&.o.o.o.| *.%.&.,.%...| &. .z q q z &.&.o.{ { #.*.O.$.$.$.%.%.%.#.} ;.;.$. .;.;.$.;.,.$.$.%.$.o.o.o.*.:.&.o.%.:.%.",
"| | { o.%.;.%.| o.o. .%.;.&.;.;.&. .#.{ z i * * a / j f f ` #. .| { } %.%.%.%.{ $.;.%.%.;.;...%.,.>...} }  .o.o. .;.;.o. .;.;.&.",
"o.o.o.O.;.;.$.| o.&.,.,.%.$.;.%.| %.;.z e * N N & @ @ @ @ w ) o.o.{ { $.%.;.O. .;.;.$.;.:.&.| ;.;.$.{ { } | o.o.%.;.*.o.$.%.%.O.",
"o.o.o.;.;.$.$.| %.,.,.,.&.%.%.$.*.;.&.f @ O C F < : O O O & p f f z _ $.:.=.o.&.:.%.%.;.%.O. .;.;. .{ { } | o. .;.;.&.| %.%.$.o.",
"o.o.&.,.%.} { $.;.;.,.:.&.%.%.%.;.;.o.z # O C P F C C C C N * @ @ % ` ;.;.o. .;.;.$.#.%...| $.;.;.| | | { o.o.$.%.%.o.| $.$.=.o.",
"o.o.;.,.$.{ $.%.%.;.:.%.=.$.%.;.;.&.&.' w & N C C F P K K F < O + = a ) k f / ( / g g / _ | ;.;.*.o.o.o.o. ...%.%.%.o.{ $.$.{ o.",
"o.$.;.%.| { $.$.%.,.;.$.$.%.;.;.%.$.,.#.` a & O O < F K K P F C C N = # @ @ # % # @ @ e z &.:.%.&.o.o.| %. .| %.%.=.| { } } | o.",
"*.%.;.%.o.| { { >.;.%.*.;.;.;.%.$.;.;.=...( y $ . o M F P K K K 0.H 4 , 2 3 3 3 2 2 , 5 p / ( h g c { ;.&.o.{ } %...o.| { { | O.",
"=.%.%.$.o.o.o.-.,.%.>.,.;.:.%.$.%.;.;.| #.{ ' a $ . o < F K K 0.p.a.r.e.d.B.B.B.B.d.u.S = % # # @ w ' %.o.o.{ } }  .o.o.|  .%.>.",
"$.%.%.| o.o.4.1.%.%.,.#.' / h h / ( h z { ;.%.' y X . : G 0.0.w.s.c.c.v.Y.T.W.W.W.T.K.u.A 2 , , , 6 d z [ o.{ { } | o.o.o.%.>. .",
"$.$.$.| o.+.8.>.%.;.>.) w # @ # # # # w ' #.%.%.) u X > R s.s.s.j.c.c.b.v.K.T.W.W.E.T.R.V.d.e.R R U 5 e v o.| { { o.o.| %.;.&.o.",
"} } } | O.2.2.{ ) / l s = , , , , , , - a g ( ( h u X , R j.c.b.F.H.I.G.k.f.Z.T.E.W.W.W.T.Y.v.c.v.u.V 5 i v {  .| | o.$.%.%.o.o.",
"{ { { o.5.8.<.l w @ # - U R R R R R R T 5 @ # # @ X . , R c.c.F.(.{.oX.X! I i.K.T.W.W.T.K.v.b.v.Y.C.u.S 5 t z o.o.o.{ } $...o.| ",
"{ { { 3.2.<.` p ; , , B r.c.c.c.c.c.c.r.V > : : > , , V a.n.c.H.].+XOXXX^ ! i.v.T.E.T.Q.P.H.G.P.Q.Y.v.R , # f o.o.o.| { { | o.| ",
"| | o.4.8.| q 5 U R R r.j.c.c.c.c.c.z.j.r.T G G Y R R u.C.Y.n.G.].|.+X|.}.M.F.n.T.T.Y.P._.].]._.P.v.x.R , @ f o.o.o.o.| | o.o.o.",
"o.o.+.6.7.[ % 5 U r.j.c.c.c.c.c.c.c.z.z.z.p.0.0.s.x.v.K.T.T.n.F.(.].[.[.]._.P.J.Y.Q.P.).{.+X+X X).F.b.r.N * i v [ o.o.o.o.+.O.o.",
"o.o.3.6.6.o.c p 6 B t.c.c.c.c.c.c.c.c.j.w.0.L 0.s.v.Y.T.E.T.n.b.F.I.~.~.I.P.P.T.n.P._. XOX=X&XOX{.(.F.a.H N * q v | o.o.4.4.o.o.",
"o.o.3.5.5.O.o.z w 7 S R R R R R R R R Y L L 0.w.l.Y.T.E.T.T.n.n.v.J.Y.Y.K.K.R.Y.H.). X%X:X;X;X*X{.M.m.t.q.G : @ l o.o.6.6.o.o.o.",
"o.o.3.5.3.o.o.{ ) s 5 , , , , , > , , M F 0.p.l.Y.T.E.T.K.n.T.Q.T.R.J.J.Y.Y.L.P._. X%X-X;X;X;XoX^ D S T r.Y > # j o.6.8.o.o.o.o.",
"o.+.3.3.3.o.| $.%.) e @ # @ @ @ @ @ # = B H a.n.Y.T.T.Y.n.Y.T.W.W.T.K.K.E.T.n.H.{.%X-X;X;X&XoX}.Q 0 0 S y.R , # j 6.9.4.o.o.o.o.",
"o.+.+.3.+.o.=.%.%.{ v g g l j f f j ( s & 4 r.x.v.v.n.n.Y.T.E.W.W.W.T.T.E.T.v.I.@X-X;X;X;XoXN.Q D 0 0 S y.R , @ z 8.1.O.o.o.o.o.",
"&.+.O.+.O.&.$.$.%. .| { { { | o...%.;.( q 5 S t.l.v.n.Y.E.W.W.W.W.W.T.T.T.Y.x.).oX-X:X;X;XoXN.Q 8 0 0 S y.R , # ` 2.<.o.o.o.o.o.",
"O.o.o.o.&.&...$.}  .o.| {  ...%.$.%.;.{ v i 5 Z d.T.T.T.E.W.W.E.W.T.Y.v.n.v.x.H.{.%X-X;X;X&XoX}.Q 0 0 S u.R , # _ ,.3.o.o.o.o.-.",
"o.o.o.&.;.o.{ { { | o.o.O.$.>.&.&.%.%...o.f @ 2 d.E.E.W.W.E.T.E././.n.c.c.c.c.F.(.XX%X&X&X&X&X+X^ U S I a.R , # ' <.o.o.o.+.:.*.",
"o.o.&.:.&.o.{ { { o.o.*.*.;.*.O.%.%.%.| o.j # , e.K.T.E.E.T.J.!.@X@XI.c.c.c.c.b.F.). X+X+X+X+X|.}.N.m.i.j.R , % ) 4.o. .&.;.:.o.",
"&.*.:.;.o.o.o. .{ 3.7.%.%.%. .] ' l h f f m 6 B r.n.Y.T.T.Q.P.`.#X#X`.I.b.c.v.n.v.P._.].[.[.[.[.[.'.G.z.j.Y , # z +.&.$.;.;.&.o.",
"*.%.:.&.o.o.o.o.3.8.-.$.%.#.O.] r @ # @ @ 7 J t.j.c.v.n.n.P._.XX=X:X#X$X).v.Y.T.T.Q.P.I.~.^.^.^.^.~.D.s.w.G : # z ;.*.=.;.%.+.*.",
"%.;.;.| o.o.o.3.9.1.{ } $._ ] f ; , , , , B R s.s.j.z.c.c.F.U.XX#X*XoX[.b.x.Y.T.T.Y.Z.J.R.!.R.T.T.Y.v.a.H N & w ' :.&.%.;.%.;.:.",
";.;.%.o.o.o.O.1.8.3.| ..{ _ u 7 U R R R Y r.0.0.0.w.s.x.c.D.~.'.XX{.N.! c.x.v.n.n.J.Y.Y.J.n.n.n.v.v.x.r.4 & u ) %.%.=.%.%.;.;.;.",
"%.;.#.o.o.o.5.6.| f z j z j - V u.v.n.n.v.l.w.0.L 0.s.c.c.v.Y.~.'.M.E T f.n.n.v.c.n.Y.Y.n.c.c.c.v.v.f.R > # l ;.;. .$.$.;.;.:.;.",
"%.%. .o.o.3.<.o.t # # @ % - U u.Z.T.T.T.T.Y.l.p.0.0.s.c.c.x.v.L.~.~.f.f.J.T.T.Y.v.c.v.v.c.c.c.n.Z.A.h.G : @ / ;.%.| } %.;.;.:.%.",
"$.%.| o.o.+.] x 7 , , , 3 A g.K.T.E.E.E.T.Y.v.s.0.0.p.s.z.c.c.v.Z.Z.v.n.T.E.T.Y.n.c.v.n.x.c.z.v.Y.V.L N & w ) ;.....;.%.%.;.;.#.",
"$.$.o.o.o.` t 7 U R R e.d.V.Z.T.E.W.W.T.K.v.x.s.0.L 0.w.s.c.c.x.D.v.x.l.T.T.J.v.x.v.Y.Y.v.c.c.b.v.u.N * u ) %.%.$.;.;.#.%.,.*.{ ",
"$.{ o.o.O.[ y 7 U t.j.v.Y.T.T.T.T.T.T.C.u.E m.E J G L w.p.s.s.s.l.c.c.n.Y.Y.J.n.n.K.T.T.n.z.s.a.r.U = q l :.%.%.;.,. ...;.,.=.{ ",
"{ { o.o.+.o.] b 7 V t.x.v.v.J.v.v.v.n.u.B 8 n n 6 4 Y p.q.0.0.w.s.x.c.x.v.C.Y.T.T.T.E.T.n.s.w.H 4 = p c #.,.$.%.;.*.| *.>.;.{ { ",
"{ { o.o.o.3.8.&.e 5 U R R R R R R R R U = r ` / # , r.j.w.0.L 0.p.s.c.c.c.v.Y.T.T.T.T.Z.l.w.H N = r c &.,.%.$.%.%.| | %.;.&.| { ",
"|  .O.o.o.5.8.4.c p 7 , , , , , , , , 6 f ) | / # , R z.z.p.0.L 0.w.j.c.c.c.v.v.v.v.n.l.w.H 1 & a ` _ ;.;.%.} $.$.o. .;.;.&.o.| ",
"O.=.O.o.O.6.1.5.o._ t # % # @ @ @ # # w ' &.=./ # , e.n.c.j.q.0.F J w.s.s.s.s.a.r.r.a.p.0.C O # / o.&.;.;. .| { { o.%.,.%.| o.o.",
";. .o.o.3.7.7.3.4.4._ ` _ z d b / / h ) #. .%.( @ 3 d.Y.v.z.j.Y 4 1 J 0.0.0.0.H M 4 H 0.K C O # l o.$.;.%.o.o.o.o.| ;.%.$.O.o. .",
"&.o.o.o.4.5.6.4.8.4.3.6.6.O.o.&.:.*.%.%.%.| ' d 9 A S.T.n.s.t.Z : O C K K P F V & * N F P C O # j | %.%.&.o.o.o.o.%.,.$.#.O.&.,.",
"o.o.o.o.4.4.6.8.8.3.3.4.3.o.o.>.;.=.%.%.$.' y 9 I S.W.R.n.t.B + . O C K K F < = i i * < F C O # j &.$.%. .o.o.o.&.,.%.$.} $.>.;.",
"o.o.o.o.&.4.1.9.4.o.+.+.+.3.<.:.;...$.%.%.( # 3 B.W.W.T.n.R ,     O C P F N & e z / # O C C O # f { $.$. .o.o.o.>.,.$.{ $.%.%. .",
"o.o.o.3.3.4.8.8.+.o.o.3.6.*.;.:.$.$.#.%.;./ # 3 B.W.W.R.v.R >     O C F < = s z { ( # O C C o @ f } { $. .o.o.$.,.;.| | $.$.$.| ",
"o.&.=.3.3.7.8.6.o.o.4.8.4.=.;.;...} $.;.;./ # 2 B.W.W.R.g.U = @ . O C C O % k $.%.h @ o M N ; q z { %.$.o.+.&.%.;.$.o.{ } } ..o.",
"&.;.3.] 3.8.8.3.o.5.8.<.o.%.%.%. .%.;.;.$./ # 3 B.W.E.V.A = d a $ O C C O # k $.%.j @ . o & u z [ -.-.| $.%.=.%.%.&.o.O.&...| | ",
";.&.&.O.4.7.7.+.4.7.7.O.O.%.%.#.$.;.;.%.$./ % 2 d.E.E.B.3 % h / # O C C O # g $.#.) u # @ q l | 5.1. .%.;.+.=.%.%. .5.5.o.o.O.$.",
"&.*.&.o.4.6.5.3.5.6.5.o.{ $.$.%.%.;.%.$.$.( # , e.Z.T.B.3 % h h # O C C O # g ..>.1._ f g l @.3.8.-.%.>.&.o.$.$.>.1.7.o.o.| $.;.",
"%.;.o.O.4.6.4.3.3.4.O.o.| { #.%.%.%.} X.( d 6 B r.x.V.W 9 w / h # O C C O @ f *.8.7.o.o.| | ..8.8.%.%.%.o.| $.>.9.8.o.o.o...%.%.",
":.&.o.+.4.4.4.+.3.3.o.O.| { } $.;.*.| l y 6 U r.j.t.A 9 d / X.g # O C C O @ c 6.6.3.o.o.o.o.6.9.>.$.%.| o.{ %.9.9.&.o.o.o.} %.%.",
";.o.o.3.*.4.+.o.+.O.&. .o.O.{ %.;. .o./ # , R c.c.R , # ( | } l w * N M o @ z 4.4.O.o.o.O.+.8.9.%.{ } o.o. .>.2.<.o.o.o.| %.%.%.",
"&.o.o.&.&.+.O.o.o.*.&.o.o.o. .;.%.o.&.) # , R c.c.R , # l o.| @.l i * o . @ j 3.+.o.o.&. .6.8.7. .| { o.o.3.*.<.&.o.o.o.$.%.%.,.",
"O.O.*.*.O.+.O. .%.%.o.o.o. .;.,. .o.;.' w ; S r.R U = w ` o.o.o.| z q @ @ e c O.o.o.&.*.+.7.1.5.o.o.o.o.o.+.3.3.+.o.o.O.,.=.%.>.",
"| ;.-.o.o. .&.%.;. .o.o.+.;.:.;.o.&.;.#.z p 5 , , = d ) ] o.o.+.&.] c x f v [ o.| &.:. .3.7.7.3.o.o.o.o.o.o.O.O.o.o.| ;.%.&.;.%.",
"%.:.&.o.&.&.*.:.&.o.O.&.;.:.;.&.o.%.%.%.O.c e @ # r ) $.| o.&.:.3.o.o.o.o.o.o.+. .;.*.o.3.6.5.+.o.o.o.o. .o.o.o.o.O.;.,.*.$.%.%.",
";.%.o.=.;.&.;.;.&.=.;.*.;.:.;.O.| %.%.$.o.[ c j / ' { } | %.;.&.o.o.o.o.o.o.&.&.*.;. .o.5.-.-.o.o.o.o. .&.o.o.o.O.%.,.;...%.%.%.",
";.=.&.:.&.#.;.%.%.:.%.;.:.;.%.O...$.$. .o.o.o.&.,.%.$.{ *.;.%.o.o.o.o.o.o.3.;.&.,.%.+.O.*.<.4.o.o.o.&.*.o.o.o.O.*.;.,.;.{ $.%.>."
};
