/* XPM */
static char *ghost21704828128[] = {
/* columns rows colors chars-per-pixel */
"64 64 163 2 ",
"   c #010102",
".  c #070B01",
"X  c #08090C",
"o  c #141F00",
"O  c #100A16",
"+  c #150D1D",
"@  c #142100",
"#  c #192604",
"$  c #1B2B01",
"%  c #242B16",
"&  c #161021",
"*  c #181B25",
"=  c #181729",
"-  c #1A1C2E",
";  c #1C202F",
":  c #1D2130",
">  c #1E2A35",
",  c #19373C",
"<  c #273223",
"1  c #2C3B25",
"2  c #2B3729",
"3  c #2B3828",
"4  c #202431",
"5  c #222C32",
"6  c #28243B",
"7  c #2D4503",
"8  c #2F4B01",
"9  c #2C4208",
"0  c #304E01",
"q  c #315200",
"w  c #3B5E02",
"e  c #3F5E0D",
"r  c #405F0E",
"t  c #415E14",
"y  c #42630D",
"u  c #456B0E",
"i  c #4B6F0F",
"p  c #426507",
"a  c #4E7607",
"s  c #4F7B03",
"d  c #4C720C",
"f  c #4B740D",
"g  c #537E03",
"h  c #537B0D",
"j  c #426311",
"k  c #517710",
"l  c #517810",
"z  c #301D42",
"x  c #183E40",
"c  c #2B2644",
"v  c #342B45",
"b  c #38264E",
"n  c #373C55",
"m  c #383F56",
"M  c #333753",
"N  c #402658",
"B  c #433064",
"V  c #4F3E72",
"C  c #36455A",
"Z  c #3F4565",
"A  c #404665",
"S  c #49506F",
"D  c #4F5A6F",
"F  c #505B6F",
"G  c #49457B",
"H  c #514073",
"J  c #4E5476",
"K  c #4F5970",
"L  c #505B70",
"P  c #538302",
"I  c #578A01",
"U  c #588D01",
"Y  c #55850B",
"T  c #5D8E0C",
"R  c #5A9400",
"E  c #5B9800",
"W  c #5E8B12",
"Q  c #608F06",
"!  c #608E09",
"~  c #679C03",
"^  c #689F02",
"/  c #65960D",
"(  c #669B0C",
")  c #689F0B",
"_  c #619400",
"`  c #649513",
"'  c #669912",
"]  c #689D12",
"[  c #66A700",
"{  c #69A402",
"}  c #67A802",
"|  c #6BAB02",
" . c #69A30A",
".. c #6DAA0A",
"X. c #67A00C",
"o. c #70AE0D",
"O. c #6EB301",
"+. c #6FB800",
"@. c #72B405",
"#. c #71BA01",
"$. c #72B40D",
"%. c #76BB0F",
"&. c #78BE0E",
"*. c #6BA412",
"=. c #6EAA11",
"-. c #70AE11",
";. c #73B310",
":. c #75B810",
">. c #7AC30D",
",. c #7DCA0C",
"<. c #79C306",
"1. c #80CF0D",
"2. c #4C4F87",
"3. c #5A4085",
"4. c #51568A",
"5. c #5E4D92",
"6. c #585C94",
"7. c #614A89",
"8. c #55618C",
"9. c #5B6491",
"0. c #5B7F9F",
"q. c #4B6A95",
"w. c #616B94",
"e. c #646D9D",
"r. c #647796",
"t. c #67729F",
"y. c #615BA4",
"u. c #6766AB",
"i. c #6C6EA6",
"p. c #6974A0",
"a. c #6971AF",
"s. c #7175AA",
"d. c #666AB4",
"f. c #6A70B7",
"g. c #6C72B8",
"h. c #7679B1",
"j. c #7077BA",
"k. c #727BBB",
"l. c #6B8E9A",
"z. c #668697",
"x. c #6388AB",
"c. c #7583BE",
"v. c #7986B9",
"b. c #4CA4B3",
"n. c #49BBBF",
"m. c #648DC7",
"M. c #6B8DC6",
"N. c #7A85C1",
"B. c #7D8AC3",
"V. c #7F93C4",
"C. c #79A0CF",
"Z. c #79A9D3",
"A. c #67C2D9",
"S. c #6AC3E2",
"D. c #62D5EC",
"F. c #69DEF0",
"G. c #61F9FF",
"H. c #818FC5",
"J. c #8293C6",
"K. c #8499C7",
"L. c #86AAC9",
"P. c #8AAFCB",
"I. c #8CB1CC",
/* pixels */
"} | @.} ~ } | O.O.@.| O.O.| { ` ~ ^ ^ ( ` ` ( O.O.{ ~ { { { ( ` ` ` ' (  .+. .| O. .( @...*.*.'  .O.| ` ` `  .O. .O.O.{ ^ { O.O.",
"| O.O.) { { @.O.+.O.| O.O.{ ) ` ~ ~ ~ / ` ( | O.O.` / ^ { ^ ` ` ` X.X.X.O.O.{ O.|  .| O.] '  . .| #.] ` `  .O.O.{ | | ( { O.@.} ",
"| O.| / { | O.O.+.} } | } { ( / ( ~ ~  .{ { | O.{ ` / / ~ / ` ' |  .' ..#. .{ } } | @. .` ..| } O.| `  ...| #.{ { } | { O.O.} { ",
"O.O. .) O.| } +.O.{ | | { ~ / ` ` `  .+. . .| | ) ` ` ` ` `  .O.O.`  .+.#.{ { | O.O.| ' } @. .| O. .| O.} @.O.) { { | | O.| ^ { ",
"O.} } #.O.~ | #.| ^ { { { ~ / ` ` ..O.} ` { } { ( ` ` ` ` ( | O.( ` | +.O.) { { O.O.{ } #.{ } | O.O.#.O.O.O.{ ( ^ { | } | { ~ { ",
"| | O.O.( ( O.@.) ~ ^ { ~ / ` / { O.O.' / { { { ` ` ` ` ( { | { ` ( O.@. .~ { O.O.| { @.O.( | | O.O.O.O.| O. ./ ~ ^ { | | ' ( O.",
"{ | O.{ ` | @.O.( ~ ~ ~ ` ' ) { +.O.~ ` / ^ ^ ^ ` ` ` / { { } ( ` { | |  .{ O.O.| | | O. .~ { | O.O.+.| | | ( ` ` ~ { O.( ` | +.",
"{ { { ) ' | O.} / / ( ~ `  . .| @.{ ( ` ( ^ ^ ~ ` ` ) ) ~ ~ { ) ( { } { { O.O.| { | O.O.( ~ | O.| +.| { } } ` ` ` / O.O.`  .+.+.",
"~ ~ ~ ` ) O.O.) ` ` ` / { |  .+.} ~ `  .) / ~ / ` .. .` / ~ [ ..( { { { | O.| { { O.O.{ ( O.O.{ O.@.{ { | ~ ` ` ` | #. .` | O.| ",
"/ ( ~ ` } @.| ( ` ` ] O.+. .O.O. ./ } ..` ` ` ' | | ` ` ` ( O.] / ~ { { } | { ~ { O.| } O.O.) } +.@.~ ^ { ( ` ` ( @.O.' ( O.O. .",
"` ` ` ] O.O.{ / ` } @.#.O. .O.| ' | O.` ` ' ) | +.X.` ` ( | | ` / / ~ { | O.` ( O.@.} @.+. ./ O.+.{ ~ ~ ^ / ` ` } @.} ` { O.| ' ",
"` ` ' | +.{ ^ ( { @.#.#. .| | { ..+. .` ) { } +...` `  .O.+.( ` ` / / { O. .` ..#.} | O.| ` ) O.O.X.~ ~ ^ / ` ( O.O.( ' } } { ` ",
"` `  .#.| ~ ~ | O.O.#.@. .} } | O.| '  .O.{ O.O.(  .O...@.O.` ` ` ` *.O.O./ ( +.O.{ { } { ` } @.O.' / ( ( / ` { | | ` / | | ~ ` ",
"` ` O.+.{ ~ { } | O.#.} ) [ | @.@. . .+. .} | | | +.} O.#. .` ` ] *...#. .` } O.| ~ ~ ^ / ( | O.{ ` ` ` ` ( ( | | | ` ~ ^ { ( ` ",
"'  .O.O.( ~ { { | O.@.{ { | O.O.| { @.| ) | | O.+.O.O.O.O.( ' -.%. .@.#.] ' | O. .` / / `  .O.O.) ` ` ( {  .( | | { / ~ ~ ~ / ` ",
"{ | O.} ` / ~ ~ @.O.O.} O.O.O.| } O.+. .{ { O.O.+.O.| | | ] ;.>.*.{ O.| ` { | O.( ` ` ` ` O.O.{ ( `  .O. .` ~ { { ) ` / ~ ~ / ( ",
" .| | { ` ` ` o.@.| O.+.+.+.| } | @.O.' ~ } @.O.@.| | P $     $ a P $             # i ` } #.[ [ ( { +...` ` ~ ~ { ( ` ` ` ( } O.",
"{ | } ( ` ` *.%.| O.#.O.O.| { { O.O.{ ( } [ I R | ~ I u 1 : 4 3 j p % O   X * 5 : 2 e Y | O.~ ^ { | O.( ` / ~ ~ ~ / ` ` / | O.] ",
"{ { { / ` *.>.@.| O.O.| O.{ ~ } O.| { | O.I 0 0 U P 8 1 F w.w.L 1 % v z O * S 9.e.K 3 8 R | ~ ^ } }  .` ` ` / ~ ~ / ` / } @.X.` ",
"^ ^ { / ' &.&.{ | O.} | | ( ~ O.O.} O.| P y 1 1 y r 1 m t.J.H.t.C 6 b b 6 C x.Z.Z.0.> $ P  ./ ^ { { / ` ` `  .( / / ` { | } ` ` ",
"~ ~ ^ ` -.>.o.^ { { { O. .` { #.| | O.U 9 3 L L 3 3 F t.v.H.H.v.t.J 6 6 J x.A.F.F.b., $ P / ' ( ~ ^ ` `  .| ( ` ` ` ( ^ { ~ ` ` ",
"~ ~ / ] &.&.) ( ~ { | O.` ] #.O.{ | | a # 4 w.p.m n t.H.B.N.N.B.H.t.n n p.Z.F.G.G.n.x $ s ` ` ` / / ` } @. .` ` ` ` / ~ { / ` ` ",
"/ / / -.&.;.` ` ( { #. .` } #.} ^ { { d # 4 w.v.t.t.v.B.j.g.g.j.B.v.p.p.c.Z.F.G.G.n.x $ a ` ` ` ` ` { @...` ` ` ` ` ` / ~ ` ` ` ",
"` ` ' ;.:.-.` ` ' +.O.' ( O.@.) ~ ~ ~ i $ 4 w.J.H.H.B.k.u.y.y.u.k.B.H.J.V.V.S.D.D.b., $ f ` ` ` ` { | | ' ` ` ` ` ` ` ` ` ] ' ` ",
"` ` *.;.;.*.` `  .#.} ` { O.| ( ` ` ` i $ 4 w.H.H.B.j.u.5.3.3.5.u.j.H.H.H.B.M.m.m.q.: $ f ` ` ` ~ { { { ` ` ` ` ` ( ` ` =.*.` ` ",
"` ` *.-.-.' ` ' O.O. .` | | } ` ` ` ` P q 1 F w.w.9.4.G B N N B G 4.9.w.w.9.4.2.2.Z < 7 a ` ' ( ~ { { ( ` ` ` ' { ` ` ;.;.` ` ` ",
"` ` *.-.*.` ` { O.| ' ( { | ) ` ` ` ' | R y 1 4 4 4 - = & + + & = - : : 4 4 - = - < e g W ` } ( / ~ ~ ` ` ` ' } ( ` ;.>.] ` ` ` ",
"` ] *.*.*.` ` | | | ` ~ { { ( ` ` ` | #.| g 7 o .   O + + + + + + + + + + O   . @ 7 h ` ` ....` ` / / ` ` ' ..| ` ;.,.=.` ` ` ` ",
"` ] ] *.] ` { { | { ` ~ ^ ^ ( ` ` ( O.O.{ T P w o O z N N N N N N N N N N z O @ w l W `  .O.' ` ` ` ` ` ( ..+.] *.>.:.' ` ` ` ` ",
" .] ' ] '  .{ { | ( / ~ ~ ^ ` `  .| O.| ` Q g y < c V 7.7.7.7.7.7.7.7.7.7.H v 1 j l `  .+...` ` ` ` ' }  .O.| ] ;.>.$.` ` ` ` ` ",
"' ` ` ` .. .^ ^ ^ / ` / ~ ( ) |  .| O.{ ` h 9 < A 6.i.h.h.h.h.h.h.h.h.h.h.s.t.L 3 8 Y O.O.( ` ` ` ` | ..} #. .*.%.&.*.` ` ` ` ..",
"` ` `  .| ` ^ ^ ^ / ` ` ' { O. . .| | ) ` i # - 4.k.B.H.K.K.J.H.H.J.K.K.J.H.H.w.: $ P +.| ' ` ` ` ..O. .O.O.] ;.#.O.` ` ` X.@...",
"` '  .#.) ` ~ ~ ~ ` ` =.| O.} ` { O.{ ( ` i # : 9.B.B.K.I.I.J.H.H.K.I.I.K.J.B.w.: $ P O.{ ` ` ` X.+...[ O.|  .#.%. .` (  .O.O.` ",
" .{ O.@.` ` ` / / ) &.| | | ' ' @.{ { / ` h $ 5 r.K.J.K.L.P.J.H.H.K.L.P.K.J.K.r.5 $ P O.] ` ` ` O.+. .} | { @.#.o.*. ...| #. .` ",
"..| @.{ ` ` ` ` =.&.o.{ |  .' %...{ ) / *.T # 5 l.I.K.B.c.c.B.H.H.B.c.c.B.K.I.l.5 $ P } ` ` ` ..#.O.{ } | | #...*.@.| { O.O.( ..",
"| O.@.( ` ` ` *.,.%.~ ~ { ( ;.&.~ ~ ) *.>.Y # 5 l.I.V.c.j.j.B.H.H.B.j.j.B.K.L.z.5 $ g { ` ` ( O.#.{ { { | O.@. ...#. .} | | O.#.",
"O.O.} ` ` ` ] %.>.*./ { ) ..,.=./ /  .>.>.i # 5 r.V.k.j.c.B.H.H.J.B.N.B.B.B.c.8.- $ g ) ` ` { O.O.( { { O.O.| | #.| { | | O.O.O.",
"| O.{ ` ` ' -.&.$.` *.] *.,.>.' ` ( :.>.=.k 7 3 F e.a.j.c.N.N.N.N.N.N.B.H.v.6.Z < 7 P ( ` ` { O.| ) { O.O.} | | O.( ^ { O.O.+.O.",
"| | ( ` ` ] ;.&.=.=.-.` :.1.;.` ` -.&.$.' W h e 1 n t.c.j.g.g.g.g.g.f.k.B.t.M < r g _ ( ` ' { | { { @.O.} | | O.| / { | O.O.+.| ",
"{ | ' ` ` =.;.-.-.&.' ] >.,.*.` ' ;.$.-.` ` ` h 7 1 D e.a.f.d.d.d.d.f.a.e.F 1 7 g ~ ~ ` ` ( { { } | O.| { { O.O. .( | O.} O.O.{ ",
"{ { ` ` ` -.-.;.>.=.` ;.>.:.] ` ] -.-.*.` ` ' ~ Y u 1 m p.k.g.d.d.f.k.e.n 1 u h ! / ( ` ` ) ^ { | | | { ^ | @.| { O.O.{ | #.} { ",
"{ ^ ` ` ] *.-.>.>.' ] :.:.;.` ` ] -.-.] ` ` | ( | E 7 3 K p.a.g.g.a.e.L 1 0 P ` ` ` / ) / ~ ~ { { | } / ) O.| | O.@.( ( @.+.) ^ ",
"~ ~ ` ` ] ] ;.,.;.` *.;.:.*.` *.-.*.] ' ' O...X.O.} h j 3 n e.c.N.e.m 1 u U / ` `  .| ] ` ` ( ~ | O.( ` | +.{ O.O.} ` | @.| ( ~ ",
"~ ~ ` ` ` *.>.>.*.` *.;.;.=.:.=.' ' *. . .+.X.| O.} ` P 8 3 D w.w.K 3 0 R } ( ` ..O.( ` ` ` ` ( O.| `  .+.O.{ } | ( ' | O.{ / ~ ",
"/ ( ' ' ` -.&.:.' ` -.=.;.>.;.` ` ] |  .O.O.( O.O. .( ^ U j 3 4 4 2 u E [ { ( | #...` ` ` ` ` | #.( ` O.@.{ ^ { { ` ) O.O. .` ` ",
"'  .( ` ] ;.:.-.` =.-.-.>.:.] ` ` O. .} +. .{ O.O.( ( { { I q # # 7 E +.} { { O.@.] ` ` ` `  .+.O.`  .O.O.) ( ~ ~ ` } O.| ( ` ` ",
"O.] ` ` *.;.:.*.=.:.*.$.&.*.` ` | O. .O.| ) } @.} ` ) { | | P i d R | O.~ { { #...` ` ` ` ] | +. .` { O.} ` ` ` ` ( O.O.[ ' `  .",
"( ` ` ` *.-.;.-.>.=.=.-.;.] `  .#...{ O.}  .+.O.{ / { } +.O.' '  .#.+. .( ^ @.<.] ` ` ' (  .O.O.( ( | |  .` ` ` ` | #.{ ~ (  .O.",
"` ` ` ` =.=.-.>.>.] *.=.*.` ' O.O. .} | { O.O.} { } | | +. . .O.@.#.@.( / ..1.o.` `  .| ( | | | ` ) { } ) ` ` `  .#.| { ~ { @.O.",
"` ` ` ' *.=.>.,.=.` ] ] ] *.@.+.O.) | | | O.| { @.| { O.O.O.+.O.O.#.| ` ` &.&.' ' | @.( ' | | ~ ` ^ { { ' ` ` ` O.#.{ ~ { | | ) ",
"` ` ` X.*.=.>.>.] ` ` *.;.=.O.O.{ { { | @.O.{ O.@. .| O.+.+.@.O.+.+. .` $.1.-.' | @. .` ) | | ~ ` ^ { { / ` ` ..O.O.( ~ { { { / ",
"` ] ..X.*.:.>.;.` ` =.>.=.X.O.O.{ ~ } O.O.} | +.| ~ | O.#.+.O.O.O.O.( ] &.,. .^ | } ` ` | | | ( / ~ | ^ ` ' { | O.} ` / ^ ^ ( ` ",
"| O.X.' *.:.>.*.` -.>.$.' } O.| ) { +.O.} | O.O.( [ | O.+.+.O.| O.| ( ;.>.&.( | | ~ ] $.| { ^ / ` o.o.( { ..{ | |  .` '  .~ / ` ",
"O.X. .' =.:.;.*.*.;.&.] / [ } { { O.O.{ { | O.| / { O.+.O.+.| | | } ( ;.&.o.~ ^ { $.>. .~ ~ ~ / =.&. .| @.( { | | ] -.-.` ` ` | ",
" . . .` -.:.-.X.-.;.*.` ( { { | | O.| ^ | O.@.~ ) O.O.| +.O.{ } | ~ *.;.;.*./ ~ @.,.-.` ~ ~ ~ *.>.o.| @. .` { { | >.;.` ` ` { O.",
"| @.' ' -.-.=.*.*.-.' ` ~ ^ { | | | { ~ } @.} | O.O.) | #.| ) { { ( =.;.;.] ` o.&.;.] ` / / ( >.>.| | { ` / { | ,.>.] ` ` ~ | | ",
"#. .` ] *.-.*.] *.*.` ' ( ~ ~ { | | `  .@.| } @.O.(  .O.O.) ~ ~ ^ ( -.-.*.] ] ;.;.*.` ` ` ` $.1.@.{ | ( ' / | <.<.*.` ` ` ^ | | ",
"O.` ` ] -...] ` ` ]  .] ` / ~ { O.( ' | #.} | O...` { O.O.( ~ ~ ~ ' *.*.*.` *.-.=.' ` ` ( ] >.>.| ~ ~ ` ` ) @.#.$.` ` ` / | { @.",
" .` `  . .*.' ` ' |  .` ` ` ) +.} `  .+.O.{ { { ( ' } O.{ ` ( ~ ~ ` ] ] ] ] ] *.] ` `  .( -.>.:.' ~ ~ ` ` *.$.$. .` ` ` ..| { #.",
"' ' ....' ] ` ( | ..` ` ` ( O.+.) ` O.@.{ ~ { ^ `  .O.O. .` ` ` ` ( ( ] ` ` ` ` ` ` *.} ] :.&.-.` ` ` ` ` ] *.*.' ' ` ' O.{ | O.",
"' | O.` ` ]  .O.O.( ` ` ] O.+.O.`  .O.O.( / / ( ` } +.| ( ` ` ] ..' ` ` ` ` ` ` ( ( @.] *.:.:.*.` ` ` ` ` ` ' ' ` ` ' O.O. .O.O.",
"| #.] `  .} } @...` '  .O.+.+.X.` | | | ` ` ` ` ( O.O.{ ' `  .O.] ` ` ` ` ` ` ] ( O.| ` =.-.$.] ` ` ` ` ' ` ` ` ` ' | #. .} | | ",
"+.| `  .O. .O.O.(  .O...+.+.O.' ( } } { ` ` ` ' | #.{ { ' | +. .` ` ` ` ` `  . .} #.( ` *.$.o.` ` ` ` '  .` ` ` ' | #.#.{ { | | ",
"O. . .+. .} | | | +.} O.+.O.| ` ~ { { ) ` ` `  .#.| ^ ~ { O.| ` ` ` ` ` ` ( O. .@.@.' ` o.$.*.` ` `  ...` ` ` ' ..O.#.| ~ | | | "
};
