/* XPM */
static char *ghost41704828128[] = {
/* columns rows colors chars-per-pixel */
"64 64 163 2 ",
"   c #010102",
".  c #070B01",
"X  c #08090C",
"o  c #141F00",
"O  c #100A16",
"+  c #150D1D",
"@  c #142100",
"#  c #192604",
"$  c #1B2B01",
"%  c #252B19",
"&  c #161021",
"*  c #181B25",
"=  c #181729",
"-  c #1B1C2E",
";  c #1D2130",
":  c #1E2A35",
">  c #19373C",
",  c #263223",
"<  c #2A3725",
"1  c #2C3A26",
"2  c #2B3729",
"3  c #2B3828",
"4  c #202431",
"5  c #28243B",
"6  c #2D4503",
"7  c #2F4B02",
"8  c #2C4109",
"9  c #304E01",
"0  c #315100",
"q  c #3B5E02",
"w  c #3F5E0D",
"e  c #3F5D14",
"r  c #415E13",
"t  c #41620D",
"y  c #456C0E",
"u  c #4B6E0F",
"i  c #4E7607",
"p  c #4F7C02",
"a  c #4C710C",
"s  c #4B740D",
"d  c #537E03",
"f  c #527A0D",
"g  c #436412",
"h  c #517710",
"j  c #517810",
"k  c #301D42",
"l  c #183E40",
"z  c #2B2744",
"x  c #372843",
"c  c #38264E",
"v  c #373C55",
"b  c #383F56",
"n  c #313552",
"m  c #402658",
"M  c #433064",
"N  c #4A376F",
"B  c #36455A",
"V  c #3F4565",
"C  c #404565",
"Z  c #49506F",
"A  c #4F5A6F",
"S  c #505B6F",
"D  c #49457B",
"F  c #524974",
"G  c #4E5476",
"H  c #4F5A70",
"J  c #548302",
"K  c #568A01",
"L  c #588D02",
"P  c #54830B",
"I  c #5D8E0C",
"U  c #5A9300",
"Y  c #5B9800",
"T  c #5B910A",
"R  c #5E8B12",
"E  c #608F06",
"W  c #608E09",
"Q  c #679C03",
"!  c #689F02",
"~  c #65960D",
"^  c #669B0C",
"/  c #689F0B",
"(  c #619400",
")  c #649513",
"_  c #669912",
"`  c #689D12",
"'  c #66A700",
"]  c #69A402",
"[  c #67A901",
"{  c #6BAB02",
"}  c #69A30A",
"|  c #6DAA0A",
" . c #67A00C",
".. c #70AE0D",
"X. c #6EB301",
"o. c #6FB800",
"O. c #72B405",
"+. c #71BA01",
"@. c #72B40D",
"#. c #76BB0F",
"$. c #78BE0E",
"%. c #6BA412",
"&. c #6EAA11",
"*. c #70AE11",
"=. c #73B310",
"-. c #75B810",
";. c #7AC30D",
":. c #7DCA0C",
">. c #79C306",
",. c #80CF0D",
"<. c #4C4F87",
"1. c #5A4185",
"2. c #5F4888",
"3. c #51558B",
"4. c #5E4D92",
"5. c #585898",
"6. c #614B89",
"7. c #64558B",
"8. c #5B6491",
"9. c #5B7F9F",
"0. c #4B6A95",
"q. c #616B94",
"w. c #646D9D",
"e. c #615BA4",
"r. c #6766AB",
"t. c #6567AA",
"y. c #6974A0",
"u. c #6971AF",
"i. c #7171AE",
"p. c #666AB5",
"a. c #6A70B7",
"s. c #6C72B8",
"d. c #7678B1",
"f. c #7077BA",
"g. c #747CBC",
"h. c #6388AB",
"j. c #7690AD",
"k. c #7584BE",
"l. c #7986B9",
"z. c #7886B9",
"x. c #4CA4B3",
"c. c #49BBBF",
"v. c #648DC7",
"b. c #6B8DC6",
"n. c #7A85C1",
"m. c #7D8BC3",
"M. c #7F93C4",
"N. c #79A0CF",
"B. c #79A9D3",
"V. c #67C2D9",
"C. c #6AC3E2",
"Z. c #62D5EC",
"A. c #69DEF0",
"S. c #61F9FF",
"D. c #819AB8",
"F. c #818FC5",
"G. c #8294C6",
"H. c #8499C7",
"J. c #869EC8",
"K. c #86AAC9",
"L. c #8AAFCB",
"P. c #8CB2CC",
"I. c #8EBCCE",
/* pixels */
"[ { O.] Q [ { X.O.X.{ X.O.{ ] _ ! ! ! ~ ) ) ^ o.X.Q Q ' ] ] ~ ) ) ) _ ~ ] o. .X.X./ ~ X.| %.%._  .X.{ _ ) )  .X.| X.X.] ! ] X.X.",
"{ X.X. .] ] O.X.X.X.[ X.X.[ ^ ) Q Q ! ~ ) ~ { X.X.) ~ ! ] ! _ ) )  . . .o.X.} { { / X.X.` _ } } X.X.` ) ) } X.X.] [ { / ] X.O.[ ",
"{ X.] ^ ] { X.X.o.] { X.[ ] ~ ~ ~ Q Q  .] ] { X.] ) ~ ^ Q ~ ) ^ { | _ { +.} ] { [ X.o. .) | ] ] o.{ _  .| X.+.] ] [ { ] X.X.[ ] ",
"X.X.} } X.{ [ +.X.] [ { ] ! ~ ) ) ) | o.|  .{ { ^ ) ) ) ) ) } X.| _  .o.+.] ] [ { X.X.` | X.} X.X.} ] X.] X.X./ ] ] ] { X.{ ! ] ",
"X.[ [ +.X.Q { +.] ! ] ] ! Q ~ ) ) | o.{ ) ] ] ' ~ ) ) ) ) ^ X.{ ~ _ { +.X./ ] ] X.X.] ] +.] ] { { X.o.X.X.X.] ^ Q ] [ { { ] Q ] ",
"{ [ X.O.^ / X.+.} ! ! ! Q ~ _ ~ ] X.{ ~ ~ ] ] ] _ ) ) ) ~ [ { ] ) / { O.] Q ] X.X.{ ] O.X./ [ { X.X.O.X.{ X./ ~ Q ] ] { { _ ^ X.",
"] { O.] ) ] X.X.^ Q Q Q ~ _ / } o.X.Q ) ~ ! ! ! ) ) ) ~ ] ] ] ~ _ ] { {  .] X.X.] { X.X.} / ] { X.X.X.[ { { ^ ) ~ Q ] X./ ) { o.",
"] ] [ ^ _ { X.] ~ ~ Q ~ _ } } { o.] ~ ) ^ ! ! ! ) ) ^ / ! ] ] / ^ ] [ [ ] X.X.{ ] [ X.X.~ ! { X.X.o.X.] [ ] _ ) ) ) X.{ _  .o.o.",
"Q ! ] ) / X.O./ ) ) ) ~ ] { | o.{ ! )  . .^ ~ ~ ) | } ) ^ Q ] ] ~ ] ] ] { X.{ ] ] X.X.] / X.X.] X.O.] ] [ Q ) ) ) | o. ._ { +.[ ",
"~ ~ Q ) [ O.[ ^ ) ) ` { o.} X.X. .~ ] | ) ) _ ^ { { _ ) ) ~ X.%.~ ! ] ] [ { ] Q ] X.{ [ X.X./ ] +.X.Q ! ] ^ ) ) / X.X.) ^ { X.} ",
") ) ) _ O.X.] _ ) } +.+.X.} X.] _ { X.) ) _ / { o.` ) ) _ X.] ) ~ ~ Q ] { X._ ~ X.O.[ O.+.} ~ { o.] Q Q ! ^ ) _ [ O.] _ ] { { ^ ",
") ) _ { o.] ! ^ ] +.+.+.} ] X.] | X.} ) / ] ] o.] ) _ } { o._ ) ) ~ ~ ! X.} ) | +.{ [ X.[ _ } X.X. .Q Q Q ~ ) ^ X.X. ._ { { ] ) ",
") )  .o.[ ! ! ] X.X.+.X. .[ { { X.{ _ } X.] X.X. . .X.| +.X._ ) ) ) %.X.X._  .o.X.] ' ] ] ) [ O.X._ ~ ~ ^ ~ ) ] X.{ ~ ~ ] ] ] ) ",
") _ X.o.] Q ] [ { X.+.| ] ' { X.O.} } o.} ' { X.{ o.] X.+.} ) ) %.%.| +.} ) ] o.| Q ! ! ~ _ { X.] ) ) ) ~ ` / ] { ] _ Q ] ] ^ ) ",
"_ } X.X.^ Q ] ] { X.X.] ] { X.X.{ ] O.X.^ [ { X.o.X.X.X.X.~ ) *.#.} X.o.~ ^ X.X.] _ ~ ~ )  .o.X. .) ) ^ ] } / ] ] ] ) Q Q ! ~ ) ",
"] { X.] ) ~ Q ! X.O.X.] X.X.X.{ [ X.o.} Q { { X.o.X.{ X.{ ` -.;.%.] O.{ )  .{ { ~ ) ) ) _ { X.] / ) } X.} ) Q ] ] / ) ~ Q Q ~ ^ ",
"} { { ] ) ) ) | O.{ +.o.X.o.{ [ { X.X.~ ] p $             $ T P #     $ a ] { ] _ ) ) ) ] o.] ] ^ ] o.{ ) ) Q ! ] ~ ) ) ~ ^ ] X.",
"] [ { ~ ) ) %.$.{ X.+.X.X.{ ] ] X.X.] I K y 1 4 ; * X   O % g r 3 4 4 3 e J ! Q h j R ` o.X.] ! ] { X._ ) ) ( ! ! ~ ) ) _ { X.` ",
"] ] ] ~ ) %.;.O.{ X.X.[ X.[ ! ] X.X.] L 0 1 S q.q.H * O k x % 2 S q.q.A 3 6 J d 8 8 j { o.{ ( ] [ {  .) ) ) ~ Q Q ) ) ~ [ X. .) ",
"] ! ] ~ ) $.$.] { { { [ { ^ Q X.X.] { K $ ; h.B.B.h.B 5 c c 5 B y.F.F.y.b 1 t t 2 2 g U [ } ~ ] ] ] ~ ) ) ^  .^ ~ ~ ) ] { [ ) ) ",
"Q Q Q ) *.;.@.Q ] ] ] X.} ) ] +.{ { X.J # > x.A.A.V.h.G 5 5 G y.z.F.F.l.y.S < 2 H S 1 0 K _ ) Q Q Q _ )  .{ ` ) ) ) ~ ! ] Q ) _ ",
"Q Q Q ` $.;./ ^ Q ] X.X._ _ +.X.' { { i # > c.S.S.A.B.y.b b y.F.l.n.n.m.F.y.b b y.8.4 $ p ) ) ) ~ ~ _ ] X.} ) ) ) ~ ~ Q ] ~ ) _ ",
") ~ ~ *.$.=._ ) ~ ] o.} _ ] +.[ ! ] ' a $ l c.S.S.A.B.l.y.y.l.n.g.s.s.g.n.l.y.y.l.q.4 $ i ) ) ) ) _ ] O.| ) ) ) ) ) ) ~ ~ _ ) ) ",
") ) ` =.#.%.) ) ` o.X._ _ X.X./ ^ Q Q y $ > x.Z.Z.C.M.F.F.F.n.g.r.e.e.r.g.n.F.F.G.q.4 $ a ) ) ) _ Q { { _ ) ) ) ) ) _ ) ) _ ) ) ",
") ) ` =.=.` ) ) | O.] _ ] X.{ _ ) ~ ) u $ ; 0.v.v.b.m.M.F.n.g.r.4.1.1.4.r.f.m.M.G.q.4 $ a _ ) ) Q ] [ ] ) ) ) ) ) ~ ) ) %.%.) ) ",
") ) &.*.*._ ) _ X.X. ._ { { ] _ ) ) ) J 0 , V <.<.3.8.8.q.8.3.D M c m M 1.<.8.8.8.H 1 7 f ) _ / ! ] ] ~ ) ) ) _ } _ ) =.-.) ) ) ",
") _ &.&.%.) ) ] X.{ _ / [ { } ) ) ) ~ { U t , = - ; 4 4 4 4 - & & + + & = - ; 4 ; 1 g p I _ } ^ ~ ( Q ~ ) ) _ | ^ ) -.;._ ) ) ) ",
") ) %.%.%.) _ [ { [ ) Q ] ] ^ ) ) ) X.o.{ d 6 o .   O & + + + + + + + + + O X . @ 6 j _ ) } } _ ) ~ ~ ) ) ) | { _ *.:.&.) ) ) ) ",
") ` ` %.` ) ] ] { ] ) Q ! ! ~ ) ) ` X.X.] T K q o O c m m m m m m c m m c k O o q j R )  .X._ ) ) ) ) _ } } o.` %.;.-.` ) ) ) ) ",
"} ` ) _ _ } ] ] ] / ~ Q Q Q _ ) ^ { X.{ ~ W d t , z F 7.6.6.6.6.6.6.6.6.2.N z < e j ) } o.| ) ) ) ) _ | } X.X._ =.;.@.) ) ) ) ) ",
"` ) ) _ | ] Q ! ] ~ ) ~ Q ^ / ] } X.{ ] ) f 8 , C 8.j.j.z.d.d.d.d.d.d.i.e.e.3.C , 6 L X.o.^ ) ) ) _ { } ] o.} %.#.$.%.) ) ) ) | ",
") ) ) } | ~ ! ! ! ~ ) _ _ ] X.}  .{ {  .) u # - 3.k.I.I.K.F.F.F.F.G.H.G.g.a.a.3.- $ J X.{ _ ) ) ) | X.} X.X.` @.+.O.) ) )  .X.| ",
") _ } +./ ) Q Q Q ~ ` &.{ X.] ) ] O.[ ~ ) u # ; 8.M.I.I.J.F.F.F.F.H.L.L.M.n.n.8.4 $ J X.] ) ) )  .o.| ] X.] } >.+.%._ ^ } X.X._ ",
"} ] X.X._ ) ) _ ~ %.#.{ { { _ ` O.] ] _ ) f $ 4 q.H.K.K.G.G.H.H.G.H.K.K.G.F.F.q.; $ J X._ ) ) ^ X.o.} [ { ] O.+.| %.} | { X.} ) ",
"| { O.] ) ) ) ) } ;.| ] [ ] _ #.{ ] ! ) %.I $ 4 q.m.k.k.m.H.P.P.H.F.n.n.m.F.F.q.4 $ J [ ) ) ) | o.X.] [ [ X.O.{ %.X.| ] X.X.^ | ",
"{ X.O.~ ) ) ) %.;.#.Q ! ] _ =.$.Q Q ^ %.;.P # 4 q.m.s.s.n.H.K.K.H.n.a.a.g.n.n.8.4 $ d ] ) ) _ X.o.| Q ' { O.X.} O.O. .[ { { X.o.",
"X.X.] _ ) ) _ #.;.%.~ ! / &.:.&.~ ~ } >.;.u # 4 q.n.s.s.n.m.k.k.m.k.s.p.s.s.s.3.- # d Q ) ) ] X.X./ ! ] O.X.{ { +.| ] [ { X.X.X.",
"{ X.} ) ) ) *.;.-.) %.` %.:.;.` ) ~ #.;.&.h 8 1 A w.u.f.k.g.s.s.k.g.s.p.a.p.5.V , 6 J ^ ) ) ] X.{ ^ [ X.X.[ { { X./ Q ] X.X.X.o.",
"[ {  ._ ) ` -.-.&.&.*.) -.:.*.) ) %.#.#._ R f t 1 b w.k.s.s.p.p.s.a.p.a.g.w.n , r d ( ~ ) ` ] [ ] ] X.X.[ ] X.X.{ ~ ] { X.X.o.{ ",
"[ ] ~ ) ) &.=.=.*.#._ %.;.:.%.) _ *.-.*.) ) ) f 6 1 S w.u.s.p.p.p.p.s.u.w.A 1 6 d Q Q _ ) ^ ] ] [ { X.{ ] ] X.O./ / { X.[ o.X.] ",
"] ] ) ) ) *.*.=.:.*.) =.;.-.` ) %.*.=.%.) ) _ ~ P y 1 b y.g.s.p.p.a.g.w.b 1 y f I ~ ~ ) _ Q ! ] [ [ { ] ! { O.{ ] X.X.! { +.] ] ",
"] ! ) ) _ &.*.;.;.) ) -.;.=.) ) %.*.%._ ) ` { / { Y 6 3 H w.u.s.s.u.w.A 1 0 K ) ) ) ~ / ~ Q Q ] ] X.] ~ Q X.X.] +.X./ / X.+./ ! ",
"Q Q ) ) _ %.=.:.=.)  .=.=.&.) %.&.%.%.` ^ | {  .X.[ f g 3 b w.m.n.w.v 3 y L E ) _ } | ^ ) ) ~ ! { X._ _ { o.] O.X.] ) ] X.{ ^ ! ",
"Q Q ) ) ) %.$.;.%.) %.=.*.&.=.*.) _ %.} | X.} { o.] _ J 7 1 A 8.q.A 3 9 U { ~ ` } X./ ) ) ) ) / O.{ _  .o.X.] [ [ / ` { X.} ~ Q ",
"~ ~ _ ) ) *.;.#._ ) =.&.=.:.-.) ) _ { } X.X.^ X.X.} ~ Q K g 3 ; 4 2 y Y [ ' ^ [ +.| ) ) ) ) ) | o.~ _ { X.] ] ] ] ) / X.X. ._ ~ ",
"/ } ` ) _ =.#.*.) &.&.=.;.-.` ) ) X.| ] o. .] X.X.` ^ ] [ K 9 # # 6 Y o.[ ! ] O.O.` ) ) ) ) } +.X._ } X.X.^ ~ Q Q _ ] X.{ ^ ) ) ",
"X.` ) ) %.=.=.%.&.=.%.=.-.&.) ) | X.} X.X.^ [ X.] _ Q ] { { K u a L X.X.Q ! { +.| ) ) ) ) ~ X.X.} _ [ X.[ _ ) ) ) ~ X.X.' _ ) ^ ",
"^ ) ) ) %.*.=.*.;.&.&.=.=.) ) } +.] ] X.] } o.X.] _ ] [ o.X._ _ | X.o.} ~ ] O.$._ _ ) _ ^ } X.X.~ ~ { { } ) ) ) ) { o.] ! ) | o.",
") ) ) ) &.&.=.;.;.` %.&.%.) _ X.X.} [ { [ O.X.[ ] ] ] X.X.} } X.O.+.O.^ ) | >...) ) ] | ~ | X.{ _ / ] [ ^ ) ) ) } +.{ ] Q ] O.X.",
") ) ) _ %.&.$.:.&.) ` ` ` %...o.X./ ] { { X.{ ] O.{ ] X.X.X.o.X.X.+.{ ) _ ;.;.` _ { X.` ~ { { ] _ Q ] ] ~ ) ) _ X.+.] Q ] [ { / ",
") ) ) %.%.&.:.;.` ) ) %.=.| X.o.] ] ] { O.X.] X.X. .{ X.X.+.X.X.X.+.} ) ..,.@.~ { X.} ) ] { { Q ) ! ! ] ~ ) ) | X.X.^ Q ] ] ] _ ",
")  .] ` ` -.;.=.) ) &.;.=. .X.X.] ! ] X.X.[ { o.] ] { X.+.+.X.X.X.X.~ ` $.,.%.] { | _ ) ] { ] ~ ~ Q { ] _ ~ } { X.] ) ^ ! ! Q ) ",
"| X.` ^ %.#.;.%.) *.;.@.) ] X.[ / ] X.X.{ { X.X. .] { X.o.X.X.X.X.{ ^ =.;.-./ ] [ / ` @.] ] ] ~ ) ....~ ] | ] { { / ) ` } Q ~ ) ",
"o. . .` &.#.-.` %.-.-.` ^ ] [ ] ] X.X.[ ] { X.{ ~ ] X.X.X.o.[ { { [ ^ -.$...Q ! ] O.;.} Q ! Q ~ *.#.} { X./ ] ] [ / *.&._ ) _ ] ",
"} } } ) &.=.=.` *.=.%.) ^ ] ] { { X.[ ] ] X.X.Q  .X.X.X.o.X.] ] { Q %.=.-.%.~ ! +.;.*._ Q Q Q %.;...{ O.} _ ] ] O.>.=.) ) _ ] X.",
"{ X._ ` &.=.&. .%.*.` ) Q ! ] { { { ] Q { O.[ { o.X.Q { +.{ ] ] ] ^ %.=.*.` ) *.$.-.) ) ~ ~ ^ ;.;.{ { ] ) ~ ! O.:.$.) ) ) / { { ",
"+.} ) ` %.*.%.` %.%._ _ ^ Q Q ] { ] _ ^ X.X.[ O.o.^ / X.X.Q Q ! ! ^ %.*.*._ %.=.=.%.) ) ) ) @.:.O.] ] ^ ) ^ { >.;.%.) ) ) ] { { ",
"X.) ) ` ..&.` ) ) ` } ~ ) _ Q ] X.~ _ X.o.] { X.| ) ] X.X.^ Q Q Q ` %.%.` ) %.*.&.) ) ) ~ ` ;.:.{ Q ] ) ) / O.$.@._ ) ) ~ ] { { ",
"} ) _ } } %._ ) _ | } ) ) ) / X.{ _ } +.X.] ] ] ^ _ { X.] _ ^ ^ Q _ ` ` ` _ ` ` %.) )  .} *.;.-.~ ^ Q ) ) } | @.} ) ) ) } { ] +.",
"_ _ | | _ _ _ ^ { { ) ) ) ^ X.o./ _ { X.] Q ] ! ~ / X.X./ ) ) ) ) ^ ^ ` _ ) ) ) ) _  .| ` -.-.*.) ) ) ) ) ` %.%._ ) ) / +.] { O.",
"_ { X.) _ `  .{ o.^ ) ) ` X.o.X.) } X.O.~ ~ ~ ^ ) [ o.[ ^ ) ) ` } _ ) ) ) ) ) ) ~ / X.~ %.-.-.%.) ) ) ) ) ) _ _ ) ) _ X.X.} X.{ ",
"{ +.` )  .] [ +.| ) _ } X.o.o. ._ [ { [ _ ) ) ) ^ X.X.] _ _ } X.^ ) ) ) ) ) ) %.} X.| _ %.=.=.` ) ) ) ) _ _ ) ) ) _ { +.} [ { { ",
"o.{ _ } X.} X.X.^ } X.| o.o.X._ ^ ] [ ] ) ) ) ) X.o.] ] ~ ] +.} ) ) ) ) ) ) } } | X./ ) *.....) ) ) ) ^ } ) ) ) _ { +.+.] { { { ",
"X. .} o.} [ { { { o.] X.o.X.[ _ / ] ] / ) ) ) } o.{ ! ! | X.{ ) ) ) ) ) ) ` X.} X.O.) ) *.O.%.) ) ) } | ) ) ) _ | X.+.{ Q ] [ O."
};
