/* XPM */
static char *ghost31704828128[] = {
/* columns rows colors chars-per-pixel */
"64 64 149 2 ",
"   c #030204",
".  c #070B01",
"X  c #141F00",
"o  c #100A16",
"O  c #150D1D",
"+  c #142100",
"@  c #192604",
"#  c #1B2B01",
"$  c #1E3003",
"%  c #161021",
"&  c #181729",
"*  c #1B1D2E",
"=  c #1D2231",
"-  c #1E2A35",
";  c #18353B",
":  c #1A383C",
">  c #263223",
",  c #2A3725",
"<  c #2C3A25",
"1  c #2B3729",
"2  c #2C3B28",
"3  c #202431",
"4  c #2D4503",
"5  c #2F4B02",
"6  c #304E02",
"7  c #315100",
"8  c #3B5E02",
"9  c #3F5D14",
"0  c #405F0E",
"q  c #415E13",
"w  c #42630D",
"e  c #456C0D",
"r  c #4B6F0F",
"t  c #4E7607",
"y  c #4F7C02",
"u  c #46700D",
"i  c #4C710C",
"p  c #4F780D",
"a  c #537E03",
"s  c #537C0C",
"d  c #486E15",
"f  c #426113",
"g  c #517710",
"h  c #517810",
"j  c #301D42",
"k  c #183E40",
"l  c #2C2845",
"z  c #373C55",
"x  c #383F56",
"c  c #402658",
"v  c #433064",
"b  c #4F3E72",
"n  c #36455A",
"m  c #3F4565",
"M  c #404565",
"N  c #4F5A6F",
"B  c #505B6F",
"V  c #49457B",
"C  c #524974",
"Z  c #4F5970",
"A  c #505A70",
"S  c #538401",
"D  c #568A01",
"F  c #598D02",
"G  c #55850B",
"H  c #5E8E0C",
"J  c #5A9400",
"K  c #5B9800",
"L  c #5E8B12",
"P  c #608F06",
"I  c #608E09",
"U  c #619400",
"Y  c #679C03",
"T  c #689F02",
"R  c #65960D",
"E  c #669B0C",
"W  c #689F0B",
"Q  c #649513",
"!  c #669912",
"~  c #689D12",
"^  c #66A700",
"/  c #69A402",
"(  c #67A802",
")  c #6BAB02",
"_  c #67A00C",
"`  c #69A30A",
"'  c #6DAA0A",
"]  c #70AE0D",
"[  c #6EB301",
"{  c #6FB800",
"}  c #72B405",
"|  c #71BA01",
" . c #72B40D",
".. c #76BB0F",
"X. c #78BE0E",
"o. c #6BA412",
"O. c #6EAA11",
"+. c #70AE11",
"@. c #73B310",
"#. c #75B810",
"$. c #7AC30D",
"%. c #7DCA0C",
"&. c #79C306",
"*. c #80CF0D",
"=. c #5A4085",
"-. c #51568A",
";. c #5E4D92",
":. c #565991",
">. c #614A89",
",. c #64558B",
"<. c #4B6A95",
"1. c #5B6491",
"2. c #5B7F9F",
"3. c #616B94",
"4. c #646D9D",
"5. c #615BA4",
"6. c #6766AB",
"7. c #6C6EA6",
"8. c #6974A0",
"9. c #6971AF",
"0. c #666AB4",
"q. c #6A70B7",
"w. c #6C72B8",
"e. c #7678B1",
"r. c #7077BA",
"t. c #727BBB",
"y. c #6388AB",
"u. c #7690AD",
"i. c #7584BE",
"p. c #7986B9",
"a. c #7A83B3",
"s. c #4CA4B3",
"d. c #49BBBF",
"f. c #6B8DC6",
"g. c #7A85C1",
"h. c #7D8BC3",
"j. c #7F93C4",
"k. c #79A0CF",
"l. c #79A9D3",
"z. c #67C2D9",
"x. c #6AC3E2",
"c. c #69DEF0",
"v. c #819AB8",
"b. c #818FC5",
"n. c #8293C6",
"m. c #8499C7",
"M. c #86AAC9",
"N. c #8AAFCB",
"B. c #8CB1CC",
/* pixels */
"( ) } ( Y ( ) [ [ [ [ [ [ ) / Q Y T T R Q Q W [ [ / E / / / R Q Q Q ! Q ( } ` ) [ ` R } ' o.~ ! ` [ ' Q Q Q E [ ` [ [ / T / [ [ ",
") [ [ W / / } [ } [ ) [ ) ( Y Q Y Y Y R Q R ) [ ) R R T / T ! Q Q _ _ _ | [ / ) ) ` [ [ ! ! ` / ) | E Q Q ' { [ / ) ) W / [ } ( ",
") [ ( E / ) ) [ { ( ( ) ) / E Q E Y Y ` ) / ) [ ` Q R Y Y R Q ! ) ' Q ) | ' ( ) ( ) } W Q ' ' ( [ ' ! ` ) ) } / / ( ( / [ [ ( / ",
"[ [ W W [ [ ( { [ / ) ) / T R Q Q Q ` | ` ` ) ) W Q Q Q R Q W [ [ Q _ { } Y ) ( [ [ ) ~ ) { ` ) [ / ' [ ( } [ W / / ) ) [ ) T / ",
"} ( ( | [ Y [ { ) T / / T Y R Q Q ' } ( Q / ( / R Q Q Q Q E [ [ E Q ) | [ W / / [ [ / ( | / ( ) [ [ | [ [ [ / E Y / ) ( ) / Y / ",
") ) [ } E W [ } W Y T / Y R Q R ( [ [ R R / / / Q Q Q Q R ( ) / Q R [ [ / Y / [ [ ) ( } [ E ) ) [ [ [ [ ) [ ` R Y T / ) ) ! E [ ",
"/ ) [ / Q / } [ E Y T Y R Q W ` [ [ Y Q R T T T Q Q Q ! / / / R ! / ) ) ` / [ [ / ) [ [ ` Y / ) [ [ [ ( ) ) E Q R Y / [ E Q ) | ",
"/ / ( E ! ) [ ( R R R Y Q ` ` [ | / R Q E T Y Y Q Q W Y T / / E E / ( / / [ [ ) / ) [ [ R Y ) [ ) { [ / ( ( Q Q Q Q [ [ ! ` { [ ",
"T T / Q W [ [ ` Q Q Q R ' ) / { ) Y Q ` W R E E Q ' ` Q E Y / ( R / / / ) [ ) / / [ [ / E [ [ ( [ [ / / / / Q Q Q ( { ` Q ) [ ) ",
"R R R Q ( [ ) E Q Q ~ ) [ ` [ [ ` R ( ' Q Q ! R ) ) ! Q Q E [ E R T T ( ( ) / Y / } ) ( { [ Y / | [ Y T / W Q Q W } [ ! E [ [ ` ",
"Q Q Q E } [ / R Q ( | | [ ` [ ) ! ( [ Q Q ! ` ) { ~ Q Q ! [ ' Q R R T / ( [ ! R [ } ( } } ` R ) { / Y Y T R Q Q ) [ / Q / [ ) ! ",
"Q Q Q [ [ / / R / } | | ` ) ) / ' { ` Q E / ( } ) Q ! ` ) [ ~ Q Q R R / { ` Q ' | ) ( [ ) ! ` [ [ _ Y Y T R Q W [ [ ` Q / ) / Q ",
"Q Q ` | ) T T / [ | | [ ` ( ) ) [ ) ! ` [ / [ [ E _ ] ) { [ Q Q Q Q E [ [ R E { [ / / ( / Q ( } [ ! Q E R R Q / [ ) R E / / / Q ",
"Q Q [ { / Y / / ) [ | ) Y ( ) [ } ` ` { ` ( ) ) ) { ) [ [ / Q Q ~ o.] | ' Q ( [ ) Y T T E Q ) [ / Q Q Q Q W W / ) / Q Y / / E Q ",
"! ` [ [ R Y / / ( | } / / ) [ [ ) / [ [ ` ( ) [ { [ [ [ [ ~ ! +...` } { ! ! ) [ ` Q R R Q W [ [ ` Q Q R ) W W / ( / Q Y T T R Q ",
"/ ) [ / Q R Y Y [ } ) ( [ [ [ ) ( [ [ ` / / [ [ [ { ) ) ( ~ #.$.o./ } ) Q / [ ) E Q Q Q Q [ [ ( W Q ` [ ` Q Y / / E Q R Y Y R R ",
"` ) ) / Q Q Q ' } ) } { { { ) / ) [ [ R / y # # D ) ( ) ( G $     # D ` Q / ( a @ @ d Q ( { ( / E / { ) Q Q Y T / R Q Q R R ) [ ",
"/ ( ) R Q Q o.X.) [ { [ [ ) / / [ [ / H D e < < r D T T J d 2 3 3 < e s H Y D w 1 1 9 G ) [ T T / ) [ ! Q Q Y Y T R Q Q R ) { ~ ",
"/ / / R Q ~ $.} ) [ [ ) [ / T ( [ ) / F 7 , B B < 4 D D 5 2 A 3.3.N < 4 a S 4 < Z Z 1 5 K ) Y T ( ( ` Q Q Q R Y Y R Q Q ( [ _ Q ",
"/ T / R ! X.$./ ) [ ( ( ) E Y [ [ ( [ D # - y.y.n , w w 2 x 8.b.b.8.x , q w , n y.2.- # S ` R Y / / R Q Q Q / E R R Q / ) / Q Q ",
"Y Y Y Q +.%.+.T / ( / [ _ Q / | ) ) [ S @ : s.z.y.B < < A 8.p.n.b.p.8.B 1 < A y.z.s.: # S ! Q Y Y Y Q Q W ) ! Q Q Q E T / Y Q Q ",
"Y Y E ~ X.X.W E T / ) [ Q ~ | [ / ) ( t @ : d.c.l.8.x x 8.h.g.g.i.h.b.8.x n 8.l.c.d.k # y ! Q Q R R ~ ( [ ` Q Q Q Q R Y / R Q Q ",
"R R R +.X. .Q Q R / { ` Q ) | ) / / ( i @ k d.c.l.p.8.8.p.h.t.w.w.t.g.p.8.8.i.l.c.d.k # t Q Q Q Q Q / } ' Q Q Q Q Q Q R E Q Q Q ",
"Q Q ~ @...o.Q Q ~ { [ ! E [ [ ` Y Y Y u # ; s.x.k.b.b.h.h.t.6.5.5.6.t.g.h.j.j.j.x.s.; # i Q Q Q Q / ) ) ! Q Q Q Q Q Q Q R ~ ! Q ",
"Q Q ~ @.@.~ Q Q ' | ( Q / [ ) R Q Q Q r # = <.f.h.n.n.h.t.6.;.=.=.;.6.t.g.b.b.h.f.<.= @ t Q Q Q Y / ( / Q Q Q Q Q E Q Q O.o.Q Q ",
"Q Q +.+.+.! Q ~ ) [ ` ! ) ) / Q Q Q Q G 6 > m -.1.1.3.1.-.V v c c v V -.1.3.3.1.-.m > 4 p Q ! _ Y / / R Q Q Q ! / Q Q @.#.Q Q Q ",
"Q ! o.+.o.! Q / [ ) ! R / ) W Q Q Q R ) J 0 > * 3 3 3 = * & % O O % & * 3 3 3 = * > 9 a H Q ` E R Y T Q Q Q ! ) E Q #.$.Q Q Q Q ",
"Q Q o.o.~ Q Q ) ) ) Q Y / / W Q Q Q ) { ) a 4 X .   o O O O O % O O O O O o   . + 4 s R Q ' ( Q Q R R Q Q Q ' ( Q @.$.O.Q Q Q Q ",
"Q ~ o.~ ~ Q Y ) ) / Q Y T / R Q Q E [ [ / H D 8 + o j c c c c c c c c z c j o + 8 h L Q ` [ Q Q Q Q Q Q ` ` { ~ o.$.#.! Q Q Q Q ",
"` ~ ! ! ! ` / / / W R Y Y Y ! Q _ ) [ ) R H a 9 > l C ,.>.>.>.>.>.>.=.>.>.b l , 9 h L ' { ' Q Q Q Q ! ( _ [ [ ~ #.$. .Q Q Q Q Q ",
"! Q Q Q ' ` Y / / R Q R Y R W ( ' ) [ / Q s 4 > M 1.u.v.a.e.e.e.e.e.e.e.e.7.:.M > 5 G [ { E Q Q Q Q ) ' ( [ ` '  .X.o.Q Q Q Q ] ",
"Q Q Q ` ) ! T T T R Q Q ~ / [ ` W ) ) W Q r @ * -.i.M.B.m.n.m.m.b.b.n.n.m.n.t.-.* # S { ) ! Q Q Q ' [ ` [ [ E ] &.] ! Q Q E { ' ",
"Q ! ` | W Q Y Y Y Q ! +.) [ / Q ) ) ( R Q d @ = 1.h.m.m.n.m.B.N.m.b.b.m.B.N.b.1.3 # S [ / Q Q Q _ { ' / ) ) _ | X.` Q W / [ { Q ",
"` / [ [ ! Q Q ! Y o.#.) ) ) ! ~ } ) / ! Q h # 3 3.n.m.m.n.m.M.M.n.b.b.b.M.M.m.3.3 # S ) ~ Q Q ! [ { ` ) ) ) } | ] o.' ` ( } ` Q ",
"' ) } / Q Q Q Q o.$.' / ( / Q ..) T Y Q o.H @ 3 3.m.B.B.m.h.i.i.b.b.b.b.i.i.h.3.3 # S ( Q Q Q ' { [ / ( ) [ | ' o.} ) / [ [ E ' ",
") [ } R Q Q Q o.$...Y T / R #.$.T Y Y O.$.G @ 3 3.m.M.M.n.h.t.t.b.b.b.g.w.r.i.3.3 # a / Q Q E [ { / T ( ( [ } ` ' | W ) ) ) [ { ",
"[ [ ( Q Q Q ! X.$.o.Q / Y O.%.O.R R ` *.$.i @ 3 3.h.i.i.h.b.g.h.b.b.b.b.w.w.i.3.3 # a Y Q Q / } [ E T / [ [ ) ) | ( / ) ) [ [ [ ",
") [ / Q Q Q +.X. .! o.~ o.%.$.! Q !  .X.O.g 4 , B 4.9.t.i.g.g.g.g.g.g.t.r.9.4.B < 4 S E Q Q ) ) ) W ( [ [ ) ( [ } W T / [ [ { [ ",
") ) W Q Q ~ #...o.O.+.Q #.%.@.Q Q O.....~ L s q < z 4.i.r.w.w.w.q.w.w.r.i.4.z < 0 a U R Q ! ( ) / / [ [ ( / ) [ ( R / ) [ [ { ) ",
"( / ! Q Q +.@.@.+.X.! ~ $.%.o.Q ! +. .+.Q Q Q s 4 < N 4.9.q.0.0.0.0.w.9.4.A < 4 a Y Y R Q E / / ( ) [ ) / / [ } ` W ) [ ( [ [ / ",
"/ / Q Q Q +.+.@.$.O.Q +.$.$.~ Q ~ +.+.o.Q Q ! Y s u 2 z 4.t.q.0.0.q.t.4.z < e s I Q E Q Q Y / / ) ) ) / T ) [ ) / [ [ T ) | ( / ",
"/ T Q Q ! o.+.$.$.! ~ #.#.+.Q Q o.+.O.~ Q ! ) W ) K 5 1 Z 8.9.w.w.9.4.A < 6 S Q Q Q R W R Y Y / / ) ( R Y } ) ) [ } W W } [ W T ",
"Y Y Q Q ! ~ @.*.@.Q ~ #.#.o.Q o.O.o.~ ~ R ' ' W { ( s f < z 4.g.g.4.z , e F U Q Q E ) W Q Q R T / [ ! Q ) { / [ [ ( Q ( } ) E Y ",
"Y Y Q Q Q o.$.$.o.Q o.#.@.O.#.O.! ! o.` ' | ` ( [ ( Q S 5 < Z 3.3.A 1 6 J ) R Q ' { W Q Q Q Q E { ) Q ' { [ / ( ) E ~ ) [ / R Y ",
"R R ~ Q Q +.$...! Q @.O.#.%.#.Q Q ~ ' ` [ [ E [ [ / ! / F w < = 3 1 e K ( / E ) [ ' Q Q Q Q Q ) { E ! [ } / / T / Q W [ [ ` Q Q ",
"E ` ! Q ! @...+.Q O.O.+.$.#.! Q Q [ ` ( } / / [ [ ~ R / / D 6 @ @ 4 K | ( T / } | ~ Q Q Q Q ` { [ Q E [ [ W Y Y Y Q ( [ ) E Q Q ",
"[ ~ Q Q o.#.@.o.O.#.o.....o.Q Q ) [ ` [ [ E ( [ ( Q Y / ) ) G i g F ) [ Y / ) | +.Q Q Q Q R [ } ` Q ( [ ( Q Q Q Q R [ [ ( Q Q ` ",
"E Q Q Q o.+.@.+.$.o.O.O.@.! Q ` { ' / [ / ` { [ / ! / ( { [ ! ! ` } { ( R / } X.! Q Q ! E ` [ [ E E ) ) ` Q Q Q ! ) [ / / R ' [ ",
"Q Q Q Q O.O.@.%.#.o.o.O.o.Q ! { { ` / ) ) [ | / / ) / [ [ ` ` [ } | } R R ' *.' Q ! ` ) ~ / [ ) Q W / ( W Q Q Q ' { ) T T / } [ ",
"Q Q Q ! o.O.#.%.O.! ~ o.~ ~ ] { [ ` / ( [ [ ( / [ ) ` [ [ [ { [ [ | ) Q ! X.X.~ ! ) } E R ) ) / Q T / ) R Q Q Q [ [ / Y / ( ) W ",
"Q Q Q o.` O.$.$.~ Q Q o.#.' { [ / Y / ) [ [ / [ { ` ( [ { | { ) { { ` Q ] *.@.! ) [ ` Q ` ( ) Y ! T T / R Q Q ' } [ E Y / / / R ",
"Q E ' _ o.#.$.#.Q Q o.$.O.` [ [ / T / [ [ / ) { ( Y ) } | { [ [ [ [ E ~ X.*._ / ) ) Q Q ) ) / R Q Y ) T Q ! / ) [ ( Q E T / E Q ",
"' [ E E o.#.$.o.Q +.$. .Q ( ) ) W ) } [ ( ) [ [ W / [ [ [ { [ [ [ ) E @.$...W / / Y o.@.) T / R Q ] ] R / ) / ) ) W Q ~ W Y R Q ",
"[ _ _ ! O.#.#.~ o.....~ ! / ) ( ( [ [ / ) ) [ ) R / [ [ [ { ) ) ) ( W @.X.] Y T /  .$.` Y T Y R O...W ) } ~ / ( ( ~ +.+.Q Q Q ) ",
"( ` ` ! @.#.O.~ +.@.o.Q R / ) ) ) [ ( T / ) [ Y W [ [ ) { { / / ) Y o.@.@.o.R Y } %.+.Q Y Y Y o.$.] ) } W Q / / } X.@.Q Q ! / [ ",
"' [ ! ! O.@.O.o.o.+.~ Q Y Y T ) ) ) / T ) } ) ( [ [ T ) | ) Y / ) E o.@.+.~ ! ] $.@.Q Q R R R $.$.) ) ) Q R / } &.$.! Q Q Y ) ) ",
"| ` Q ~ O.O.o.~ ~ o.Q Q E Y T / [ ( Q W [ ) ) } [ W W { } Y T T Y R o.+.+.Q o.@.@.o.Q Q Q Q @.*.} / ) E Q R ) &.$.` Q Q ! T ) ) ",
"[ Q Q ~ ` O.~ Q Q ~ ' R Q R Y / [ R Q } | ( ) ) ` Q / [ [ E Y Y Y ~ o.O.o.Q o.+.O.! Q Q R ~ $.$.) Y T Q Q W } X. .! Q Q R ) ) ) ",
"` Q Q ' ' o.~ Q ~ ' ` Q Q Q W { ) Q ` | [ / ) ) E ! ( [ / Q R R Y ! ~ ~ ~ ! ! o.~ Q Q _ ` +.$.#.R R Y Q Q ` ]  .` Q Q Q ` ) ) } ",
"! Q ' ' ! ! ! R ) ) Q Q Q E [ { W ! ) | / Y Y T Q ` [ [ ` Q Q Q R E E Q ! Q Q Q Q Q ` ' ~ #.X.+.Q ! Q Q Q ~ o.o.! Q Q ~ { / ) } ",
"! ) [ Q Q ~ ` ) [ E Q Q ~ [ { ) Q ` [ ) R R R E Q ( { ( R Q Q W ` ! Q Q Q Q Q Q R ` [ E o.@.#.o.Q Q Q Q Q ! ! ! Q Q ! { [ / [ ) ",
") | _ Q ` ( ( | ' Q ! ` [ { [ ' Q / ) ) Q Q Q Q E { [ / Q Q ' [ ~ Q Q Q Q Q Q ~ ` [ ' Q +.@.@.~ Q Q Q Q ! R Q Q Q ! ) | ' / ) ( ",
"[ ) Q ' ) ` [ [ E ` [ ' { { [ ! R ) ( / Q Q Q ! ) | ) T ~ ) { ` Q Q Q Q Q Q ` ` ' [ W Q o.] ] Q Q Q Q E E Q Q Q ! ) | [ / ( ) ) ",
"[ ` _ { ` ( [ ) ) { ( [ { [ ) Q Y ) ) W Q Q Q ` | ) T Y ( [ ) Q Q Q Q Q Q ` ' ' [ [ Q ! ]  .o.Q Q Q ` ' Q Q Q ! ' [ | } Y / ) [ "
};
