/* XPM */
static char *ghost01704828128[] = {
/* columns rows colors chars-per-pixel */
"64 64 158 2 ",
"   c #010102",
".  c #070B01",
"X  c #06070B",
"o  c #141F00",
"O  c #100A16",
"+  c #150D1D",
"@  c #142100",
"#  c #192604",
"$  c #1B2B01",
"%  c #1E3003",
"&  c #242916",
"*  c #151222",
"=  c #181729",
"-  c #1A1C2E",
";  c #1C202F",
":  c #1E2130",
">  c #263224",
",  c #283622",
"<  c #2C3A25",
"1  c #2B3729",
"2  c #2C3B28",
"3  c #202431",
"4  c #222D32",
"5  c #2D4503",
"6  c #2F4B02",
"7  c #304E02",
"8  c #3C5E04",
"9  c #385605",
"0  c #3F5D14",
"q  c #3F6614",
"w  c #254C32",
"e  c #415E12",
"r  c #42620D",
"t  c #456C0D",
"y  c #4B6E0F",
"u  c #4E7607",
"i  c #4F7C03",
"p  c #4C720C",
"a  c #4B740D",
"s  c #537E03",
"d  c #537B0C",
"f  c #446913",
"g  c #517810",
"h  c #517710",
"j  c #301D42",
"k  c #2A2544",
"l  c #362742",
"z  c #313552",
"x  c #373C55",
"c  c #383F56",
"v  c #393B65",
"b  c #402658",
"n  c #433064",
"m  c #4A376F",
"M  c #4F3E72",
"N  c #3F4566",
"B  c #305965",
"V  c #404665",
"C  c #4F5A6F",
"Z  c #505B6F",
"A  c #49457B",
"S  c #4F5A70",
"D  c #505A70",
"F  c #538402",
"G  c #558A01",
"H  c #598D02",
"J  c #55850B",
"K  c #5D8E0C",
"L  c #5A9400",
"P  c #5B9800",
"I  c #5E8B12",
"U  c #608F08",
"Y  c #679C03",
"T  c #689F02",
"R  c #65960D",
"E  c #669B0C",
"W  c #689F0B",
"Q  c #619400",
"!  c #649513",
"~  c #669912",
"^  c #689D12",
"/  c #69A402",
"(  c #6BAB02",
")  c #69A30A",
"_  c #6DAA0A",
"`  c #67A505",
"'  c #70AE0D",
"]  c #6EB301",
"[  c #6FB800",
"{  c #72B405",
"}  c #71BA01",
"|  c #72B40D",
" . c #76BB0F",
".. c #78BE0E",
"X. c #6BA412",
"o. c #6EAA11",
"O. c #70AE11",
"+. c #73B310",
"@. c #75B810",
"#. c #7AC30D",
"$. c #7DCA0C",
"%. c #79C306",
"&. c #80CF0D",
"*. c #4C4F87",
"=. c #5C4486",
"-. c #5F4888",
";. c #51558B",
":. c #555892",
">. c #5C589D",
",. c #614B89",
"<. c #64548B",
"1. c #645495",
"2. c #55618C",
"3. c #5B6491",
"4. c #616B94",
"5. c #646D9D",
"6. c #6663A7",
"7. c #696AAB",
"8. c #676BAA",
"9. c #6974A0",
"0. c #6971AF",
"q. c #7171AE",
"w. c #666AB5",
"e. c #6A70B7",
"r. c #6C73B8",
"t. c #7679B2",
"y. c #7077BA",
"u. c #727CBC",
"i. c #3D9690",
"p. c #668697",
"a. c #618FAF",
"s. c #7583BE",
"d. c #7984BB",
"f. c #7A83B3",
"g. c #7C93B5",
"h. c #648DC7",
"j. c #7A85C1",
"k. c #7D8AC3",
"l. c #6994CA",
"z. c #7E91C3",
"x. c #7F96C9",
"c. c #74A2D0",
"v. c #7BA3D0",
"b. c #79A9D3",
"n. c #51C4CC",
"m. c #6FCBE6",
"M. c #61D6E4",
"N. c #63D6ED",
"B. c #67DCEF",
"V. c #69DEF0",
"C. c #61F9FF",
"Z. c #819AB8",
"A. c #818FC5",
"S. c #8293C6",
"D. c #8499C7",
"F. c #85A8C7",
"G. c #86AAC9",
"H. c #8CB1CC",
/* pixels */
"( ( [ ` Y ( ( ] ] ] ( ] ] ( / ! Y T T R ! ! W ] ] Y E / / / E ! ! ! ! R ` [ ) ( ] W E ] _ ^ ~ ~ ) ] ( ! ! ! ^ [ ` ] ] ) Y / ] ] ",
"( ( ] ) / / ] ] [ ] ( ] ] / Y ! Y Y T R ! E ( ] ( E E T / T ! ! ! W W ) [ [ ) ( ( ) ] ] ^ ~ ) ) ( } ^ ! ! ) ] ] / ( ( W / ] ] ( ",
"( ] ( R T ( ] ] [ ` ( ( ( / E ! R E Y ) ( / ( { ) ! R Y Y R ! E ( ) ~ _ } / ` ( ( ( { ) ! _ ( _ ] _ ! ` ( ] } ` / ( / / ] ] / / ",
"] ] ) W ] ( ( ] ] / ( ( / / R ! ! ~ ` } ) W ( ( W ! ! ! ! ! W ] ] ! ) [ [ ` / ( ] ] ( ~ ` { ` ] ] / _ ] ` ] { Y ) / ( ( ] ( / / ",
"] ( ( ] ] Y ] } ` T / / T Y R ! ! _ [ ` ! / ( / R ! ! ! ! W ] ] E ! ( { ] Y / ( ] ] ` ` [ ` / ] ] ] [ ] ] ] ` E Y T ( ( ( / Y / ",
"( / ] ] W W ] ] ) Y / T Y R ! R ` ] ( E R / / / ! ! ! ! E / ( ) ! E ] ] ` E / ] ] ( / ] ] E / / ] ] [ ( ] ( W R Y T / ( ( ! W ] ",
"/ ( ] / ! ` ] ] E Y T Y ! ~ W ) [ ] Y ! R T T T ! ! ! ~ ` / / R ! / ( ( W / ] ] ( ( ] ] ) Y / ] ] ] [ ( ( ( E ! R Y / ] ) ! ` [ ",
"/ / ( E ! ( ] ( R R R Y ! ` ) ( ] / E ! E Y Y Y ! ! W Y Y T / W W / ( / / ] ] ( / ( ] ( E ` ( ] ( [ ( ( ( / ! ! ! ! ] ] ! ) [ [ ",
"Y T / ! W ] ] W ! ! ! E ` ( ` { ( T ! W W R E R ~ _ ) ! R Y / / E T / / ( ( ( / T ( ] ( W ] ] / ] { / / ( Y ! ! ! ` } ) ! ( [ ( ",
"R R Y ! ( ] ( E ! ! ~ ] { ` ] ] ) E / _ ! ! ! E ( _ ! ! ! W ] W R Y T ( ( ( ( Y / [ ( / ] ] E / } ] Y / / W ! ! ) { ] ~ W ( ] ) ",
"! ! ! ~ ] ] / R ! ` { } _ / ] ( ~ ` ] ~ ! ~ ) ( [ W ! ! ~ ] _ ! R R T / ( ] R E ] ] / ] [ ) R ] ] ` Y T T E ! ! ` ] ` ! / ( ( ~ ",
"! ! ! ] ] / T E / } } } _ ` ] / _ [ ) ! W ` ` [ _ ! ~ ` ( ] W ! ! R R T ] ) ! _ [ ( ( ] ( ! ) ] ] ) Q Y Y R ! W ] ] ) ~ ( ( / ! ",
"! ! ) [ ( T T / ] ] } ] ` ( ( ( ] ( ! ) ] ` ] ] W ) ] ` } ] ! ! ! ! ~ ] ] E ) { [ / / / ` ! / ] ] ~ R E R R ! / ] ( ! R / / ) ! ",
"! ! ] [ / Y T ( ( ] } ( Y / ( ] ] ` ` { ` ( ( ( ( ] _ ] { ) ! ! ^ X.' [ ` ! ` ] ( Y Y / R R ( ] / ! ! ! ! W W / ( / ! Y / / Y ! ",
"~ / ] ] E Y / / ( ] ] ) / ( ] ] ( ) ] ] W / ( ] [ ] ] ] ( E ~ '  .) [ [ ~ ~ ( ] ) ! ! R ! ) ] ] W ! ! E ` ) W / ( ` R Y T T R ! ",
"` ( ] ` ! R Y T ] { ] / ] ] ] ( ( ] { ) Y ( ] ] ] [ ( ( ( ^ @.#.X./ { ( ~ ) ] ( E ! ! ! ~ ] ] / E ! ) ] ) ! Y / / E ! R Y Y R ~ ",
") ( ( ) ! ! R _ { ( [ [ [ [ ( / ( ] ( a $     $ G ] ( ( ( J %     $ F ) ! / ( s #     # i [ / / E / [ ( ! ! T T / R ! ! R E ` ] ",
") ( ( E ! ! X. .( ] [ ] ] ( / / ] ] ` p $ X * , t F Y Y L f w : : < t d K Y F r > * X $ G ] / Y / ( ] ~ ! ! Y Y T R ! ! ~ ( ] W ",
"/ / / R ! W #.{ ( ] ] ( ] / T / ] ] ` F $ * v N , 5 F H 6 2 D 5.4.Z < 5 s F 5 > N v * $ G ( Y T / ( ) ! ! ! R Y Y R ! ~ ( { ) ! ",
"T / T R ~ ..#.) ( ( ( ( ( E T ] ] / ] G $ - *.:.z < r t w B a.b.b.a.B w q r 1 z :.*.- $ F ) R T / / R ! ! ! W E R R ! Y ( ` ! ! ",
"Y Y T ! O.$.O.T / / / ] ) ! / } ( ( ] F # - *.8.5.D < w i.n.M.V.V.M.n.i.w 1 S 5.8.*.- $ F ~ ! Y Y Y ! ! ) ( ~ ! ! ! Y T / Y ! ! ",
"Y Y Y ^ ....^ Y Y / ( ] ! ~ [ ] / ( ( u # = A 8.d.9.c B n.C.C.C.C.C.C.n.B c 9.s.8.A = $ i ! ! ! R R ^ ` [ ) ! ! ! ! R Y T E ! ! ",
"! R ! O...| ! ! E / { ` ! ` } ( T / / y # + v 1.t.d.9.a.M.C.C.C.C.C.C.M.a.9.u.t.1.n * # u ! ! ! ! R / ] ` ! ! ! ! ! ! R E ! ! ! ",
"! ! ^ +. .X.! ! ~ [ [ ~ W ] ] ) Y Y Y y # + b ,.q.d.A.v.m.B.N.N.N.N.B.m.D.A.A.q.,.z + # u ! ! ! ! ) ( ( ^ ! ! ! ! ! ! ! ! ^ ~ ! ",
"! ! ^ +.+.X.! ! / } _ ! / ] ( R ! ! ! y $ + b =.6.y.k.S.v.c.l.h.h.l.c.v.D.k.y.6.=.b + $ p ! ! ! Y / / ` ! ! ! ! ! R ! ! X.o.! ! ",
"! ! O.O.O.! ! ~ ] ] ) ! ( ( ( ! ! ! ! J 7 & l n A ;.3.4.4.3.;.*.*.;.3.4.4.3.;.A n l & 5 d ! ! W Y / / E ! ! ! ~ ` ! ! +.+.! ! ! ",
"! ~ X.O.X.^ ! ) ] ] R E / ( W ! ! ! E ( L r & * = ; : 3 3 3 - = - - ; 3 : ; - = * & 8 s I ! ` ^ R Y Y ! ! ! ~ ( W ! +.#.^ ! ! ! ",
"! ~ X.X.^ ! R ( ( ` ! Y / / E ! ! ! ( ] ( s 5 o .   O + + + + + + + + + + O X . @ 5 g ! ! ` _ ! ! R R ! ! ~ _ ( ! +.$.o.! ! ! ! ",
"! ^ ^ X.^ ! Y ( ( ) ! Y T / E ! ! W ] ] ) H F 8 o O j b b b b b b b b z b j O @ 8 g I ! ) ] ~ ! ! ! ! ! ) ` [ ~ X.#. .~ ! ! ! ! ",
"W ^ ! ^ ^ ) / / / Y R Y Y Y ! ~ ) ( ] ( ^ U s r > k M ,.,.,.,.,.,.,.<.<.-.m k , 0 g ! ` [ _ ! ! ! ! ~ ` ) { ( ^ +.#.| ! ! ! ! ! ",
"E ! ! ! ` ) Y / / R ! R Y Y E ` ) ( ] ` ! h 5 > V :.7.t.q.t.t.t.t.f.Z.g.0.>.;.N > 5 H ] [ ~ ! ! ! ~ ( _ ` } ) X. .} X.! ! ! ! _ ",
"! ! ! ) _ E Y T T R ! ! ^ ) ] ) W ( ( W ! y # - 2.s.A.S.S.S.D.D.S.D.H.G.s.r.u.2.: # F [ ( ~ ! ! ! ` ] ) ] ] ^ +.} | ! ! ~ ~ { _ ",
"! ~ ` ] W ! Y Y T ! ^ X.( ] / ! ( ( ( E ! y # 4 p.G.D.A.S.D.H.H.D.S.D.D.A.A.F.p.4 $ F ] ` ! ! ! ) [ ` ` ] ( ) }  ._ ~ W ) ] ] ~ ",
") ` { { ~ ! R ! E X.| ( ( ( ~ ^ { / / ! ! g $ 4 p.F.D.A.A.D.G.G.D.S.D.D.A.D.F.p.4 $ F ] E ! ! ~ ] ] ` ( ( / { } _ X.) ` ( { ) ! ",
"( ( { / ! ! ! ! ) #.' / ( Y ^  .( T T ! X.K # : :.s.k.A.A.k.s.s.A.D.H.H.D.k.s.2.; $ F ( ! ! ! _ } ] ` ( ( ( } ( X.] ( ) ] ] ~ _ ",
"_ [ { ~ ! ! ! X.#. .Y T / E +...T Y E X.$.J # - ;.y.s.k.k.k.y.y.A.A.F.F.S.s.y.;.- $ s / ! ! ~ ] } _ Y / ( ] ] ) _ } ) ( ( ( ] [ ",
"] ] ( ! ! ! ^  .#.X.R W W _ &.o.R R ) #...y # : 3.s.y.u.k.k.k.k.k.k.s.f.r.y.s.3.; $ s Y ! ! ) ] ] W T / ] ] / ( { ( ) ( ( ] ] ] ",
"( ( / ! ! ~ O...@.~ X.W X.#.#.! ! ~  .#.O.h 5 1 C 5.0.y.s.j.j.j.k.u.e.w.e.0.5.Z < 5 F E ! ! ( ( ( E / ] ] ( ( ] ] E / / ] ] [ ] ",
"( ( ) ! ! ^ @. .o.o.O.! @.&.+.! ! O. .| ^ I d r , c 5.s.y.r.r.e.r.r.w.e.u.5.x < e s Q R ! R ( ( / ) ] ] ( / ( ] ( E T ( ] ] [ ( ",
"/ / ~ ! ! o.+.O.O. .^ ^ $.$.X.! ~ +.+.' ! ! ! d 5 < Z 5.0.e.w.w.w.w.r.e.5.Z < 5 s Y Y R ! E / / ( ( ] ( / / ] ] Y E ] ( ( ] ] ` ",
"/ / ! ! ! o.O.+.#.o.! +.#. .! ! ^ O.+.X.! ! ~ Y J t 2 c 5.u.e.w.w.w.u.5.c < t d K R E ! ! Y T / ( ( ( / T ( ] ( / [ ] T ( } ( ) ",
"/ T ! ! ^ X.O.#.$.! ^ +. .+.! ! X.O.X.^ ! ! ( W ( P 5 1 D 5.0.r.r.0.5.S < 7 F ! ! ! E W R Y Y / / ] ` E Y [ ( ( [ [ E W { ] Y T ",
"Y Y ! ! ~ X.+.$.+.! X.+.@.X.! X.X.X.^ ^ R _ _ ) } / g r < c 5.j.j.5.c 2 t G R ! ! ) ` W ! ! R T / ] ~ ! ( [ / ( ] ` ! ( ] ( E T ",
"Y Y ! ! ! X.#.#.X.! X.+.+.X.+.+.^ ~ X.) ` [ ) ( [ ` ! F 7 < S 4.4.S 1 7 L ( R ~ _ { W ! ! ! ! W ] ( ! ) } ] / ( ` E ^ ( ] ` R Y ",
"R ~ ~ ! ! O.#.@.^ ! O.o.+.$.+.! ! ^ _ ) [ ( ) ] ] / ~ Y H r 1 : 3 1 t P / / E ` ] _ ! ! ! ! ! _ [ W ! ] ] ( T / / ! ) ] ] W ! ! ",
"W ` ~ ! ~ +. .O.! O.O.O... .^ ! ! ] ` ( [ ) ` ( ] W E / / H 7 # # 5 P } / / ( ] { ^ ! ! ! ! W } ] ! ) ] ] W R Y Y ! / ] ( W ! ! ",
"] ~ ! ! X.+.+.X.X.+.X.+. .X.! ! _ ] ` ] ( W ` } ( ! Y / ( ( H y a H ( { T / / { _ ! ! ~ ! ~ ( [ ) ! / ] ` ! ! ! ! R ] ] / E ! ) ",
"W ! ! ! X.+.+.O.$.o.o.O.+.~ ! ) } ( / ] ` ) } ] ` ! ` ( ] ] ! ! ` } } ` R / ] %.~ ! ! ~ ) ` ] ] E E ( ( ) ! ! ! ! ] [ / Y ! _ ] ",
"! ! ! ! o.o.+.#.#.^ X.o.X.! ~ { [ ) ` ( / ] ] ( T ` ( ] ] ` ) [ ] [ { ^ R ) %.' ! ~ ) ( W / ] ( ! W / ( E ! ! ! ) } ( / Y / ] ] ",
"! ! ! ! X.o. .$.o.! ^ ^ ^ X.' [ ] Y ( ( ] ] ( / ] ( ) ] ] ] } ] ] } ( ! ^ #.#.^ ~ ( { E E ( ( ) ! Y / / ^ ! ! ! ] } / Y / ( ( W ",
"! ! ~ X.) +.$.#.^ ! ! X.+._ ] [ ` ` / ( ] ] / ] ] ) ( ] ] } ] ( [ [ ) ! +.&.+.! ` { W ! E ( ( Y ! T / / R ! ! / { ] E R / / / ! ",
"! ) _ ~ ~ @.#.+.! ! o.#.o.) ] ] Y T / ] ( ( ( [ ` Y ( ] } [ } ] ] ] E ^ #.#.) / ( ( ! ! ( ( / E R Y ( T ! ^ ` ( ] / ! Y T / Y ! ",
"` ] ~ W X. .#.X.! o.#. .~ / ] ( W / [ ] / ( ] ] ) ) ( ] } ] ] ] ] ( E O.#.@.W / ( Y ^ | ( / T R ! ' _ E / _ / ( ( W ! ^ W Y R ! ",
"[ ) ) ~ o. .+.X.X.@.@.~ ~ / ( / / ] ] ( / ( ] ( E / ] [ ] } ( ( ( ( ^ | ..' T T / | .._ Y Y Y R o. .W ( ] W ) ( ( ^ O.O.! ! ! ( ",
") ) ) ! o.+.+.~ +.+.o.! R / / / ( ] ( / / ] ] Y W ] ( ( [ [ ` / ( Y ) +.+.X.R Y { $.o.~ Y Y Y X.#.' ( { ) ! / / ] ..+.! ! ~ / ] ",
"_ ] ~ ~ o.+.o.X.o.o.~ ! Y T / ( ( ( T Y ( [ ( ( ] ] / ( } ( Y / / E o.+.+.^ ! _ #.@.! ! R R E #.#.( ( ( ! ! / ] $...~ ! ! Y ( ( ",
"} ) ! ^ X.o.X.^ X.X.! ~ R Y ` / ( _ R W ] ( ( ] ] W W ] { Y Y T T E X.O.O.! X.+.+.X.! ! ! ! +.$.{ T ( E ! E ( #.%.X.! ! ! T ( ( ",
"] ~ ! ^ O._ ^ ! ! ~ ) ~ ! R Y / ] W ! ] } ( ( ( ` ! ` ] ] R Y Y Y ^ X.X.X.! X.o.o.~ ! ! ~ ^ #.$.( Y T R ! E { } | ! ! ! R ( ( ( ",
") ! ! _ _ ^ ^ ! ~ _ ) ! ! ! W ] ` ! ` [ ] / / ( W ~ ( ] ` E E Y R ! W ^ ^ ^ ^ X.^ ! ! W W +.#. .~ Y E ! ! ) | | _ ! ! ! ` ( ( { ",
"E ! _ ) ~ ~ ~ ~ ( ( ~ ! ! E ] [ W ! ] { / Y T T ! W ] ] W ! ! ! R E W ^ ! ! ! ! ! ! ) _ ~ @. .o.! ! ! ! ! ^ X.X.~ ! ! E { / ( ] ",
"! ( ] ~ ! ~ ) ] [ ~ ! ~ ~ ] [ ] ! ) ] ] W ! R E ! ` } ( E ! ! ~ _ ~ ! ! ! ! ! ! E W ] W X.@.@.X.! ! ! ! ! ! ~ ^ ! ! ~ ] [ ` { ( ",
"( } ~ ! ) ` ` } _ ! ~ ) ] [ [ ) ~ ` ( ( ! ! ! ! W ] ] / R ! ` { ~ ! ! ! ! ! ! ^ W ] _ ! o.+.O.^ ! ! ! ! ! ~ ! ! ! ~ ] } ` ) ( ( ",
"} _ ~ ) [ ) ] ] E ) ] ` [ [ ] ~ E / ( / ! ! ! ! ( [ / / ^ _ [ ` ! ! ! ! ! ! ) ) ( { E ~ o.O.O.~ ! ! ! ~ ) ! ! ! ~ ` } } Y ( ( ( ",
"] ` ) [ ` / ( ` ] [ ` ] [ [ / ~ Y / / W ! ! ! ` } ( T T ` ] ( ! ! ! ! ! ! ^ ] ) { ( ~ ~ ' ' X.! ! ! ) ( ! ! ! ~ ( ] { ] Y / ( ] "
};
