/* XPM */
static char *ghost11704828128[] = {
/* columns rows colors chars-per-pixel */
"64 64 153 2 ",
"   c #010102",
".  c #060A00",
"X  c #08090C",
"o  c #141E02",
"O  c #100A16",
"+  c #150D1D",
"@  c #142100",
"#  c #192604",
"$  c #1B2B01",
"%  c #161021",
"&  c #181B25",
"*  c #181729",
"=  c #1B1C2E",
"-  c #1E2130",
";  c #263223",
":  c #283622",
">  c #2C3B26",
",  c #2B3729",
"<  c #2C3928",
"1  c #202431",
"2  c #2D4503",
"3  c #2F4A01",
"4  c #2C4209",
"5  c #304E02",
"6  c #315100",
"7  c #3B5E02",
"8  c #38540B",
"9  c #3F5D14",
"0  c #415F13",
"q  c #41620D",
"w  c #456B0D",
"e  c #4B6E0F",
"r  c #4E7607",
"t  c #4F7B04",
"y  c #46700C",
"u  c #4C710C",
"i  c #4F780D",
"p  c #527E03",
"a  c #527A0D",
"s  c #476C10",
"d  c #426113",
"f  c #517710",
"g  c #517810",
"h  c #301D42",
"j  c #2B2644",
"k  c #373C55",
"l  c #383F56",
"z  c #402658",
"x  c #433064",
"c  c #4F3E72",
"v  c #36455A",
"b  c #3F4565",
"n  c #404565",
"m  c #49506F",
"M  c #505B6F",
"N  c #49457B",
"B  c #4F5A70",
"V  c #505A70",
"C  c #538302",
"Z  c #578A02",
"A  c #588D01",
"S  c #56850C",
"D  c #5D8E0C",
"F  c #5A9400",
"G  c #5B9800",
"H  c #5D930D",
"J  c #5E8B12",
"K  c #608F06",
"L  c #608E09",
"P  c #619400",
"I  c #679C03",
"U  c #689F02",
"Y  c #65960D",
"T  c #669B0C",
"R  c #689F0B",
"E  c #608E12",
"W  c #649513",
"Q  c #669912",
"!  c #689D12",
"~  c #66A700",
"^  c #69A402",
"/  c #67A802",
"(  c #6BAB02",
")  c #67A00C",
"_  c #69A30A",
"`  c #6DAA0A",
"'  c #70AE0D",
"]  c #6EB301",
"[  c #6FB800",
"{  c #72B405",
"}  c #71BA01",
"|  c #72B30D",
" . c #76BB0F",
".. c #78BE0E",
"X. c #6BA412",
"o. c #6EAA11",
"O. c #70AE11",
"+. c #73B310",
"@. c #75B810",
"#. c #7AC30D",
"$. c #7DCA0C",
"%. c #79C306",
"&. c #80CF0D",
"*. c #4C4F87",
"=. c #5A4085",
"-. c #51568A",
";. c #5E4D92",
":. c #565991",
">. c #614A89",
",. c #5B6491",
"<. c #616B94",
"1. c #646D9D",
"2. c #615BA4",
"3. c #6C6EA6",
"4. c #6766AB",
"5. c #6974A0",
"6. c #6971AF",
"7. c #666AB4",
"8. c #6A70B7",
"9. c #6C72B8",
"0. c #7678B1",
"q. c #7077BA",
"w. c #727BBB",
"e. c #6388AB",
"r. c #7583BE",
"t. c #7986B9",
"y. c #648DC7",
"u. c #6B8DC6",
"i. c #7A85C1",
"p. c #7D8AC3",
"a. c #6994CA",
"s. c #7F93C4",
"d. c #7F96C9",
"f. c #79A0CF",
"g. c #7BA3D0",
"h. c #79A9D3",
"j. c #74A2D0",
"k. c #73BDDE",
"l. c #67C2D9",
"z. c #6FCBE6",
"x. c #6AC3E2",
"c. c #63D6EC",
"v. c #67DCEF",
"b. c #69DEF0",
"n. c #67E5F4",
"m. c #61F9FF",
"M. c #63F2FB",
"N. c #818FC5",
"B. c #8293C6",
"V. c #8499C7",
"C. c #86AAC9",
"Z. c #8AAFCB",
"A. c #8CB1CC",
/* pixels */
"/ ( { / I / ( ] ] ] ] ] ] ( ^ W I U U Y W W _ ] ] I T ^ ^ / T W W W Q T ` ] _ ( { _ T { ` X.! Q _ { ( W W W R ] ` ( { ^ I ^ ] ] ",
"( ] ] R ^ ^ { ] { ] ( ] ( / I W I I I Y W T ( { ( T Y ^ ^ I W W W ) T X.] ] ^ ] ( _ ( ] ! Q _ ^ ( } ! W Q _ ] ] / ( ( R ^ ] ] / ",
"( ] / T ^ ( ( ] [ / / ( ( ^ T W T I T _ / ^ ( ( _ W Y I I Y W T ( _ Q ( } ` ^ / / ( ] R W ` / / ] / W _ ` ( } ^ ^ / ( ^ ] ] / ^ ",
"] ] R R ] ] / [ ] ^ ( ( ^ U Y W W W ^ } ` R ( ( R W W W W W _ { ] W ) } ] ^ ^ / ] ] ( ! / { ` ( ] ` ( ] / { ] R ^ ^ ^ ( ] ( ^ ^ ",
"{ / / } ] I ] [ ( U ^ ^ U I Y W W ` [ / W ^ / ^ Y W W W W T ] ( T W ( } ] R ^ ^ ] ] ^ / } ^ ^ ] ( ] [ ] ] ] ^ T U ^ ( / ( ^ I ^ ",
"( ( ] { T R ] { R I ^ U I Y W Y ^ ] ( T Y ^ ^ ^ W W W W T / ( ^ W T ] ] ^ I ^ ] ] ( ^ { ] R ^ ( ] ] { ] ( ] _ Y I U ^ ( ( W R ] ",
"^ ( ] ^ W ^ { ] T I U I W Q R ^ [ ] I W Y U U U W W W Q ^ ^ / Y W ^ ( ( _ ^ ] ] ( ( ] ] _ I ^ ( ] ] [ / ( ( T W W I ^ ] ) W ( } ",
"^ ^ / T Q ( ] / Y Y Y I W _ ) ] { ^ T W T U I I W W R I I I ^ R T ^ / ^ ^ ] ] ( ^ / ] ] Q I / { ( [ ] ^ / / W W W Y ] ] W ) [ ] ",
"I U ^ W R ] { _ W W W Y ^ / ` ] ( I Q R R T T Y Q _ _ W Y I ^ ` T ^ ^ ^ ( ] ( ^ ^ ] ] ^ T ] ] / ] ] ^ ^ / I W W W ( } _ W ( { ( ",
"Y Y Y W ^ { / T E W ! ] [ ` ( ] T T / ` W W Q Q ( ] W W W T ] ) Y I ^ ^ / ( ^ I ^ ] ( / ] ] I / } ] I U ^ R W W T { ] Q T ] ] _ ",
"W W W T [ ] ^ Y W ` ] [ ] ^ ] ( T / ] Q W Q T ( [ ! W W Y ] ` W Y Y I ^ ( ] W T ] { / { [ _ Y ] [ ^ I I U T W W / { / W ^ ] / T ",
"W W W ] ] ^ U T ( { } } _ / ( / ` [ ) W T ^ / } ( W Q _ ( [ T W W Y Y ^ ] _ W ` [ ( / ] ( W R ] ] ) I I U Y W R ] ] R W ^ ( ^ W ",
"W W ` [ / U U ^ ] ] } { _ ( ( ( ] ( W ) ] ^ ] ] T ) ` ( ] ] W W E W ) ] ] Q R { ] ^ ^ / ^ W / { ] Q W T Y Y W ^ ] ( Y T ^ ^ ^ W ",
"W W ] ] ^ I ^ / ( [ [ ( I ^ ( ] ] ` _ [ ` / ( ( ( [ ( ] ] ` W W ! O.` } ` W / ] ( I I I T Y ( ] ^ W W W W R R ^ ( ^ W I ^ ^ T W ",
"W ^ ] ] T I ^ ^ ( [ { ^ ^ ( ] ] ( ^ ] ] R ^ ( ] [ ] ] ] ] Q W O.@._ { [ T T ( ] ` W Y Y W T [ ] R W W T ^ R R ^ / ^ W I I U Y W ",
"` ( ] / W Y I I { ] ( / ] ] ] ( ^ ] ] ` I / ] ] ] ] ( ] ( ! @.#.X.^ { ( W R ( ] T W W W W ] ] ^ R W _ ] ` W I ^ ^ T W Y I I Y T ",
"_ / ( ^ W W W ` { ( ] [ [ [ ( / ( ] ] Q U ( ] C $     $ C | #.o.T C $         $ u W W W / } ~ ~ T ^ [ / W W I U ^ Y W W W T / ] ",
"^ ( ( T W W o. .( ] [ ] ] ] ^ ^ ] ] ^ T / / A w > 1 1 > s H o.E C w > 1 1 & X o 8 g J ! } ] I I ^ ( ( ! W Y I I I Y W W T ( ] ! ",
"^ ^ ^ Y W ! #.{ ( { ] ( ( ~ I ^ ] ] ^ ( { C 5 > M <.<.M < 5 S g 3 > M <.<.m & . o 4 a ( } ( I ^ / / ` W W W Y I I Y W Y ( ] ) W ",
"U ^ U Y Q ....^ / ] ( / ( R I ] ] / ( ( C q > l 5.N.N.5.l < 0 0 > v e.h.h.e.v & X # r ] ] R Y I ^ ^ Y W W W _ T Y Y W ^ ( ( W W ",
"I I I W O.$.O.U ^ ^ ^ ] _ W ^ } ( ( ] A 2 < V 5.t.N.N.t.5.V , < B e.l.v.n.l.e.m * $ C ( ( Q W I I I W W _ ( Q W W W Y U ^ I W W ",
"I I I ! ....R T I ^ ( ] W ! [ { ^ ( ( r # 1 <.p.i.i.i.p.N.5.l v e.k.n.m.m.v.h.5.l < w A I W W W Y Y W ^ { ) W W W W Y I I Y W Y ",
"W Y Y O. .+.W W T ^ [ ` W / } / ^ ^ ^ e # 1 <.p.w.8.9.w.i.t.5.e.l.n.M.m.m.n.h.t.5.B > 3 C W W W W W ^ { / W W W W W W Y T W W W ",
"W E ! +. .o.W W T ] ] Q T ] { R I I I u $ 1 ,.w.4.2.2.4.w.p.N.g.z.v.c.c.c.x.d.B.B.,.- $ u W W W W ^ ] ( ! W W W W W W W W ! Q W ",
"W W X.+.+.! W W ` { / W ^ ] ( T W W W e $ = -.4.;.=.=.;.4.w.t.B.g.j.a.y.y.u.p.s.B.<.- $ r W W W I ^ / ^ W W W W Y T W W o.X.W W ",
"W W o.O.O.Q W ! ( ] R T ( ( ^ W W E W S 5 : n N x z z x N -.,.<.<.,.-.*.*.-.,.<.<.B > 2 a W W R I ^ ^ Y W W W Q _ W W +.+.W W W ",
"W Q o.o.o.Q W ^ ] ( Q T / ( R W W W R / F q ; * % + + % * = - 1 1 - = = * = - - - > d t J W ` T Y I I Q W W Q ( R W +.#.! W W W ",
"W Q X.X.! W W ( ( ( W I ^ ^ T W W W ( } ( p 2 o .   O + + + + + + + + + + O X . @ 2 i Q W / ` W W Y Y W W W ` ( W +.$.o.W W W W ",
"W ! ! ! ! W I ( ( ^ W I U U T W W R ] ] ^ L C 7 @ O h z z z z z z z z z k h + o 7 g J W _ ] Q W W W W W _ ` ] T X.#. .Q W W W W ",
"_ ! Q Q Q _ ^ ^ ^ T Y I I I Q W ) ( ] ( W L p q ; j c >.>.>.>.>.>.>.>.>.=.c h ; 9 g E ` [ ` W W W W Q / _ ] ( !  . .| W W W W W ",
"Q W W Q ` _ I ^ ^ T W Y I Y R / ` ( ] ^ W a 2 ; n :.6.0.0.0.0.0.0.0.0.0.0.3.:.n ; 3 Z ] ] T W W W W ( ` ( { _ X. .} X.W W W W ` ",
"W W W _ ( Q I U U Y W W ! ^ ] _ R / ( R W e # = -.w.B.V.B.B.N.B.V.V.B.N.N.p.w.-.= # C [ ( Q W W W ` ] _ ] ] ! | } | Q W W ! ] ` ",
"W Q ^ { R W I I I Q Q ' ( ] ^ W ^ { ^ T W s # - ,.s.A.A.V.N.N.V.A.A.V.N.N.p.p.,.1 $ C ] _ W W W _ [ ` _ ( ( _ } .._ W T _ ] ] Q ",
") / ] { Q W W Y T X.+.( ( ( Q ! { ^ ^ Y W a $ 1 ,.V.C.C.V.N.N.V.C.C.V.B.V.V.B.<.1 $ C ( T W W W ] [ _ ( ( ( { } ' X.` ` / { _ W ",
"` ( { ^ W W W W _ ..` ^ / _ !  .] U I W X.D # 1 <.s.r.r.p.N.N.p.i.r.p.V.A.A.V.<.1 $ C / Q W W ` } ] ^ / ( ( { { X.] / ^ ] ] T ` ",
"] ] { T W W W X.&. .I U ^ T +...I I T X.$.S # 1 <.i.9.9.i.N.B.p.w.w.i.V.C.C.V.<.1 $ p ^ W W T ] } / I ~ / ] ] _ { { ) ( ( ( ] [ ",
"] ] ( W W W ! @...! Y R I o.$.o.Y Y ^ ..#.u # 1 <.i.9.9.i.B.p.p.p.p.p.p.r.r.p.<.1 $ p R W W ^ { ] R ^ ^ ] ] ^ ( } / ^ ( ( ] ] ] ",
"( ( ^ W W W O...@.Q X.R X.$.#.Q W Q @.#.o.f 2 , M 1.6.q.i.i.i.i.i.i.i.r.w.6.1.M > 2 p I W ! / ( / T ^ ] ] / ( ] { R U ^ ] ] [ ] ",
"( ( R W W ! @.@.o.o.O.W @.$.+.W W o. . .! J a q < k 1.r.9.9.9.9.9.9.9.q.r.1.k > q p P Y W W / ( ^ ^ ] ] ( ^ ( ] / T ^ ( ] ] [ ( ",
"/ ^ Q W W O.+.O.O. .Q X.#.$.X.W Q +.| O.W W W a 2 < M 1.6.8.7.7.7.7.8.6.1.M > 2 p I I Y W T ^ ^ ( ( ] ( ^ ^ ] ] R T ( ] / ] ] ^ ",
"^ ^ W W Q O.O.+.#.o.W +.#.@.! W ! O.O.X.W W ! T S w > k 1.w.8.7.7.8.w.1.l > w a D Y Y Y W I U ^ ( ( ( ^ U / { ( ^ { ] U ( } / ^ ",
"^ U W W Q o.O.#.#.Q ! @.@.+.W W X.O.O.Q W W / R ( G 2 < B 5.6.9.9.6.1.V > 5 S Y W W Y R Y I I ^ ^ ( ( T I } ( ( [ ] R R { [ R U ",
"I I W W Q ! +.$.+.W X.+.@.X.W X.o.! X.! Q ( ( ) { / g d > k 1.i.i.1.l < y A P W W R ( ! W W Y ^ ^ ] T W ( } ^ ( ] ^ W / { ( T I ",
"I I E W W X...$.X.W X.+.+.o.@.o.Q Q X._ ` } R ( } / W C 3 > B <.<.M < 5 A ( T W ` ] R W W W W T ] ( W ) } ] ^ ( / R ! ( ] ^ Y I ",
"Y Y Q W W O.#.@.Q W +.o.+.#.+.W W ! ( _ ] ( R ] ] ^ T I A q < - 1 , w G / ~ R ( { ( W W W W W ( } T W ] ] / U ^ ^ W _ ] ] _ W W ",
"T ` ! W Q @.@.O.W o.O.O.#.@.! W W ( ` / ] ` ^ ( ] ! T ~ ^ A 3 $ # 2 G [ / I ^ { { ! W W W W ) [ ] W _ ] ] R T I I W ^ ] ( T W W ",
"( ! W W X.+.@.X.o.+.o.| ..o.W W ( ] _ ] ( R / } ( W I ^ ( ( Z s u A ( ] U ^ / } ` W W W W Q ] ] _ W ^ ] / W W W W T ] ] ~ W W R ",
"T W W W X.+.O.O.#.o.X.+.O.Q W _ } ` ^ ] / _ [ ] ^ W ^ / [ ] W W ` ] [ ` Y U { ..! W W Q ! ^ ] ] T T ( ( _ W W W W ( [ ^ I Y ` [ ",
"W W W Q o.o.+.#...! X.o.X.W Q ] ] ` ^ ( ( ] } ^ ^ ( ^ ] ] ` _ ] ] } { Q Y ` %.' W W _ ( T ( ( ( W R ^ / T W W W ) } ( U U ^ ] ] ",
"W W W Q o.o. .$.o.Q ! X.! ! ' } ] _ ^ / ] ] / ^ ] ( _ ] ] ] [ ] ] } ( W Q #.#.Q Q ] { T ! ( ( ^ W U ^ ^ T W W Q ] } ^ I ^ ( ( R ",
"W W W X.) O.$.#.! W W X.+.` ] [ / I ^ ( ] ] ^ ] [ _ / ] [ } { ( { [ _ W O.&.+.Q ( ] _ W R ^ ( I W I ^ ^ Y W W ` ] { T Y ^ ^ ^ W ",
"W ! / ! ! @.#.+.W W X.#.O._ ] ] ^ I ^ ] ] ^ ( [ / I ( { } [ [ ] ] ] T ! ..&._ ^ ( ( W Q ^ ( ^ T Y I ( ^ W W ^ ( ] / W I U ^ I W ",
"( ] ! T X. .#.X.W O.#.+.Q / ( ( R ^ [ ] ( ( ( ] R ^ ( ] [ [ ] ] ] ] T O.#.@.R ^ ^ I X.O.^ ^ ^ Y W ' ' I ` ^ ^ ( ( R W R _ I Y W ",
"] ) ) Q o. .@.! X.+. .Q Q ^ ( / ^ ] ] ^ ^ ( ] ( Y ^ ] ] ] [ ( ( ( / R +. .O.I U ^ | #._ I I I Y O. .) ( ] ! ^ ( ( ! O.O.W W Q ^ ",
"` _ ) W o.+.+.! O.+.o.W T ^ ^ ( ( ] / ^ ^ ] ] ^ R ] ] ( [ ] ^ / ( I X.+.+.o.Y I { $.O.W I I I X.#.' ( { R W ^ ^ ] ..+.W W W ^ ] ",
"/ ] Q ! o.+.o.X.o.O.! W I U U ( ( ( ^ I ( { / ( ] ] I ] } ( I ^ ^ Y o.+.+.Q Q ' #.+.Q W Y Y T #.#.( ( ^ W Y ^ { $...Q W W R ( ( ",
"] ` W ! o.O.X.! ! X.W Q T I U ^ ] ` W ^ ] ( ( { ] T R ] { I I U U T o.O.o.Q ! +.+.X.W W W W | &.{ ^ ^ T W Y ( %.%.o.W W W U ( ( ",
"] W W ! _ o.! W W ! ) T W Y I ^ ] T W ( [ / ( ( / W ^ ] ] Y I I I ! ! o.! Q X.O.O.W W W ! ! #.#.( U U Y W R { ..| W W W Y ( ^ ] ",
"` W W ` _ X.Q W W ` _ W W W R ] ( W ` [ ] ^ / ( ! Q ( ] / W T I I W ! ! ! Q ! X.X.W W ) T O.#. .Y T T W W _ ` | _ W W W ` ( ^ } ",
"Y W ` ` Q Q Q Q ] ( W W W T ] } T Y ( { ^ I U U W R ] ] _ W W W W T T ! Q W W W W W ) / ! +...O.W W W W Q ! X.o.Q W W T ] ^ ( { ",
"W ( ] Q W T _ ] ] T W W ! ] [ ] W _ ] ] T Y Y Y W / } / T W W ! _ Q W W W W W W T R ] ! X.@.@.X.W W W E W W Q Q W W ! ] ] ^ ( ] ",
"( } ! W T ` / [ ` W Q _ ] [ [ ) W ^ ( ( W W W W T [ ] ^ Q W _ ] X.W W W W W W ! R { ( W o.O.+.Q W W W W Q Q W W W Q ] } ` ^ ( / ",
"] / W ` ] _ ] ] T ` ] ` [ [ ] Q T ( / ^ W W W W ( } ^ ^ Q ( } ) W W W W W W _ _ / } R Q o.O.' Q W W W R T W W W Q / } { ^ ( ( ( ",
"] _ _ [ ^ / ( ( ( ] / ] [ ] ( W R ^ ^ I W W W ` } ( U U ^ ] ( W W W W W W ) ] ) { ( W W ' | X.W W W _ ' W W W Q ( ] } ( I ^ / { "
};
