/* XPM */
static char *ghost51704828128[] = {
/* columns rows colors chars-per-pixel */
"64 64 161 2 ",
"   c #020102",
".  c #070B01",
"X  c #08090C",
"o  c #141F00",
"O  c #100A16",
"+  c #150D1D",
"@  c #142100",
"#  c #192604",
"$  c #1B2B01",
"%  c #242A16",
"&  c #161021",
"*  c #181222",
"=  c #181B25",
"-  c #181729",
";  c #1B1D2E",
":  c #1E2130",
">  c #263223",
",  c #283622",
"<  c #2C3A25",
"1  c #2B3729",
"2  c #2C3928",
"3  c #202431",
"4  c #28243B",
"5  c #2D4503",
"6  c #2F4B01",
"7  c #2C4109",
"8  c #304E01",
"9  c #315100",
"0  c #3B5E02",
"q  c #3F5D14",
"w  c #415E15",
"e  c #426707",
"r  c #42630D",
"t  c #456B0E",
"y  c #4B6E0F",
"u  c #4E7607",
"i  c #4F7C03",
"p  c #4C710C",
"a  c #4F780D",
"s  c #46700C",
"d  c #537E03",
"f  c #527B0D",
"g  c #426113",
"h  c #486D15",
"j  c #517710",
"k  c #517810",
"l  c #301D42",
"z  c #2B2744",
"x  c #372842",
"c  c #38264E",
"v  c #373C55",
"b  c #383F56",
"n  c #402658",
"m  c #493767",
"M  c #4A376F",
"N  c #433064",
"B  c #36455A",
"V  c #3F4565",
"C  c #404565",
"Z  c #49506F",
"A  c #4F5A6F",
"S  c #505B6F",
"D  c #524974",
"F  c #4F5A70",
"G  c #4E5476",
"H  c #505B70",
"J  c #49457B",
"K  c #538302",
"L  c #578A01",
"P  c #588D01",
"I  c #55850B",
"U  c #5D8E0C",
"Y  c #5A9300",
"T  c #5B9800",
"R  c #5B910A",
"E  c #5E8B12",
"W  c #608F06",
"Q  c #608E09",
"!  c #619604",
"~  c #679C03",
"^  c #689F02",
"/  c #65960D",
"(  c #669B0C",
")  c #689F0B",
"_  c #649513",
"`  c #669912",
"'  c #689D12",
"]  c #66A500",
"[  c #69A402",
"{  c #67A901",
"}  c #6BAB02",
"|  c #67A00C",
" . c #69A30A",
".. c #6DAA0A",
"X. c #70AE0D",
"o. c #6EB301",
"O. c #6FB800",
"+. c #72B405",
"@. c #71BA01",
"#. c #72B40D",
"$. c #76BB0F",
"%. c #78BE0E",
"&. c #6BA412",
"*. c #6EAA11",
"=. c #70AE11",
"-. c #73B310",
";. c #75B810",
":. c #7AC30D",
">. c #7DCA0C",
",. c #79C306",
"<. c #80CF0D",
"1. c #4C4F87",
"2. c #5A4185",
"3. c #5F4888",
"4. c #51568B",
"5. c #595A85",
"6. c #5E4D92",
"7. c #5C589D",
"8. c #614B89",
"9. c #64558B",
"0. c #645495",
"q. c #5B6491",
"w. c #616B94",
"e. c #646D9D",
"r. c #615BA4",
"t. c #6766AB",
"y. c #6866AA",
"u. c #6974A0",
"i. c #6971AF",
"p. c #7171AE",
"a. c #666AB5",
"s. c #6A70B7",
"d. c #6C73B8",
"f. c #7679B2",
"g. c #7077BA",
"h. c #727CBC",
"j. c #6388AB",
"k. c #7690AD",
"l. c #7583BE",
"z. c #7985BA",
"x. c #7A83B3",
"c. c #648DC7",
"v. c #6B8DC6",
"b. c #7A85C1",
"n. c #7D8BC3",
"m. c #7E91C3",
"M. c #79A0CF",
"N. c #79A9D3",
"B. c #67C2D9",
"V. c #6AC3E2",
"C. c #62D5EC",
"Z. c #69DEF0",
"A. c #61F9FF",
"S. c #819AB8",
"D. c #818FC5",
"F. c #8293C6",
"G. c #8499C6",
"H. c #85A8C7",
"J. c #88A6C9",
"K. c #86AAC9",
"L. c #8CB3CC",
/* pixels */
"{ } +.[ ~ { } o.o.+.} o.+.} [ ` ~ ^ ] / _ _ ) o.o.~ ( [ [ [ ( _ _ _ ` `  .O. .} o.| ( +...' ` ` [ o...` _ _ ( o...o.+.[ ^ [ o.o.",
"} o.o.| [ [ +.o.o.o.{ o.o.{ ( _ ~ ^ ~ / _ ( { +.o./ / [ ] ^ ` _ _ ( | | O.o. .o.} ) o.o.' ` .. .o.o.` _ ` | o.o.[ { } ) [ o.o.{ ",
"} o.[ ( [ } o.o.O.[ } o.{ [ / / ( / (  .[ [ } o. ._ / ~ ~ / ` ( } [ ` } @. .[ { { o.O. ._ ..[ [ o.} ` | [ o.@.[ [ { } [ o.o.{ [ ",
"o.o. . .o.} { @.o.[ { } [ ^ / _ _ ` [ O. . .} } ) _ _ _ / _ ( +.X.` | O.@.[ [ { } o.o.` ..o. .o.o. .} o...o.o.) [ [ [ } } } [ [ ",
"o.{ { @.o.~ } @.[ ^ [ [ ^ ~ / _ _ ..O.[ ` [ { [ / _ _ _ _ ( o.} ` ` { @.o.) [ [ o.o.[ [ @.[ [ } o.o.@.} o.o.[ ( ~ [ } { o.[ ~ [ ",
"} { o.+.( ) o.@. .^ ^ ^ ~ / ` / [ o.} ( / [ [ [ ` _ _ _ ( [ }  ._ ( o.+.[ ~ [ +.o.} [ +.o.) [ } o.o.o.o.} o.) / ~ ^ [ } [ ` ( o.",
"[ } +.[ _ [ o.o.( ~ ~ ~ / ` )  .@.o.~ _ / ~ ^ ^ _ _ _ ` [ [ [ ( ` [ } } | [ o.o.{ } } o. .^ [ o.o.o.O.} } } ( _ / ~ [ O.) _ } @.",
"[ [ { ( ` } o.[ / / ~ / `  . .} o.[ ( _ ( ~ ~ ~ _ _ ( ^ ~ ^ ] ( ) ^ { { [ o.o.} [ } o.o.` ~ { o.} O.} { } { ` _ _ ` o.} ` | O.O.",
"~ ~ ^ _ ) o.o.) _ _ _ `  .} ..o.} ^ / ( | ( ( / ` ..| ` / ~ ] ../ [ [ [ } o.} [ [ o.o.[ ( o.o.{ o.o.[ [ [ [ _ _ _ [ O.| ` } o.} ",
"/ ~ ( ` { +.{ ( _ _ | } O. .o.o.( ( { .._ _ _ ` } [ ` _ _ ( o.` / ~ [ [ { } [ ~ [ o.} { o.o.^ [ @.o.^ ^ [ ( _ _ ( +.o.` ( o.o.| ",
"_ _ _ ` +.o.[ ` _  .@.O.o.[ o.} ( ..o.` _ ` | o.O.` _ _ ( o.} _ / / ~ [ } o.` ( o.+.{ +.+. .( } o...~ ~ ^ ( _ _ } o.[ _ [ o.} ` ",
"_ _ ` } O.[ ^ ( [ @.@.@. .{ } [ ..O.( _ ( [ [ O.} _ ` | o.o.` _ _ / / ^ o.| _ ..O.} { o.} ` ) o.o.( ~ ~ ~ / _ ( o.o.| ` [ { [ ` ",
"_ _ | O.} ^ ^ [ o.o.@.o. .} } } o.o.`  .o.[ o.o.(  ...} O.o.` _ _ _ ( o.o.( ( O.o.[ [ { [ _ { o.o.` / ( / / _ [ } } / ( [ [ [ _ ",
"_ ` o.o.^ ~ [ { } o.@...~ { } o.+. .| o. .{ } } } O...o.+. ._ _ ' &.X.@. ._ [ O.} ~ ~ ~ / ` o.+.[ ` _ _ ` ) ) [ } [ ` ~ [ [ ( _ ",
"`  .o.o.( ~ [ ] } +.o.[ [ } o.o.} [ +.o.| { } o.O.o.o.o.o.) _ -.$...+.+.` ( o.o. .` ` / `  .o.} | _ _ / [ | ) [ } [ _ ~ ~ ^ / _ ",
"[ o.o.[ _ / ~ ^ +.o.o.} } o.o.} { o.o. .~ } o.o.o.o.} o.{ ' ;.:.&.[ o.} ` | } } ( _ _ _ _ } o.{ ( _ | o. .` ~ [ [ ( _ / ~ ~ / ( ",
" .{ } [ _ _ _ X.+.} o.@.o.O.} { } o.o.( ^ d $             $ R =.( } o.u #     $ p _ _ _ [ @.[ ] (  .o.} _ _ ~ ^ ] / _ _ / ( ..} ",
"[ } { ( _ _ &.$.} o.@.o.o.} [ [ o.o. .U K e % O   X = : 3 < h k ( ] P w , 3 3 < q k E ' @.o.[ ~ [ o.o.( _ _ ~ ~ ~ / _ _ ` { o.) ",
"[ [ [ / _ &.:.+.} o.o.} o.{ ^ [ o.o.[ L 9 % x l O = Z w.w.H < 7 K L 6 1 H w.w.S 1 7 k } O.} ~ ^ { { | _ _ _ / ~ ~ / _ ` } o. ._ ",
"^ [ ^ / ` %.%.[ } } } { } ( ~ o.o.[ o.L $ O l c 4 B j.N.N.j.B 2 r e < b u.D.D.u.b 1 g Y ]  ./ ] [ [ ( _ _ ( | ( / / _ [ } [ ` _ ",
"~ ~ ~ ` =.>.=.^ [ [ [ o.| ` [ @.} } o.K #   O 4 G j.B.Z.Z.B.j.H < < S u.z.D.D.z.u.S < 8 P / _ ~ ~ ~ ` _ ( } ( _ _ _ / ^ [ ^ _ ` ",
"~ ~ / ' %.%.) / ^ ] o.o.` ` O.+.[ { } u # X = B u.N.Z.A.A.Z.N.u.B b u.D.b.b.b.n.n.e.3 $ i _ _ _ / / / ..o. ._ _ _ _ / ~ ^ / _ _ ",
"/ / / =.%.#._ ` ( [ O. ._ [ @.{ [ [ [ p # = Z u.z.N.Z.A.A.Z.N.z.u.u.z.z.h.d.d.h.n.w.3 $ u _ _ _ _ _ [ +..._ _ _ _ _ _ / / ` _ _ ",
"_ _ ` ;.;.&._ _ ` o.O.` ( o.o.) ~ ~ ~ p # 3 q.b.D.M.V.C.C.V.M.D.D.D.b.h.y.r.r.y.l.w.: $ u _ _ _ _ [ } } ` _ _ _ _ _ ` _ _ ` _ _ ",
"_ _ ' -.-.' _ _ ..+.[ ` [ o.} ` _ _ _ y $ ; 4.h.b.n.v.c.c.v.n.D.D.b.h.y.6.2.2.0.f.w.3 $ p _ _ _ ~ [ { [ _ _ _ _ / ( _ _ &.*._ _ ",
"_ _ =.=.=.` _ ` o.o.| ` } } [ ` _ _ _ I 8 > C 4.q.q.4.1.1.4.q.w.w.q.4.J N n n m 5.S < 6 f _ _ | ^ ^ [ ( _ _ _ `  .` _ -.-._ _ _ ",
"_ ` &.=.&.` _ [ o.} ` ( { } ) _ _ _ ( { Y r > ; : : ; ; - ; : 3 3 3 ; - & & + * ; < g i U `  .( / ~ ^ _ _ _ _ } ( _ -.:._ _ _ _ ",
"_ ` &.&.' _ ` } } [ ` ^ [ [ ( _ _ / ..@.} K 5 o .   O + + + + + + + + + + O   . @ 5 f _ _  ..._ _ / / _ _ _ ..o.` =.>.*._ _ _ _ ",
"_ ` ' ' ' ` ~ } { [ _ ~ ^ ^ / _ _ ( o.o.[ W K 0 @ O x n n n n n n n n n n l O o 0 k E _ | o.` _ _ _ _ _  . .O.` &.:.;.` _ _ _ _ ",
" .` ` ` ` &.[ [ [ ) / ~ ~ ~ ` ` ) } o.} ` W d r , z G 0.8.8.8.8.8.3.2.2.2.M z , q k U ..O..._ _ _ _ _ .. .o.} ' -.:.#._ _ _ _ _ ",
"` _ _ `  . .~ [ [ ( _ / ~ ( ) [ [ } o.[ _ j 7 > C q.k.k.x.f.f.f.f.p.y.r.r.7.4.C > 5 L o.O.( _ _ _ ` } [ } O. .&.$.$.&._ _ _ _ X.",
"` _ _  .} ` ^ ^ ^ / _ _ ` [ o. .| } } ) _ y # ; 4.b.K.L.J.G.F.D.F.n.g.d.h.g.g.4.; $ I O.} ` _ _ _ ..o. .o.o.` #.@.+.` _ _ | o...",
"_ `  .o.) _ / ~ ~ / ` ..} o...` [ o.[ / _ y # ; q.n.G.J.L.L.G.D.D.n.n.n.K.K.m.q.3 $ L o. ._ _ _ | O...{ o.} | @.%...` )  .o.o.` ",
"| [ O.+./ _ / _ / &.$...} } / ` +.[ [ ` _ k $ 3 w.D.m.G.K.K.G.F.G.G.F.G.K.K.G.w.3 $ K } ( _ _ ` o.O. .{ } [ +.@.X.'  . .} +. ._ ",
"} } +.[ ` _ _ _  .:...[ {  .` $.+.^ ^ _ &.U $ 3 w.D.n.n.b.b.n.G.L.L.G.n.l.l.n.w.: $ K } ` _ _ ..@.o.[ { } } @.X.&.+...[ o.o.( ..",
"X.o.+.` _ _ _ &.:.$.~ ^ [ ( #.%.~ ~ ( &.>.I # 3 w.n.n.l.g.h.n.G.K.K.G.b.d.d.z.w.: $ d [ _ _ / o.@. .] [ } o.o.[ } @. .{ } } o.O.",
"o.o.{ ` _ _ ' %.:.&./ ^ ( *.>.*./ / [ :.:.y # 3 w.n.g.h.h.n.n.n.l.l.n.b.d.s.b.w.3 $ d ~ _ _ [ o.o.) [ [ o.o.[ ..+...[ } } o.o.o.",
"} o.[ _ _ ` *.%.;.` &.' &.>.:.` _ ` #.:.=.j 7 < H e.s.d.b.z.b.h.s.s.h.b.h.i.e.A , 5 d ( _ _ [ o.} ( [ o.+.{ { o.o.) ^ [ o.o.O.o.",
"{ } ( _ _ ' ;.;.*.*.=.` ;.>.-._ _ &.$.;.` E f r < v e.l.g.d.s.s.a.a.s.d.b.e.v < r d ! / _ ` [ } [ [ o.o.[ [ o.o.} ( [ { o.o.O.} ",
"} [ ` _ _ *.-.-.=.$.` ' >.>.&._ ` -.;.=._ _ _ f 5 < S e.i.s.a.a.a.a.s.i.e.H < 5 d ~ ~ ` _ ( [ [ { } o.} [ [ o.o.[ ( o.} { O.o. .",
"[ [ _ _ _ =.=.;.>.*._ -.:.:._ _ &.=.=.&._ _ ` ~ f s < b u.h.s.a.a.s.l.e.b < t f Q / / ` _ ~ ^ [ } } } [ ^ { +.} | o.o.[ } @.[ [ ",
"^ ^ _ _ ` &.=.:.:.` _ ;.;.-._ _ &.=.=.` _ ` } ( } T 5 2 F u.s.d.d.s.e.A < 9 K _ _ _ ( ( ` ~ ~ [ [ } [ / ~ O.} } O.o.( ( o.@.| ^ ",
"^ ~ _ _ ` ' -.>.-._ &.-.;.*._ &.&.&.&.' ` } ..| @.{ k g , v e.b.b.e.v < t P ! _ _ | [ ' _ _ ( ^ { +.` ` } @.[ } o.[ _ [ o.} ( ^ ",
"~ ~ _ _ ` &.:.:.&._ &.-.=.&.-.-.` ` &.| ..O.| } o.[ ` K 6 < F w.w.A < 6 Y [ / ` ..o.| _ _ _ _ ( o.} ` | @.o.[ } } ( ` o.o.[ / ~ ",
"/ ( ` _ _ =.:.;.` _ *.*.-.:.-._ _ ` }  .o.o.( o.o.[ ( ^ P r 1 : : 1 t T ] ] ) } @..._ _ _ _ _ } @.( ` } o.{ ^ [ [ _ ^ o.o.| _ ` ",
"` ..` _ ` -.$.=.` *.-.*.:.:.` _ _ o...} O. .[ } o.` ( [ [ L 9 # # 5 T O.{ ^ [ +.@.' _ _ _ _  .O.o._  .o.o.( ( ~ ( _ [ +.} ( _ _ ",
"o.` _ _ &.-.-.&.*.;.&.-.;.&._ _ } o. .o.o.( } o.{ ` ^ [ } } L y p Y } o.~ [ { @.X._ _ _ _ ( } +. ._ { o.{ ` _ _ _ / o.o.[ _ _ ( ",
"| _ _ _ &.=.-.=.:.&.*.-.-.` _  .O...[ } {  .O.o.] _  .{ O.o._ ` ..o.O...( ^ +.%.` _ _ ` (  .o.o.( ( } } | _ _ _ _ o.o.[ ] ` ..O.",
"_ _ _ _ *.*.-.:.:.` &.*.&._ ` +.o. .{ } } o.o.[ [ ..{ o.o...| o.o.@.+./ _ [ <...` `  ...( } } ..` ) [ { ( _ _ _  .O.} ^ ~ [ o.o.",
"_ _ _ ` &.*.%.>.*.` ' ' ' &.X.O.o.) [ } } o.} [ o.} [ o.o.o.O.o.o.@.X._ ' :.%.' ` } o.( ( } } [ _ ~ [ [ ` _ _ ` o.@.[ ~ [ } } ( ",
"_ _ _ &.&.*.>.:.' _ _ &.-...o.O.[ [ [ } +.o.[ o.@. .{ +.o.@.o.o.o.@. ._ #.<.-._ { +.) _ ) } } ~ _ ^ ^ [ / _ ` ..o.o.( ~ [ [ [ ` ",
"_ ( ..( ' ;.:.-._ _ *.:.*.| o.o.[ ^ [ o.o.{ } O.[ ~ { o.@.@.o.o.o.o./ ' %.<. .[ } { ` ` [ } [ ( / ~ } [ _ (  .} o.[ ` / ^ ^ ~ ` ",
"..o.( ( &.;.:.&._ *.:.;.` [ o.[ ( { @.o.{ } o.o.| [ o.o.o.O.o.o.o.} ( -.:.;. .[ } ~ ' #.} ^ [ / _ X.X./ [ ..[ } } ) _ `  .~ / _ ",
"o.| | ` *.;.;.' &.;.;.` ( { } [ [ o.o.[ [ } o.[ / [ o.o.o.O.{ } } { ( ;.;.=.^ ^ [ X.%...~ ~ ~ / =.$. .} +.) [ } } ( =.=.` _ ` [ ",
"{  . .` -.-.-.' =.-.=._ ( [ [ } } o.} [ [ +.o.[ ) o.o.} O.o.[ [ } ~ &.-.;.&./ ^ +.:.=._ ~ ~ ~ &.:.X.} +. .` [ [ +.%.-._ _ ` [ o.",
"..o.` ` *.-.*.| &.=.` _ ~ ^ [ { } } ^ ~ { O.[ } +.o.^ } O.} [ [ [ ( &.-.=.` ` X.%.;.` ` / / ( :.:.} } [ _ / ^ } >.%.` _ _ ( } } ",
"O. ._ ' *.*.&.' &.&.` ` ( ~ ^ [ o..._ ( O.} { +.o.( | o.o.^ ^ ^ ^ ( *.*.*.` ' -.;.&._ _ _ _ #.<.+.[ [ ( _ / } ,.,..._ _ _ [ } } ",
"o.` _ ' *.*.' _ _ ` | ` _ / ~ [ o.( ` } O.[ } +...` [ o.} ( ~ ~ ~ ` &.*.&.` &.=.*._ _ _ ( ' :.:.[ ~ [ _ _ ) +.%.#._ _ _ / [ } } ",
" ._ `  . .&.` _ ` [  ._ _ _ ( O.[ `  .@.o.[ { { ( _ } o.[ ` ( / / ` ) ' ' ` ' ' &._ _ | ( =.:.;.( ( ~ _ _ | X.#. ._ _ _ ..} [ @.",
"` _ ....` ` ` ( o...` _ _ ( o.O.) ` } @.[ ^ ^ ^ / | o.o. ._ _ ` / ) ( ` ` _ _ ` _ ` | ..` ;.%.=._ _ ` _ _ ' &.&.` _ _ ' o.[ } +.",
"` o.} ` ` `  .o.o.( _ _ ` o.O.o._  .o.} ( / / ( _ [ O.} ( _ _ `  .` _ _ _ _ _ _ ` | o.` &.;.;.&._ _ _ _ _ _ ` ` _ _ ` o.o. .o.o.",
"} O.` _ | [ [ O..._ ` | o.O.O. .` { } } ` _ _ _ ( o.o.{ / `  .o.( _ _ _ _ _ _ ' ) o.} _ *.-.-.` _ _ _ _ ` ` _ _ _ ` o.@. .{ } } ",
"O.} `  .o. .o.o.|  .o...O.O.o.` ` { [ [ _ _ _ _ o.O.[ [ ( ..O. ._ _ _ _ _ ` &.| [ @.) _ *.=.X.` _ _ _ ( | _ _ _ ` } @.+.[ } } } ",
"o. . .O. .{ } } } O.} o.O.o.[ ` ^ [ [ ( _ _ _  .O.} ^ ^  .o.} _ _ _ _ _ _ ) +.| +.o._ ` ..#.&._ _ _  ...` _ _ ` [ o.@.} ~ [ } } "
};
