/* XPM */
static char *theoLR11704828129[] = {
/* columns rows colors chars-per-pixel */
"64 64 212 2 ",
"   c #020202",
".  c #0B0604",
"X  c #060A01",
"o  c #190A07",
"O  c #130B0D",
"+  c #1D0E0C",
"@  c #130907",
"#  c #1F1509",
"$  c #141E02",
"%  c #0C0F12",
"&  c #110E19",
"*  c #110B12",
"=  c #0D1C1D",
"-  c #111419",
";  c #1A141B",
":  c #210E09",
">  c #24120D",
",  c #2A140E",
"<  c #291A0C",
"1  c #30160F",
"2  c #381C09",
"3  c #321909",
"4  c #261411",
"5  c #2C1611",
"6  c #2D1813",
"7  c #221C1F",
"8  c #321D15",
"9  c #3C1B13",
"0  c #311A18",
"q  c #1A2504",
"w  c #1B2B01",
"e  c #152201",
"r  c #0D221D",
"t  c #1F2819",
"y  c #21260C",
"u  c #22290B",
"i  c #2D2909",
"p  c #3E3509",
"a  c #222F18",
"s  c #26331C",
"d  c #382017",
"f  c #1C1928",
"g  c #1C1C33",
"h  c #2E1A24",
"j  c #341E2D",
"k  c #371E26",
"l  c #1A2529",
"z  c #2E2122",
"x  c #3F2121",
"c  c #3B202A",
"v  c #3C2230",
"b  c #37253C",
"n  c #352538",
"m  c #33353A",
"M  c #283037",
"N  c #451E13",
"B  c #422218",
"V  c #492419",
"C  c #512218",
"Z  c #5E281A",
"A  c #522813",
"S  c #64291B",
"D  c #6D2D1D",
"F  c #702E1E",
"G  c #76341B",
"H  c #47242C",
"J  c #572925",
"K  c #5D322E",
"L  c #452839",
"P  c #572D34",
"I  c #50323B",
"U  c #662D28",
"Y  c #743121",
"T  c #7A3528",
"R  c #6B3A36",
"E  c #753B32",
"W  c #622F31",
"Q  c #2D4505",
"!  c #2F4A02",
"~  c #2C4108",
"^  c #2F4808",
"/  c #304E00",
"(  c #335202",
")  c #3D5A07",
"_  c #3F5B12",
"`  c #3D6302",
"'  c #425D08",
"]  c #416404",
"[  c #4B6F0F",
"{  c #446808",
"}  c #4D7603",
"|  c #4F7B02",
" . c #4C720B",
".. c #4E7908",
"X. c #527E03",
"o. c #527C0D",
"O. c #517710",
"+. c #517810",
"@. c #53403F",
"#. c #7F4334",
"$. c #734C35",
"%. c #67473A",
"&. c #2A2E41",
"*. c #342C4B",
"=. c #313C47",
"-. c #3D3045",
";. c #2F2F57",
":. c #33335D",
">. c #3B3258",
",. c #23394B",
"<. c #3C3B69",
"1. c #3F3E70",
"2. c #442B44",
"3. c #432E4A",
"4. c #433949",
"5. c #423253",
"6. c #43375C",
"7. c #403966",
"8. c #403B69",
"9. c #38434F",
"0. c #25525E",
"q. c #3F5652",
"w. c #2C4E51",
"e. c #2A6456",
"r. c #3C695A",
"t. c #3B4B6A",
"y. c #385C6C",
"u. c #3B4972",
"i. c #2A5461",
"p. c #396D64",
"a. c #397865",
"s. c #337379",
"d. c #414249",
"f. c #404D4D",
"g. c #5F4A41",
"h. c #40504F",
"j. c #46525E",
"k. c #414253",
"l. c #634B40",
"z. c #496955",
"x. c #4E7758",
"c. c #495767",
"v. c #4D5967",
"b. c #485665",
"n. c #505F6E",
"m. c #404069",
"M. c #566975",
"N. c #843B1E",
"B. c #863724",
"V. c #863A27",
"C. c #914A1A",
"Z. c #A7551C",
"A. c #B0581F",
"S. c #8A4721",
"D. c #9D4524",
"F. c #954226",
"G. c #9A502D",
"H. c #935633",
"J. c #A5562E",
"K. c #AB5627",
"L. c #B85F2B",
"P. c #BA5B26",
"I. c #A84D25",
"U. c #BD602A",
"Y. c #C15F23",
"T. c #CA6325",
"R. c #C56227",
"E. c #D96D26",
"W. c #528502",
"Q. c #558902",
"!. c #588D02",
"~. c #58870B",
"^. c #599300",
"/. c #5E950C",
"(. c #5E8C12",
"). c #679C03",
"_. c #689F01",
"`. c #65960D",
"'. c #669B0C",
"]. c #689F0C",
"[. c #609405",
"{. c #649513",
"}. c #669912",
"|. c #689D12",
" X c #608F0D",
".X c #69A402",
"XX c #6BAB02",
"oX c #69A30A",
"OX c #6DAA0B",
"+X c #66A505",
"@X c #70AF0D",
"#X c #6EB301",
"$X c #6FB800",
"%X c #71B304",
"&X c #71BA01",
"*X c #72B40D",
"=X c #76BA0F",
"-X c #78BE0E",
";X c #6BA412",
":X c #6EAA11",
">X c #70AE11",
",X c #73B310",
"<X c #75B810",
"1X c #7AC40D",
"2X c #7ECA0C",
"3X c #79C306",
"4X c #3A8065",
"5X c #388D6B",
"6X c #37936E",
"7X c #348075",
"8X c #368A72",
"9X c #80CF0D",
/* pixels */
"XXXX$X+X).XXXX#X$X$XXX$X#XXX+X}.)._._.`.{.{.].#X$X).)..X.X.X'.{.{.{.{.'.+X#XoXXX#XoX'.%XOX;X|.}.oX$XXX{.{.{.].#XOX#X#X+X)..X#X#X",
"XXXX#XoX.X.X#X#X#X#XXX#X#X.X).{.).)._.`.{.'.XX$XXX}.`._._._.}.{.{.].].oX$X%XoX#XXXoXXX#X|.}.OX.XXX$X|.{.}.oX$XXX.XXXXX'..X$X$X.X",
"XX#XXX}._.XX#X#X$X.XXXXXXX.X`.{.`.).).oX+X.XXX#XoX{.`.`.).`.{.'.XXOX{.XX$X.X+XXXXXXX$XoX}.OXXX+X%X+X}.oXOXXX&X.X.XXX.X+X#X$X.X.X",
"#X#X].].#XXXXX$X#X+X.XXX.X_.`.{.{.}.oX$XoXoXXXXX].{.{.{.{.}.].$XOX}.oX$X$X+X.XXXXX#XXX}.+X%XoXXX$XoXOX#XXX#X#X]..X.XXXXXXXXX_..X",
"$X.X.X$XXX).XX$X+X_..X.X_.).`.{.{..X$XXX{._.XX.X'.{.{.{.{.'.#XXX'.{.XX$X#X'..XXX#X#X+XoX&X+X.XXXXX$X$XXX#X$X+X'._._.XX.X#XoX)..X",
"XXXX#X$X].].$X%XoX)._..X).`.}.`.oX$XXX}.`..X.X.X`.{.{.{.'..XXXoX{.'.XX$XoX)..X#X#XXX.X$X#X'.XXXX#X$X$X#XXX#X'.`.)._..XXX+X'.'.$X",
".XXX#X.X{.+X$X#X'.).).).}.'.'.oX$X#X).{.`._._._.}.{.{.}.+X.XXX'.}.+XXXXX'..X$X#XXXXXXX$XoX)..XXXXX$X$XXXXXXX'.{.{.)..X$X].}.+X&X",
".X.XXX'.}.XX$XoX`.`.`.).{.oXoXXX$X.X'.{.'._.).).{.{.'.).)._._.'.'.oXXX.X.X#X#XXX.XXX#X#X'.).XX#XXX$XXX.XXX.X}.{.{.`.$XXX{.].&X&X",
")._._.{.'.#X#X].{.{.{.'.oXXXoX$XXX).}.].'./.X.o.(.OXoX{.`.)..X+X'._..X.XXXXX#X.X.XXX$X.X].XX#X.X#X$X.X.X.XoX{.{.{.+X$XoX{.+X&XXX",
"`.).`.}..X$XXX'.{.{.|.XX$XoX#X$X].'..XOX{.O.Q Q !.OX{.{.{.].#X'.`.)._.XXXXXX.X)..X$XXX.X$X$X).XX&X#X)._..X'.{.{.oX%X$X{.'.#X#XoX",
"{.{.{.}.$X#X.X`.{..X&X$XXX.XXXXX|.XX$X(.O.) $ q ` ~.(.{.'.#XOX{.`.`._..XXXXX}.'.#X$XXX#X%XoX`.XX$X.X).)._.'.{.{.XX$XoX{..XXXXX'.",
"{.{.}.XX$X.X.X'.XX%X&X&XoXXXXXXX+X$X].+.Q q > > q ~ o.oXXX$X'.{.{.`.`._.$XoX{.oX$XXXXXXX+X}.oX#X$X].).).).`.{.].#X#X'.'.XXXX.X{.",
"{.(.oX&XXX_._..X#X#X&X#XoXXXXXXX$X+XO.) q @ > > . q ` ~.XX#X{.{.{.{.;X#X#X`.].$X$X.X.X.XoX`.XX#XXX}.}.'.`.`.{..XXXXX}.`..X.XoX{.",
"{.}.#X&X.X)..X.XXX$X$XXX+X.XXX#X$XW.Q q # < , 6 < # q / ^.oX{.{.|.;XOX&XoX{.+X$X+X)._._.`.'.XX$X.X{.{.{.}.].]..XXX.X}.)..X.X).{.",
"}.oX$XXX`.)..X.XXX#X$XoX.X.X#X#XXX| w . + , 8 6 1 > @ q ` ~.(.:X=XoX%X$X].'.XX$XoX{.`.`.{.oX$XXX'.{.{.'.+XoX'..XXXoX{.).)._.`.{.",
".XXX#XXX{.`.).).%X#X#X.X#X#X$XXXXXW.w . > 1 8 8 8 6 > : q Q /.1X;XXX%XXX{.oXXXXX].{.{.{.}.XX$X.X'.{.oX#XoX}.)..X.X).`.`.).).`.}.",
"oXXXXXoX}.{.{.OX%XXX$X$X$X$XXX.XXXW.w . # , 8 8 0 6 , > @ w  .~. .W.W.W.(..XXXXX{.{.{.{..X$X.X.X'.+X$X+X{.{.)._..X`.{.{.`.'.+X#X",
"oXXX.X'.{.{.OX-XXX#X$X#X#XXX.X.X#XW.q . > , 6 8 5 5 , , 4 < u w q w w Q o..X.X+X{.{.{.].$X$X.X_..X#X#X}.{.{.).)._.[.{.{.}.XX#X].",
".X.X.X`.{.;X1XOXXX#X#XXXXXXX_..X$X^.! q # > < 4 5 , , 5 6 5 @ . . .   $ ( | } } [ [  .!.XXXX)._.XXXXoX{.{.{.[.).).{.{.`.XX%XoX{.",
"_._..X`.}.-X1X.XXXXXXXXXXX'.).#X#X^.^.] q . . @ : , , , 6 5 4 4 4 # . X $ q w q q q q ! ^.oX`._..X.X`.{.{.}.oX'.`.}.{..XXX.X{.{.",
").).).{.>X2X@X_..X.X.X#XoX{.oX$XXXXX#X!.~ $ X . 4 0 0 0 5 5 8 8 8 6 O .     % - - - f s { o.(.'.).).'.{.].XX|.{.{.{.`._..X'.{.`.",
").).).|.=X-X|.).)..X#X#X}.'.$X$X.XXXXX/.o.` e O h v L k 0 , 8 d 8 8 4 # . % M =.=.9.j.q.s ~ +.}.`.`.}.+X%XoX{.{.{.}.`.)._.'.{.`.",
"{.`.`.>X-X,X}.{.`..X$X+X{..X$XXX_..X_.}.'.W.w O k P P P k 0 8 8 B x d < . - =.b.v.n.M.v.M s _ O.(.`..X%XOX{.{.{.{.{.{.`.'.{.{.{.",
"{.{.}.<X<X;X{.{.}.$X$X{.|.#X#XoX).).).}.+XQ.w + J T Y U H c 0 9 S S 9 # . % =.c.M.M.n.v.n.9.s ~ O.].XXXX}.{.{.{.{.{.{.{.{.}.}.{.",
"{.{.|.,X,X|.{.}..X$XOX}.oX#XXX`.{.{.{.{.#XW.q : S B.B.T W H 8 9 D D N + . - =.v.M.M.n.v.v.f.a ~ X..X.X+X{.{.{.{.`.`.{.{.:X;X{.{.",
"{.{.:X>X>X}.{.}.#X#X'.{.XXXX.X}.{.{.{.oX$XX.w : S B.B.B.T U N N F F N + . % =.b.b.n.M.v.M s _ ~.^..X.X'.{.{.{.}.oX}.{.,X,X{.{.{.",
"{.}.;X>X;X}.}.oX#X#X'.'.XXXX'.{.{.{.'.XX^.) q , S B.B.B.Y Z 9 9 Z Z 9 : . % M =.9.9.j.9.s ~ ~.].`.).).`.{.{.}.XX].{.<X1X}.{.{.{.",
"{.}.;X;X|.{.`.XXXX+X{.)..X.X'.{.{.{.XX^./ q < d F B.B.Y C 9 1 1 9 9 1 # .   % % - ; = s ' ~.`.{.{.`.`.{.{.{.OXXX{.:X2X:X{.{.{.{.",
"{.|.|.|.|.{.oX.XXXoX{.)._._.`.{.{.].#XW.q . < B S Y Y Z d 6 , , , 5 6 4 .   o > 2 2 2 p { ^.(.{.{.{.{.}.'.oX$X|.;X1X=X|.{.{.{.{.",
"oX}.}.}.}.oX.X.X.X).`.).).).`.}.oXXX#XW.q . 4 d B V V d d 8 8 6 5 0 k h O @ N G C.Z.Z.C.A / +.{.{.{.}.oXoX$X#X}.<X1X@X{.{.{.{.{.",
"}.{.{.}.OXoX]._..X'.{.`.).`.'.XX+XXX#X| q . 4 8 8 d 8 d 8 8 8 8 0 k K K V A N.I.Y.T.E.Z.3 w [ {.{.}.XXOXXX$XoX:X*X&X;X{.{.{.}.OX",
"}.{.{.oXXX}._._._.`.{.{.}.XX%XoX].XXXX..q . 4 d 8 8 8 d 8 8 1 8 c W G.P.A.A.Y.Y.I.K.T.Z.3 w [ {.{.+X#XoX#XXX|.@X3X*X{.{.{.|.#XOX",
"{.{.oX$X].{.).).).}.}.@XXX$X+X{.XXXXXX .q . > 0 8 8 8 8 8 6 8 x K #.J.L.L.L.L.K.V.D.T.Z.2 q [ {.oX$XOX+X#XXXoX&X-XOX}.|.oX$X#X}.",
"oX.X$X%X}.{.`.{.`.|.<XXXXXXX}.|.%X.X.X .q . > 5 , 5 5 6 4 8 c K G.J.#.R R R R E V.D.T.K.2 q [ }.#X$X+XXXXX.X%X&XOX|.oX.XXX$X].{.",
"XXOX%X.X{.{.{.{.OX-XOX.XXX].}.=XXX.X.X+.^ w # 4 6 0 0 0 0 H K #.J.H.g.4.5.*.n H Y F.T.Z.2 q  .OX&X#X+X.XXXXX&XXX;X#XOX+X#XXX'.OX",
"XX$X%X}.{.{.{.;X2X=X)._..X'.*X-X).).`.}.'.{ q * h v v c c K H.J.#.%.z.a.y.w.f 6 D D.T.Z.2 q  .#X&X.X_..XXX#X#XoX%X%XoXXXXXXX#X$X",
"#X$XXX}.{.{.|.=X1X;X{._.'.:X2X:X`.`.oX1X1X .q # J R R R R #.J.H.g.q.a.7Xs.0.= : S D.T.Z.2 q | #X#X]._..X$X#X.XXX&X+X+XXX#X#X$X#X",
"XXXXoX{.{.}.>X-X*X}.;X|.;X2X1X}.{.}.*X1X:X[ q , S.L.L.L.L.J.#.%.z.a.s.s.7Xe.r : S D.T.Z.2 q | #XXX'..X#X#X.XXX#X%X'._..X#X#X$X#X",
"XXXX'.{.{.|.<X=X:X:X>X{.<X2X,X{.{.:X=X=X|.[ q , S.L.L.U.R.J.%.q.a.8Xs.s.s.e.r : S D.T.Z.2 q | XX.X.X$X#X.XXXXX#XXX'._.XX#XXX$XXX",
".X.X'.{.{.:X,X>X>X-X}.|.1X2X;X{.}.>X<X@X{.[ q # P R R E S.H.x.4X8X6X8X8Xs.0.= : S D.T.Z.3 w | .XXXXX#XXX.X.X#X#XoX'.#XXXXX$X$X).",
".X.X}.{.{.>X>X<X1X:X{.>X1X1X|.{.|.>X>X;X{.[ q * j L d.I #.$.x.6X6X6X4Xp.i.,.h 9 D D.T.Z.2 w } .XXXXXXX.X).XX$XXX.X$X#X.XXX$X+XoX",
".X_.{.{.|.;X:X1X1X}.|.<X=X>X{.{.;X>X>X}.}. .q O k 4.r.z.$.$.x.6X6X4Xq.m l 7 V D T D.T.Z.2 q } .X.XXX+X`.].$XXXXX$X$X].'.$X$X]._.",
").).{.{.}.|.<X2X>X{.;X<X<X;X}.;X:X;X|.|.'.W.w O j 9.p.x.%.%.z.a.4Xr.q.M O : S B.B.D.T.Z.2 q  ..XXX$X'.{.XX$X.XXXXX.X{..X%XXX).).",
").).{.(.{.;X1X1X;X{.;X<X>X:X,X>X}.}.;XoXOXQ.q O c >.y.y.4.I @.9.d.h.r.w.- : S B.B.D.T.Z.3 q [ '.#XXX{.oX&X#X.XXXXX'.}.#X$X.X`.).",
"`.}.}.{.{.>X1X<X}.{.>X:X<X1X<X{.{.|.XX`.^.{ t ; j 5.u.u.6.3.3.3.4.d.p.e.z 4 C D N.B.P.C.3 q [ XX&X'.}.XX$X.X_..X.X{.'.#X#X'.}.}.",
"'.+X|.{.}.<X=X:X{.:X>X>X1X=X}.{.}.#X+X!.! q h j L 3.<.u.t.7.7.8.7.m.u.t.&.h 4 9 G B.D.G : q ..$XXX}.oX#X#X'.`.).).{.XX$XXX'.{.{.",
"#X|.{.{.;X,X<X;X:X=X;X<X=X;X{.{.+X%XoXW.w * j L 2.5.>.<.;.;.;.:.<.7.8.8.5.b ; 4 C S S C i p ^.$XoX}.+X%X.X}.{.}.{.'.$XXX.X}.{.].",
"].{.{.{.;X,X,X:X1X;X;X,X,X}.{.oX&XXX.XW.w O j 3.5.<.3.*.h & - f b 5.8.m.8.6.b h 5 : : i ' ~.+X#X'.'.XXXXoX{.{.{.}.+X$X.X_.`.oX$X",
"{.{.{.{.:X:X,X1X1X}.;X:X;X{.}.*X#X`.Q.] y ; j 2.6.>.b h u w q u h n &.<.<.<.>.n * X $ / o.XXXXXX{.'..XXX].{.{.{.oX&XXX_._..X#XXX",
"{.{.{.{.;X:X=X2X:X}.|.|.|.;X@X$X#XW.! u h v L 2.2.b 7 y ` W.Q.` y % & g <.1.<.*.& e ` o./.XXXX.X{._..X.X`.{.{.}.#X%X.X)..XXXXXoX",
"{.{.{.;XoX>X1X1X|.{.{.;X<XOX#X$X.X} q O H P j j j h y / ^.$X$X!./ w q t M ;.<.;.g a _ O.[.XXXX'.{._._..X`.{.{.XX$X#X'.)..X.X.X}.",
"{.;X+X].|.=X1X<X{.{.:X1X:XoX#X#X+X| q # C J 6 * O y ] !.XX$X$XXX^.Q. ._ t g <.<.:.&.a ~ !..X.X'.`.).XX.X{.}.oXXX#X.X{.'._._.).{.",
"OX#X|.'.;X=X=X:X{.:X1X<X{.XXXXXX'.| w o A A i w q Q Q.$X$X$X$XXX#X#X'.(.( a &.:.6.-.- u X..X_.`.{.@X@X'.oXXXoXXXXX].{.|.oX).`.{.",
"#X].oX}.:X<X=X}.;X<X=X|.'..XXX.X.XW.w X o i ] X. .W.XX$X#X$XXXXXXX.X'.OX{.{ t h W J # q } )._.`.:X=X].XX#X'.+XXXXX].>X:X}.{.}..X",
"+XOXoX}.:X<X:X;X:X<X:X{.)..X.XXXXXW.q     w W.].+X#XXXXX$X%X.X.XXX).;X<X<Xo.q : S S : q } ).).;X2X@XXX%XoX{..X.X#X-X,X{.{.}..X#X",
"+X#X}.}.:X,X:X;X:X:X}.{.[.)..XXXXX#X.X).XX$XXX.X%X#X.XXX$X+X.X.X.X'.:X:X,X}.}.@X-X<X{.{.`.`.'.1X1X.XXXXX{.}._.%X2X-X}.{.{.'.XXXX",
"%XoX{.|.;X>X;X|.;X;X{.}.'.)._..XXX+X}.].%XXXXX$X$X].'.#X$X)._._..X`.;X:X:X}.;X,X<X;X{.{.{.{.<X2X%X.X.X'.{.`.XX3X3X;X{.{.{._.XXXX",
"$X}.{.}.OX:X|.{.{.}.oX|.{.`.)..X$X'.}.XX$XXXXX#XoX{..X#XXX'.).).).}.;X;X;X}.;X:X:X{.{.{.'.|.1X1XXX)..X{.{.].%X-X*X}.{.{.`.XX.X#X",
"oX{.}.OXOX|.{.{.}.OX+X{.{.{.'.$X+X}.oX$X#X.X.X.X'.}.XX$X+X}.`.).).{.|.;X|.}.}.;X|.{.{.'.].>X1X=X}.).).{.{.;X@X%XoX{.{.{.oX#X.X&X",
"`.}.OXOX}.}.}.'.OXXX{.{.{.].$X$X'.}.#X$X.X)..X_.'.'.#X#XoX{.{.{.`.'.].}.}.{.{.}.}.{.oXOX}.<X=X>X{.{.{.{.}.}.;X;X}.{.{.|.$X.XXX%X",
"}.XX#X{.{.|.oX#X$X|.{.{.}.#X$XXX{.'.#X#X}.}.[.'.{..X$XXX'.{.{.|.+X}.{.{.{.{.{.{.`.].#X'.;X<X<X;X{.{.{.{.{.}.{.}.{.}.}.#X#XoX#X#X",
"XX$X|.{.oX.X+X$X+X{.}.OX#X$X$XoX}..XXXXX}.{.{.{.'.$X#X.X}.{.oX#X|.{.{.{.{.{.{.}.].$XOX}.:X,X>X|.{.{.{.{.}.}.{.{.{.}.XX&XoX.XXXXX",
"$XOX}.+X#XoX#X#X].oX#X+X#X$X#X}.'.XXXXoX{.{.{.{.#X$X.X_.}.XX$XoX{.{.{.{.{.{.;XoXXX&X'.}.:X>X>X}.{.{.{.}.].{.{.{.}.+X&X$XoXXXXXXX",
"$XoXoX$XOX+XXXXXXX$X+X#X$X#XXX}.]..X.X'.{.{.{.oX$XXX_._.+X#XXX{.{.{.{.{.{.;X#XoX%XOX{.}.@X@X;X{.{.{.oXXX{.{.{.}.XX$X&XXX_..XXXXX"
};
