/* XPM */
static char *theoLR01704828129[] = {
/* columns rows colors chars-per-pixel */
"64 64 208 2 ",
"   c #0B0604",
".  c #070A01",
"X  c #040404",
"o  c #190A07",
"O  c #120A0D",
"+  c #1D0E0C",
"@  c #130907",
"#  c #131D03",
"$  c #1E1409",
"%  c #0C0F12",
"&  c #110E19",
"*  c #110B12",
"=  c #0D1C1D",
"-  c #10131A",
";  c #18161C",
":  c #210E09",
">  c #24120D",
",  c #2A140E",
"<  c #291A0C",
"1  c #30160F",
"2  c #381C09",
"3  c #321909",
"4  c #261411",
"5  c #2C1611",
"6  c #2D1813",
"7  c #221C1F",
"8  c #321D15",
"9  c #3C1B13",
"0  c #311A18",
"q  c #1A2404",
"w  c #1B2B01",
"e  c #152100",
"r  c #0D221D",
"t  c #1F291A",
"y  c #1F3103",
"u  c #20240D",
"i  c #2B2909",
"p  c #3D3209",
"a  c #26331B",
"s  c #283819",
"d  c #2C2618",
"f  c #1C1928",
"g  c #1C1C33",
"h  c #2E1B24",
"j  c #341E2D",
"k  c #371E26",
"l  c #1A2529",
"z  c #3F2121",
"x  c #3B202A",
"c  c #3E2330",
"v  c #37253C",
"b  c #352538",
"n  c #33353A",
"m  c #292C33",
"M  c #461E13",
"N  c #422218",
"B  c #492419",
"V  c #512218",
"C  c #5E281A",
"Z  c #522913",
"A  c #64291B",
"S  c #6D2D1D",
"D  c #702E1E",
"F  c #76341B",
"G  c #4B262D",
"H  c #402128",
"J  c #572925",
"K  c #5D322E",
"L  c #45293D",
"P  c #4D2834",
"I  c #572D34",
"U  c #50323B",
"Y  c #662D28",
"T  c #743121",
"R  c #7B3427",
"E  c #6B3A36",
"W  c #69363C",
"Q  c #743936",
"!  c #622F31",
"~  c #2E4604",
"^  c #2F4A02",
"/  c #2C4109",
"(  c #314E03",
")  c #3B550B",
"_  c #395706",
"`  c #3E5A12",
"'  c #43590D",
"]  c #4B6F0F",
"[  c #436604",
"{  c #4D7603",
"}  c #4F7B03",
"|  c #4C730C",
" . c #517E03",
".. c #527B0D",
"X. c #517710",
"o. c #517810",
"O. c #7F4334",
"+. c #754836",
"@. c #67493A",
"#. c #2A2D42",
"$. c #342C4B",
"%. c #313C47",
"&. c #3D3045",
"*. c #2F2F57",
"=. c #33335D",
"-. c #3B3258",
";. c #23394B",
":. c #3C3A68",
">. c #3F3E70",
",. c #442B44",
"<. c #423B48",
"1. c #433557",
"2. c #503145",
"3. c #403B69",
"4. c #493B63",
"5. c #513D60",
"6. c #38434F",
"7. c #25525E",
"8. c #3F5652",
"9. c #2C4E51",
"0. c #2A6456",
"q. c #3C695A",
"w. c #3D4A68",
"e. c #375C6D",
"r. c #3B4972",
"t. c #2A5461",
"y. c #396D64",
"u. c #3C7864",
"i. c #337379",
"p. c #414D4D",
"a. c #484347",
"s. c #5F4A41",
"d. c #40504F",
"f. c #46525E",
"g. c #414253",
"h. c #65414A",
"j. c #48795E",
"k. c #4B6955",
"l. c #464068",
"z. c #495767",
"x. c #4D5967",
"c. c #475567",
"v. c #505F6E",
"b. c #414572",
"n. c #566676",
"m. c #843B1E",
"M. c #863724",
"N. c #853B27",
"B. c #904A1A",
"V. c #A7551C",
"C. c #B0581F",
"Z. c #8A4721",
"A. c #9D4524",
"S. c #964225",
"D. c #9A502D",
"F. c #9B5833",
"G. c #A5562E",
"H. c #AC5425",
"J. c #B85F2B",
"K. c #BA5B26",
"L. c #A84D25",
"P. c #C15F23",
"I. c #CA6325",
"U. c #D96D26",
"Y. c #538402",
"T. c #548902",
"R. c #588C03",
"E. c #55840C",
"W. c #5A8C0C",
"Q. c #599201",
"!. c #5B910B",
"~. c #5F8D11",
"^. c #609202",
"/. c #679C03",
"(. c #689F02",
"). c #65960D",
"_. c #669B0C",
"`. c #689F0C",
"'. c #649513",
"]. c #669912",
"[. c #689D12",
"{. c #69A402",
"}. c #6BAB02",
"|. c #69A30A",
" X c #6DAA0B",
".X c #66A404",
"XX c #70AF0D",
"oX c #6EB301",
"OX c #6FB800",
"+X c #72B404",
"@X c #71BA01",
"#X c #72B40D",
"$X c #76BB0F",
"%X c #78BE0E",
"&X c #6BA412",
"*X c #6EAA11",
"=X c #70AE11",
"-X c #73B310",
";X c #75B810",
":X c #7AC40D",
">X c #7DCA0C",
",X c #79C306",
"<X c #3A8065",
"1X c #388D6B",
"2X c #37936E",
"3X c #348075",
"4X c #368A72",
"5X c #80CF0D",
/* pixels */
"}.}.OX X`.{.oXoXOXOX}.OXoX}..X'.(.(.(.).'.'._.OXOX(./.{.{.{.).'.'.'.'.)..XOX|.}.oX|.).+X X&X[.]..X@X X'.'.'.|.oX|.oXoX.X/.{.oXoX",
"}.}.oX_.{.{.oX}.OXoX}.oXoX{.`.'./.(.(.).'.).}.oX}.'.).(.{.(.'.'.'.|.|.`.OXoX|.oX}.`.oXoX].].|.{.}.@X).'.].|.oXoX{.}.oX_.{.OXOX{.",
"}.oX}.).(.}.oXoXOX{.}.}.}.{.).).)././.|. X{.}.oX{.'.).)./.).'.]. X X). XOX{.{.}.}.}.OX|.'. X X XOX X].|.{.}.@X.X X}.{..XoXoX{.{.",
"oXoX`.|.oXoX{.OXoX.X{.}.{.(.).'.'.'.|.@X{.|.}.}.`.'.'.'.'.'.|.oXoX'.|.OXOX.X{.}.}.OX}.].}.oX.X}.oX{. XoX XOXoX).{.{.{.}.oX}.(.{.",
"OX{.{.OXoX/.}.OX X(.{.{.(./.).'.'.|.@X}.'.{.}.{.).'.'.'.'._.oXoX_.'.}.OXoX`.{.{.oXoX.X|.OX{.{.}.}.OXOX}.oXOX X/./.{.}.}.}.{./.{.",
"}.}.oXOX_._.OXOX`./.(.{./.).'.).{.@X}.).).(.{.{.].'.'.'.).}.}.{.'._.}.OX|.`.{.oXoX}.{.OXOX_.}.}.oXoXOXoXoX}.|.)./.(.{.}. X).`.oX",
"{.}.oX.X'. XoX}././.(./.'.).`.|.+X+X(.'.).^.Y. .~.'.'.).{.{.{.).]..X}.}._.{.OXoX}.}.}.OX|.).{.}.oXoXOX}.}.}.).'.).^.{.oX_.'.}.OX",
"{.{.}._.].}.oX X).).)./.'.|.|.oX+X{._.'._.Y.~ ~ ..'._._.(.{.{._._.|.{.}.{.oXoX}.{.}.oXoX_.(.}.oX}.OX}.{.}.{.'.'.'.].oXoX'.|.OXOX",
"/.{.(.].`.}.OX|.'.'.'.).{. X XoX}.(.'.). ._ q # ) T.).'.)./.{..X).{.{.{.}.}.}.{.(.}.OX{.).oXoX{.oXOX{.{.}.|.'.'.'. XOX|.'. XOX}.",
").).).'.}.OX}.).'.'.[.oXOX|.oXoX`.). XT./ # $ $ q ( ..'.'.).OX|.).(.(.}.}.}.}./.{.OX}.}.OXOX`.{.OXoX/.(.{._.'.'._.OXoX]._.oXoX|.",
"'.'.'._.OX}.{.).'.|.OXOX X.XoX}.]..XR.' q @ 4 > @ q ) X.!.oX X'.).).(.{.}.oX].).}.OX{.OXOX|.).}.OX|././.(.).'.'.}.OX.X'..XoX}.).",
"'.'.'.}.@X{.{.).{.OX@X@X.X}.}.{.}.Q.^ # > > 5 6 > > q ~ R.@X[.'.'.).).(.OX|.'.|.@X}.}.}.}.'.|.oXoX|././.(.).'._.oXoX_.].{.}.{.'.",
"'.'.|.@X}.(.(.{.oXOX@XOX{.}.}.}.oXE.e X : , 8 8 5 > @ q [ Q.~.'.'.'.[.oXoX]._.@XOX{.{.}.`.).}.oXoX].).).).).'.{.}.}.).).{.}.`.'.",
"'.'.oXOX{./.{.}.}.oXOX}..X{.}.oXOX} w   : , 8 8 8 5 > > q ^ o.'.[.&XoXOX|.'.{.OX}./.(.(.).).}.OX{.'.'.'.].)._.}.}.}.'./.{.{./.'.",
"'.{.OX}.)./.(.{.{.@XOX|.{.}.oXoX}. .w   + , 8 8 8 8 < > @ q ) E.W...T.Q.!.].oXOX|.'.).).'._.OX}._.'.'.).{.|.`.{.}.|.'./.(.(.).'.",
" X}.oX}.'.)././.+XoX}.}.}.oXOX}.}.Y.w   > , 8 8 , 5 , 4 < < u y q w y ^ o.|.}.}._.'.'.'.].oXOX{._.'.|.OX|.).`.{.{.`.'.)././.).).",
"`.}.}.|.'.'.). XoX}.OXOXOXOX}.}.}.Q.( q $ : 4 4 , , , 5 6 4 +       X e _ } Y.} | ] ] o./.@X}.{._.{.OX X'.'./.(.{.).'.'.'.).}.oX",
"{.}.}.).'.'.&X%X}.oXOXoXoX}.{.{.}.}.T._ q     @ > , , , 5 5 4 4 4 $   . # w w w q q q ~ Q.@X(.(.{.oXoX).'.'././.(.).'.'.).}.OX[.",
"{.{.{.).'.&X:X+X}.OXoX}.}.}.(.{.oX}..XT.( e .   4 0 0 0 5 5 0 8 8 6 O   X X % % - = ; s [ R.Q.(.}.}.|.'.'.'./.`./.).'.).}.oX|.'.",
"(.{.(.).'.%X:X|.}.}.}.}.}.)./.oXoX}.oX}.T._ e O h c c k 0 5 1 8 8 0 4 $ X % m %.%.6.c.p.s ~ ..(.{.{.).'.'.]._._.).).'..X}.{.'.'.",
"/.(.(.'.XX>XXX(.{.{.{.oX|.'.|.OX}.}.oXoX'.} w O k I I G k 0 8 8 N N 8 4   - %.c.z.v.n.v.n a ` ..R.(.'.'.|.}.).'.'.'./.{.{.`.'.).",
"/./.).[.%X%X[././.{.}.OX].).OXOX{.}.}._.'.Y.w : C R Q Y G x 0 9 C A 9 >   - %.z.n.n.v.x.x.d.a / ..).'.{.+X|.'.'.'.'.)./.(.).'.).",
").).).=X%X-X'.'.).}.OX|.'. X@X}.(.{.{.).).Y.w : A M.M.R ! G 8 M D S N $   - %.z.n.n.v.x.z.6.a / X.).{.@X X'.'.'.'.'.'.).).'.'.'.",
"'.'.[.-X$X&X'.'.).OXOX].).oXOX|././.`.'.{.T.w : A M.M.M.R Y 9 M D S M :   - %.c.x.v.n.x.n a ` o.~.|.}.}.].'.'.'.'.'.'.'.'.].].'.",
"'.'.[.-X-X[.'.'. XOX X'.{.oX}.).'.'.'.~.Q.[ w , A M.M.M.T C 9 9 C C 9 :   % m %.6.6.d.d.a / o.'./.{.}..X'.'.'.'.'.).'.'.*X*X'.'.",
"'.'.*X=X=X[.'.].}.OX_.).}.}.{.'.'.'.'.E.( q < 9 D M.M.T V 9 1 1 9 9 1 :   X % - - - ; s ` ..~.|./.(.{._.'.'.'.].|.'.'.-X-X'.'.'.",
"'.'.*X*X&X'.'.|.oX}.)._.}.}.`.'.'.'.).T.y   4 B A D T A M , 5 , , 5 0 4     O > 3 2 3 p ' .._.).)./.{.'.'.'.]..X`.'.-X:X'.'.'.'.",
"'.].&X&X&X'.).}.}.}.).|.{.{.).'.'.].}.T.y   4 9 z B B N 8 8 8 6 , 6 k h O o M F B.V.V.Z.p ( T.'.'.).).'.'.'.}. X'.-X>X=X'.'.'.'.",
"'.[.[.&X[.'..X{.}..X'./.(.{.).'.'._.oXY.w   4 d d 8 8 8 8 8 8 8 6 z K K B Z m.L.K.I.U.V.2 w | '.'.'.'.'._.|.OX_.&X:X$X].'.'.'.'.",
"|.[.].[.].|.{.{.{._.)./././.).'.|. XoXY.q   4 8 8 8 8 8 d 8 6 0 x K D.K.C.C.P.K.L.H.U.V.2 w ] '.'.'.). X|.OXoX[.#X$X#X'.'.'.'.'.",
"].'.'.'.|.|.`.(.{.).'.)././._.}..X}.oX} q   4 6 8 8 6 8 8 8 0 z K O.G.J.J.J.K.H.S.A.I.V.2 w ] '.'.]. X.X XoX|.*X$X%X&X'.'.'.'. X",
"'.'.'.|.oX'.(.(.(.).'.'.[.|.+X|.|.}.}.{ q   $ 5 1 1 1 < 1 0 x K D.G.O.E E E E Q R S.I.H.2 q ] '.'. XoX{.oXoX_. X,X+X].'.'.[.oX X",
"'.).`.@X`.'./././.'.[.*X XOX X'.{.+X}.../ q $ 4 4 0 0 0 0 z K O.G.F.s.6.&.<.v G T A.I.V.3 q ] '.|.OX X.XoX}.|.@X@X&X'._.|.OXoX'.",
"|.|.@X+X'.'.).'./.&X#X}.}.}.).[.+X{.{.W.o.' q * j c c c c K D.G.O.s.k.y.y.;.f 5 S A.I.V.2 q | ).oXOX|.}.}.{.oX%XXX&X X|.}.OX|.'.",
" X}.@X|.'.'.'.'.&X:X}.{.{..X].$X+X/.{.'.*XW.w + J E E E E O.G.F.s.8.i.i.i.7.= : A A.I.V.2 q ]  XOXoX.X{.}.}.@X}.&XXX}.{.oXoX_. X",
"}.OX+X_.'.'.'.&X:X$X`.(.{.).-X%X/./.).*X:XE.e 1 Z.J.J.J.J.G.+.s.k.u.i.i.3X0.= : A A.I.V.2 q | oX@X{.{.{.}.oXoX|.}.@X|.}.}.}.oXOX",
"}.oX}.'.'.'.].%X:X&X).(.).XX>X*X).).|.:X:X] w < Z.J.J.J.J.F.s.8.<X4Xi.i.3X0.r : A A.I.V.2 q } OXoX_.(.{.OXoX{. X@X}.|.}.}.oXOXoX",
"}.oX{.'.'.].=X%X;X'.&X[.&X>X:X].'.).$X:X*X] q + G E E E E s.k.<X1X2X1X3Xi.7.= : A A.I.V.2 q  .}.}._.{.oXoX{.}.oXOX_.(.{.oXoXoXOX",
"}.}._.'.'.[.;X;X*X*X=X].;X5X-X'.'.=X$X$X[.] q O x L a.<.U s.j.2X2X1Xu.y.t.;.h 1 S A.I.V.2 q } }.}.|.OXOX}.{.}.oX X).(.}.oX}.OX}.",
"{.}.).'.'.=X-X=X=X;X[.[.:X>X&X'.].=X-XXX'.] q % h <.q.k.@.@.j.2X2X<X8.%.l h B S R A.I.V.2 q  .{.{.oX}.}.{.{.oXoX_./.oX}.}.OXoX.X",
"{.{.'.'.'.*X=X-X:X=X'.-X:X$X].'.[.=X=X].X.) # % j %.j.j.+.+.k.j.u.q.8.m * > A M.M.A.I.V.2 q  .{.}.}.oX{.(.}.OX}.{.OXoX(.}.OX X(.",
"{.(.'.'.[.&X=X:X:X'.].;X$X-X'.'.&X=X*XE./ #   * j <.e.z.h.N.+.@.a.8.k.0.- : A M.M.A.I.V.2 q { {.{.}. X).`.OX}.}.OXOX`.`.OXOX`.(.",
"/./.'.'.].&X-X>X-X'.&X-X;X&X'.&X&X].E.' u * O ; v 1.r.b.h.Q Q Q 2.g.q.0.f > V S M.A.K.B.3 q | `.{.OX).'.}.OX{.}.oX{.'. XOX}././.",
"/./.'.'.'.&X:X:X&X'.&X-X-X*X-X=X[.o.~ u h j j v -.b.r.b.l.5.5.5.4.:.w.w.$.h > 9 S M.A.F > e ] `.oX}.'.|.OXoX{.}.}.).].}.OX.X)./.",
").).'.'.'.=X:X-X].'.=X=X-X:X-X'.'.| w * j L L ,.1.:.*.*.*.=.*.=.:.:.>.:.1.v ; 4 V A A Z i s | }.OX_.].oXOX{.(.{.(.'._.oXoX_.'.'.",
"_.|._.'.[.-X$X=X'.=X=X=X:X%X].'.).T.q O j L L L ,.v f & & & & f v 1.:.:.:.-.v h : : : i ' ..).@X X).|.oXoX_.)././.'.}.OX}.).'.'.",
"oX&X'.'.&X-X-X*X*X-X&X-X$X*X'.'.}.T.q O H P j j j h q e w w w q 0 b $.:.:.:.1.b *   # / ..).oX@X|.'.{.oX X'.'.).'.).OX}.{.].'.|.",
"_.'.'.'.*X=X-X*X:X*X*X=X-X'.'.|.@X .q : C J 0 O O t [ Y.T.E.| ` q & & g :.:.:.$.& # ) ..^.{.oXoX_.).}.}..X'.'.'.]. XOX{.{.].|.OX",
"'.'.'.'.*X*X-X:X:X[.&X*X&X'.'.OX@X} w o M Z i w w ( T.}.oX|.|.T.( w w t #.=.>.-.h i ' R.).}.}.}.]._.}.{.`.'.'.'.|.@X}.{./.{.@X}.",
"'.'.'.].&X*X$X>X*X'.[.&X].[.#XOX}. .q X o p [ } Y.T./.oXoXoXOX}.Q.T.Y.` t g :.1.K Z i ~ ..}.}.{.'.(.{.{.).'.'.].oX@X{.(.{.}.}.`.",
"'.'.'.&X|.*X:X:X[.'.'.&X-X XoXOX{.Y.^ w w ( T.}.OX.X}.oXOX@XOX}.OXOX|.o.^ a #.&.J V o q { {.}._.'./.{.{.).'.'.}.OXoX)./.{.{.{.'.",
"'._. X[.&X$X:X-X'.'.*X:X*X|.oXoX|.Q.Y.Y.Y.T.{.OX{.`.}.oX@XOXOXOXoXOX|.].!.| t & + o X q  .}.}.).)./.}.{.'.].|.}.oX{.'.).(.(.(.'.",
"}.oX|.].&X$X:X&X'.*X:X#X'.}.}.}._.}.OXoX{.}.oXoX_.|.}.OXOXOXoX}.oX}.).=X:X).~ w w w q ( T.{.(.).'. XXX).|.}.|.}.}.`.'.[.|.(.).'.",
"oX|.|.].*X$X-X&X&X;X$X].].}.}.{..XoXoX{.{.}.oX}.).{.oX@XoX@X}.}.}.}._.;X$X|. .{ } E.!.W.^./.(.).*X%X`.}.oX].(.}.}.`.=X=X'.'.].{.",
"|.|.|.'.*X-X-X].-X-X*X'./.{.{.}.}.oX}.(.{.oXoX`..XOX}.}.OXOX|.{.}./.&X-X-X&X).(.+X>X*X)./././.&X:XXX}.@X|.'.{.{.oX%X-X'.'.'.{.oX",
" XoX].].*X-X*X&X*X*X].'.)./.{.}.}.}.{./.}.OX}.{.OX}.{.}.@X{.(.{..X`.*X-X-X[.'.XX%X$X'.'.).).`.:X:X}.}.}.'.).{.+X>X%X].'.'.`.}.}.",
"OX|.'.[.*X*X&X[.&X&X'.]._./.(.{.}. X).|.OX}.}.OXOX_._.oXOX`./.(./.).&X*X*X].&X-X-X&X'.'.'.'.#X>X+X{.}._.'.).}.,X,X&X'.'.'.(.}.}.",
"OX'.'.[.*X X[.'.'.].|._.'.)./.}.OX_.'.}.OX{.}.oX{.]..XoX}._./.(./._.&X&X&X'.&X*X*X'.'.'.).&X:X:X}./.(.).'._.@X%X#X'.'.'.).}.}.}.",
"|.'.'. X|.&X].'.]. X.X'.'.'._.OX X).|.OXoX{.{.{.[.].}.oX X).!./._.].[.&X[.].[.&X&X'.'._._.-X:X$X)._.).'.'.|.XX#X X'.'.'.{.}.}.@X",
").'. X X].].].). X}.'.'.'._.oXOX_.].}.OX{.`.{.(.]._.oXoX`.'.'.'.)._._.[.].'.'.'.'.'.|. X[.-X$X=X'.'.'.'.'.[.&X&X'.'.'.`.@X|.}.+X",
"]. XoX'.'.[.|.oXOX_.'.'.].oXOXoX'..XoXoX).).)._.'..XOX}._.'.'.&X X'.'.'.'.'.'.'.).|.oX[.&X;X;X&X'.'.'.'.'.'.].].'.'.].oX}.{.oX}.",
"oXOX_.'.|..X XoX X'.].|.oXOXoX|.'.{.}.}.'.'.'.'._.OXoX{.].'.|.oX_.'.'.'.'.'.'.&X_.oX}.'.*X-XXX[.'.'.'.'.].).'.'.'.].}.@X X{.}.}.",
"OX X].|.oX|.oXoX_.|.}.}.OXOXoX].).}.}.{.'.'.'.'.oXOX{.{.).}.OX|.'.'.'.'.'.'.|.|. XOX_.[.*X=XXX'.'.'.'._.|.'.'.'.].}.@XOX|.{.}.}.",
"oX|.|.OX.X}.}.}. XOX XoXOXOX.X].`.{.}._.'.'.'.|.OX}.(.(.}.oX X'.'.'.'.'.'.].oX|.+XoX'.'.XXXX&X'.'.'.|.XX'.'.'.]. XoXOXoX(.{.}.oX"
};
