/* XPM */
static char *theoLR41704828128[] = {
/* columns rows colors chars-per-pixel */
"64 64 213 2 ",
"   c #0B0604",
".  c #080606",
"X  c #130907",
"o  c #190A07",
"O  c #120A0E",
"+  c #1C0D0B",
"@  c #1E150A",
"#  c #131C04",
"$  c #0C0F12",
"%  c #170E15",
"&  c #0C191B",
"*  c #111419",
"=  c #1E121B",
"-  c #17191A",
";  c #210E09",
":  c #24120D",
">  c #2B150E",
",  c #28180A",
"<  c #30160F",
"1  c #381C09",
"2  c #331A0A",
"3  c #261610",
"4  c #2C1610",
"5  c #2E1912",
"6  c #2C1A1A",
"7  c #321C15",
"8  c #3C1C13",
"9  c #321A18",
"0  c #1A2504",
"q  c #1B2C00",
"w  c #142200",
"e  c #0D211D",
"r  c #21250D",
"t  c #28290A",
"y  c #263904",
"u  c #3A3309",
"i  c #202E14",
"p  c #24261B",
"a  c #26331B",
"s  c #283919",
"d  c #34311C",
"f  c #362712",
"g  c #1A1825",
"h  c #1C1C33",
"j  c #2B1B23",
"k  c #281825",
"l  c #341E2D",
"z  c #351D25",
"x  c #183D31",
"c  c #1A2928",
"v  c #2E2123",
"b  c gray15",
"n  c #39202B",
"m  c #392131",
"M  c #37253C",
"N  c #30283A",
"B  c #2B3438",
"V  c #252D35",
"C  c #461E13",
"Z  c #4C2512",
"A  c #422218",
"S  c #492519",
"D  c #562B14",
"F  c #582716",
"G  c #64291B",
"H  c #6C2D1E",
"J  c #702E1E",
"K  c #70381A",
"L  c #75321C",
"P  c #47242C",
"I  c #582924",
"U  c #412538",
"Y  c #45293D",
"T  c #4C2D3E",
"R  c #583230",
"E  c #662D28",
"W  c #743120",
"Q  c #793429",
"!  c #6B3A36",
"~  c #622F31",
"^  c #2D4503",
"/  c #2F4A01",
"(  c #2D4209",
")  c #314E03",
"_  c #315100",
"`  c #3C560B",
"'  c #3D5A08",
"]  c #3E5A13",
"[  c #3F6108",
"{  c #1F533E",
"}  c #425B0C",
"|  c #7D4015",
" . c #426604",
".. c #41630B",
"X. c #4B6F0F",
"o. c #426904",
"O. c #4E7602",
"+. c #4F7B05",
"@. c #4C720C",
"#. c #527E03",
"$. c #527A0C",
"%. c #517810",
"&. c #527610",
"*. c #594131",
"=. c #7B4431",
"-. c #1F384D",
";. c #313C47",
":. c #333241",
">. c #2F2F57",
",. c #2B3E55",
"<. c #36335C",
"1. c #332D4B",
"2. c #3B3A69",
"3. c #3F3F72",
"4. c #442B43",
"5. c #432E4A",
"6. c #413249",
"7. c #413A49",
"8. c #423458",
"9. c #403B69",
"0. c #403966",
"q. c #38434F",
"w. c #2A5940",
"e. c #3D4A57",
"r. c #27565B",
"t. c #385E45",
"y. c #2B6D5C",
"u. c #286556",
"i. c #3D6558",
"p. c #3B4967",
"a. c #355B6B",
"s. c #3C4A76",
"d. c #3A5673",
"f. c #2E5560",
"g. c #3A6E65",
"h. c #346576",
"j. c #387473",
"k. c #33737A",
"l. c #357A72",
"z. c #397C66",
"x. c #404D4D",
"c. c #41404A",
"v. c #5E4045",
"b. c #5F4A41",
"n. c #46525E",
"m. c #414253",
"M. c #645C46",
"N. c #4B6C56",
"B. c #424864",
"V. c #495767",
"C. c #4D5967",
"Z. c #485665",
"A. c #505F6E",
"S. c #546C73",
"D. c #843B1E",
"F. c #863724",
"G. c #8A3D25",
"H. c #854719",
"J. c #964A1C",
"K. c #A7551C",
"L. c #B0581F",
"P. c #9B4424",
"I. c #9A5634",
"U. c #8A4721",
"Y. c #A05226",
"T. c #AC5720",
"R. c #B25A20",
"E. c #B85F2B",
"W. c #B65A27",
"Q. c #C15F23",
"!. c #C96225",
"~. c #538303",
"^. c #548902",
"/. c #56830C",
"(. c #5B8E06",
"). c #5A9301",
"_. c #5C900A",
"`. c #5E8B12",
"'. c #609401",
"]. c #679C03",
"[. c #689F02",
"{. c #65960D",
"}. c #669B0C",
"|. c #689F0C",
" X c #649513",
".X c #669912",
"XX c #689D12",
"oX c #608F12",
"OX c #69A402",
"+X c #67A901",
"@X c #6BAB02",
"#X c #69A30A",
"$X c #6DAA0B",
"%X c #66A109",
"&X c #70AF0D",
"*X c #6EB301",
"=X c #6FB800",
"-X c #72B404",
";X c #71BA01",
":X c #72B40D",
">X c #76BB0F",
",X c #78BE0E",
"<X c #6BA412",
"1X c #6EAA11",
"2X c #70AE11",
"3X c #73B410",
"4X c #75B810",
"5X c #7AC40D",
"6X c #7DCA0C",
"7X c #79C306",
"8X c #37836F",
"9X c #348075",
"0X c #80CF0D",
/* pixels */
"+X@X-XOX].+X@X*X-X*X@X*X-X@XOX X].[.[.{. X X|.*X*XOX].OXOXOX{. X X X X.XOX=X#X@X*X#X.X-X$XXX<X.X|.*X$X.X X X}.*X$X*X*XOX].OX-X*X",
"@X*X*X%XOXOX*X*X=X*X+X*X*XOX]. X].].[.{. X{.@X*X@X.X{.[.OX[..X X X%X%X}.=X*X#X*X@X#X*X*XXX.X#XOX*X*X}. X.X#X*X*XOX+X@X|.OX*X*X+X",
"@X*X@X{.[.@X*X*X=XOX+X*X+XOX{. X}.].].#XOXOX*X*XOX X{.{.].{. X.X@X#X.X*X;X#XOX+X+X@X=X#X.X$X$XOX*X$X X#X$X*X;XOXOX+X+XOX*X*X+XOX",
"*X*X|.#X*X*XOX=X*XOX@X@XOXOX{. X X.X#X=X#X#X+X@X|. X X X X X|.*X&X.X%X=X;XOXOX@X@X*X*X.XOX*X#X*X*X+X$X*XOX*X*X|.OXOX@X@X*X@X[.OX",
"*X+X+X;X@X[.*X=X@X[.OXOXOX].{. X X$X*XOX XOX+XOX{. X X X X}.*X*X{. X@X;X*X].OX+X*X*XOXOX;X@X+X@X@X*X=X*X*X*XOX}.].OX@X+X@XOX].OX",
"@X@X*X-X}.|.*X*X|.].[.OX].{. X{.OX*X*X.X{.OXOXOX X X X X{.+X@XOX X|.@X-X#X].OX-X*X@XOX-X@X|.OX@X*X*X*X*X@X*X|.{.].[.OX@X@X.X}.*X",
"OX@X*XOX XOX*X*X}.].].]. X.X|.OX=X*X[. X{.'.~.O.@.%.`..XOXOXOX{..XOX@X@X|.OX*X*X@X@X@X*X#X[.OX@X*X*X*X+X@X@X}. X{.].OX*X|. X@X;X",
"OXOX@X}..X@X*X$X{.{.}.]. X#X#X@X-XOX}. X}.#.^ 0 0 ( /.].[.[.OX|.%XOX+X+XOX*X*X@XOX@X*X*X.X[.@X*X*X=X*XOX+XOX.X X X{.*X*X X|.=X=X",
"].[.[..X|.*X*X#X X X X.X#X@X#X;X+X[.{.{.~.` 0     0 ' $._.].+X%X.X[.OXOX@X*X@XOXOX*X*XOX}.*X*XOX*X*XOXOXOXOX X X X$X=X#X X@X=X@X",
"{.{.}. X+X-X+X}.oX X%X@X=X#X*X*X|.}.#X^.y 0 : + ; : 0 ( $.{.*X<X{.].[.@X+X@XOX].OX-X@X+X*X-X].+X;X*X].[.OX|. X X|.*X*X.X}.*X*X#X",
" X X X.X-X*XOX{. X$X*X;X*XOX*X@XXX%X).` 0 X : 4 > : X 0 ` ~.~.X.@.#.'.OX+X*X.X{.*X-X+X-X;X#X{.@X=XOX].].[.}. X XOX-XOX XOX*XOX.X",
" X X.X@X=XOXOX{.@X-X;X;X#X+X@XOX@X).( # : 3 5 7 7 5 : @ 0 q q 0 0 y $.OX=X#X X$X=X@X+X*X+X.X#X*X*X%X].].].{. X}.*X*X%X.X+X@XOX.X",
" X X#X=X*X[.[.OX*X=X;X*X#X+X@X@X*X~.0   : > 7 7 5 5 5 : O X       0 ' ).+X{.%X*X*XOXOX+XOX X+X-X*X.X{.}.}.{. XOX*X@X{.{.OXOXOX X",
" X X*X=XOX'.OXOX@X*X;X@X[.OX@X-X*X+.q   + 5 5 7 5 4 > > 3 4 , 3 : : 0 / /. XOX*X@X].[.[.{. X@X*X#X X X X.X{.|.OX@XOX X].OXOX}. X",
" X#X*X*X}.].OXOX+X-X*XOXOX@X*X*X@X#.q   : > 5 7 5 4 > 5 7 7 7 7 4 ; X y @.{.(.^.$.@.@.+.`.%X-X*X#X X X{.@X|.|.OX@XOX X].[.[.{. X",
"OX*X*XOX X{.].[.-X-X*XOX*X*X*X@X+X~.q   @ > 7 7 7 7 5 7 7 7 7 7 4 : : u &.~./ q 0 0 0 ( $.*X*X+X|. X#X*X#X X].OXOX}. X{.].].{.{.",
"#X@X@XOX X X X$X-X@X*X=X=X=X@X+X@X)./ 0 @ : 5 7 9 9 9 < < 9 7 7 5 4 3 f ..[ 0 * * * - a ..).].OX}.OX=XOX X X].[.OX{. X X X{.@X*X",
"OX+X@X{. X X1X,X@X*X;X*X*X@XOXOX@X+X~.' 0 X : > 4 4 > 4 4 7 7 7 7 5 4 , 0 i B ;.;.q.Z.x.s ) ~.OXOX@X*X.X X X].].[.{. X X{.*X*X.X",
"OXOXOX{. XXX5X-X@X-X*X@X*X+X[.OX;X@XOX(.) 0 @ : 4 9 9 9 4 4 7 7 7 7 5 @   * ;.Z.V.A.S.C.B s ' ~.OX@X#X X X X}.].].{. X{.OX*X#X X",
"OXOX[.{..X,X,XOX+X*X+X@X@X}.].*X*XOX*X@X~.' 0 + z m P l 6 4 < 9 7 7 7 4   * ;.V.S.S.A.C.C.e.a ^ ~.OX{. X X.X%X{.{.{. X].*XOX.X X",
"].].]. X2X6X2X[.OXOXOX*X#X XOX;X@X@X*X@X X+.q O n R R P z 9 7 9 A A 7 ,   * ;.V.S.S.A.C.C.e.a ^ #.]. X X#X@X.X X X X].OXOX|. X{.",
"].].].XX,X,X|.}.].OX@X*X.X.X;X*XOX@X@X|. X~.q ; I Q Q ~ P z 9 8 G G 8 @   * ;.n.C.A.S.C.B a ] %.`.{..XOX*X#X X XoX X{.].[.{. X X",
" X{.{.2X,X3X X X{.+X=X$X XOX-X@XOXOXOX X}.~.q ; G F.F.Q ~ P 9 C H W C @   $ V ;.;.q.B.m.a ( %. X X{.OX;X$X X X X X X X{.}. X X X",
"oX X.X3X>X1X X X}.=X*X.X.X*X*X#X].].]. XOX^.q ; H F.F.F.Q W 8 C W W C +   . $ * * - g d } %.`. X{.%X@X@X.X X X X X X X X X.X.X X",
" X X<X3X3XXX X X@X=XOX.XOX*X@X}. X X X`.).o.0 4 H F.F.F.W F 8 8 F F 8 +     o ; ; : 2 Z  .+.`..X].OX+X%X X X X X X{. X X1X1X X X",
" X X1X2X2X X X.X@X-X#X.X@X@XOX X X X X~._ 0 , 8 J F.F.W F 8 4 < 8 8 < ;   o C G G L J.H.u ( %.%X[.[.OX}. X X X.X#X.X X3X3X X X X",
" X X1X1X1X X X#X*X*X.X{.+X@X#X X X X.X^.q   6 A E W W F 8 4 4 > 4 > > > 2 F D.G.G.P.!.K.1 0 +.}.{.].[. X XoX.X$X}. X3X5X.X X X X",
" X.X<X<X<X X X@X+XOX.X].OXOX}. X X X@X^.q   3 f A S S A 8 7 7 5 4 4 > C H.L.Q.Q.P.P.!.K.1 q +. X X{.{. X.X.X@X$X.X3X6X1X XoX X X",
".X.XXXXXXX.X[.@X@XOX X].[.[.{. X X}.*X~.q   3 7 7 7 7 7 7 7 7 5 > 7 Z K Y.W.T.J.P.P.!.K.1 q @. X X X X X#X#X=X%X<X5X,X.X X X X X",
"#X.X.X.X.X#XOXOXOX|.{.].].[. X X%X@X*X~.0   3 7 7 7 7 7 7 7 7 4 > Z J.Y.G.R Z Z L P.!.K.1 0 X. X X X.XOX%X=X&X.X3X,X3X X X X X X",
".X X X.X$X#X[.[.OX{. X{.].}.|.@X#X*X@X+.0   3 5 7 7 7 7 7 f D D D K Y.I.v.N c p S D.!.K.1 0 X. X X.X@X$X@X*X#X#X>X,X<X X X X X$X",
".X X X#X@X.X].[.[.{. X X.XOX*X#X#X@X@X+.0   : 4 5 4 > 4 5 Z U.R.L.Y.=.v.B.a.y.w.p Z T.K.2 q X. X X$X*X#X*X*X}.&X7X&X X X X%X-X$X",
" X X#X-X|. X].].]. X.X1X@X*XOX XOX-X+X@.w   o > Z D D D D K Y.E.E.I.v.e.a.k.9Xy.{ t | | , 0 X. X%X=X$X+X*XOX#X;X,X$X X}.#X*X*X.X",
"#XOX;X@X X X{. X}.#X4X@X*X@X.X.X-XOXOX@.0 . . 2 H.R.R.R.R.Y.=.! ! v.B.a.l.9Xk.k.y.w.d ,   0 X..X*X=X%X@X@XOX-X;X&XXX$XOX@X=X#X X",
"@X@X-X@X X X X X#X5X&XOX+X#X.X>X*X'.#.` r O . > U.E.E.E.E.I.b.7.T :.p.a.u.u.h.k.9Xy.{ e . 0 X.+X;X*X#X+X@X*X-X-X<X@X@X#X*X*X.X$X",
"&X*X-XXX X X X<X0X>X].[.OX{.:X,X].#.^ r j k   % I ! ! ! ! b.N.i.7.T 6.:.c { y.9Xk.h.u.{ & q @.*X;XOXOXOX+X*X*X#X-X-X#X@X@X@X*X=X",
"*X*X+X X X XXX>X,X<X X[.].1X6X<X$.} r 3 l l O % N ;.7.m.;.n.z.z.x.1.4.l O e u.9Xk.j.N.t.e 0 #.-X*X|.[.OX*X*X+X@X;X@XOX@X@X*X=X*X",
"@X*XOX X X.X2X,X3X.X<XXX<X6X5X%.y r j m M l O * ,.a.j.N.d.h.8X8Xh.p.5.m O & r.k.9XN.M.*.@ 0 #.@X@X}.OX*X-X+XOX*X*X|.[.OX*X*X=X*X",
"+X@X|. X XXX3X,X1X1X2X X4X0X3XX.0 O m M m k $ & r.k.9X9Xk.k.9Xk.k.a.7.m * g -.f.g.N.=.G ; 0 #.+XOX@X*X*XOXOX*X*X@X X[.@X*X*X=X+X",
"@XOX.X X X1X3X2X2X,X.XXX5X6X1XX.0 O l m = . . e u.9Xk.k.9X9Xk.k.9XN.c.M m k g b *.=.U.G ; 0 #.OX+X@X*X@XOXOX*X*X|.|.*X@X+X=X*XOX",
"OXOX X X X2X2X3X5X1X X3X5X,X X%.( t v v r # . & r.k.h.h.k.k.d.h.k.g.m.4.4.l O ; G F.F.G ; 0 #.OX@X@X*XOX[.@X-X@XOX*X*XOX@X=X@X%X",
"[.[. X X.X1X2X5X5X.X.X4X>X3X X`./...r i ] ` w & ,.s.B.s.s.d.s.s.d.s.B.8.5.l O ; G F.F.G ; 0 O.[.OX@XOX{.].*X*X@X*X-X}.|.*X*X[.OX",
"[.]. X X.X<X3X6X3X X<X3X3X1X X<X1X/.( y [ [ i h <.3.B.9.B.8.<.<.3.9.9.0.4.l O o C G G F t y $.[.+X-X.X X@X=XOX@X*XOX.XOX*X@X}.].",
"].]. X X X<X,X5X<X X<X3X3X1X3X1XXXoX/...y i :.<.3.3.3.9.0.1.k h <.0.8.4.Y l O   ; ; ; t } %.`.}.*X@X X%X;X*XOX+X@X}..X*X*X#X{.].",
"{.{. X X X2X5X4X X X2X2X3X5X3X X X}.$X#.q * >.3.9.9.0.8.M k = g >.8.4.U U l O   # t 0 ( %. X X@X;X}..X*X-XOX[.OXOX X|.*X*X#X X X",
"|.#X.X X.X3X>X2X X2X2X2X5X,X.X X.X*X#X#.q * >.3.8.1.4.M = = k m 4.4.4.4.4.l O w [ O.X.%.`. X#X;X*X X|.*X*X|.}.].]. X+X*X@X}. X X",
"*X.X X X<X3X3X1X1X3X<X>X,X1X X X$XOX~. .t k 1.<.M n l v r r v l l l l m U m = r ..%.`. X X{.*X*X#X X+X*X+X.X X X X{.*X*XOX X X#X",
"#X X X X1X2X2X2X,X1X1X2X3X X XOX-X(./ t D E T M = O O r o.o.r O O O O = m U l z 0 ( %..X#X#X*X*X}.{.@X@X#X X X X X@X=XOXOX{.$X*X",
" X X X X<X1X3X5X,XXX<X1X<X X X-X*X+.q o C I P p r q 0 ) ).~./ q q q q r j m m j O 0 $.@X}.@X-X+X X|.+X@X|. X X X#X;X@XOX].OX*X*X",
" X X X X1X1X,X6X1X.XXX<XXXXX:X=X*XO.q . o ; O r  .~.#.).+X+X).^.^.^.~.` r = 6 6   q ~..X}.+X@X#X X[.OXOX{. X X.X*X;XOX].OX@X@X|.",
" X X X<X#X2X5X5XXX X XXX3X$X*X=X#X~./ q q q q / ).#XOX*X=X;X-X@X=X=X#X%.) t , @   q +. X|.OX@X[. X].[.OX{. X X#X*X*X{.].OXOXOX X",
".X.X$X%X<X4X5X3X X X1X5X1X#X*X*XOX'.~.^.~.#.#.).].OX+X*X;X=X=X*X=X*X%XoX%X@.0   . q X..X@X@XOX{.{.].@XOX X|.#X@X*XOX X}.[.[.[. X",
"$X*X.X}.<X,X5X<X X2X5X3X.XOX*X@X}.OX=X*X@X+X*X*X}.OX@X*X=X=X*X*X*X@X}.2X5X X^ q q ^ /.:X@X[.OX{. X&X&X}.#X@XOX@X@X|. XXX#X].{. X",
"*X%X%X.X1X4X3XXX<X4X>X.X{.+X@XOXOX*X*XOXOX*X*XOX{.OX*X*X*X=X@X@X@X+X}.4X4X#X~.O.O._.3X#X].].].{.2X>X#X@X-X}.OX@X@XXX2X2X X X X@X",
"$X$X%X.X1X3X3XXX2X3X1X X}.OXOX+X@X*X+XOXOX*X-X[.%X*X*X@X;X=XOX+X+X%X<X3X3X1X{.[.-X6X2X.X].].].<X5X&X@X-X|. XOXOX*X,X3X X X X@X@X",
"OX*X.X.X3X2X1X<X1X2X.X X].[.OX@X@X*X[.].@X-X+X@X*X*X].*X;XOX].OXOX|.1X2X3XXX X$X5X:X.X X{.{.|.5X5X@X@XOX X{.OX-X6X,X.X X X[.@X@X",
"=X#X XXX1X1X1X.XXX<X X.X}.].[.OX*XOX X}.*X*X+X-X*X{.|.=X*X].].[.[.{.1X1X1X X<X3X3X<X X X X X:X6X-XOXOX}. X}.@X7X7X1X X X X[.@X@X",
"*X.X XXX$X1XXX X.X.X#X.X X{.].OX*X}..X*X=XOX@X*X$X X+X*X*X}.].[.].XX<X<X<X X1X1X1X.X X X.XXX5X5X@X].OX{. X|.-X;X:X X X X{.@X@X@X",
"#X X X$X#XXX.X X X$X#X X X X|.=X@X X#X;X*XOXOXOX}..X@X*X$X X{.].]..XXX<XXX.X.X<XXX X X#X}.3X5X,X}.}.}. X X<X&X:X#X X X X#X@XOX;X",
".X.X$X$X.X.X.X.X@X@X.X X X}.*X=X}. X*X*XOX].OX[.{.|.*X*X]. X X.X{.{.|..X X X X X.X X<XOXXX4X>X1X X X X X XXX<X<X.X X XXX;XOX@X-X",
" X*X*X X X.X#X*X=X}. X X.X*X=X*X X#X-X*X{.{.{.}. X+X=X@X}. X X.X$X.X X X X X X X.X|.*X}.<X3X4X<X X X X X X.X.X.X X X.X*X*X#X*X*X",
"@X=X.X X#XOX@X=X$X X.X#X*X=X=X#X XOX@X@X X X X X}.*X*XOX.X.X#X*X}. X X X X X X<X|.*X$X X2X3X2XXX X X X X.X{. X X X.X*X;X#XOX@X+X",
"=X@X.X#X*X#X*X*X}.#X*X$X=X=X*X.X.X+X+XOX X X X X*X=XOXOX{.OX=X#X X X X X X X#X#XOX;X}..X1X2X&X.X X X X}.}. X X X.X@X;X-XOX@X@X@X",
"*X#X#X=X#X+X@X@X@X=XOX*X=X*X@X X[.OX@X|. X X X%X=X@X[.[.$X*X@X X X X X X X%X&X%X*X-X X.X&X&X<X X X.X#X#X X X X.X$X*X;X@X[.OX+X-X"
};
