/* XPM */
static char *theoLR61704828129[] = {
/* columns rows colors chars-per-pixel */
"64 64 208 2 ",
"   c #010101",
".  c #0B0504",
"X  c #0B0807",
"o  c #190A07",
"O  c #120B0E",
"+  c #1A0C0A",
"@  c #130907",
"#  c #1B1806",
"$  c #0C0F12",
"%  c #110D16",
"&  c #0D181D",
"*  c #111419",
"=  c #1E121B",
"-  c #15181B",
";  c #210F0A",
":  c #24130D",
">  c #2B140E",
",  c #26190B",
"<  c #30160F",
"1  c #381C09",
"2  c #331A0A",
"3  c #261610",
"4  c #2C1610",
"5  c #2D1812",
"6  c #2A1619",
"7  c #321C15",
"8  c #3C1C13",
"9  c #331C19",
"0  c #1A2504",
"q  c #1B2A01",
"w  c #1A2205",
"e  c #1F3203",
"r  c #0E241C",
"t  c #21250D",
"y  c #232A0D",
"u  c #2C270B",
"i  c #3E3509",
"p  c #24261B",
"a  c #37201B",
"s  c #26331C",
"d  c #34311C",
"f  c #191724",
"g  c #1C1C33",
"h  c #0D1620",
"j  c #2B1C25",
"k  c #341E2D",
"l  c #3A1E21",
"z  c #192424",
"x  c #183A33",
"c  c #2E2122",
"v  c #2A2029",
"b  c #3C222B",
"n  c #382031",
"m  c #362539",
"M  c #33353A",
"N  c #283037",
"B  c #461E13",
"V  c #422016",
"C  c #4D2613",
"Z  c #432319",
"A  c #4C261A",
"S  c #552A14",
"D  c #5E281A",
"F  c #552517",
"G  c #632A1C",
"H  c #6D2D1D",
"J  c #702E1E",
"K  c #70381A",
"L  c #76341D",
"P  c #6F3F1D",
"I  c #4C272B",
"U  c #592C2B",
"Y  c #412538",
"T  c #45283C",
"R  c #4D2834",
"E  c #5B2F36",
"W  c #662D28",
"Q  c #743121",
"!  c #7B3427",
"~  c #673A37",
"^  c #622F31",
"/  c #2D4504",
"(  c #2F4B03",
")  c #2C4108",
"_  c #314E04",
"`  c #3C5B04",
"'  c #3A5707",
"]  c #3E5B12",
"[  c #3E6201",
"{  c #415D0B",
"}  c #7D4015",
"|  c #4A6F0E",
" . c #436407",
".. c #4D7504",
"X. c #4F7B02",
"o. c #4C720C",
"O. c #4E7908",
"+. c #517F02",
"@. c #527C0D",
"#. c #517810",
"$. c #7D4231",
"%. c #1F384D",
"&. c #372D4A",
"*. c #313C47",
"=. c #3E3544",
"-. c #2F2F57",
";. c #35335D",
":. c #293351",
">. c #3B3A69",
",. c #3F3F73",
"<. c #442C46",
"1. c #42394A",
"2. c #443456",
"3. c #403B69",
"4. c #403966",
"5. c #38434F",
"6. c #265741",
"7. c #2D5B45",
"8. c #2A415C",
"9. c #25525E",
"0. c #3E5453",
"q. c #375552",
"w. c #296F52",
"e. c #2A6B5B",
"r. c #2C755B",
"t. c #295964",
"y. c #3C4A76",
"u. c #3D5174",
"i. c #3B5369",
"p. c #396C63",
"a. c #346576",
"s. c #357377",
"d. c #387768",
"f. c #404D4D",
"g. c #474147",
"h. c #5F4A41",
"j. c #46525E",
"k. c #5E5144",
"l. c #4D6C56",
"z. c #757F4D",
"x. c #495767",
"c. c #4D5967",
"v. c #485665",
"b. c #505F6E",
"n. c #556B75",
"m. c #823A1F",
"M. c #863724",
"N. c #8B3D25",
"B. c #844819",
"V. c #92491C",
"C. c #9F4D1E",
"Z. c #A7551C",
"A. c #B0581F",
"S. c #9B4424",
"D. c #9B5833",
"F. c #A15226",
"G. c #AB5228",
"H. c #B65C25",
"J. c #A14F20",
"K. c #9E662F",
"L. c #99693B",
"P. c #C15F23",
"I. c #CB6325",
"U. c #D96D26",
"Y. c #538303",
"T. c #558901",
"R. c #588D02",
"E. c #57870B",
"W. c #599201",
"Q. c #5D920C",
"!. c #5E8B12",
"~. c #679C03",
"^. c #689F02",
"/. c #65960D",
"(. c #669B0C",
"). c #689F0B",
"_. c #609302",
"`. c #649513",
"'. c #669912",
"]. c #689D12",
"[. c #608F0D",
"{. c #66A502",
"}. c #69A402",
"|. c #6BAB02",
" X c #69A30A",
".X c #6DAA0B",
"XX c #66A406",
"oX c #70AE0D",
"OX c #6EB301",
"+X c #6FB800",
"@X c #72B404",
"#X c #71BA01",
"$X c #72B30D",
"%X c #76BA0F",
"&X c #78BE0E",
"*X c #6BA412",
"=X c #6EAA11",
"-X c #70AE11",
";X c #73B410",
":X c #75B810",
">X c #7AC40D",
",X c #7DCA0C",
"<X c #79C306",
"1X c #34826C",
"2X c #37946E",
"3X c #348075",
"4X c #57875D",
"5X c #80CF0D",
/* pixels */
"|.|.+X.X~.}.|.OX@X+XOXOXOX|.XX`.~.^.{./.`.`.).OXOX~.~.}.}.}./.`.`.`.`./. X+X X|.OX X/.OX.X*X]./. XOX|.].`.`. XOX XOXOXXX~.}.OXOX",
"|.|.OX).{.}.OXOXOXOX|.OX|.|.(./.~.~.~./.`./.|.OXOX`./.{.}.^.`.`.`. X X X+XOX XOX|. XOXOX].]. X XOXOX'.`.'. XOXOX}.|.|.).}.OXOX|.",
"|.OX|./.{.|.OXOX+X.X|.|.|.{.(.`./.~.~.XX.X}.|.OX X`././.~./.`./.|.{.'..X#X}.}.|.|.|.OX X`..X.X|.OX|.`. X|.|.@XXX{.|.}.}.OXOX}.}.",
"OXOX~.).OX|.|.+XOX}.{.|.}.^./.`.`.'. XOX}.).|.|.).`.`./.`.`. XOXoX'. X+XOXXX{.|.|.OXOX'. XOXXX|.OX}..XOX.XOXOX(.}.}.|.|.OX|.}.{.",
"+X|.|.OXOX~.|.+X|.^.}.}.^.~./.`./. X+X.X`.{.|.}.(.`.`.`.`.).OXOX).`.|.+XOX~.}.|.OXOX X}.#X}.}.|.OXOX+XOXOXOX.X~.^.^.|.|.|.{.~.}.",
"|.|.OX@X).).OXOX).~.^.}.~./.`./..XOXOX/./.^.}.}.`.`.`.`.'.}.|. X`./.OXOX X~.}.OXOX|.|.OXOX).}.|.OXOXOXOX|.OX X/.~.^.}.|.|.`.(.OX",
"{.|.|.}.`..XOXOX(.~.~.~././.). X@XOX~.`./.^.{.~.`.`.`./.{.}.|./.`.}.|.|.).}.OXOX}.|.OXOX X~.{.|.OXOXOX|.|.|./.`.`.~.}.OX).`.|.#X",
"{.}.|.(.`.|.OX.X/./.~.(.`. X X|.#X}./.`.(.^.~.~.`.`.).~.~.^.^.).).}.}.|.}.OXOX|.}.|.OXOX'.~.|.OX|.+XOX}.|.{.`.`.`./.OXOX`.).+X+X",
"~.^.^.`.).OXOX X`.`.`./..X|. X+X|.^.`.).)./.~./.'..X X`./.~.{.XX'.^.{.}.|.OX|.}.{.|.OX|.).OXOX|.OXOX}.}.}.XX`.`.`..X+X X`.|.OX|.",
"/./.~.`.}.#X|./.`.`.].OXOXXXOXOX X/.XX.X`./.`.].|.|.`.`.`.).OX]./.^.}.}.|.|.{.~.}.OX|.}.OX+X~.{.#XOX~.^.}.(.`.`.).OXOX`.).OXOX X",
"`.`.`.].OXOX}./.`..XOX#X|.XXOX|.'.|.|.].`./. X|.+X].`.`./.OX|.`././.^.}.|.OX]./.OXOX|.OXOX X/.|.+X}.~.~.^./.`.`.|.OX}.`.XXOX|.'.",
"`.`.'.|.+X}.^./.}.@X+X+X X|.OX}..X+X X`.). X{.+X.X`.'. X|.+X].`.`././.^.OX X`.{.#X|.|.|..X'. XOXOX X~.~.^./.`.).OXOX X`.}.|.}.`.",
"`.`. X+X|.^.^.|.OX+X#XOX X|.|.|.OX|.'. XOXXXOXOX(. XOXXX+XOX`.`.`.`.).OXOX'.).OXOX}.}.|.~.`.{.OXOX'./.(././.`.}.OX|.'./.}.}.XX`.",
"`.`.OX+X}.~.}.}.|.OX#X|.~.}.|.OXOX X X+X.X{.|.|.|.+X|.OXOX X`.`.].=XoX#X X`..XOX|.~.~.^././.OXOX X`.`.`./.).).{.|.}.`.~.}.}.(.`.",
"`.}.OXOX/.~.{.}.|.OXOX}.{.|.OXOX|. X+X{.Y.X.Y.T.T.W.XXOXOX).`.;X%X.XOXOX).'.|.OX X`.`.(.'.).OX|. X`.`./..X).).}.|. X/.~.^.^./.`.",
".X|.OX.X`./.~.^.@XOX|..XOXOXOX|.|.OXOXY./ q q q e _ T.OX|.].:X>X].}.@X|.`. XOX|.).`.`.`.'.OXOX|.(.`. XOX X`.~.}.}.~.`./.~.~././.",
"XX|.|. X`.`./..X@XOXOX+X+XOX|.}.|.{.R.' w . . . . w { Y.+.Q.$X=X/.OXOX X`.}.|.}.`.`.`.`..X+X}.{.(.}.#X.X`.`.~.{.^./.`.`./.(..XOX",
"}.}.|./.`.`.=X&X|.OX+XOXOXOX}.}.OXW.( w # ; ; ; ; # 0 q q _ !.]. X|.|.)./.}.}.{.`.`.`.).OX@X}.~.{.|.OX/.`.`.~.~.^./.`.`.`.|.OX/.",
"}.}.}./.`.*X>X@X|.OXOX|.|.{.{.}.+XY.q . ; > > > 5 ; @ . X 0 { | X.Y.X.o...X.X...| | o.R.|.|.~.^.|.|. X`.`.`./.~.~./.`./.|.OX X`.",
"^.{.^./.`.&X&X X|.|.|.|.|.(.~.OXOXX.q . ; > 7 7 7 5 : : > , 0 0 q q q q 0 0 q 0 w w q ( W.XX/.{.}.}./.`.`.`. X)././.`.XX|.|.'.`.",
"~.^.^.`.oX,XoX^.}.}.}.OX X`..X#X|.X.q . + 4 7 7 7 7 > 4 7 3 + X . . .       $ * & * f s  .E.!./.~.~.`.`. X|./.`.`.`.~.^.{.~.`.`.",
"~.~./.].&X&X].~.^.{.|.OX'./.+XOX{.Y.q . : > 7 7 5 4 > 4 7 7 3 , + : ; o . $ N *.*.5.j.f.s ) #.`./././..XOX X`.`.`.`./.~.~./.`./.",
"/././.-X%X;X`.`./.{.+X X`..X+X|.}.X.q . : 5 7 7 4 4 4 5 7 7 7 7 4 4 > : . * *.v.x.b.n.c.N s ] @.!.`..XOX.X`.`.`.`.`.`././.`.`.`.",
"`.`.'.;X%X=X`.`.(.+XOX'.(.OXOX X~...q . : 7 7 7 7 7 7 5 5 4 7 7 7 7 7 , . * *.c.n.n.b.c.x.0.s ) #.~.|.|.'.`.`.`.`.`.`.`.`.].].`.",
"`.`.].;X;X].`.`..XOX.X`.}.OX|./.`.#.e t , , 7 a 7 a a 9 4 4 7 9 9 7 7 , X * *.x.n.n.b.c.c.f.c ) +.}.{.XX`.`.`.`.`./.`.`.*X*X`.`.",
"`.`.=X-X=X].`.'.OXOX X/.|.|.}.`.`.!.#. .y o 3 7 a a b b 9 4 < 9 7 7 > : . * *.v.v.c.n.b.N s ] Y._.{.}./.`.`.`.'. X`.`.:X:X`.`.`.",
"`.'.*X-X=X`.`. XOX|./.).}.|.XX`.`.`.(.W._ 0 , 5 V I I I l 9 < 9 Z a 7 ; . $ N *.5.5.j.5.s ) Y.)./.~.~./.`.`.`..X).`.:X>X'.`.`.`.",
"`.'.*X*X].`./.|.|..X`.~.}.}.(.`.`.].|.|.R.` 0 : S Q ! ^ I k 9 8 G D 8 ; . . $ $ * - - s { E.).`.`././.`.`.'.|..X`.-X>X-X`.`.`.`.",
"`.].].].].`.~.|.|.XX`.~.^.^./.`.`.].OXOXXX..0 ; G M.M.! ^ I 9 B J J B ;   . o ; 2 1 1 i  .W.!.`.`.`.`.`. X X+X'.*X>X%X].`.`.`.`.",
" X].].].]. X}.}.}.~./.~.~.~./.`.).|.OX|.`...q ; H M.M.M.! W 8 B J H B ; . o B L C.Z.Z.B.C _ #.`.`.`.'.|. XOXOX].;X>XoX`.`.`.`.`.",
"'.`.`.`. X X~.{.}.(.`./.~.(.)..XXX|.OX/.#.' w > H M.M.M.J D 8 8 D D 1 < 2 F L N.H.I.U.Z.1 q | `.`.`.|..X{.+X X*X%X#X*X`.`.`.`..X",
"`.`.`. X|.'.^.^.^./.`.`.'.}.OX X).|.|.Y.) w 3 B H M.M.L F 8 4 < 8 1 2 C m.Z.N.N.S.G.I.Z.2 q | `.`..XOX XOXOX).oX<X$X`.`.`.].+X.X",
"`.]. X@X).`.~.~.~./.].=X.XOX.X`.}.@X}.o.w X , Z G Q K G 8 4 5 5 4 < C K S.F.L K m.S.I.Z.1 w | `. X+X.X.XOX|. X#X&X=X`. X XOXOX'.",
" X}.+XOX'.`./.`./.].%X|.|.|./.'.@X}.}.o.0 X 3 a Z Z C a 8 5 9 5 4 C V.F.$.U 9 8 H S.I.Z.1 0 | '.OX+XXX|.|.}.OX#XoX]. X}.|.@X X`.",
".X|.@X}.`.`.`.`. X>X.X}.{. X'.%X@X^.^.| q X 3 9 7 a a a a 5 u 8 F K F.D.h.M % ; G S.I.Z.1 w | {.#X|.XX}.|.|.@X@X*XOX.X XOXOX)..X",
"|.OX@X'.`.`.`.*X,X%X~.^.{.).:X&X~.~.~.+.y X , a a 7 5 a a 7 5 C V.F.$.h.l.7.- ; G S.I.Z.1 0 o.OX#X}.{.}.|.OXOX X|.#X X|.|.|.OXOX",
"OXOX|.`.`.`.'.&X>X*X/.).~.=X,X=X/./. XQ.e X 3 7 5 7 7 7 5 a S K F.D.h.q.d.w.x p A m.I.Z.1 0 X.@XOX X}.}.OXOX|.}.+X.XXX|.|.OX+XOX",
"|.|.}.`.`.'.-X&X;X'.*X(.*X,X>X].`./.%XQ.0 . + 5 , 4 4 4 5 C V.F.$.h.l.d.s.a.r.6.p C A.Z.1 0 +.|.|.(.}.OXOX|.|.OXOX).^.}.OXOX+XOX",
"|.|. X`.`.].:X:X=X=X-X'.:X,X;X`.`.=X%XR.0 . o > 1 C F S S } K.D.1.1.7.r.s.s.3Xe.r 1 Z.Z.1 0 +.|.}. XOXOX}.}.|.OX|./.^.|.OXOX+X|.",
"}.{.'.`.`.-X;X-X-X:X].].>X,X*X`.`.-X;XE.w   . ; F ! Z.A.A.A.4Xz.g.b z x w.s.s.9.& 1 Z.Z.1 0 +.}.|.|.OX|.{.}.OXOX).).OX|.|.OXOXXX",
"}.}.`.`.`.=X=X;X>X=X`.;X>X&X].`.*X*X!.] t O O 6 U N.G.H.H.L.4X1Xf.&.O r e.s.s.t.x d } } , 0 ..}.|.|.|.}.^.|.OX|.{.OXOX{.|.#X.X{.",
"}.^.`.`.].=X=X>X>X`.].:X:X;X`.`.*XE._ t c n k b R E ~ ~ ~ k.1X1Xa.*.& & t.s.3X1Xr.6.d , . 0 ..}.}.|..X/.~.#X|.|.@XOX).~.OXOX~.^.",
"~.~.`.`.].].;X,X;X`.*X:X:X*X`.*X=X#.0 O k T T m n m =.*.g.j.d.s.s.t.z f %.t.1X2X2Xw.r     0 o.~.|.OX'.`.|.+X}.|.OX}.`..XOX|.(.^.",
"~.~.`.`.`.*X>X,X*X`.*X;X-X=X:X=X].| 0 O k T T n = g 8.u.d.d.s.s.s.p.*.j h x r.2X2Xw.r     0 | ).OX|.`. X#XOX}.|.|.).'.|.OX X/.~.",
"/./.'.`.`.=X>X;X].`.=X=X:X>X;X`.`.@.( t c k k j X h 8.a.s.s.a.a.s.p.1.n = z 6.w.w.6.p + . 0 o.|.+X).`.OXOX}.^.}.{.`.).OXOX).`./.",
"). X'.`.].;X&X-X`.-X-X-X>X&X].`.`.XXR.[ y O O X   * -.y.u.y.y.y.u.i.<.Y n v z r r p F B o 0 O.+XOX`.).OXOX).(.~.~.`.|.OX|.).`.`.",
"OX].`.`.].:X;X*X=X;X=X$X:X*X`.`.|.OX XR.( q 0 0   * &.;.;.;.>.,.3.3.<.T T v O     o C C u ) R.OX X`..X|.|.`.`.`.`./.OXOX{.'.`.).",
"(.`.`.`.=X;X;X=X>X*X=X;X=X].`. X#X.X{.{.T.O.Y.[ # O m &.f g >.,.3.3.2.T T n O     . o u { T.|.OX(.(.|.|. X`.`.`.`.|.OX}.}.'. X+X",
"`.`.`.`.=X=X-X>X&X].*X=X*X`.`.+X+X X|.|.}.OXOXT./ 0 c j % g -.,.>.2.<.Y n c y q w 0 q _ @..XOX|.`.~.}.|.).`.`.`. X+X|.^.~.}.OXOX",
"`.`.`.`.*X=X>X,X=X`.].*X].].$X+XOX~.}.|.OXOX|.~.W. .t f &.>.>.>.2.<.<.k = y o.o.o.Y.T.@.Q.|.|.}.`.{.}.{./.`.`.'.OX#X{.~.}.|.|.).",
"`.`.`.*X X=X>X>X].`.`.*X;X.X+XOX}. X}.|.OX|.}.OX@XO.q * -.3.3.2.m k k j y ` Q.'.|.OX X`.~.|.|.~.`.~.^.}./.`.`.}.OXOX(.~.}.}.}.`.",
"`.*XXX X*X%X>X;X`.`.=X>X=X XOXOXXX^.}.OXOX|.|.+X|...0 h -.>.2.m = O $ t |  X/.}.|.|.`.'.}.|.}././.~.|.}.`.]. X|.OX.X/./.^.}.~.`.",
"XX+X]./.*X%X>X*X`.=X>X;X`.|.|.|.).}.+XOX}.|.OXOX).X.q * <.2.m c t q 0 _ ).:X).}.|.~.].$X|.}.^./.`.oXoX/.}.|.}.|.|.).`.(. X~./.`.",
"OX X X].=X:X:X'.=X:X:X].'.{.|.|.}.OXOX}.{.|.OX.X/.+.q + U U 6 t  .X.O.Q.oXoX~.^.{.oX&X.X~.~.~./.-X%X X|.OX]. X|.|.).-X=X`.`.].}.",
" X X X`.-X:X-X*X-X;X-X`.(.}.{.}.|.OX|.^.}.OXOX~.(.Y.q ; H G ; q +. X*X;X;X=X/.~.@X,X-X`.~.~.~.*X>XoX|.@X X`.}.}.OX&X%X`.`.`.}.OX",
"|.OX`.].-X-X=X*X=X=X].!.~.^.}.|.|.|.{.~.|.+X|.|.OXOX^.OX#X.X^.}.}./.=X;X-X].`.oX>X;X'.`././.(.>X>X|.|.}.`.`.}.@X,X&X`.`.`.).|.|.",
"+X X`.].=X=X*X].].*X`.'.(.~.^.}.|..X/.).OX|.|.OXOX).).OXOXXX^.^.^./.*X-X=X].].;X;X*X`.`.`.`.:X,X@X}.}.(.`./.OX<X<X=X`.`.`.}.|.|.",
"OX`.`.].=X.X].`.`.]. X/.`./.~.}.OX).`.OX+X}.|.OX}.`.XXOX|./.~.~.~.].*X*X*X`.*X=X=X].`.`./.].>X>X|.~.}.`.`.).@X#X$X`.`.`./.}.}.OX",
" X`.`..X X*X'.`.`..X X`.`.`.).+X|.`. X+XOX{.|.}.).'.|.OX.X/./.~.~.'.].].].].].*X].`.`. X).=X>X&X/.(.~.`.`.*XoX$X X`.`.`. X|.}.#X",
"'.'..X X].].'./.OX|.`.`.`.).OX+X).`.OXOX}.~.^.^.`.).OXOX X`.`.`././.).].`.`.`.`.`.`.)..X].:X&X=X`.`.`.`.`.].*X*X'.`.`.].#X}.|.@X",
"/.OX.X'.`.).).OX+X].`.`.'.OX+XOX`. XOXOX/././.(.`.{.+X|.).`.`.]. X].`.`.`.`.`.`.'.).OX].*X;X:X].`.`.`.`.`.`.'.'.`.`.).OXOX XOX|.",
"|.+X X`. X.X.XOX.X`.'. XOX+XOX X`.|.|.|.`.`.`.`.(.OXOX|./.'. XOX).`.`.`.`.`.`.].).OX|.`.-X;X;X].`.`.`.`.'.`.`.`.`.'.|.#X X.X|.|.",
"+X|.`. XOX XOXOX(. XOXXXOX+XOX'./.|.|. X`.`.`.`.OX+X{.^./..X+X X`.`.`.`.`.`. X X|.#X(.'.=XoXoX`.`.`.`.(. X`.`.`.'.|.#XOX X}.|.|.",
"OX X X+X{.{.|.|.|.+X|.OX+XOX.X'.~.}.}.).`.`.`. X+X|.^.^.{.OX.X`.`.`.`.`.`.].OX X@X|.`.'.oXoX=X`.`.`. X.X`.`.`.'..XOX#X|.}.}.|.OX"
};
