/* XPM */
static char *theoLR31704828129[] = {
/* columns rows colors chars-per-pixel */
"64 64 216 2 ",
"   c #040304",
".  c #0B0604",
"X  c #0A0906",
"o  c #130907",
"O  c #190A07",
"+  c #130B0E",
"@  c #1B0D0B",
"#  c #1F1509",
"$  c #141E02",
"%  c #0C0F12",
"&  c #100D15",
"*  c #0C191E",
"=  c #111418",
"-  c #1E121B",
";  c #191A1E",
":  c #210E09",
">  c #24120D",
",  c #2B140E",
"<  c #271A0C",
"1  c #30160F",
"2  c #381C09",
"3  c #33190A",
"4  c #261511",
"5  c #2C1610",
"6  c #2D1812",
"7  c #2A1619",
"8  c #321C15",
"9  c #3C1C13",
"0  c #321A18",
"q  c #152100",
"w  c #1B2504",
"e  c #1B2B01",
"r  c #1D2208",
"t  c #1F3203",
"y  c #0D221D",
"u  c #232A0D",
"i  c #28270A",
"p  c #3F3608",
"a  c #27341B",
"s  c #382017",
"d  c #2C1923",
"f  c #341E2D",
"g  c #3A1F25",
"h  c #1C2624",
"j  c #2E2123",
"k  c #3A2028",
"l  c #252D35",
"z  c #382031",
"x  c #352539",
"c  c #2B3239",
"v  c #35353A",
"b  c #411D13",
"n  c #4C1F14",
"m  c #4D2613",
"M  c #432219",
"N  c #482419",
"B  c #562B14",
"V  c #522218",
"C  c #5E281A",
"Z  c #512710",
"A  c #40200C",
"S  c #64291B",
"D  c #6C2D1E",
"F  c #702E1E",
"G  c #70381A",
"H  c #76341B",
"J  c #4B262D",
"K  c #402128",
"L  c #562A29",
"P  c #412538",
"I  c #4A2E3D",
"U  c #50323B",
"Y  c #662D28",
"T  c #733122",
"R  c #7B3428",
"E  c #683837",
"W  c #743A35",
"Q  c #622F31",
"!  c #2F4B00",
"~  c #2D4209",
"^  c #2D4406",
"/  c #304E00",
"(  c #325102",
")  c #3D5C03",
"_  c #3C550B",
"`  c #3E5A13",
"'  c #3E6500",
"]  c #415B0B",
"[  c #4B6F0F",
"{  c #436708",
"}  c #4C7403",
"|  c #4F7B04",
" . c #4C720B",
".. c #4E7908",
"X. c #517F02",
"o. c #527B0D",
"O. c #517810",
"+. c #7A4532",
"@. c #674538",
"#. c #302B4C",
"$. c #313C47",
"%. c #3E3A42",
"&. c #333856",
"*. c #3F3E6D",
"=. c #432E4A",
"-. c #40394C",
";. c #433C45",
":. c #523143",
">. c #443555",
",. c #523955",
"<. c #673A47",
"1. c #423965",
"2. c #413C6B",
"3. c #4C3D64",
"4. c #38434F",
"5. c #3E4D56",
"6. c #25525E",
"7. c #305D4D",
"8. c #3B6456",
"9. c #286556",
"0. c #375C6D",
"q. c #3B4973",
"w. c #3D5174",
"e. c #396F65",
"r. c #366274",
"t. c #33737A",
"y. c #387374",
"u. c #397C66",
"i. c #41404A",
"p. c #404C4D",
"a. c #5E4445",
"s. c #46525E",
"d. c #4A4F56",
"f. c #655B44",
"g. c #694E40",
"h. c #496C56",
"j. c #4C6D5D",
"k. c #5A6B4E",
"l. c #646C4C",
"z. c #495767",
"x. c #4D5967",
"c. c #485665",
"v. c #505F6E",
"b. c #434C62",
"n. c #586C68",
"m. c #447764",
"M. c #596879",
"N. c #576676",
"B. c #843B1E",
"V. c #863724",
"C. c #853B27",
"Z. c #93491C",
"A. c #864817",
"S. c #A7551C",
"D. c #AD571E",
"F. c #B0581F",
"G. c #9D4524",
"H. c #964225",
"J. c #9B5332",
"K. c #8A4721",
"L. c #A05226",
"P. c #AD5328",
"I. c #B25A20",
"U. c #B85F2B",
"Y. c #BC5A25",
"T. c #A84D25",
"R. c #B57339",
"E. c #B8652F",
"W. c #C15F23",
"Q. c #CA6325",
"!. c #D96D26",
"~. c #976240",
"^. c #528302",
"/. c #568A02",
"(. c #588D00",
"). c #57880B",
"_. c #589101",
"`. c #5C930B",
"'. c #5E8B13",
"]. c #679C03",
"[. c #689F02",
"{. c #65960D",
"}. c #669B0C",
"|. c #689F0B",
" X c #609205",
".X c #649513",
"XX c #669912",
"oX c #689D12",
"OX c #608F0E",
"+X c #65A400",
"@X c #69A402",
"#X c #6BAB02",
"$X c #69A30A",
"%X c #6DAA0B",
"&X c #67A704",
"*X c #70AF0D",
"=X c #6EB301",
"-X c #6FB800",
";X c #72B404",
":X c #71BA01",
">X c #72B40D",
",X c #76BB0F",
"<X c #78BE0E",
"1X c #6BA412",
"2X c #6EAA11",
"3X c #70AE11",
"4X c #73B310",
"5X c #75B810",
"6X c #7AC40D",
"7X c #7DCA0C",
"8X c #79C306",
"9X c #39876D",
"0X c #348075",
"qX c #468360",
"wX c #608160",
"eX c #80CF0D",
/* pixels */
"#X#X-X&X[.#X#X=X-X=X#X-X=X#X@X.X].[.[.{..X.X|.=X-X[.].@X@X#X{..X.X.X{.{.&X=X1X#X=X$X{.=X%X1XoXXX|.;X#X.X.X.X|.=X$X=X-X@X].@X-X#X",
"#X#X=X|.@X@X=X=X-X=X#X=X=X@X[..X].].].{..X{.#X-X#X.X{.[.[.[..X.X.X$X1X|.-X=X&X#X#X|.=X=XoXXX$X@X=X:XXX.XXX$X=X=X@X#X#X}.@X-X=X#X",
"#X=X#X{.[.#X=X#X-X@X@X#X#X+X{..X}.].].$X#X@X#X=X@X.X{.{.].}..XXX#X%X.X#X-X$X@X#X#X#X-X$X.X%X&X&X-X#X.X$X#X#X:X@X@X#X#X@X=X=X@X@X",
"=X=X|.$X-X#X#X-X=X@X#X#X@X].{..X.X.X$X-X$X$X#X#X|..X.X.X.X.X|.=X%XXX$X-X-X@X@X#X#X-X#XXX%X=X$X=X=X$X#X=X&X;X=X|.@X@X@X#X=X#X@X+X",
"-X@X@X-X#X[.#X:X#X[.@X@X+X].{..X.X$X-X#X.X@X#X@X{..X.X.X.X|.=X=X|..X#X-X=X}.@X#X=X=X@X$X:X@X@X#X#X-X-X#X=X-X&X}.].@X@X#X#X@X].@X",
"#X#X=X-X|.|.-X-X|.].[.@X].{..X{.@X-X#XXX{.[.@X@XXX.X.X.X{.&X#X@X.X{.#X-X@X[.+X=X=X#X@X-X=X|.@X#X=X=X-X=X=X#X|.{.].[.@X#X#X.X}.-X",
"@X#X=X@X.X&X-X#X}.].].].{.XX|.$X-X=X@X.X{.[.].+X.X.X.X.X@X@X@X{.XX@X#X#X}.@X-X=X#X#X#X=X$X[.+X#X=X=X-X#X#X#X{..X{.].@X-X|..X&X:X",
"@X@X#X}..X#X=X%X{.{.{.]..X$X|.=X-X@X{..X}.].].]..X.X|.[.].@X+X}.|.@X#X@X@X=X=X#X+X#X=X=XXX[.#X=X#X-X#X@X#X@XXX.X.X.X=X=X.X|.-X-X",
"].[.@X.X}.=X=X|..X.X.X{.%X&X$X:X#X].{.1X].}.}.{..X%X$X.X{.].@X&X.X@X@X@X#X=X#X@X@X#X-X@X|.#X=X#X-X=X@X@X@X[..X.X.X&X:X|..X#X-X&X",
"{.{.{..X@X-X#X|..X.X|.#X-X$X#X-X1X{.@X%X.XOXXX{.#X#X.X.X.X|.=XoX{.].@X@X@X=X@X].@X-X#X#X=X-X[.@X-X=X[.[.@X}..X.X}.:X-X.X|.=X=X$X",
".X.X.X|.-X=X@X{..X$X:X-X#X@X=X#XXX#X=X.X.XXX$X#X-X1X.X.X{.=X#X.X.X].].@X#X#XoX{.#X-X@X-X-X$X{.#X-X$X].].[.}..X.X#X=X@X.X@X#X#XXX",
".X.X.X#X-X@X@X{.@X:X:X:X$X#X#X#X&X-X1X.X|.$X&X-X&X.XXX$X#X-XXX.X.X{.{.@X-X$X.X$X-X#X#X#X#X.X$X=X-X|.].].].{..X|.=X=X$X.X#X#X@X.X",
".X.X$X:X#X].].@X#X-X:X=X$X#X#X#X=X#X.X$X=X&X=X=X|.1X#X&X-X=X.X.X.X.X1X=X=X.X{.:X-X@X#X@X@X.X@X-X#XXX{.}.}.{..X@X=X#XXX{.@X@X@X.X",
".X.X=X-X[.].@X#X#X-X;X#X[.@X#X=X-X$X$X:X$X&X#X#X#X-X#X=X-X$X.X.XoX1X%X:X$X.X&X-X#X].].].{.{.#X-X&X.X.X.X{.XX}.#X#X@X.X].@X@X}..X",
".X#X-X#X}.].@X@X#X-X:X@X+X#X=X=X#X@X-X=X|._.(./././.^._.&X|..X3X5X$X;X=X|.{.=X-X$X.X.X{..X|.-X=X|..X.X{.#X|.}.@X#X[.{.].].].{..X",
"%X#X=X&X.X{.].].;X=X=X&X#X=X-X#X#X#X-X$X@X(./ e e t e ! /.oX5X7X1X@X:X#X.X$X#X#X|..X.X.XXX=X=X+X}..X$X-X$X.X[.@X@X|..X{.].].{.}.",
"[.#X#X@X.X.X.X%X:X#X=X-X-X-X#X#X#X=X#X{.X.) w . . . . w { ^.`.).`.=X=X$X.X@X#X@X.X.X.X.X&X-X#X+X}.@X-X&X.X.X].].+X}..X.X{.{.#X=X",
"@X#X#X{..X.X1X<X#X=X-X=X=X#X@X+X#X-X@X../ r : : @ > : # w e e ~ ^.#X#X|.{.@X@X@X.X.X.X|.:X-X].].@X#X=XoX.X.X].].].{..X.X{.#X-XoX",
"@X@X@X{..X1X6X;X#X=X=X#X#X#X].@X-X+X^.{ e o > 5 , , , > O X X r ] (.].{.}.+X+X[..X.X.X#X-X#X].].@X#X@X.X.X.X{.].].{..X.X&X=X1X.X",
"[.[.@X{..X<X<X@X#X#X#X#X#X}.].=X=X/./ w : > 5 8 8 8 , < 4 4 5 < w ! ^..X].[.].]..X.X|.=X=X$X}.].@X@X.X.X.X.X@X}.{.{..X@X#X+X{..X",
"[.].[..X3X6X>X[.@X@X@X=X$X.X$X-X#X^.e . : 5 8 8 8 6 6 6 8 s 8 5 O w ) [  .} }  . ...^._.+XXX.X].].[.{..X$X#XXX.X.X.X].[.@X[..X.X",
"].].{.oX<X6X|.{.].@X=X=XXX{.-X-X+X| e . # , 8 8 6 6 8 8 8 8 8 6 > # w w q e e e e w e ! /.{..X.X{.{..X$X;X$X.X.X.X.X{.].[.{..X.X",
"{.{.{.3X<X4X.X.X{.@X:X$X.X&X:X#X[.| e . > 5 8 8 6 6 6 8 6 8 8 8 5 > o .     % = = = ; a ` O.'..X.X.X@X:X%X.X.X.X.X.X.X{.}..X.X.X",
".X.XXX4X,X2X.X.XXX-X-X.X|.=X-X$X].} e . @ 5 6 8 8 6 6 5 5 6 8 8 8 5 > O   % l v 4.4.s.5.a ^ O..X.X@X#X#XXX.X.X.X.X.X.X.X.XoXXX.X",
".X.XoX4X4X1X.X.X$X-X$X.X@X=X#X{..XO.t u : > 5 8 8 8 0 0 5 5 0 8 8 8 6 > X = $.b.z.v.M.x.c a ` O. X@X#X&X.X.X.X.X.X{..X.X2X2X.X.X",
".X.X2X3X3XXX.XXX=X-X$XXX#X#X@X.X.X'.O.) w o > 5 , 8 g g 0 5 0 8 8 8 8 > X = $.z.N.M.v.x.x.5.a ^ ^.].@X{..X.X.XXX$X.X.X4X4X.X.X.X",
".X.X1X3X1X.X.X@X=X#XXX}.@X#X@X.X.X.X|._./ w : > 9 N J J g 0 6 9 M M s 4 . = $.z.N.M.v.x.x.p.a ^ o.].[..X.X.XXX#X1X.X>X6X.X.X.X.X",
".XXX1X1X1X.XXX@X#X@X.X[.@X@X|..X.X.X#X=X/.) w : V T R Q J g 0 b S C 9 > . = $.c.z.v.M.x.c a { o.'.{.`..X.X.X%X#X.X*X7X2X.X.X.X.X",
".X1XoX1XXX.X[.#X#X@X.X].].+X{..X.XoX=X=X[.} e : S V.V.R Q J 0 b F F b : . % l $.$.4.s.p.a ( O..X.X.X.X{.}.$X-XoX1X6X,XXX.X.X.X.X",
"$XXXXXoXXX$X@X@X@X}.{.].].]..X.X|.#X=X#X.X .e : S V.V.V.R Y 9 b F F b : .   % = = = ; a  .).'..X.X.X.X%X$X-X=XXX>X6X*X.X.X.X.X.X",
"XX.X.X.X%X$X[.@X@X}..X{.].].}.@X$X#X=X}.O._ r , D V.V.V.F S 9 9 S C 2 : .   O : 3 2 3 p } o.'..X.X.X#X&X#X-X1X2X,X:X1X.X.X.X.X*X",
".X.X.X$X#XXX[.].].}..X.XXX%X=X$X$X#X#X^.~ r < s F V.V.T V 9 , 1 9 9 1 @ . O m H Z.S.S.A.p ^ O..X.X#X;X$X=X#X|.%X8X>X.X.X.X1X=X%X",
".X.X|.:X|..X].].].{.oX1X#X:X&X.X%X=X#X .r X < M S T G Y 9 5 , , , 1 m Z 2 Z B.T.Y.Q.!.S.2 w [ .X1X-X&X&X=X@X$X:X<X$XXX|.$X=X=X.X",
"$X@X:X;X.X.X.XXX{.1X,X#X#X#XXXoX;X@X@X .w X 4 s M N N s 9 8 8 8 5 m Z.F.D.F.W.W.T.P.Q.D.2 w  ..X=X=X$X#X#X@X;X:X*X1X$X$X#X-X$X.X",
"&X#X:X$X.X.X.X.X$X6X*X@X@X@XXX5X#X[.[.[ w X < 0 8 s 8 8 s 6 8 s m G L.U.U.U.U.P.H.H.Q.S.2 w  .%X:X=X@X#X@X=X:X#X1X%X#X@X=X=XoX%X",
"#X:X;X}..X.X.X1X6X,X].[.@X{.4X<X].].].o.t X 4 s 8 8 s 8 s 8 6 m Z.L.+.E E E E W C.G.Q.S.2 w  .-X:X$X[.+X#X=X;X%X;X:X$X#X#X#X=X-X",
"#X=X#X.X.X.XoX<X6X1X{.$X}.%X7X2X{.{.$X`.t . 4 6 6 6 s 6 0 9 m G P.J.a.-.i.;.z J T G.Q.S.2 w | -X=X|.].@X-X=X@X&X:X&X[.#X#X=X-X=X",
"#X=X@X.X.X.X3X<X5X.X1X|.1X7X6XoX.X{.,X`.e . > 5 6 5 5 5 5 m Z.L.+.:.b.0.e.7.h 5 Y G.Q.S.2 w X.#X#X}.@X=X=X#X#X=X-X{.@X#X=X=X-X=X",
"#X#X|..X.XoX5X,X2X2X3X.X5X7X4X.X.X2X,X{.^ r # 5 N B B B B G L.J.E %.0.t.0X9.y : S G.Q.S.2 w X.#X@X@X-X=X@X@X#X=X&X{.].#X=X#X-X#X",
"@X@XXX.X.X2X4X3X3X<XXXoX7X7X1X.XXX3X4X$XO._ r 3 A.I.I.I.I.L.+.Q :.i.e.0Xt.6.* : S G.Q.S.2 q | @X#X#X=X#X+X@X-X=X$X|.=X#X#X-X=X@X",
"@X@X.X.X.X3X3X4X6X2X.X4X6X,X.X.XoX3X3X1X.X[ w 5 K.E.R.R.R.~.f.-.=.i.e.0Xt.6.* : S G.Q.D.2 w | @X#X#X#X+X[.@X:X#X@X-X=X[.#X:X&X[.",
"@X[..X.XXX1X3X6X6XXXoX5X,X4X.X.X1X2X2XoX.X .e # L g.l.wXn.n.m.8.;.%.0.t.0X9.y : S G.Q.S.2 w } +X@X=X&X{.[.:X#X#X=X-X|.|.-X-X|.[.",
"[.]..X.XXX1X4X7X4X.X1X4X5X2X.X1X2X1X1XXX{.^.e & f -.y.t.t.t.m.j.p.5.r.t.0X9.* : S G.Q.S.2 w  .].@X-X{..X#X-X@X#X=X@X.X@X:X#X}.].",
"].]..X.X.X1X6X6X1X.X1X4X4X1X4X3XXXXX1X$X&X/.w + f -.0.t.0XqXf.f.h.u.9X0Xt.6.* : S G.Q.S.2 w [ }.=X#X.X1X:X=X@X#X#X{.XX=X=X$X{.].",
"{.{.XX.X.X3X6X5XXXXX3X2X4X6X4X.X.XoX#X$X-X^.w % x &.q.r.y.j.+.+.k.qX9X9Xr.$.= : S G.Q.S.2 w [ #X:X|..X=X-X@X[.@X+X.X}.=X=X$X.X{.",
"|.$XXX.XXX4X,X3X.X2X3X3X6X,XoX.X.X=X$X&X-X..w & #.*.2.q.z.z.W C.+.l.qXu.5.l & : S G.Q.D.2 w ..:X#X.X$X=X=X|.{.].]..X#X-X#X{..X.X",
"=XoX.X.X1X4X4X1X2X5X1X4X<X1X.X.X#X=X$X=X=X .e = #.1.2.2.*.2.<.W R @.h.8.v f 4 1 F H.Y.G.3 e /.-X$X.X@X=X#X.X.X.X.X{.-X#X@X.X.X|.",
"|..X.X.X2X3X4X3X6X1X2X4X4XXX.X$X:X%X@X=X@X| e & x =.=.>.2.2.3.,.:.U ;.v - 4 n T V.V.B.H : e ^.=X|.{.#X#X$X.X.X.X.X#X:X@X@XXX$X-X",
".X.X.X.X2X2X4X7X,XoX1X2X1X.XXX=X-X$X@X#X#X(./ r j f f x >.1.3.=.x z P z - 4 V S S S S B i / _.#X.X}.#X#X|..X.X.X$X:X#X[.[.@X-X#X",
".X.X.X.X1X2X<X7X2XXXoX1XoXoX>X-X=X|.#X@X=X&X(.) u + & - #.:.E Q 7 7 z P z d 4 : : : # u ] /.+X$X.X[.@X@XXX.X.X.X=X:X@X].@X#X#X$X",
".XOX.X1X$X2X7X6XoX.X.X1X4X%X=X-X@X@X+X#X-X=X@X_.! $ X X d g L n O & f x z d u w e e e p X.@X#X[..X[.].@X{..X.X%X-X=X}.].@X@X@X.X",
".X1X$X1XoX5X6X4X.X.X1X6X2X$X=X=X[.].@X-X#X#X#X#X/.) q   . O @ O   + f z 7 u ] X.^.X.[ O.[.#X@X{.{.].#X@X.XXX@X#X=X@X.X{.[.[.[..X",
"#X=X|.{.1X<X,X2X.X2X6X4XXX+X#X#X}.@X-X=X@X#X=X=X|.^.! q     . X . + d d u ( o.@X@X[.oX>X#X@X[.{..X*X*X{.%X%X@X#X#X|..XXX$X].{..X",
"=X1X1XXX2X5X5XoX1X5X,XXXXX#X#X#X@X-X-X@X@X#X=X#X{.].(.' q X # < , 4 + u [ `. X[.@X>X6X$X].].].{.3X,X|.#X=X{.@X#X#XoX3X3X.X.X.X#X",
"&X$X$XXX2X4X4XoX4X4X2X.X].@X@X@X#X=X#X[.@X=X=X@X}.=X=X^.t X 4 8 0 4 X e ).1X{.[.;X7X3X.X].].].1X6X*X#X:X$X.X@X@X;X<X4XXX.X.X%X#X",
"&X=XXXXX2X4X2X1X2X2XXX.X}.].@X#X#X#X[.].#X-X@X@X-X=X].=X-X#X].@X@X|.2X4X3XoX.X*X6X4X.X.X{.}.{.6X6X#X#X@X.X{.@X#X7X8XXX.X.X[.#X#X",
":X$X.XoX2X3X1XXX1X1X.XXX}.].].@X#X&X.X$X:X#X#X:X-X|.}.=X-X[.].[.@X{.3X3X1XXX1X4X4X1X.X.X.X.X4X7X;X@X@X}..X}.#X8X8X1X.X.X.X[.#X#X",
"=XXX.XoX$X3XoX.X.XXX$XXX.X{.].#X-X|..X#X:X@X#X=X$X.X@X=X#X}.].].].XX1X1X1X.X1X3X2X.X.X.X{.oX6X7X%X[.@X.X.X|.;X:X>X.X.X.X{.#X@X=X",
"$X.X.X%X$X1XXX.XXX%X$X.X.X.X}.-X&X.X$X-X=X@X@X@X{.XX#X-X&X.X{.].}..XoXoXoXXXoXoX1X.X.X$X1X%X6X5X}.].]..X.X1X*X>X$X.X.X.X$X#X@X:X",
"XX.X*X$XoXXXXX}.#X#XXX.X.X{.-X-X|..X=X-X@X].[.@X.X$X=X;X$X.X.X.X{.|.|.XXXX.X.X.X.X.X|.%XXX,X<X3X.X.X.X.X.XoX1X1XXX.X.XoX:X@X#X-X",
".X#X=X.X.XoX$X#X-XoX.X.XXX=X-X=X.X$X=X=X{.{.}.}..X&X-X#X|..X.XoX$XXX.X.X.X.X.X.X{.|.=X|.1X4X4X1X.X.X.X.X.X.XXXXX.X.XoX=X=X$X=X#X",
"#X:X1X.X$X&X&X:X%X.XXX$X=X-X-X1X.X@X#X#X.X.X.X.X}.-X=X@X.XXX$X=XoX.X.X.X.X.X.X1X|.=X%X.X3X4X4XoX.X.X.X.X{.{..X.X.XXX=X-X$X&X#X#X",
"-X#X.X$X#X$X=X=X}.$X=X&X-X-X=X{.{.#X#X@X.X.X.X.X#X:X@X[.XX&X-X$X.X.X.X.X.X.X$X$X%X-X|.XX3X3X*X.X.X.X.X}.1X.X.X.XXX&X-X-X@X@X#X#X",
"-X$X$X-X&X#X#X#X#X-X&X=X-X=X#X.X].#X@X}..X.X.X$X:X#X@X].@X-X#X.X.X.X.X.X.XoX=X$X=X=X.XXX%X*X1X.X.X.X|.%X.X.X.XXX%X=X;X=X[.@X#X;X"
};
