/* XPM */
static char *theoLR51704828129[] = {
/* columns rows colors chars-per-pixel */
"64 64 212 2 ",
"   c #020102",
".  c #0B0604",
"X  c #0D070B",
"o  c #080A04",
"O  c #130907",
"+  c #190A07",
"@  c #120A0F",
"#  c #1C0D0B",
"$  c #1E1509",
"%  c #141E02",
"&  c #0C0F12",
"*  c #100D15",
"=  c #0C191B",
"-  c #10131A",
";  c #1E111B",
":  c #17191A",
">  c #210E09",
",  c #24120D",
"<  c #2B150E",
"1  c #28180A",
"2  c #30160F",
"3  c #381C09",
"4  c #331A0A",
"5  c #261610",
"6  c #2C1610",
"7  c #2E1912",
"8  c #2C1A1A",
"9  c #321C15",
"0  c #3C1C13",
"q  c #321A18",
"w  c #1B2504",
"e  c #1B2B01",
"r  c #152202",
"t  c #1F3203",
"y  c #0D211D",
"u  c #1F2D12",
"i  c #20250E",
"p  c #272A0A",
"a  c #39320A",
"s  c #222918",
"d  c #26331C",
"f  c #283819",
"g  c #34311C",
"h  c #362612",
"j  c #191623",
"k  c #1C1C33",
"l  c #291824",
"z  c #341E2D",
"x  c #351D25",
"c  c #183D31",
"v  c #1A2928",
"b  c #2E2123",
"n  c gray15",
"m  c #39202B",
"M  c #392131",
"N  c #34253A",
"B  c #2B3438",
"V  c #252D35",
"C  c #461E13",
"Z  c #4C2512",
"A  c #422218",
"S  c #492519",
"D  c #562B14",
"F  c #5E281A",
"G  c #522613",
"H  c #64291B",
"J  c #6C2D1E",
"K  c #702E1E",
"L  c #70381A",
"P  c #75321C",
"I  c #47242C",
"U  c #582924",
"Y  c #412538",
"T  c #45293C",
"R  c #4C2D3E",
"E  c #583230",
"W  c #662D28",
"Q  c #743120",
"!  c #793429",
"~  c #6B3A36",
"^  c #622F31",
"/  c #2D4505",
"(  c #2F4A02",
")  c #2C4109",
"_  c #2F4808",
"`  c #3B560C",
"'  c #3B5A05",
"]  c #3E5B11",
"[  c #304A07",
"{  c #3F6304",
"}  c #1F533E",
"|  c #43590B",
" . c #7D4015",
".. c #4B6F0F",
"X. c #436804",
"o. c #4D7503",
"O. c #4F7B03",
"+. c #4C710C",
"@. c #517D03",
"#. c #527B0E",
"$. c #54760D",
"%. c #517710",
"&. c #517810",
"*. c #594131",
"=. c #7B4431",
"-. c #1F384D",
";. c #352D4E",
":. c #313C47",
">. c #333241",
",. c #2F2F57",
"<. c #2B3E55",
"1. c #33335E",
"2. c #3D3258",
"3. c #2D2B47",
"4. c #3B3B6D",
"5. c #3F3F73",
"6. c #442B43",
"7. c #432E4A",
"8. c #413249",
"9. c #413A49",
"0. c #423458",
"q. c #403B69",
"w. c #403966",
"e. c #38434F",
"r. c #2A5940",
"t. c #3D4A57",
"y. c #27565B",
"u. c #385E45",
"i. c #2B6D5C",
"p. c #286556",
"a. c #3D6558",
"s. c #3B4967",
"d. c #355B6B",
"f. c #3C4A76",
"g. c #3A5673",
"h. c #2E5560",
"j. c #3A6E65",
"k. c #346576",
"l. c #387473",
"z. c #33737A",
"x. c #357A72",
"c. c #397C66",
"v. c #41404A",
"b. c #414D4D",
"n. c #5E4045",
"m. c #5F4A41",
"M. c #46525E",
"N. c #414253",
"B. c #645C46",
"V. c #4B6C56",
"C. c #424864",
"Z. c #495767",
"A. c #4D5967",
"S. c #485665",
"D. c #505F6E",
"F. c #546C73",
"G. c #843B1E",
"H. c #863724",
"J. c #8A3D25",
"K. c #854719",
"L. c #964A1C",
"P. c #A7551C",
"I. c #B0581F",
"U. c #9B4424",
"Y. c #9A5634",
"T. c #8A4721",
"R. c #A05226",
"E. c #AC5720",
"W. c #B25A20",
"Q. c #B85F2B",
"!. c #B65A27",
"~. c #C15F23",
"^. c #C96225",
"/. c #528501",
"(. c #548902",
"). c #588D02",
"_. c #58880C",
"`. c #5A9301",
"'. c #5D920C",
"]. c #5F8C12",
"[. c #679C03",
"{. c #689F02",
"}. c #65960D",
"|. c #669B0C",
" X c #689F0B",
".X c #609203",
"XX c #649513",
"oX c #669912",
"OX c #689D12",
"+X c #69A402",
"@X c #6BAB02",
"#X c #69A30A",
"$X c #6DAA0B",
"%X c #66A405",
"&X c #70AF0D",
"*X c #6EB301",
"=X c #6FB800",
"-X c #72B404",
";X c #71BA01",
":X c #72B40D",
">X c #76BB0E",
",X c #78BE0E",
"<X c #6BA412",
"1X c #6EAA11",
"2X c #70AE11",
"3X c #73B410",
"4X c #75B810",
"5X c #7AC40D",
"6X c #7DCA0C",
"7X c #79C306",
"8X c #37836F",
"9X c #348075",
/* pixels */
"@X@X=X%X[.@X@X*X=X=X*X*X*X@X%XXX[.{.{.}.XXXX X*X=X{.|.+X+X@X}.XXXXXXXXoX%X=X#X@X*X#X|.*X$XOX<XoX X=X@XXXXXXX X=X$X@X=X#X[.+X=X@X",
"@X@X*X#X+X+X*X*X*X*X@X@X@X@X|.}.[.[.[.}.XX|.@X=X@X}.}.{.{.{.XXXXXX#X#X X=X*X$X@X@X#X@X=XOXOX#X+X*X=XoXXXXX$X=X@X+X@X@X[.+X=X*X@X",
"@X*X@X}.{.@X*X*X=X+X@X*X@X+X|.XX}.[.[.#X%X#X@X-X#XXX}.[.[.[.XXoX$X$XXX@X;X+X+X@X@X@X=X|.XX$X$X%X;X%XXX#X$X@X;X+X+X@X+X%X*X*X+X+X",
"*X*X#X X*X@X@X=X*X+X+X@X+X{.}.XXXXXX$X;X#X+X@X@X|.XXXXXXXXXX X=X@XoX#X=X=X%X+X+X@X=X@X}.@X*X#X@X*X+X$X*X+X;X*X|.+X+X@X@X*X@X+X+X",
"=X+X+X;X@X{.@X;X%X{.+X+X{.[.}.XXXX$X=X%XXX+X+X+X|.XXXXXXXX X*X@X|.XX@X=X*X[.+X+X*X*X%X$X=X+X+X@X@X;X=X@X*X=X+X|.[.+X@X@X@X+X[.+X",
"@X@X=X=X X X*X=X+X[.{.+X[.}.XX}.+X=X@X|.}.+X+X+XXXXXXXXX|.+X@X+XXX X@X=X$X[.+X*X*X@X+X=X*X|.@X@X*X*X;X*X@X@X X}.[.[.+X@X@XXX|.*X",
"+X@X*X+XXX%X;X-X|.[.[.[.XXXX|.+X=X@X%XXX}.{.{.{.XXXXXXoX%X+X+X|.XX%X@X@X|.+X=X*X@X@X@X=X$X[.+X@X*X*X=X@X@X@X|.XX}..X+X*X XXX@X=X",
"+X+X+X|.XX@X*X%XXX}.|.[.XX#X#X*X=X+X}.XX|.{.[.[.XXXX X[.[.{.+X|.|.+X+X@X+X*X*X@X+X@X*X@X|.[.@X*X@X=X@X+X@X@XXXXXXX|.*X*XXX#X=X=X",
"[.[.{.oX|.@X*X#XXXXXXX}.$X%X$X=X@X{.XX#X X.X@.+...(.|.XX.X[.+X$X|.{.+X+X@X@X*X+X+X@X=X+X X@X*X+X*X=X+X+X+X+XXXXXXX$X=X#XXX%X=X@X",
"}.[.|.XX@X=X@X|.XXXX|.@X=X#X@X*X#X|.%X$XXX%./ w e ( &.XXXX|.*X X}.{.{.@X@X@X+X[.+X=X@X+X*X=X[.@X;X*X[.{.+X|.XXXX X=X*XoX X*X*X#X",
"XXXXXXoX=X@X+X}.XX#X;X;X@X+X*X@X}.%X;X].%.` w . . w ` %.'.*X$XXX}.}.{.+X@X@X}.|.*X=X@X*X=X#X}.@X=X$X[.[.{.|.XXXX@X=X%XXX+X@X@XoX",
"XXXXXX*X=X+X{.|.@X;X;X;X$X@X@X@X$X;X X&.) w > , > $ w ) ).;X XXXXX}.}.{.=X#XXX$X=X@X@X@X@XXX#X*X*X|.[.[.[.}.XX|.@X*X#XXX@X@X+XXX",
"XXXX#X;X@X{.{.+X@X=X;X;X|.@X@X@X=X%X%.' w O > < 6 5 O w X./.+.....%.XX*X*X|.oX=X=X+X+X+X%XXX@X*X@XXX}.|.|.}.XX%X*X@X}.|.+X+X+XXX",
"XXXX*X=X+X[.{.@X@X=X;X%X{.+X@X*X=X/./ w , , 7 9 9 6 > $ w e w w w _ ).;X$XXX+X=X%X[.[.{.}.|.@X=X@XXXXXXX}.oX|.@X@X+XXX[.+X+X|.XX",
"XX@X=X@X|.[.{.+X@X;X=X+X+X@X*X*X@XO.e . > 6 9 9 9 9 6 > O X . . . w X.`.].|.*X=X$XXX}.}.XX X=X@X[.XXXX|.+X#X|.+X@X{.XX[.[.{.}.XX",
"$X@X*X%XXX}.[.[.-X*X@X@X@X*X=X@X@X/.e . > 6 9 9 6 6 6 5 5 5 5 5 , $ w ( +.#X@X@X|.XXXXXXXX*X=X+X XXX#X*X$XXX{.+X+X|.XX}.[.[.}.|.",
"{.@X@X+XXXXXXX$X;X@X*X=X=X=X@X@X@X/.e . # < 9 9 2 < 6 6 9 9 9 9 < , O w +.[.(.@.+.....&.[.;X@X{.|.+X;X%XXXXX[.{.+X|.XXXXXX|.%X*X",
"+X@X+X|.XXXX1X,X@X*X=X*X*X@X+X+X*X/.e . , < 9 9 9 q 9 9 9 9 h 6 5 , , a $./.( e w w w ) `.;X{.{.%X@X*XOXXXXX[.[.[.}.XXXX|.@X=XOX",
"+X+X+X}.XX<X5X-X@X*X*X@X@X@X[.+X=X(.( e $ , 6 7 q 2 q q 9 9 9 9 9 < 1 a | ' i = = - : f X.)..X{.@X@X+XXXXXXX}.[.[.}.XX|.@X*X#XXX",
"{.{.+X}.XX,X,X+X@X@X@X@X@X|.[.*X*X[.).{ w O , 6 6 < < 6 6 9 9 9 9 6 2 1 w s B :.:.e.S.b.f / @.{.+X+XXXXXXXXX#X X}.}.XX[.@X+XXXXX",
"[.{.{.XX2X6X2X{.+X+X+X*X#XXX+X;X@X@X=X).) w $ > 6 q q q 6 < 9 9 h 9 7 , . - :.S.Z.D.F.D.B d ] @..X[.XXXX X%XoXXXXXXX[.{.+X{.XXXX",
"[.[.}.OX,X,X X|.[.+X@X=XXXoX=X*X+X@X@X.X#.X.w # x Y M z q < 9 9 9 9 7 5 . - :.A.F.F.D.A.A.b.d f $.}.}.$X*X$XXXXXXXXX}.[.{.}.XXXX",
"}.}.}.2X>X3XXXXX}.+X=X$XXX%X;X@X{.+X+XXX|./.e @ z E E I x q q 9 A A 9 5 X * 2.A.F.F.D.A.A.t.d ) %.}.+X;X+XXXXXXXXXXXXX}.|.XXXXXX",
"XXXXoX3X>X1XXXXX|.=X*XXX X=X*X X}.[.[.XX+X(.e > U ! ! ! I x q 0 H H 0 , . - :.C.A.D.F.A.B d ] &.].%X@X@XoXXXXXXXXXXXXXXXXXOXoXXX",
"XXXXOX3X3XOXXXXX$X=X%XXX+X*X@X|.XX}.XX}.*X/.e > H H.H.! ^ I q C Q J 0 > . & V :.:.e.M.b.d ) &.XX[.+X@X%XXXXXXXXXXX}.XXXX1X<XoXXX",
"XXXX1X2X2XXXXXoX*X*X#XoX@X@X@XXXXXXXXX#X=X/.e # H H.H.H.! W 0 C K J C > .   & = - * : f | $.].#X[.{.+X|.XXXXXXXX$XXXXX3X3XXXXXXX",
"XXXX<X2X1XXXXX+X*X@XXX|.@X+X XXXXXXX|.@X`.' w 6 J H.H.H.Q H 0 0 F F 0 > . . + > > < 4 a | #.|. X}.[.[.XXXXXXoX@X|.XX3X5XoXXXXXXX",
"XXOX<X<X<XXXXX@X@X@XXX{.+X+X|.XXXXXX@X`.( w 1 0 K H.H.K G 0 2 2 0 0 < > . + C H H P L.K.a [ (.XXXX}.|.XXXXXX$X@XXX2X6X1XXXXXXXXX",
"XXOXOX<XoXXX[.@X@X+XXX[.{.{.|.XXXXoX=X/.w . 5 A H P Q H 0 6 5 6 < < < < 4 G G.J.J.U.^.P.3 e ..XXXXXXXXXX|.$X=X X<X5X>XoXXXXXXXXX",
"$XoXXXoXoX#X+X+X+X|.}.[.[.[.}.oX X*X=X/.w . 8 0 A S S S h 9 9 9 6 < < Z K.I.~.~.U.U.^.I.3 e ..XXXXXXoX%X#X;X@XoX3X,X:XXXXXXXXXXX",
"XXXXXXXX$X#X[.+X+X|.XX}.[.|. X%X%X*X@XO.w . 5 9 9 9 9 b 9 9 9 7 < 9 Z L R.!.I.U.T.U.^.P.3 w ..XXXXoX*X$X%X;X#X1X>X,X<XXXXXXXoX$X",
"XXXXXX$X@X|.{.{.{.}.XXXXoX+X=X X|.@X@Xo.w o 5 9 9 9 9 9 9 9 7 6 < G K.R.=.W Z G P U.^.P.3 w ..XXXX%X*X X*X@X X$X,X=XXXXXXXoX=X$X",
"XXXX X;X XXX[.[.[.oXoX1X%X=X%XXX@X@X@X+.w . 5 9 9 7 9 9 9 0 G D D L R.Y.9.N n s G G.^.P.3 w ..XX#X=X$X%X*X@X#X;X,X$XXX|.|.=X*XXX",
"#X+X-X-XoXXX}.XX}. X4X@X@X*XoXoX-X+X+X+.w . , 6 6 6 2 6 6 Z L.I.I.R.J.n.S.d.i.r.s Z P.P.3 w +.XX*X=X%X@X@X+X-X;X$XOX$X$X@X=X#XXX",
"@X@X;X#XXXXXXXXX<X5X&X+X@X+XoX>X@X{.[.+.w o # 5 Z D D D D L R.Q.Q.Y.n.t.k.z.x.i.} h  . .1 w +.$X;X*X%X+X@X@X;X@X<X$X@X+X*X@X X$X",
"@X=X-XoXXXXXXX<X5X>X[.[.+X|.:X,X[.{.[.#.t   . 3 K.W.W.W.I.R.=.~ ~ n.C.k.x.x.z.z.i.r.g 1 . w +.=X;X+X+X+X@X*X*X#X-X;X#X@X@X@X*X=X",
"*X*X@XXXXXXXOX,X5X#XoX{.[.$X6X<X#.o.o...i X   6 T.Q.Q.Q.Q.Y.m.9.R ;.s.d.p.i.z.z.9Xi.c = o w o.=X*X X{.+X=X*X+X@X;X@X%X@X*X*X*X*X",
"@X@X+XXXXXXX2X,X4XoX<XOX<X5X5X&.) w e p x l X # U ~ ~ ~ ~ m.V.a.v.T 8.>.v c i.x.z.z.i.} = w /.@X@X|.+X*X*X+X@X*X=X|.{.+X*X*X=X*X",
"@X@X XXXXXOX4X>X<X1X2XXX>X5X'.` i @ & ; M z & & N 9.e.v.9.M.c.c.t.8.T m * y p.9Xz.l.V.u.= e O.@X+X+X=X=X+X@X@X*X%X|.{.@X*X@X=X@X",
"@X+XoXXXXX1X3X3X2X>XOXOX5X#X_ i x z z M N z X = e.d.j.j.d.k.9X9Xk.t.;.z * = y.z.9X8XB.E $ e @.+X@X@X@X@X+X+X*X*X#X|.*X@X@X=X*X%X",
"+X+XXXXXoX1X2X4X5X1XXX2X5X'.w & z T T M M l X = y.z.9X9Xz.z.9X9Xz.d.9.M ; j -.h.j.V.T.W > e o.+X@X@X@X+X[.@X;X@X+X-X*X{.@X;X%X+X",
"{.{.XXXXOX<X1X5X5XOXOX4X4X_.w X z T T M ; X   y p.x.z.z.9X9Xz.z.9Xj.v.Y M l j n *.=.T.H > w o.+X+X*X%X}.[.;X@X@X=X=X X X=X=X X{.",
"{.[.].XXoX<X4X6X2XXX<X4X4X_.) u b z z x i r o y p.z.k.k.z.l.g.k.l.j.N.6.T z @ > H H.H.H > w ..{.+X;X|.XX@X;X+X@X@X+XXX+X;X@X|.[.",
"[.[.XXXXXX<X5X5X<XXX<X3X2X<X'.] u X X i { { % = 1.f.f.f.g.g.f.f.f.f.C.0.6.z @ > H H.H.H > r .. X*X@XXX X;X*X+X@X@X|.oX*X*X+X}.[.",
"}.}.oXXXXX2X5X4XoXXX2X1X3X5X3X%.) w e ( `./.e - ,.5.5.5.q.4.,.4.4.q.q.0.6.z @ + C H H D h t %.@X;X XXX*X;X+X[.+X+XXX|.*X*X XXXXX",
"|.$XoXXXoX3X4X2XXX1X2X2X5X>XOX].#./.O.(.%X#.w - ,.5.5.5.q.1.k k 4.q.0.6.6.z @ . + > > p | &.}.=X@XXX#X*X*X X}.[.[.XX@X=X@X|.XXXX",
"*XoXXXXX<X3X4X<X1X3X<X4X>X1XXXXX@X=X$X%X(.` s k 1.5.5.4.4.3.j j ;.0.7.T T z @ o % w w ) &. X@X=X#XXX+X*X%XoXXXXXXX|.=X@X+XXXXX X",
" XXXXXXX<X3X3X1X5X1X1X3X2XXXXX#X=X$X%X).( s V 4.4.5.5.,.k j l M N 6.6.T T z @ w ` ....#.|.+X=X*X|.|.@X@X+XXXXXXXoX%X=X+X{.}.$X=X",
"XXXXXXXX1X1X2X5X>X<X<X1X<XXXXX=X;X X@X/.e - ,.q.q.w.w.;.- X l z z M M T T M * w ` &.|.@XoX@X@X@XXX|.@X+X|.XXXXXX#X;X@X{.{.+X=X@X",
"XXXXXXXX<X1X5X6X1XXXOXOXOX<X&X=X-X{.+X@.w - 1.q.0.7.7.N &   X X @ ; M T T M 9 5 w ( `.oX|.@X@X+XXX{.+X+X|.XXXXoX*X;X+X[.+X@X@X#X",
"XXXXXX<X#X1X5X5XOXXXXX<X3X$X*X=X$X.X(.X.p l ;.0.N m z l p t e e e i x z m x 8 $ . e @.XX X@X@X[.XX[.+X+X}.XXXX$X-X*X|.[.+X+X+XXX",
"XX#X%X<X<X>X5X3XXXXX1X5X1X#X*X*X{.@.( p D U R M j X @ p X.(.(./.(.X.i @ & X . .   e ..oX+X@X+X|.}.[.@X+XXXXX+X*X*X+XXX}.{.{.{.XX",
"$X*XoX X<X4X>X1XXX1X5X3XoX+X@X@X|.O.e + C F I s i e e ( `.;X*X@X=X(./ e t p e e e / #.:X@X{.+X}.XX&X&X}.$X$X#X@X@X XXXoX#X[.}.XX",
"*X X#XOX1X4X4XOX<X>X,XOXoX@X@X@X+X/.e o + > @ i ` @./.`.@X;X@X@X@X[._._._._.o.o.@.'.:X#X[.{.[.}.2X>X X@X*X}.+X+X@X X2X2XXXXXXX@X",
"%X%X#XXX1X4X2X<X1X3X1XXX|.+X+X+X@X/.e         w o.=X@X@X=X=X%X@X@X{.<X3X4X<XoX[.-X6X2XoX[.[.[.<X5X&X@X;X#XXX+X+X-X,X3XoXXXXX$X@X",
"$X*XXXOX2X2X1X<X1X1XoXXX.X{.+X@X@X*X[.[.@X=X@X+X=X@X+X@X=X@X[.+X+X|.1X2X&XoXXX&X5X:XoXXX}.}.|.5X5X@X@X+XXX}.+X*X6X,XXXXXXX+X@X@X",
";X#XXXOX<X1X<XOX<X<XXXoX|.[.+X+X@X%XXX X;X@X@X;X=X X|.*X=X[.[.{.{.|.<X1X1XoX<X3X3X<XXXXXXXXX3X6X-X+X+X|.XX[.@X7X7X1XXXXXXX{.@X@X",
"*XXXXX<X$X1XOXXXoXoX#XoXXX}.[.+X=X|.oX*X;X+X@X*X$XXX+X*X@X|.[.[.[.oX<X<X<XoX<X1X1XoXXXXX|.OX5X5X$X{.{.XXXX|.-X,X:XXXXXXX}.@X+X*X",
"$XXXXX#X$XOXOXXXoX@X#XXXXXXX|.=X%XoX#X=X@X+X+X+X|.XX@X=X%XoX}.|.}.oX XOXOXoXOX<XOXXXXX X X3X5X>X|.[.[.XXXX<X$X:X#XXXXXXX$X@X+X;X",
"}.XX$X#XOXOXoX|.@X$XXXXXXXoX=X=X XXX*X=X+X{.+X{.}.|.*X*X#XXXXXXX}.|. XoXoXXXXXXXXXXX#X$XOX3X>X2XXXXXXXXXXXOX<X1XXXXXXX X=X+X@X=X",
"XX@X*XoXXXoX#X@X=XoXXXXX|.*X=X@XXX#X*X*X|.}.}.}.XX%X=X@X XXXXX X%XoXXXXXXXXXXXXX|. X*X|.<X3X3X<XXXXXXXXXXXXXoXOXXXXXoX*X@X#X*X@X",
"@X;XoXXX#X+X@X=X%XXXoX$X*X=X=X#XXX+X@X@XXXXXXXXX X=X@X+XoXXX$X@XoXXXXXXXXXXXXXOX X*X$XXX1X3X3XOXXXXXXXXXXXoXXXXXXXoX$X=X$X+X@X@X",
"=X%XoX$X*X#X*X*X#X#X*X%X=X=X*XoX|.@X@X+XXXXXXXXX@X=X+X+X|.%X=X#XXXXXXXXXXXXX<X%X#X;X XXX1X2X&XOXXXXXXX|.#XXXXXXXoX@X;X=X+X+X@X@X",
"=X#X#X=X$X%X@X@X@X=X%X*X=X*X@XoX[.+X+X|.XXXXXX$X=X*X{.{.$X=X@XXXXXXXXXXXXX#X&X#X;X*XXXoX$X:X<XXXXXXX#X#XXXXXXXoX%X=X=X*X{.+X@X*X"
};
