/* XPM */
static char *theoLR21704828129[] = {
/* columns rows colors chars-per-pixel */
"64 64 217 2 ",
"   c #040304",
".  c #0A0504",
"X  c #070A00",
"o  c #190A07",
"O  c #130B0E",
"+  c #1C0D0B",
"@  c #130907",
"#  c #1F1608",
"$  c #131D02",
"%  c #0C0F12",
"&  c #110C12",
"*  c #110E19",
"=  c #1A0F16",
"-  c #0C191E",
";  c #111419",
":  c #1E131C",
">  c #171B1F",
",  c #210F0A",
"<  c #24120D",
"1  c #2B150E",
"2  c #271A0C",
"3  c #30160F",
"4  c #381C09",
"5  c #33190A",
"6  c #261610",
"7  c #2C1611",
"8  c #2D1812",
"9  c #321C15",
"0  c #3C1C13",
"q  c #321A18",
"w  c #1A2504",
"e  c #1B2A01",
"r  c #142200",
"t  c #1F3203",
"y  c #0D221D",
"u  c #21260C",
"i  c #22290B",
"p  c #2C270B",
"a  c #3E3509",
"s  c #26331C",
"d  c #382017",
"f  c #1B1625",
"g  c #1C1C33",
"h  c #2B1926",
"j  c #341E2D",
"k  c #371D25",
"l  c #2E2122",
"z  c #3B212C",
"x  c #252D35",
"c  c #342337",
"v  c #3A2131",
"b  c #37263D",
"n  c #332A3D",
"m  c #2B3239",
"M  c #451E13",
"N  c #4D2613",
"B  c #422218",
"V  c #482419",
"C  c #562A14",
"Z  c #5E281A",
"A  c #522514",
"S  c #40200C",
"D  c #64291B",
"F  c #6B2D1E",
"G  c #702E1E",
"H  c #70381A",
"J  c #76341B",
"K  c #402128",
"L  c #4B262D",
"P  c #592620",
"I  c #572B27",
"U  c #45293D",
"Y  c #482838",
"T  c #552C36",
"R  c #50323B",
"E  c #662D28",
"W  c #733122",
"Q  c #76332A",
"!  c #7B3428",
"~  c #6B3A36",
"^  c #66363A",
"/  c #743936",
"(  c #622F31",
")  c #2D4405",
"_  c #2F4A02",
"`  c #2C4108",
"'  c #304F00",
"]  c #325101",
"[  c #3B5707",
"{  c #3E5B12",
"}  c #3F6800",
"|  c #425D08",
" . c #416604",
".. c #4B6F0F",
"X. c #446905",
"o. c #4D7603",
"O. c #4F7A02",
"+. c #4C720C",
"@. c #4E7908",
"#. c #517F03",
"$. c #527D0C",
"%. c #517810",
"&. c #517710",
"*. c #4B6E10",
"=. c #794534",
"-. c #674739",
";. c #332C4B",
":. c #313C47",
">. c #3D3045",
",. c #2F2F57",
"<. c #35325C",
"1. c #28324D",
"2. c #3D3A67",
"3. c #3F3E70",
"4. c #432E4A",
"5. c #40394C",
"6. c #443D45",
"7. c #503145",
"8. c #413556",
"9. c #423965",
"0. c #473C65",
"q. c #513D60",
"w. c #38434F",
"e. c #25525E",
"r. c #3F5653",
"t. c #344259",
"y. c #2F6557",
"u. c #375C6D",
"i. c #3B4972",
"p. c #355F71",
"a. c #354560",
"s. c #396F65",
"d. c #3C7961",
"f. c #387668",
"g. c #33747A",
"h. c #357574",
"j. c #414149",
"k. c #404D4D",
"l. c #4E4644",
"z. c #5F4A41",
"x. c #46525E",
"c. c #65414A",
"v. c #49785E",
"b. c #4C6954",
"n. c #495767",
"m. c #4D5967",
"M. c #475567",
"N. c #505F6E",
"B. c #47436C",
"V. c #596879",
"C. c #576676",
"Z. c #476067",
"A. c #843B1E",
"S. c #863724",
"D. c #853B27",
"F. c #93491C",
"G. c #864817",
"H. c #A7551C",
"J. c #AD571E",
"K. c #B0581F",
"L. c #9D4524",
"P. c #964225",
"I. c #9B5632",
"U. c #8A4721",
"Y. c #A05226",
"T. c #AD5328",
"R. c #B25A20",
"E. c #B85F2B",
"W. c #BC5A25",
"Q. c #A84D25",
"!. c #C15F23",
"~. c #CA6325",
"^. c #D96D26",
"/. c #528402",
"(. c #548902",
"). c #588E02",
"_. c #54810A",
"`. c #5A8B0D",
"'. c #599301",
"]. c #5E8C11",
"[. c #669C03",
"{. c #689F02",
"}. c #65960D",
"|. c #669B0C",
" X c #689F0B",
".X c #609302",
"XX c #649513",
"oX c #669912",
"OX c #689D12",
"+X c #608F0D",
"@X c #69A402",
"#X c #67A900",
"$X c #6BAB02",
"%X c #69A30A",
"&X c #6DAA0B",
"*X c #66A106",
"=X c #70AF0D",
"-X c #6EB301",
";X c #6FB800",
":X c #72B404",
">X c #71BA01",
",X c #72B30D",
"<X c #76BA0E",
"1X c #78BE0E",
"2X c #6BA412",
"3X c #6EAA11",
"4X c #70AE11",
"5X c #73B310",
"6X c #75B810",
"7X c #7AC40D",
"8X c #7DCA0C",
"9X c #79C306",
"0X c #398467",
"qX c #37916F",
"wX c #348075",
"eX c #368A72",
"rX c #80CF0D",
/* pixels */
"$X$X;X&X[.$X$X-X-X-X$X-X-X$X@XXX{.{.{.}.XXXX|.-X-X*X[.@X#X#XoXXXXXXXXXoX@X;X%X$X-X%XoX-X&XOXOXoX%X-X$XXXXXXX%X-X&X-X-X@X{.#X-X-X",
"$X$X-X X{.#X-X-X>X-X$X-X-X#X|.XX[.[.{.}.XX|.$X-X-XXX}.{.{.{.XXXXXX X%X%X;X-X%X$X$X*X-X-XOXOX%X*X-X-XOXXXoX*X;X&X@X$X$X|.@X-X:X#X",
"$X-X$X}.@X$X-X-X;X&X#X$X$X@X|.}.}.|.[.*X&X&X$X-X%XXX}.[.[.|.XX|.$X&XXX$X>X@X&X$X$X$X-X XXX&X&X$X-X$XXX%X$X$X;X%X@X#X$X@X-X-X#X@X",
"-X-X[. X-X$X$X;X-X@X#X$X@X{.}.XXXXoX@X-X*X[.$X$X XXXXXXXXXXX|.-X$XoX%X:X>X X#X#X$X-X-X|.&X-X@X$X-X%X$X-X&X-X-X X@X@X#X$X-X$X{.{.",
";X$X$X;X-X[.$X;X@X{.@X#X{.[.}.XXXX&X-X&XXX@X#X@X|.XXXXXXXX|.-X-X|.XX$X:X$X X@X$X-X-X@X&X>X@X#X$X-X-X;X$X-X-X@X|.{.{.$X$X$X@X[.#X",
"$X$X-X-X|.|.-X-X X{.{.{.[.}.XX}.@X;X-XoXXX{.#X@XXXXXXXXX}.$X$X%XXX|.-X:X@X X@X-X-X$X@X:X-X|.@X$X-X-X-X-X$X-X X}.[.{.@X$X$XoX|.-X",
"@X$X-X@XXX&X-X-X|.{.[.[.}.}. X X:X-X*XXX}.{.{.{.XXXXXXXX*X@X#X|.XX#X$X$X X@X-X-X$X#X-X:X%X[.@X$X-X-X;X$X$X$X|.XXXX[.@X-X XXX$X>X",
"@X@X@X|.oX$X-X#X}.}.[.|.XX%X%X-X-X@X|.XX|.{.[.[.XXXX X[.{.@X{.|.|.@X#X#X@X-X-X$X@X$X-X$X|. X$X-X$X;X$X$X$X$XXXXXXX}.-X-XXX X>X-X",
"{.{.@XXX X-X-X%XXXXXXXXX&X$X@X;X$X[.oX%X*X}.[.}.XX&X%XXX}.[.@X&X}.{.@X#X$X-X$X{.@X-X-X#X|.-X-X#X-X:X@X@X$X XXXXXXX&X;X*XXX$X>X&X",
"}.}.}.XX#X-X$X|.XXXX%X$X-X%X-X-X*X}.%X%XXXoXoX}.$X$XoXXXXX|.-X|.}.{.{.$X#X$X#X[.@X-X$X#X-X;X[.$X>X:X[.{.@X|.XXXX X-X-XoX|.-X-X*X",
"XXXXXX|.:X-X@XXXXX%X>X>X-X%X-X$XoX$X-XoXXX]._./.(.@.*.%.`.-X&XXX}.}.{.{.$X-XoX|.-X-X$X$X:X%X}.$X-X&X[.{.{.|.XXXX$X-X&XXX@X$X$X|.",
"XXXXXX-X-X@X{.}.@X:X>X>X%X$X$X@X&X;X%XXX|.(._ t e w w _ ).;XOXXXXX}.}.{.-X%XXX@X>X$X$X:X$XXX%X-X-X X.X[.{.}.XX|.$X-X*XXX$X$X@XXX",
"XXXX%X;X$X{.{.#X-X;X>X-X*X$X$X$X-X$XoX}.'.[ e . . . . w } '.].XXXXXX%X-X-XXX X-X-X@X#X#X XXX#X-X-XXX}.|.|.}.XX@X$X$XoXoX#X#X XXX",
"XXXX-X;X@X[.{.$X$X-X>X$X*X#X$X-X-X*X%X'.' w # , # + + # w _ %.XXOX2X=X>X%XXX&X;X$X[.{.{.}.}.-X-X#XXXXXXXXX|.|.$X$X$XXX[.@X@X[.XX",
"XX@X-X-X|.[.@X@X$X-X:X@X@X$X-X-X$X[.'. .# @ < 7 7 8 1 , . w *.5X<X&X:X-X|.OX-X-X%XXX}.}.}. X:X$X XXXXX|.@X%X|.$X$X XXX{.[.{.}.XX",
"@X$X-X&XXX}.[.{.:X-X$X$X$X-X-X$X$X).] w # < 7 9 9 8 7 , . w `.7X2X@X:X$XXX*X$X$X|.XXXXXXXX-X-X$X|.XX%X-X%XXX[.@X@X[.+X}.[.[.}.OX",
"%X$X$X*XXXXXXX&X-X-X-X;X-X;X#X$X$X(.e . , 7 9 9 9 9 1 < @ w +._.+./././.].@X$X#XXXXXXXXX&X>X$X{.|.@X;X$XXXXX{.{.@X}.XXXXXX|.&X-X",
"@X$X$X|.XXXX2X1X$X-X;X-X-X-X@X@X$X(.e . + 1 9 9 8 7 1 1 6 2 w w e e e ) $.@X#X@XXXXXXXOX-X-X{.{.@X$X-XoXXXXX[.[.{.}.XXXX|.$X-X|.",
"@X@X@X}.XXOX7X:X$X-X-X$X$X@X{.@X;X'._ e # < 8 9 7 1 1 7 9 8 O . . .   $ [ o.o.o.*...+.).#X$X[.{.#X$X%XXXXXXX}.[.[.}.XX}.&X-X%XXX",
"{.@X{.}.oX1X7X@X$X$X$X$X$X X[.-X-X'.'. .w @ 7 9 9 9 9 9 9 9 2 6 < o     $ e e e w w e ' '.%X}. X@X@X}.XXXXXX*X X}.}.XX[.$X#XXXXX",
"[.{.{.XX4X8X=X X@X@X@X-X%XXX@X>X$X$X:X/.e . 6 9 9 9 8 9 9 9 9 9 7 < @     . % ; ; ; f s X.$.].[.{.[.}.XX|.$XoXXXXXXX}.@X@X[.XXXX",
"[.[.}.OX1X1X X[.[.@X$X-XXXOX-X-X@X$X$Xo.w . < 7 7 7 7 7 7 8 8 9 9 7 < o   % x :.:.w.x.r.s ) &.XX}.}.}.&X;X%XXXXXXX}.}.[.{.}.XXoX",
"}.}.}.4X1X5XXXXX}.$X;X%XXX&X>X$X{.@X@X&.) w # < 7 q q 8 8 1 9 9 9 9 8 < . ; w.x.n.N.C.m.m s { &.].}.@X:X&XXXXXXXXXXXXX}.}.XXXXXX",
"XXXXOX5X<X2XXXXX|.;X-XoX|.-X:X X}.{.[.]./. .e & h Y v z 8 7 9 9 9 9 9 < X % :.n.C.C.N.m.N.w.s ` &. X$X$XoXXXXXXX].XXXXXX}.OXoXXX",
"XXXXOX5X5X2XXXXX&X;X&XXX@X$X$XoXXX}.XXXX-X/.e O K T T L k q 9 0 B B q 6 . ; :.n.C.V.N.m.m.k.s ` #.@X#X%XXXXXXXXXoX|.XXXX2X3XXXXX",
"XXXX3X4X4XoXXXoX$X-X*X}.$X$X$XXXXXXXXX%X;X#.e + Z Q Q ( L k q M Z D 0 < . ; :.M.n.N.V.m.m s { _.'.@X@X}.XXXXXXoX%XXXoX5X5XXXXXXX",
"XXoX2X4X2XXXXX*X-X$XoX X#X$X*XXXXXXX|.:X-Xo.e , D S.S.! ( L q 0 G G B ,   % x :.:.w.x.k.s ) _.%X}.{.*X}.XXXXXX$X%XXX5X7XoXXXXXXX",
"XXoX2X2X2XXXXX$X$X&XXX[.@X#X|.XXXXXX$X>X#Xo.e < D S.S.S.! E 0 M G G S # . . % ; ; ; > s { _.[.XXXX}.}.XXXXXX$X&XXX4X8X3XXXXXXXXX",
"XXOXOX2XOXXX[.$X$X*X}.{.{.{.}.XXXX|.-X#X/.[ w 7 F S.S.S.W Z 0 0 Z D 4 , .   o < 4 4 4 a X.'.].XXXXXXXXXX%X%X;XOX2X7X<XOXXXXXXXXX",
"%XOXoXOXoX|.@X@X#X[.XX[.[.[.}.XX%X$X-X).a w 2 B G S.S.G A 0 3 3 0 4 3 , . o A J F.H.H.G.N _ %.XXXXXXXX&X*X-X-XoX5X7X=XXXXXXXXXXX",
"oXXXXXXX&X%X{.@X@X|.XX}.[.}. X&X%X$X-X#.w . 6 d D W W D 0 7 7 8 1 3 N N S A A.Q.!.~.^.H.p e ..XXXXXX$X&X%X;X%X2X6X>X2XXXXXXXoX&X",
"XXXXXX%X$XoX{.{.{.}.XXXXOX@X-X%X*X$X$Xo.w X 6 d B V V B 0 9 8 8 7 N F.K.H.K.!.W.Q.T.~.H.4 e ..XXXX&X-X@X-X-X%X=X9X,XXXXXXXOX:X&X",
"XXXX%X>X XXX|.[.{.XXXX4X$X-X&XXX@X$X#X+.w . 6 9 d 9 9 d 9 9 9 d N H Y.E.E.E.E.T.D.Q.~.H.4 w ..XX%X>X%X&X$X$X%X>X1X&XXX|.%X-X-XoX",
"%X$X:X:XXXXX}.}.|.%X6X$X$X$X}.OX:X#X@X+.w . 6 q 9 9 d 9 d 8 8 N F.Y.=.~ ~ ~ ~ / D.L.~.H.4 w ..oX;X;X*X$X$X#X:X>X=XOX%X%X$X;X%XXX",
"&X$X:X@XXXXXXXXX%X7X&X@X$X*XoX<X:X{.@X..w @ 6 9 9 9 9 8 9 d N H Y.I.z.5.:.>.v L ! L.~.H.4 w *.@X>X-X@X#X$X-X:X&X2X:X&X@X-X-X|.&X",
"$X-X:X|.XXXXXX2X7X<X[.{.@X|.5X1X{.[.|.$.t . # 7 7 6 7 7 7 N F.Y.=.z.b.s.u.t.f 8 G S.~.H.4 w ..-X>X%X{.@X$X-X:X%X$X>X%X$X$X$X-X;X",
"-X-X$XXXXXXXOX<XrXOXXX@X|.&X8X3X}.}.@X|.] w # 8 N C C C C H Y.I.z.r.f.wXg.e.y , D L.~.H.4 w #.-X-X X{.@X:X-X$X$X;X$X X$X$X-X-X-X",
"$X-X*XXXXXoX4X1X4XoX2XOX2X8X7XoXXXXX,X<X`.{ # 5 G.R.R.R.R.L.=.-.b.f.g.g.g.y.y , D L.~.H.4 w #.$X$X|.#X-X-X#X$X$X-X X{.#X-X-X-X;X",
"$X$X XXXXXOX6X<X2X3X4XXX6XrX5XXXXX2X<X<XOX*.e 2 U.E.E.E.E.I.^ j.f.eXg.g.wXy.y , D L.~.H.4 e O.$X#X@X-X-X$X#X$X-X&X|.{.$X-X-X;X$X",
"#X#X|.XXXX3X5X5X4X<XOXOX7X8X2XXXoX5X5X5XXX*.e O I ~ ~ ~ ~ ^ R k.d.qXeXwXg.e.- , D L.~.H.5 e O.#X$X$X-X$X{.@X:X-X X[.-X$X$X;X-X%X",
"@X{.XXXXoX4X4X5X8X3XXX5X7X<XOXXX2X3X5X2XXX*.w O j 4.6.j.R R l.k.d.qXeXh.u.,.- , D L.~.H.4 e o.@X$X$X$X@X{.$X-X$X@X-X-X{.$X;X$X*X",
"{.{.XXXXOX2X4X7X7XoXXX6X1X5XXXXX2X3X3XoXXX+.e % v 6.r.b.-.-.b.0XqXeXg.s.t.c % , D L.~.H.4 w o.{.@X$X&X|.[.:X$X$X-X-X X[.-X;X*X{.",
"{.{.+XXXOXOX5X8X5XXX2X5X6X3XXX2X3X2X2XOX}./.e O j :.s.v.=.=.b.v.d.s.u.a.;.h = 3 F L.~.H.4 e +.[.@X-XOXXX$X;X#X$X-X&XXX&X-X-X|.[.",
"{.}.XXXXoX2X7X7X2XXX2X5X5X2X5X3XoXoX2X%X%X(.w O c >.u.N.-.U.=.-.l.w.>.;.: = h L W L.~.H.4 w ..|.-X$XXX%X;X-X@X$X$X|.|.$X-X%X}.[.",
"}.}.XXXXXX4X1X6XoXXX4X3X5X7X5XXXXXOX$X%X;X/.e % c <.i.M.c./ / ^ 7.4.4.c & & j T Q P.W.F.4 w +.$X;X|.oX-X-X$X{.@X{.XX X-X-X XXX}.",
"|.%XOXXXoX5X<X4XXX4X4X4X7X<XoXXXXX-X%X$X-X@.e * ;.2.B.i.q.q.q.0.0.9.2.1.* & j T ! S.P.J , w @.>X-XXX%X-X-X X}.[.[.XX$X-X$X|.XXXX",
"-XOXXXXX2X5X5X2X3X6X2X5X1X2XXXXX$X;X@X$X-X+.e * ;.2.9.2.2.,.,.<.<.0.9.2.g * h j P D D C p ) ).-X%XXX#X$X&XXXXXXXXX|.-X-X#X}.XX|.",
"|.XXXXXX4X4X5X4X7X2X3X5X5XoXXX%X;X&X&X$X$Xo.e % j 4.4.;.f * * g b 8.9.3.,.;.f O , , , p | _.$X-X|.|.$X$X*XXXXXXXXX$X:X#X XXX&X;X",
"XXXXXXXX3X3X5X8X<X2X2X3X2XXXXX;X-X%X$X$X#X/.e % j U Y j O X $ w k ;.<.0.q.>.* X $ w e ' $.$X$X$XXX[.$X$X XXXXXXX%X>X$X{.{.@X-X-X",
"XXXXXXoX2X3X<X8X3XXXOXOXOX2X=X;X-X X#X$X$X/.e & j U U j O e } } u 6 b 7.^ I + $ [ /./.$.+X$X$X@XXX*X@X@X|.XXXXXX-X>X@X[.@X$X$X X",
"XXXXXX2X%X3X7X7XOXXXXX2X5X3X-X;X@X@X@X#X'. .u 6 j U j h i ] '.'.' i l z P M o w #.-X XXX X$X$X|.XX{.{.@X}.XXXX@X-X-X}.[.@X$X#XXX",
"XX X&XOX2X6X7X5XXXXX3X7X3X*X-X-X[.[.#X'.' i l v U c 6 i  .'.$X#X'. .2 O , + . e /.$XXXXX$X$X#X|.}.[.$X@XXXoX&X$X-X&X}.}.{.{.[.XX",
"$X-X|.|.2X<X7X2XXX3X7X5XoX@X-X$X X#X:X/.e O k T v h i ] '.>X-X$X-X).) e t t e _ /.[.OX,X$X{.{.}.XX=X=X}.@X$X@X$X$X XXX|. X[.}.XX",
"-X%X*XOX2X6X6XOX2X<X6XOXoX$X$X@X@X-X-XO.e , P P 7 u  .'.#X;X$X$X$X[.$.`.`._.o.#.[.=X7X&X{.[.{.}.2X<X X$X-XoX X$X$XOX4X4XXXXXOX@X",
"%X%X%XXX4X5X4X2X4X5X3XXX|.@X@X#X$X-X$Xo.e , D D , e /.$X;X-X@X#X$X[.%X5X5X2X[. X:X7X3XXX[.[.[.2X7X,X$X:X%XoX@X$X:X1X,XXXXXXX@X-X",
"#X=XOXOX4X5X3X2X3X4XOX].[.[.@X$X$X$X{.{.$X:X$X$X:X$X@X$X>X&X{.@X#X|.3X5X4XOXXX=X7X<XXXXX}.}.|.7X7X$X$X$XXXXX@X$X9X7XXXXXXX X$X$X",
";X%XXX2X2X4X2XOXOX2XoXoX|.[.{.@X$X&X}. X-X$X$X:X-X|. X-X-X@X[.{.{.XX2X4X4XXX2X5X5X2XXXXXXXXX5XrX:X{.$X|.XX}.$X9X8X%XXXXXXX{.$X$X",
"-XXXXXOX3X&XOXXXXXOX*XoXXXXX[.#X-X|.XX-X;X$X$X$X@XXX&X-X-X|..X[.[.OX2X2X2XXX2X3X3XoXXXXXoXOX7X7X@X{.{.XXXX|.:X1X,XXXXXXX}.$X$X$X",
"%XXXXX%X&XOXoXXXoX&X%XXXXXXX X-X$XXX%X;X-X@X#X#X|.oX$X-X@XXX}.[.[.XXOXOXOXOXOX2XOXXXXX*X X5X7X6XOX[.[.XXXX%X,X,X%XXXXXXX%X$X$X:X",
"|.oX&X&XoXOXXX|.$X$XoXXXXX|.-X>X XXX-X:X@X[.{.{.XX*X-X-X%XXXXXXX}.|.|.OXXXXXXXXXXXXX%X&XOX5X<X4XXXXXXXXXoXOX2X2XOXXXXXOX>X@X$X-X",
"XX$X-XoXXX|.%X-X;XoXXXXXoX-X;X-XXX X-X-X|.}.}.|.XX&X-X$X|.XXXXOX%XoXXXXXXXXXXXXXoX X-XOX2X5X5X2XXXXXXXXXXXXXoXoXXXXX|.-X-X@X-X$X",
"$X;XOXXX*X&X&X-X&XXXoX*X-X;X;X%XXX@X$X$XXXXXXXXX|.;X-X@X}.oX%X;X|.XXXXXXXXXXXX2X|.;X$XXX3X5X5XOXXXXXXXXXoXXXXXXXXXoX$X>X%X&X$X$X",
";X$XXX%X-X*X-X-X X*X-X&X-X;X-XoX}.$X$X*XXXXXXXXX-X;X#X{.|.&X;X%XXXXXXXXXXXXX%X%X&X-X XXX3X4X4XOXXXXXXXOX%XXXXXXXoX$X>X:X X#X$X$X",
"-X%X%X;X%X&X$X$X$X;X$X-X;X-X$XXX|.$X#X XXXXXXX%X;X$X{.{.%X;X$XXXXXXXXXXXXX2X$X%X;X-XXXoX3X:X2XXXXXXX%X@XXXXXXXoX$X-X>X$X X#X$X-X"
};
