/* XPM */
static char *gm01704828126[] = {
/* columns rows colors chars-per-pixel */
"64 64 162 2 ",
"   c #020100",
".  c #090701",
"X  c #070B01",
"o  c #161004",
"O  c #1C1605",
"+  c #141F00",
"@  c #1F1805",
"#  c #221D04",
"$  c #142100",
"%  c #192604",
"&  c #1B2B01",
"*  c #1E3003",
"=  c #292306",
"-  c #2A2F04",
";  c #362106",
":  c #322B09",
">  c #382E08",
",  c #2C3305",
"<  c #2F3803",
"1  c #37300A",
"2  c #39340C",
"3  c #70160D",
"4  c #59290D",
"5  c #42310C",
"6  c #483B0C",
"7  c #2D4503",
"8  c #2F4B02",
"9  c #304E02",
"0  c #3E4309",
"q  c #315100",
"w  c #3B5E02",
"e  c #4D420A",
"r  c #5C470F",
"t  c #554C08",
"y  c #435E02",
"u  c #445A08",
"i  c #584110",
"p  c #5C4F11",
"a  c #64530D",
"s  c #67580B",
"d  c #6F5E0D",
"f  c #644E10",
"g  c #615412",
"h  c #745C15",
"j  c #456203",
"k  c #486503",
"l  c #476E02",
"z  c #4B6C05",
"x  c #476109",
"c  c #4B6E0F",
"v  c #48640A",
"b  c #4D7405",
"n  c #4F7C03",
"m  c #4C720C",
"M  c #4F780D",
"N  c #537E03",
"B  c #537B0C",
"V  c #517710",
"C  c #517810",
"Z  c #75640E",
"A  c #7D690F",
"S  c #776610",
"D  c #7F6316",
"F  c #7D6E14",
"G  c #9B1C13",
"H  c #BC1616",
"J  c #AF2E14",
"K  c #B53316",
"L  c #B73418",
"P  c #BF3C19",
"I  c #965E11",
"U  c #8A760F",
"Y  c #8A6D19",
"T  c #826617",
"R  c #8F7B11",
"E  c #847618",
"W  c #8F711B",
"Q  c #937C15",
"!  c #92761C",
"~  c #A66C16",
"^  c #AC711D",
"/  c #957A20",
"(  c #C4401B",
")  c #CB601F",
"_  c #538402",
"`  c #558A01",
"'  c #598D02",
"]  c #55850B",
"[  c #5D8E0C",
"{  c #5A9400",
"}  c #5B9800",
"|  c #5E8B12",
" . c #608F06",
".. c #608E09",
"X. c #619400",
"o. c #679C03",
"O. c #689F02",
"+. c #65960D",
"@. c #669B0C",
"#. c #689F0B",
"$. c #649513",
"%. c #669912",
"&. c #689D12",
"*. c #66A700",
"=. c #69A402",
"-. c #67A802",
";. c #6BAB02",
":. c #67A00C",
">. c #69A30A",
",. c #6DAA0A",
"<. c #70AE0D",
"1. c #6EB301",
"2. c #6FB800",
"3. c #72B405",
"4. c #71BA01",
"5. c #72B40D",
"6. c #76BB0F",
"7. c #78BE0E",
"8. c #6BA412",
"9. c #6EAA11",
"0. c #70AE11",
"q. c #73B310",
"w. c #75B810",
"e. c #7AC30D",
"r. c #7DCA0C",
"t. c #79C306",
"y. c #9A8415",
"u. c #9F8816",
"i. c #97821A",
"p. c #9F891B",
"a. c #9B851A",
"s. c #A18B17",
"d. c #A48D1B",
"f. c #A5911A",
"g. c #AC941A",
"h. c #B59F1F",
"j. c #B9A01E",
"k. c #A69020",
"l. c #A99C28",
"z. c #B49B21",
"x. c #BEA420",
"c. c #C68820",
"v. c #D59525",
"b. c #C4A625",
"n. c #C5A825",
"m. c #C9AD23",
"M. c #CAAE29",
"N. c #D8A026",
"B. c #CEB225",
"V. c #CFB628",
"C. c #C7B22D",
"Z. c #D0B526",
"A. c #DCB529",
"S. c #D9BB28",
"D. c #80CF0D",
"F. c #DEC22B",
"G. c #D6C032",
"H. c #DCC731",
"J. c #E0C32B",
"K. c #E4C92E",
"L. c #E1CC32",
"P. c #F1DA37",
/* pixels */
"-.;.3.-.o.-.;.1.1.1.1.1.1.;.=.$.o.O.=.+.$.$.#.1.1.=.o.=.=.=.+.$.$.$.%.+.,.2.>.;.1.#.+.3.,.8.&.&.#.3.;.$.$.$.>.1.,.1.1.=.o.=.1.1.",
";.1.1.#.=.=.3.1.3.1.;.1.;.-.o.$.o.o.o.+.$.+.;.1.1.$.+.O.=.O.$.$.%.:.>.:.1.1.=.;.;.>.1.1.&.%.>.>.;.4.#.$.$.>.3.;.=.;.;.#.=.1.3.-.",
";.1.-.@.=.;.;.1.2.-.-.;.;.=.@.$.+.o.o.>.;.=.;.1.=.$.+.+.o.+.$.%.;.>.%.,.4.>.-.;.-.;.3.#.$.,.-.-.1.;.$.>.;.;.4.>.=.-.-.=.1.1.-.=.",
"1.1.#.#.1.1.-.2.1.=.;.;.=.O.+.$.$.%.>.1.>.#.;.;.#.$.$.$.$.$.#.1.1.$.:.2.2.=.=.-.1.1.;.&.-.3.>.1.1.>.;.1.-.1.3.#.=.=.;.;.;.;.=.=.",
"3.-.-.4.1.o.1.2.;.O.=.=.O.o.+.$.$.,.1.-.$.=.-.=.+.$.$.$.$.#.1.1.#.$.;.4.1.#.=.-.1.1.=.-.4.=.;.;.;.1.4.1.1.1.-.@.O.=.;.-.1.=.o.=.",
";.;.1.3.@.#.1.3.#.o.O.=.o.+.$.+.=.1.1.%.+.=.=.=.$.$.$.$.+.-.;.=.$.+.1.3.=.o.=.3.1.;.=.3.1.#.=.;.1.1.1.1.;.1.>.+.o.O.=.;.-.$.#.3.",
"=.;.1.=.$.=.3.1.@.o.O.o.+.$.#.>.4.1.o.$.+.O.O.O.$.$.$.%.=.=.=.+.$.=.;.;.>.=.1.1.;.;.1.1.>.o.=.;.1.1.1.-.;.;.+.$.$.o.=.2.#.$.;.2.",
"=.=.-.@.%.;.1.-.+.+.+.o.$.>.>.1.4.=.+.$.@.O.o.O.$.$.#.o.O.O.=.#.#.=.-.=.=.1.1.-.=.-.1.1.%.o.-.1.1.2.1.=.-.=.%.$.$.+.1.;.$.>.2.2.",
"O.O.=.$.#.1.3.>.$.$.$.+.,.;.=.2.;.O.$.:.#.@.@.+.$.,.>.$.+.o.=.-.+.=.=.=.;.1.;.=.=.1.1.=.#.1.1.-.1.3.=.=.-.o.$.$.$.=.4.:.$.;.1.;.",
"+.+.+.$.-.3.-.@.$.$.&.;.1.>.1.1.:.+.-.,.$.$.%.+.;.;.$.$.$.#.1.&.+.O.=.=.-.;.=.o.=.1.;.-.1.3.o.=.2.1.o.O.=.#.$.$.#.3.1.$.#.1.1.>.",
"$.$.$.#.3.1.=.+.$.-.4.4.1.>.1.;.+.;.1.$.$.%.#.;.2.@.$.$.%.;.;.$.+.+.o.=.;.1.%.+.1.3.-.3.4.>.+.;.2.-.o.o.O.@.$.$.;.1.-.$.=.;.-.&.",
"$.$.$.;.2.=.O.@.=.3.4.4.>.;.;.=.,.2.:.$.#.=.-.1.,.$.%.>.1.2.&.$.$.+.+.O.1.>.$.,.2.;.-.1.-.%.>.1.1.#.o.o.O.+.$.#.1.1.#.%.-.;.=.$.",
"$.$.>.2.-.O.O.=.1.1.4.1.>.-.;.;.1.1.$.>.1.=.1.1.:.:.1.,.2.1.$.$.$.$.:.1.1.%.#.1.1.=.=.-.=.$.-.3.1.%.$.@.+.+.$.=.1.;.+.@.;.=.o.$.",
"$.$.1.2.=.o.=.-.;.1.4.;.o.*.;.1.3.>.>.2.>.-.;.-.;.2.-.1.1.>.$.$.&.8.<.4.>.$.-.1.;.o.O.O.@.$.;.1.=.$.$.$.$.#.#.=.;.=.$.o.=.=.#.$.",
"%.>.1.1.@.o.=.=.-.3.3.=.=.;.1.1.;.=.3.1.>.-.;.2.2.2.1.1.1.&.$.0.6.,.1.3.#.%.;.1.>.$.+.+.$.#.1.1.=.$.$.+.;.#.#.=.=.=.$.o.o.O.+.$.",
"=.;.1.-.$.+.o.O.1.3.1.-.1.1.1.;.=.1.1.>.=.=.;.1.2.1.;.;.-.8.w.e.8.=.1.;.$.>.;.1.#.$.$.$.$.1.1.-.+.$.>.1.>.$.o.=.=.#.$.+.o.o.+.@.",
">.;.;.=.$.$.$.,.3.;.1.2.2.1.-.-.;.3.1.m %     & ` ;.-.-.-.] *     & _ :.$.=.-.n %     % _ 2.-.=.#.>.2.;.$.$.o.O.O.+.$.$.+.@.-.1.",
"=.;.;.+.$.$.8.7.;.1.4.1.1.1.=.=.1.1.=.m % X O < l ` o.*.{ m 0 1 1 0 l n [ o.` j , O . % ` 1.O.O.=.;.;.&.$.$.o.o.O.+.$.$.+.;.1.&.",
"=.=.=.+.$.&.e.3.;.1.3.-.;.=.O.*.1.1.=.n * O e t , 7 _ ` 8 e F l.k.E e 7 N _ 7 , t e O & ` -.o.O.-.-.=.$.$.$.+.o.o.$.$.+.-.1.:.$.",
"O.=.O.+.%.7.e.=.;.1.-.-.;.#.O.1.1.=.1.` & # s Z e e k y ; 4 ^ v.v.^ 4 ; u k 0 e Z s % & _ >.+.O.=.=.%.$.$.+.>.@.+.+.+.>.;.-.%.$.",
"o.O.O.$.0.r.0.O.=.=.=.1.>.$.=.4.;.;.1._ % @ s y.p.E 0 ; 3 G L ( ( L G 3 ; 0 E p.Q s # % _ %.$.@.O.o.$.$.#.;.&.$.$.$.o.O.=.o.$.$.",
"o.o.+.&.7.7.#.@.o.=.1.1.$.&.2.3.*.;.-.b % @ a y.m.z.g 4 G H H H H H H G 4 g z.m.y.a # & n $.| %.+.+.&.-.3.>.$.$.$.$.+.o.O.+.$.$.",
"+.+.+.0.7.q.$.$.+.=.2.>.$.-.4.-.O.=.=.m & O r W b.B.z.^ L H H H H H H L ^ z.B.b.! r @ % n $.$.$.$.$.=.3.,.$.$.$.$.$.$.+.@.$.$.%.",
"$.$.&.q.6.8.$.$.&.2.1.%.#.1.1.>.+.o.o.c & O r Y h.V.S.N.) P K J J K P ) N.S.B.h.Y i @ & m $.$.$.$.=.;.;.+.$.$.$.$.$.$.$.$.&.%.$.",
"$.$.&.q.q.8.$.$.>.3.-.$.=.3.;.+.$.+.$.c % @ r D Q g.Z.A.v.c.^ I I ~ c.N.A.B.g.Q T i O % b $.$.$.o.=.-.>.$.$.$.$.$.+.$.$.9.9.$.$.",
"$.$.9.0.0.%.$.&.1.1.>.+.;.;.=.$.$.$.$._ q - 6 r a Z i.k.k.i.Z s s S i.k.k.i.S g i 6 , 7 B $.$.#.O.=.=.+.$.$.$.%.>.$.$.q.q.$.$.$.",
"$.$.9.9.8.$.$.=.3.;.%.#.-.;.>.$.$.$.#.-.{ y - # # = : > > : = # # = : 1 > : = # @ - w n | $.>.#.+.o.O.+.$.$.%.,.#.$.q.e.$.$.$.$.",
"$.%.8.8.8.$.$.;.;.-.$.o.=.=.@.$.$.$.;.4.;.N 7 $ X . o O O # O O @ O O O O o . X % 7 C $.$.-.,.$.$.+.+.$.$.$.-.,.$.q.r.9.$.$.$.$.",
"$.&.&.8.%.$.o.-.;.=.$.o.O.O.@.$.$.&.1.1.>.' _ w + o 5 r 6 i 4 p f 6 i i i 5 o $ w V | $.>.1.$.$.$.$.$.$.>.>.2.#.8.e.w.&.$.$.$.$.",
">.&.%.&.%.>.=.=.=.@.+.o.o.o.$.$.:.;.1.;.%...N y , 2 h W W ! W W W ! / ! T f > < x C | ,.2.,.$.$.$.$.%.-.>.3.1.%.q.e.5.$.$.$.$.$.",
"%.$.$.$.,.>.o.=.=.@.$.+.o.+.#.-.=.;.1.=.$.B 7 , t T g.b.b.b.b.b.b.M.G.C.i.F d t , 8 ` 1.2.#.$.$.$.$.;.,.-.1.>.,.6.7.8.$.$.$.$.,.",
"$.$.$.>.;.%.O.O.O.+.$.$.&.=.1.>.>.;.;.#.$.c % = F h.Z.F.F.J.K.K.F.K.P.L.h.s.f.F = & _ 1.;.$.$.$.$.,.1.>.1.1.%.<.7.1.$.$.$.:.1.,.",
"$.$.>.1.#.$.o.o.o.$.&.9.;.1.-.$.=.1.-.#.$.c % 2 l.K.F.F.F.K.P.P.K.J.K.F.Z.V.H.l.2 & ` 1.>.$.| $.>.2.,.-.1.;.>.4.7.,.$.#.>.1.1.$.",
">.=.4.3.$.$.$.%.o.#.w.;.;.;.%.&.4.=.=.[ $.C * 2 l.K.J.F.F.H.L.L.F.J.K.K.F.J.L.l.2 & _ 1.+.$.$.%.1.2.>.;.;.=.3.4.<.&.>.,.;.4.>.$.",
";.;.3.=.$.$.$.$.8.7.<.=.-.>.%.6.,.O.=.$.8.| % = F j.Z.F.F.B.j.j.Z.K.P.P.L.Z.z.F = & _ ;.%.$.$.,.4.;.>.-.;.;.4.,.8.1.,.=.1.;.#.,.",
",.1.3.@.$.$.$.8.D.6.o.o.=.@.q.7.O.o.@.8.e.] % = S f.j.B.S.B.g.g.B.J.L.L.Z.x.g.S = % N =.$.$.+.2.4.=.=.*.;.1.3.>.;.3.>.-.1.;.1.2.",
"1.1.;.$.$.$.&.7.7.&.+.O.o.9.r.9.+.+.=.e.e.c % : i.x.f.g.Z.F.B.B.S.B.x.f.s.g.x.Q : % N o.$.$.=.1.1.>.=.=.1.1.;.;.3.;.o.;.;.1.1.1.",
";.1.=.$.$.$.0.7.w.%.8.&.8.r.e.%.$.%.w.e.9.V 7 0 E f.s.g.j.m.m.m.m.h.i.R y.s.k.E 0 7 _ @.$.$.=.1.-.@.=.1.1.-.-.1.1.#.=.=.1.1.2.1.",
"-.;.#.$.$.&.w.6.9.9.0.$.w.D.q.$.$.0.6.6.&.| B x 0 p f.x.f.u.u.y.u.y.R y.x.k.p e j N X.+.$.%.=.;.-.=.3.3.-.=.;.1.;.+.=.;.1.1.2.-.",
"-.=.%.$.$.9.q.0.0.7.$.8.e.r.8.$.$.0.q.0.$.$.$.B 7 0 E f.y.y.y.U U R y.p.f.F 0 7 N o.O.$.$.@.=.=.;.;.1.-.=.=.3.1.>.#.1.;.-.2.1.=.",
"=.=.$.$.$.0.0.q.e.9.$.q.e.w.&.$.8.0.0.8.$.$.%.+.] z 0 p k.z.y.R U y.j.f.p 0 l M [ +.@.$.$.o.=.=.;.;.;.=.O.;.3.;.=.1.1.o.;.4.-.=.",
"O.=.$.$.%.9.0.e.e.%.&.w.w.q.$.$.&.0.0.%.$.%.;.:.;.} 7 0 E f.p.u.u.u.d.E e 9 ` $.$.$.+.#.+.o.o.=.=.;.;.+.o.1.1.;.1.1.#.>.3.2.#.O.",
"O.o.$.$.%.8.q.r.q.$.8.q.w.9.$.8.0.8.8.#.#.;.;.>.4.-.B v e p f.M.m.d.p 0 b ` +.$.$.#.;.&.$.$.+.O.-.1.%.$.;.2.=.;.1.=.$.-.3.;.@.o.",
"o.o.$.$.$.8.7.e.8.$.8.q.q.9.q.9.$.%.&.>.>.2.:.,.1.-.$._ 8 0 F k.k.E 0 9 { -.+.%.,.2.#.$.$.$.$.#.1.;.$.>.4.1.=.-.;.#.%.;.1.=.+.o.",
"+.+.%.$.$.0.7.w.%.$.q.9.q.e.q.$.$.&.;.>.1.1.#.;.1.=.+.o.` z 0 1 1 0 l } *.=.+.;.1.,.$.$.$.$.$.;.4.#.$.1.1.=.O.=.=.$.>.1.1.#.$.+.",
"#.>.%.$.%.w.7.0.$.9.9.0.e.w.%.$.$.1.>.-.2.>.>.1.3.&.#.=.=.` 8 % % 7 } 2.-.O.=.1.2.&.$.$.$.$.:.2.1.$.#.1.1.#.@.o.o.$.=.1.;.#.$.$.",
"1.&.$.$.&.w.w.8.9.w.8.q.7.8.$.$.;.1.>.1.1.#.-.4.-.$.o.=.-.;.] m c ` ;.2.o.=.=.4.,.$.$.$.$.%.;.1.>.$.-.1.-.$.$.$.$.+.1.1.*.%.$.#.",
"#.$.$.$.9.0.0.0.e.8.9.q.q.%.$.,.2.,.=.1.=.>.1.1.=.%.=.-.2.1.$.$.,.2.2.,.+.=.3.t.&.$.$.%.&.=.1.2.#.+.;.;.>.$.$.$.$.1.2.=.o.%.>.2.",
"$.$.$.$.9.9.q.e.w.8.8.9.8.$.%.1.1.>.-.;.=.1.1.-.=.-.;.;.1.=.,.1.1.3.3.&.$.;.D.<.$.$.,.;.&.=.1.;.$.#.=.-.#.$.$.$.,.1.;.O.O.=.3.1.",
"$.$.$.$.8.8.7.r.9.%.&.&.&.8.<.2.1.>.;.;.;.1.;.=.3.;.=.1.1.1.2.1.1.4.;.$.%.7.7.%.+.,.1.@.+.;.;.=.$.O.=.=.+.$.$.%.1.4.=.o.=.;.-.#.",
"$.$.$.:.,.9.e.e.&.$.$.8.q.,.1.2.=.o.*.;.3.1.=.1.1.#.;.1.1.4.1.1.4.2.=.$.0.D.q.%.;.1.>.$.>.;.;.o.$.o.=.=.+.$.$.>.1.1.+.o.=.=.=.+.",
"$.#.,.8.8.w.e.q.$.$.9.e.9.>.1.2.=.O.=.1.1.-.;.2.-.=.;.1.4.4.1.1.1.1.+.&.7.D.>.=.;.;.$.%.=.;.=.+.+.o.;.=.$.&.=.;.1.-.$.@.O.O.#.$.",
",.1.#.#.8.w.e.8.$.9.e.5.$.=.1.-.#.=.2.1.-.;.1.1.>.=.1.1.1.4.1.1.1.;.@.q.e.6.#.=.-.o.&.5.;.O.=.+.$.<.<.+.=.;.=.;.;.#.$.&.>.o.+.$.",
"2.:.:.%.9.w.q.&.8.6.w.&.%.-.;.=.=.1.1.=.=.;.1.;.$.=.1.1.1.2.;.;.;.-.#.q.6.<.o.O.=.5.7.,.o.o.o.+.0.6.>.;.3.&.=.-.;.#.0.0.%.$.%.=.",
">.>.:.$.9.q.0.8.0.q.9.$.o.=.=.;.;.1.-.=.=.3.1.o.#.1.1.;.2.3.=.-.;.o.8.q.w.8.+.o.3.D.0.%.o.o.o.8.e.<.;.3.#.$.=.=.;.t.q.$.$.$.=.1.",
"-.1.%.&.0.q.9.8.8.0.&.$.+.o.=.;.;.;.=.o.;.3.;.-.1.1.O.;.4.-.o.=.=.@.8.q.0.%.%.<.7.q.$.$.+.+.@.e.e.;.;.=.$.+.=.3.e.e.%.$.$.#.;.;.",
"1.,.$.&.9.0.9.&.8.8.$.$.@.o.O.=.;.-.$.>.1.;.;.3.1.#.>.1.1.o.o.O.O.@.8.0.0.%.8.q.q.8.$.$.$.$.q.D.3.=.=.@.$.+.;.t.r.8.$.$.$.=.;.;.",
"1.$.$.&.,.9.%.$.$.&.,.+.$.+.o.=.1.#.%.;.4.-.;.1.>.$.=.1.1.+.o.o.o.&.8.8.&.$.8.0.9.$.$.$.+.8.e.e.;.O.O.%.$.#.3.7.5.$.$.$.+.=.=.1.",
">.$.$.,.>.&.%.$.$.,.>.$.$.$.#.2.;.$.>.2.1.=.=.=.#.%.-.3.-.$.+.o.o.%.&.&.&.%.&.&.8.$.$.>.#.q.e.w.%.o.o.$.$.>.,.5.>.$.$.$.>.;.=.4.",
"%.$.,.,.%.%.$.%.;.;.%.$.$.#.1.2.#.$.1.3.=.o.=.O.$.>.1.3.>.$.$.$.$.@.@.&.%.$.$.$.$.$.&.-.%.q.7.0.$.$.$.$.$.&.8.9.&.$.$.@.4.=.;.3.",
"%.1.;.%.$.#.>.1.2.+.$.$.%.1.2.;.$.>.1.1.+.+.@.+.$.-.2.;.#.$.$.%.,.%.$.$.$.$.$.$.%.#.1.&.8.w.w.8.$.$.$.$.$.$.%.%.$.$.%.1.1.>.3.;.",
";.2.&.$.:.=.-.2.,.$.%.>.1.2.1.,.$.=.;.;.$.$.$.$.@.1.1.=.+.$.,.1.%.$.$.$.$.$.$.8.#.1.;.$.9.0.q.&.$.$.$.$.%.$.$.$.$.%.1.4.>.-.;.;.",
"2.;.$.>.1.>.1.1.#.>.1.,.2.2.1.%.+.;.-.>.$.$.$.%.;.2.=.=.%.,.1.>.$.$.$.$.$.$.>.,.;.4.#.%.9.<.<.$.$.$.$.%.>.$.$.$.%.-.2.2.=.-.;.;.",
"1.>.>.2.>.-.;.;.;.2.-.1.2.1.;.$.o.;.-.#.$.$.$.>.2.;.O.O.-.1.;.$.$.$.$.$.$.>.;.#.3.;.$.$.<.5.9.$.$.$.>.>.$.$.$.%.;.1.3.3.o.=.;.1."
};
