/* XPM */
static char *gm11704828126[] = {
/* columns rows colors chars-per-pixel */
"64 64 148 2 ",
"   c #020100",
".  c #060A00",
"X  c #0E0C03",
"o  c #161004",
"O  c #1D1605",
"+  c #141E02",
"@  c #1F1805",
"#  c #221D04",
"$  c #142100",
"%  c #192604",
"&  c #1B2B01",
"*  c #282205",
"=  c #2A2408",
"-  c #322B09",
";  c #2D3404",
":  c #2F3803",
">  c #37300A",
",  c #3E320A",
"<  c #42310C",
"1  c #2D4503",
"2  c #2F4A01",
"3  c #2C4209",
"4  c #304E02",
"5  c #3E4309",
"6  c #315100",
"7  c #3B5E02",
"8  c #38540B",
"9  c #5C470F",
"0  c #544C08",
"q  c #425D0A",
"w  c #584110",
"e  c #5D4D11",
"r  c #64530D",
"t  c #67580B",
"y  c #615412",
"u  c #745C15",
"i  c #7A5F14",
"p  c #456204",
"a  c #486406",
"s  c #4B6D05",
"d  c #47610A",
"f  c #48630C",
"g  c #4B6E0F",
"h  c #4D7305",
"j  c #4F7B04",
"k  c #4C710C",
"l  c #4F780D",
"z  c #527E03",
"x  c #527A0D",
"c  c #517710",
"v  c #517810",
"b  c #776610",
"n  c #7F6C12",
"m  c #7D6C18",
"M  c #BC1616",
"N  c #AF2E14",
"B  c #BE2117",
"V  c #B53316",
"C  c #BF3C19",
"Z  c #C2361A",
"A  c #965E11",
"S  c #BD541C",
"D  c #8A760F",
"F  c #846C13",
"G  c #8F7B11",
"H  c #847618",
"J  c #8F711B",
"K  c #967E15",
"L  c #A66C16",
"P  c #A87617",
"I  c #AE7C1E",
"U  c #C4401B",
"Y  c #CB601F",
"T  c #CF7621",
"R  c #538302",
"E  c #578A02",
"W  c #588D01",
"Q  c #56850C",
"!  c #5D8E0C",
"~  c #5A9400",
"^  c #5B9800",
"/  c #5D930D",
"(  c #5E8B12",
")  c #608F06",
"_  c #608E09",
"`  c #619400",
"'  c #679C03",
"]  c #689F02",
"[  c #65960D",
"{  c #669B0C",
"}  c #689F0B",
"|  c #608E12",
" . c #649513",
".. c #669912",
"X. c #689D12",
"o. c #66A700",
"O. c #69A402",
"+. c #67A802",
"@. c #6BAB02",
"#. c #67A00C",
"$. c #69A30A",
"%. c #6DAA0A",
"&. c #70AE0D",
"*. c #6EB301",
"=. c #6FB800",
"-. c #72B405",
";. c #71BA01",
":. c #72B30D",
">. c #76BB0F",
",. c #78BE0E",
"<. c #6BA412",
"1. c #6EAA11",
"2. c #70AE11",
"3. c #73B310",
"4. c #75B810",
"5. c #79C306",
"6. c #7AC30D",
"7. c #7DCA0C",
"8. c #9A8414",
"9. c #9F8816",
"0. c #97821A",
"q. c #A48D1B",
"w. c #AD941B",
"e. c #B49E1F",
"r. c #B89E1F",
"t. c #B9A01E",
"y. c #A69020",
"u. c #B49C22",
"i. c #BEA420",
"p. c #C68820",
"a. c #D59525",
"s. c #D29B25",
"d. c #C4A625",
"f. c #CCA724",
"g. c #C9AD23",
"h. c #D8A026",
"j. c #CEB225",
"k. c #D0B526",
"l. c #DCB529",
"z. c #D4BB29",
"x. c #D9BB28",
"c. c #80CF0D",
"v. c #DEC12B",
"b. c #E0C32B",
"n. c #E4C92E",
"m. c #E1CC32",
"M. c #EBD536",
"N. c #F1DA37",
/* pixels */
"+.@.-.+.' +.@.*.*.*.*.*.*.@.O. .' ' ' {  . .} *.*.} ' O.O.O.{  . . ... .+.-.$.@.*.$.{ *.%.X.X.X.} *.@. . . .} *.%.@.*.O.] O.*.*.",
"@.*.*.} O.O.-.*.-.*.@.*.@.+.'  .' ' ' {  .{ @.*.@.{ [ ] O.'  . . .#.#.#.;.*.O.@.@.$.*.*.X...#.O.*.-.{  ...$.*.*.+.@.@.} O.*.-.+.",
"@.*.+.{ O.@.@.*.=.+.+.@.@.O.{  .[ [ ' $.O.O.+.*.$. .[ ' ' {  .{ @.%. .@.=.%.+.@.+.@.*.$. .+.%.+.=.@...#.%.@.;.O.O.+.@.O.*.*.+.O.",
"*.*.} } *.*.+.=.*.O.@.@.O.] [  . .[ %.;.%.} @.@.}  . . . . .#.-.*. .#.=.*.O.O.@.*.*.@...%.-.%.@.*.O.%.*.+.-.*.} O.O.O.@.@.@.O.O.",
"-.+.+.;.*.' *.=.@.] O.O.] ' [  . .%.*.+. .O.+.O.{  . . . .{ @.*.{  .@.;.*.} O.O.*.*.O.%.;.O.O.@.@.*.=.*.*.*.O.{ ' O.@.+.*.O.' O.",
"@.@.*.-.{ } *.-.} ' O.] ' [  .[ O.*.*...[ O.O.O. . . . .{ +.@.O. .} @.-.O.' O.*.-.@.O.*.*.} +.@.*.*.-.*.@.*.$.[ ' ] O.@.+. .} -.",
"O.@.*.O. .O.-.*.{ ' ] '  ...} O.=.*.'  .[ ] ] ]  . . ...O.O.+.{ ..O.@.@.} O.*.*.+.@.@.*.$.' O.@.*.*.=.+.@.@.{  .[ ' O.*.}  .@.=.",
"O.O.+.{ ..@.*.+.[ [ [ '  .$.#.*.-.O.{  .{ ] ' '  . .{ ' ' ] ] } { O.+.+.O.*.*.@.O.@.*.*.X.' @.*.@.=.*.O.+.+. . . . .*.*. .#.=.=.",
"' ] O. .} *.-.$. . . .[ O.+.%.*.+.' [ { $.{ ' [ ..$.$. .[ ' O.%.{ ] O.O.@.*.@.O.O.*.*.O.{ *.*.+.*.-.O.O.+.'  . . .@.;.#. .@.-.@.",
"[ [ [  .O.-.+.{ |  .X.*.=.%.@.*.} { +.%. . .....@.*. . .[ { *.#.[ ' O.+.+.@.O.' O.*.@.+.*.*.' O.=.*.' ] O.}  . .} -.*. .} *.*.$.",
" . . .{ =.*.O.[  .%.*.=.*.O.*.@.{ %.*... ...{ @.=.X. . ...*.%. .[ [ ' O.@.*. .{ *.*.+.-.*.%.{ @.=.O.' ' ] {  . .+.*.O. .O.*.+.{ ",
" . . .*.*.O.] { @.-.;.;.$.+.@.+.%.=.}  .{ O.+.;.@. ...$.@.*.{  . .[ [ ] *.$. .%.;.@.+.*.@. .$.*.*.#.' ' ] [  .} *.*.#...+.@.O. .",
" . .%.=.+.] ] O.*.*.;.-.$.@.@.@.*.*. .#.*.$.*.*.{ #.@.%.=.*. . . . .#.*.*...} -.-.O.+.+.O. .+.-.*...[ { [ [  .O.@.@.[ { O.O.O. .",
" . .*.*.O.' O.+.@.=.=.@.' O.@.*.-.$.$.=.%.o.*.@.@.=.@.*.*.$. . .X.1.%.;.%. .+.*.@.' ' ' [ { @.*.O. . . . .} } O.@.O. .' O.O.{  .",
" .O.*.*.{ ' O.O.@.=.-.O.O.@.*.*.@.O.*.*.{ O.+.*.=.=.*.*.*.X. .2.>.$.-.=.{ { @.*.$. .[ [  .} -.*.O. . ...O.} } O.@.O. .' ' ' [  .",
"%.@.*.+. .[ ' ' -.*.@.+.*.*.*.@.+.*.*.$.] +.*.*.*.=.@.@.@.X.4.6.<.O.-.@. .} @.*.{  . . . .*.*.+.{  .$.*.%. .' O.O.{  .{ ' ' [ { ",
"$.+.@.O. . . .%.-.@.*.=.=.=.@.+.@.*.*...] @.*.R &     & R :.6.1.{ R &         & k  . . .+.=.+.O.{ %.*.+. . .' ] O.[  . . .{ +.@.",
"O.@.@.{  . .1.>.@.*.=.*.*.*.O.O.*.*.O.{ +.+.W s 5 - > 5 k / 1.( R h 5 > - = X + 8 v ( X.=.=.' ' O.@.*... .[ ' ' ' [  . .{ @.-.X.",
"O.O.O.[  .X.6.-.@.-.*.@.@.o.' O.*.*.O.@.*.E 4 5 H w.w.H 5 2 Q v 1 5 H y.y.m = . + 3 v @.=.@.' O.@.+.O. . . .[ ' ' [  .[ +.*.%. .",
"] O.] [ ..,.,.O.+.*.@.+.@.} ' *.*.+.@.@.R a 5 r u.v.v.r.y 5 f f 5 e I a.a.I e = X % j *.*.#.[ ' O.O. . . . .$.{ [ [  .O.@.O. . .",
"' ' '  .2.7.2.] O.O.O.*.$. .O.;.@.@.*.W 3 5 H u.k.v.v.k.u.H > 0 H I S Z U S I m = % R @.@... .' ' '  . .$.@.X. . . .' ] O.'  . .",
"' ' ' X.,.,.} { ' O.@.*. .X.=.-.O.@.@.h % > y.x.g.g.g.g.z.u.y 9 I T Z M M U a.u.y 5 s W '  . . .[ [  .+.;.#.|  . . .[ ' ] {  . .",
" .[ [ 2.>.3. . .{ O.=.%. .+.;.+.O.O.O.k % - y.j.w.q.q.w.k.k.u.I S Z Z M M U a.k.u.H 5 2 Q  . . . . .O.-.%. . . . . . .[ {  . . .",
" .| X.3.>.1. . .{ *.*...{ *.-.} [ ' ' k & - 0.i.K F F 0.u.j.v.s.Y Z N N N S s.v.v.y.- & h  . . . .O.@.@.{  . . . . . . . .X... .",
" . .<.3.3.X. . .%.-.+. .O.*.@.{  .[ [ g & * b K F i i F K w.k.l.s.p.L A A P f.b.v.y.> & h  . . .' O.+.O. . . . . .{  . .1.<. . .",
" . .1.2.2... .X.@.*.} { @.@.O. . . . .Q 6 ; 0 r 9 w w w r b 0.y.y.0.b t t b 0.q.y.H 5 1 l  . .#.' O.O.[  . . . .$. . .3.3. . . .",
" ...1.1.1... .O.*.@...{ +.@.}  . . .{ +.~ p ; # # # # O # # - > , - * # # * - > > 5 a z (  .$.#.[ ' ' .. . ...@.{  .3.6. . . . .",
" ...<.<.X. . .@.@.@. .' O.O.{  . . .@.=.@.z 1 + .   o O O O O # O O O O O o . . $ 1 l  . .%.+. . .[ [  . ...%.@. .3.7.1. . . . .",
" .X.X.X.X. .' @.@.O. .' ] ] {  . .#.*.*.O.! R 7 + o < w w w w w w w w w < < O + 7 v |  .$.*... . . . . .$.%.*.{ <.6.>... . . . .",
"$.X.......$.O.O.O.{ [ ' ' ' .. .#.@.*.@. .) R q ; , u J J J J J J J J J K i , > 8 v  .%.=.%. . . . ...+.$.-.@.X.>.>.:. . . . . .",
".. . ...%.$.' O.O.{  .[ ' [ } +.%.@.*.O. .x 3 ; 0 F y.d.d.d.d.d.d.d.d.d.d.y.n 0 ; 2 E *.*.{  . . . .@.%.+.*.$.1.>.;.<. . . .X.%.",
" . . .$.@...' ] ] [  . .X.O.*.$.} +.@.}  .k % * b w.x.n.b.x.b.b.n.n.b.b.b.k.w.b * % R *.*. . . . .%.*.$.*.*.X.%.5.:. . . .X.=.%.",
" . .%.*.}  .' ' '  .X.$.@.*.+. .O.*.+.[  .g % - 0.z.M.N.n.v.v.m.N.N.n.v.v.x.j.0.- & R *.$. . . .#.=.%.+.-.O.%.;.>.$. .{ $.*.*...",
"#.O.*.-. . . .[ { <.4.@.@.@.....-.O.o.[  .v & > y.v.m.m.v.v.v.v.m.m.b.b.n.n.v.w.> & R *.{  . ...*.=.$.+.@.O.*.;.&.<.%.%.+.-.$. .",
"@.@.-.O. . . . .$.6.&.O.@.} ..>.-.' '  .<.! & > y.j.e.t.k.v.v.j.u.r.j.n.N.N.m.y.> & R +... . .%.=.*.O.+.@.@.-.-.<.*.+.O.*.*.{ %.",
"*.*.-.{  . . .<.6.>.' ] O.{ >.>.' ' { 1.6.Q % > y.g.9.9.j.v.v.j.w.e.j.v.m.m.v.y.> & j o. . .[ *.=.O.O.O.+.*.*.$.-.-.#.@.@.@.*.=.",
"*.*.@. . . .X.,.c.X...] ' 1.7.1.[ [ $.6.6.k % > y.g.9.9.g.v.v.z.j.j.v.k.u.t.j.y.- % j }  . .O.*.*.} O.O.-.*.@.@.;.+.O.@.@.*.*.*.",
"+.*.$. . . .2.,.3. .<.X.<.7.6... .{ :.6.1.v 3 5 H q.q.q.i.g.g.g.g.g.g.i.w.9.q.H 0 1 R '  . .O.-.@.{ +.*.*.+.O.*.-.{ ] O.*.*.=.*.",
"@.@.}  . .X.4.,.1.1.2. .4.c.3. . .1.,.>.X.( l f 5 y w.i.w.9.9.9.9.9.9.q.i.w.e 5 q z ` {  ...+.@.O.O.*.*.O.O.*.*.@.{ ] @.*.*.=.@.",
"O.O.[  . .1.3.2.2.>.X.X.6.7.<. . .2.4.2. . ...l 2 5 m q.9.8.G D D G 8.9.y.H 5 1 z ' '  . .{ O.O.+.@.*.@.O.O.*.*.} } *.@.+.=.*.O.",
"O.O. . ...2.2.3.6.1. .3.6.4... .<.2.2.<. . ...{ x h 5 e w.i.9.D D 8.t.q.e 5 s x ! [ [ [  .' ] O.@.@.@.O.] @.-.@.O.*.*.' *.;.+.O.",
"] O. . ...1.2.6.6. .X.4.4.3... .<.1.1.X. .[ @.} @.^ 1 5 H 9.9.9.9.9.q.H 5 4 E  . . .[ } [ ' ' O.O.*.+.[ ' ;.@.O.*.*.} } *.*.} ' ",
"] '  . .X.X.3.7.3. .<.3.4.<. .<.1.<.X.X.{ %.@.#.;.+.x f 5 y y.g.g.y.y 5 h E [  . .#.@.X. . .{ ' O.*.{  .@.;.O.*.*.+. .@.*.@.{ ] ",
"' ' |  . .<.,.7.<. .1.3.3.1.4.1.....<.$.%.=.#.@.*.+. .R 2 5 m y.y.m 5 4 ~ +.{ ..%.*.}  . . . .{ -.@. .#.;.*.O.+.@.{ ..@.*.%.[ ' ",
"[ [ .. . .2.,.4. . .2.1.3.7.3. . .X.@.$.*.*.{ *.*.O.{ ' E s 5 > > 5 s ^ o.+.{ +.;.%. . . . . .@.=.{ ..@.*.+.] O.O. .} *.*.}  .[ ",
"{ %.X. .X.3.4.2. .1.2.2.6.4... ...@.%.@.*.$.O.*.*.X.{ O.o.W 2 % % 1 ^ =.+.O.O.*.-.X. . . . .#.;.*. .$.*.*.{ { ' '  .O.*.@.{  . .",
"@.X. . .<.3.4.<.1.4.<.3.>.1. . .+.=.$.@.*.} +.*.+...' O.+.@.R g k W @.*.' ' +.;.%. . . . ...*.*.$. .+.*.+... . . .{ *.*.O.[  .} ",
"#. . . .<.3.2.2.6.1.1.3.2... .$.=.%.o.*.$.$.=.*.O. .O.@.*.*... .%.=.=.%.[ O.-.5.X. . ...{ O.*.*.{ { @.@.$. . . . .@.=.O.O. .%.*.",
" . . . .1.1.3.7.4.<.<.1.<. ...=.-.$.+.@.O.*.*.O.O.@.+.*.*.%.$.*.*.;.-... .O.c.&. ...$.@.{ @.@.@. .} O.+.{  . . .$.;.@.] ] O.*.*.",
" . . . .<.1.>.7.1...X.<.X.X.&.=.*.$.+.@.*.-.@.O.*.@.$.*.*.*.=.*.*.;.@. .X.,.,.X...@.-.{ ..@.@.O. .] O.O.{  . . .*.;.O.' O.@.@.} ",
" . . .<.<.1.6.6.X. . .<.3.%.*.=.O.' O.@.*.*.O.*.*.$.@.@.=.;.-.*.-.=.O. .&.c.&.{ @.*.}  .} +.@.'  .' O.O.[  . .%.-.*.{ ' O.O.O. .",
" .{ %.#.<.4.6.3. . .<.6.1.$.*.*.O.] O.*.*.+.@.=.+.O.@.-.;.=.*.*.*.*...X.,.c.<.O.@.@. ...@.@.O.{ [ ' @.O. ...O.@.*.+. .[ ] O.'  .",
"@.*.{ { <.4.6.<. .1.6.:...+.*.+.} +.-.*.O.@.*.*.{ O.*.*.*.=.*.@.*.@.} 2.6.>.} O.+.' X.3.@.O.] [  .&.&.{ O.O.O.@.@.}  .} $.' [  .",
"=.#.#...1.4.3.X.<.>.4.X...O.@.O.O.*.*.+.O.@.*.@.{ O.*.*.*.=.@.@.@.+.{ 4.>.&.' ] O.:.6.$.' ' ' [ 2.>.} *.-.X.O.+.@.X.2.2. . .X.O.",
"$.%.#. .3.3.3.<.2.3.1. .' O.O.@.@.*.@.O.O.*.*.' } *.@.@.=.=.O.+.@.' <.4.3.<...] -.6.2...' ' ' <.6.&.@.-.}  .O.O.-.,.:. . . .O.*.",
"@.@. .<.1.3.1.#.1.2.X. .[ ' O.@.@.@.] ' +.;.@.+.*.*.O.@.;.@.' O.O.{ 1.2.2.X...&.,.4... .[ [ { 6.6.@.@.O. .[ O.-.7.,. . . .} @.@.",
";.$. .X.1.1.<.X.X.<. .{ { ' ' O.@.+...} *.@.@.-.*.} } *.-.' ' ] ] { 1.2.1...X.3.3.<. . . . .3.c.-.O.O.{  .[ @.5.5.$. . . .] @.@.",
"*. . .X.$.1.X. . .X.#.{  . .' O.*.X. .*.;.+.@.*.%. .O.*.*.[ ' ' ' X.<.<.X...<.2.1... . .{ X.6.6.@.' O. . .} -.>.:. . . .[ @.@.@.",
"%. . .%.%.<... . .%.%. . . .} =.@. .$.;.*.O.O.O.{  .@.*.+. .[ ' '  .X.X.X...X.<.X. . .#.{ 2.6.4...' '  . .$.:.:.$. . . .%.@.O.;.",
"[  .%.%.......X.@.@. . . .{ *.=.{ { @.-.O.' O.] [ $.*.*.$. . . . .{ { X... . . ... .#.%.X.4.,.2. . . . . .X.<.<..... .X.*.O.@.-.",
" .@.*... .{ $.@.*.{  . .X.*.=.*. .$.*.*.{ [ [ [  .+.=.+.{  . ...%... . . . . . .{ } *.{ <.4.4.X. . . . . . ..... . ...*.*.O.@.*.",
"@.=.X. .#.O.+.;.%. ...$.*.=.*.#. .O.@.@. . . . .{ *.*.O... .%.*.X. . . . . . .X.{ =.%. .1.3.3...|  . . ..... . . ...@.;.%.O.@.+.",
"*.+. .%.@.%.*.*.{ $.*.%.=.=.*.X.{ @.+.O. . . . .@.;.O.O...@.*.$. . . . . . .#.%.@.-.{ ..1.2.2... . . .X.#. . . ...@.;.;.O.+.@.@.",
"*.$.$.=.$.o.*.@.@.=.+.*.=.*.@. .} O.+.'  . . .%.;.@.] ] +.*.@. . . . . . .#.@.$.-.@.....&.&.1. . . .$.@. . . ...@.*.-.*.' O.@.*."
};
