/* XPM */
static char *gm21704828125[] = {
/* columns rows colors chars-per-pixel */
"64 64 156 2 ",
"   c #020100",
".  c #070B01",
"X  c #0E0C03",
"o  c #161004",
"O  c #1D1605",
"+  c #141F00",
"@  c #1F1805",
"#  c #2F0505",
"$  c #2C0B05",
"%  c #261704",
"&  c #221D04",
"*  c #311007",
"=  c #142100",
"-  c #192604",
";  c #1B2B01",
":  c #282305",
">  c #2A2408",
",  c #352509",
"<  c #322B09",
"1  c #2D3404",
"2  c #37300A",
"3  c #3A330C",
"4  c #3E390F",
"5  c #41330C",
"6  c #493C0C",
"7  c #503D0F",
"8  c #2D4503",
"9  c #2F4B01",
"0  c #2C4208",
"q  c #304E01",
"w  c #3E4309",
"e  c #315200",
"r  c #3B5E02",
"t  c #4D400F",
"y  c #51460D",
"u  c #5C470F",
"i  c #544C08",
"p  c #435F04",
"a  c #465F0E",
"s  c #584110",
"d  c #5D4E11",
"f  c #71460D",
"g  c #64530D",
"h  c #67580B",
"j  c #615412",
"k  c #745C15",
"l  c #7A5F14",
"z  c #456303",
"x  c #486505",
"c  c #4A6B05",
"v  c #47620B",
"b  c #48640A",
"n  c #4B6F0F",
"m  c #4D7405",
"M  c #4F7B03",
"N  c #4C720C",
"B  c #4F780D",
"V  c #537E03",
"C  c #537B0D",
"Z  c #517710",
"A  c #517810",
"S  c #776610",
"D  c #796117",
"F  c #7E6E14",
"G  c #7D6C18",
"H  c #8D1010",
"J  c #BC1616",
"K  c #84220F",
"L  c #933014",
"P  c #AF2E14",
"I  c #965E11",
"U  c #BC531B",
"Y  c #8A760F",
"T  c #846C13",
"R  c #857213",
"E  c #8F7B11",
"W  c #847618",
"Q  c #8F711B",
"!  c #967E15",
"~  c #A87617",
"^  c #A0701C",
"/  c #AE7C1E",
"(  c #C4401B",
")  c #538302",
"_  c #578A01",
"`  c #588D01",
"'  c #55850B",
"]  c #5D8E0C",
"[  c #5A9400",
"{  c #5B9800",
"}  c #5E8B12",
"|  c #608F06",
" . c #608E09",
".. c #619400",
"X. c #679C03",
"o. c #689F02",
"O. c #65960D",
"+. c #669B0C",
"@. c #689F0B",
"#. c #649513",
"$. c #669912",
"%. c #689D12",
"&. c #66A700",
"*. c #69A402",
"=. c #67A802",
"-. c #6BAB02",
";. c #67A00C",
":. c #69A30A",
">. c #6DAA0A",
",. c #70AE0D",
"<. c #6EB301",
"1. c #6FB800",
"2. c #72B405",
"3. c #71BA01",
"4. c #72B40D",
"5. c #76BB0F",
"6. c #78BE0E",
"7. c #6BA412",
"8. c #6EAA11",
"9. c #70AE11",
"0. c #73B310",
"q. c #75B810",
"w. c #79C306",
"e. c #7AC30D",
"r. c #7DCA0C",
"t. c #9A8414",
"y. c #9F8816",
"u. c #97821A",
"i. c #A48D1B",
"p. c #AD951B",
"a. c #B49E1F",
"s. c #B89E1F",
"d. c #B9A01E",
"f. c #A69020",
"g. c #AF9621",
"h. c #AD9924",
"j. c #A99C28",
"k. c #B49C22",
"l. c #BEA321",
"z. c #B9AA2D",
"x. c #D59525",
"c. c #D29B25",
"v. c #C4A625",
"b. c #CCA724",
"n. c #C9AD23",
"m. c #CEB225",
"M. c #D0B427",
"N. c #D4BB29",
"B. c #D9BB28",
"V. c #80CF0D",
"C. c #DEC12A",
"Z. c #E0C32B",
"A. c #E4C92E",
"S. c #E1CC32",
"D. c #EBD536",
"F. c #F1DA37",
/* pixels */
"=.-.2.=.X.=.-.<.<.2.-.<.<.-.*.#.X.o.o.O.#.#.@.<.<.X.+.*.*.=.+.#.#.#.$.+.:.1.:.-.<.:.+.<.>.%.%.$.:.2.-.#.#.#.+.1.:.<.<.*.X.*.2.<.",
"-.<.<.@.*.*.2.<.1.<.-.<.<.*.@.#.X.X.X.O.#.+.-.<.-.+.O.*.*.X.#.#.#.:.;.+.1.<.*.-.-.:.<.<.%.$.:.:.-.3.+.#.$.:.<.<.*.-.-.+.*.<.<.=.",
"-.<.-.O.*.-.<.<.1.=.=.-.=.*.+.O.+.X.+.*.=.*.-.2.:.#.O.X.X.O.#.$.-.>.#.-.3.>.=.-.-.-.2.:.#.>.=.=.<.-.$.:.>.-.3.*.*.=.-.*.<.<.=.*.",
"<.<.:.@.<.-.=.1.<.*.-.-.*.X.O.#.#.#.*.2.:.:.-.-.@.#.#.#.#.#.@.<.>.$.:.1.2.X.-.=.-.<.-.$.>.<.:.<.<.:.>.<.=.2.<.@.*.*.-.-.-.-.*.*.",
"<.=.=.3.<.X.-.3.-.o.*.*.*.X.O.#.#.>.<.=.#.*.=.*.O.#.#.#.#.@.<.<.+.#.-.3.<.@.*.*.<.<.*.-.3.*.*.-.-.<.1.<.<.<.*.+.X.*.-.=.<.*.X.-.",
"-.-.<.<.+.+.<.2.@.X.o.*.X.O.#.O.=.<.<.$.O.*.*.*.#.#.#.#.+.*.-.*.#.+.<.<.*.X.*.<.<.-.=.2.<.@.-.-.<.<.2.<.-.<.:.O.X.o.*.-.=.#.+.<.",
"*.-.<.*.#.-.2.<.+.X.X.X.#.$.@.*.1.<.X.#.O.o.o.o.#.#.#.O.*.&.*.O.#.*.-.-.:.*.<.<.=.-.-.<.:.X.*.-.<.<.<.=.-.-.+.#.O.X.*.<.@.#.-.3.",
"*.*.*.@.$.-.<.=.O.O.+.X.#.:.:.-.2.*.+.#.+.o.X.X.#.#.@.@.X.X.*.@.+.*.=.*.*.<.<.-.*.-.<.<.$.X.=.<.<.1.<.*.=.=.#.#.#.#.<.<.#.@.1.2.",
"X.X.X.#.@.<.<.@.#.#.#.O.*.-.:.1.-.@.O.:.:.O.X.O.$.:.:.#.O.X.*.=.+.*.*.*.-.<.-.*.*.<.<.*.:.<.<.*.<.2.*.*.*.*.#.#.#.-.3.:.#.-.2.-.",
"O.+.X.#.=.2.-.+.#.#.%.<.1.:.<.<.+.+.=.:.#.#.#.+.-.<.#.#.#.+.<.%.O.X.*.*.=.-.*.X.*.2.-.=.<.<.@.&.1.<.X.o.*.+.#.#.@.2.<.$.+.<.<.:.",
"#.#.#.%.<.<.*.O.#.=.2.3.<.:.<.-.$.=.<.#.#.$.@.-.1.%.#.#.$.<.-.#.O.O.X.*.-.<.$.+.<.<.=.2.2.:.+.-.1.=.X.X.o.+.#.#.=.<.=.#.*.-.=.+.",
"#.#.$.-.1.*.o.+.*.2.3.3.:.-.-.*.>.1.:.#.+.=.-.2.-.#.$.:.-.1.%.#.#.O.O.*.<.:.#.=.3.-.=.<.-.#.:.<.2.+.X.X.X.O.#.@.<.<.+.$.-.-.*.#.",
"#.#.:.3.-.X.X.-.<.<.3.2.:.=.=.-.<.-.$.:.<.:.-.1.+.:.<.>.<.<.#.#.#.#.:.<.1.#.%.2.2.*.*.=.*.#.=.2.<.$.+.O.+.O.#.*.-.-.O.+.*.*.*.#.",
"#.#.<.1.*.X.*.=.-.<.3.=.@.&.-.2.2.:.:.1.*.*.<.-.>.1.=.<.1.:.#.#.%.7.>.3.:.#.=.<.=.X.X.o.+.O.-.<.*.#.#.#.$.+.@.*.-.-.#.X.*.*.+.#.",
"$.:.<.<.+.X.*.*.-.<.2.*.*.-.<.<.-.*.<.<.:.=.-.<.1.<.<.<.<.+.#.0.5.:.2.1.+.+.-.<.:.#.O.+.#.+.3.<.@.#.#.+.=.+.@.*.-.X.#.X.X.o.O.#.",
"*.-.<.=.#.O.X.X.2.<.<.=.<.<.<.-.=.<.<.:.*.*.-.1.1.<.-.-.-.%.q.e.7.*.2.-.#.:.-.<.+.#.#.#.#.<.<.*.@.#.:.<.:.O.@.*.*.@.#.O.X.X.O.+.",
":.-.-.*.#.#.#.,.2.-.<.1.1.1.-.=.-.2.<.$.X.=.2.<.1.-.=.) ;     - m ) ;             - n #.=.3.=.*.O.*.1.-.#.#.X.o.*.O.#.#.#.+.=.<.",
"*.-.=.+.#.#.7.5.-.<.3.<.<.-.*.*.<.<.*.+.=.&._ [ &.X._ c w 2 3 w b z 1 o   X > 3 2 4 a ' -.<.*.X.&.-.<.$.#.O.X.X.X.O.#.#.+.-.2.$.",
"*.*.*.O.#.7.e.2.-.<.<.-.<.*.X.=.<.-.*.-.1._ q q ` ) 8 w W i.f.W w 1 6 5 o > G f.f.W w 9 [ -.X.X.-.=.:.#.#.#.O.X.X.O.#.O.-.<.:.#.",
"o.o.*.O.$.6.6.*.-.<.=.-.-.+.X.<.<.=.<.-.) z w t c z w j k.C.C.k.j 3 7 7 5 u / x.x.Q , ; ) :.O.*.*.*.O.#.#.#.:.+.O.O.#.*.-.=.#.#.",
"X.X.o.#.9.e.,.o.*.*.*.<.:.#.*.3.-.-.1.` 0 w F W w w W k.M.C.C.M.k.R 5 4 R / U ( ( L * : ) #.#.{ X.X.#.#.:.-.%.#.#.#.X.*.*.X.#.#.",
"X.X.O.%.6.6.@.+.X.*.-.<.#.%.3.<.*.-.=.m - 2 i.z.j j k.B.m.n.b.n.B.k.j j k.x.( J J H $ ; ) #.#.#.O.O.#.=.2.:.#.#.#.#.O.X.o.O.#.#.",
"O.O.O.9.6.0.#.#.+.*.3.:.#.=.3.=.*.*.*.N - 2 f.m.k.k.m.m.p.i.i.p.M.M.k.k.M.x.( J J H # ; m #.#.#.#.#.-.2.=.#.#.#.#.#.#.O.+.#.#.#.",
"#.#.$.0.q.9.#.#.$.1.<.$.+.<.2.@.O.X.X.N ; 2 f.C.C.B.m.s.! T T ! k.M.B.B.C.c.U P P K $ ; N #.#.#.#.X.-.-.$.#.#.#.#.#.#.#.#.%.$.#.",
"#.#.7.0.0.7.#.#.:.3.=.#.*.<.-.+.#.O.O.n ; 2 i.Z.C.m.p.! T D l T ! p.m.C.C.b.~ I I f % ; m #.#.#.X.*.&.:.#.#.#.#.#.O.#.#.7.7.#.#.",
"#.#.7.9.9.$.#.$.<.<.:.#.-.-.=.#.#.#.#.' e w W f.f.u.S g s s s d g S u.f.f.u.S h h i 1 8 C #.$.+.X.*.&.O.#.#.#.$.:.#.#.0.0.$.#.#.",
"#.#.7.9.7.#.#.*.<.-.$.+.*.-.@.#.#.#.+.&.[ x w 2 2 < : & @ O O % & : < < 3 < : & & 1 z V } #.>.+.O.X.X.O.#.#.#.>.+.#.0.e.%.#.#.#.",
"#.%.7.7.7.#.#.-.-.-.#.X.*.*.+.#.#.#.-.3.-.V 8 = . . o @ O O O % % @ O O @ o   . = 0 C #.#.*.>.#.#.O.O.#.#.$.-.>.#.4.r.9.#.#.#.#.",
"#.%.%.7.%.#.*.*.-.*.#.X.o.o.+.#.#.%.<.<.*.] ) r + o 5 7 u 7 7 s s 7 y u s 5 o = r A } #.:.<.$.#.#.#.#.#.+.:.3.%.7.e.5.%.#.#.#.#.",
":.%.$.%.$.:.*.*.-.+.O.X.X.o.#.#.;.-.<.-.O.| V p 1 3 k Q Q Q Q Q Q Q Q Q Q D t t v A #.:.1.>.#.#.#.#.$.=.:.1.<.$.4.e.,.#.#.#.#.#.",
"$.#.#.#.>.:.o.o.o.O.#.O.X.+.@.-.*.-.<.:.#.C 0 1 i T p.v.b.b.v.v.v.v.v.v.v.z.p.F w 9 _ <.1.+.#.#.#.#.-.>.=.1.:.7.5.3.7.#.#.#.#.>.",
"#.#.#.:.-.#.o.o.o.O.#.#.$.*.<.:.:.-.-.@.#.n - : S p.n.Z.A.A.Z.C.Z.Z.A.A.C.C.C.f.< ; ' 1.-.#.#.#.#.>.<.:.<.<.+.,.w.4.#.#.#.%.2.>.",
"#.#.:.1.@.#.X.X.X.#.%.,.-.2.=.#.*.<.=.+.#.n - < u.m.C.S.F.F.A.C.C.A.F.F.A.Z.C.f.2 ; ) <.:.#.#.#.;.1.>.:.-.-.:.3.6.:.#.+.:.<.<.#.",
":.=.<.2.#.#.#.#.X.7.0.*.-.-.$.$.2.*.*.#.#.A ; 3 h.A.C.C.S.S.C.C.C.Z.S.S.Z.Z.Z.k.3 ; ) <.+.#.#.$.1.1.*.=.-.-.2.3.,.7.:.>.-.3.:.#.",
"-.>.2.*.#.#.#.#.7.6.,.*.=.*.$.5.2.o.:.#.7.] ; 4 z.F.C.N.d.d.m.C.C.M.k.s.M.S.F.z.4 ; ) =.$.#.#.=.1.<.:.*.-.-.2.-.7.<.>.*.<.<.+.>.",
"<.<.2.@.#.#.#.7.e.6.X.o.*.+.0.6.X.X.{ 8.e.' - 4 z.D.C.d.i.p.m.C.C.m.p.p.M.Z.S.j.2 ; V *.#.#.$.<.1.*.*.*.-.<.<.>.<.2.:.=.-.-.<.1.",
"-.<.-.#.#.#.#.5.e.7.O.@.@.>.r.8.O.O.*.e.e.n - 3 h.C.p.i.l.m.N.C.C.B.m.m.B.M.s.F > ; V @.#.#.*.2.<.:.o.*.2.<.-.*.2.-.X.-.-.<.<.<.",
"-.<.*.#.#.$.9.e.0.$.7.@.7.r.e.$.#.#.6.e.8.A 0 w W i.y.p.l.n.m.n.n.n.n.m.B.v.R i 1 8 ) +.#.#.-.-.-.+.=.<.<.=.-.<.<.@.*.*.<.<.<.1.",
"-.-.+.#.#.%.q.6.7.7.9.#.q.V.0.#.#.7.0.6.$.} B v w j i.d.p.y.y.y.y.y.y.p.m.k.t 1 p V ..O.#.#.=.-.*.*.<.<.-.*.-.<.-.+.*.-.<.<.1.-.",
"-.=.+.#.#.8.0.0.9.6.$.7.e.r.7.#.%.0.0.9.#.#.#.' 9 w F p.y.t.E R Y E t.i.i.W w 9 V X.X.O.#.@.*.*.=.-.<.-.*.*.<.<.@.+.-.<.=.1.<.*.",
"*.*.#.#.#.9.9.0.e.8.#.0.e.q.%.#.%.9.0.7.#.#.+.O.C m w d f.k.t.E Y t.a.i.i w m C ] O.+.#.#.X.o.*.-.-.-.*.X.-.2.-.*.<.<.o.-.3.=.*.",
"o.X.#.#.%.7.9.e.e.$.%.q.e.0.#.#.7.9.8.$.#.#.-.:.-.{ 9 w W i.y.y.y.i.i.W t q ) #.#.#.O.@.+.X.X.*.*.-.=.O.X.<.-.-.1.<.+.@.2.1.@.o.",
"o.X.#.#.%.%.0.r.0.#.7.0.0.7.#.7.7.%.7.$.%.-.>.:.3.=.C b t i i.m.n.i.d w m _ O.#.#.:.=.%.#.#.+.X.-.<.$.#.<.1.*.<.<.=.#.-.<.-.+.X.",
"X.X.#.#.#.7.e.e.7.#.7.0.0.7.q.8.%.%.7.:.>.1.;.=.<.=.#.) q w W f.f.W w e [ =.O.#.>.1.+.#.#.#.#.+.<.-.#.:.1.<.*.=.-.+.$.-.2.*.O.X.",
"O.O.$.#.#.9.6.q.$.#.0.8.0.r.0.#.#.%.-.:.<.<.+.<.<.:.+.X._ c 4 3 2 w m [ &.*.O.-.<.>.#.#.#.#.#.-.3.+.#.<.2.*.o.*.*.#.@.<.<.:.#.#.",
"+.:.%.#.%.0.6.9.#.8.8.9.e.q.%.#.#.<.:.=.<.:.*.<.1.+.+.*.&.` 9 - - 0 { 1.=.*.-.<.3.%.#.#.#.#.:.3.<.#.:.<.<.@.+.X.X.#.=.<.-.+.#.#.",
"<.%.#.#.7.0.0.7.8.q.7.4.5.7.#.#.-.2.:.<.-.@.=.<.=.#.X.*.-.=._ n N [ -.<.o.*.*.3.,.#.#.#.#.$.-.<.:.#.*.<.=.#.#.#.#.+.<.<.&.$.#.:.",
"+.#.#.#.7.0.9.9.e.7.8.0.0.$.#.:.1.>.*.<.=.:.1.<.*.O.:.&.1.1.$.$.:.3.1.:.O.o.2.w.$.#.#.$.%.*.<.<.+.+.-.-.:.#.#.#.#.-.3.*.X.+.:.<.",
"#.#.#.#.8.8.9.e.e.%.7.7.7.#.#.1.2.:.=.-.-.-.2.*.*.=.-.-.<.:.:.<.2.3.2.+.O.>.V.,.#.#.:.-.+.-.-.-.#.@.*.=.+.#.#.#.:.3.-.o.o.*.<.<.",
"#.#.#.$.8.8.6.r.8.#.%.7.7.7.,.1.<.:.=.-.<.2.-.*.<.-.*.<.<.<.1.<.<.3.-.#.#.6.6.$.$.-.2.+.$.-.-.*.#.o.*.*.O.#.#.#.<.3.*.X.*.-.-.@.",
"#.#.#.7.:.8.r.e.%.#.#.7.0.>.<.1.*.X.*.-.<.<.*.<.<.:.-.<.1.3.2.<.1.1.:.#.4.V.9.$.-.<.:.#.@.-.-.X.#.o.*.*.O.#.#.>.2.<.+.X.*.*.*.#.",
"#.+.>.;.%.5.e.0.#.#.7.e.8.:.<.1.*.o.*.<.<.=.-.1.=.:.-.<.1.1.1.<.<.<.+.$.6.V.:.o.-.-.#.#.-.-.*.+.O.X.-.o.#.+.:.<.<.=.#.O.o.*.X.#.",
">.1.+.+.7.q.q.8.#.9.e.0.#.*.<.=.@.*.1.<.*.-.<.<.+.*.-.1.<.3.<.-.<.-.+.0.6.6.+.-.=.X.%.4.-.*.o.O.#.,.,.O.*.-.*.-.-.:.#.+.:.X.O.#.",
"1.+.:.%.8.q.q.%.7.0.5.$.$.=.-.-.*.<.<.=.*.-.<.-.+.*.<.1.<.1.-.-.-.=.+.0.6.,.X.o.*.4.e.:.X.X.X.O.8.6.:.-.2.%.X.-.-.+.9.9.#.#.$.*.",
":.>.:.#.9.0.9.7.9.0.9.#.O.*.*.*.-.<.-.*.*.<.<.X.@.<.<.-.1.2.*.=.-.X.7.0.q.7.O.X.2.r.9.#.X.X.X.7.e.,.-.2.:.#.*.-.2.6.0.#.#.#.*.<.",
"=.<.#.$.8.0.8.7.7.9.$.#.X.o.*.-.-.-.o.X.=.3.-.=.<.<.X.-.3.=.@.*.-.+.8.0.0.%.#.,.6.0.%.#.O.O.+.e.e.-.-.*.#.O.*.-.r.6.$.#.#.@.-.-.",
"3.:.#.%.8.9.7.%.7.7.#.$.+.X.o.*.<.=.#.@.<.-.-.2.2.+.@.<.<.X.X.X.X.O.7.9.9.#.7.0.0.7.#.#.#.#.0.V.2.o.-.@.#.O.-.w.w.7.#.#.#.o.-.-.",
"<.$.#.%.:.7.%.#.%.$.:.+.#.#.X.=.<.+.#.2.3.*.-.<.=.#.=.<.<.+.X.X.X.$.7.7.7.$.7.9.8.$.#.#.+.%.e.e.-.X.o.O.#.@.4.3.4.#.#.#.O.-.-.<.",
":.#.#.>.>.%.%.#.#.>.:.#.#.#.@.2.=.#.:.3.<.*.*.=.+.$.=.2.=.#.+.X.X.$.$.%.%.%.%.%.%.#.#.:.+.9.e.q.$.X.O.#.#.:.4.4.:.#.#.#.:.-.*.2.",
"$.#.:.>.%.%.$.+.-.-.#.#.#.+.<.1.@.#.<.2.*.@.o.o.#.@.<.2.:.#.#.#.O.+.+.%.#.#.#.#.$.#.+.>.%.q.6.9.#.#.#.#.$.%.7.7.$.$.#.%.3.*.-.<.",
"$.-.<.$.#.%.:.-.<.$.#.#.%.<.1.<.#.:.<.<.+.O.O.+.#.=.2.-.+.#.#.+.:.$.#.#.#.#.#.#.+.+.<.%.7.q.q.7.#.#.#.#.#.#.$.$.#.#.$.<.<.>.-.<.",
"-.1.%.#.:.=.-.2.-.#.$.:.<.1.1.;.#.*.-.-.#.#.#.#.+.1.<.*.+.#.:.2.;.#.#.#.#.#.#.%.:.<.-.#.8.0.9.%.#.#.#.#.+.#.#.#.#.$.-.3.:.=.-.-.",
"1.-.#.:.<.:.<.<.+.:.<.>.1.3.<.+.+.-.=.*.#.#.#.$.-.1.*.*.$.>.1.:.#.#.#.#.#.#.:.:.=.2.:.#.7.,.,.$.#.#.#.$.:.#.#.#.$.-.3.3.*.-.-.-.",
"<.:.:.1.:.=.-.-.-.3.=.<.1.<.=.#.X.=.*.+.#.#.#.:.3.<.X.X.=.<.-.#.#.#.#.#.#.@.4.:.2.2.#.#.,.4.7.#.#.#.:.>.#.#.#.#.>.1.3.-.X.*.-.-."
};
