/* XPM */
static char *gm31704828126[] = {
/* columns rows colors chars-per-pixel */
"64 64 147 2 ",
"   c #040301",
".  c #070B01",
"X  c #161004",
"o  c #1D1605",
"O  c #141F00",
"+  c #1F1805",
"@  c #2F0505",
"#  c #2C0B05",
"$  c #261704",
"%  c #211C04",
"&  c #311007",
"*  c #142100",
"=  c #192604",
"-  c #1B2B01",
";  c #1E3003",
":  c #282205",
">  c #352509",
",  c #322B09",
"<  c #2D3404",
"1  c #2F3803",
"2  c #37300A",
"3  c #3E320A",
"4  c #41320C",
"5  c #2D4503",
"6  c #2F4B02",
"7  c #304E02",
"8  c #3E4309",
"9  c #315100",
"0  c #3B5E02",
"q  c #5C470F",
"w  c #544C08",
"e  c #435F04",
"r  c #445E0C",
"t  c #584110",
"y  c #5D4E11",
"u  c #71460D",
"i  c #64530D",
"p  c #615412",
"a  c #745C15",
"s  c #7A5F14",
"d  c #456204",
"f  c #486604",
"g  c #4A6C05",
"h  c #476109",
"j  c #48640A",
"k  c #4B6F0F",
"l  c #4C7305",
"z  c #4F7C02",
"x  c #4C710C",
"c  c #4F780D",
"v  c #537E03",
"b  c #537C0C",
"n  c #517710",
"m  c #517810",
"M  c #776610",
"N  c #7F6C12",
"B  c #7A651A",
"V  c #8D1010",
"C  c #84220F",
"Z  c #933014",
"A  c #BC531B",
"S  c #8A760F",
"D  c #846C13",
"F  c #857416",
"G  c #8F7B11",
"H  c #837618",
"J  c #8F711B",
"K  c #847818",
"L  c #967E15",
"P  c #91741C",
"I  c #A87617",
"U  c #A0701C",
"Y  c #AE7C1E",
"T  c #957A20",
"R  c #C4401B",
"E  c #538401",
"W  c #568A01",
"Q  c #598D02",
"!  c #55850B",
"~  c #5E8E0C",
"^  c #5A9400",
"/  c #5B9800",
"(  c #5E8B12",
")  c #608F06",
"_  c #608E09",
"`  c #619400",
"'  c #679C03",
"]  c #689F02",
"[  c #65960D",
"{  c #669B0C",
"}  c #689F0B",
"|  c #649513",
" . c #669912",
".. c #689D12",
"X. c #66A700",
"o. c #69A402",
"O. c #67A802",
"+. c #6BAB02",
"@. c #67A00C",
"#. c #69A30A",
"$. c #6DAA0A",
"%. c #70AE0D",
"&. c #6EB301",
"*. c #6FB800",
"=. c #72B405",
"-. c #71BA01",
";. c #72B40D",
":. c #76BB0F",
">. c #78BE0E",
",. c #6BA412",
"<. c #6EAA11",
"1. c #70AE11",
"2. c #73B310",
"3. c #75B810",
"4. c #79C306",
"5. c #7AC30D",
"6. c #7DCA0C",
"7. c #9A8414",
"8. c #9F8816",
"9. c #97821A",
"0. c #A48D1B",
"q. c #AD941B",
"w. c #B59E1F",
"e. c #B89E1F",
"r. c #B9A01E",
"t. c #A69020",
"y. c #B49C22",
"u. c #BEA420",
"i. c #BFAC2C",
"p. c #D59525",
"a. c #D29B25",
"s. c #C4A625",
"d. c #CCA724",
"f. c #C9AD23",
"g. c #CAAE29",
"h. c #CEB225",
"j. c #D0B526",
"k. c #D4BB29",
"l. c #D9BB28",
"z. c #80CF0D",
"x. c #DEC12B",
"c. c #D6C032",
"v. c #E0C32B",
"b. c #E4C92E",
"n. c #E1CC32",
"m. c #EBD536",
"M. c #F1DA37",
/* pixels */
"O.+.=.O.' O.+.&.&.&.&.&.&.+.o.| ' ] ] [ | | } &.&.o.{ o.o.o.[ | | |  . .#.&.#.&.&.#.[ =.$.......} =.+.| | | #.&.O.&.&.o.' o.&.&.",
"+.&.&.} o.o.=.&.=.&.+.&.+.O.' | ' ' ] [ | [ +.&.+.[ [ ] o.]  .| | @.@.@.*.&.o.+.+.#.&.&.....#.#.+.-.{ |  .#.&.%.o.+.+.} o.=.&.O.",
"+.&.O.{ o.+.+.&.*.O.O.+.+.o.{ | [ ' ' #.+.o.+.&.#.| [ ' ' [ |  .+.$.| +.-.#.o.+.O.+.=.#.| $.O.O.&.+.| #.+.+.=.o.o.O.O.o.&.&.O.+.",
"&.&.} } &.&.O.*.&.o.+.+.o.] [ | | | #.-.#.#.+.+.} | | | [ | } &.&.| @.*.-.o.o.O.&.&.+. .O.=.#.&.&.#.+.&.O.=.&.} o.o.+.+.&.+.] ] ",
"=.O.O.-.&.' &.*.+.] o.o.] ' [ | | $.&.O.| o.O.o.[ | | | | { &.&.{ | +.*.&.' o.O.&.&.o.O.-.o.o.+.&.&.*.&.&.&.O.{ ' o.+.O.+.o.] o.",
"+.+.&.=.{ } &.=.} ' ] o.' [ | [ o.&.&. .[ o.o.o.| | | | [ O.+.o.| [ &.=.#.' o.=.=.+.O.=.&.} +.+.&.&.=.&.+.&.#.[ ' ] o.+.+.| } &.",
"o.+.&.o.| o.=.&.{ ' ] ' [ | } #.*.&.' | [ ] ] ] | | |  .o.o.o.[  .o.+.+.#.o.&.&.O.+.+.&.#.' o.+.&.&.*.+.+.+.{ | [ ' o.&.} | O.-.",
"o.o.O.{  .+.&.O.[ [ [ ' | #.#.&.-.o.[ | { ] ' ] | | } ' ] o.o.{ { o.O.o.o.&.&.+.o.+.&.&. .' +.&.+.*.+.O.O.o.| | | | &.&.| #.&.-.",
"] ] o.| } &.&.#.| | | [ $.+.o.*.+.' | @.} { { [ | $.#.| [ ' #.O.[ o.o.o.+.+.&.o.o.+.&.O.} &.&.O.&.=.o.o.+.' | | | +.-.#.| +.*.O.",
"[ [ [ | O.&.+.{ | | ..+.&.#.&.&.#.[ O.$.| |  .[ +.+.| | | { &.@.[ ] ] O.+.+.o.' o.=.+.O.&.&.' o.-.&.' ] o.{ | | { =.&.| { &.&.#.",
"| | | { =.&.o.[ | O.-.-.&.#.&.+. .+.&.| |  .} +.*.@.| |  .&.+.| [ [ ] o.O.&. .[ &.&.+.=.-.#.[ +.*.o.' ' ] [ | | +.&.o.| o.+.+...",
"| | | &.&.o.o.[ o.=.-.-.#.+.+.o.$.&.#.| } o.O.&.$.| | #.&.*. .| | [ [ o.*.#.| O.-.+.+.+.+.| #.&.&.#.' ' ' [ | { &.&.@. .O.+.o.| ",
"| | #.-.+.] ] o.&.-.-.&.#.O.+.+.&.&.| #.&.o.&.&.} @.&.O.*.%. .| | | { &.&.[ ..&.&.o.o.O.o.| O.=.&. .| { [ [ | o.+.+.[ { o.+.' | ",
"| | &.*.o.' o.o.+.&.-.+.' O.+.&.&.#.#.*.#.O.+.+.+.*.$.&.&.O.| | ..,.%.-.$.| O.*.+.' ' o.[ [ +.&.o.| | |  .{ } +.+.o. .' o.o.{ | ",
" .#.&.&.[ ' o.o.O.-.=.o.o.+.&.&.+.o.=.&.} O.+.&.*.&.&.&.&. .| <.:.#.=.*. . .+.&.#.| [ [ | } &.&.#.| | [ o.#.{ +.+.o.| ' ' ] [ | ",
"o.+.&.o.| [ ' ' &.=.+.O.&.&.&.+.o.&.&.$.' O.&.&.*.&.+.+.O.,.3.5.,.o.=.+.| o.&.+.{ | | |  .&.&.O.{ | #.&.#.| ' o.o.{ | [ ' ' [ { ",
"#.+.+.o.| | | $.=.+.=.*.*.*.+.o.+.&.&.[ o.z - - W +.O.+.O.! =     - E #.| O.O.z = = k | O.*.X.] { o.*.+.| | ' ] o.[ | | [ { O.&.",
"o.O.+.[ | | ,.>.+.&.*.&.&.+.o.o.&.&.o.~ W g 5 w l W ] ] ^ x w 2 2 8 g ! ~ ] W g 8 8 r b +.&.o.] o.+.&. .| [ ' ' ] [ | |  .+.&...",
"o.o.o.[ | ..5.=.+.&.&.+.&.o.] O.&.+.o.Q 6 w H K 8 6 W Q 7 8 H t.0.K 8 6 b E 6 8 H N 8 6 ^ +.' ] O.O.#.| | | { ' ' | |  .O.&.#.| ",
"o.] o.[  .>.5.o.+.&.O.O.+.{ ' &.&.O.&.W = > P Y y 3 f f 8 p y.x.k.u.p 3 h d 3 y Y T > - W #.[ ] o.o.[ | | | #.[ [ [ [ ' +.O.| | ",
"' ' ' | 1.6.1.] o.O.o.&.@.| o.-.+.+.&.E * & Z A Y H 8 8 F e.j.l.x.j.y.H w 1 H Y A Z & : E | | ' ' ] | | } +.{ | | | ' ] o.' | | ",
"' ' { ..>.>.} { ] o.+.&.| ..-.&.O.+.+.l = @ V R p.y.p p y.l.j.d.f.h.l.y.p p y.p.R V # - z | | | [ [  .O.=.#.| | | | [ ' ] [ | | ",
"[ [ [ 1.>.;.| | [ o.*.#.| +.-.+.] o.o.k = @ V R p.j.y.y.h.h.q.0.0.q.h.j.y.y.j.a.R V @ = z | | | | | o.=.$.| | | | | | [ { | |  .",
"| | ..2.:.,.| | ..*.&. .{ &.&.#.' ' ' x - # C A a.v.l.l.h.e.L J D L y.h.l.l.v.a.A C # = x | | | | o.+.+. .| | | | | | | | .. .| ",
"| | ..2.2...| | $.-.O.| o.&.+.[ | | | k - $ u I d.l.v.h.q.L D D M D L q.h.x.x.d.I u $ - x | | | ' O.O.o.| | | | | [ | | ,.<.| | ",
"| | 1.1.1. .| ..+.&.#. .+.+.o.| | | | E 7 1 w M 9.q.t.9.M p y 4 t t i M 9.t.t.9.M w < 5 b | | #.' ] o.[ | | |  .#.| | 2.2.| | | ",
"|  .,.1.,. .| o.&.+. .[ o.+.} | | |  .+.^ e < : , 2 2 , : % + $ $ o % : , 2 2 , : < d b ( | #.{ [ ' ] [ | |  .$.} | 2.5.| | | | ",
"| | ,.,...| | +.+.+.| ' o.o.} | | | +.*.+.v 5 * .   X o o o o $ o o o o o X   . O 5 b | | O.$.| | [ [ | |  .+.$.| 2.6.1.| | | | ",
"| ..,.....| ' +.+.o.| ' ] o.[ | | ..&.&.o.) E 0 * X 4 t t t 4 q t q q 4 t 4 X * 0 m ( | #.&.| | | | | | #.#.*.{ ,.5.3. .| | | | ",
"#... . . .#.o.o.o.} [ ' ' '  .| @.+.=.O.| _ v d < 4 B T P P P P P P P P P a 3 1 0 m | #.*.$.| | | |  .O.#.*.+...2.5.;.| | | | | ",
" .| | | $.#.' o.o.[ | [ ' [ } O.O.+.&.O.| b 5 < w F i.c.g.s.s.s.d.s.s.s.s.q.D w < 6 W &.*.{ | | |  .+.#.O.=.#.,.:.:.,.| | | | %.",
"| | | #.+. .] ] ] [ | | ..o.&.#.} +.+.} | k = % M u.x.M.n.x.n.b.x.x.l.v.n.j.w.M : = E *.+. .| | | $.=.#.&.&...;.-.=. .| | @.&.$.",
"| | o.=.} | ' ' ' | ..<.+.=.O.| o.&.X.[ | k = , 9.k.x.b.x.n.M.M.b.x.v.n.M.m.l.9., - E &.o.| | | @.*.$.O.&.+.#.-.:.#.| } #.&.&. .",
"#.O.&.=. .| | | [ ,.;.+.+.+. ...=.o.O.| | m ; 2 0.x.b.b.v.x.n.n.x.x.l.v.n.n.v.t.2 - E &. .| | [ &.*.#.+.+.o.=.-.%.,.#.+.+.-.#.| ",
"$.+.=.o.| | | | #.5.%.o.O.o. .3.=.] o.| ,.~ = 2 0.n.M.M.b.k.r.r.j.x.x.j.w.e.j.t.2 - E O.| | | $.*.&.o.O.O.&.=.+.,.+.+.#.&.&...$.",
"&.&.=.{ | | | ,.z.:.' ' o.{ 2.>.' ' [ <.5.! = 2 0.b.n.n.x.h.q.q.h.x.x.d.7.0.f.t.2 - v o.| |  .&.*.o.] o.+.&.=.#.=.=.#.O.+.+.&.&.",
"&.&.+.| | | ..:.>.,.[ ' } $.6.<.[ ' #.5.5.k = , t.j.u.u.k.k.h.h.k.x.x.f.7.7.f.t.2 - v ' | | o.=.&.#.o.o.&.&.+.+.-.+.o.+.+.&.&.&.",
"+.+.o.| |  .1.>.;. .<...,.6.5. .| | ;.5.<.n 5 8 K 0.8.0.r.f.f.f.h.f.f.r.q.0.0.K 8 5 E { | | O.+.+.[ o.&.&.O.+.+.&.{ ] o.&.&.*.&.",
"+.+.} | | ..3.:.,.,.<.| 3.6.2.| | ,.:.:.,.( c j 8 y 0.u.q.7.8.8.8.8.8.q.u.t.y w h v ` [ | ..O.+.O.o.&.&.O.o.+.&.O.[ ] +.&.&.*.+.",
"O.o. .| | <.2.2.2.:. .,.6.6.,.|  .2.2.1.| | | c 6 8 K 0.7.7.9.S S G 9.8.t.N 8 5 v ' ' [ | { o.o.+.+.&.+.o.+.&.=.#.} &.+.O.*.&.o.",
"o.o.| | | 1.1.2.5.1.| 2.5.5.| | ,.1.1.,.| |  .[ ! l 8 y t.y.7.S S 7.r.0.y 8 g b ~ [ [ [ | ' ] o.+.+.+.o.] O.=.+.#.=.&.] +.-.O.o.",
"o.] | | ..,.1.5.5. .| 3.3.2.| | ,.1.1. .| | +.#.+./ 5 8 K 0.0.8.8.8.0.K 8 7 W | | | [ } [ ' ' o.o.+.O.[ ' =.+.+.*.&.} } =.*.} ] ",
"' [ [ |  .,.;.6.2.| ,.2.3.,.| ,.,.,.,...{ $.+.@.=.X.m j w w t.g.f.t.y 8 l Q [ | | #.+...| | [ ] +.&. .| &.*.+.+.&.o.| O.=.+.{ ' ",
"' ' | | | ,.5.5.,.| ,.2.2.,.3.1. . .,.#.$.*.@.+.&.+.| E 5 8 N t.t.H 8 9 ^ O.[  .$.&.} | | | | } =.+.| @.-.&.o.O.O.} ..+.&.o.[ ' ",
"[ [  .| | 1.5.3. .| 1.<.2.5.2.| | ..+.#.&.&.{ &.&.O.{ ' W g 8 2 2 8 x / X.O.[ +.&.$.| | | | | $.*.{ | &.&.O.] o.o.| } &.&.#.| [ ",
"{ #. .|  .2.:.1.| 1.1.1.5.>...| | +.$.O.&.#.o.&.&...{ o.o.W 6 = = 5 / *.O.] o.&.-...| | | | #.-.&.| #.&.&.} { ' ' | o.&.+.[ | | ",
"&...| | ,.2.2.,.<.2.,.;.>.,.| | +.&.#.=.&.{ O.&.+.| ' o.O.+.W k k Q +.*.] o.o.-.<.| | | | [ &.&.#.| O.+.O.| |  .| [ &.&.o. .| @.",
"@.| | | <.1.2.1.5.<.<.1.2. .| #.-.$.O.+.O.#.*.&.o.| o.O.*.&.|  .#.*.*.O.[ ] =.4. .| |  .} #.&.&.} { +.+.#.| | | | +.*.o.o. .#.*.",
"| | | | <.<.2.5.5. .,.<.,.|  .=.&.#.O.+.+.&.=.o.o.O.+.&.&.#.#.&.=.-.=.[ [ $.z.$.| | $.+...O.&.+.| } o.O.} | | | #.-.+.] ] o.&.&.",
"| | |  .<.<.:.6.<.| ..,.....%.*.&.#.O.+.+.&.+.o.&.+.o.&.&.&.*.*.&.-.+.|  .>.>. .| +.&.{ { +.+.o.| ] o.+.| | | | &.-.o.' o.+.+.} ",
"| | | ,.#.<.5.5. .| | ,.2.$.*.*.o.' o.+.=.&.o.&.&.#.O.&.&.-.&.&.-.&.#.| ;.z.1...+.=.} | } +.+.' | ] ] o.[ | | $.&.=.{ [ o.o.o.| ",
"| { $.{ ..:.5.2. .| <.5.<.@.&.&.o.] o.&.&.O.+.*.O.} +.&.-.-.&.&.&.&.[ ..>.z.} o.+.O.| | +.+.o.[  .' +.] |  .o.+.&.O.| ' ] o.' | ",
"$.&.}  .,.:.>.<.| 1.5.;. .O.&.O.} o.-.&.O.+.&.&.} o.+.*.*.&.&.&.&.+.[ 2.5.3.} +.+.' ..;.+.o.] [ | %.%.[ o.+.o.+.+.} | } #.' [ | ",
"*.@.#...<.:.3...,.:.3...[ X.+.o.o.&.&.o.+.+.&.+.[ o.&.&.&.*.O.+.&.o...;.:.%.' ] o.;.5.#.' ' ' [ <.:.} +.=...o.+.+...1.1.| |  .o.",
"o.#.#.| <.2.2...1.2.,.| [ o.o.+.+.&.+.] o.&.&.' } &.&.+.*.&.o.o.+.' #.2.3.,.[ ' =.5.1. .' ' ' ,.5.%.+.=.} | o.+.=.:.2.| | | o.&.",
"$.&. . .<.2.<.,.,.1...| ' ] o.+.+.+.o.' O.=.o.+.=.&.] +.-.+.o.o.o.{ <.2.1... .%.5.2. .| [ [ } 5.5.+.+.+.| [ o.+.6.4. .| | } +.+.",
"-.#.| ..,.1.,...,.,. . .{ ' ] o.+.+.| } &.+.O.-.&.} } &.&.o.] ] ] { 1.1.,.| ,.2.2.,.| | | | ;.6.=.o.+.{ | [ =.4.4.,.| | | o.+.+.",
"&.| | ,.$.<...| | ..#.[ | | ' o.&...| &.-.O.+.&.#.| O.&.+.[ ' ' ' ..,.,.,. .,.1.<. .| | [ ,.5.5.+.' ] | | { =.-.;.| | | [ +.+.+.",
"#.| | #.#.,. .| | $.#.| | | } *.+.| #.-.&.o.o.o.{  .+.&.O.| [ ' [ | } .... .......| | @.{ 2.5.3.[ { ' | | ,.%.;.#.| | | #.+.+.=.",
" .| $.$. ... .[ +.+. .| | { &.*.} [ +.=.o.' o.] | #.&.&.#.| | | [ } {  . .|  .|  .| @.$...2.3.2.| | | | | ..,.,. .| | ..-.o.+.&.",
" .&.$. .| { #.&.&...| | ..&.*.+.| #.&.&.[ [ [ { | O.-.+.{ | | ..#. .| | | | | | [ #.&.{ ,.2.3.,.| | | | | |  . .| | ..&.&.#.&.+.",
"+.*.@.| @.O.O.=.$.| { #.&.*.*.#.| o.+.+.| | | | { &.&.o.[  .#.&.{ | | | | | | ..} &.$.| 1.2.2. .| | | |  . .| | |  .&.-.#.O.+.+.",
"*.+.| #.&.#.&.&.#.#.+.$.*.*.&...[ +.O.o.| | |  .+.*.o.o.{ $.*.#.| | | | | | ,.#.+.=.} | ,.1.%. .| | | { { | | | | +.-.=.o.+.+.+.",
"&.#.#.*.#.O.+.+.+.*.O.&.*.&.+.| ' +.O.} | | | #.-.+.] ] #.&.+. .| | | | | ..&.#.&.&.|  .%.;.,.| | | #.$.| | |  .+.&.-.+.' o.O.=."
};
