/* XPM */
static char *gm41704828126[] = {
/* columns rows colors chars-per-pixel */
"64 64 167 2 ",
"   c #020100",
".  c #070B01",
"X  c #0E0C03",
"o  c #161004",
"O  c #1D1605",
"+  c #141F00",
"@  c #1F1805",
"#  c #2F0505",
"$  c #2C0B05",
"%  c #261704",
"&  c #221D04",
"*  c #311007",
"=  c #142100",
"-  c #192604",
";  c #1B2B01",
":  c #282205",
">  c #2A2F07",
",  c #2A2408",
"<  c #322B09",
"1  c #382E08",
"2  c #352509",
"3  c #2D3404",
"4  c #2F3803",
"5  c #37300A",
"6  c #41330C",
"7  c #493C0D",
"8  c #503D0F",
"9  c #2D4503",
"0  c #2F4B02",
"q  c #2C4109",
"w  c #304E01",
"e  c #3E4209",
"r  c #315100",
"t  c #3B5E02",
"y  c #4C410C",
"u  c #5C470F",
"i  c #554C08",
"p  c #425E07",
"a  c #584110",
"s  c #5D4E11",
"d  c #71460D",
"f  c #67580B",
"g  c #6F5E0D",
"h  c #64530D",
"j  c #644E10",
"k  c #615412",
"l  c #7A5F14",
"z  c #446103",
"x  c #486505",
"c  c #4A6C05",
"v  c #47610B",
"b  c #48650A",
"n  c #47690A",
"m  c #4B6E0F",
"M  c #4C7305",
"N  c #4F7C02",
"B  c #4C710C",
"V  c #4F780D",
"C  c #537E03",
"Z  c #527A0D",
"A  c #517710",
"S  c #517810",
"D  c #7D690F",
"F  c #75640E",
"G  c #776610",
"H  c #7F6316",
"J  c #7D6C18",
"K  c #7A651A",
"L  c #8D1010",
"P  c #BC1616",
"I  c #84220F",
"U  c #933014",
"Y  c #AF2E14",
"T  c #965E11",
"R  c #BC531B",
"E  c #8A760F",
"W  c #846C13",
"Q  c #8A6D19",
"!  c #8F7B11",
"~  c #847518",
"^  c #8F711B",
"/  c #857416",
"(  c #957D15",
")  c #91741C",
"_  c #A87617",
"`  c #A0701C",
"'  c #AE7C1E",
"]  c #957A20",
"[  c #C4401B",
"{  c #548302",
"}  c #568A01",
"|  c #588D02",
" . c #54830B",
".. c #5D8E0C",
"X. c #5A9300",
"o. c #5B9800",
"O. c #5B910A",
"+. c #5E8B12",
"@. c #608F06",
"#. c #608E09",
"$. c #619400",
"%. c #679C03",
"&. c #689F02",
"*. c #65960D",
"=. c #669B0C",
"-. c #689F0B",
";. c #649513",
":. c #669912",
">. c #689D12",
",. c #66A700",
"<. c #69A402",
"1. c #67A901",
"2. c #6BAB02",
"3. c #67A00C",
"4. c #69A30A",
"5. c #6DAA0A",
"6. c #70AE0D",
"7. c #6EB301",
"8. c #6FB800",
"9. c #72B405",
"0. c #71BA01",
"q. c #72B40D",
"w. c #76BB0F",
"e. c #78BE0E",
"r. c #6BA412",
"t. c #6EAA11",
"y. c #70AE11",
"u. c #73B310",
"i. c #75B810",
"p. c #7AC30D",
"a. c #7DCA0C",
"s. c #79C306",
"d. c #9A8414",
"f. c #9F8816",
"g. c #97821A",
"h. c #9F891B",
"j. c #A48D1B",
"k. c #AD951A",
"l. c #B49E1F",
"z. c #B89E1F",
"x. c #B9A01E",
"c. c #A69020",
"v. c #B49C22",
"b. c #B7A221",
"n. c #BEA420",
"m. c #BFAC2C",
"M. c #D59525",
"N. c #D29B25",
"B. c #C4A625",
"V. c #CCA724",
"C. c #C9AD23",
"Z. c #CAAE29",
"A. c #CEB225",
"S. c #D0B527",
"D. c #D5BC2A",
"F. c #D9BB28",
"G. c #80CF0D",
"H. c #DEC12B",
"J. c #D6C032",
"K. c #E0C32B",
"L. c #E4C92E",
"P. c #E2CC32",
"I. c #E7D537",
"U. c #EBD536",
"Y. c #F1DA37",
"T. c #F1DE3A",
"R. c #F7E23C",
/* pixels */
"1.2.9.<.%.1.2.7.9.7.2.7.9.2.<.:.%.&.&.*.;.;.3.7.7.%.%.<.<.<.*.;.;.;.:.:.4.7.4.7.7.-.*.9.5.r.>.:.3.8.2.;.;.;.=.7.5.7.7.<.&.<.7.7.",
"2.7.7.3.<.<.9.7.7.7.1.7.7.1.=.;.%.%.&.*.:.*.2.7.7.:.*.&.<.&.:.;.;.3.3.3.8.7.<.2.2.-.7.7.>.:.4.<.7.7.>.;.:.4.7.9.<.2.2.-.<.7.7.1.",
"2.7.<.=.<.2.7.7.8.<.2.7.1.<.*.*.*.%.=.4.<.<.2.7.<.;.*.*.%.*.;.:.2.5.;.2.0.4.<.2.1.7.7.4.:.5.5.<.7.2.:.3.<.7.0.<.,.1.<.<.7.7.1.<.",
"7.7.4.4.7.2.1.0.7.<.1.2.<.&.*.;.;.:.<.8.4.4.2.2.=.;.;.:.*.;.-.7.7.;.3.8.8.<.<.1.2.7.7.:.<.7.3.7.7.<.5.7.5.7.7.-.<.<.1.2.7.2.&.<.",
"7.1.1.0.7.%.2.0.<.&.<.<.&.%.*.;.;.5.8.2.:.<.1.<.*.;.;.;.;.=.7.7.*.:.2.0.7.%.<.1.7.7.<.5.0.<.<.2.2.7.8.2.7.7.<.*.&.&.2.1.2.<.%.<.",
"2.1.7.9.=.-.7.0.4.&.&.&.%.*.:.*.<.7.2.*.*.<.<.<.:.;.;.;.*.1.2.<.;.-.2.9.4.%.<.9.9.2.<.7.7.-.1.2.7.7.9.7.2.7.-.*.%.<.<.2.2.:.=.7.",
"<.2.9.<.;.<.7.7.=.%.%.%.*.:.-.4.8.7.%.;.*.%.&.&.;.;.;.*.<.<.<.*.:.<.2.2.3.<.7.7.1.2.2.7.4.-.<.2.7.7.7.1.2.2.*.:.;.%.<.7.-.;.2.0.",
"<.<.1.=.:.2.7.<.*.*.%.*.:.4.4.2.0.<.*.;.=.%.%.%.;.;.=.-.&.<.<.=.=.<.1.1.<.7.7.2.<.2.7.7.*.&.2.7.7.8.7.,.2.1.:.;.;.*.7.2.:.-.8.8.",
"%.&.<.;.-.7.9.-.;.;.;.*.<.2.5.8.2.%.:.3.3.=.%.*.;.4.4.;.*.%.<.1.*.&.<.<.2.7.2.<.<.7.7.<.3.7.7.1.7.9.<.<.<.%.;.;.;.5.7.3.:.2.8.2.",
"*.*.%.;.1.9.1.=.;.;.>.2.8.4.7.7.3.*.<.5.;.;.;.:.7.7.;.;.;.=.7.>.*.&.<.1.1.2.<.%.<.9.2.1.7.7.%.<.8.7.%.&.<.=.;.;.-.7.7.:.*.7.7.4.",
";.;.;.:.9.7.<.:.;.4.0.0.7.4.7.<.*.2.7.;.;.:.3.7.7.>.;.;.:.7.2.;.*.*.%.<.2.7.:.*.7.9.<.7.9.4.*.2.8.<.%.%.<.=.;.;.1.9.<.:.<.2.1.>.",
";.;.:.2.8.<.&.=.<.0.0.0.4.<.7.<.5.8.3.;.=.<.<.8.2.;.:.4.2.8.>.;.;.*.*.<.8.4.;.4.0.2.1.7.2.:.4.7.7.3.%.%.%.*.;.-.7.7.3.:.1.2.<.;.",
";.;.3.8.1.&.&.<.7.7.0.7.3.1.2.2.7.7.:.4.7.<.7.7.=.4.7.5.7.7.;.;.;.;.>.7.7.:.3.0.7.<.,.<.%.:.1.9.7.:.*.*.%.;.;.<.2.2.*.=.<.<.<.;.",
";.:.7.8.<.%.<.1.2.7.0.5.<.,.2.7.9.4.4.7.4.1.2.2.5.8.2.2.8.4.;.;.>.r.7.8.4.;.<.8.2.%.%.&.*.:.2.7.<.;.;.:.:.>.=.<.2.<.:.%.<.<.=.;.",
":.4.7.7.=.%.<.<.2.7.7.<.<.2.7.7.2.<.9.7.3.1.1.7.8.7.7.7.7.=.:.t.w.5.9.9.*.*.7.7.4.:.:.*.:.3.7.7.3.;.;.:.<.4.-.<.2.<.;.%.%.&.*.;.",
"<.2.7.<.;.*.%.&.7.9.7.<.7.7.7.2.1.7.7.4.%.2.7.7.8.8.2.2.2.>.i.a.r.<.7.5.:.3.2.2.=.;.;.;.:.2.7.1.-.;.4.7.4.:.%.<.<.=.;.*.%.%.*.=.",
"4.2.2.<.;.;.;.5.9.2.0.8.7.8.2.1.2.7.7.*.<.C ;             ; ..S -     ; m <.1.<.:.;.;.;.<.8.1.<.=.<.8.<.;.;.&.&.<.*.;.;.*.=.<.7.",
"<.1.2.*.;.;.r.e.2.7.0.7.7.2.<.<.7.7.<...} c e 5 1 , X   o > m v e 5 5 y p } &.%.A S +.>.8.7.&.%.<.2.7.>.;.;.%.%.&.*.;.;.:.2.7.>.",
"<.<.<.*.;.r.p.9.2.7.7.1.7.1.&.<.7.7.<.| r y ~ j.c.J , o 6 7 > e ~ j.c.~ e 9 { { q q S 2.8.2.%.&.1.2.3.;.;.;.*.%.%.*.;.:.1.7.3.;.",
"<.&.<.*.;.e.e.<.2.2.2.1.2.=.%.7.7.<.2.} ; 2 ` N.M.' s 6 8 8 6 k v.H.F.v.k e z b e 5 n X.1.4.*.<.<.<.*.;.;.*.3.-.*.*.;.%.1.1.:.;.",
"%.%.%.;.y.p.q.%.<.<.<.7.4.;.<.0.2.2.7.{ - $ U [ [ R ' ~ 6 5 Q v.S.H.H.S.v.~ e e ~ ~ e r | ;.;.=.%.&.;.;.-.2.>.;.;.;.*.&.<.%.;.:.",
"%.%.%.>.e.p.-.=.%.<.7.7.:.:.0.7.,.2.2.M - $ L P P [ M.v.k k v.F.A.C.C.A.F.v.k k b.c.5 ; N ;.;.;.*.*.:.5.7.3.;.;.;.;.*.%.<.*.;.:.",
";.*.*.y.e.u.:.;.*.<.8.4.:.<.0.1.<.<.<.B - # L P P [ M.S.v.v.S.A.k.j.f.k.A.A.v.v.S.c.5 ; N ;.;.;.;.;.<.7.<.;.;.;.;.;.;.*.*.:.;.;.",
";.;.>.u.w.r.;.;.>.8.7.:.:.7.7.-.*.%.%.B ; $ I Y Y R N.K.K.F.S.b.d.W W ( b.A.F.H.H.c.5 ; M ;.;.;.;.<.2.2.>.;.;.;.;.;.:.;.;.:.;.;.",
";.;.>.u.u.>.;.;.5.9.<.:.<.7.2.:.;.*.;.n ; % d T T _ V.K.H.A.k.( W l l W ( k.A.H.H.c.5 ; M ;.;.;.%.<.1.<.;.;.;.;.*.*.;.;.r.t.;.;.",
";.;.t.y.y.:.;.:.7.7.3.:.2.2.<.:.;.;.:. .w 4 i f f G g.j.c.g.G h u 8 a u h G g.c.c.~ e 9 V ;.;.3.%.<.<.*.;.;.;.:.4.:.;.u.u.;.;.;.",
";.:.t.t.r.;.;.<.7.2.:.-.1.2.4.;.;.;.*.2.X.z 3 & & & < 5 < < : & % O O @ & : < < 1 e b C +.;.4.>.*.%.<.;.;.;.:.<.=.;.u.p.:.;.;.;.",
";.;.r.r.r.;.:.1.2.1.;.%.<.<.=.;.;.;.7.8.2.C 9 + X . o @ O O @ @ O O O O @ o . . + 9 Z :.;.5.1.;.;.*.*.;.;.;.5.2.:.y.a.y.;.;.;.;.",
";.>.>.r.>.;.<.<.2.<.;.%.&.&.*.;.;.=.7.7.<.O.{ t + o 6 a a a a a a a a 8 8 6 o + t S +.;.4.7.;.;.;.;.;.:.4.4.8.>.r.p.i.>.;.;.;.;.",
"4.>.;.:.:.4.<.<.<.-.*.%.%.%.:.;.3.2.7.2.*.#.{ p 3 6 K ] ) ^ ^ ^ ^ ^ ^ Q W j 1 3 t S ;.4.8.5.;.;.;.;.:.4.4.7.7.:.u.p.q.;.;.;.;.;.",
">.;.;.:.5.<.%.&.<.*.;.*.%.=.-.<.4.2.7.<.;.Z q 3 i / B.J.Z.B.B.B.V.B.B.l.( D g u 3 9 } 7.8.=.;.;.;.;.2.5.<.0.4.r.w.w.r.;.;.;.;.5.",
";.;.;.4.5.*.&.&.&.*.;.:.:.<.7.4.3.2.2.-.;.m - : G b.I.R.P.H.H.H.F.K.L.S.l.d.j.G : ;  .7.7.;.;.;.;.5.7.<.7.7.>.q.0.9.;.;.;.3.7.5.",
";.:.4.9.-.;.%.%.%.;.>.5.2.7.<.;.<.9.1.*.;.m - < d.J.T.R.P.H.H.H.K.L.Y.U.D.C.C.g.< ; { 7.<.;.;.;.3.8.5.1.7.<.4.0.e.5.:.-.4.7.7.:.",
"4.<.7.7.:.;.*.;.*.4.w.5.2.2.:.>.9.<.<.:.;.S ; 5 j.H.P.P.H.H.L.H.K.K.P.L.H.H.H.c.5 ; { 7.>.;.;.:.7.8.4.1.2.<.9.0.5.r.4.4.2.7.4.;.",
"2.5.9.<.;.;.;.;.5.e.5.<.1.4.:.w.7.%.%.:.r.O.- 5 c.S.x.l.S.P.T.T.P.S.v.l.S.H.H.j.5 ; { 1.;.;.;.5.8.7.<.1.2.7.9.2.r.7.5.<.7.7.=.5.",
"7.7.9.:.;.;.;.r.p.w.%.<.<.*.u.e.%.%.=.r.a. .- 5 c.C.f.f.A.H.P.P.K.C.j.d.x.C.C.g.< ; C <.;.;.*.7.8.4.<.<.2.7.7.<.5.0.4.2.2.2.7.8.",
"7.7.1.:.;.;.>.e.p.r.*.<.-.5.a.t.*.*.4.p.p.B - 5 c.C.f.f.C.S.x.x.S.C.f.! d.f.f.G : ; C %.;.;.<.7.7.3.&.<.7.7.2.5.0.<.<.2.2.7.7.7.",
"1.7.4.;.;.;.y.e.i.;.r.>.r.a.p.>.;.*.w.p.t.A q e J k.f.k.x.x.d.d.x.x.d.! d.( F i 3 9 { =.;.:.5.2.2.=.1.7.7.1.1.7.7.-.&.<.7.7.8.7.",
"2.2.-.;.;.>.i.i.t.t.y.;.i.a.u.;.;.y.w.w.:.+.V b y s c.x.j.d.E d.d.d.! d.x.h.y 3 p C $.*.;.*.<.2.<.<.9.7.2.<.2.9.2.:.&.2.7.7.8.2.",
"<.<.*.;.;.y.u.y.y.e.:.>.p.a.r.;.;.y.u.6.;.;.;.N 9 7 ;.c.d.d.g.E E ! d.j.j.~ e 9 C %.%.*.;.=.<.<.1.2.7.2.<.<.7.7.4.-.7.2.1.8.7.<.",
"<.<.;.;.;.y.y.u.a.t.;.u.p.i.;.;.r.y.y.r.;.;.:.%. .M e s j.b.d.E E d.x.j.i e M S ..*.=.;.:.%.&.<.1.1.2.<.&.2.9.2.<.7.7.&.2.8.<.<.",
"&.<.;.;.:.r.y.p.p.;.>.u.p.u.;.;.>.y.r.>.:.:.2.=.5.o.9 e ~ j.h.f.f.f.j.~ y w { ;.;.;.*.3.*.%.%.<.<.7.<.*.%.7.7.2.7.7.-.-.7.8.-.<.",
"&.%.;.;.:.r.u.a.u.;.r.i.u.r.;.t.y.r.r.>.>.2.5.3.7.1.Z n y s j.A.C.c.k e M | *.;.:.3.2.>.;.;.*.<.2.9.:.:.2.8.<.2.7.<.:.5.7.2.=.%.",
"%.%.;.;.;.r.p.p.r.;.r.u.u.t.u.t.;.:.r.4.4.8.3.2.8.<.*.{ r e J c.c.~ e r | 1.=.*.5.7.3.;.;.;.;.=.7.2.;.4.0.7.<.1.2.=.:.2.7.<.*.%.",
"*.*.:.;.;.y.p.i.:.;.t.t.u.a.i.;.;.:.2.4.7.7.=.7.7.4.*.%.} n e 5 5 e M o.,.,.=.5.7.5.;.;.;.;.:.<.8.=.:.2.8.<.<.<.&.;.-.7.7.3.;.:.",
"=.4.>.;.:.u.i.y.;.t.y.y.p.i.>.;.:.7.5.<.8.4.<.7.7.>.=.<.<.} 0 - - q o.8.1.&.1.7.0.>.;.;.;.;.3.0.7.;.4.7.7.=.*.%.%.:.1.7.2.=.;.;.",
"7.>.;.;.r.u.u.r.t.i.r.i.i.t.;.;.5.7.4.7.7.-.<.8.<.:.%.<.2.2.} m B | 1.7.%.&.1.9.5.;.;.;.;.:.7.7.4.:.<.7.<.:.;.;.:.:.7.7.,.;.;.=.",
"=.;.;.;.r.u.u.y.p.t.t.y.y.:.;.4.8.<.1.2.<.3.8.7.<.:.<.1.8.7.:.:.5.8.8.5.*.<.9.s.:.;.;.:.>.<.7.7.=.*.2.2.4.;.;.;.:.<.7.<.<.*.5.8.",
";.;.;.;.t.t.u.p.i.r.r.t.r.;.:.8.9.4.1.2.<.9.9.1.<.5.1.2.7.4.4.7.9.0.9.:.;.2.p.6.:.:.5.2.=.5.7.2.:.-.<.1.=.;.;.;.4.0.2.<.%.<.7.7.",
";.;.;.:.r.t.e.a.t.:.>.>.>.>.6.8.7.4.1.2.7.7.2.<.7.2.<.7.7.7.8.7.7.0.2.;.:.e.p.>.:.5.7.*.*.1.2.<.:.%.<.<.*.;.;.:.7.0.<.%.<.2.2.-.",
";.;.:.3.r.t.a.p.>.;.;.r.u.5.7.8.<.%.<.2.7.7.<.7.7.-.2.7.8.0.9.2.7.0.4.;.6.G.u.:.1.7.-.;.4.2.2.%.;.&.&.<.*.;.;.<.7.7.*.%.<.<.<.:.",
";.3.4.r.>.i.p.u.;.;.t.p.u.3.7.7.<.&.<.7.7.1.2.7.<.<.2.7.8.8.8.7.7.7.=.>.e.G.4.<.2.<.:.:.<.2.<.*.*.%.2.<.:.:.5.2.7.<.:.*.&.&.%.;.",
"5.7.=.=.r.i.p.r.;.t.e.w.:.<.7.2.-.1.7.7.1.2.7.7.4.<.2.7.8.8.7.7.7.2.=.u.p.i.-.<.2.%.>.q.<.<.<.*.;.6.6.*.<.5.4.2.2.-.;.>.4.%.*.;.",
"7.3.3.>.t.i.i.>.r.w.i.>.*.<.1.<.<.7.7.1.<.2.7.2.*.<.7.7.7.8.2.2.2.1.-.u.e.6.&.&.<.q.e.5.%.&.%.*.y.w.4.2.9.*.<.1.2.-.t.y.:.;.:.<.",
"4.5.3.;.y.u.u.3.y.u.r.;.=.<.<.1.2.7.1.&.<.9.7.%.=.7.7.2.8.7.<.1.2.%.r.u.u.r.*.%.9.a.y.:.%.%.%.r.p.6.2.9.4.:.<.<.7.e.u.;.;.:.<.7.",
"2.7.:.:.y.y.t.r.r.y.>.;.%.&.<.2.2.2.<.&.2.9.2.1.8.7.%.7.0.2.%.<.<.=.r.u.y.:.:.6.p.u.;.;.*.*.-.p.p.2.2.<.;.*.<.7.a.e.;.;.;.-.2.2.",
"0.4.;.>.r.y.r.>.r.r.:.:.=.%.&.<.7.<.:.=.7.7.1.9.7.=.4.7.8.%.%.&.&.=.r.y.y.:.r.u.u.r.;.;.;.;.q.a.9.<.<.=.;.*.2.s.s.r.;.;.;.<.2.2.",
"7.:.;.>.5.t.>.;.;.>.4.*.;.:.%.<.7.*.;.7.8.<.2.7.5.;.<.7.7.*.%.%.%.>.r.r.>.;.r.y.t.:.;.;.:.>.p.p.2.&.&.;.;.-.9.0.q.:.;.;.*.<.<.9.",
"4.;.;.5.5.>.:.;.:.5.4.;.;.;.-.7.2.:.4.8.7.<.<.<.=.:.1.7.<.:.*.%.%.:.>.>.>.:.>.>.>.;.;.4.=.u.p.e.*.*.%.;.;.r.q.q.4.;.;.;.4.2.<.0.",
":.;.5.5.:.:.:.=.2.2.;.;.;.=.7.8.*.:.7.9.<.%.<.&.;.-.7.7.-.;.;.;.;.=.=.>.:.;.;.;.:.;.r.<.>.i.i.t.;.:.:.;.;.>.r.r.:.;.;.>.0.<.2.7.",
":.2.7.;.;.>.3.2.8.=.;.;.>.7.8.2.:.-.7.7.*.*.*.=.;.1.8.2.*.;.;.>.4.:.;.;.;.;.;.;.:.-.7.*.r.u.i.r.;.;.;.;.;.:.;.:.;.;.:.7.7.4.7.7.",
"2.8.3.;.3.1.1.0.5.;.:.4.7.8.8.4.:.<.2.1.:.;.;.;.-.7.7.<.:.;.5.7.=.;.;.;.;.;.;.r.4.7.5.:.y.u.u.>.;.;.;.;.:.:.;.;.;.:.7.0.4.<.2.2.",
"8.2.;.4.7.4.7.7.=.4.7.5.8.8.7.>.=.1.1.<.;.;.;.:.2.8.<.<.*.2.0.4.;.;.;.;.;.;.4.4.<.0.=.:.t.y.6.;.;.;.;.=.3.;.;.;.:.5.0.7.<.<.2.2.",
"7.4.4.0.4.<.7.1.2.8.<.7.8.7.2.;.-.<.<.-.;.;.;.4.8.2.&.&.5.7.2.;.;.;.;.;.;.>.7.4.9.2.:.:.6.6.r.;.;.;.4.5.;.;.;.:.<.7.0.7.%.<.2.7."
};
