/* XPM */
static char *gm51704828126[] = {
/* columns rows colors chars-per-pixel */
"64 64 158 2 ",
"   c #020200",
".  c #070B01",
"X  c #0E0C03",
"o  c #161004",
"O  c #1D1605",
"+  c #141F00",
"@  c #1F1805",
"#  c #221D05",
"$  c #142100",
"%  c #192604",
"&  c #1B2B01",
"*  c #282205",
"=  c #2A2F04",
"-  c #2A2408",
";  c #322B09",
":  c #382E08",
">  c #2D3404",
",  c #2F3803",
"<  c #37300A",
"1  c #41320C",
"2  c #493C0C",
"3  c #503D0F",
"4  c #2D4503",
"5  c #2F4B01",
"6  c #2C4109",
"7  c #304E01",
"8  c #3E4309",
"9  c #315100",
"0  c #3B5E02",
"q  c #40460B",
"w  c #5C470F",
"e  c #544C08",
"r  c #425D0A",
"t  c #584110",
"y  c #5D4E11",
"u  c #64530D",
"i  c #67580B",
"p  c #6F5E0D",
"a  c #644E10",
"s  c #615412",
"d  c #6B5514",
"f  c #7A5F14",
"g  c #446202",
"h  c #486406",
"j  c #446901",
"k  c #4A6B04",
"l  c #47610B",
"z  c #48650A",
"x  c #4B6E0F",
"c  c #4D7405",
"v  c #4F7C03",
"b  c #4C710C",
"n  c #4F780D",
"m  c #537E03",
"M  c #527B0D",
"N  c #517710",
"B  c #517810",
"V  c #7D690F",
"C  c #776610",
"Z  c #7F6316",
"A  c #7A651A",
"S  c #7D6C18",
"D  c #BC1616",
"F  c #AF2E14",
"G  c #965E11",
"H  c #BC531B",
"J  c #8A760F",
"K  c #856D12",
"L  c #8A6D19",
"P  c #857416",
"I  c #8F7B11",
"U  c #837618",
"Y  c #8F711B",
"T  c #957D15",
"R  c #92761B",
"E  c #937C1C",
"W  c #A87617",
"Q  c #AE7C1E",
"!  c #957A20",
"~  c #C4401B",
"^  c #538302",
"/  c #578A01",
"(  c #588D01",
")  c #55850B",
"_  c #5D8E0C",
"`  c #5A9300",
"'  c #5B9800",
"]  c #5B910A",
"[  c #5E8B12",
"{  c #608F06",
"}  c #608E09",
"|  c #619604",
" . c #679C03",
".. c #689F02",
"X. c #65960D",
"o. c #669B0C",
"O. c #689F0B",
"+. c #649513",
"@. c #669912",
"#. c #689D12",
"$. c #66A500",
"%. c #69A402",
"&. c #67A901",
"*. c #6BAB02",
"=. c #67A00C",
"-. c #69A30A",
";. c #6DAA0A",
":. c #70AE0D",
">. c #6EB301",
",. c #6FB800",
"<. c #72B405",
"1. c #71BA01",
"2. c #72B40D",
"3. c #76BB0F",
"4. c #78BE0E",
"5. c #6BA412",
"6. c #6EAA11",
"7. c #70AE11",
"8. c #73B310",
"9. c #75B810",
"0. c #79C306",
"q. c #7AC30D",
"w. c #7DCA0C",
"e. c #9A8414",
"r. c #9F8816",
"t. c #97821A",
"y. c #A18B17",
"u. c #A48D1B",
"i. c #A5911A",
"p. c #AC941A",
"a. c #B59F1F",
"s. c #B89E1F",
"d. c #B9A01E",
"f. c #A69020",
"g. c #B49C22",
"h. c #BEA420",
"j. c #BFAC2C",
"k. c #D59525",
"l. c #D29B25",
"z. c #C4A625",
"x. c #CCA724",
"c. c #C5A825",
"v. c #C9AD23",
"b. c #CAAE29",
"n. c #CEB225",
"m. c #CFB628",
"M. c #D0B526",
"N. c #D9BB28",
"B. c #80CF0D",
"V. c #DEC12B",
"C. c #D6C032",
"Z. c #DCC731",
"A. c #E0C32B",
"S. c #E4C92E",
"D. c #E1CC32",
"F. c #EAD133",
"G. c #F1DA37",
"H. c #F3DD39",
/* pixels */
"&.*.<.%. .&.*.>.>.<.*.>.<.*.%.@. .....X.+.+.O.>.>. .o.%.%.%.o.+.+.+.@.@.-.,.-.*.>.-.o.>.;.5.#.o.=.>.*.@.+.+.o.>.;.>.>.%. .%.>.>.",
"*.>.>.=.%.%.<.>.>.>.&.>.>.&.o.+. . ...X.+.o.&.<.>.X.X.%.$...@.+.+.o.=.=.,.>.%.*.*.-.*.<.#.@.-.-.>.>.@.+.@.=.>.>.%.*.*.O.%.>.<.&.",
"*.>.%.o.%.*.>.>.,.%.*.>.&.%.X.X.X.o...=.%.%.>.>.-.+.X. . .X.@.o.*.%.@.*.1.%.%.*.&.*.>.=.@.;.;.%.,.;.@.=.;.>.1.%.%.&.%.%.>.>.&.%.",
">.>.-.-.>.*.&.1.>.%.&.*.%...X.+.+.o.-.,.-.=.&.*.o.+.+.+.X.+.o.<.:.@.=.,.1.-.&.&.>.>.*.@.%.>.-.>.>.%.;.>.%.>.>.O.$.%.*.*.>.*...%.",
">.&.&.1.>. .*.1.%...%.%... .X.+.+.;.>.%.+.%.&.%.o.+.+.+.+.o.*.>.o.@.*.>.>. .%.*.>.>.%.;.1.%.%.*.*.>.1.>.>.>.%.o.....*.*.*.%. .%.",
"*.&.>.<.o.O.>.1.-....... .X.@.X.%.>.>.@.X.%.%.$.@.+.+.+.o.%.*.-.+.o.>.<.-. .%.<.<.*.%.>.>.O.&.*.>.>.>.>.>.*.O.X. ...%.&.*.@.o.>.",
"%.*.<.%.+.%.>.>.o. . . .X.@.O.-.,.>. .+.X.......+.+.+.@.%.%.%.o.@...*.*.O.%.>.>.&.*.>.>.-.O.%.*.>.>.>.*.*.*.o.+.+. .%.>.=.+.*.1.",
"%.%.&.o.@.*.>.%.X.X. .X.@.-.-.*.<.%.o.+.o... . .+.+.o... ...$.o.o.%.*.&.%.>.>.&.%.*.>.*.o...*.>.>.,.*.&.&.%.@.+.+.X.>.>.@.o.,.,.",
" . ...+.O.>.>.O.+.+.+.@.-.*.;.>.*...+.=.=.o. .X.+.;.=.+.X...%.;.@...%.%.*.>.*.%.%.>.>.%.o.>.>.&.>.>.%.%.%.%.+.+.+.;.1.=.@.%.1.*.",
"X. .o.@.&.<.&.o.+.+.=.*.,.-.>.>.o.o.%.;.+.+.+.@.*.*.@.+.+.o.>.@.X. .%.&.&.*.%. .%.>.*.&.>.>...%.1.>. ...%.o.+.+.o.>.>.@.o.>.>.=.",
"+.+.+.@.<.>.%.@.+.-.1.,.>.%.>.*.o.*.>.@.+.@.=.>.,.o.+.+.o.>.*.@.X.X. .%.*.>.@.o.>.<.*.>.<.-.o.*.,.%. . ...o.+.+.*.>.%.+.%.*.*.o.",
"+.+.@.*.,.%...o.%.1.1.1.-.&.*.%.;.>.=.+.o.%.%.,.;.+.@.=.>.>.@.+.+.X.X...>.-.+.%.,.*.*.*.&.@.-.>.>.=. . . .X.+.O.>.>.=.@.*.&.%.@.",
"+.+.=.,.*.....%.>.>.1.>.-.*.*.*.>.>.@.-.>.%.>.>.=.=.>.;.>.>.+.+.+.+.=.>.>.@.o.,.>.%.&.%. .@.&.<.>.@.@.X.X.X.+.%.*.*.X.X.%.%.%.+.",
"+.@.>.>... .%.&.*.>.1.;. .&.*.>.<.-.=.>.-.&.*.>.*.,.%.>.,.-.+.+.#.6.;.1.-.+.;.>.*.......X.@.*.>.%.+.+.+.@.O.O.%.*.%.@.X.%.%.o.+.",
"@.-.>.>.o. .%.$.*.<.>.%.%.*.>.>.*.%.<.>.o.&.*.>.,.>.>.>.>.o.+.7.3.-.<.,.o.o.*.>.-.+.@.X.+.o.>.>.o.+.+.o.%.=.o.%.*.%.+. . . .X.+.",
"%.>.>.%.+.X. ...<.>.>.*.*.>.>.*.&.>.>.-. .*.*.>.,.,.*.*.*.#.9.q.5.%.<.*.+.-.>.*.o.+.+.+.@.>.>.&.o.+.-.>.-.@. .%.%.O.+. . . .@.o.",
"-.&.*.%.+.+.+.:.<.*.>.1.>.,.*.&.*.>.>.o...m &             & _ 6.o.*.>.M %     & x +.+.@.%.1.&.$.o.%.,.%.+.+.....$.X.+.+.+.o.%.>.",
"%.*.&.o.+.+.5.3.*.>.1.>.>.*.%.%.>.>.-._ ^ j > o X X - : < 8 N B | &.( x 8 : : q l N [ o.,.>.$. .%.>.>.@.+.+. . ...X.+.+.X.*.>.@.",
"%.%.%.X.+.5.q.<.*.>.>.*.>.&...%.>.>.%./ 9 = 2 : o - S f.f.U 8 6 ^ / 7 < U f.i.U < 6 M ;.,.*. . .&.&.-.+.+.+.o. . .X.+.o.*.>.-.+.",
"..%...X.@.4.4.%.*.*.*.&.*.o. .>.>.%.>./ & o 1 3 < y Q k.k.Q y 8 k k 8 s g.N.N.a.s 8 z ` &.=.o. .%.%.o.+.+.+...o.X.+.+...*.%.@.+.",
" . . .@.7.w.7...%.%.%.>.=.@.%.1.*.*.>.^ % . o 1 L Q H ~ ~ H Q U 8 8 U g.M.N.A.M.h.U 8 7 ( @.+. . . .@.+.o.*.@.+.+.+. ...%.O.@.+.",
" . .X.#.4.4.O.X...$.>.>.@.@.,.<.%.*.*.n % X - s g.k.~ D D ~ k.g.s s g.N.n.v.v.M.N.f.< & v +.+.+.X.X.@.%.,.-.+.+.+.+.X. .$.X.+.X.",
"X.X.X.7.4.2.+.@.o.%.,.-.+.%.1.&...%.%.b % - S g.M.k.~ D D ~ k.M.g.g.m.n.p.y.r.p.n.f.< & v +.+.+.+.+.;.<.;.+.+.+.+.+.+.X.X.@.+.+.",
"+.+.@.9.9.5.+.+.@.>.,.@.o.>.>.O. . . .b & ; E n.N.l.H F F H l.V.V.N.n.s.T K P t.b.f.< & b +.+.+.@. .*.*.@.+.+.+.+.+.+.+.+.@.+.+.",
"+.+.#.8.8.#.+.+.;.<.%.@.%.>.*.@.+.+.+.x & * V p.M.x.W G G W x.A.V.n.p.T K f f R z.f.< & c +.+.+.o.$.&.%.+.+.+.+.+.o.+.+.5.6.+.+.",
"+.+.7.7.7.@.+.@.>.>.=.@.*.*.%.@.+.+.+.) 9 > e C t.t.C i i C E f.u.t.C u y 3 t d E U 8 4 n +.+.=. ...$.o.+.+.+.@.-.@.+.8.8.+.+.+.",
"+.@.5.7.5.@.+.%.>.*.@.o.&.*.O.+.+.+.o.&.` g > * ; ; * # # - ; : < ; * # # # # # ; 8 h m [ +.%.o.X. . .+.+.+.@.*.o.+.9.q.@.+.+.+.",
"+.@.5.5.#.+.@.*.*.%.@...%.%.o.+.+.+.*.1.*.m 4 + . . o O O O O # O O O O O o   . $ 4 M +.+.;.;.+.+.X.X.+.+.@.;.*.+.7.w.6.+.+.+.+.",
"+.@.#.#.#.@. .*.&.%.+. .....X.+.+.o.>.>.%.} ^ 0 + o 1 t t t 3 t 3 3 3 w 3 1 o @ 0 B [ +.=.>.@.+.+.+.+.@.=.%.,.@.5.q.9.#.+.+.+.+.",
"-.@.@.@.@.5.%.%.%.O.X. . . .@.@.=.*.>.*.@.} ^ r > 1 A ! R R Y R Y L K Z f a : , r B +.%.,.-.+.+.+.+.@.%.=.>.>.#.8.q.2.+.+.+.+.+.",
"@.+.+.@.-.-. .%.%.o.+.X. .o.O.%.-.*.>.%.+.n 6 > e P c.C.b.z.z.c.x.g.T K K V p e > 4 / >.,.o.+.+.+.@.*.;.;.>.-.5.3.3.=.+.+.+.@.;.",
"@.+.+.-.*.@.......X.+.+.@.%.>.-.-.*.*.O.+.x % * C a.Z.H.F.D.A.N.V.n.p.y.i.u.y.C * & ) ,.*.@.+.+.+.;.>.-.>.>.=.;.0.<.+.+.@.@.<.;.",
"+.@.-.<.O.X.X. . .+.@.:.*.>.%.+.%.>.&.o.+.x % ; t.M.V.F.H.G.S.V.V.N.n.m.Z.Z.m.t.; & ^ >.%.+.+.+.=.,.;.&.>.*.=.1.4.-.@.o.-.>.>.@.",
"=.%.,.>.+.+.o.+. .5.9.%.>.*.@.#.<.%.$.@.+.M & < i.V.V.V.D.D.A.A.S.S.A.A.D.D.Z.f.< & ^ >.@.+.+.X.>.,.=.&.*.%.<.1.:.5.;.-.*.>.-.+.",
"*.*.<.%.+.+.+.+.5.4.:.%.%.-.@.9.:.....+.5._ & < f.V.V.m.d.d.M.S.G.G.S.m.a.g.M.f.< & ^ *.@.+.+.;.1.>.%.&.*.*.1.:.5.>.*.%.>.>.O.;.",
":.>.<.o.+.+.+.5.q.3. ...$.o.9.3. . .o.5.q.) % < f.N.m.h.i.p.n.A.S.D.V.x.y.y.v.f.< & v %.+.+.@.>.1.-.%.%.*.>.>.%.:.<.-.&.*.*.>.>.",
">.>.&.@.+.+.@.4.q.5.X. . .6.w.6.X.o.-.0.q.x % < f.n.p.p.h.M.N.M.a.a.m.v.r.y.x.u.: & m  .+.+.%.>.>.O.%.%.>.>.%.;.1.%. .*.*.>.,.>.",
"*.>.%.+.+.@.7.4.3.@.5.#.5.w.q.@.+.X.9.q.6.N 6 8 U u.u.p.d.v.v.d.e.e.s.h.i.y.u.U q 4 ^ o.+.+.%.>.*.o.%.>.<.&.&.>.>.O.%.%.>.>.>.>.",
"*.&.o.+.+.#.9.9.6.6.7.+.9.B.8.+.+.6.9.3.#.[ M h 8 y u.d.i.y.r.e.I I e.p.h.i.y q r m | X.+.@.%.*.%.%.>.>.%.%.>.>.*.o.%.*.>.>.,.*.",
"&.%.@.+.+.6.8.8.7.9.@.5.q.w.5.+.@.7.9.7.+.+.+.M 4 q U u.y.e.I J J I e.u.u.U 8 4 m  . .@.+.o.%.%.&.*.>.*.%.%.>.>.-.o.*.>.&.,.>.%.",
"%.%.+.+.+.7.7.8.q.6.+.8.q.9.@.+.#.7.7.5.+.+.@. .M c 8 y i.h.t.J J e.s.u.y q k M _ X.X.X.+. ...%.*.*.*.%...&.<.*.%.>.>.%.>.,.%.%.",
"%...+.+.@.7.7.q.q.@.#.9.9.8.@.+.5.7.7.#.+.+.*.o.*.' 4 8 U u.u.r.r.y.u.U q 7 ^ @.+.+.X.O.o.o. .%.%.*.%.X. .>.>.%.<.>.o.=.>.>.o.%.",
" . .X.+.@.5.8.w.8.+.5.8.9.5.+.5.6.#.5.@.@.*.;.=.1.&.M l 8 y i.v.v.u.y 8 c / | +.+.=.;.o.+.+.X...&.<.@.@.>.,.%.<.>.%.@.%.>.*.o...",
" .X.+.+.@.5.4.q.5.+.5.8.8.6.9.6.@.@.5.-.;.1.=.*.>.&.+.^ 5 8 U f.f.U 8 9 ` &.o.X.;.>.O.+.+.+.+.O.>.*.+.=.,.>.%.&.*.o.@.*.>.-.X. .",
"X.X.@.+.+.7.4.9.@.@.7.6.9.q.8.+.+.@.;.-.>.>.o.>.>.;.o. ./ z 8 : < 8 k ' &.%.o.;.1.;.+.+.+.+.@.%.1.o.@.>.>.%.%.%...+.=.>.>.=.@.X.",
"o.-.o.+.@.8.9.7.+.6.7.7.q.9.#.+.+.>.%.&.,.-.%.*.>.@.o.$.&./ 5 % % 4 ' ,.&.$.%.<.<.#.+.+.+.+.=.1.>.+.o.>.>.O.X. . .@.&.>.*.o.+.+.",
">.#.+.+.#.9.9.5.6.9.5.2.3.5.+.+.*.<.-.>.>.o.*.,.%.@...%.*.*./ x x ` *.>. .%.%.1.;.+.+.+.+.o.*.1.-.@.&.>.%.@.+.+.+.o.>.>.&.+.+.o.",
"o.+.+.+.6.8.7.7.q.5.6.8.8.@.+.-.1.;.*.*.&.=.,.>.%.+.%.&.,.>.@.@.;.>.,.;.X...<.0.@.@.+.@.o.-.>.>.o.o.*.*.-.+.+.+.+.*.>.%...@.;.,.",
"+.+.+.+.6.6.8.w.3.5.5.6.5.+.@.>.>.-.&.*.*.>.>.%.%.;.&.>.>.-.-.>.<.1.<.+.X.*.B.:.@.@.%.;.O.&.*.;.+.O.%.&.o.+.+.+.=.1.*.....%.<.>.",
"+.+.+.@.5.6.3.w.6.@.#.#.#.5.:.,.>.O.%.*.*.>.*.%.>.*.%.>.>.>.,.>.>.1.*.+.@.4.4.@.@.*.<.@.o.*.*.%.+. .%.%.o.+.+.@.>.1.%. .%.&.*.o.",
"+.+.+.5.5.6.w.q.@.+.+.5.8.;.>.,.%.%.%.*.<.>.%.>.<.O.&.>.,.1.1.*.1.>.-.+.7.B.2.X.&.>.-.+.O.*.*. .+...%.%.X.+.@.-.<.>.o. .%.%.%.o.",
"+.o.;.=.=.9.q.9.+.+.6.q.7.=.>.>.%...%.>.>.&.*.,.%.%.&.<.,.,.<.>.>.>.o.#.4.B.5.%.*.*.@.+.%.*.%.o.X. .*...@.@.-.*.>.%.+.X...%.o.+.",
";.>.o.o.5.9.9.5.+.7.4.3.@.&.*.*.o.&.1.>.&.*.>.>.=.%.>.>.>.,.>.>.>.*.o.8.q.9.O.%.%...#.8.*...%.X.+.:.:.o.%.;.%.*.*.O.+.@.-. .X.+.",
">.=.=.@.6.9.9.#.5.3.9.@.@.%.*.&.%.>.>.%.%.*.>.*.o.%.>.<.>.,.;.&.>.%.o.8.3.:. ...%.2.q.-. . . .X.7.3.-.*.<.o.%.&.*.O.7.6.@.+.@.%.",
";.;.=.@.7.9.7.5.7.8.7.+. .%.%.*.*.>.&...%.<.<. .o.>.*.*.,.>.%.&.*. .5.9.9.5.o. .1.q.7.@. . . .5.q.:.*.<.=.+.%.%.>.4.8.+.+.@.%.>.",
"%.>.@.@.7.7.6.5.5.7.@.+.X. .%.*.*.*.%...*.>.&.&.,.>.$.*.1.*...%.%.o.6.7.7.#.+.7.4.9.+.+.X.X.O.q.q.*.*.%.@.X...<.w.4.@.+.+.O.*.*.",
",.-.+.5.6.6.5.#.#.5.+.@.o. ...%.>.;.X.o.,.*.*.<.>.o.=.>.>... .....o.6.7.6.@.5.8.9.5.+.+.+.+.2.w.<.%.%.o.@.X.*.0.0.5.+.+.+...*.*.",
">.+.+.#.6.6.#.+.@.@.-.#.+.X. .%.>.o.+.*.1.&.*.>.;.@.%.>.>.o. . . .@.5.5.5.+.5.6.6.+.+.+.@.#.q.q.*.....X.+.O.<.1.2.@.+.+.X.*.*.*.",
"-.+.@.-.-.5.@.+.@.*.-.+.+.+.o.,.%.@.-.1.>.%.%.%.o.@.*.>.%.@.o.X. .@.@.#.#.@.#.5.5.+.+.=.o.7.q.9.@. .o.+.+.5.:.2.-.+.+.+.-.*.%.1.",
"@.@.;.;.@.@.@.o.*.;.+.+.+.o.>.,.O.@.*.1.%. .%...o.o.>.>.o.+.+.@.@.o.o.@.@.+.+.+.@.+.=.%.#.9.9.8.+.+.+.+.+.#.5.5.@.+.+.#.1.%.*.<.",
"+.>.*.@.@.@.-.*.,.o.+.+.@.>.,.>.@.O.>.*.o.X.o.X.+.&.,.%.o.+.+.@.;.@.+.+.+.+.+.+.X.O.<.o.5.8.9.#.+.+.+.+.@.+.@.@.+.+.@.>.>.-.<.*.",
"*.,.@.+.=.%.*.,.;.+.@.-.>.1.,.-.+.*.*.*.@.+.+.+.o.>.>.&.@.@.-.>.@.+.+.+.+.+.+.#.O.>.;.@.6.8.8.#.+.+.+.+.@.@.+.+.+.@.*.1.-.&.*.*.",
",.*.@.-.>.-.>.>.o.-.>.;.,.,.>.@.o.&.&...+.+.+.@.*.1.%.%.@.*.,.-.+.+.+.+.+.+.=.-.&.1.O.+.6.:.:.@.+.+.+.+.=.+.+.+.@.*.1.1.%.&.*.*.",
">.-.-.,.-.&.*.*.*.,.%.>.,.>.*.+.O.%.%.o.+.+.+.-.1.*.....%.>.*.+.+.+.+.+.+.#.>.-.<.<.+.+.:.2.5.@.+.+.-.;.+.+.+.@.;.>.1.*. .%.*.>."
};
